%FSLAX45Y45*%
G04 Gerber Fmt 4.5, Leading zero omitted, Abs format (unit mm)*
G04 Created by KiCad (PCBNEW 6.0.1-79c1e3a40b~116~ubuntu20.04.1) date 2022-02-02 02:26:10*
%MOMM*%
%LPD*%
G01*
G04 APERTURE LIST*
%TA.AperFunction,Profile*%
%ADD10C,0.100000*%
%TD*%
%ADD11C,0.200000*%
%ADD12C,0.100000*%
%ADD13C,0.101600*%
G04 APERTURE END LIST*
D10*
X14106000Y-6810000D02*
X16306000Y-6810000D01*
X16306000Y-6810000D02*
X16306000Y-8110000D01*
X16306000Y-8110000D02*
X14106000Y-8110000D01*
X14106000Y-8110000D02*
X14106000Y-6810000D01*
D11*
D12*
X14521000Y-7659000D02*
X14621000Y-7759000D01*
X14621000Y-7659000D02*
X14521000Y-7759000D01*
X14775000Y-7659000D02*
X14875000Y-7759000D01*
X14875000Y-7659000D02*
X14775000Y-7759000D01*
X15029000Y-7659000D02*
X15129000Y-7759000D01*
X15129000Y-7659000D02*
X15029000Y-7759000D01*
X15283000Y-7659000D02*
X15383000Y-7759000D01*
X15383000Y-7659000D02*
X15283000Y-7759000D01*
X15537000Y-7659000D02*
X15637000Y-7759000D01*
X15637000Y-7659000D02*
X15537000Y-7759000D01*
X15791000Y-7659000D02*
X15891000Y-7759000D01*
X15891000Y-7659000D02*
X15791000Y-7759000D01*
D13*
X14367800Y-7060000D02*
G75*
G03*
X14367800Y-7060000I-50800J0D01*
G01*
X14621800Y-7060000D02*
G75*
G03*
X14621800Y-7060000I-50800J0D01*
G01*
X14875800Y-7060000D02*
G75*
G03*
X14875800Y-7060000I-50800J0D01*
G01*
X15129800Y-7060000D02*
G75*
G03*
X15129800Y-7060000I-50800J0D01*
G01*
X15383800Y-7060000D02*
G75*
G03*
X15383800Y-7060000I-50800J0D01*
G01*
X15637800Y-7060000D02*
G75*
G03*
X15637800Y-7060000I-50800J0D01*
G01*
X15891800Y-7060000D02*
G75*
G03*
X15891800Y-7060000I-50800J0D01*
G01*
X16145800Y-7060000D02*
G75*
G03*
X16145800Y-7060000I-50800J0D01*
G01*
D11*
X14358619Y-8425476D02*
X14358619Y-8225476D01*
X14406238Y-8225476D01*
X14434809Y-8235000D01*
X14453857Y-8254048D01*
X14463381Y-8273095D01*
X14472905Y-8311190D01*
X14472905Y-8339762D01*
X14463381Y-8377857D01*
X14453857Y-8396905D01*
X14434809Y-8415952D01*
X14406238Y-8425476D01*
X14358619Y-8425476D01*
X14558619Y-8425476D02*
X14558619Y-8292143D01*
X14558619Y-8330238D02*
X14568143Y-8311190D01*
X14577667Y-8301667D01*
X14596714Y-8292143D01*
X14615762Y-8292143D01*
X14682428Y-8425476D02*
X14682428Y-8292143D01*
X14682428Y-8225476D02*
X14672905Y-8235000D01*
X14682428Y-8244524D01*
X14691952Y-8235000D01*
X14682428Y-8225476D01*
X14682428Y-8244524D01*
X14806238Y-8425476D02*
X14787190Y-8415952D01*
X14777667Y-8396905D01*
X14777667Y-8225476D01*
X14911000Y-8425476D02*
X14891952Y-8415952D01*
X14882428Y-8396905D01*
X14882428Y-8225476D01*
X15139571Y-8425476D02*
X15139571Y-8225476D01*
X15206238Y-8368333D01*
X15272905Y-8225476D01*
X15272905Y-8425476D01*
X15453857Y-8425476D02*
X15453857Y-8320714D01*
X15444333Y-8301667D01*
X15425286Y-8292143D01*
X15387190Y-8292143D01*
X15368143Y-8301667D01*
X15453857Y-8415952D02*
X15434809Y-8425476D01*
X15387190Y-8425476D01*
X15368143Y-8415952D01*
X15358619Y-8396905D01*
X15358619Y-8377857D01*
X15368143Y-8358809D01*
X15387190Y-8349286D01*
X15434809Y-8349286D01*
X15453857Y-8339762D01*
X15549095Y-8292143D02*
X15549095Y-8492143D01*
X15549095Y-8301667D02*
X15568143Y-8292143D01*
X15606238Y-8292143D01*
X15625286Y-8301667D01*
X15634809Y-8311190D01*
X15644333Y-8330238D01*
X15644333Y-8387381D01*
X15634809Y-8406429D01*
X15625286Y-8415952D01*
X15606238Y-8425476D01*
X15568143Y-8425476D01*
X15549095Y-8415952D01*
X15730048Y-8406429D02*
X15739571Y-8415952D01*
X15730048Y-8425476D01*
X15720524Y-8415952D01*
X15730048Y-8406429D01*
X15730048Y-8425476D01*
X15730048Y-8301667D02*
X15739571Y-8311190D01*
X15730048Y-8320714D01*
X15720524Y-8311190D01*
X15730048Y-8301667D01*
X15730048Y-8320714D01*
D12*
X14001000Y-8705000D02*
X14101000Y-8805000D01*
X14101000Y-8705000D02*
X14001000Y-8805000D01*
D11*
X14463381Y-8845476D02*
X14349095Y-8845476D01*
X14406238Y-8845476D02*
X14406238Y-8645476D01*
X14387190Y-8674048D01*
X14368143Y-8693095D01*
X14349095Y-8702619D01*
X14549095Y-8826429D02*
X14558619Y-8835952D01*
X14549095Y-8845476D01*
X14539571Y-8835952D01*
X14549095Y-8826429D01*
X14549095Y-8845476D01*
X14682428Y-8645476D02*
X14701476Y-8645476D01*
X14720524Y-8655000D01*
X14730048Y-8664524D01*
X14739571Y-8683571D01*
X14749095Y-8721667D01*
X14749095Y-8769286D01*
X14739571Y-8807381D01*
X14730048Y-8826429D01*
X14720524Y-8835952D01*
X14701476Y-8845476D01*
X14682428Y-8845476D01*
X14663381Y-8835952D01*
X14653857Y-8826429D01*
X14644333Y-8807381D01*
X14634809Y-8769286D01*
X14634809Y-8721667D01*
X14644333Y-8683571D01*
X14653857Y-8664524D01*
X14663381Y-8655000D01*
X14682428Y-8645476D01*
X14872905Y-8645476D02*
X14891952Y-8645476D01*
X14911000Y-8655000D01*
X14920524Y-8664524D01*
X14930048Y-8683571D01*
X14939571Y-8721667D01*
X14939571Y-8769286D01*
X14930048Y-8807381D01*
X14920524Y-8826429D01*
X14911000Y-8835952D01*
X14891952Y-8845476D01*
X14872905Y-8845476D01*
X14853857Y-8835952D01*
X14844333Y-8826429D01*
X14834809Y-8807381D01*
X14825286Y-8769286D01*
X14825286Y-8721667D01*
X14834809Y-8683571D01*
X14844333Y-8664524D01*
X14853857Y-8655000D01*
X14872905Y-8645476D01*
X15063381Y-8645476D02*
X15082428Y-8645476D01*
X15101476Y-8655000D01*
X15111000Y-8664524D01*
X15120524Y-8683571D01*
X15130048Y-8721667D01*
X15130048Y-8769286D01*
X15120524Y-8807381D01*
X15111000Y-8826429D01*
X15101476Y-8835952D01*
X15082428Y-8845476D01*
X15063381Y-8845476D01*
X15044333Y-8835952D01*
X15034809Y-8826429D01*
X15025286Y-8807381D01*
X15015762Y-8769286D01*
X15015762Y-8721667D01*
X15025286Y-8683571D01*
X15034809Y-8664524D01*
X15044333Y-8655000D01*
X15063381Y-8645476D01*
X15215762Y-8845476D02*
X15215762Y-8712143D01*
X15215762Y-8731190D02*
X15225286Y-8721667D01*
X15244333Y-8712143D01*
X15272905Y-8712143D01*
X15291952Y-8721667D01*
X15301476Y-8740714D01*
X15301476Y-8845476D01*
X15301476Y-8740714D02*
X15311000Y-8721667D01*
X15330048Y-8712143D01*
X15358619Y-8712143D01*
X15377667Y-8721667D01*
X15387190Y-8740714D01*
X15387190Y-8845476D01*
X15482428Y-8845476D02*
X15482428Y-8712143D01*
X15482428Y-8731190D02*
X15491952Y-8721667D01*
X15511000Y-8712143D01*
X15539571Y-8712143D01*
X15558619Y-8721667D01*
X15568143Y-8740714D01*
X15568143Y-8845476D01*
X15568143Y-8740714D02*
X15577667Y-8721667D01*
X15596714Y-8712143D01*
X15625286Y-8712143D01*
X15644333Y-8721667D01*
X15653857Y-8740714D01*
X15653857Y-8845476D01*
X16044333Y-8635952D02*
X15872905Y-8893095D01*
X16301476Y-8645476D02*
X16320524Y-8645476D01*
X16339571Y-8655000D01*
X16349095Y-8664524D01*
X16358619Y-8683571D01*
X16368143Y-8721667D01*
X16368143Y-8769286D01*
X16358619Y-8807381D01*
X16349095Y-8826429D01*
X16339571Y-8835952D01*
X16320524Y-8845476D01*
X16301476Y-8845476D01*
X16282428Y-8835952D01*
X16272905Y-8826429D01*
X16263381Y-8807381D01*
X16253857Y-8769286D01*
X16253857Y-8721667D01*
X16263381Y-8683571D01*
X16272905Y-8664524D01*
X16282428Y-8655000D01*
X16301476Y-8645476D01*
X16453857Y-8826429D02*
X16463381Y-8835952D01*
X16453857Y-8845476D01*
X16444333Y-8835952D01*
X16453857Y-8826429D01*
X16453857Y-8845476D01*
X16587190Y-8645476D02*
X16606238Y-8645476D01*
X16625286Y-8655000D01*
X16634809Y-8664524D01*
X16644333Y-8683571D01*
X16653857Y-8721667D01*
X16653857Y-8769286D01*
X16644333Y-8807381D01*
X16634809Y-8826429D01*
X16625286Y-8835952D01*
X16606238Y-8845476D01*
X16587190Y-8845476D01*
X16568143Y-8835952D01*
X16558619Y-8826429D01*
X16549095Y-8807381D01*
X16539571Y-8769286D01*
X16539571Y-8721667D01*
X16549095Y-8683571D01*
X16558619Y-8664524D01*
X16568143Y-8655000D01*
X16587190Y-8645476D01*
X16720524Y-8645476D02*
X16844333Y-8645476D01*
X16777667Y-8721667D01*
X16806238Y-8721667D01*
X16825286Y-8731190D01*
X16834810Y-8740714D01*
X16844333Y-8759762D01*
X16844333Y-8807381D01*
X16834810Y-8826429D01*
X16825286Y-8835952D01*
X16806238Y-8845476D01*
X16749095Y-8845476D01*
X16730048Y-8835952D01*
X16720524Y-8826429D01*
X16939571Y-8845476D02*
X16977667Y-8845476D01*
X16996714Y-8835952D01*
X17006238Y-8826429D01*
X17025286Y-8797857D01*
X17034810Y-8759762D01*
X17034810Y-8683571D01*
X17025286Y-8664524D01*
X17015762Y-8655000D01*
X16996714Y-8645476D01*
X16958619Y-8645476D01*
X16939571Y-8655000D01*
X16930048Y-8664524D01*
X16920524Y-8683571D01*
X16920524Y-8731190D01*
X16930048Y-8750238D01*
X16939571Y-8759762D01*
X16958619Y-8769286D01*
X16996714Y-8769286D01*
X17015762Y-8759762D01*
X17025286Y-8750238D01*
X17034810Y-8731190D01*
X17206238Y-8712143D02*
X17206238Y-8845476D01*
X17158619Y-8635952D02*
X17111000Y-8778810D01*
X17234810Y-8778810D01*
X17301476Y-8645476D02*
X17301476Y-8683571D01*
X17377667Y-8645476D02*
X17377667Y-8683571D01*
X17672905Y-8921667D02*
X17663381Y-8912143D01*
X17644333Y-8883571D01*
X17634810Y-8864524D01*
X17625286Y-8835952D01*
X17615762Y-8788333D01*
X17615762Y-8750238D01*
X17625286Y-8702619D01*
X17634810Y-8674048D01*
X17644333Y-8655000D01*
X17663381Y-8626429D01*
X17672905Y-8616905D01*
X17834810Y-8645476D02*
X17796714Y-8645476D01*
X17777667Y-8655000D01*
X17768143Y-8664524D01*
X17749095Y-8693095D01*
X17739571Y-8731190D01*
X17739571Y-8807381D01*
X17749095Y-8826429D01*
X17758619Y-8835952D01*
X17777667Y-8845476D01*
X17815762Y-8845476D01*
X17834810Y-8835952D01*
X17844333Y-8826429D01*
X17853857Y-8807381D01*
X17853857Y-8759762D01*
X17844333Y-8740714D01*
X17834810Y-8731190D01*
X17815762Y-8721667D01*
X17777667Y-8721667D01*
X17758619Y-8731190D01*
X17749095Y-8740714D01*
X17739571Y-8759762D01*
X18091952Y-8845476D02*
X18091952Y-8645476D01*
X18177667Y-8845476D02*
X18177667Y-8740714D01*
X18168143Y-8721667D01*
X18149095Y-8712143D01*
X18120524Y-8712143D01*
X18101476Y-8721667D01*
X18091952Y-8731190D01*
X18301476Y-8845476D02*
X18282429Y-8835952D01*
X18272905Y-8826429D01*
X18263381Y-8807381D01*
X18263381Y-8750238D01*
X18272905Y-8731190D01*
X18282429Y-8721667D01*
X18301476Y-8712143D01*
X18330048Y-8712143D01*
X18349095Y-8721667D01*
X18358619Y-8731190D01*
X18368143Y-8750238D01*
X18368143Y-8807381D01*
X18358619Y-8826429D01*
X18349095Y-8835952D01*
X18330048Y-8845476D01*
X18301476Y-8845476D01*
X18482429Y-8845476D02*
X18463381Y-8835952D01*
X18453857Y-8816905D01*
X18453857Y-8645476D01*
X18634810Y-8835952D02*
X18615762Y-8845476D01*
X18577667Y-8845476D01*
X18558619Y-8835952D01*
X18549095Y-8816905D01*
X18549095Y-8740714D01*
X18558619Y-8721667D01*
X18577667Y-8712143D01*
X18615762Y-8712143D01*
X18634810Y-8721667D01*
X18644333Y-8740714D01*
X18644333Y-8759762D01*
X18549095Y-8778810D01*
X18720524Y-8835952D02*
X18739571Y-8845476D01*
X18777667Y-8845476D01*
X18796714Y-8835952D01*
X18806238Y-8816905D01*
X18806238Y-8807381D01*
X18796714Y-8788333D01*
X18777667Y-8778810D01*
X18749095Y-8778810D01*
X18730048Y-8769286D01*
X18720524Y-8750238D01*
X18720524Y-8740714D01*
X18730048Y-8721667D01*
X18749095Y-8712143D01*
X18777667Y-8712143D01*
X18796714Y-8721667D01*
X18872905Y-8921667D02*
X18882429Y-8912143D01*
X18901476Y-8883571D01*
X18911000Y-8864524D01*
X18920524Y-8835952D01*
X18930048Y-8788333D01*
X18930048Y-8750238D01*
X18920524Y-8702619D01*
X18911000Y-8674048D01*
X18901476Y-8655000D01*
X18882429Y-8626429D01*
X18872905Y-8616905D01*
D13*
X14101000Y-9019000D02*
G75*
G03*
X14101000Y-9019000I-50800J0D01*
G01*
D11*
X14463381Y-9109476D02*
X14349095Y-9109476D01*
X14406238Y-9109476D02*
X14406238Y-8909476D01*
X14387190Y-8938048D01*
X14368143Y-8957095D01*
X14349095Y-8966619D01*
X14549095Y-9090429D02*
X14558619Y-9099952D01*
X14549095Y-9109476D01*
X14539571Y-9099952D01*
X14549095Y-9090429D01*
X14549095Y-9109476D01*
X14682428Y-8909476D02*
X14701476Y-8909476D01*
X14720524Y-8919000D01*
X14730048Y-8928524D01*
X14739571Y-8947571D01*
X14749095Y-8985667D01*
X14749095Y-9033286D01*
X14739571Y-9071381D01*
X14730048Y-9090429D01*
X14720524Y-9099952D01*
X14701476Y-9109476D01*
X14682428Y-9109476D01*
X14663381Y-9099952D01*
X14653857Y-9090429D01*
X14644333Y-9071381D01*
X14634809Y-9033286D01*
X14634809Y-8985667D01*
X14644333Y-8947571D01*
X14653857Y-8928524D01*
X14663381Y-8919000D01*
X14682428Y-8909476D01*
X14939571Y-9109476D02*
X14825286Y-9109476D01*
X14882428Y-9109476D02*
X14882428Y-8909476D01*
X14863381Y-8938048D01*
X14844333Y-8957095D01*
X14825286Y-8966619D01*
X15111000Y-8909476D02*
X15072905Y-8909476D01*
X15053857Y-8919000D01*
X15044333Y-8928524D01*
X15025286Y-8957095D01*
X15015762Y-8995190D01*
X15015762Y-9071381D01*
X15025286Y-9090429D01*
X15034809Y-9099952D01*
X15053857Y-9109476D01*
X15091952Y-9109476D01*
X15111000Y-9099952D01*
X15120524Y-9090429D01*
X15130048Y-9071381D01*
X15130048Y-9023762D01*
X15120524Y-9004714D01*
X15111000Y-8995190D01*
X15091952Y-8985667D01*
X15053857Y-8985667D01*
X15034809Y-8995190D01*
X15025286Y-9004714D01*
X15015762Y-9023762D01*
X15215762Y-9109476D02*
X15215762Y-8976143D01*
X15215762Y-8995190D02*
X15225286Y-8985667D01*
X15244333Y-8976143D01*
X15272905Y-8976143D01*
X15291952Y-8985667D01*
X15301476Y-9004714D01*
X15301476Y-9109476D01*
X15301476Y-9004714D02*
X15311000Y-8985667D01*
X15330048Y-8976143D01*
X15358619Y-8976143D01*
X15377667Y-8985667D01*
X15387190Y-9004714D01*
X15387190Y-9109476D01*
X15482428Y-9109476D02*
X15482428Y-8976143D01*
X15482428Y-8995190D02*
X15491952Y-8985667D01*
X15511000Y-8976143D01*
X15539571Y-8976143D01*
X15558619Y-8985667D01*
X15568143Y-9004714D01*
X15568143Y-9109476D01*
X15568143Y-9004714D02*
X15577667Y-8985667D01*
X15596714Y-8976143D01*
X15625286Y-8976143D01*
X15644333Y-8985667D01*
X15653857Y-9004714D01*
X15653857Y-9109476D01*
X16044333Y-8899952D02*
X15872905Y-9157095D01*
X16301476Y-8909476D02*
X16320524Y-8909476D01*
X16339571Y-8919000D01*
X16349095Y-8928524D01*
X16358619Y-8947571D01*
X16368143Y-8985667D01*
X16368143Y-9033286D01*
X16358619Y-9071381D01*
X16349095Y-9090429D01*
X16339571Y-9099952D01*
X16320524Y-9109476D01*
X16301476Y-9109476D01*
X16282428Y-9099952D01*
X16272905Y-9090429D01*
X16263381Y-9071381D01*
X16253857Y-9033286D01*
X16253857Y-8985667D01*
X16263381Y-8947571D01*
X16272905Y-8928524D01*
X16282428Y-8919000D01*
X16301476Y-8909476D01*
X16453857Y-9090429D02*
X16463381Y-9099952D01*
X16453857Y-9109476D01*
X16444333Y-9099952D01*
X16453857Y-9090429D01*
X16453857Y-9109476D01*
X16587190Y-8909476D02*
X16606238Y-8909476D01*
X16625286Y-8919000D01*
X16634809Y-8928524D01*
X16644333Y-8947571D01*
X16653857Y-8985667D01*
X16653857Y-9033286D01*
X16644333Y-9071381D01*
X16634809Y-9090429D01*
X16625286Y-9099952D01*
X16606238Y-9109476D01*
X16587190Y-9109476D01*
X16568143Y-9099952D01*
X16558619Y-9090429D01*
X16549095Y-9071381D01*
X16539571Y-9033286D01*
X16539571Y-8985667D01*
X16549095Y-8947571D01*
X16558619Y-8928524D01*
X16568143Y-8919000D01*
X16587190Y-8909476D01*
X16825286Y-8976143D02*
X16825286Y-9109476D01*
X16777667Y-8899952D02*
X16730048Y-9042810D01*
X16853857Y-9042810D01*
X16968143Y-8909476D02*
X16987190Y-8909476D01*
X17006238Y-8919000D01*
X17015762Y-8928524D01*
X17025286Y-8947571D01*
X17034810Y-8985667D01*
X17034810Y-9033286D01*
X17025286Y-9071381D01*
X17015762Y-9090429D01*
X17006238Y-9099952D01*
X16987190Y-9109476D01*
X16968143Y-9109476D01*
X16949095Y-9099952D01*
X16939571Y-9090429D01*
X16930048Y-9071381D01*
X16920524Y-9033286D01*
X16920524Y-8985667D01*
X16930048Y-8947571D01*
X16939571Y-8928524D01*
X16949095Y-8919000D01*
X16968143Y-8909476D01*
X17158619Y-8909476D02*
X17177667Y-8909476D01*
X17196714Y-8919000D01*
X17206238Y-8928524D01*
X17215762Y-8947571D01*
X17225286Y-8985667D01*
X17225286Y-9033286D01*
X17215762Y-9071381D01*
X17206238Y-9090429D01*
X17196714Y-9099952D01*
X17177667Y-9109476D01*
X17158619Y-9109476D01*
X17139571Y-9099952D01*
X17130048Y-9090429D01*
X17120524Y-9071381D01*
X17111000Y-9033286D01*
X17111000Y-8985667D01*
X17120524Y-8947571D01*
X17130048Y-8928524D01*
X17139571Y-8919000D01*
X17158619Y-8909476D01*
X17301476Y-8909476D02*
X17301476Y-8947571D01*
X17377667Y-8909476D02*
X17377667Y-8947571D01*
X17672905Y-9185667D02*
X17663381Y-9176143D01*
X17644333Y-9147571D01*
X17634810Y-9128524D01*
X17625286Y-9099952D01*
X17615762Y-9052333D01*
X17615762Y-9014238D01*
X17625286Y-8966619D01*
X17634810Y-8938048D01*
X17644333Y-8919000D01*
X17663381Y-8890429D01*
X17672905Y-8880905D01*
X17777667Y-8995190D02*
X17758619Y-8985667D01*
X17749095Y-8976143D01*
X17739571Y-8957095D01*
X17739571Y-8947571D01*
X17749095Y-8928524D01*
X17758619Y-8919000D01*
X17777667Y-8909476D01*
X17815762Y-8909476D01*
X17834810Y-8919000D01*
X17844333Y-8928524D01*
X17853857Y-8947571D01*
X17853857Y-8957095D01*
X17844333Y-8976143D01*
X17834810Y-8985667D01*
X17815762Y-8995190D01*
X17777667Y-8995190D01*
X17758619Y-9004714D01*
X17749095Y-9014238D01*
X17739571Y-9033286D01*
X17739571Y-9071381D01*
X17749095Y-9090429D01*
X17758619Y-9099952D01*
X17777667Y-9109476D01*
X17815762Y-9109476D01*
X17834810Y-9099952D01*
X17844333Y-9090429D01*
X17853857Y-9071381D01*
X17853857Y-9033286D01*
X17844333Y-9014238D01*
X17834810Y-9004714D01*
X17815762Y-8995190D01*
X18091952Y-9109476D02*
X18091952Y-8909476D01*
X18177667Y-9109476D02*
X18177667Y-9004714D01*
X18168143Y-8985667D01*
X18149095Y-8976143D01*
X18120524Y-8976143D01*
X18101476Y-8985667D01*
X18091952Y-8995190D01*
X18301476Y-9109476D02*
X18282429Y-9099952D01*
X18272905Y-9090429D01*
X18263381Y-9071381D01*
X18263381Y-9014238D01*
X18272905Y-8995190D01*
X18282429Y-8985667D01*
X18301476Y-8976143D01*
X18330048Y-8976143D01*
X18349095Y-8985667D01*
X18358619Y-8995190D01*
X18368143Y-9014238D01*
X18368143Y-9071381D01*
X18358619Y-9090429D01*
X18349095Y-9099952D01*
X18330048Y-9109476D01*
X18301476Y-9109476D01*
X18482429Y-9109476D02*
X18463381Y-9099952D01*
X18453857Y-9080905D01*
X18453857Y-8909476D01*
X18634810Y-9099952D02*
X18615762Y-9109476D01*
X18577667Y-9109476D01*
X18558619Y-9099952D01*
X18549095Y-9080905D01*
X18549095Y-9004714D01*
X18558619Y-8985667D01*
X18577667Y-8976143D01*
X18615762Y-8976143D01*
X18634810Y-8985667D01*
X18644333Y-9004714D01*
X18644333Y-9023762D01*
X18549095Y-9042810D01*
X18720524Y-9099952D02*
X18739571Y-9109476D01*
X18777667Y-9109476D01*
X18796714Y-9099952D01*
X18806238Y-9080905D01*
X18806238Y-9071381D01*
X18796714Y-9052333D01*
X18777667Y-9042810D01*
X18749095Y-9042810D01*
X18730048Y-9033286D01*
X18720524Y-9014238D01*
X18720524Y-9004714D01*
X18730048Y-8985667D01*
X18749095Y-8976143D01*
X18777667Y-8976143D01*
X18796714Y-8985667D01*
X18872905Y-9185667D02*
X18882429Y-9176143D01*
X18901476Y-9147571D01*
X18911000Y-9128524D01*
X18920524Y-9099952D01*
X18930048Y-9052333D01*
X18930048Y-9014238D01*
X18920524Y-8966619D01*
X18911000Y-8938048D01*
X18901476Y-8919000D01*
X18882429Y-8890429D01*
X18872905Y-8880905D01*
M02*
