M48
; DRILL file {KiCad 6.0.9-8da3e8f707~116~ubuntu22.04.1} date Sun 20 Nov 2022 03:44:17 PM IST
; FORMAT={-:-/ absolute / inch / decimal}
; #@! TF.CreationDate,2022-11-20T15:44:17+05:30
; #@! TF.GenerationSoftware,Kicad,Pcbnew,6.0.9-8da3e8f707~116~ubuntu22.04.1
; #@! TF.FileFunction,Plated,1,2,PTH
FMAT,2
INCH
; #@! TA.AperFunction,Plated,PTH,ViaDrill
T1C0.0157
; #@! TA.AperFunction,Plated,PTH,ComponentDrill
T2C0.0280
; #@! TA.AperFunction,Plated,PTH,ComponentDrill
T3C0.0315
; #@! TA.AperFunction,Plated,PTH,ComponentDrill
T4C0.0320
; #@! TA.AperFunction,Plated,PTH,ComponentDrill
T5C0.0394
; #@! TA.AperFunction,Plated,PTH,ComponentDrill
T6C0.0400
; #@! TA.AperFunction,Plated,PTH,ComponentDrill
T7C0.0409
; #@! TA.AperFunction,Plated,PTH,ComponentDrill
T8C0.0433
; #@! TA.AperFunction,Plated,PTH,ComponentDrill
T9C0.0512
; #@! TA.AperFunction,Plated,PTH,ComponentDrill
T10C0.0520
; #@! TA.AperFunction,Plated,PTH,ComponentDrill
T11C0.0598
%
G90
G05
T1
X3.2598Y-1.4764
X3.2598Y-1.5787
X3.2598Y-1.7087
X3.2876Y-1.8486
X3.7087Y-1.3055
X3.7087Y-1.4055
X3.7087Y-1.5055
X3.8055Y-1.7762
X3.8087Y-1.3055
X3.8087Y-1.4055
X3.8087Y-1.5055
X3.9087Y-1.3055
X3.9087Y-1.4055
X3.9087Y-1.5055
X3.937Y-2.7638
X3.9394Y-1.7762
X3.9404Y-2.5008
X4.1535Y-2.4953
X4.1535Y-2.5858
X4.3654Y-1.7551
X4.4047Y-2.4724
X4.4047Y-2.5835
X4.4409Y-2.7717
X4.4484Y-1.7547
X4.5886Y-1.9843
X4.6149Y-2.0866
X4.6189Y-2.1339
X4.6331Y-1.6917
X4.687Y-2.4311
X4.6878Y-2.3114
X4.6882Y-1.9799
X4.7343Y-1.6933
X4.7626Y-2.1091
X4.7835Y-1.9803
X4.7874Y-2.1996
X4.8319Y-1.6929
X4.8819Y-1.9803
X4.9295Y-1.6921
X4.9724Y-2.3114
X4.9961Y-3.1972
X5.0244Y-2.5591
X5.0287Y-1.6925
X5.0776Y-2.1327
X5.0795Y-2.3114
X5.126Y-1.6921
X5.189Y-2.5039
X5.2248Y-1.6917
X5.247Y-2.5148
X5.322Y-1.6937
X5.3623Y-2.3117
X5.363Y-2.0795
X5.3701Y-3.5827
X5.3858Y-1.9449
X5.5185Y-2.1429
T2
X2.9002Y-2.4126
X3.099Y-2.4126
X3.2868Y-2.4126
X3.4856Y-2.4126
T4
X3.2724Y-2.6221
X3.2724Y-2.8221
X3.3724Y-2.6221
X3.3724Y-2.8221
X3.4724Y-2.6221
X3.4724Y-2.8221
X3.6323Y-2.6244
X3.6323Y-2.8244
X3.7323Y-2.6244
X3.7323Y-2.8244
X3.8323Y-2.6244
X3.8323Y-2.8244
X4.2409Y-2.0664
X4.2409Y-2.2664
X4.3409Y-2.0664
X4.3409Y-2.2664
X4.4409Y-2.0664
X4.4409Y-2.2664
T5
X3.6748Y-4.3494
X3.6748Y-4.4494
X3.6748Y-4.5494
X3.7772Y-4.3494
X3.7772Y-4.4494
X3.7772Y-4.5494
X4.3144Y-1.4488
X4.4144Y-1.4488
X4.5144Y-1.4488
X4.6144Y-1.4488
X4.7144Y-1.4488
X4.8144Y-1.4488
X4.9144Y-1.4488
X5.115Y-1.4484
X5.215Y-1.4484
X5.315Y-1.4484
X5.415Y-1.4484
X5.515Y-1.4484
X5.615Y-1.4484
X5.811Y-3.5787
X5.811Y-3.6787
X5.811Y-3.7787
X5.811Y-3.8787
X5.811Y-3.9787
T6
X4.259Y-2.8689
X4.259Y-2.9689
X4.259Y-3.0689
X4.259Y-3.1689
X4.259Y-3.2689
X4.259Y-3.3689
X4.259Y-3.4689
X4.259Y-3.5689
X4.259Y-3.6689
X4.259Y-3.7689
X4.259Y-3.8689
X4.259Y-3.9689
X4.259Y-4.0689
X4.259Y-4.1689
X4.259Y-4.2689
X4.259Y-4.3689
X4.259Y-4.4689
X4.259Y-4.5689
X4.259Y-4.6689
X5.5643Y-1.6535
X5.5643Y-1.7535
X5.5643Y-1.8535
X5.5643Y-1.9535
X5.5643Y-2.0535
X5.5713Y-2.4457
X5.5717Y-2.2248
X5.5717Y-2.335
X5.5717Y-2.5565
X5.6523Y-2.8689
X5.6523Y-2.9689
X5.6523Y-3.0689
X5.6523Y-3.1689
X5.6523Y-3.2689
X5.6523Y-3.3689
X5.6523Y-3.4689
X5.6523Y-3.5689
X5.6523Y-3.6689
X5.6523Y-3.7689
X5.6523Y-3.8689
X5.6523Y-3.9689
X5.6523Y-4.0689
X5.6523Y-4.1689
X5.6523Y-4.2689
X5.6523Y-4.3689
X5.6523Y-4.4689
X5.6523Y-4.5689
X5.6523Y-4.6689
X5.6713Y-2.4457
X5.6717Y-2.2248
X5.6717Y-2.335
X5.6717Y-2.5565
X5.6741Y-1.6538
X5.6741Y-1.7538
X5.6741Y-1.8538
X5.6741Y-1.9538
X5.6741Y-2.0538
X5.7713Y-2.4457
X5.7717Y-2.2248
X5.7717Y-2.335
X5.7717Y-2.5565
X5.7835Y-1.6535
X5.7835Y-1.7535
X5.7835Y-1.8535
X5.7835Y-1.9535
X5.7835Y-2.0535
X5.8063Y-3.0693
X5.8063Y-3.1693
X5.8063Y-3.2693
X5.8063Y-3.3693
T7
X4.4559Y-2.8689
X4.4559Y-2.9689
X4.4559Y-3.0689
X4.4559Y-3.1689
X4.4559Y-3.2689
X4.4559Y-3.3689
X4.4559Y-3.4689
X4.4559Y-3.5689
X4.4559Y-3.6689
X4.4559Y-3.7689
X4.4559Y-3.8689
X4.4559Y-3.9689
X4.4559Y-4.0689
X4.4559Y-4.1689
X4.4559Y-4.2689
X4.4559Y-4.3689
X4.4559Y-4.4689
X4.4559Y-4.5689
X4.4559Y-4.6689
X5.4559Y-2.8689
X5.4559Y-2.9689
X5.4559Y-3.0689
X5.4559Y-3.1689
X5.4559Y-3.2689
X5.4559Y-3.3689
X5.4559Y-3.4689
X5.4559Y-3.5689
X5.4559Y-3.6689
X5.4559Y-3.7689
X5.4559Y-3.8689
X5.4559Y-3.9689
X5.4559Y-4.0689
X5.4559Y-4.1689
X5.4559Y-4.2689
X5.4559Y-4.3689
X5.4559Y-4.4689
X5.4559Y-4.5689
X5.4559Y-4.6689
T8
X3.4665Y-3.8705
X3.4665Y-3.9705
X3.4665Y-4.0705
X3.4665Y-4.1705
X3.4665Y-4.2705
X3.4665Y-4.3705
X3.4665Y-4.4705
X3.4665Y-4.5705
X3.9665Y-3.8705
X3.9665Y-3.9705
X3.9665Y-4.0705
X3.9665Y-4.1705
X3.9665Y-4.2705
X3.9665Y-4.3705
X3.9665Y-4.4705
X3.9665Y-4.5705
T9
X3.0004Y-3.8765
X3.0004Y-4.0734
X3.0004Y-4.2702
X3.0004Y-4.4671
X3.0028Y-1.9706
X3.0028Y-2.1675
T10
X3.4142Y-3.009
X3.4142Y-3.109
X3.4142Y-3.209
X3.4142Y-3.309
X3.4142Y-3.409
X3.4142Y-3.509
X3.4142Y-3.609
X3.4142Y-3.709
X4.0142Y-3.009
X4.0142Y-3.109
X4.0142Y-3.209
X4.0142Y-3.309
X4.0142Y-3.409
X4.0142Y-3.509
X4.0142Y-3.609
X4.0142Y-3.709
T11
X3.0Y-2.85
X3.0Y-3.05
X3.0Y-3.25
X3.0Y-3.45
X3.0Y-3.65
T3
G00X2.8654Y-1.5472
M15
G01X2.8654Y-1.6339
M16
G05
G00X2.9323Y-1.7795
M15
G01X3.0189Y-1.7795
M16
G05
G00X3.0937Y-1.5394
M15
G01X3.0937Y-1.6417
M16
G05
T5
G00X5.811Y-4.0787
M15
G01X5.811Y-4.0787
M16
G05
T0
M30
