%FSLAX45Y45*%
G04 Gerber Fmt 4.5, Leading zero omitted, Abs format (unit mm)*
G04 Created by KiCad (PCBNEW 6.0.1-79c1e3a40b~116~ubuntu20.04.1) date 2022-11-22 21:03:44*
%MOMM*%
%LPD*%
G01*
G04 APERTURE LIST*
%TA.AperFunction,Profile*%
%ADD10C,0.100000*%
%TD*%
%ADD11C,0.200000*%
%ADD12C,0.040000*%
%ADD13C,0.071100*%
%ADD14C,0.080000*%
%ADD15C,0.081280*%
%ADD16C,0.100000*%
%ADD17C,0.101600*%
%ADD18C,0.104000*%
%ADD19C,0.110000*%
%ADD20C,0.130000*%
%ADD21C,0.132000*%
%ADD22C,0.152000*%
%ADD23C,0.320000*%
G04 APERTURE END LIST*
D10*
X14828518Y-12213223D02*
G75*
G03*
X15078518Y-11963223I0J250000D01*
G01*
X15100000Y-3250000D02*
X15078518Y-11904096D01*
X6978518Y-11904096D02*
X6978518Y-11963223D01*
X14850000Y-2945000D02*
X7250000Y-2945000D01*
X15078518Y-11904096D02*
X15078518Y-11963223D01*
X15100000Y-3195000D02*
G75*
G03*
X14850000Y-2945000I-250000J0D01*
G01*
X7000000Y-3250000D02*
X6978518Y-11904096D01*
X6978518Y-11963223D02*
G75*
G03*
X7228518Y-12213223I250000J0D01*
G01*
X7228518Y-12213223D02*
X14828518Y-12213223D01*
X7000000Y-3195000D02*
X7000000Y-3250000D01*
X7250000Y-2945000D02*
G75*
G03*
X7000000Y-3195000I0J-250000D01*
G01*
X15100000Y-3195000D02*
X15100000Y-3250000D01*
D11*
D12*
X8260000Y-3730000D02*
X8300000Y-3770000D01*
X8300000Y-3730000D02*
X8260000Y-3770000D01*
X8260000Y-3990000D02*
X8300000Y-4030000D01*
X8300000Y-3990000D02*
X8260000Y-4030000D01*
X8260000Y-4320000D02*
X8300000Y-4360000D01*
X8300000Y-4320000D02*
X8260000Y-4360000D01*
X8330500Y-4675500D02*
X8370500Y-4715500D01*
X8370500Y-4675500D02*
X8330500Y-4715500D01*
X9400000Y-3296000D02*
X9440000Y-3336000D01*
X9440000Y-3296000D02*
X9400000Y-3336000D01*
X9400000Y-3550000D02*
X9440000Y-3590000D01*
X9440000Y-3550000D02*
X9400000Y-3590000D01*
X9400000Y-3804000D02*
X9440000Y-3844000D01*
X9440000Y-3804000D02*
X9400000Y-3844000D01*
X9646000Y-4491500D02*
X9686000Y-4531500D01*
X9686000Y-4491500D02*
X9646000Y-4531500D01*
X9654000Y-3296000D02*
X9694000Y-3336000D01*
X9694000Y-3296000D02*
X9654000Y-3336000D01*
X9654000Y-3550000D02*
X9694000Y-3590000D01*
X9694000Y-3550000D02*
X9654000Y-3590000D01*
X9654000Y-3804000D02*
X9694000Y-3844000D01*
X9694000Y-3804000D02*
X9654000Y-3844000D01*
X9908000Y-3296000D02*
X9948000Y-3336000D01*
X9948000Y-3296000D02*
X9908000Y-3336000D01*
X9908000Y-3550000D02*
X9948000Y-3590000D01*
X9948000Y-3550000D02*
X9908000Y-3590000D01*
X9908000Y-3804000D02*
X9948000Y-3844000D01*
X9948000Y-3804000D02*
X9908000Y-3844000D01*
X9986000Y-4491500D02*
X10026000Y-4531500D01*
X10026000Y-4491500D02*
X9986000Y-4531500D01*
X9988685Y-6332000D02*
X10028685Y-6372000D01*
X10028685Y-6332000D02*
X9988685Y-6372000D01*
X10070000Y-7130000D02*
X10110000Y-7170000D01*
X10110000Y-7130000D02*
X10070000Y-7170000D01*
X10530000Y-6318000D02*
X10570000Y-6358000D01*
X10570000Y-6318000D02*
X10530000Y-6358000D01*
X10530000Y-6548000D02*
X10570000Y-6588000D01*
X10570000Y-6548000D02*
X10530000Y-6588000D01*
X11068000Y-4438000D02*
X11108000Y-4478000D01*
X11108000Y-4438000D02*
X11068000Y-4478000D01*
X11168000Y-6260000D02*
X11208000Y-6300000D01*
X11208000Y-6260000D02*
X11168000Y-6300000D01*
X11168000Y-6542000D02*
X11208000Y-6582000D01*
X11208000Y-6542000D02*
X11168000Y-6582000D01*
X11249000Y-7009000D02*
X11289000Y-7049000D01*
X11289000Y-7009000D02*
X11249000Y-7049000D01*
X11279000Y-4437000D02*
X11319000Y-4477000D01*
X11319000Y-4437000D02*
X11279000Y-4477000D01*
X11634950Y-5020000D02*
X11674950Y-5060000D01*
X11674950Y-5020000D02*
X11634950Y-5060000D01*
X11701950Y-5280000D02*
X11741950Y-5320000D01*
X11741950Y-5280000D02*
X11701950Y-5320000D01*
X11712000Y-5400000D02*
X11752000Y-5440000D01*
X11752000Y-5400000D02*
X11712000Y-5440000D01*
X11748000Y-4277000D02*
X11788000Y-4317000D01*
X11788000Y-4277000D02*
X11748000Y-4317000D01*
X11885000Y-6155000D02*
X11925000Y-6195000D01*
X11925000Y-6155000D02*
X11885000Y-6195000D01*
X11887000Y-5851000D02*
X11927000Y-5891000D01*
X11927000Y-5851000D02*
X11887000Y-5891000D01*
X11888000Y-5009000D02*
X11928000Y-5049000D01*
X11928000Y-5009000D02*
X11888000Y-5049000D01*
X12005000Y-4281000D02*
X12045000Y-4321000D01*
X12045000Y-4281000D02*
X12005000Y-4321000D01*
X12077000Y-5337000D02*
X12117000Y-5377000D01*
X12117000Y-5337000D02*
X12077000Y-5377000D01*
X12130000Y-5010000D02*
X12170000Y-5050000D01*
X12170000Y-5010000D02*
X12130000Y-5050000D01*
X12139907Y-5567000D02*
X12179907Y-5607000D01*
X12179907Y-5567000D02*
X12139907Y-5607000D01*
X12253000Y-4280000D02*
X12293000Y-4320000D01*
X12293000Y-4280000D02*
X12253000Y-4320000D01*
X12380000Y-5010000D02*
X12420000Y-5050000D01*
X12420000Y-5010000D02*
X12380000Y-5050000D01*
X12501000Y-4278000D02*
X12541000Y-4318000D01*
X12541000Y-4278000D02*
X12501000Y-4318000D01*
X12610000Y-5270000D02*
X12650000Y-5310000D01*
X12650000Y-5270000D02*
X12610000Y-5310000D01*
X12610000Y-5851000D02*
X12650000Y-5891000D01*
X12650000Y-5851000D02*
X12610000Y-5891000D01*
X12741000Y-8095000D02*
X12781000Y-8135000D01*
X12781000Y-8095000D02*
X12741000Y-8135000D01*
X12742000Y-6480000D02*
X12782000Y-6520000D01*
X12782000Y-6480000D02*
X12742000Y-6520000D01*
X12753000Y-4279000D02*
X12793000Y-4319000D01*
X12793000Y-4279000D02*
X12753000Y-4319000D01*
X12877000Y-5397000D02*
X12917000Y-5437000D01*
X12917000Y-5397000D02*
X12877000Y-5437000D01*
X12880000Y-5270000D02*
X12920000Y-5310000D01*
X12920000Y-5270000D02*
X12880000Y-5310000D01*
X12882000Y-5851000D02*
X12922000Y-5891000D01*
X12922000Y-5851000D02*
X12882000Y-5891000D01*
X13000000Y-4278000D02*
X13040000Y-4318000D01*
X13040000Y-4278000D02*
X13000000Y-4318000D01*
X13160000Y-6340000D02*
X13200000Y-6380000D01*
X13200000Y-6340000D02*
X13160000Y-6380000D01*
X13251000Y-4277000D02*
X13291000Y-4317000D01*
X13291000Y-4277000D02*
X13251000Y-4317000D01*
X13307502Y-6367502D02*
X13347502Y-6407502D01*
X13347502Y-6367502D02*
X13307502Y-6407502D01*
X13498000Y-4282000D02*
X13538000Y-4322000D01*
X13538000Y-4282000D02*
X13498000Y-4322000D01*
X13600350Y-5851650D02*
X13640350Y-5891650D01*
X13640350Y-5851650D02*
X13600350Y-5891650D01*
X13602000Y-5262000D02*
X13642000Y-5302000D01*
X13642000Y-5262000D02*
X13602000Y-5302000D01*
X13620000Y-9080000D02*
X13660000Y-9120000D01*
X13660000Y-9080000D02*
X13620000Y-9120000D01*
X13930000Y-4890000D02*
X13970000Y-4930000D01*
X13970000Y-4890000D02*
X13930000Y-4930000D01*
X13997000Y-5423000D02*
X14037000Y-5463000D01*
X14037000Y-5423000D02*
X13997000Y-5463000D01*
D13*
X7402050Y-6128000D02*
G75*
G03*
X7402050Y-6128000I-35550J0D01*
G01*
X7907050Y-6128000D02*
G75*
G03*
X7907050Y-6128000I-35550J0D01*
G01*
X8384050Y-6128000D02*
G75*
G03*
X8384050Y-6128000I-35550J0D01*
G01*
X8889050Y-6128000D02*
G75*
G03*
X8889050Y-6128000I-35550J0D01*
G01*
D14*
X7278000Y-4000000D02*
X7278000Y-4080000D01*
X7238000Y-4040000D02*
X7318000Y-4040000D01*
D11*
X7248000Y-3930000D02*
X7248000Y-4150000D01*
X7308000Y-3930000D02*
X7308000Y-4150000D01*
X7248000Y-4150000D02*
G75*
G03*
X7308000Y-4150000I30000J0D01*
G01*
X7308000Y-3930000D02*
G75*
G03*
X7248000Y-3930000I-30000J0D01*
G01*
D14*
X7558000Y-4480000D02*
X7558000Y-4560000D01*
X7518000Y-4520000D02*
X7598000Y-4520000D01*
D11*
X7448000Y-4550000D02*
X7668000Y-4550000D01*
X7448000Y-4490000D02*
X7668000Y-4490000D01*
X7668000Y-4550000D02*
G75*
G03*
X7668000Y-4490000I0J30000D01*
G01*
X7448000Y-4490000D02*
G75*
G03*
X7448000Y-4550000I0J-30000D01*
G01*
D14*
X7858000Y-4000000D02*
X7858000Y-4080000D01*
X7818000Y-4040000D02*
X7898000Y-4040000D01*
D11*
X7828000Y-3910000D02*
X7828000Y-4170000D01*
X7888000Y-3910000D02*
X7888000Y-4170000D01*
X7828000Y-4170000D02*
G75*
G03*
X7888000Y-4170000I30000J0D01*
G01*
X7888000Y-3910000D02*
G75*
G03*
X7828000Y-3910000I-30000J0D01*
G01*
D15*
X8340737Y-6688974D02*
X8340737Y-6631500D01*
X8283263Y-6631500D01*
X8283263Y-6688974D01*
X8340737Y-6688974D01*
X8340737Y-7196974D02*
X8340737Y-7139500D01*
X8283263Y-7139500D01*
X8283263Y-7196974D01*
X8340737Y-7196974D01*
X8594737Y-6688974D02*
X8594737Y-6631500D01*
X8537263Y-6631500D01*
X8537263Y-6688974D01*
X8594737Y-6688974D01*
X8594737Y-7196974D02*
X8594737Y-7139500D01*
X8537263Y-7139500D01*
X8537263Y-7196974D01*
X8594737Y-7196974D01*
X8848737Y-6688974D02*
X8848737Y-6631500D01*
X8791263Y-6631500D01*
X8791263Y-6688974D01*
X8848737Y-6688974D01*
X8848737Y-7196974D02*
X8848737Y-7139500D01*
X8791263Y-7139500D01*
X8791263Y-7196974D01*
X8848737Y-7196974D01*
X9254737Y-6694737D02*
X9254737Y-6637263D01*
X9197263Y-6637263D01*
X9197263Y-6694737D01*
X9254737Y-6694737D01*
X9254737Y-7202737D02*
X9254737Y-7145263D01*
X9197263Y-7145263D01*
X9197263Y-7202737D01*
X9254737Y-7202737D01*
X9508737Y-6694737D02*
X9508737Y-6637263D01*
X9451263Y-6637263D01*
X9451263Y-6694737D01*
X9508737Y-6694737D01*
X9508737Y-7202737D02*
X9508737Y-7145263D01*
X9451263Y-7145263D01*
X9451263Y-7202737D01*
X9508737Y-7202737D01*
X9762737Y-6694737D02*
X9762737Y-6637263D01*
X9705263Y-6637263D01*
X9705263Y-6694737D01*
X9762737Y-6694737D01*
X9762737Y-7202737D02*
X9762737Y-7145263D01*
X9705263Y-7145263D01*
X9705263Y-7202737D01*
X9762737Y-7202737D01*
X10800737Y-5277447D02*
X10800737Y-5219973D01*
X10743263Y-5219973D01*
X10743263Y-5277447D01*
X10800737Y-5277447D01*
X10800737Y-5785447D02*
X10800737Y-5727973D01*
X10743263Y-5727973D01*
X10743263Y-5785447D01*
X10800737Y-5785447D01*
X11054737Y-5277447D02*
X11054737Y-5219973D01*
X10997263Y-5219973D01*
X10997263Y-5277447D01*
X11054737Y-5277447D01*
X11054737Y-5785447D02*
X11054737Y-5727973D01*
X10997263Y-5727973D01*
X10997263Y-5785447D01*
X11054737Y-5785447D01*
X11308737Y-5277447D02*
X11308737Y-5219973D01*
X11251263Y-5219973D01*
X11251263Y-5277447D01*
X11308737Y-5277447D01*
X11308737Y-5785447D02*
X11308737Y-5727973D01*
X11251263Y-5727973D01*
X11251263Y-5785447D01*
X11308737Y-5785447D01*
D16*
X9334000Y-11097500D02*
X9384000Y-11047500D01*
X9334000Y-10997500D01*
X9284000Y-11047500D01*
X9334000Y-11097500D01*
X9334000Y-11351500D02*
X9384000Y-11301500D01*
X9334000Y-11251500D01*
X9284000Y-11301500D01*
X9334000Y-11351500D01*
X9334000Y-11605500D02*
X9384000Y-11555500D01*
X9334000Y-11505500D01*
X9284000Y-11555500D01*
X9334000Y-11605500D01*
X9594000Y-11097500D02*
X9644000Y-11047500D01*
X9594000Y-10997500D01*
X9544000Y-11047500D01*
X9594000Y-11097500D01*
X9594000Y-11351500D02*
X9644000Y-11301500D01*
X9594000Y-11251500D01*
X9544000Y-11301500D01*
X9594000Y-11351500D01*
X9594000Y-11605500D02*
X9644000Y-11555500D01*
X9594000Y-11505500D01*
X9544000Y-11555500D01*
X9594000Y-11605500D01*
X10958500Y-3730000D02*
X11008500Y-3680000D01*
X10958500Y-3630000D01*
X10908500Y-3680000D01*
X10958500Y-3730000D01*
X11212500Y-3730000D02*
X11262500Y-3680000D01*
X11212500Y-3630000D01*
X11162500Y-3680000D01*
X11212500Y-3730000D01*
X11466500Y-3730000D02*
X11516500Y-3680000D01*
X11466500Y-3630000D01*
X11416500Y-3680000D01*
X11466500Y-3730000D01*
X11720500Y-3730000D02*
X11770500Y-3680000D01*
X11720500Y-3630000D01*
X11670500Y-3680000D01*
X11720500Y-3730000D01*
X11974500Y-3730000D02*
X12024500Y-3680000D01*
X11974500Y-3630000D01*
X11924500Y-3680000D01*
X11974500Y-3730000D01*
X12228500Y-3730000D02*
X12278500Y-3680000D01*
X12228500Y-3630000D01*
X12178500Y-3680000D01*
X12228500Y-3730000D01*
X12482500Y-3730000D02*
X12532500Y-3680000D01*
X12482500Y-3630000D01*
X12432500Y-3680000D01*
X12482500Y-3730000D01*
X12992000Y-3729000D02*
X13042000Y-3679000D01*
X12992000Y-3629000D01*
X12942000Y-3679000D01*
X12992000Y-3729000D01*
X13246000Y-3729000D02*
X13296000Y-3679000D01*
X13246000Y-3629000D01*
X13196000Y-3679000D01*
X13246000Y-3729000D01*
X13500000Y-3729000D02*
X13550000Y-3679000D01*
X13500000Y-3629000D01*
X13450000Y-3679000D01*
X13500000Y-3729000D01*
X13754000Y-3729000D02*
X13804000Y-3679000D01*
X13754000Y-3629000D01*
X13704000Y-3679000D01*
X13754000Y-3729000D01*
X14008000Y-3729000D02*
X14058000Y-3679000D01*
X14008000Y-3629000D01*
X13958000Y-3679000D01*
X14008000Y-3729000D01*
X14262000Y-3729000D02*
X14312000Y-3679000D01*
X14262000Y-3629000D01*
X14212000Y-3679000D01*
X14262000Y-3729000D01*
X14755000Y-9947773D02*
X14805000Y-9897773D01*
X14755000Y-9847773D01*
X14705000Y-9897773D01*
X14755000Y-9947773D01*
X14755000Y-10201773D02*
X14805000Y-10151773D01*
X14755000Y-10101773D01*
X14705000Y-10151773D01*
X14755000Y-10201773D01*
X14755000Y-10455773D02*
X14805000Y-10405773D01*
X14755000Y-10355773D01*
X14705000Y-10405773D01*
X14755000Y-10455773D01*
X14755000Y-10709773D02*
X14805000Y-10659773D01*
X14755000Y-10609773D01*
X14705000Y-10659773D01*
X14755000Y-10709773D01*
X14755000Y-10963773D02*
X14805000Y-10913773D01*
X14755000Y-10863773D01*
X14705000Y-10913773D01*
X14755000Y-10963773D01*
X14755000Y-11217773D02*
X14805000Y-11167773D01*
X14755000Y-11117773D01*
X14705000Y-11167773D01*
X14755000Y-11217773D01*
D11*
X14795000Y-11167773D02*
X14795000Y-11167773D01*
X14715000Y-11167773D02*
X14715000Y-11167773D01*
X14795000Y-11167773D02*
G75*
G03*
X14715000Y-11167773I-40000J0D01*
G01*
X14715000Y-11167773D02*
G75*
G03*
X14795000Y-11167773I40000J0D01*
G01*
D17*
X10767142Y-7236084D02*
X10868742Y-7337684D01*
X10868742Y-7236084D02*
X10767142Y-7337684D01*
X10868742Y-7286884D02*
G75*
G03*
X10868742Y-7286884I-50800J0D01*
G01*
X10767142Y-7490084D02*
X10868742Y-7591684D01*
X10868742Y-7490084D02*
X10767142Y-7591684D01*
X10868742Y-7540884D02*
G75*
G03*
X10868742Y-7540884I-50800J0D01*
G01*
X10767142Y-7744084D02*
X10868742Y-7845684D01*
X10868742Y-7744084D02*
X10767142Y-7845684D01*
X10868742Y-7794884D02*
G75*
G03*
X10868742Y-7794884I-50800J0D01*
G01*
X10767142Y-7998084D02*
X10868742Y-8099684D01*
X10868742Y-7998084D02*
X10767142Y-8099684D01*
X10868742Y-8048884D02*
G75*
G03*
X10868742Y-8048884I-50800J0D01*
G01*
X10767142Y-8252084D02*
X10868742Y-8353684D01*
X10868742Y-8252084D02*
X10767142Y-8353684D01*
X10868742Y-8302884D02*
G75*
G03*
X10868742Y-8302884I-50800J0D01*
G01*
X10767142Y-8506084D02*
X10868742Y-8607684D01*
X10868742Y-8506084D02*
X10767142Y-8607684D01*
X10868742Y-8556884D02*
G75*
G03*
X10868742Y-8556884I-50800J0D01*
G01*
X10767142Y-8760084D02*
X10868742Y-8861684D01*
X10868742Y-8760084D02*
X10767142Y-8861684D01*
X10868742Y-8810884D02*
G75*
G03*
X10868742Y-8810884I-50800J0D01*
G01*
X10767142Y-9014084D02*
X10868742Y-9115684D01*
X10868742Y-9014084D02*
X10767142Y-9115684D01*
X10868742Y-9064884D02*
G75*
G03*
X10868742Y-9064884I-50800J0D01*
G01*
X10767142Y-9268084D02*
X10868742Y-9369684D01*
X10868742Y-9268084D02*
X10767142Y-9369684D01*
X10868742Y-9318884D02*
G75*
G03*
X10868742Y-9318884I-50800J0D01*
G01*
X10767142Y-9522084D02*
X10868742Y-9623684D01*
X10868742Y-9522084D02*
X10767142Y-9623684D01*
X10868742Y-9572884D02*
G75*
G03*
X10868742Y-9572884I-50800J0D01*
G01*
X10767142Y-9776084D02*
X10868742Y-9877684D01*
X10868742Y-9776084D02*
X10767142Y-9877684D01*
X10868742Y-9826884D02*
G75*
G03*
X10868742Y-9826884I-50800J0D01*
G01*
X10767142Y-10030084D02*
X10868742Y-10131684D01*
X10868742Y-10030084D02*
X10767142Y-10131684D01*
X10868742Y-10080884D02*
G75*
G03*
X10868742Y-10080884I-50800J0D01*
G01*
X10767142Y-10284084D02*
X10868742Y-10385684D01*
X10868742Y-10284084D02*
X10767142Y-10385684D01*
X10868742Y-10334884D02*
G75*
G03*
X10868742Y-10334884I-50800J0D01*
G01*
X10767142Y-10538084D02*
X10868742Y-10639684D01*
X10868742Y-10538084D02*
X10767142Y-10639684D01*
X10868742Y-10588884D02*
G75*
G03*
X10868742Y-10588884I-50800J0D01*
G01*
X10767142Y-10792084D02*
X10868742Y-10893684D01*
X10868742Y-10792084D02*
X10767142Y-10893684D01*
X10868742Y-10842884D02*
G75*
G03*
X10868742Y-10842884I-50800J0D01*
G01*
X10767142Y-11046084D02*
X10868742Y-11147684D01*
X10868742Y-11046084D02*
X10767142Y-11147684D01*
X10868742Y-11096884D02*
G75*
G03*
X10868742Y-11096884I-50800J0D01*
G01*
X10767142Y-11300084D02*
X10868742Y-11401684D01*
X10868742Y-11300084D02*
X10767142Y-11401684D01*
X10868742Y-11350884D02*
G75*
G03*
X10868742Y-11350884I-50800J0D01*
G01*
X10767142Y-11554084D02*
X10868742Y-11655684D01*
X10868742Y-11554084D02*
X10767142Y-11655684D01*
X10868742Y-11604884D02*
G75*
G03*
X10868742Y-11604884I-50800J0D01*
G01*
X10767142Y-11808084D02*
X10868742Y-11909684D01*
X10868742Y-11808084D02*
X10767142Y-11909684D01*
X10868742Y-11858884D02*
G75*
G03*
X10868742Y-11858884I-50800J0D01*
G01*
X14082454Y-4149000D02*
X14184054Y-4250600D01*
X14184054Y-4149000D02*
X14082454Y-4250600D01*
X14184054Y-4199800D02*
G75*
G03*
X14184054Y-4199800I-50800J0D01*
G01*
X14082454Y-4403000D02*
X14184054Y-4504600D01*
X14184054Y-4403000D02*
X14082454Y-4504600D01*
X14184054Y-4453800D02*
G75*
G03*
X14184054Y-4453800I-50800J0D01*
G01*
X14082454Y-4657000D02*
X14184054Y-4758600D01*
X14184054Y-4657000D02*
X14082454Y-4758600D01*
X14184054Y-4707800D02*
G75*
G03*
X14184054Y-4707800I-50800J0D01*
G01*
X14082454Y-4911000D02*
X14184054Y-5012600D01*
X14184054Y-4911000D02*
X14082454Y-5012600D01*
X14184054Y-4961800D02*
G75*
G03*
X14184054Y-4961800I-50800J0D01*
G01*
X14082454Y-5165000D02*
X14184054Y-5266600D01*
X14184054Y-5165000D02*
X14082454Y-5266600D01*
X14184054Y-5215800D02*
G75*
G03*
X14184054Y-5215800I-50800J0D01*
G01*
X14100200Y-6161200D02*
X14201800Y-6262800D01*
X14201800Y-6161200D02*
X14100200Y-6262800D01*
X14201800Y-6212000D02*
G75*
G03*
X14201800Y-6212000I-50800J0D01*
G01*
X14101200Y-5600200D02*
X14202800Y-5701800D01*
X14202800Y-5600200D02*
X14101200Y-5701800D01*
X14202800Y-5651000D02*
G75*
G03*
X14202800Y-5651000I-50800J0D01*
G01*
X14101200Y-5880200D02*
X14202800Y-5981800D01*
X14202800Y-5880200D02*
X14101200Y-5981800D01*
X14202800Y-5931000D02*
G75*
G03*
X14202800Y-5931000I-50800J0D01*
G01*
X14101200Y-6442600D02*
X14202800Y-6544200D01*
X14202800Y-6442600D02*
X14101200Y-6544200D01*
X14202800Y-6493400D02*
G75*
G03*
X14202800Y-6493400I-50800J0D01*
G01*
X14306142Y-7236084D02*
X14407742Y-7337684D01*
X14407742Y-7236084D02*
X14306142Y-7337684D01*
X14407742Y-7286884D02*
G75*
G03*
X14407742Y-7286884I-50800J0D01*
G01*
X14306142Y-7490084D02*
X14407742Y-7591684D01*
X14407742Y-7490084D02*
X14306142Y-7591684D01*
X14407742Y-7540884D02*
G75*
G03*
X14407742Y-7540884I-50800J0D01*
G01*
X14306142Y-7744084D02*
X14407742Y-7845684D01*
X14407742Y-7744084D02*
X14306142Y-7845684D01*
X14407742Y-7794884D02*
G75*
G03*
X14407742Y-7794884I-50800J0D01*
G01*
X14306142Y-7998084D02*
X14407742Y-8099684D01*
X14407742Y-7998084D02*
X14306142Y-8099684D01*
X14407742Y-8048884D02*
G75*
G03*
X14407742Y-8048884I-50800J0D01*
G01*
X14306142Y-8252084D02*
X14407742Y-8353684D01*
X14407742Y-8252084D02*
X14306142Y-8353684D01*
X14407742Y-8302884D02*
G75*
G03*
X14407742Y-8302884I-50800J0D01*
G01*
X14306142Y-8506084D02*
X14407742Y-8607684D01*
X14407742Y-8506084D02*
X14306142Y-8607684D01*
X14407742Y-8556884D02*
G75*
G03*
X14407742Y-8556884I-50800J0D01*
G01*
X14306142Y-8760084D02*
X14407742Y-8861684D01*
X14407742Y-8760084D02*
X14306142Y-8861684D01*
X14407742Y-8810884D02*
G75*
G03*
X14407742Y-8810884I-50800J0D01*
G01*
X14306142Y-9014084D02*
X14407742Y-9115684D01*
X14407742Y-9014084D02*
X14306142Y-9115684D01*
X14407742Y-9064884D02*
G75*
G03*
X14407742Y-9064884I-50800J0D01*
G01*
X14306142Y-9268084D02*
X14407742Y-9369684D01*
X14407742Y-9268084D02*
X14306142Y-9369684D01*
X14407742Y-9318884D02*
G75*
G03*
X14407742Y-9318884I-50800J0D01*
G01*
X14306142Y-9522084D02*
X14407742Y-9623684D01*
X14407742Y-9522084D02*
X14306142Y-9623684D01*
X14407742Y-9572884D02*
G75*
G03*
X14407742Y-9572884I-50800J0D01*
G01*
X14306142Y-9776084D02*
X14407742Y-9877684D01*
X14407742Y-9776084D02*
X14306142Y-9877684D01*
X14407742Y-9826884D02*
G75*
G03*
X14407742Y-9826884I-50800J0D01*
G01*
X14306142Y-10030084D02*
X14407742Y-10131684D01*
X14407742Y-10030084D02*
X14306142Y-10131684D01*
X14407742Y-10080884D02*
G75*
G03*
X14407742Y-10080884I-50800J0D01*
G01*
X14306142Y-10284084D02*
X14407742Y-10385684D01*
X14407742Y-10284084D02*
X14306142Y-10385684D01*
X14407742Y-10334884D02*
G75*
G03*
X14407742Y-10334884I-50800J0D01*
G01*
X14306142Y-10538084D02*
X14407742Y-10639684D01*
X14407742Y-10538084D02*
X14306142Y-10639684D01*
X14407742Y-10588884D02*
G75*
G03*
X14407742Y-10588884I-50800J0D01*
G01*
X14306142Y-10792084D02*
X14407742Y-10893684D01*
X14407742Y-10792084D02*
X14306142Y-10893684D01*
X14407742Y-10842884D02*
G75*
G03*
X14407742Y-10842884I-50800J0D01*
G01*
X14306142Y-11046084D02*
X14407742Y-11147684D01*
X14407742Y-11046084D02*
X14306142Y-11147684D01*
X14407742Y-11096884D02*
G75*
G03*
X14407742Y-11096884I-50800J0D01*
G01*
X14306142Y-11300084D02*
X14407742Y-11401684D01*
X14407742Y-11300084D02*
X14306142Y-11401684D01*
X14407742Y-11350884D02*
G75*
G03*
X14407742Y-11350884I-50800J0D01*
G01*
X14306142Y-11554084D02*
X14407742Y-11655684D01*
X14407742Y-11554084D02*
X14306142Y-11655684D01*
X14407742Y-11604884D02*
G75*
G03*
X14407742Y-11604884I-50800J0D01*
G01*
X14306142Y-11808084D02*
X14407742Y-11909684D01*
X14407742Y-11808084D02*
X14306142Y-11909684D01*
X14407742Y-11858884D02*
G75*
G03*
X14407742Y-11858884I-50800J0D01*
G01*
X14354200Y-6161200D02*
X14455800Y-6262800D01*
X14455800Y-6161200D02*
X14354200Y-6262800D01*
X14455800Y-6212000D02*
G75*
G03*
X14455800Y-6212000I-50800J0D01*
G01*
X14355200Y-5600200D02*
X14456800Y-5701800D01*
X14456800Y-5600200D02*
X14355200Y-5701800D01*
X14456800Y-5651000D02*
G75*
G03*
X14456800Y-5651000I-50800J0D01*
G01*
X14355200Y-5880200D02*
X14456800Y-5981800D01*
X14456800Y-5880200D02*
X14355200Y-5981800D01*
X14456800Y-5931000D02*
G75*
G03*
X14456800Y-5931000I-50800J0D01*
G01*
X14355200Y-6442600D02*
X14456800Y-6544200D01*
X14456800Y-6442600D02*
X14355200Y-6544200D01*
X14456800Y-6493400D02*
G75*
G03*
X14456800Y-6493400I-50800J0D01*
G01*
X14361454Y-4149800D02*
X14463054Y-4251400D01*
X14463054Y-4149800D02*
X14361454Y-4251400D01*
X14463054Y-4200600D02*
G75*
G03*
X14463054Y-4200600I-50800J0D01*
G01*
X14361454Y-4403800D02*
X14463054Y-4505400D01*
X14463054Y-4403800D02*
X14361454Y-4505400D01*
X14463054Y-4454600D02*
G75*
G03*
X14463054Y-4454600I-50800J0D01*
G01*
X14361454Y-4657800D02*
X14463054Y-4759400D01*
X14463054Y-4657800D02*
X14361454Y-4759400D01*
X14463054Y-4708600D02*
G75*
G03*
X14463054Y-4708600I-50800J0D01*
G01*
X14361454Y-4911800D02*
X14463054Y-5013400D01*
X14463054Y-4911800D02*
X14361454Y-5013400D01*
X14463054Y-4962600D02*
G75*
G03*
X14463054Y-4962600I-50800J0D01*
G01*
X14361454Y-5165800D02*
X14463054Y-5267400D01*
X14463054Y-5165800D02*
X14361454Y-5267400D01*
X14463054Y-5216600D02*
G75*
G03*
X14463054Y-5216600I-50800J0D01*
G01*
X14608200Y-6161200D02*
X14709800Y-6262800D01*
X14709800Y-6161200D02*
X14608200Y-6262800D01*
X14709800Y-6212000D02*
G75*
G03*
X14709800Y-6212000I-50800J0D01*
G01*
X14609200Y-5600200D02*
X14710800Y-5701800D01*
X14710800Y-5600200D02*
X14609200Y-5701800D01*
X14710800Y-5651000D02*
G75*
G03*
X14710800Y-5651000I-50800J0D01*
G01*
X14609200Y-5880200D02*
X14710800Y-5981800D01*
X14710800Y-5880200D02*
X14609200Y-5981800D01*
X14710800Y-5931000D02*
G75*
G03*
X14710800Y-5931000I-50800J0D01*
G01*
X14609200Y-6442600D02*
X14710800Y-6544200D01*
X14710800Y-6442600D02*
X14609200Y-6544200D01*
X14710800Y-6493400D02*
G75*
G03*
X14710800Y-6493400I-50800J0D01*
G01*
X14639200Y-4149200D02*
X14740800Y-4250800D01*
X14740800Y-4149200D02*
X14639200Y-4250800D01*
X14740800Y-4200000D02*
G75*
G03*
X14740800Y-4200000I-50800J0D01*
G01*
X14639200Y-4403200D02*
X14740800Y-4504800D01*
X14740800Y-4403200D02*
X14639200Y-4504800D01*
X14740800Y-4454000D02*
G75*
G03*
X14740800Y-4454000I-50800J0D01*
G01*
X14639200Y-4657200D02*
X14740800Y-4758800D01*
X14740800Y-4657200D02*
X14639200Y-4758800D01*
X14740800Y-4708000D02*
G75*
G03*
X14740800Y-4708000I-50800J0D01*
G01*
X14639200Y-4911200D02*
X14740800Y-5012800D01*
X14740800Y-4911200D02*
X14639200Y-5012800D01*
X14740800Y-4962000D02*
G75*
G03*
X14740800Y-4962000I-50800J0D01*
G01*
X14639200Y-5165200D02*
X14740800Y-5266800D01*
X14740800Y-5165200D02*
X14639200Y-5266800D01*
X14740800Y-5216000D02*
G75*
G03*
X14740800Y-5216000I-50800J0D01*
G01*
X14697200Y-7745200D02*
X14798800Y-7846800D01*
X14798800Y-7745200D02*
X14697200Y-7846800D01*
X14798800Y-7796000D02*
G75*
G03*
X14798800Y-7796000I-50800J0D01*
G01*
X14697200Y-7999200D02*
X14798800Y-8100800D01*
X14798800Y-7999200D02*
X14697200Y-8100800D01*
X14798800Y-8050000D02*
G75*
G03*
X14798800Y-8050000I-50800J0D01*
G01*
X14697200Y-8253200D02*
X14798800Y-8354800D01*
X14798800Y-8253200D02*
X14697200Y-8354800D01*
X14798800Y-8304000D02*
G75*
G03*
X14798800Y-8304000I-50800J0D01*
G01*
X14697200Y-8507200D02*
X14798800Y-8608800D01*
X14798800Y-8507200D02*
X14697200Y-8608800D01*
X14798800Y-8558000D02*
G75*
G03*
X14798800Y-8558000I-50800J0D01*
G01*
D18*
X11265942Y-7234884D02*
X11369942Y-7338884D01*
X11369942Y-7234884D02*
X11265942Y-7338884D01*
X11317942Y-7234884D02*
X11317942Y-7338884D01*
X11265942Y-7286884D02*
X11369942Y-7286884D01*
X11265942Y-7488884D02*
X11369942Y-7592884D01*
X11369942Y-7488884D02*
X11265942Y-7592884D01*
X11317942Y-7488884D02*
X11317942Y-7592884D01*
X11265942Y-7540884D02*
X11369942Y-7540884D01*
X11265942Y-7742884D02*
X11369942Y-7846884D01*
X11369942Y-7742884D02*
X11265942Y-7846884D01*
X11317942Y-7742884D02*
X11317942Y-7846884D01*
X11265942Y-7794884D02*
X11369942Y-7794884D01*
X11265942Y-7996884D02*
X11369942Y-8100884D01*
X11369942Y-7996884D02*
X11265942Y-8100884D01*
X11317942Y-7996884D02*
X11317942Y-8100884D01*
X11265942Y-8048884D02*
X11369942Y-8048884D01*
X11265942Y-8250884D02*
X11369942Y-8354884D01*
X11369942Y-8250884D02*
X11265942Y-8354884D01*
X11317942Y-8250884D02*
X11317942Y-8354884D01*
X11265942Y-8302884D02*
X11369942Y-8302884D01*
X11265942Y-8504884D02*
X11369942Y-8608884D01*
X11369942Y-8504884D02*
X11265942Y-8608884D01*
X11317942Y-8504884D02*
X11317942Y-8608884D01*
X11265942Y-8556884D02*
X11369942Y-8556884D01*
X11265942Y-8758884D02*
X11369942Y-8862884D01*
X11369942Y-8758884D02*
X11265942Y-8862884D01*
X11317942Y-8758884D02*
X11317942Y-8862884D01*
X11265942Y-8810884D02*
X11369942Y-8810884D01*
X11265942Y-9012884D02*
X11369942Y-9116884D01*
X11369942Y-9012884D02*
X11265942Y-9116884D01*
X11317942Y-9012884D02*
X11317942Y-9116884D01*
X11265942Y-9064884D02*
X11369942Y-9064884D01*
X11265942Y-9266884D02*
X11369942Y-9370884D01*
X11369942Y-9266884D02*
X11265942Y-9370884D01*
X11317942Y-9266884D02*
X11317942Y-9370884D01*
X11265942Y-9318884D02*
X11369942Y-9318884D01*
X11265942Y-9520884D02*
X11369942Y-9624884D01*
X11369942Y-9520884D02*
X11265942Y-9624884D01*
X11317942Y-9520884D02*
X11317942Y-9624884D01*
X11265942Y-9572884D02*
X11369942Y-9572884D01*
X11265942Y-9774884D02*
X11369942Y-9878884D01*
X11369942Y-9774884D02*
X11265942Y-9878884D01*
X11317942Y-9774884D02*
X11317942Y-9878884D01*
X11265942Y-9826884D02*
X11369942Y-9826884D01*
X11265942Y-10028884D02*
X11369942Y-10132884D01*
X11369942Y-10028884D02*
X11265942Y-10132884D01*
X11317942Y-10028884D02*
X11317942Y-10132884D01*
X11265942Y-10080884D02*
X11369942Y-10080884D01*
X11265942Y-10282884D02*
X11369942Y-10386884D01*
X11369942Y-10282884D02*
X11265942Y-10386884D01*
X11317942Y-10282884D02*
X11317942Y-10386884D01*
X11265942Y-10334884D02*
X11369942Y-10334884D01*
X11265942Y-10536884D02*
X11369942Y-10640884D01*
X11369942Y-10536884D02*
X11265942Y-10640884D01*
X11317942Y-10536884D02*
X11317942Y-10640884D01*
X11265942Y-10588884D02*
X11369942Y-10588884D01*
X11265942Y-10790884D02*
X11369942Y-10894884D01*
X11369942Y-10790884D02*
X11265942Y-10894884D01*
X11317942Y-10790884D02*
X11317942Y-10894884D01*
X11265942Y-10842884D02*
X11369942Y-10842884D01*
X11265942Y-11044884D02*
X11369942Y-11148884D01*
X11369942Y-11044884D02*
X11265942Y-11148884D01*
X11317942Y-11044884D02*
X11317942Y-11148884D01*
X11265942Y-11096884D02*
X11369942Y-11096884D01*
X11265942Y-11298884D02*
X11369942Y-11402884D01*
X11369942Y-11298884D02*
X11265942Y-11402884D01*
X11317942Y-11298884D02*
X11317942Y-11402884D01*
X11265942Y-11350884D02*
X11369942Y-11350884D01*
X11265942Y-11552884D02*
X11369942Y-11656884D01*
X11369942Y-11552884D02*
X11265942Y-11656884D01*
X11317942Y-11552884D02*
X11317942Y-11656884D01*
X11265942Y-11604884D02*
X11369942Y-11604884D01*
X11265942Y-11806884D02*
X11369942Y-11910884D01*
X11369942Y-11806884D02*
X11265942Y-11910884D01*
X11317942Y-11806884D02*
X11317942Y-11910884D01*
X11265942Y-11858884D02*
X11369942Y-11858884D01*
X13805942Y-7234884D02*
X13909942Y-7338884D01*
X13909942Y-7234884D02*
X13805942Y-7338884D01*
X13857942Y-7234884D02*
X13857942Y-7338884D01*
X13805942Y-7286884D02*
X13909942Y-7286884D01*
X13805942Y-7488884D02*
X13909942Y-7592884D01*
X13909942Y-7488884D02*
X13805942Y-7592884D01*
X13857942Y-7488884D02*
X13857942Y-7592884D01*
X13805942Y-7540884D02*
X13909942Y-7540884D01*
X13805942Y-7742884D02*
X13909942Y-7846884D01*
X13909942Y-7742884D02*
X13805942Y-7846884D01*
X13857942Y-7742884D02*
X13857942Y-7846884D01*
X13805942Y-7794884D02*
X13909942Y-7794884D01*
X13805942Y-7996884D02*
X13909942Y-8100884D01*
X13909942Y-7996884D02*
X13805942Y-8100884D01*
X13857942Y-7996884D02*
X13857942Y-8100884D01*
X13805942Y-8048884D02*
X13909942Y-8048884D01*
X13805942Y-8250884D02*
X13909942Y-8354884D01*
X13909942Y-8250884D02*
X13805942Y-8354884D01*
X13857942Y-8250884D02*
X13857942Y-8354884D01*
X13805942Y-8302884D02*
X13909942Y-8302884D01*
X13805942Y-8504884D02*
X13909942Y-8608884D01*
X13909942Y-8504884D02*
X13805942Y-8608884D01*
X13857942Y-8504884D02*
X13857942Y-8608884D01*
X13805942Y-8556884D02*
X13909942Y-8556884D01*
X13805942Y-8758884D02*
X13909942Y-8862884D01*
X13909942Y-8758884D02*
X13805942Y-8862884D01*
X13857942Y-8758884D02*
X13857942Y-8862884D01*
X13805942Y-8810884D02*
X13909942Y-8810884D01*
X13805942Y-9012884D02*
X13909942Y-9116884D01*
X13909942Y-9012884D02*
X13805942Y-9116884D01*
X13857942Y-9012884D02*
X13857942Y-9116884D01*
X13805942Y-9064884D02*
X13909942Y-9064884D01*
X13805942Y-9266884D02*
X13909942Y-9370884D01*
X13909942Y-9266884D02*
X13805942Y-9370884D01*
X13857942Y-9266884D02*
X13857942Y-9370884D01*
X13805942Y-9318884D02*
X13909942Y-9318884D01*
X13805942Y-9520884D02*
X13909942Y-9624884D01*
X13909942Y-9520884D02*
X13805942Y-9624884D01*
X13857942Y-9520884D02*
X13857942Y-9624884D01*
X13805942Y-9572884D02*
X13909942Y-9572884D01*
X13805942Y-9774884D02*
X13909942Y-9878884D01*
X13909942Y-9774884D02*
X13805942Y-9878884D01*
X13857942Y-9774884D02*
X13857942Y-9878884D01*
X13805942Y-9826884D02*
X13909942Y-9826884D01*
X13805942Y-10028884D02*
X13909942Y-10132884D01*
X13909942Y-10028884D02*
X13805942Y-10132884D01*
X13857942Y-10028884D02*
X13857942Y-10132884D01*
X13805942Y-10080884D02*
X13909942Y-10080884D01*
X13805942Y-10282884D02*
X13909942Y-10386884D01*
X13909942Y-10282884D02*
X13805942Y-10386884D01*
X13857942Y-10282884D02*
X13857942Y-10386884D01*
X13805942Y-10334884D02*
X13909942Y-10334884D01*
X13805942Y-10536884D02*
X13909942Y-10640884D01*
X13909942Y-10536884D02*
X13805942Y-10640884D01*
X13857942Y-10536884D02*
X13857942Y-10640884D01*
X13805942Y-10588884D02*
X13909942Y-10588884D01*
X13805942Y-10790884D02*
X13909942Y-10894884D01*
X13909942Y-10790884D02*
X13805942Y-10894884D01*
X13857942Y-10790884D02*
X13857942Y-10894884D01*
X13805942Y-10842884D02*
X13909942Y-10842884D01*
X13805942Y-11044884D02*
X13909942Y-11148884D01*
X13909942Y-11044884D02*
X13805942Y-11148884D01*
X13857942Y-11044884D02*
X13857942Y-11148884D01*
X13805942Y-11096884D02*
X13909942Y-11096884D01*
X13805942Y-11298884D02*
X13909942Y-11402884D01*
X13909942Y-11298884D02*
X13805942Y-11402884D01*
X13857942Y-11298884D02*
X13857942Y-11402884D01*
X13805942Y-11350884D02*
X13909942Y-11350884D01*
X13805942Y-11552884D02*
X13909942Y-11656884D01*
X13909942Y-11552884D02*
X13805942Y-11656884D01*
X13857942Y-11552884D02*
X13857942Y-11656884D01*
X13805942Y-11604884D02*
X13909942Y-11604884D01*
X13805942Y-11806884D02*
X13909942Y-11910884D01*
X13909942Y-11806884D02*
X13805942Y-11910884D01*
X13857942Y-11806884D02*
X13857942Y-11910884D01*
X13805942Y-11858884D02*
X13909942Y-11858884D01*
D19*
X8750000Y-9776000D02*
X8860000Y-9886000D01*
X8860000Y-9776000D02*
X8750000Y-9886000D01*
X8843891Y-9869891D02*
X8843891Y-9792109D01*
X8766109Y-9792109D01*
X8766109Y-9869891D01*
X8843891Y-9869891D01*
X8750000Y-10030000D02*
X8860000Y-10140000D01*
X8860000Y-10030000D02*
X8750000Y-10140000D01*
X8843891Y-10123891D02*
X8843891Y-10046109D01*
X8766109Y-10046109D01*
X8766109Y-10123891D01*
X8843891Y-10123891D01*
X8750000Y-10284000D02*
X8860000Y-10394000D01*
X8860000Y-10284000D02*
X8750000Y-10394000D01*
X8843891Y-10377891D02*
X8843891Y-10300109D01*
X8766109Y-10300109D01*
X8766109Y-10377891D01*
X8843891Y-10377891D01*
X8750000Y-10538000D02*
X8860000Y-10648000D01*
X8860000Y-10538000D02*
X8750000Y-10648000D01*
X8843891Y-10631891D02*
X8843891Y-10554109D01*
X8766109Y-10554109D01*
X8766109Y-10631891D01*
X8843891Y-10631891D01*
X8750000Y-10792000D02*
X8860000Y-10902000D01*
X8860000Y-10792000D02*
X8750000Y-10902000D01*
X8843891Y-10885891D02*
X8843891Y-10808109D01*
X8766109Y-10808109D01*
X8766109Y-10885891D01*
X8843891Y-10885891D01*
X8750000Y-11046000D02*
X8860000Y-11156000D01*
X8860000Y-11046000D02*
X8750000Y-11156000D01*
X8843891Y-11139891D02*
X8843891Y-11062109D01*
X8766109Y-11062109D01*
X8766109Y-11139891D01*
X8843891Y-11139891D01*
X8750000Y-11300000D02*
X8860000Y-11410000D01*
X8860000Y-11300000D02*
X8750000Y-11410000D01*
X8843891Y-11393891D02*
X8843891Y-11316109D01*
X8766109Y-11316109D01*
X8766109Y-11393891D01*
X8843891Y-11393891D01*
X8750000Y-11554000D02*
X8860000Y-11664000D01*
X8860000Y-11554000D02*
X8750000Y-11664000D01*
X8843891Y-11647891D02*
X8843891Y-11570109D01*
X8766109Y-11570109D01*
X8766109Y-11647891D01*
X8843891Y-11647891D01*
X10020000Y-9776000D02*
X10130000Y-9886000D01*
X10130000Y-9776000D02*
X10020000Y-9886000D01*
X10113891Y-9869891D02*
X10113891Y-9792109D01*
X10036109Y-9792109D01*
X10036109Y-9869891D01*
X10113891Y-9869891D01*
X10020000Y-10030000D02*
X10130000Y-10140000D01*
X10130000Y-10030000D02*
X10020000Y-10140000D01*
X10113891Y-10123891D02*
X10113891Y-10046109D01*
X10036109Y-10046109D01*
X10036109Y-10123891D01*
X10113891Y-10123891D01*
X10020000Y-10284000D02*
X10130000Y-10394000D01*
X10130000Y-10284000D02*
X10020000Y-10394000D01*
X10113891Y-10377891D02*
X10113891Y-10300109D01*
X10036109Y-10300109D01*
X10036109Y-10377891D01*
X10113891Y-10377891D01*
X10020000Y-10538000D02*
X10130000Y-10648000D01*
X10130000Y-10538000D02*
X10020000Y-10648000D01*
X10113891Y-10631891D02*
X10113891Y-10554109D01*
X10036109Y-10554109D01*
X10036109Y-10631891D01*
X10113891Y-10631891D01*
X10020000Y-10792000D02*
X10130000Y-10902000D01*
X10130000Y-10792000D02*
X10020000Y-10902000D01*
X10113891Y-10885891D02*
X10113891Y-10808109D01*
X10036109Y-10808109D01*
X10036109Y-10885891D01*
X10113891Y-10885891D01*
X10020000Y-11046000D02*
X10130000Y-11156000D01*
X10130000Y-11046000D02*
X10020000Y-11156000D01*
X10113891Y-11139891D02*
X10113891Y-11062109D01*
X10036109Y-11062109D01*
X10036109Y-11139891D01*
X10113891Y-11139891D01*
X10020000Y-11300000D02*
X10130000Y-11410000D01*
X10130000Y-11300000D02*
X10020000Y-11410000D01*
X10113891Y-11393891D02*
X10113891Y-11316109D01*
X10036109Y-11316109D01*
X10036109Y-11393891D01*
X10113891Y-11393891D01*
X10020000Y-11554000D02*
X10130000Y-11664000D01*
X10130000Y-11554000D02*
X10020000Y-11664000D01*
X10113891Y-11647891D02*
X10113891Y-11570109D01*
X10036109Y-11570109D01*
X10036109Y-11647891D01*
X10113891Y-11647891D01*
D20*
X7562000Y-4940372D02*
X7692000Y-5070372D01*
X7692000Y-4940372D02*
X7562000Y-5070372D01*
X7627000Y-5070372D02*
X7692000Y-5005372D01*
X7627000Y-4940372D01*
X7562000Y-5005372D01*
X7627000Y-5070372D01*
X7562000Y-5440372D02*
X7692000Y-5570372D01*
X7692000Y-5440372D02*
X7562000Y-5570372D01*
X7627000Y-5570372D02*
X7692000Y-5505372D01*
X7627000Y-5440372D01*
X7562000Y-5505372D01*
X7627000Y-5570372D01*
D21*
X8672000Y-7576758D02*
X8672000Y-7708758D01*
X8606000Y-7642758D02*
X8738000Y-7642758D01*
X8738000Y-7642758D02*
G75*
G03*
X8738000Y-7642758I-66000J0D01*
G01*
X8672000Y-7830758D02*
X8672000Y-7962758D01*
X8606000Y-7896758D02*
X8738000Y-7896758D01*
X8738000Y-7896758D02*
G75*
G03*
X8738000Y-7896758I-66000J0D01*
G01*
X8672000Y-8084758D02*
X8672000Y-8216758D01*
X8606000Y-8150758D02*
X8738000Y-8150758D01*
X8738000Y-8150758D02*
G75*
G03*
X8738000Y-8150758I-66000J0D01*
G01*
X8672000Y-8338758D02*
X8672000Y-8470758D01*
X8606000Y-8404758D02*
X8738000Y-8404758D01*
X8738000Y-8404758D02*
G75*
G03*
X8738000Y-8404758I-66000J0D01*
G01*
X8672000Y-8592758D02*
X8672000Y-8724758D01*
X8606000Y-8658758D02*
X8738000Y-8658758D01*
X8738000Y-8658758D02*
G75*
G03*
X8738000Y-8658758I-66000J0D01*
G01*
X8672000Y-8846758D02*
X8672000Y-8978758D01*
X8606000Y-8912758D02*
X8738000Y-8912758D01*
X8738000Y-8912758D02*
G75*
G03*
X8738000Y-8912758I-66000J0D01*
G01*
X8672000Y-9100758D02*
X8672000Y-9232758D01*
X8606000Y-9166758D02*
X8738000Y-9166758D01*
X8738000Y-9166758D02*
G75*
G03*
X8738000Y-9166758I-66000J0D01*
G01*
X8672000Y-9354758D02*
X8672000Y-9486758D01*
X8606000Y-9420758D02*
X8738000Y-9420758D01*
X8738000Y-9420758D02*
G75*
G03*
X8738000Y-9420758I-66000J0D01*
G01*
X10196000Y-7576758D02*
X10196000Y-7708758D01*
X10130000Y-7642758D02*
X10262000Y-7642758D01*
X10262000Y-7642758D02*
G75*
G03*
X10262000Y-7642758I-66000J0D01*
G01*
X10196000Y-7830758D02*
X10196000Y-7962758D01*
X10130000Y-7896758D02*
X10262000Y-7896758D01*
X10262000Y-7896758D02*
G75*
G03*
X10262000Y-7896758I-66000J0D01*
G01*
X10196000Y-8084758D02*
X10196000Y-8216758D01*
X10130000Y-8150758D02*
X10262000Y-8150758D01*
X10262000Y-8150758D02*
G75*
G03*
X10262000Y-8150758I-66000J0D01*
G01*
X10196000Y-8338758D02*
X10196000Y-8470758D01*
X10130000Y-8404758D02*
X10262000Y-8404758D01*
X10262000Y-8404758D02*
G75*
G03*
X10262000Y-8404758I-66000J0D01*
G01*
X10196000Y-8592758D02*
X10196000Y-8724758D01*
X10130000Y-8658758D02*
X10262000Y-8658758D01*
X10262000Y-8658758D02*
G75*
G03*
X10262000Y-8658758I-66000J0D01*
G01*
X10196000Y-8846758D02*
X10196000Y-8978758D01*
X10130000Y-8912758D02*
X10262000Y-8912758D01*
X10262000Y-8912758D02*
G75*
G03*
X10262000Y-8912758I-66000J0D01*
G01*
X10196000Y-9100758D02*
X10196000Y-9232758D01*
X10130000Y-9166758D02*
X10262000Y-9166758D01*
X10262000Y-9166758D02*
G75*
G03*
X10262000Y-9166758I-66000J0D01*
G01*
X10196000Y-9354758D02*
X10196000Y-9486758D01*
X10130000Y-9420758D02*
X10262000Y-9420758D01*
X10262000Y-9420758D02*
G75*
G03*
X10262000Y-9420758I-66000J0D01*
G01*
D22*
X7673741Y-7292741D02*
X7673741Y-7185259D01*
X7566259Y-7185259D01*
X7566259Y-7292741D01*
X7673741Y-7292741D01*
X7696000Y-7239000D02*
G75*
G03*
X7696000Y-7239000I-76000J0D01*
G01*
X7673741Y-7800741D02*
X7673741Y-7693259D01*
X7566259Y-7693259D01*
X7566259Y-7800741D01*
X7673741Y-7800741D01*
X7696000Y-7747000D02*
G75*
G03*
X7696000Y-7747000I-76000J0D01*
G01*
X7673741Y-8308741D02*
X7673741Y-8201259D01*
X7566259Y-8201259D01*
X7566259Y-8308741D01*
X7673741Y-8308741D01*
X7696000Y-8255000D02*
G75*
G03*
X7696000Y-8255000I-76000J0D01*
G01*
X7673741Y-8816741D02*
X7673741Y-8709259D01*
X7566259Y-8709259D01*
X7566259Y-8816741D01*
X7673741Y-8816741D01*
X7696000Y-8763000D02*
G75*
G03*
X7696000Y-8763000I-76000J0D01*
G01*
X7673741Y-9324741D02*
X7673741Y-9217259D01*
X7566259Y-9217259D01*
X7566259Y-9324741D01*
X7673741Y-9324741D01*
X7696000Y-9271000D02*
G75*
G03*
X7696000Y-9271000I-76000J0D01*
G01*
X7673741Y-9901741D02*
X7673741Y-9794259D01*
X7566259Y-9794259D01*
X7566259Y-9901741D01*
X7673741Y-9901741D01*
X7696000Y-9848000D02*
G75*
G03*
X7696000Y-9848000I-76000J0D01*
G01*
X7673741Y-10409741D02*
X7673741Y-10302259D01*
X7566259Y-10302259D01*
X7566259Y-10409741D01*
X7673741Y-10409741D01*
X7696000Y-10356000D02*
G75*
G03*
X7696000Y-10356000I-76000J0D01*
G01*
X7673741Y-10917741D02*
X7673741Y-10810259D01*
X7566259Y-10810259D01*
X7566259Y-10917741D01*
X7673741Y-10917741D01*
X7696000Y-10864000D02*
G75*
G03*
X7696000Y-10864000I-76000J0D01*
G01*
X7673741Y-11425741D02*
X7673741Y-11318259D01*
X7566259Y-11318259D01*
X7566259Y-11425741D01*
X7673741Y-11425741D01*
X7696000Y-11372000D02*
G75*
G03*
X7696000Y-11372000I-76000J0D01*
G01*
D23*
X7235000Y-3355000D02*
X7395000Y-3195000D01*
X7235000Y-3035000D01*
X7075000Y-3195000D01*
X7235000Y-3355000D01*
X7395000Y-3195000D02*
G75*
G03*
X7395000Y-3195000I-160000J0D01*
G01*
X7235000Y-12120000D02*
X7395000Y-11960000D01*
X7235000Y-11800000D01*
X7075000Y-11960000D01*
X7235000Y-12120000D01*
X7395000Y-11960000D02*
G75*
G03*
X7395000Y-11960000I-160000J0D01*
G01*
X14850000Y-3355000D02*
X15010000Y-3195000D01*
X14850000Y-3035000D01*
X14690000Y-3195000D01*
X14850000Y-3355000D01*
X15010000Y-3195000D02*
G75*
G03*
X15010000Y-3195000I-160000J0D01*
G01*
X14850000Y-12120000D02*
X15010000Y-11960000D01*
X14850000Y-11800000D01*
X14690000Y-11960000D01*
X14850000Y-12120000D01*
X15010000Y-11960000D02*
G75*
G03*
X15010000Y-11960000I-160000J0D01*
G01*
D11*
X7231137Y-12528699D02*
X7231137Y-12328699D01*
X7278756Y-12328699D01*
X7307328Y-12338223D01*
X7326375Y-12357271D01*
X7335899Y-12376318D01*
X7345423Y-12414414D01*
X7345423Y-12442985D01*
X7335899Y-12481080D01*
X7326375Y-12500128D01*
X7307328Y-12519176D01*
X7278756Y-12528699D01*
X7231137Y-12528699D01*
X7431137Y-12528699D02*
X7431137Y-12395366D01*
X7431137Y-12433461D02*
X7440661Y-12414414D01*
X7450185Y-12404890D01*
X7469232Y-12395366D01*
X7488280Y-12395366D01*
X7554947Y-12528699D02*
X7554947Y-12395366D01*
X7554947Y-12328699D02*
X7545423Y-12338223D01*
X7554947Y-12347747D01*
X7564470Y-12338223D01*
X7554947Y-12328699D01*
X7554947Y-12347747D01*
X7678756Y-12528699D02*
X7659709Y-12519176D01*
X7650185Y-12500128D01*
X7650185Y-12328699D01*
X7783518Y-12528699D02*
X7764470Y-12519176D01*
X7754947Y-12500128D01*
X7754947Y-12328699D01*
X8012090Y-12528699D02*
X8012090Y-12328699D01*
X8078756Y-12471557D01*
X8145423Y-12328699D01*
X8145423Y-12528699D01*
X8326375Y-12528699D02*
X8326375Y-12423937D01*
X8316851Y-12404890D01*
X8297804Y-12395366D01*
X8259709Y-12395366D01*
X8240661Y-12404890D01*
X8326375Y-12519176D02*
X8307328Y-12528699D01*
X8259709Y-12528699D01*
X8240661Y-12519176D01*
X8231137Y-12500128D01*
X8231137Y-12481080D01*
X8240661Y-12462033D01*
X8259709Y-12452509D01*
X8307328Y-12452509D01*
X8326375Y-12442985D01*
X8421613Y-12395366D02*
X8421613Y-12595366D01*
X8421613Y-12404890D02*
X8440661Y-12395366D01*
X8478756Y-12395366D01*
X8497804Y-12404890D01*
X8507328Y-12414414D01*
X8516852Y-12433461D01*
X8516852Y-12490604D01*
X8507328Y-12509652D01*
X8497804Y-12519176D01*
X8478756Y-12528699D01*
X8440661Y-12528699D01*
X8421613Y-12519176D01*
X8602566Y-12509652D02*
X8612090Y-12519176D01*
X8602566Y-12528699D01*
X8593042Y-12519176D01*
X8602566Y-12509652D01*
X8602566Y-12528699D01*
X8602566Y-12404890D02*
X8612090Y-12414414D01*
X8602566Y-12423937D01*
X8593042Y-12414414D01*
X8602566Y-12404890D01*
X8602566Y-12423937D01*
D12*
X6933518Y-12838223D02*
X6973518Y-12878223D01*
X6973518Y-12838223D02*
X6933518Y-12878223D01*
D11*
X7269232Y-12748699D02*
X7288280Y-12748699D01*
X7307328Y-12758223D01*
X7316851Y-12767747D01*
X7326375Y-12786795D01*
X7335899Y-12824890D01*
X7335899Y-12872509D01*
X7326375Y-12910604D01*
X7316851Y-12929652D01*
X7307328Y-12939176D01*
X7288280Y-12948699D01*
X7269232Y-12948699D01*
X7250185Y-12939176D01*
X7240661Y-12929652D01*
X7231137Y-12910604D01*
X7221613Y-12872509D01*
X7221613Y-12824890D01*
X7231137Y-12786795D01*
X7240661Y-12767747D01*
X7250185Y-12758223D01*
X7269232Y-12748699D01*
X7421613Y-12929652D02*
X7431137Y-12939176D01*
X7421613Y-12948699D01*
X7412090Y-12939176D01*
X7421613Y-12929652D01*
X7421613Y-12948699D01*
X7602566Y-12815366D02*
X7602566Y-12948699D01*
X7554947Y-12739176D02*
X7507328Y-12882033D01*
X7631137Y-12882033D01*
X7745423Y-12748699D02*
X7764470Y-12748699D01*
X7783518Y-12758223D01*
X7793042Y-12767747D01*
X7802566Y-12786795D01*
X7812090Y-12824890D01*
X7812090Y-12872509D01*
X7802566Y-12910604D01*
X7793042Y-12929652D01*
X7783518Y-12939176D01*
X7764470Y-12948699D01*
X7745423Y-12948699D01*
X7726375Y-12939176D01*
X7716851Y-12929652D01*
X7707328Y-12910604D01*
X7697804Y-12872509D01*
X7697804Y-12824890D01*
X7707328Y-12786795D01*
X7716851Y-12767747D01*
X7726375Y-12758223D01*
X7745423Y-12748699D01*
X7935899Y-12748699D02*
X7954947Y-12748699D01*
X7973994Y-12758223D01*
X7983518Y-12767747D01*
X7993042Y-12786795D01*
X8002566Y-12824890D01*
X8002566Y-12872509D01*
X7993042Y-12910604D01*
X7983518Y-12929652D01*
X7973994Y-12939176D01*
X7954947Y-12948699D01*
X7935899Y-12948699D01*
X7916851Y-12939176D01*
X7907328Y-12929652D01*
X7897804Y-12910604D01*
X7888280Y-12872509D01*
X7888280Y-12824890D01*
X7897804Y-12786795D01*
X7907328Y-12767747D01*
X7916851Y-12758223D01*
X7935899Y-12748699D01*
X8088280Y-12948699D02*
X8088280Y-12815366D01*
X8088280Y-12834414D02*
X8097804Y-12824890D01*
X8116851Y-12815366D01*
X8145423Y-12815366D01*
X8164470Y-12824890D01*
X8173994Y-12843937D01*
X8173994Y-12948699D01*
X8173994Y-12843937D02*
X8183518Y-12824890D01*
X8202566Y-12815366D01*
X8231137Y-12815366D01*
X8250185Y-12824890D01*
X8259709Y-12843937D01*
X8259709Y-12948699D01*
X8354947Y-12948699D02*
X8354947Y-12815366D01*
X8354947Y-12834414D02*
X8364470Y-12824890D01*
X8383518Y-12815366D01*
X8412090Y-12815366D01*
X8431137Y-12824890D01*
X8440661Y-12843937D01*
X8440661Y-12948699D01*
X8440661Y-12843937D02*
X8450185Y-12824890D01*
X8469232Y-12815366D01*
X8497804Y-12815366D01*
X8516852Y-12824890D01*
X8526375Y-12843937D01*
X8526375Y-12948699D01*
X8916852Y-12739176D02*
X8745423Y-12996318D01*
X9173994Y-12748699D02*
X9193042Y-12748699D01*
X9212090Y-12758223D01*
X9221613Y-12767747D01*
X9231137Y-12786795D01*
X9240661Y-12824890D01*
X9240661Y-12872509D01*
X9231137Y-12910604D01*
X9221613Y-12929652D01*
X9212090Y-12939176D01*
X9193042Y-12948699D01*
X9173994Y-12948699D01*
X9154947Y-12939176D01*
X9145423Y-12929652D01*
X9135899Y-12910604D01*
X9126375Y-12872509D01*
X9126375Y-12824890D01*
X9135899Y-12786795D01*
X9145423Y-12767747D01*
X9154947Y-12758223D01*
X9173994Y-12748699D01*
X9326375Y-12929652D02*
X9335899Y-12939176D01*
X9326375Y-12948699D01*
X9316852Y-12939176D01*
X9326375Y-12929652D01*
X9326375Y-12948699D01*
X9459709Y-12748699D02*
X9478756Y-12748699D01*
X9497804Y-12758223D01*
X9507328Y-12767747D01*
X9516852Y-12786795D01*
X9526375Y-12824890D01*
X9526375Y-12872509D01*
X9516852Y-12910604D01*
X9507328Y-12929652D01*
X9497804Y-12939176D01*
X9478756Y-12948699D01*
X9459709Y-12948699D01*
X9440661Y-12939176D01*
X9431137Y-12929652D01*
X9421613Y-12910604D01*
X9412090Y-12872509D01*
X9412090Y-12824890D01*
X9421613Y-12786795D01*
X9431137Y-12767747D01*
X9440661Y-12758223D01*
X9459709Y-12748699D01*
X9716852Y-12948699D02*
X9602566Y-12948699D01*
X9659709Y-12948699D02*
X9659709Y-12748699D01*
X9640661Y-12777271D01*
X9621613Y-12796318D01*
X9602566Y-12805842D01*
X9897804Y-12748699D02*
X9802566Y-12748699D01*
X9793042Y-12843937D01*
X9802566Y-12834414D01*
X9821613Y-12824890D01*
X9869232Y-12824890D01*
X9888280Y-12834414D01*
X9897804Y-12843937D01*
X9907328Y-12862985D01*
X9907328Y-12910604D01*
X9897804Y-12929652D01*
X9888280Y-12939176D01*
X9869232Y-12948699D01*
X9821613Y-12948699D01*
X9802566Y-12939176D01*
X9793042Y-12929652D01*
X9973994Y-12748699D02*
X10107328Y-12748699D01*
X10021613Y-12948699D01*
X10173994Y-12748699D02*
X10173994Y-12786795D01*
X10250185Y-12748699D02*
X10250185Y-12786795D01*
X10545423Y-13024890D02*
X10535899Y-13015366D01*
X10516852Y-12986795D01*
X10507328Y-12967747D01*
X10497804Y-12939176D01*
X10488280Y-12891557D01*
X10488280Y-12853461D01*
X10497804Y-12805842D01*
X10507328Y-12777271D01*
X10516852Y-12758223D01*
X10535899Y-12729652D01*
X10545423Y-12720128D01*
X10716852Y-12748699D02*
X10621613Y-12748699D01*
X10612090Y-12843937D01*
X10621613Y-12834414D01*
X10640661Y-12824890D01*
X10688280Y-12824890D01*
X10707328Y-12834414D01*
X10716852Y-12843937D01*
X10726375Y-12862985D01*
X10726375Y-12910604D01*
X10716852Y-12929652D01*
X10707328Y-12939176D01*
X10688280Y-12948699D01*
X10640661Y-12948699D01*
X10621613Y-12939176D01*
X10612090Y-12929652D01*
X10897804Y-12748699D02*
X10859709Y-12748699D01*
X10840661Y-12758223D01*
X10831137Y-12767747D01*
X10812090Y-12796318D01*
X10802566Y-12834414D01*
X10802566Y-12910604D01*
X10812090Y-12929652D01*
X10821613Y-12939176D01*
X10840661Y-12948699D01*
X10878756Y-12948699D01*
X10897804Y-12939176D01*
X10907328Y-12929652D01*
X10916852Y-12910604D01*
X10916852Y-12862985D01*
X10907328Y-12843937D01*
X10897804Y-12834414D01*
X10878756Y-12824890D01*
X10840661Y-12824890D01*
X10821613Y-12834414D01*
X10812090Y-12843937D01*
X10802566Y-12862985D01*
X11154947Y-12948699D02*
X11154947Y-12748699D01*
X11240661Y-12948699D02*
X11240661Y-12843937D01*
X11231137Y-12824890D01*
X11212090Y-12815366D01*
X11183518Y-12815366D01*
X11164471Y-12824890D01*
X11154947Y-12834414D01*
X11364470Y-12948699D02*
X11345423Y-12939176D01*
X11335899Y-12929652D01*
X11326375Y-12910604D01*
X11326375Y-12853461D01*
X11335899Y-12834414D01*
X11345423Y-12824890D01*
X11364470Y-12815366D01*
X11393042Y-12815366D01*
X11412090Y-12824890D01*
X11421613Y-12834414D01*
X11431137Y-12853461D01*
X11431137Y-12910604D01*
X11421613Y-12929652D01*
X11412090Y-12939176D01*
X11393042Y-12948699D01*
X11364470Y-12948699D01*
X11545423Y-12948699D02*
X11526375Y-12939176D01*
X11516851Y-12920128D01*
X11516851Y-12748699D01*
X11697804Y-12939176D02*
X11678756Y-12948699D01*
X11640661Y-12948699D01*
X11621613Y-12939176D01*
X11612090Y-12920128D01*
X11612090Y-12843937D01*
X11621613Y-12824890D01*
X11640661Y-12815366D01*
X11678756Y-12815366D01*
X11697804Y-12824890D01*
X11707328Y-12843937D01*
X11707328Y-12862985D01*
X11612090Y-12882033D01*
X11783518Y-12939176D02*
X11802566Y-12948699D01*
X11840661Y-12948699D01*
X11859709Y-12939176D01*
X11869232Y-12920128D01*
X11869232Y-12910604D01*
X11859709Y-12891557D01*
X11840661Y-12882033D01*
X11812090Y-12882033D01*
X11793042Y-12872509D01*
X11783518Y-12853461D01*
X11783518Y-12843937D01*
X11793042Y-12824890D01*
X11812090Y-12815366D01*
X11840661Y-12815366D01*
X11859709Y-12824890D01*
X11935899Y-13024890D02*
X11945423Y-13015366D01*
X11964470Y-12986795D01*
X11973994Y-12967747D01*
X11983518Y-12939176D01*
X11993042Y-12891557D01*
X11993042Y-12853461D01*
X11983518Y-12805842D01*
X11973994Y-12777271D01*
X11964470Y-12758223D01*
X11945423Y-12729652D01*
X11935899Y-12720128D01*
D13*
X6973518Y-13122223D02*
G75*
G03*
X6973518Y-13122223I-35550J0D01*
G01*
D11*
X7269232Y-13012699D02*
X7288280Y-13012699D01*
X7307328Y-13022223D01*
X7316851Y-13031747D01*
X7326375Y-13050795D01*
X7335899Y-13088890D01*
X7335899Y-13136509D01*
X7326375Y-13174604D01*
X7316851Y-13193652D01*
X7307328Y-13203176D01*
X7288280Y-13212699D01*
X7269232Y-13212699D01*
X7250185Y-13203176D01*
X7240661Y-13193652D01*
X7231137Y-13174604D01*
X7221613Y-13136509D01*
X7221613Y-13088890D01*
X7231137Y-13050795D01*
X7240661Y-13031747D01*
X7250185Y-13022223D01*
X7269232Y-13012699D01*
X7421613Y-13193652D02*
X7431137Y-13203176D01*
X7421613Y-13212699D01*
X7412090Y-13203176D01*
X7421613Y-13193652D01*
X7421613Y-13212699D01*
X7497804Y-13012699D02*
X7631137Y-13012699D01*
X7545423Y-13212699D01*
X7812090Y-13212699D02*
X7697804Y-13212699D01*
X7754947Y-13212699D02*
X7754947Y-13012699D01*
X7735899Y-13041271D01*
X7716851Y-13060318D01*
X7697804Y-13069842D01*
X8002566Y-13212699D02*
X7888280Y-13212699D01*
X7945423Y-13212699D02*
X7945423Y-13012699D01*
X7926375Y-13041271D01*
X7907328Y-13060318D01*
X7888280Y-13069842D01*
X8088280Y-13212699D02*
X8088280Y-13079366D01*
X8088280Y-13098414D02*
X8097804Y-13088890D01*
X8116851Y-13079366D01*
X8145423Y-13079366D01*
X8164470Y-13088890D01*
X8173994Y-13107937D01*
X8173994Y-13212699D01*
X8173994Y-13107937D02*
X8183518Y-13088890D01*
X8202566Y-13079366D01*
X8231137Y-13079366D01*
X8250185Y-13088890D01*
X8259709Y-13107937D01*
X8259709Y-13212699D01*
X8354947Y-13212699D02*
X8354947Y-13079366D01*
X8354947Y-13098414D02*
X8364470Y-13088890D01*
X8383518Y-13079366D01*
X8412090Y-13079366D01*
X8431137Y-13088890D01*
X8440661Y-13107937D01*
X8440661Y-13212699D01*
X8440661Y-13107937D02*
X8450185Y-13088890D01*
X8469232Y-13079366D01*
X8497804Y-13079366D01*
X8516852Y-13088890D01*
X8526375Y-13107937D01*
X8526375Y-13212699D01*
X8916852Y-13003176D02*
X8745423Y-13260318D01*
X9173994Y-13012699D02*
X9193042Y-13012699D01*
X9212090Y-13022223D01*
X9221613Y-13031747D01*
X9231137Y-13050795D01*
X9240661Y-13088890D01*
X9240661Y-13136509D01*
X9231137Y-13174604D01*
X9221613Y-13193652D01*
X9212090Y-13203176D01*
X9193042Y-13212699D01*
X9173994Y-13212699D01*
X9154947Y-13203176D01*
X9145423Y-13193652D01*
X9135899Y-13174604D01*
X9126375Y-13136509D01*
X9126375Y-13088890D01*
X9135899Y-13050795D01*
X9145423Y-13031747D01*
X9154947Y-13022223D01*
X9173994Y-13012699D01*
X9326375Y-13193652D02*
X9335899Y-13203176D01*
X9326375Y-13212699D01*
X9316852Y-13203176D01*
X9326375Y-13193652D01*
X9326375Y-13212699D01*
X9459709Y-13012699D02*
X9478756Y-13012699D01*
X9497804Y-13022223D01*
X9507328Y-13031747D01*
X9516852Y-13050795D01*
X9526375Y-13088890D01*
X9526375Y-13136509D01*
X9516852Y-13174604D01*
X9507328Y-13193652D01*
X9497804Y-13203176D01*
X9478756Y-13212699D01*
X9459709Y-13212699D01*
X9440661Y-13203176D01*
X9431137Y-13193652D01*
X9421613Y-13174604D01*
X9412090Y-13136509D01*
X9412090Y-13088890D01*
X9421613Y-13050795D01*
X9431137Y-13031747D01*
X9440661Y-13022223D01*
X9459709Y-13012699D01*
X9602566Y-13031747D02*
X9612090Y-13022223D01*
X9631137Y-13012699D01*
X9678756Y-13012699D01*
X9697804Y-13022223D01*
X9707328Y-13031747D01*
X9716852Y-13050795D01*
X9716852Y-13069842D01*
X9707328Y-13098414D01*
X9593042Y-13212699D01*
X9716852Y-13212699D01*
X9831137Y-13098414D02*
X9812090Y-13088890D01*
X9802566Y-13079366D01*
X9793042Y-13060318D01*
X9793042Y-13050795D01*
X9802566Y-13031747D01*
X9812090Y-13022223D01*
X9831137Y-13012699D01*
X9869232Y-13012699D01*
X9888280Y-13022223D01*
X9897804Y-13031747D01*
X9907328Y-13050795D01*
X9907328Y-13060318D01*
X9897804Y-13079366D01*
X9888280Y-13088890D01*
X9869232Y-13098414D01*
X9831137Y-13098414D01*
X9812090Y-13107937D01*
X9802566Y-13117461D01*
X9793042Y-13136509D01*
X9793042Y-13174604D01*
X9802566Y-13193652D01*
X9812090Y-13203176D01*
X9831137Y-13212699D01*
X9869232Y-13212699D01*
X9888280Y-13203176D01*
X9897804Y-13193652D01*
X9907328Y-13174604D01*
X9907328Y-13136509D01*
X9897804Y-13117461D01*
X9888280Y-13107937D01*
X9869232Y-13098414D01*
X10031137Y-13012699D02*
X10050185Y-13012699D01*
X10069232Y-13022223D01*
X10078756Y-13031747D01*
X10088280Y-13050795D01*
X10097804Y-13088890D01*
X10097804Y-13136509D01*
X10088280Y-13174604D01*
X10078756Y-13193652D01*
X10069232Y-13203176D01*
X10050185Y-13212699D01*
X10031137Y-13212699D01*
X10012090Y-13203176D01*
X10002566Y-13193652D01*
X9993042Y-13174604D01*
X9983518Y-13136509D01*
X9983518Y-13088890D01*
X9993042Y-13050795D01*
X10002566Y-13031747D01*
X10012090Y-13022223D01*
X10031137Y-13012699D01*
X10173994Y-13012699D02*
X10173994Y-13050795D01*
X10250185Y-13012699D02*
X10250185Y-13050795D01*
X10545423Y-13288890D02*
X10535899Y-13279366D01*
X10516852Y-13250795D01*
X10507328Y-13231747D01*
X10497804Y-13203176D01*
X10488280Y-13155557D01*
X10488280Y-13117461D01*
X10497804Y-13069842D01*
X10507328Y-13041271D01*
X10516852Y-13022223D01*
X10535899Y-12993652D01*
X10545423Y-12984128D01*
X10707328Y-13079366D02*
X10707328Y-13212699D01*
X10659709Y-13003176D02*
X10612090Y-13146033D01*
X10735899Y-13146033D01*
X10964471Y-13212699D02*
X10964471Y-13012699D01*
X11050185Y-13212699D02*
X11050185Y-13107937D01*
X11040661Y-13088890D01*
X11021613Y-13079366D01*
X10993042Y-13079366D01*
X10973994Y-13088890D01*
X10964471Y-13098414D01*
X11173994Y-13212699D02*
X11154947Y-13203176D01*
X11145423Y-13193652D01*
X11135899Y-13174604D01*
X11135899Y-13117461D01*
X11145423Y-13098414D01*
X11154947Y-13088890D01*
X11173994Y-13079366D01*
X11202566Y-13079366D01*
X11221613Y-13088890D01*
X11231137Y-13098414D01*
X11240661Y-13117461D01*
X11240661Y-13174604D01*
X11231137Y-13193652D01*
X11221613Y-13203176D01*
X11202566Y-13212699D01*
X11173994Y-13212699D01*
X11354947Y-13212699D02*
X11335899Y-13203176D01*
X11326375Y-13184128D01*
X11326375Y-13012699D01*
X11507328Y-13203176D02*
X11488280Y-13212699D01*
X11450185Y-13212699D01*
X11431137Y-13203176D01*
X11421613Y-13184128D01*
X11421613Y-13107937D01*
X11431137Y-13088890D01*
X11450185Y-13079366D01*
X11488280Y-13079366D01*
X11507328Y-13088890D01*
X11516851Y-13107937D01*
X11516851Y-13126985D01*
X11421613Y-13146033D01*
X11593042Y-13203176D02*
X11612090Y-13212699D01*
X11650185Y-13212699D01*
X11669232Y-13203176D01*
X11678756Y-13184128D01*
X11678756Y-13174604D01*
X11669232Y-13155557D01*
X11650185Y-13146033D01*
X11621613Y-13146033D01*
X11602566Y-13136509D01*
X11593042Y-13117461D01*
X11593042Y-13107937D01*
X11602566Y-13088890D01*
X11621613Y-13079366D01*
X11650185Y-13079366D01*
X11669232Y-13088890D01*
X11745423Y-13288890D02*
X11754947Y-13279366D01*
X11773994Y-13250795D01*
X11783518Y-13231747D01*
X11793042Y-13203176D01*
X11802566Y-13155557D01*
X11802566Y-13117461D01*
X11793042Y-13069842D01*
X11783518Y-13041271D01*
X11773994Y-13022223D01*
X11754947Y-12993652D01*
X11745423Y-12984128D01*
D14*
X6933518Y-13346223D02*
X6933518Y-13426223D01*
X6893518Y-13386223D02*
X6973518Y-13386223D01*
D11*
X7269232Y-13276699D02*
X7288280Y-13276699D01*
X7307328Y-13286223D01*
X7316851Y-13295747D01*
X7326375Y-13314795D01*
X7335899Y-13352890D01*
X7335899Y-13400509D01*
X7326375Y-13438604D01*
X7316851Y-13457652D01*
X7307328Y-13467176D01*
X7288280Y-13476699D01*
X7269232Y-13476699D01*
X7250185Y-13467176D01*
X7240661Y-13457652D01*
X7231137Y-13438604D01*
X7221613Y-13400509D01*
X7221613Y-13352890D01*
X7231137Y-13314795D01*
X7240661Y-13295747D01*
X7250185Y-13286223D01*
X7269232Y-13276699D01*
X7421613Y-13457652D02*
X7431137Y-13467176D01*
X7421613Y-13476699D01*
X7412090Y-13467176D01*
X7421613Y-13457652D01*
X7421613Y-13476699D01*
X7545423Y-13362414D02*
X7526375Y-13352890D01*
X7516851Y-13343366D01*
X7507328Y-13324318D01*
X7507328Y-13314795D01*
X7516851Y-13295747D01*
X7526375Y-13286223D01*
X7545423Y-13276699D01*
X7583518Y-13276699D01*
X7602566Y-13286223D01*
X7612090Y-13295747D01*
X7621613Y-13314795D01*
X7621613Y-13324318D01*
X7612090Y-13343366D01*
X7602566Y-13352890D01*
X7583518Y-13362414D01*
X7545423Y-13362414D01*
X7526375Y-13371937D01*
X7516851Y-13381461D01*
X7507328Y-13400509D01*
X7507328Y-13438604D01*
X7516851Y-13457652D01*
X7526375Y-13467176D01*
X7545423Y-13476699D01*
X7583518Y-13476699D01*
X7602566Y-13467176D01*
X7612090Y-13457652D01*
X7621613Y-13438604D01*
X7621613Y-13400509D01*
X7612090Y-13381461D01*
X7602566Y-13371937D01*
X7583518Y-13362414D01*
X7745423Y-13276699D02*
X7764470Y-13276699D01*
X7783518Y-13286223D01*
X7793042Y-13295747D01*
X7802566Y-13314795D01*
X7812090Y-13352890D01*
X7812090Y-13400509D01*
X7802566Y-13438604D01*
X7793042Y-13457652D01*
X7783518Y-13467176D01*
X7764470Y-13476699D01*
X7745423Y-13476699D01*
X7726375Y-13467176D01*
X7716851Y-13457652D01*
X7707328Y-13438604D01*
X7697804Y-13400509D01*
X7697804Y-13352890D01*
X7707328Y-13314795D01*
X7716851Y-13295747D01*
X7726375Y-13286223D01*
X7745423Y-13276699D01*
X7935899Y-13276699D02*
X7954947Y-13276699D01*
X7973994Y-13286223D01*
X7983518Y-13295747D01*
X7993042Y-13314795D01*
X8002566Y-13352890D01*
X8002566Y-13400509D01*
X7993042Y-13438604D01*
X7983518Y-13457652D01*
X7973994Y-13467176D01*
X7954947Y-13476699D01*
X7935899Y-13476699D01*
X7916851Y-13467176D01*
X7907328Y-13457652D01*
X7897804Y-13438604D01*
X7888280Y-13400509D01*
X7888280Y-13352890D01*
X7897804Y-13314795D01*
X7907328Y-13295747D01*
X7916851Y-13286223D01*
X7935899Y-13276699D01*
X8088280Y-13476699D02*
X8088280Y-13343366D01*
X8088280Y-13362414D02*
X8097804Y-13352890D01*
X8116851Y-13343366D01*
X8145423Y-13343366D01*
X8164470Y-13352890D01*
X8173994Y-13371937D01*
X8173994Y-13476699D01*
X8173994Y-13371937D02*
X8183518Y-13352890D01*
X8202566Y-13343366D01*
X8231137Y-13343366D01*
X8250185Y-13352890D01*
X8259709Y-13371937D01*
X8259709Y-13476699D01*
X8354947Y-13476699D02*
X8354947Y-13343366D01*
X8354947Y-13362414D02*
X8364470Y-13352890D01*
X8383518Y-13343366D01*
X8412090Y-13343366D01*
X8431137Y-13352890D01*
X8440661Y-13371937D01*
X8440661Y-13476699D01*
X8440661Y-13371937D02*
X8450185Y-13352890D01*
X8469232Y-13343366D01*
X8497804Y-13343366D01*
X8516852Y-13352890D01*
X8526375Y-13371937D01*
X8526375Y-13476699D01*
X8916852Y-13267176D02*
X8745423Y-13524318D01*
X9173994Y-13276699D02*
X9193042Y-13276699D01*
X9212090Y-13286223D01*
X9221613Y-13295747D01*
X9231137Y-13314795D01*
X9240661Y-13352890D01*
X9240661Y-13400509D01*
X9231137Y-13438604D01*
X9221613Y-13457652D01*
X9212090Y-13467176D01*
X9193042Y-13476699D01*
X9173994Y-13476699D01*
X9154947Y-13467176D01*
X9145423Y-13457652D01*
X9135899Y-13438604D01*
X9126375Y-13400509D01*
X9126375Y-13352890D01*
X9135899Y-13314795D01*
X9145423Y-13295747D01*
X9154947Y-13286223D01*
X9173994Y-13276699D01*
X9326375Y-13457652D02*
X9335899Y-13467176D01*
X9326375Y-13476699D01*
X9316852Y-13467176D01*
X9326375Y-13457652D01*
X9326375Y-13476699D01*
X9459709Y-13276699D02*
X9478756Y-13276699D01*
X9497804Y-13286223D01*
X9507328Y-13295747D01*
X9516852Y-13314795D01*
X9526375Y-13352890D01*
X9526375Y-13400509D01*
X9516852Y-13438604D01*
X9507328Y-13457652D01*
X9497804Y-13467176D01*
X9478756Y-13476699D01*
X9459709Y-13476699D01*
X9440661Y-13467176D01*
X9431137Y-13457652D01*
X9421613Y-13438604D01*
X9412090Y-13400509D01*
X9412090Y-13352890D01*
X9421613Y-13314795D01*
X9431137Y-13295747D01*
X9440661Y-13286223D01*
X9459709Y-13276699D01*
X9593042Y-13276699D02*
X9716852Y-13276699D01*
X9650185Y-13352890D01*
X9678756Y-13352890D01*
X9697804Y-13362414D01*
X9707328Y-13371937D01*
X9716852Y-13390985D01*
X9716852Y-13438604D01*
X9707328Y-13457652D01*
X9697804Y-13467176D01*
X9678756Y-13476699D01*
X9621613Y-13476699D01*
X9602566Y-13467176D01*
X9593042Y-13457652D01*
X9907328Y-13476699D02*
X9793042Y-13476699D01*
X9850185Y-13476699D02*
X9850185Y-13276699D01*
X9831137Y-13305271D01*
X9812090Y-13324318D01*
X9793042Y-13333842D01*
X10088280Y-13276699D02*
X9993042Y-13276699D01*
X9983518Y-13371937D01*
X9993042Y-13362414D01*
X10012090Y-13352890D01*
X10059709Y-13352890D01*
X10078756Y-13362414D01*
X10088280Y-13371937D01*
X10097804Y-13390985D01*
X10097804Y-13438604D01*
X10088280Y-13457652D01*
X10078756Y-13467176D01*
X10059709Y-13476699D01*
X10012090Y-13476699D01*
X9993042Y-13467176D01*
X9983518Y-13457652D01*
X10173994Y-13276699D02*
X10173994Y-13314795D01*
X10250185Y-13276699D02*
X10250185Y-13314795D01*
X10545423Y-13552890D02*
X10535899Y-13543366D01*
X10516852Y-13514795D01*
X10507328Y-13495747D01*
X10497804Y-13467176D01*
X10488280Y-13419557D01*
X10488280Y-13381461D01*
X10497804Y-13333842D01*
X10507328Y-13305271D01*
X10516852Y-13286223D01*
X10535899Y-13257652D01*
X10545423Y-13248128D01*
X10659709Y-13276699D02*
X10678756Y-13276699D01*
X10697804Y-13286223D01*
X10707328Y-13295747D01*
X10716852Y-13314795D01*
X10726375Y-13352890D01*
X10726375Y-13400509D01*
X10716852Y-13438604D01*
X10707328Y-13457652D01*
X10697804Y-13467176D01*
X10678756Y-13476699D01*
X10659709Y-13476699D01*
X10640661Y-13467176D01*
X10631137Y-13457652D01*
X10621613Y-13438604D01*
X10612090Y-13400509D01*
X10612090Y-13352890D01*
X10621613Y-13314795D01*
X10631137Y-13295747D01*
X10640661Y-13286223D01*
X10659709Y-13276699D01*
X10964471Y-13476699D02*
X10964471Y-13276699D01*
X11050185Y-13476699D02*
X11050185Y-13371937D01*
X11040661Y-13352890D01*
X11021613Y-13343366D01*
X10993042Y-13343366D01*
X10973994Y-13352890D01*
X10964471Y-13362414D01*
X11173994Y-13476699D02*
X11154947Y-13467176D01*
X11145423Y-13457652D01*
X11135899Y-13438604D01*
X11135899Y-13381461D01*
X11145423Y-13362414D01*
X11154947Y-13352890D01*
X11173994Y-13343366D01*
X11202566Y-13343366D01*
X11221613Y-13352890D01*
X11231137Y-13362414D01*
X11240661Y-13381461D01*
X11240661Y-13438604D01*
X11231137Y-13457652D01*
X11221613Y-13467176D01*
X11202566Y-13476699D01*
X11173994Y-13476699D01*
X11354947Y-13476699D02*
X11335899Y-13467176D01*
X11326375Y-13448128D01*
X11326375Y-13276699D01*
X11507328Y-13467176D02*
X11488280Y-13476699D01*
X11450185Y-13476699D01*
X11431137Y-13467176D01*
X11421613Y-13448128D01*
X11421613Y-13371937D01*
X11431137Y-13352890D01*
X11450185Y-13343366D01*
X11488280Y-13343366D01*
X11507328Y-13352890D01*
X11516851Y-13371937D01*
X11516851Y-13390985D01*
X11421613Y-13410033D01*
X11593042Y-13467176D02*
X11612090Y-13476699D01*
X11650185Y-13476699D01*
X11669232Y-13467176D01*
X11678756Y-13448128D01*
X11678756Y-13438604D01*
X11669232Y-13419557D01*
X11650185Y-13410033D01*
X11621613Y-13410033D01*
X11602566Y-13400509D01*
X11593042Y-13381461D01*
X11593042Y-13371937D01*
X11602566Y-13352890D01*
X11621613Y-13343366D01*
X11650185Y-13343366D01*
X11669232Y-13352890D01*
X11916851Y-13400509D02*
X12069232Y-13400509D01*
X11993042Y-13476699D02*
X11993042Y-13324318D01*
X12297804Y-13276699D02*
X12421613Y-13276699D01*
X12354947Y-13352890D01*
X12383518Y-13352890D01*
X12402566Y-13362414D01*
X12412090Y-13371937D01*
X12421613Y-13390985D01*
X12421613Y-13438604D01*
X12412090Y-13457652D01*
X12402566Y-13467176D01*
X12383518Y-13476699D01*
X12326375Y-13476699D01*
X12307328Y-13467176D01*
X12297804Y-13457652D01*
X12650185Y-13467176D02*
X12669232Y-13476699D01*
X12707328Y-13476699D01*
X12726375Y-13467176D01*
X12735899Y-13448128D01*
X12735899Y-13438604D01*
X12726375Y-13419557D01*
X12707328Y-13410033D01*
X12678756Y-13410033D01*
X12659709Y-13400509D01*
X12650185Y-13381461D01*
X12650185Y-13371937D01*
X12659709Y-13352890D01*
X12678756Y-13343366D01*
X12707328Y-13343366D01*
X12726375Y-13352890D01*
X12850185Y-13476699D02*
X12831137Y-13467176D01*
X12821613Y-13448128D01*
X12821613Y-13276699D01*
X12954947Y-13476699D02*
X12935899Y-13467176D01*
X12926375Y-13457652D01*
X12916851Y-13438604D01*
X12916851Y-13381461D01*
X12926375Y-13362414D01*
X12935899Y-13352890D01*
X12954947Y-13343366D01*
X12983518Y-13343366D01*
X13002566Y-13352890D01*
X13012090Y-13362414D01*
X13021613Y-13381461D01*
X13021613Y-13438604D01*
X13012090Y-13457652D01*
X13002566Y-13467176D01*
X12983518Y-13476699D01*
X12954947Y-13476699D01*
X13078756Y-13343366D02*
X13154947Y-13343366D01*
X13107328Y-13276699D02*
X13107328Y-13448128D01*
X13116851Y-13467176D01*
X13135899Y-13476699D01*
X13154947Y-13476699D01*
X13212090Y-13467176D02*
X13231137Y-13476699D01*
X13269232Y-13476699D01*
X13288280Y-13467176D01*
X13297804Y-13448128D01*
X13297804Y-13438604D01*
X13288280Y-13419557D01*
X13269232Y-13410033D01*
X13240661Y-13410033D01*
X13221613Y-13400509D01*
X13212090Y-13381461D01*
X13212090Y-13371937D01*
X13221613Y-13352890D01*
X13240661Y-13343366D01*
X13269232Y-13343366D01*
X13288280Y-13352890D01*
X13364470Y-13552890D02*
X13373994Y-13543366D01*
X13393042Y-13514795D01*
X13402566Y-13495747D01*
X13412090Y-13467176D01*
X13421613Y-13419557D01*
X13421613Y-13381461D01*
X13412090Y-13333842D01*
X13402566Y-13305271D01*
X13393042Y-13286223D01*
X13373994Y-13257652D01*
X13364470Y-13248128D01*
D15*
X6961615Y-13678960D02*
X6961615Y-13621486D01*
X6904141Y-13621486D01*
X6904141Y-13678960D01*
X6961615Y-13678960D01*
D11*
X7269232Y-13540699D02*
X7288280Y-13540699D01*
X7307328Y-13550223D01*
X7316851Y-13559747D01*
X7326375Y-13578795D01*
X7335899Y-13616890D01*
X7335899Y-13664509D01*
X7326375Y-13702604D01*
X7316851Y-13721652D01*
X7307328Y-13731176D01*
X7288280Y-13740699D01*
X7269232Y-13740699D01*
X7250185Y-13731176D01*
X7240661Y-13721652D01*
X7231137Y-13702604D01*
X7221613Y-13664509D01*
X7221613Y-13616890D01*
X7231137Y-13578795D01*
X7240661Y-13559747D01*
X7250185Y-13550223D01*
X7269232Y-13540699D01*
X7421613Y-13721652D02*
X7431137Y-13731176D01*
X7421613Y-13740699D01*
X7412090Y-13731176D01*
X7421613Y-13721652D01*
X7421613Y-13740699D01*
X7545423Y-13626414D02*
X7526375Y-13616890D01*
X7516851Y-13607366D01*
X7507328Y-13588318D01*
X7507328Y-13578795D01*
X7516851Y-13559747D01*
X7526375Y-13550223D01*
X7545423Y-13540699D01*
X7583518Y-13540699D01*
X7602566Y-13550223D01*
X7612090Y-13559747D01*
X7621613Y-13578795D01*
X7621613Y-13588318D01*
X7612090Y-13607366D01*
X7602566Y-13616890D01*
X7583518Y-13626414D01*
X7545423Y-13626414D01*
X7526375Y-13635937D01*
X7516851Y-13645461D01*
X7507328Y-13664509D01*
X7507328Y-13702604D01*
X7516851Y-13721652D01*
X7526375Y-13731176D01*
X7545423Y-13740699D01*
X7583518Y-13740699D01*
X7602566Y-13731176D01*
X7612090Y-13721652D01*
X7621613Y-13702604D01*
X7621613Y-13664509D01*
X7612090Y-13645461D01*
X7602566Y-13635937D01*
X7583518Y-13626414D01*
X7812090Y-13740699D02*
X7697804Y-13740699D01*
X7754947Y-13740699D02*
X7754947Y-13540699D01*
X7735899Y-13569271D01*
X7716851Y-13588318D01*
X7697804Y-13597842D01*
X7878756Y-13540699D02*
X8002566Y-13540699D01*
X7935899Y-13616890D01*
X7964470Y-13616890D01*
X7983518Y-13626414D01*
X7993042Y-13635937D01*
X8002566Y-13654985D01*
X8002566Y-13702604D01*
X7993042Y-13721652D01*
X7983518Y-13731176D01*
X7964470Y-13740699D01*
X7907328Y-13740699D01*
X7888280Y-13731176D01*
X7878756Y-13721652D01*
X8088280Y-13740699D02*
X8088280Y-13607366D01*
X8088280Y-13626414D02*
X8097804Y-13616890D01*
X8116851Y-13607366D01*
X8145423Y-13607366D01*
X8164470Y-13616890D01*
X8173994Y-13635937D01*
X8173994Y-13740699D01*
X8173994Y-13635937D02*
X8183518Y-13616890D01*
X8202566Y-13607366D01*
X8231137Y-13607366D01*
X8250185Y-13616890D01*
X8259709Y-13635937D01*
X8259709Y-13740699D01*
X8354947Y-13740699D02*
X8354947Y-13607366D01*
X8354947Y-13626414D02*
X8364470Y-13616890D01*
X8383518Y-13607366D01*
X8412090Y-13607366D01*
X8431137Y-13616890D01*
X8440661Y-13635937D01*
X8440661Y-13740699D01*
X8440661Y-13635937D02*
X8450185Y-13616890D01*
X8469232Y-13607366D01*
X8497804Y-13607366D01*
X8516852Y-13616890D01*
X8526375Y-13635937D01*
X8526375Y-13740699D01*
X8916852Y-13531176D02*
X8745423Y-13788318D01*
X9173994Y-13540699D02*
X9193042Y-13540699D01*
X9212090Y-13550223D01*
X9221613Y-13559747D01*
X9231137Y-13578795D01*
X9240661Y-13616890D01*
X9240661Y-13664509D01*
X9231137Y-13702604D01*
X9221613Y-13721652D01*
X9212090Y-13731176D01*
X9193042Y-13740699D01*
X9173994Y-13740699D01*
X9154947Y-13731176D01*
X9145423Y-13721652D01*
X9135899Y-13702604D01*
X9126375Y-13664509D01*
X9126375Y-13616890D01*
X9135899Y-13578795D01*
X9145423Y-13559747D01*
X9154947Y-13550223D01*
X9173994Y-13540699D01*
X9326375Y-13721652D02*
X9335899Y-13731176D01*
X9326375Y-13740699D01*
X9316852Y-13731176D01*
X9326375Y-13721652D01*
X9326375Y-13740699D01*
X9459709Y-13540699D02*
X9478756Y-13540699D01*
X9497804Y-13550223D01*
X9507328Y-13559747D01*
X9516852Y-13578795D01*
X9526375Y-13616890D01*
X9526375Y-13664509D01*
X9516852Y-13702604D01*
X9507328Y-13721652D01*
X9497804Y-13731176D01*
X9478756Y-13740699D01*
X9459709Y-13740699D01*
X9440661Y-13731176D01*
X9431137Y-13721652D01*
X9421613Y-13702604D01*
X9412090Y-13664509D01*
X9412090Y-13616890D01*
X9421613Y-13578795D01*
X9431137Y-13559747D01*
X9440661Y-13550223D01*
X9459709Y-13540699D01*
X9593042Y-13540699D02*
X9716852Y-13540699D01*
X9650185Y-13616890D01*
X9678756Y-13616890D01*
X9697804Y-13626414D01*
X9707328Y-13635937D01*
X9716852Y-13654985D01*
X9716852Y-13702604D01*
X9707328Y-13721652D01*
X9697804Y-13731176D01*
X9678756Y-13740699D01*
X9621613Y-13740699D01*
X9602566Y-13731176D01*
X9593042Y-13721652D01*
X9793042Y-13559747D02*
X9802566Y-13550223D01*
X9821613Y-13540699D01*
X9869232Y-13540699D01*
X9888280Y-13550223D01*
X9897804Y-13559747D01*
X9907328Y-13578795D01*
X9907328Y-13597842D01*
X9897804Y-13626414D01*
X9783518Y-13740699D01*
X9907328Y-13740699D01*
X10031137Y-13540699D02*
X10050185Y-13540699D01*
X10069232Y-13550223D01*
X10078756Y-13559747D01*
X10088280Y-13578795D01*
X10097804Y-13616890D01*
X10097804Y-13664509D01*
X10088280Y-13702604D01*
X10078756Y-13721652D01*
X10069232Y-13731176D01*
X10050185Y-13740699D01*
X10031137Y-13740699D01*
X10012090Y-13731176D01*
X10002566Y-13721652D01*
X9993042Y-13702604D01*
X9983518Y-13664509D01*
X9983518Y-13616890D01*
X9993042Y-13578795D01*
X10002566Y-13559747D01*
X10012090Y-13550223D01*
X10031137Y-13540699D01*
X10173994Y-13540699D02*
X10173994Y-13578795D01*
X10250185Y-13540699D02*
X10250185Y-13578795D01*
X10545423Y-13816890D02*
X10535899Y-13807366D01*
X10516852Y-13778795D01*
X10507328Y-13759747D01*
X10497804Y-13731176D01*
X10488280Y-13683557D01*
X10488280Y-13645461D01*
X10497804Y-13597842D01*
X10507328Y-13569271D01*
X10516852Y-13550223D01*
X10535899Y-13521652D01*
X10545423Y-13512128D01*
X10726375Y-13740699D02*
X10612090Y-13740699D01*
X10669232Y-13740699D02*
X10669232Y-13540699D01*
X10650185Y-13569271D01*
X10631137Y-13588318D01*
X10612090Y-13597842D01*
X10840661Y-13626414D02*
X10821613Y-13616890D01*
X10812090Y-13607366D01*
X10802566Y-13588318D01*
X10802566Y-13578795D01*
X10812090Y-13559747D01*
X10821613Y-13550223D01*
X10840661Y-13540699D01*
X10878756Y-13540699D01*
X10897804Y-13550223D01*
X10907328Y-13559747D01*
X10916852Y-13578795D01*
X10916852Y-13588318D01*
X10907328Y-13607366D01*
X10897804Y-13616890D01*
X10878756Y-13626414D01*
X10840661Y-13626414D01*
X10821613Y-13635937D01*
X10812090Y-13645461D01*
X10802566Y-13664509D01*
X10802566Y-13702604D01*
X10812090Y-13721652D01*
X10821613Y-13731176D01*
X10840661Y-13740699D01*
X10878756Y-13740699D01*
X10897804Y-13731176D01*
X10907328Y-13721652D01*
X10916852Y-13702604D01*
X10916852Y-13664509D01*
X10907328Y-13645461D01*
X10897804Y-13635937D01*
X10878756Y-13626414D01*
X11154947Y-13740699D02*
X11154947Y-13540699D01*
X11240661Y-13740699D02*
X11240661Y-13635937D01*
X11231137Y-13616890D01*
X11212090Y-13607366D01*
X11183518Y-13607366D01*
X11164471Y-13616890D01*
X11154947Y-13626414D01*
X11364470Y-13740699D02*
X11345423Y-13731176D01*
X11335899Y-13721652D01*
X11326375Y-13702604D01*
X11326375Y-13645461D01*
X11335899Y-13626414D01*
X11345423Y-13616890D01*
X11364470Y-13607366D01*
X11393042Y-13607366D01*
X11412090Y-13616890D01*
X11421613Y-13626414D01*
X11431137Y-13645461D01*
X11431137Y-13702604D01*
X11421613Y-13721652D01*
X11412090Y-13731176D01*
X11393042Y-13740699D01*
X11364470Y-13740699D01*
X11545423Y-13740699D02*
X11526375Y-13731176D01*
X11516851Y-13712128D01*
X11516851Y-13540699D01*
X11697804Y-13731176D02*
X11678756Y-13740699D01*
X11640661Y-13740699D01*
X11621613Y-13731176D01*
X11612090Y-13712128D01*
X11612090Y-13635937D01*
X11621613Y-13616890D01*
X11640661Y-13607366D01*
X11678756Y-13607366D01*
X11697804Y-13616890D01*
X11707328Y-13635937D01*
X11707328Y-13654985D01*
X11612090Y-13674033D01*
X11783518Y-13731176D02*
X11802566Y-13740699D01*
X11840661Y-13740699D01*
X11859709Y-13731176D01*
X11869232Y-13712128D01*
X11869232Y-13702604D01*
X11859709Y-13683557D01*
X11840661Y-13674033D01*
X11812090Y-13674033D01*
X11793042Y-13664509D01*
X11783518Y-13645461D01*
X11783518Y-13635937D01*
X11793042Y-13616890D01*
X11812090Y-13607366D01*
X11840661Y-13607366D01*
X11859709Y-13616890D01*
X11935899Y-13816890D02*
X11945423Y-13807366D01*
X11964470Y-13778795D01*
X11973994Y-13759747D01*
X11983518Y-13731176D01*
X11993042Y-13683557D01*
X11993042Y-13645461D01*
X11983518Y-13597842D01*
X11973994Y-13569271D01*
X11964470Y-13550223D01*
X11945423Y-13521652D01*
X11935899Y-13512128D01*
D16*
X6923518Y-13964223D02*
X6973518Y-13914223D01*
X6923518Y-13864223D01*
X6873518Y-13914223D01*
X6923518Y-13964223D01*
D11*
X7335899Y-14004699D02*
X7221613Y-14004699D01*
X7278756Y-14004699D02*
X7278756Y-13804699D01*
X7259709Y-13833271D01*
X7240661Y-13852318D01*
X7221613Y-13861842D01*
X7421613Y-13985652D02*
X7431137Y-13995176D01*
X7421613Y-14004699D01*
X7412090Y-13995176D01*
X7421613Y-13985652D01*
X7421613Y-14004699D01*
X7554947Y-13804699D02*
X7573994Y-13804699D01*
X7593042Y-13814223D01*
X7602566Y-13823747D01*
X7612090Y-13842795D01*
X7621613Y-13880890D01*
X7621613Y-13928509D01*
X7612090Y-13966604D01*
X7602566Y-13985652D01*
X7593042Y-13995176D01*
X7573994Y-14004699D01*
X7554947Y-14004699D01*
X7535899Y-13995176D01*
X7526375Y-13985652D01*
X7516851Y-13966604D01*
X7507328Y-13928509D01*
X7507328Y-13880890D01*
X7516851Y-13842795D01*
X7526375Y-13823747D01*
X7535899Y-13814223D01*
X7554947Y-13804699D01*
X7745423Y-13804699D02*
X7764470Y-13804699D01*
X7783518Y-13814223D01*
X7793042Y-13823747D01*
X7802566Y-13842795D01*
X7812090Y-13880890D01*
X7812090Y-13928509D01*
X7802566Y-13966604D01*
X7793042Y-13985652D01*
X7783518Y-13995176D01*
X7764470Y-14004699D01*
X7745423Y-14004699D01*
X7726375Y-13995176D01*
X7716851Y-13985652D01*
X7707328Y-13966604D01*
X7697804Y-13928509D01*
X7697804Y-13880890D01*
X7707328Y-13842795D01*
X7716851Y-13823747D01*
X7726375Y-13814223D01*
X7745423Y-13804699D01*
X7935899Y-13804699D02*
X7954947Y-13804699D01*
X7973994Y-13814223D01*
X7983518Y-13823747D01*
X7993042Y-13842795D01*
X8002566Y-13880890D01*
X8002566Y-13928509D01*
X7993042Y-13966604D01*
X7983518Y-13985652D01*
X7973994Y-13995176D01*
X7954947Y-14004699D01*
X7935899Y-14004699D01*
X7916851Y-13995176D01*
X7907328Y-13985652D01*
X7897804Y-13966604D01*
X7888280Y-13928509D01*
X7888280Y-13880890D01*
X7897804Y-13842795D01*
X7907328Y-13823747D01*
X7916851Y-13814223D01*
X7935899Y-13804699D01*
X8088280Y-14004699D02*
X8088280Y-13871366D01*
X8088280Y-13890414D02*
X8097804Y-13880890D01*
X8116851Y-13871366D01*
X8145423Y-13871366D01*
X8164470Y-13880890D01*
X8173994Y-13899937D01*
X8173994Y-14004699D01*
X8173994Y-13899937D02*
X8183518Y-13880890D01*
X8202566Y-13871366D01*
X8231137Y-13871366D01*
X8250185Y-13880890D01*
X8259709Y-13899937D01*
X8259709Y-14004699D01*
X8354947Y-14004699D02*
X8354947Y-13871366D01*
X8354947Y-13890414D02*
X8364470Y-13880890D01*
X8383518Y-13871366D01*
X8412090Y-13871366D01*
X8431137Y-13880890D01*
X8440661Y-13899937D01*
X8440661Y-14004699D01*
X8440661Y-13899937D02*
X8450185Y-13880890D01*
X8469232Y-13871366D01*
X8497804Y-13871366D01*
X8516852Y-13880890D01*
X8526375Y-13899937D01*
X8526375Y-14004699D01*
X8916852Y-13795176D02*
X8745423Y-14052318D01*
X9173994Y-13804699D02*
X9193042Y-13804699D01*
X9212090Y-13814223D01*
X9221613Y-13823747D01*
X9231137Y-13842795D01*
X9240661Y-13880890D01*
X9240661Y-13928509D01*
X9231137Y-13966604D01*
X9221613Y-13985652D01*
X9212090Y-13995176D01*
X9193042Y-14004699D01*
X9173994Y-14004699D01*
X9154947Y-13995176D01*
X9145423Y-13985652D01*
X9135899Y-13966604D01*
X9126375Y-13928509D01*
X9126375Y-13880890D01*
X9135899Y-13842795D01*
X9145423Y-13823747D01*
X9154947Y-13814223D01*
X9173994Y-13804699D01*
X9326375Y-13985652D02*
X9335899Y-13995176D01*
X9326375Y-14004699D01*
X9316852Y-13995176D01*
X9326375Y-13985652D01*
X9326375Y-14004699D01*
X9459709Y-13804699D02*
X9478756Y-13804699D01*
X9497804Y-13814223D01*
X9507328Y-13823747D01*
X9516852Y-13842795D01*
X9526375Y-13880890D01*
X9526375Y-13928509D01*
X9516852Y-13966604D01*
X9507328Y-13985652D01*
X9497804Y-13995176D01*
X9478756Y-14004699D01*
X9459709Y-14004699D01*
X9440661Y-13995176D01*
X9431137Y-13985652D01*
X9421613Y-13966604D01*
X9412090Y-13928509D01*
X9412090Y-13880890D01*
X9421613Y-13842795D01*
X9431137Y-13823747D01*
X9440661Y-13814223D01*
X9459709Y-13804699D01*
X9593042Y-13804699D02*
X9716852Y-13804699D01*
X9650185Y-13880890D01*
X9678756Y-13880890D01*
X9697804Y-13890414D01*
X9707328Y-13899937D01*
X9716852Y-13918985D01*
X9716852Y-13966604D01*
X9707328Y-13985652D01*
X9697804Y-13995176D01*
X9678756Y-14004699D01*
X9621613Y-14004699D01*
X9602566Y-13995176D01*
X9593042Y-13985652D01*
X9812090Y-14004699D02*
X9850185Y-14004699D01*
X9869232Y-13995176D01*
X9878756Y-13985652D01*
X9897804Y-13957080D01*
X9907328Y-13918985D01*
X9907328Y-13842795D01*
X9897804Y-13823747D01*
X9888280Y-13814223D01*
X9869232Y-13804699D01*
X9831137Y-13804699D01*
X9812090Y-13814223D01*
X9802566Y-13823747D01*
X9793042Y-13842795D01*
X9793042Y-13890414D01*
X9802566Y-13909461D01*
X9812090Y-13918985D01*
X9831137Y-13928509D01*
X9869232Y-13928509D01*
X9888280Y-13918985D01*
X9897804Y-13909461D01*
X9907328Y-13890414D01*
X10078756Y-13871366D02*
X10078756Y-14004699D01*
X10031137Y-13795176D02*
X9983518Y-13938033D01*
X10107328Y-13938033D01*
X10173994Y-13804699D02*
X10173994Y-13842795D01*
X10250185Y-13804699D02*
X10250185Y-13842795D01*
X10545423Y-14080890D02*
X10535899Y-14071366D01*
X10516852Y-14042795D01*
X10507328Y-14023747D01*
X10497804Y-13995176D01*
X10488280Y-13947557D01*
X10488280Y-13909461D01*
X10497804Y-13861842D01*
X10507328Y-13833271D01*
X10516852Y-13814223D01*
X10535899Y-13785652D01*
X10545423Y-13776128D01*
X10612090Y-13823747D02*
X10621613Y-13814223D01*
X10640661Y-13804699D01*
X10688280Y-13804699D01*
X10707328Y-13814223D01*
X10716852Y-13823747D01*
X10726375Y-13842795D01*
X10726375Y-13861842D01*
X10716852Y-13890414D01*
X10602566Y-14004699D01*
X10726375Y-14004699D01*
X10897804Y-13871366D02*
X10897804Y-14004699D01*
X10850185Y-13795176D02*
X10802566Y-13938033D01*
X10926375Y-13938033D01*
X11154947Y-14004699D02*
X11154947Y-13804699D01*
X11240661Y-14004699D02*
X11240661Y-13899937D01*
X11231137Y-13880890D01*
X11212090Y-13871366D01*
X11183518Y-13871366D01*
X11164471Y-13880890D01*
X11154947Y-13890414D01*
X11364470Y-14004699D02*
X11345423Y-13995176D01*
X11335899Y-13985652D01*
X11326375Y-13966604D01*
X11326375Y-13909461D01*
X11335899Y-13890414D01*
X11345423Y-13880890D01*
X11364470Y-13871366D01*
X11393042Y-13871366D01*
X11412090Y-13880890D01*
X11421613Y-13890414D01*
X11431137Y-13909461D01*
X11431137Y-13966604D01*
X11421613Y-13985652D01*
X11412090Y-13995176D01*
X11393042Y-14004699D01*
X11364470Y-14004699D01*
X11545423Y-14004699D02*
X11526375Y-13995176D01*
X11516851Y-13976128D01*
X11516851Y-13804699D01*
X11697804Y-13995176D02*
X11678756Y-14004699D01*
X11640661Y-14004699D01*
X11621613Y-13995176D01*
X11612090Y-13976128D01*
X11612090Y-13899937D01*
X11621613Y-13880890D01*
X11640661Y-13871366D01*
X11678756Y-13871366D01*
X11697804Y-13880890D01*
X11707328Y-13899937D01*
X11707328Y-13918985D01*
X11612090Y-13938033D01*
X11783518Y-13995176D02*
X11802566Y-14004699D01*
X11840661Y-14004699D01*
X11859709Y-13995176D01*
X11869232Y-13976128D01*
X11869232Y-13966604D01*
X11859709Y-13947557D01*
X11840661Y-13938033D01*
X11812090Y-13938033D01*
X11793042Y-13928509D01*
X11783518Y-13909461D01*
X11783518Y-13899937D01*
X11793042Y-13880890D01*
X11812090Y-13871366D01*
X11840661Y-13871366D01*
X11859709Y-13880890D01*
X12107328Y-13928509D02*
X12259709Y-13928509D01*
X12183518Y-14004699D02*
X12183518Y-13852318D01*
X12612090Y-14004699D02*
X12497804Y-14004699D01*
X12554947Y-14004699D02*
X12554947Y-13804699D01*
X12535899Y-13833271D01*
X12516851Y-13852318D01*
X12497804Y-13861842D01*
X12840661Y-13995176D02*
X12859709Y-14004699D01*
X12897804Y-14004699D01*
X12916851Y-13995176D01*
X12926375Y-13976128D01*
X12926375Y-13966604D01*
X12916851Y-13947557D01*
X12897804Y-13938033D01*
X12869232Y-13938033D01*
X12850185Y-13928509D01*
X12840661Y-13909461D01*
X12840661Y-13899937D01*
X12850185Y-13880890D01*
X12869232Y-13871366D01*
X12897804Y-13871366D01*
X12916851Y-13880890D01*
X13040661Y-14004699D02*
X13021613Y-13995176D01*
X13012090Y-13976128D01*
X13012090Y-13804699D01*
X13145423Y-14004699D02*
X13126375Y-13995176D01*
X13116851Y-13985652D01*
X13107328Y-13966604D01*
X13107328Y-13909461D01*
X13116851Y-13890414D01*
X13126375Y-13880890D01*
X13145423Y-13871366D01*
X13173994Y-13871366D01*
X13193042Y-13880890D01*
X13202566Y-13890414D01*
X13212090Y-13909461D01*
X13212090Y-13966604D01*
X13202566Y-13985652D01*
X13193042Y-13995176D01*
X13173994Y-14004699D01*
X13145423Y-14004699D01*
X13269232Y-13871366D02*
X13345423Y-13871366D01*
X13297804Y-13804699D02*
X13297804Y-13976128D01*
X13307328Y-13995176D01*
X13326375Y-14004699D01*
X13345423Y-14004699D01*
X13393042Y-14080890D02*
X13402566Y-14071366D01*
X13421613Y-14042795D01*
X13431137Y-14023747D01*
X13440661Y-13995176D01*
X13450185Y-13947557D01*
X13450185Y-13909461D01*
X13440661Y-13861842D01*
X13431137Y-13833271D01*
X13421613Y-13814223D01*
X13402566Y-13785652D01*
X13393042Y-13776128D01*
D17*
X6871918Y-14127423D02*
X6973518Y-14229023D01*
X6973518Y-14127423D02*
X6871918Y-14229023D01*
X6973518Y-14178223D02*
G75*
G03*
X6973518Y-14178223I-50800J0D01*
G01*
D11*
X7335899Y-14268699D02*
X7221613Y-14268699D01*
X7278756Y-14268699D02*
X7278756Y-14068699D01*
X7259709Y-14097271D01*
X7240661Y-14116318D01*
X7221613Y-14125842D01*
X7421613Y-14249652D02*
X7431137Y-14259176D01*
X7421613Y-14268699D01*
X7412090Y-14259176D01*
X7421613Y-14249652D01*
X7421613Y-14268699D01*
X7554947Y-14068699D02*
X7573994Y-14068699D01*
X7593042Y-14078223D01*
X7602566Y-14087747D01*
X7612090Y-14106795D01*
X7621613Y-14144890D01*
X7621613Y-14192509D01*
X7612090Y-14230604D01*
X7602566Y-14249652D01*
X7593042Y-14259176D01*
X7573994Y-14268699D01*
X7554947Y-14268699D01*
X7535899Y-14259176D01*
X7526375Y-14249652D01*
X7516851Y-14230604D01*
X7507328Y-14192509D01*
X7507328Y-14144890D01*
X7516851Y-14106795D01*
X7526375Y-14087747D01*
X7535899Y-14078223D01*
X7554947Y-14068699D01*
X7812090Y-14268699D02*
X7697804Y-14268699D01*
X7754947Y-14268699D02*
X7754947Y-14068699D01*
X7735899Y-14097271D01*
X7716851Y-14116318D01*
X7697804Y-14125842D01*
X7983518Y-14068699D02*
X7945423Y-14068699D01*
X7926375Y-14078223D01*
X7916851Y-14087747D01*
X7897804Y-14116318D01*
X7888280Y-14154414D01*
X7888280Y-14230604D01*
X7897804Y-14249652D01*
X7907328Y-14259176D01*
X7926375Y-14268699D01*
X7964470Y-14268699D01*
X7983518Y-14259176D01*
X7993042Y-14249652D01*
X8002566Y-14230604D01*
X8002566Y-14182985D01*
X7993042Y-14163937D01*
X7983518Y-14154414D01*
X7964470Y-14144890D01*
X7926375Y-14144890D01*
X7907328Y-14154414D01*
X7897804Y-14163937D01*
X7888280Y-14182985D01*
X8088280Y-14268699D02*
X8088280Y-14135366D01*
X8088280Y-14154414D02*
X8097804Y-14144890D01*
X8116851Y-14135366D01*
X8145423Y-14135366D01*
X8164470Y-14144890D01*
X8173994Y-14163937D01*
X8173994Y-14268699D01*
X8173994Y-14163937D02*
X8183518Y-14144890D01*
X8202566Y-14135366D01*
X8231137Y-14135366D01*
X8250185Y-14144890D01*
X8259709Y-14163937D01*
X8259709Y-14268699D01*
X8354947Y-14268699D02*
X8354947Y-14135366D01*
X8354947Y-14154414D02*
X8364470Y-14144890D01*
X8383518Y-14135366D01*
X8412090Y-14135366D01*
X8431137Y-14144890D01*
X8440661Y-14163937D01*
X8440661Y-14268699D01*
X8440661Y-14163937D02*
X8450185Y-14144890D01*
X8469232Y-14135366D01*
X8497804Y-14135366D01*
X8516852Y-14144890D01*
X8526375Y-14163937D01*
X8526375Y-14268699D01*
X8916852Y-14059176D02*
X8745423Y-14316318D01*
X9173994Y-14068699D02*
X9193042Y-14068699D01*
X9212090Y-14078223D01*
X9221613Y-14087747D01*
X9231137Y-14106795D01*
X9240661Y-14144890D01*
X9240661Y-14192509D01*
X9231137Y-14230604D01*
X9221613Y-14249652D01*
X9212090Y-14259176D01*
X9193042Y-14268699D01*
X9173994Y-14268699D01*
X9154947Y-14259176D01*
X9145423Y-14249652D01*
X9135899Y-14230604D01*
X9126375Y-14192509D01*
X9126375Y-14144890D01*
X9135899Y-14106795D01*
X9145423Y-14087747D01*
X9154947Y-14078223D01*
X9173994Y-14068699D01*
X9326375Y-14249652D02*
X9335899Y-14259176D01*
X9326375Y-14268699D01*
X9316852Y-14259176D01*
X9326375Y-14249652D01*
X9326375Y-14268699D01*
X9459709Y-14068699D02*
X9478756Y-14068699D01*
X9497804Y-14078223D01*
X9507328Y-14087747D01*
X9516852Y-14106795D01*
X9526375Y-14144890D01*
X9526375Y-14192509D01*
X9516852Y-14230604D01*
X9507328Y-14249652D01*
X9497804Y-14259176D01*
X9478756Y-14268699D01*
X9459709Y-14268699D01*
X9440661Y-14259176D01*
X9431137Y-14249652D01*
X9421613Y-14230604D01*
X9412090Y-14192509D01*
X9412090Y-14144890D01*
X9421613Y-14106795D01*
X9431137Y-14087747D01*
X9440661Y-14078223D01*
X9459709Y-14068699D01*
X9697804Y-14135366D02*
X9697804Y-14268699D01*
X9650185Y-14059176D02*
X9602566Y-14202033D01*
X9726375Y-14202033D01*
X9840661Y-14068699D02*
X9859709Y-14068699D01*
X9878756Y-14078223D01*
X9888280Y-14087747D01*
X9897804Y-14106795D01*
X9907328Y-14144890D01*
X9907328Y-14192509D01*
X9897804Y-14230604D01*
X9888280Y-14249652D01*
X9878756Y-14259176D01*
X9859709Y-14268699D01*
X9840661Y-14268699D01*
X9821613Y-14259176D01*
X9812090Y-14249652D01*
X9802566Y-14230604D01*
X9793042Y-14192509D01*
X9793042Y-14144890D01*
X9802566Y-14106795D01*
X9812090Y-14087747D01*
X9821613Y-14078223D01*
X9840661Y-14068699D01*
X10031137Y-14068699D02*
X10050185Y-14068699D01*
X10069232Y-14078223D01*
X10078756Y-14087747D01*
X10088280Y-14106795D01*
X10097804Y-14144890D01*
X10097804Y-14192509D01*
X10088280Y-14230604D01*
X10078756Y-14249652D01*
X10069232Y-14259176D01*
X10050185Y-14268699D01*
X10031137Y-14268699D01*
X10012090Y-14259176D01*
X10002566Y-14249652D01*
X9993042Y-14230604D01*
X9983518Y-14192509D01*
X9983518Y-14144890D01*
X9993042Y-14106795D01*
X10002566Y-14087747D01*
X10012090Y-14078223D01*
X10031137Y-14068699D01*
X10173994Y-14068699D02*
X10173994Y-14106795D01*
X10250185Y-14068699D02*
X10250185Y-14106795D01*
X10545423Y-14344890D02*
X10535899Y-14335366D01*
X10516852Y-14306795D01*
X10507328Y-14287747D01*
X10497804Y-14259176D01*
X10488280Y-14211557D01*
X10488280Y-14173461D01*
X10497804Y-14125842D01*
X10507328Y-14097271D01*
X10516852Y-14078223D01*
X10535899Y-14049652D01*
X10545423Y-14040128D01*
X10707328Y-14068699D02*
X10669232Y-14068699D01*
X10650185Y-14078223D01*
X10640661Y-14087747D01*
X10621613Y-14116318D01*
X10612090Y-14154414D01*
X10612090Y-14230604D01*
X10621613Y-14249652D01*
X10631137Y-14259176D01*
X10650185Y-14268699D01*
X10688280Y-14268699D01*
X10707328Y-14259176D01*
X10716852Y-14249652D01*
X10726375Y-14230604D01*
X10726375Y-14182985D01*
X10716852Y-14163937D01*
X10707328Y-14154414D01*
X10688280Y-14144890D01*
X10650185Y-14144890D01*
X10631137Y-14154414D01*
X10621613Y-14163937D01*
X10612090Y-14182985D01*
X10821613Y-14268699D02*
X10859709Y-14268699D01*
X10878756Y-14259176D01*
X10888280Y-14249652D01*
X10907328Y-14221080D01*
X10916852Y-14182985D01*
X10916852Y-14106795D01*
X10907328Y-14087747D01*
X10897804Y-14078223D01*
X10878756Y-14068699D01*
X10840661Y-14068699D01*
X10821613Y-14078223D01*
X10812090Y-14087747D01*
X10802566Y-14106795D01*
X10802566Y-14154414D01*
X10812090Y-14173461D01*
X10821613Y-14182985D01*
X10840661Y-14192509D01*
X10878756Y-14192509D01*
X10897804Y-14182985D01*
X10907328Y-14173461D01*
X10916852Y-14154414D01*
X11154947Y-14268699D02*
X11154947Y-14068699D01*
X11240661Y-14268699D02*
X11240661Y-14163937D01*
X11231137Y-14144890D01*
X11212090Y-14135366D01*
X11183518Y-14135366D01*
X11164471Y-14144890D01*
X11154947Y-14154414D01*
X11364470Y-14268699D02*
X11345423Y-14259176D01*
X11335899Y-14249652D01*
X11326375Y-14230604D01*
X11326375Y-14173461D01*
X11335899Y-14154414D01*
X11345423Y-14144890D01*
X11364470Y-14135366D01*
X11393042Y-14135366D01*
X11412090Y-14144890D01*
X11421613Y-14154414D01*
X11431137Y-14173461D01*
X11431137Y-14230604D01*
X11421613Y-14249652D01*
X11412090Y-14259176D01*
X11393042Y-14268699D01*
X11364470Y-14268699D01*
X11545423Y-14268699D02*
X11526375Y-14259176D01*
X11516851Y-14240128D01*
X11516851Y-14068699D01*
X11697804Y-14259176D02*
X11678756Y-14268699D01*
X11640661Y-14268699D01*
X11621613Y-14259176D01*
X11612090Y-14240128D01*
X11612090Y-14163937D01*
X11621613Y-14144890D01*
X11640661Y-14135366D01*
X11678756Y-14135366D01*
X11697804Y-14144890D01*
X11707328Y-14163937D01*
X11707328Y-14182985D01*
X11612090Y-14202033D01*
X11783518Y-14259176D02*
X11802566Y-14268699D01*
X11840661Y-14268699D01*
X11859709Y-14259176D01*
X11869232Y-14240128D01*
X11869232Y-14230604D01*
X11859709Y-14211557D01*
X11840661Y-14202033D01*
X11812090Y-14202033D01*
X11793042Y-14192509D01*
X11783518Y-14173461D01*
X11783518Y-14163937D01*
X11793042Y-14144890D01*
X11812090Y-14135366D01*
X11840661Y-14135366D01*
X11859709Y-14144890D01*
X11935899Y-14344890D02*
X11945423Y-14335366D01*
X11964470Y-14306795D01*
X11973994Y-14287747D01*
X11983518Y-14259176D01*
X11993042Y-14211557D01*
X11993042Y-14173461D01*
X11983518Y-14125842D01*
X11973994Y-14097271D01*
X11964470Y-14078223D01*
X11945423Y-14049652D01*
X11935899Y-14040128D01*
D18*
X6869518Y-14390223D02*
X6973518Y-14494223D01*
X6973518Y-14390223D02*
X6869518Y-14494223D01*
X6921518Y-14390223D02*
X6921518Y-14494223D01*
X6869518Y-14442223D02*
X6973518Y-14442223D01*
D11*
X7335899Y-14532699D02*
X7221613Y-14532699D01*
X7278756Y-14532699D02*
X7278756Y-14332699D01*
X7259709Y-14361271D01*
X7240661Y-14380318D01*
X7221613Y-14389842D01*
X7421613Y-14513652D02*
X7431137Y-14523176D01*
X7421613Y-14532699D01*
X7412090Y-14523176D01*
X7421613Y-14513652D01*
X7421613Y-14532699D01*
X7554947Y-14332699D02*
X7573994Y-14332699D01*
X7593042Y-14342223D01*
X7602566Y-14351747D01*
X7612090Y-14370795D01*
X7621613Y-14408890D01*
X7621613Y-14456509D01*
X7612090Y-14494604D01*
X7602566Y-14513652D01*
X7593042Y-14523176D01*
X7573994Y-14532699D01*
X7554947Y-14532699D01*
X7535899Y-14523176D01*
X7526375Y-14513652D01*
X7516851Y-14494604D01*
X7507328Y-14456509D01*
X7507328Y-14408890D01*
X7516851Y-14370795D01*
X7526375Y-14351747D01*
X7535899Y-14342223D01*
X7554947Y-14332699D01*
X7793042Y-14399366D02*
X7793042Y-14532699D01*
X7745423Y-14323176D02*
X7697804Y-14466033D01*
X7821613Y-14466033D01*
X7935899Y-14332699D02*
X7954947Y-14332699D01*
X7973994Y-14342223D01*
X7983518Y-14351747D01*
X7993042Y-14370795D01*
X8002566Y-14408890D01*
X8002566Y-14456509D01*
X7993042Y-14494604D01*
X7983518Y-14513652D01*
X7973994Y-14523176D01*
X7954947Y-14532699D01*
X7935899Y-14532699D01*
X7916851Y-14523176D01*
X7907328Y-14513652D01*
X7897804Y-14494604D01*
X7888280Y-14456509D01*
X7888280Y-14408890D01*
X7897804Y-14370795D01*
X7907328Y-14351747D01*
X7916851Y-14342223D01*
X7935899Y-14332699D01*
X8088280Y-14532699D02*
X8088280Y-14399366D01*
X8088280Y-14418414D02*
X8097804Y-14408890D01*
X8116851Y-14399366D01*
X8145423Y-14399366D01*
X8164470Y-14408890D01*
X8173994Y-14427937D01*
X8173994Y-14532699D01*
X8173994Y-14427937D02*
X8183518Y-14408890D01*
X8202566Y-14399366D01*
X8231137Y-14399366D01*
X8250185Y-14408890D01*
X8259709Y-14427937D01*
X8259709Y-14532699D01*
X8354947Y-14532699D02*
X8354947Y-14399366D01*
X8354947Y-14418414D02*
X8364470Y-14408890D01*
X8383518Y-14399366D01*
X8412090Y-14399366D01*
X8431137Y-14408890D01*
X8440661Y-14427937D01*
X8440661Y-14532699D01*
X8440661Y-14427937D02*
X8450185Y-14408890D01*
X8469232Y-14399366D01*
X8497804Y-14399366D01*
X8516852Y-14408890D01*
X8526375Y-14427937D01*
X8526375Y-14532699D01*
X8916852Y-14323176D02*
X8745423Y-14580318D01*
X9173994Y-14332699D02*
X9193042Y-14332699D01*
X9212090Y-14342223D01*
X9221613Y-14351747D01*
X9231137Y-14370795D01*
X9240661Y-14408890D01*
X9240661Y-14456509D01*
X9231137Y-14494604D01*
X9221613Y-14513652D01*
X9212090Y-14523176D01*
X9193042Y-14532699D01*
X9173994Y-14532699D01*
X9154947Y-14523176D01*
X9145423Y-14513652D01*
X9135899Y-14494604D01*
X9126375Y-14456509D01*
X9126375Y-14408890D01*
X9135899Y-14370795D01*
X9145423Y-14351747D01*
X9154947Y-14342223D01*
X9173994Y-14332699D01*
X9326375Y-14513652D02*
X9335899Y-14523176D01*
X9326375Y-14532699D01*
X9316852Y-14523176D01*
X9326375Y-14513652D01*
X9326375Y-14532699D01*
X9459709Y-14332699D02*
X9478756Y-14332699D01*
X9497804Y-14342223D01*
X9507328Y-14351747D01*
X9516852Y-14370795D01*
X9526375Y-14408890D01*
X9526375Y-14456509D01*
X9516852Y-14494604D01*
X9507328Y-14513652D01*
X9497804Y-14523176D01*
X9478756Y-14532699D01*
X9459709Y-14532699D01*
X9440661Y-14523176D01*
X9431137Y-14513652D01*
X9421613Y-14494604D01*
X9412090Y-14456509D01*
X9412090Y-14408890D01*
X9421613Y-14370795D01*
X9431137Y-14351747D01*
X9440661Y-14342223D01*
X9459709Y-14332699D01*
X9697804Y-14399366D02*
X9697804Y-14532699D01*
X9650185Y-14323176D02*
X9602566Y-14466033D01*
X9726375Y-14466033D01*
X9840661Y-14332699D02*
X9859709Y-14332699D01*
X9878756Y-14342223D01*
X9888280Y-14351747D01*
X9897804Y-14370795D01*
X9907328Y-14408890D01*
X9907328Y-14456509D01*
X9897804Y-14494604D01*
X9888280Y-14513652D01*
X9878756Y-14523176D01*
X9859709Y-14532699D01*
X9840661Y-14532699D01*
X9821613Y-14523176D01*
X9812090Y-14513652D01*
X9802566Y-14494604D01*
X9793042Y-14456509D01*
X9793042Y-14408890D01*
X9802566Y-14370795D01*
X9812090Y-14351747D01*
X9821613Y-14342223D01*
X9840661Y-14332699D01*
X10002566Y-14532699D02*
X10040661Y-14532699D01*
X10059709Y-14523176D01*
X10069232Y-14513652D01*
X10088280Y-14485080D01*
X10097804Y-14446985D01*
X10097804Y-14370795D01*
X10088280Y-14351747D01*
X10078756Y-14342223D01*
X10059709Y-14332699D01*
X10021613Y-14332699D01*
X10002566Y-14342223D01*
X9993042Y-14351747D01*
X9983518Y-14370795D01*
X9983518Y-14418414D01*
X9993042Y-14437461D01*
X10002566Y-14446985D01*
X10021613Y-14456509D01*
X10059709Y-14456509D01*
X10078756Y-14446985D01*
X10088280Y-14437461D01*
X10097804Y-14418414D01*
X10173994Y-14332699D02*
X10173994Y-14370795D01*
X10250185Y-14332699D02*
X10250185Y-14370795D01*
X10545423Y-14608890D02*
X10535899Y-14599366D01*
X10516852Y-14570795D01*
X10507328Y-14551747D01*
X10497804Y-14523176D01*
X10488280Y-14475557D01*
X10488280Y-14437461D01*
X10497804Y-14389842D01*
X10507328Y-14361271D01*
X10516852Y-14342223D01*
X10535899Y-14313652D01*
X10545423Y-14304128D01*
X10602566Y-14332699D02*
X10726375Y-14332699D01*
X10659709Y-14408890D01*
X10688280Y-14408890D01*
X10707328Y-14418414D01*
X10716852Y-14427937D01*
X10726375Y-14446985D01*
X10726375Y-14494604D01*
X10716852Y-14513652D01*
X10707328Y-14523176D01*
X10688280Y-14532699D01*
X10631137Y-14532699D01*
X10612090Y-14523176D01*
X10602566Y-14513652D01*
X10840661Y-14418414D02*
X10821613Y-14408890D01*
X10812090Y-14399366D01*
X10802566Y-14380318D01*
X10802566Y-14370795D01*
X10812090Y-14351747D01*
X10821613Y-14342223D01*
X10840661Y-14332699D01*
X10878756Y-14332699D01*
X10897804Y-14342223D01*
X10907328Y-14351747D01*
X10916852Y-14370795D01*
X10916852Y-14380318D01*
X10907328Y-14399366D01*
X10897804Y-14408890D01*
X10878756Y-14418414D01*
X10840661Y-14418414D01*
X10821613Y-14427937D01*
X10812090Y-14437461D01*
X10802566Y-14456509D01*
X10802566Y-14494604D01*
X10812090Y-14513652D01*
X10821613Y-14523176D01*
X10840661Y-14532699D01*
X10878756Y-14532699D01*
X10897804Y-14523176D01*
X10907328Y-14513652D01*
X10916852Y-14494604D01*
X10916852Y-14456509D01*
X10907328Y-14437461D01*
X10897804Y-14427937D01*
X10878756Y-14418414D01*
X11154947Y-14532699D02*
X11154947Y-14332699D01*
X11240661Y-14532699D02*
X11240661Y-14427937D01*
X11231137Y-14408890D01*
X11212090Y-14399366D01*
X11183518Y-14399366D01*
X11164471Y-14408890D01*
X11154947Y-14418414D01*
X11364470Y-14532699D02*
X11345423Y-14523176D01*
X11335899Y-14513652D01*
X11326375Y-14494604D01*
X11326375Y-14437461D01*
X11335899Y-14418414D01*
X11345423Y-14408890D01*
X11364470Y-14399366D01*
X11393042Y-14399366D01*
X11412090Y-14408890D01*
X11421613Y-14418414D01*
X11431137Y-14437461D01*
X11431137Y-14494604D01*
X11421613Y-14513652D01*
X11412090Y-14523176D01*
X11393042Y-14532699D01*
X11364470Y-14532699D01*
X11545423Y-14532699D02*
X11526375Y-14523176D01*
X11516851Y-14504128D01*
X11516851Y-14332699D01*
X11697804Y-14523176D02*
X11678756Y-14532699D01*
X11640661Y-14532699D01*
X11621613Y-14523176D01*
X11612090Y-14504128D01*
X11612090Y-14427937D01*
X11621613Y-14408890D01*
X11640661Y-14399366D01*
X11678756Y-14399366D01*
X11697804Y-14408890D01*
X11707328Y-14427937D01*
X11707328Y-14446985D01*
X11612090Y-14466033D01*
X11783518Y-14523176D02*
X11802566Y-14532699D01*
X11840661Y-14532699D01*
X11859709Y-14523176D01*
X11869232Y-14504128D01*
X11869232Y-14494604D01*
X11859709Y-14475557D01*
X11840661Y-14466033D01*
X11812090Y-14466033D01*
X11793042Y-14456509D01*
X11783518Y-14437461D01*
X11783518Y-14427937D01*
X11793042Y-14408890D01*
X11812090Y-14399366D01*
X11840661Y-14399366D01*
X11859709Y-14408890D01*
X11935899Y-14608890D02*
X11945423Y-14599366D01*
X11964470Y-14570795D01*
X11973994Y-14551747D01*
X11983518Y-14523176D01*
X11993042Y-14475557D01*
X11993042Y-14437461D01*
X11983518Y-14389842D01*
X11973994Y-14361271D01*
X11964470Y-14342223D01*
X11945423Y-14313652D01*
X11935899Y-14304128D01*
D19*
X6863518Y-14651223D02*
X6973518Y-14761223D01*
X6973518Y-14651223D02*
X6863518Y-14761223D01*
X6957409Y-14745114D02*
X6957409Y-14667332D01*
X6879627Y-14667332D01*
X6879627Y-14745114D01*
X6957409Y-14745114D01*
D11*
X7335899Y-14796699D02*
X7221613Y-14796699D01*
X7278756Y-14796699D02*
X7278756Y-14596699D01*
X7259709Y-14625271D01*
X7240661Y-14644318D01*
X7221613Y-14653842D01*
X7421613Y-14777652D02*
X7431137Y-14787176D01*
X7421613Y-14796699D01*
X7412090Y-14787176D01*
X7421613Y-14777652D01*
X7421613Y-14796699D01*
X7621613Y-14796699D02*
X7507328Y-14796699D01*
X7564470Y-14796699D02*
X7564470Y-14596699D01*
X7545423Y-14625271D01*
X7526375Y-14644318D01*
X7507328Y-14653842D01*
X7745423Y-14596699D02*
X7764470Y-14596699D01*
X7783518Y-14606223D01*
X7793042Y-14615747D01*
X7802566Y-14634795D01*
X7812090Y-14672890D01*
X7812090Y-14720509D01*
X7802566Y-14758604D01*
X7793042Y-14777652D01*
X7783518Y-14787176D01*
X7764470Y-14796699D01*
X7745423Y-14796699D01*
X7726375Y-14787176D01*
X7716851Y-14777652D01*
X7707328Y-14758604D01*
X7697804Y-14720509D01*
X7697804Y-14672890D01*
X7707328Y-14634795D01*
X7716851Y-14615747D01*
X7726375Y-14606223D01*
X7745423Y-14596699D01*
X7935899Y-14596699D02*
X7954947Y-14596699D01*
X7973994Y-14606223D01*
X7983518Y-14615747D01*
X7993042Y-14634795D01*
X8002566Y-14672890D01*
X8002566Y-14720509D01*
X7993042Y-14758604D01*
X7983518Y-14777652D01*
X7973994Y-14787176D01*
X7954947Y-14796699D01*
X7935899Y-14796699D01*
X7916851Y-14787176D01*
X7907328Y-14777652D01*
X7897804Y-14758604D01*
X7888280Y-14720509D01*
X7888280Y-14672890D01*
X7897804Y-14634795D01*
X7907328Y-14615747D01*
X7916851Y-14606223D01*
X7935899Y-14596699D01*
X8088280Y-14796699D02*
X8088280Y-14663366D01*
X8088280Y-14682414D02*
X8097804Y-14672890D01*
X8116851Y-14663366D01*
X8145423Y-14663366D01*
X8164470Y-14672890D01*
X8173994Y-14691937D01*
X8173994Y-14796699D01*
X8173994Y-14691937D02*
X8183518Y-14672890D01*
X8202566Y-14663366D01*
X8231137Y-14663366D01*
X8250185Y-14672890D01*
X8259709Y-14691937D01*
X8259709Y-14796699D01*
X8354947Y-14796699D02*
X8354947Y-14663366D01*
X8354947Y-14682414D02*
X8364470Y-14672890D01*
X8383518Y-14663366D01*
X8412090Y-14663366D01*
X8431137Y-14672890D01*
X8440661Y-14691937D01*
X8440661Y-14796699D01*
X8440661Y-14691937D02*
X8450185Y-14672890D01*
X8469232Y-14663366D01*
X8497804Y-14663366D01*
X8516852Y-14672890D01*
X8526375Y-14691937D01*
X8526375Y-14796699D01*
X8916852Y-14587176D02*
X8745423Y-14844318D01*
X9173994Y-14596699D02*
X9193042Y-14596699D01*
X9212090Y-14606223D01*
X9221613Y-14615747D01*
X9231137Y-14634795D01*
X9240661Y-14672890D01*
X9240661Y-14720509D01*
X9231137Y-14758604D01*
X9221613Y-14777652D01*
X9212090Y-14787176D01*
X9193042Y-14796699D01*
X9173994Y-14796699D01*
X9154947Y-14787176D01*
X9145423Y-14777652D01*
X9135899Y-14758604D01*
X9126375Y-14720509D01*
X9126375Y-14672890D01*
X9135899Y-14634795D01*
X9145423Y-14615747D01*
X9154947Y-14606223D01*
X9173994Y-14596699D01*
X9326375Y-14777652D02*
X9335899Y-14787176D01*
X9326375Y-14796699D01*
X9316852Y-14787176D01*
X9326375Y-14777652D01*
X9326375Y-14796699D01*
X9459709Y-14596699D02*
X9478756Y-14596699D01*
X9497804Y-14606223D01*
X9507328Y-14615747D01*
X9516852Y-14634795D01*
X9526375Y-14672890D01*
X9526375Y-14720509D01*
X9516852Y-14758604D01*
X9507328Y-14777652D01*
X9497804Y-14787176D01*
X9478756Y-14796699D01*
X9459709Y-14796699D01*
X9440661Y-14787176D01*
X9431137Y-14777652D01*
X9421613Y-14758604D01*
X9412090Y-14720509D01*
X9412090Y-14672890D01*
X9421613Y-14634795D01*
X9431137Y-14615747D01*
X9440661Y-14606223D01*
X9459709Y-14596699D01*
X9697804Y-14663366D02*
X9697804Y-14796699D01*
X9650185Y-14587176D02*
X9602566Y-14730033D01*
X9726375Y-14730033D01*
X9783518Y-14596699D02*
X9907328Y-14596699D01*
X9840661Y-14672890D01*
X9869232Y-14672890D01*
X9888280Y-14682414D01*
X9897804Y-14691937D01*
X9907328Y-14710985D01*
X9907328Y-14758604D01*
X9897804Y-14777652D01*
X9888280Y-14787176D01*
X9869232Y-14796699D01*
X9812090Y-14796699D01*
X9793042Y-14787176D01*
X9783518Y-14777652D01*
X9973994Y-14596699D02*
X10097804Y-14596699D01*
X10031137Y-14672890D01*
X10059709Y-14672890D01*
X10078756Y-14682414D01*
X10088280Y-14691937D01*
X10097804Y-14710985D01*
X10097804Y-14758604D01*
X10088280Y-14777652D01*
X10078756Y-14787176D01*
X10059709Y-14796699D01*
X10002566Y-14796699D01*
X9983518Y-14787176D01*
X9973994Y-14777652D01*
X10173994Y-14596699D02*
X10173994Y-14634795D01*
X10250185Y-14596699D02*
X10250185Y-14634795D01*
X10545423Y-14872890D02*
X10535899Y-14863366D01*
X10516852Y-14834795D01*
X10507328Y-14815747D01*
X10497804Y-14787176D01*
X10488280Y-14739557D01*
X10488280Y-14701461D01*
X10497804Y-14653842D01*
X10507328Y-14625271D01*
X10516852Y-14606223D01*
X10535899Y-14577652D01*
X10545423Y-14568128D01*
X10726375Y-14796699D02*
X10612090Y-14796699D01*
X10669232Y-14796699D02*
X10669232Y-14596699D01*
X10650185Y-14625271D01*
X10631137Y-14644318D01*
X10612090Y-14653842D01*
X10897804Y-14596699D02*
X10859709Y-14596699D01*
X10840661Y-14606223D01*
X10831137Y-14615747D01*
X10812090Y-14644318D01*
X10802566Y-14682414D01*
X10802566Y-14758604D01*
X10812090Y-14777652D01*
X10821613Y-14787176D01*
X10840661Y-14796699D01*
X10878756Y-14796699D01*
X10897804Y-14787176D01*
X10907328Y-14777652D01*
X10916852Y-14758604D01*
X10916852Y-14710985D01*
X10907328Y-14691937D01*
X10897804Y-14682414D01*
X10878756Y-14672890D01*
X10840661Y-14672890D01*
X10821613Y-14682414D01*
X10812090Y-14691937D01*
X10802566Y-14710985D01*
X11154947Y-14796699D02*
X11154947Y-14596699D01*
X11240661Y-14796699D02*
X11240661Y-14691937D01*
X11231137Y-14672890D01*
X11212090Y-14663366D01*
X11183518Y-14663366D01*
X11164471Y-14672890D01*
X11154947Y-14682414D01*
X11364470Y-14796699D02*
X11345423Y-14787176D01*
X11335899Y-14777652D01*
X11326375Y-14758604D01*
X11326375Y-14701461D01*
X11335899Y-14682414D01*
X11345423Y-14672890D01*
X11364470Y-14663366D01*
X11393042Y-14663366D01*
X11412090Y-14672890D01*
X11421613Y-14682414D01*
X11431137Y-14701461D01*
X11431137Y-14758604D01*
X11421613Y-14777652D01*
X11412090Y-14787176D01*
X11393042Y-14796699D01*
X11364470Y-14796699D01*
X11545423Y-14796699D02*
X11526375Y-14787176D01*
X11516851Y-14768128D01*
X11516851Y-14596699D01*
X11697804Y-14787176D02*
X11678756Y-14796699D01*
X11640661Y-14796699D01*
X11621613Y-14787176D01*
X11612090Y-14768128D01*
X11612090Y-14691937D01*
X11621613Y-14672890D01*
X11640661Y-14663366D01*
X11678756Y-14663366D01*
X11697804Y-14672890D01*
X11707328Y-14691937D01*
X11707328Y-14710985D01*
X11612090Y-14730033D01*
X11783518Y-14787176D02*
X11802566Y-14796699D01*
X11840661Y-14796699D01*
X11859709Y-14787176D01*
X11869232Y-14768128D01*
X11869232Y-14758604D01*
X11859709Y-14739557D01*
X11840661Y-14730033D01*
X11812090Y-14730033D01*
X11793042Y-14720509D01*
X11783518Y-14701461D01*
X11783518Y-14691937D01*
X11793042Y-14672890D01*
X11812090Y-14663366D01*
X11840661Y-14663366D01*
X11859709Y-14672890D01*
X11935899Y-14872890D02*
X11945423Y-14863366D01*
X11964470Y-14834795D01*
X11973994Y-14815747D01*
X11983518Y-14787176D01*
X11993042Y-14739557D01*
X11993042Y-14701461D01*
X11983518Y-14653842D01*
X11973994Y-14625271D01*
X11964470Y-14606223D01*
X11945423Y-14577652D01*
X11935899Y-14568128D01*
D20*
X6843518Y-14905223D02*
X6973518Y-15035223D01*
X6973518Y-14905223D02*
X6843518Y-15035223D01*
X6908518Y-15035223D02*
X6973518Y-14970223D01*
X6908518Y-14905223D01*
X6843518Y-14970223D01*
X6908518Y-15035223D01*
D11*
X7335899Y-15060699D02*
X7221613Y-15060699D01*
X7278756Y-15060699D02*
X7278756Y-14860699D01*
X7259709Y-14889271D01*
X7240661Y-14908318D01*
X7221613Y-14917842D01*
X7421613Y-15041652D02*
X7431137Y-15051176D01*
X7421613Y-15060699D01*
X7412090Y-15051176D01*
X7421613Y-15041652D01*
X7421613Y-15060699D01*
X7497804Y-14860699D02*
X7621613Y-14860699D01*
X7554947Y-14936890D01*
X7583518Y-14936890D01*
X7602566Y-14946414D01*
X7612090Y-14955937D01*
X7621613Y-14974985D01*
X7621613Y-15022604D01*
X7612090Y-15041652D01*
X7602566Y-15051176D01*
X7583518Y-15060699D01*
X7526375Y-15060699D01*
X7507328Y-15051176D01*
X7497804Y-15041652D01*
X7745423Y-14860699D02*
X7764470Y-14860699D01*
X7783518Y-14870223D01*
X7793042Y-14879747D01*
X7802566Y-14898795D01*
X7812090Y-14936890D01*
X7812090Y-14984509D01*
X7802566Y-15022604D01*
X7793042Y-15041652D01*
X7783518Y-15051176D01*
X7764470Y-15060699D01*
X7745423Y-15060699D01*
X7726375Y-15051176D01*
X7716851Y-15041652D01*
X7707328Y-15022604D01*
X7697804Y-14984509D01*
X7697804Y-14936890D01*
X7707328Y-14898795D01*
X7716851Y-14879747D01*
X7726375Y-14870223D01*
X7745423Y-14860699D01*
X7935899Y-14860699D02*
X7954947Y-14860699D01*
X7973994Y-14870223D01*
X7983518Y-14879747D01*
X7993042Y-14898795D01*
X8002566Y-14936890D01*
X8002566Y-14984509D01*
X7993042Y-15022604D01*
X7983518Y-15041652D01*
X7973994Y-15051176D01*
X7954947Y-15060699D01*
X7935899Y-15060699D01*
X7916851Y-15051176D01*
X7907328Y-15041652D01*
X7897804Y-15022604D01*
X7888280Y-14984509D01*
X7888280Y-14936890D01*
X7897804Y-14898795D01*
X7907328Y-14879747D01*
X7916851Y-14870223D01*
X7935899Y-14860699D01*
X8088280Y-15060699D02*
X8088280Y-14927366D01*
X8088280Y-14946414D02*
X8097804Y-14936890D01*
X8116851Y-14927366D01*
X8145423Y-14927366D01*
X8164470Y-14936890D01*
X8173994Y-14955937D01*
X8173994Y-15060699D01*
X8173994Y-14955937D02*
X8183518Y-14936890D01*
X8202566Y-14927366D01*
X8231137Y-14927366D01*
X8250185Y-14936890D01*
X8259709Y-14955937D01*
X8259709Y-15060699D01*
X8354947Y-15060699D02*
X8354947Y-14927366D01*
X8354947Y-14946414D02*
X8364470Y-14936890D01*
X8383518Y-14927366D01*
X8412090Y-14927366D01*
X8431137Y-14936890D01*
X8440661Y-14955937D01*
X8440661Y-15060699D01*
X8440661Y-14955937D02*
X8450185Y-14936890D01*
X8469232Y-14927366D01*
X8497804Y-14927366D01*
X8516852Y-14936890D01*
X8526375Y-14955937D01*
X8526375Y-15060699D01*
X8916852Y-14851176D02*
X8745423Y-15108318D01*
X9173994Y-14860699D02*
X9193042Y-14860699D01*
X9212090Y-14870223D01*
X9221613Y-14879747D01*
X9231137Y-14898795D01*
X9240661Y-14936890D01*
X9240661Y-14984509D01*
X9231137Y-15022604D01*
X9221613Y-15041652D01*
X9212090Y-15051176D01*
X9193042Y-15060699D01*
X9173994Y-15060699D01*
X9154947Y-15051176D01*
X9145423Y-15041652D01*
X9135899Y-15022604D01*
X9126375Y-14984509D01*
X9126375Y-14936890D01*
X9135899Y-14898795D01*
X9145423Y-14879747D01*
X9154947Y-14870223D01*
X9173994Y-14860699D01*
X9326375Y-15041652D02*
X9335899Y-15051176D01*
X9326375Y-15060699D01*
X9316852Y-15051176D01*
X9326375Y-15041652D01*
X9326375Y-15060699D01*
X9459709Y-14860699D02*
X9478756Y-14860699D01*
X9497804Y-14870223D01*
X9507328Y-14879747D01*
X9516852Y-14898795D01*
X9526375Y-14936890D01*
X9526375Y-14984509D01*
X9516852Y-15022604D01*
X9507328Y-15041652D01*
X9497804Y-15051176D01*
X9478756Y-15060699D01*
X9459709Y-15060699D01*
X9440661Y-15051176D01*
X9431137Y-15041652D01*
X9421613Y-15022604D01*
X9412090Y-14984509D01*
X9412090Y-14936890D01*
X9421613Y-14898795D01*
X9431137Y-14879747D01*
X9440661Y-14870223D01*
X9459709Y-14860699D01*
X9707328Y-14860699D02*
X9612090Y-14860699D01*
X9602566Y-14955937D01*
X9612090Y-14946414D01*
X9631137Y-14936890D01*
X9678756Y-14936890D01*
X9697804Y-14946414D01*
X9707328Y-14955937D01*
X9716852Y-14974985D01*
X9716852Y-15022604D01*
X9707328Y-15041652D01*
X9697804Y-15051176D01*
X9678756Y-15060699D01*
X9631137Y-15060699D01*
X9612090Y-15051176D01*
X9602566Y-15041652D01*
X9907328Y-15060699D02*
X9793042Y-15060699D01*
X9850185Y-15060699D02*
X9850185Y-14860699D01*
X9831137Y-14889271D01*
X9812090Y-14908318D01*
X9793042Y-14917842D01*
X9983518Y-14879747D02*
X9993042Y-14870223D01*
X10012090Y-14860699D01*
X10059709Y-14860699D01*
X10078756Y-14870223D01*
X10088280Y-14879747D01*
X10097804Y-14898795D01*
X10097804Y-14917842D01*
X10088280Y-14946414D01*
X9973994Y-15060699D01*
X10097804Y-15060699D01*
X10173994Y-14860699D02*
X10173994Y-14898795D01*
X10250185Y-14860699D02*
X10250185Y-14898795D01*
X10545423Y-15136890D02*
X10535899Y-15127366D01*
X10516852Y-15098795D01*
X10507328Y-15079747D01*
X10497804Y-15051176D01*
X10488280Y-15003557D01*
X10488280Y-14965461D01*
X10497804Y-14917842D01*
X10507328Y-14889271D01*
X10516852Y-14870223D01*
X10535899Y-14841652D01*
X10545423Y-14832128D01*
X10612090Y-14879747D02*
X10621613Y-14870223D01*
X10640661Y-14860699D01*
X10688280Y-14860699D01*
X10707328Y-14870223D01*
X10716852Y-14879747D01*
X10726375Y-14898795D01*
X10726375Y-14917842D01*
X10716852Y-14946414D01*
X10602566Y-15060699D01*
X10726375Y-15060699D01*
X10964471Y-15060699D02*
X10964471Y-14860699D01*
X11050185Y-15060699D02*
X11050185Y-14955937D01*
X11040661Y-14936890D01*
X11021613Y-14927366D01*
X10993042Y-14927366D01*
X10973994Y-14936890D01*
X10964471Y-14946414D01*
X11173994Y-15060699D02*
X11154947Y-15051176D01*
X11145423Y-15041652D01*
X11135899Y-15022604D01*
X11135899Y-14965461D01*
X11145423Y-14946414D01*
X11154947Y-14936890D01*
X11173994Y-14927366D01*
X11202566Y-14927366D01*
X11221613Y-14936890D01*
X11231137Y-14946414D01*
X11240661Y-14965461D01*
X11240661Y-15022604D01*
X11231137Y-15041652D01*
X11221613Y-15051176D01*
X11202566Y-15060699D01*
X11173994Y-15060699D01*
X11354947Y-15060699D02*
X11335899Y-15051176D01*
X11326375Y-15032128D01*
X11326375Y-14860699D01*
X11507328Y-15051176D02*
X11488280Y-15060699D01*
X11450185Y-15060699D01*
X11431137Y-15051176D01*
X11421613Y-15032128D01*
X11421613Y-14955937D01*
X11431137Y-14936890D01*
X11450185Y-14927366D01*
X11488280Y-14927366D01*
X11507328Y-14936890D01*
X11516851Y-14955937D01*
X11516851Y-14974985D01*
X11421613Y-14994033D01*
X11593042Y-15051176D02*
X11612090Y-15060699D01*
X11650185Y-15060699D01*
X11669232Y-15051176D01*
X11678756Y-15032128D01*
X11678756Y-15022604D01*
X11669232Y-15003557D01*
X11650185Y-14994033D01*
X11621613Y-14994033D01*
X11602566Y-14984509D01*
X11593042Y-14965461D01*
X11593042Y-14955937D01*
X11602566Y-14936890D01*
X11621613Y-14927366D01*
X11650185Y-14927366D01*
X11669232Y-14936890D01*
X11745423Y-15136890D02*
X11754947Y-15127366D01*
X11773994Y-15098795D01*
X11783518Y-15079747D01*
X11793042Y-15051176D01*
X11802566Y-15003557D01*
X11802566Y-14965461D01*
X11793042Y-14917842D01*
X11783518Y-14889271D01*
X11773994Y-14870223D01*
X11754947Y-14841652D01*
X11745423Y-14832128D01*
D21*
X6907518Y-15168223D02*
X6907518Y-15300223D01*
X6841518Y-15234223D02*
X6973518Y-15234223D01*
X6973518Y-15234223D02*
G75*
G03*
X6973518Y-15234223I-66000J0D01*
G01*
D11*
X7335899Y-15324699D02*
X7221613Y-15324699D01*
X7278756Y-15324699D02*
X7278756Y-15124699D01*
X7259709Y-15153271D01*
X7240661Y-15172318D01*
X7221613Y-15181842D01*
X7421613Y-15305652D02*
X7431137Y-15315176D01*
X7421613Y-15324699D01*
X7412090Y-15315176D01*
X7421613Y-15305652D01*
X7421613Y-15324699D01*
X7497804Y-15124699D02*
X7621613Y-15124699D01*
X7554947Y-15200890D01*
X7583518Y-15200890D01*
X7602566Y-15210414D01*
X7612090Y-15219937D01*
X7621613Y-15238985D01*
X7621613Y-15286604D01*
X7612090Y-15305652D01*
X7602566Y-15315176D01*
X7583518Y-15324699D01*
X7526375Y-15324699D01*
X7507328Y-15315176D01*
X7497804Y-15305652D01*
X7697804Y-15143747D02*
X7707328Y-15134223D01*
X7726375Y-15124699D01*
X7773994Y-15124699D01*
X7793042Y-15134223D01*
X7802566Y-15143747D01*
X7812090Y-15162795D01*
X7812090Y-15181842D01*
X7802566Y-15210414D01*
X7688280Y-15324699D01*
X7812090Y-15324699D01*
X7935899Y-15124699D02*
X7954947Y-15124699D01*
X7973994Y-15134223D01*
X7983518Y-15143747D01*
X7993042Y-15162795D01*
X8002566Y-15200890D01*
X8002566Y-15248509D01*
X7993042Y-15286604D01*
X7983518Y-15305652D01*
X7973994Y-15315176D01*
X7954947Y-15324699D01*
X7935899Y-15324699D01*
X7916851Y-15315176D01*
X7907328Y-15305652D01*
X7897804Y-15286604D01*
X7888280Y-15248509D01*
X7888280Y-15200890D01*
X7897804Y-15162795D01*
X7907328Y-15143747D01*
X7916851Y-15134223D01*
X7935899Y-15124699D01*
X8088280Y-15324699D02*
X8088280Y-15191366D01*
X8088280Y-15210414D02*
X8097804Y-15200890D01*
X8116851Y-15191366D01*
X8145423Y-15191366D01*
X8164470Y-15200890D01*
X8173994Y-15219937D01*
X8173994Y-15324699D01*
X8173994Y-15219937D02*
X8183518Y-15200890D01*
X8202566Y-15191366D01*
X8231137Y-15191366D01*
X8250185Y-15200890D01*
X8259709Y-15219937D01*
X8259709Y-15324699D01*
X8354947Y-15324699D02*
X8354947Y-15191366D01*
X8354947Y-15210414D02*
X8364470Y-15200890D01*
X8383518Y-15191366D01*
X8412090Y-15191366D01*
X8431137Y-15200890D01*
X8440661Y-15219937D01*
X8440661Y-15324699D01*
X8440661Y-15219937D02*
X8450185Y-15200890D01*
X8469232Y-15191366D01*
X8497804Y-15191366D01*
X8516852Y-15200890D01*
X8526375Y-15219937D01*
X8526375Y-15324699D01*
X8916852Y-15115176D02*
X8745423Y-15372318D01*
X9173994Y-15124699D02*
X9193042Y-15124699D01*
X9212090Y-15134223D01*
X9221613Y-15143747D01*
X9231137Y-15162795D01*
X9240661Y-15200890D01*
X9240661Y-15248509D01*
X9231137Y-15286604D01*
X9221613Y-15305652D01*
X9212090Y-15315176D01*
X9193042Y-15324699D01*
X9173994Y-15324699D01*
X9154947Y-15315176D01*
X9145423Y-15305652D01*
X9135899Y-15286604D01*
X9126375Y-15248509D01*
X9126375Y-15200890D01*
X9135899Y-15162795D01*
X9145423Y-15143747D01*
X9154947Y-15134223D01*
X9173994Y-15124699D01*
X9326375Y-15305652D02*
X9335899Y-15315176D01*
X9326375Y-15324699D01*
X9316852Y-15315176D01*
X9326375Y-15305652D01*
X9326375Y-15324699D01*
X9459709Y-15124699D02*
X9478756Y-15124699D01*
X9497804Y-15134223D01*
X9507328Y-15143747D01*
X9516852Y-15162795D01*
X9526375Y-15200890D01*
X9526375Y-15248509D01*
X9516852Y-15286604D01*
X9507328Y-15305652D01*
X9497804Y-15315176D01*
X9478756Y-15324699D01*
X9459709Y-15324699D01*
X9440661Y-15315176D01*
X9431137Y-15305652D01*
X9421613Y-15286604D01*
X9412090Y-15248509D01*
X9412090Y-15200890D01*
X9421613Y-15162795D01*
X9431137Y-15143747D01*
X9440661Y-15134223D01*
X9459709Y-15124699D01*
X9707328Y-15124699D02*
X9612090Y-15124699D01*
X9602566Y-15219937D01*
X9612090Y-15210414D01*
X9631137Y-15200890D01*
X9678756Y-15200890D01*
X9697804Y-15210414D01*
X9707328Y-15219937D01*
X9716852Y-15238985D01*
X9716852Y-15286604D01*
X9707328Y-15305652D01*
X9697804Y-15315176D01*
X9678756Y-15324699D01*
X9631137Y-15324699D01*
X9612090Y-15315176D01*
X9602566Y-15305652D01*
X9793042Y-15143747D02*
X9802566Y-15134223D01*
X9821613Y-15124699D01*
X9869232Y-15124699D01*
X9888280Y-15134223D01*
X9897804Y-15143747D01*
X9907328Y-15162795D01*
X9907328Y-15181842D01*
X9897804Y-15210414D01*
X9783518Y-15324699D01*
X9907328Y-15324699D01*
X10031137Y-15124699D02*
X10050185Y-15124699D01*
X10069232Y-15134223D01*
X10078756Y-15143747D01*
X10088280Y-15162795D01*
X10097804Y-15200890D01*
X10097804Y-15248509D01*
X10088280Y-15286604D01*
X10078756Y-15305652D01*
X10069232Y-15315176D01*
X10050185Y-15324699D01*
X10031137Y-15324699D01*
X10012090Y-15315176D01*
X10002566Y-15305652D01*
X9993042Y-15286604D01*
X9983518Y-15248509D01*
X9983518Y-15200890D01*
X9993042Y-15162795D01*
X10002566Y-15143747D01*
X10012090Y-15134223D01*
X10031137Y-15124699D01*
X10173994Y-15124699D02*
X10173994Y-15162795D01*
X10250185Y-15124699D02*
X10250185Y-15162795D01*
X10545423Y-15400890D02*
X10535899Y-15391366D01*
X10516852Y-15362795D01*
X10507328Y-15343747D01*
X10497804Y-15315176D01*
X10488280Y-15267557D01*
X10488280Y-15229461D01*
X10497804Y-15181842D01*
X10507328Y-15153271D01*
X10516852Y-15134223D01*
X10535899Y-15105652D01*
X10545423Y-15096128D01*
X10726375Y-15324699D02*
X10612090Y-15324699D01*
X10669232Y-15324699D02*
X10669232Y-15124699D01*
X10650185Y-15153271D01*
X10631137Y-15172318D01*
X10612090Y-15181842D01*
X10897804Y-15124699D02*
X10859709Y-15124699D01*
X10840661Y-15134223D01*
X10831137Y-15143747D01*
X10812090Y-15172318D01*
X10802566Y-15210414D01*
X10802566Y-15286604D01*
X10812090Y-15305652D01*
X10821613Y-15315176D01*
X10840661Y-15324699D01*
X10878756Y-15324699D01*
X10897804Y-15315176D01*
X10907328Y-15305652D01*
X10916852Y-15286604D01*
X10916852Y-15238985D01*
X10907328Y-15219937D01*
X10897804Y-15210414D01*
X10878756Y-15200890D01*
X10840661Y-15200890D01*
X10821613Y-15210414D01*
X10812090Y-15219937D01*
X10802566Y-15238985D01*
X11154947Y-15324699D02*
X11154947Y-15124699D01*
X11240661Y-15324699D02*
X11240661Y-15219937D01*
X11231137Y-15200890D01*
X11212090Y-15191366D01*
X11183518Y-15191366D01*
X11164471Y-15200890D01*
X11154947Y-15210414D01*
X11364470Y-15324699D02*
X11345423Y-15315176D01*
X11335899Y-15305652D01*
X11326375Y-15286604D01*
X11326375Y-15229461D01*
X11335899Y-15210414D01*
X11345423Y-15200890D01*
X11364470Y-15191366D01*
X11393042Y-15191366D01*
X11412090Y-15200890D01*
X11421613Y-15210414D01*
X11431137Y-15229461D01*
X11431137Y-15286604D01*
X11421613Y-15305652D01*
X11412090Y-15315176D01*
X11393042Y-15324699D01*
X11364470Y-15324699D01*
X11545423Y-15324699D02*
X11526375Y-15315176D01*
X11516851Y-15296128D01*
X11516851Y-15124699D01*
X11697804Y-15315176D02*
X11678756Y-15324699D01*
X11640661Y-15324699D01*
X11621613Y-15315176D01*
X11612090Y-15296128D01*
X11612090Y-15219937D01*
X11621613Y-15200890D01*
X11640661Y-15191366D01*
X11678756Y-15191366D01*
X11697804Y-15200890D01*
X11707328Y-15219937D01*
X11707328Y-15238985D01*
X11612090Y-15258033D01*
X11783518Y-15315176D02*
X11802566Y-15324699D01*
X11840661Y-15324699D01*
X11859709Y-15315176D01*
X11869232Y-15296128D01*
X11869232Y-15286604D01*
X11859709Y-15267557D01*
X11840661Y-15258033D01*
X11812090Y-15258033D01*
X11793042Y-15248509D01*
X11783518Y-15229461D01*
X11783518Y-15219937D01*
X11793042Y-15200890D01*
X11812090Y-15191366D01*
X11840661Y-15191366D01*
X11859709Y-15200890D01*
X11935899Y-15400890D02*
X11945423Y-15391366D01*
X11964470Y-15362795D01*
X11973994Y-15343747D01*
X11983518Y-15315176D01*
X11993042Y-15267557D01*
X11993042Y-15229461D01*
X11983518Y-15181842D01*
X11973994Y-15153271D01*
X11964470Y-15134223D01*
X11945423Y-15105652D01*
X11935899Y-15096128D01*
D22*
X6951259Y-15551964D02*
X6951259Y-15444483D01*
X6843778Y-15444483D01*
X6843778Y-15551964D01*
X6951259Y-15551964D01*
X6973518Y-15498223D02*
G75*
G03*
X6973518Y-15498223I-76000J0D01*
G01*
D11*
X7335899Y-15588699D02*
X7221613Y-15588699D01*
X7278756Y-15588699D02*
X7278756Y-15388699D01*
X7259709Y-15417271D01*
X7240661Y-15436318D01*
X7221613Y-15445842D01*
X7421613Y-15569652D02*
X7431137Y-15579176D01*
X7421613Y-15588699D01*
X7412090Y-15579176D01*
X7421613Y-15569652D01*
X7421613Y-15588699D01*
X7612090Y-15388699D02*
X7516851Y-15388699D01*
X7507328Y-15483937D01*
X7516851Y-15474414D01*
X7535899Y-15464890D01*
X7583518Y-15464890D01*
X7602566Y-15474414D01*
X7612090Y-15483937D01*
X7621613Y-15502985D01*
X7621613Y-15550604D01*
X7612090Y-15569652D01*
X7602566Y-15579176D01*
X7583518Y-15588699D01*
X7535899Y-15588699D01*
X7516851Y-15579176D01*
X7507328Y-15569652D01*
X7697804Y-15407747D02*
X7707328Y-15398223D01*
X7726375Y-15388699D01*
X7773994Y-15388699D01*
X7793042Y-15398223D01*
X7802566Y-15407747D01*
X7812090Y-15426795D01*
X7812090Y-15445842D01*
X7802566Y-15474414D01*
X7688280Y-15588699D01*
X7812090Y-15588699D01*
X7935899Y-15388699D02*
X7954947Y-15388699D01*
X7973994Y-15398223D01*
X7983518Y-15407747D01*
X7993042Y-15426795D01*
X8002566Y-15464890D01*
X8002566Y-15512509D01*
X7993042Y-15550604D01*
X7983518Y-15569652D01*
X7973994Y-15579176D01*
X7954947Y-15588699D01*
X7935899Y-15588699D01*
X7916851Y-15579176D01*
X7907328Y-15569652D01*
X7897804Y-15550604D01*
X7888280Y-15512509D01*
X7888280Y-15464890D01*
X7897804Y-15426795D01*
X7907328Y-15407747D01*
X7916851Y-15398223D01*
X7935899Y-15388699D01*
X8088280Y-15588699D02*
X8088280Y-15455366D01*
X8088280Y-15474414D02*
X8097804Y-15464890D01*
X8116851Y-15455366D01*
X8145423Y-15455366D01*
X8164470Y-15464890D01*
X8173994Y-15483937D01*
X8173994Y-15588699D01*
X8173994Y-15483937D02*
X8183518Y-15464890D01*
X8202566Y-15455366D01*
X8231137Y-15455366D01*
X8250185Y-15464890D01*
X8259709Y-15483937D01*
X8259709Y-15588699D01*
X8354947Y-15588699D02*
X8354947Y-15455366D01*
X8354947Y-15474414D02*
X8364470Y-15464890D01*
X8383518Y-15455366D01*
X8412090Y-15455366D01*
X8431137Y-15464890D01*
X8440661Y-15483937D01*
X8440661Y-15588699D01*
X8440661Y-15483937D02*
X8450185Y-15464890D01*
X8469232Y-15455366D01*
X8497804Y-15455366D01*
X8516852Y-15464890D01*
X8526375Y-15483937D01*
X8526375Y-15588699D01*
X8916852Y-15379176D02*
X8745423Y-15636318D01*
X9173994Y-15388699D02*
X9193042Y-15388699D01*
X9212090Y-15398223D01*
X9221613Y-15407747D01*
X9231137Y-15426795D01*
X9240661Y-15464890D01*
X9240661Y-15512509D01*
X9231137Y-15550604D01*
X9221613Y-15569652D01*
X9212090Y-15579176D01*
X9193042Y-15588699D01*
X9173994Y-15588699D01*
X9154947Y-15579176D01*
X9145423Y-15569652D01*
X9135899Y-15550604D01*
X9126375Y-15512509D01*
X9126375Y-15464890D01*
X9135899Y-15426795D01*
X9145423Y-15407747D01*
X9154947Y-15398223D01*
X9173994Y-15388699D01*
X9326375Y-15569652D02*
X9335899Y-15579176D01*
X9326375Y-15588699D01*
X9316852Y-15579176D01*
X9326375Y-15569652D01*
X9326375Y-15588699D01*
X9459709Y-15388699D02*
X9478756Y-15388699D01*
X9497804Y-15398223D01*
X9507328Y-15407747D01*
X9516852Y-15426795D01*
X9526375Y-15464890D01*
X9526375Y-15512509D01*
X9516852Y-15550604D01*
X9507328Y-15569652D01*
X9497804Y-15579176D01*
X9478756Y-15588699D01*
X9459709Y-15588699D01*
X9440661Y-15579176D01*
X9431137Y-15569652D01*
X9421613Y-15550604D01*
X9412090Y-15512509D01*
X9412090Y-15464890D01*
X9421613Y-15426795D01*
X9431137Y-15407747D01*
X9440661Y-15398223D01*
X9459709Y-15388699D01*
X9707328Y-15388699D02*
X9612090Y-15388699D01*
X9602566Y-15483937D01*
X9612090Y-15474414D01*
X9631137Y-15464890D01*
X9678756Y-15464890D01*
X9697804Y-15474414D01*
X9707328Y-15483937D01*
X9716852Y-15502985D01*
X9716852Y-15550604D01*
X9707328Y-15569652D01*
X9697804Y-15579176D01*
X9678756Y-15588699D01*
X9631137Y-15588699D01*
X9612090Y-15579176D01*
X9602566Y-15569652D01*
X9812090Y-15588699D02*
X9850185Y-15588699D01*
X9869232Y-15579176D01*
X9878756Y-15569652D01*
X9897804Y-15541080D01*
X9907328Y-15502985D01*
X9907328Y-15426795D01*
X9897804Y-15407747D01*
X9888280Y-15398223D01*
X9869232Y-15388699D01*
X9831137Y-15388699D01*
X9812090Y-15398223D01*
X9802566Y-15407747D01*
X9793042Y-15426795D01*
X9793042Y-15474414D01*
X9802566Y-15493461D01*
X9812090Y-15502985D01*
X9831137Y-15512509D01*
X9869232Y-15512509D01*
X9888280Y-15502985D01*
X9897804Y-15493461D01*
X9907328Y-15474414D01*
X10021613Y-15474414D02*
X10002566Y-15464890D01*
X9993042Y-15455366D01*
X9983518Y-15436318D01*
X9983518Y-15426795D01*
X9993042Y-15407747D01*
X10002566Y-15398223D01*
X10021613Y-15388699D01*
X10059709Y-15388699D01*
X10078756Y-15398223D01*
X10088280Y-15407747D01*
X10097804Y-15426795D01*
X10097804Y-15436318D01*
X10088280Y-15455366D01*
X10078756Y-15464890D01*
X10059709Y-15474414D01*
X10021613Y-15474414D01*
X10002566Y-15483937D01*
X9993042Y-15493461D01*
X9983518Y-15512509D01*
X9983518Y-15550604D01*
X9993042Y-15569652D01*
X10002566Y-15579176D01*
X10021613Y-15588699D01*
X10059709Y-15588699D01*
X10078756Y-15579176D01*
X10088280Y-15569652D01*
X10097804Y-15550604D01*
X10097804Y-15512509D01*
X10088280Y-15493461D01*
X10078756Y-15483937D01*
X10059709Y-15474414D01*
X10173994Y-15388699D02*
X10173994Y-15426795D01*
X10250185Y-15388699D02*
X10250185Y-15426795D01*
X10545423Y-15664890D02*
X10535899Y-15655366D01*
X10516852Y-15626795D01*
X10507328Y-15607747D01*
X10497804Y-15579176D01*
X10488280Y-15531557D01*
X10488280Y-15493461D01*
X10497804Y-15445842D01*
X10507328Y-15417271D01*
X10516852Y-15398223D01*
X10535899Y-15369652D01*
X10545423Y-15360128D01*
X10631137Y-15588699D02*
X10669232Y-15588699D01*
X10688280Y-15579176D01*
X10697804Y-15569652D01*
X10716852Y-15541080D01*
X10726375Y-15502985D01*
X10726375Y-15426795D01*
X10716852Y-15407747D01*
X10707328Y-15398223D01*
X10688280Y-15388699D01*
X10650185Y-15388699D01*
X10631137Y-15398223D01*
X10621613Y-15407747D01*
X10612090Y-15426795D01*
X10612090Y-15474414D01*
X10621613Y-15493461D01*
X10631137Y-15502985D01*
X10650185Y-15512509D01*
X10688280Y-15512509D01*
X10707328Y-15502985D01*
X10716852Y-15493461D01*
X10726375Y-15474414D01*
X10964471Y-15588699D02*
X10964471Y-15388699D01*
X11050185Y-15588699D02*
X11050185Y-15483937D01*
X11040661Y-15464890D01*
X11021613Y-15455366D01*
X10993042Y-15455366D01*
X10973994Y-15464890D01*
X10964471Y-15474414D01*
X11173994Y-15588699D02*
X11154947Y-15579176D01*
X11145423Y-15569652D01*
X11135899Y-15550604D01*
X11135899Y-15493461D01*
X11145423Y-15474414D01*
X11154947Y-15464890D01*
X11173994Y-15455366D01*
X11202566Y-15455366D01*
X11221613Y-15464890D01*
X11231137Y-15474414D01*
X11240661Y-15493461D01*
X11240661Y-15550604D01*
X11231137Y-15569652D01*
X11221613Y-15579176D01*
X11202566Y-15588699D01*
X11173994Y-15588699D01*
X11354947Y-15588699D02*
X11335899Y-15579176D01*
X11326375Y-15560128D01*
X11326375Y-15388699D01*
X11507328Y-15579176D02*
X11488280Y-15588699D01*
X11450185Y-15588699D01*
X11431137Y-15579176D01*
X11421613Y-15560128D01*
X11421613Y-15483937D01*
X11431137Y-15464890D01*
X11450185Y-15455366D01*
X11488280Y-15455366D01*
X11507328Y-15464890D01*
X11516851Y-15483937D01*
X11516851Y-15502985D01*
X11421613Y-15522033D01*
X11593042Y-15579176D02*
X11612090Y-15588699D01*
X11650185Y-15588699D01*
X11669232Y-15579176D01*
X11678756Y-15560128D01*
X11678756Y-15550604D01*
X11669232Y-15531557D01*
X11650185Y-15522033D01*
X11621613Y-15522033D01*
X11602566Y-15512509D01*
X11593042Y-15493461D01*
X11593042Y-15483937D01*
X11602566Y-15464890D01*
X11621613Y-15455366D01*
X11650185Y-15455366D01*
X11669232Y-15464890D01*
X11745423Y-15664890D02*
X11754947Y-15655366D01*
X11773994Y-15626795D01*
X11783518Y-15607747D01*
X11793042Y-15579176D01*
X11802566Y-15531557D01*
X11802566Y-15493461D01*
X11793042Y-15445842D01*
X11783518Y-15417271D01*
X11773994Y-15398223D01*
X11754947Y-15369652D01*
X11745423Y-15360128D01*
X6873518Y-15870223D02*
X6973518Y-15770223D01*
X6873518Y-15670223D01*
X6773518Y-15770223D01*
X6873518Y-15870223D01*
X6973518Y-15770223D02*
G75*
G03*
X6973518Y-15770223I-100000J0D01*
G01*
X7212090Y-15660699D02*
X7335899Y-15660699D01*
X7269232Y-15736890D01*
X7297804Y-15736890D01*
X7316851Y-15746414D01*
X7326375Y-15755937D01*
X7335899Y-15774985D01*
X7335899Y-15822604D01*
X7326375Y-15841652D01*
X7316851Y-15851176D01*
X7297804Y-15860699D01*
X7240661Y-15860699D01*
X7221613Y-15851176D01*
X7212090Y-15841652D01*
X7421613Y-15841652D02*
X7431137Y-15851176D01*
X7421613Y-15860699D01*
X7412090Y-15851176D01*
X7421613Y-15841652D01*
X7421613Y-15860699D01*
X7507328Y-15679747D02*
X7516851Y-15670223D01*
X7535899Y-15660699D01*
X7583518Y-15660699D01*
X7602566Y-15670223D01*
X7612090Y-15679747D01*
X7621613Y-15698795D01*
X7621613Y-15717842D01*
X7612090Y-15746414D01*
X7497804Y-15860699D01*
X7621613Y-15860699D01*
X7745423Y-15660699D02*
X7764470Y-15660699D01*
X7783518Y-15670223D01*
X7793042Y-15679747D01*
X7802566Y-15698795D01*
X7812090Y-15736890D01*
X7812090Y-15784509D01*
X7802566Y-15822604D01*
X7793042Y-15841652D01*
X7783518Y-15851176D01*
X7764470Y-15860699D01*
X7745423Y-15860699D01*
X7726375Y-15851176D01*
X7716851Y-15841652D01*
X7707328Y-15822604D01*
X7697804Y-15784509D01*
X7697804Y-15736890D01*
X7707328Y-15698795D01*
X7716851Y-15679747D01*
X7726375Y-15670223D01*
X7745423Y-15660699D01*
X7935899Y-15660699D02*
X7954947Y-15660699D01*
X7973994Y-15670223D01*
X7983518Y-15679747D01*
X7993042Y-15698795D01*
X8002566Y-15736890D01*
X8002566Y-15784509D01*
X7993042Y-15822604D01*
X7983518Y-15841652D01*
X7973994Y-15851176D01*
X7954947Y-15860699D01*
X7935899Y-15860699D01*
X7916851Y-15851176D01*
X7907328Y-15841652D01*
X7897804Y-15822604D01*
X7888280Y-15784509D01*
X7888280Y-15736890D01*
X7897804Y-15698795D01*
X7907328Y-15679747D01*
X7916851Y-15670223D01*
X7935899Y-15660699D01*
X8088280Y-15860699D02*
X8088280Y-15727366D01*
X8088280Y-15746414D02*
X8097804Y-15736890D01*
X8116851Y-15727366D01*
X8145423Y-15727366D01*
X8164470Y-15736890D01*
X8173994Y-15755937D01*
X8173994Y-15860699D01*
X8173994Y-15755937D02*
X8183518Y-15736890D01*
X8202566Y-15727366D01*
X8231137Y-15727366D01*
X8250185Y-15736890D01*
X8259709Y-15755937D01*
X8259709Y-15860699D01*
X8354947Y-15860699D02*
X8354947Y-15727366D01*
X8354947Y-15746414D02*
X8364470Y-15736890D01*
X8383518Y-15727366D01*
X8412090Y-15727366D01*
X8431137Y-15736890D01*
X8440661Y-15755937D01*
X8440661Y-15860699D01*
X8440661Y-15755937D02*
X8450185Y-15736890D01*
X8469232Y-15727366D01*
X8497804Y-15727366D01*
X8516852Y-15736890D01*
X8526375Y-15755937D01*
X8526375Y-15860699D01*
X8916852Y-15651176D02*
X8745423Y-15908318D01*
X9173994Y-15660699D02*
X9193042Y-15660699D01*
X9212090Y-15670223D01*
X9221613Y-15679747D01*
X9231137Y-15698795D01*
X9240661Y-15736890D01*
X9240661Y-15784509D01*
X9231137Y-15822604D01*
X9221613Y-15841652D01*
X9212090Y-15851176D01*
X9193042Y-15860699D01*
X9173994Y-15860699D01*
X9154947Y-15851176D01*
X9145423Y-15841652D01*
X9135899Y-15822604D01*
X9126375Y-15784509D01*
X9126375Y-15736890D01*
X9135899Y-15698795D01*
X9145423Y-15679747D01*
X9154947Y-15670223D01*
X9173994Y-15660699D01*
X9326375Y-15841652D02*
X9335899Y-15851176D01*
X9326375Y-15860699D01*
X9316852Y-15851176D01*
X9326375Y-15841652D01*
X9326375Y-15860699D01*
X9526375Y-15860699D02*
X9412090Y-15860699D01*
X9469232Y-15860699D02*
X9469232Y-15660699D01*
X9450185Y-15689271D01*
X9431137Y-15708318D01*
X9412090Y-15717842D01*
X9602566Y-15679747D02*
X9612090Y-15670223D01*
X9631137Y-15660699D01*
X9678756Y-15660699D01*
X9697804Y-15670223D01*
X9707328Y-15679747D01*
X9716852Y-15698795D01*
X9716852Y-15717842D01*
X9707328Y-15746414D01*
X9593042Y-15860699D01*
X9716852Y-15860699D01*
X9888280Y-15660699D02*
X9850185Y-15660699D01*
X9831137Y-15670223D01*
X9821613Y-15679747D01*
X9802566Y-15708318D01*
X9793042Y-15746414D01*
X9793042Y-15822604D01*
X9802566Y-15841652D01*
X9812090Y-15851176D01*
X9831137Y-15860699D01*
X9869232Y-15860699D01*
X9888280Y-15851176D01*
X9897804Y-15841652D01*
X9907328Y-15822604D01*
X9907328Y-15774985D01*
X9897804Y-15755937D01*
X9888280Y-15746414D01*
X9869232Y-15736890D01*
X9831137Y-15736890D01*
X9812090Y-15746414D01*
X9802566Y-15755937D01*
X9793042Y-15774985D01*
X10031137Y-15660699D02*
X10050185Y-15660699D01*
X10069232Y-15670223D01*
X10078756Y-15679747D01*
X10088280Y-15698795D01*
X10097804Y-15736890D01*
X10097804Y-15784509D01*
X10088280Y-15822604D01*
X10078756Y-15841652D01*
X10069232Y-15851176D01*
X10050185Y-15860699D01*
X10031137Y-15860699D01*
X10012090Y-15851176D01*
X10002566Y-15841652D01*
X9993042Y-15822604D01*
X9983518Y-15784509D01*
X9983518Y-15736890D01*
X9993042Y-15698795D01*
X10002566Y-15679747D01*
X10012090Y-15670223D01*
X10031137Y-15660699D01*
X10173994Y-15660699D02*
X10173994Y-15698795D01*
X10250185Y-15660699D02*
X10250185Y-15698795D01*
X10545423Y-15936890D02*
X10535899Y-15927366D01*
X10516852Y-15898795D01*
X10507328Y-15879747D01*
X10497804Y-15851176D01*
X10488280Y-15803557D01*
X10488280Y-15765461D01*
X10497804Y-15717842D01*
X10507328Y-15689271D01*
X10516852Y-15670223D01*
X10535899Y-15641652D01*
X10545423Y-15632128D01*
X10707328Y-15727366D02*
X10707328Y-15860699D01*
X10659709Y-15651176D02*
X10612090Y-15794033D01*
X10735899Y-15794033D01*
X10964471Y-15860699D02*
X10964471Y-15660699D01*
X11050185Y-15860699D02*
X11050185Y-15755937D01*
X11040661Y-15736890D01*
X11021613Y-15727366D01*
X10993042Y-15727366D01*
X10973994Y-15736890D01*
X10964471Y-15746414D01*
X11173994Y-15860699D02*
X11154947Y-15851176D01*
X11145423Y-15841652D01*
X11135899Y-15822604D01*
X11135899Y-15765461D01*
X11145423Y-15746414D01*
X11154947Y-15736890D01*
X11173994Y-15727366D01*
X11202566Y-15727366D01*
X11221613Y-15736890D01*
X11231137Y-15746414D01*
X11240661Y-15765461D01*
X11240661Y-15822604D01*
X11231137Y-15841652D01*
X11221613Y-15851176D01*
X11202566Y-15860699D01*
X11173994Y-15860699D01*
X11354947Y-15860699D02*
X11335899Y-15851176D01*
X11326375Y-15832128D01*
X11326375Y-15660699D01*
X11507328Y-15851176D02*
X11488280Y-15860699D01*
X11450185Y-15860699D01*
X11431137Y-15851176D01*
X11421613Y-15832128D01*
X11421613Y-15755937D01*
X11431137Y-15736890D01*
X11450185Y-15727366D01*
X11488280Y-15727366D01*
X11507328Y-15736890D01*
X11516851Y-15755937D01*
X11516851Y-15774985D01*
X11421613Y-15794033D01*
X11593042Y-15851176D02*
X11612090Y-15860699D01*
X11650185Y-15860699D01*
X11669232Y-15851176D01*
X11678756Y-15832128D01*
X11678756Y-15822604D01*
X11669232Y-15803557D01*
X11650185Y-15794033D01*
X11621613Y-15794033D01*
X11602566Y-15784509D01*
X11593042Y-15765461D01*
X11593042Y-15755937D01*
X11602566Y-15736890D01*
X11621613Y-15727366D01*
X11650185Y-15727366D01*
X11669232Y-15736890D01*
X11745423Y-15936890D02*
X11754947Y-15927366D01*
X11773994Y-15898795D01*
X11783518Y-15879747D01*
X11793042Y-15851176D01*
X11802566Y-15803557D01*
X11802566Y-15765461D01*
X11793042Y-15717842D01*
X11783518Y-15689271D01*
X11773994Y-15670223D01*
X11754947Y-15641652D01*
X11745423Y-15632128D01*
X12107328Y-15936890D02*
X12097804Y-15927366D01*
X12078756Y-15898795D01*
X12069232Y-15879747D01*
X12059709Y-15851176D01*
X12050185Y-15803557D01*
X12050185Y-15765461D01*
X12059709Y-15717842D01*
X12069232Y-15689271D01*
X12078756Y-15670223D01*
X12097804Y-15641652D01*
X12107328Y-15632128D01*
X12183518Y-15727366D02*
X12183518Y-15860699D01*
X12183518Y-15746414D02*
X12193042Y-15736890D01*
X12212090Y-15727366D01*
X12240661Y-15727366D01*
X12259709Y-15736890D01*
X12269232Y-15755937D01*
X12269232Y-15860699D01*
X12393042Y-15860699D02*
X12373994Y-15851176D01*
X12364470Y-15841652D01*
X12354947Y-15822604D01*
X12354947Y-15765461D01*
X12364470Y-15746414D01*
X12373994Y-15736890D01*
X12393042Y-15727366D01*
X12421613Y-15727366D01*
X12440661Y-15736890D01*
X12450185Y-15746414D01*
X12459709Y-15765461D01*
X12459709Y-15822604D01*
X12450185Y-15841652D01*
X12440661Y-15851176D01*
X12421613Y-15860699D01*
X12393042Y-15860699D01*
X12516851Y-15727366D02*
X12593042Y-15727366D01*
X12545423Y-15660699D02*
X12545423Y-15832128D01*
X12554947Y-15851176D01*
X12573994Y-15860699D01*
X12593042Y-15860699D01*
X12812090Y-15727366D02*
X12812090Y-15927366D01*
X12812090Y-15736890D02*
X12831137Y-15727366D01*
X12869232Y-15727366D01*
X12888280Y-15736890D01*
X12897804Y-15746414D01*
X12907328Y-15765461D01*
X12907328Y-15822604D01*
X12897804Y-15841652D01*
X12888280Y-15851176D01*
X12869232Y-15860699D01*
X12831137Y-15860699D01*
X12812090Y-15851176D01*
X13021613Y-15860699D02*
X13002566Y-15851176D01*
X12993042Y-15832128D01*
X12993042Y-15660699D01*
X13183518Y-15860699D02*
X13183518Y-15755937D01*
X13173994Y-15736890D01*
X13154947Y-15727366D01*
X13116851Y-15727366D01*
X13097804Y-15736890D01*
X13183518Y-15851176D02*
X13164470Y-15860699D01*
X13116851Y-15860699D01*
X13097804Y-15851176D01*
X13088280Y-15832128D01*
X13088280Y-15813080D01*
X13097804Y-15794033D01*
X13116851Y-15784509D01*
X13164470Y-15784509D01*
X13183518Y-15774985D01*
X13250185Y-15727366D02*
X13326375Y-15727366D01*
X13278756Y-15660699D02*
X13278756Y-15832128D01*
X13288280Y-15851176D01*
X13307328Y-15860699D01*
X13326375Y-15860699D01*
X13469232Y-15851176D02*
X13450185Y-15860699D01*
X13412090Y-15860699D01*
X13393042Y-15851176D01*
X13383518Y-15832128D01*
X13383518Y-15755937D01*
X13393042Y-15736890D01*
X13412090Y-15727366D01*
X13450185Y-15727366D01*
X13469232Y-15736890D01*
X13478756Y-15755937D01*
X13478756Y-15774985D01*
X13383518Y-15794033D01*
X13650185Y-15860699D02*
X13650185Y-15660699D01*
X13650185Y-15851176D02*
X13631137Y-15860699D01*
X13593042Y-15860699D01*
X13573994Y-15851176D01*
X13564470Y-15841652D01*
X13554947Y-15822604D01*
X13554947Y-15765461D01*
X13564470Y-15746414D01*
X13573994Y-15736890D01*
X13593042Y-15727366D01*
X13631137Y-15727366D01*
X13650185Y-15736890D01*
X13726375Y-15936890D02*
X13735899Y-15927366D01*
X13754947Y-15898795D01*
X13764470Y-15879747D01*
X13773994Y-15851176D01*
X13783518Y-15803557D01*
X13783518Y-15765461D01*
X13773994Y-15717842D01*
X13764470Y-15689271D01*
X13754947Y-15670223D01*
X13735899Y-15641652D01*
X13726375Y-15632128D01*
M02*
