%TF.GenerationSoftware,KiCad,Pcbnew,6.0.1-79c1e3a40b~116~ubuntu20.04.1*%
%TF.CreationDate,2022-02-02T01:42:16+05:30*%
%TF.ProjectId,sra_dev_board_2022,7372615f-6465-4765-9f62-6f6172645f32,rev?*%
%TF.SameCoordinates,Original*%
%TF.FileFunction,Soldermask,Top*%
%TF.FilePolarity,Negative*%
%FSLAX46Y46*%
G04 Gerber Fmt 4.6, Leading zero omitted, Abs format (unit mm)*
G04 Created by KiCad (PCBNEW 6.0.1-79c1e3a40b~116~ubuntu20.04.1) date 2022-02-02 01:42:16*
%MOMM*%
%LPD*%
G01*
G04 APERTURE LIST*
G04 Aperture macros list*
%AMRoundRect*
0 Rectangle with rounded corners*
0 $1 Rounding radius*
0 $2 $3 $4 $5 $6 $7 $8 $9 X,Y pos of 4 corners*
0 Add a 4 corners polygon primitive as box body*
4,1,4,$2,$3,$4,$5,$6,$7,$8,$9,$2,$3,0*
0 Add four circle primitives for the rounded corners*
1,1,$1+$1,$2,$3*
1,1,$1+$1,$4,$5*
1,1,$1+$1,$6,$7*
1,1,$1+$1,$8,$9*
0 Add four rect primitives between the rounded corners*
20,1,$1+$1,$2,$3,$4,$5,0*
20,1,$1+$1,$4,$5,$6,$7,0*
20,1,$1+$1,$6,$7,$8,$9,0*
20,1,$1+$1,$8,$9,$2,$3,0*%
%AMFreePoly0*
4,1,25,0.440719,0.844196,0.452842,0.833842,0.833842,0.452842,0.862349,0.396894,0.863600,0.381000,0.863600,-0.381000,0.844196,-0.440719,0.833842,-0.452842,0.452842,-0.833842,0.396894,-0.862349,0.381000,-0.863600,-0.381000,-0.863600,-0.440719,-0.844196,-0.452842,-0.833842,-0.833842,-0.452842,-0.862349,-0.396894,-0.863600,-0.381000,-0.863600,0.381000,-0.844196,0.440719,-0.833842,0.452842,
-0.452842,0.833842,-0.396894,0.862349,-0.381000,0.863600,0.381000,0.863600,0.440719,0.844196,0.440719,0.844196,$1*%
G04 Aperture macros list end*
%ADD10RoundRect,0.200000X0.275000X-0.200000X0.275000X0.200000X-0.275000X0.200000X-0.275000X-0.200000X0*%
%ADD11C,2.153200*%
%ADD12O,3.251200X1.727200*%
%ADD13RoundRect,0.250000X-0.625000X0.312500X-0.625000X-0.312500X0.625000X-0.312500X0.625000X0.312500X0*%
%ADD14RoundRect,0.101600X0.762000X0.762000X-0.762000X0.762000X-0.762000X-0.762000X0.762000X-0.762000X0*%
%ADD15FreePoly0,180.000000*%
%ADD16RoundRect,0.225000X0.250000X-0.225000X0.250000X0.225000X-0.250000X0.225000X-0.250000X-0.225000X0*%
%ADD17R,1.800000X2.500000*%
%ADD18C,3.200000*%
%ADD19RoundRect,0.218750X-0.256250X0.218750X-0.256250X-0.218750X0.256250X-0.218750X0.256250X0.218750X0*%
%ADD20R,1.700000X1.700000*%
%ADD21O,1.700000X1.700000*%
%ADD22C,1.800000*%
%ADD23R,2.300000X2.500000*%
%ADD24RoundRect,0.250000X-1.500000X-1.000000X1.500000X-1.000000X1.500000X1.000000X-1.500000X1.000000X0*%
%ADD25R,2.500000X2.300000*%
%ADD26O,1.524000X2.844800*%
%ADD27R,1.600000X1.400000*%
%ADD28C,1.219000*%
%ADD29RoundRect,0.101600X0.762000X-0.762000X0.762000X0.762000X-0.762000X0.762000X-0.762000X-0.762000X0*%
%ADD30FreePoly0,90.000000*%
%ADD31RoundRect,0.218750X-0.218750X-0.256250X0.218750X-0.256250X0.218750X0.256250X-0.218750X0.256250X0*%
%ADD32RoundRect,0.200000X0.200000X0.275000X-0.200000X0.275000X-0.200000X-0.275000X0.200000X-0.275000X0*%
%ADD33RoundRect,0.250000X0.625000X-0.312500X0.625000X0.312500X-0.625000X0.312500X-0.625000X-0.312500X0*%
%ADD34R,1.800000X4.400000*%
%ADD35O,1.800000X4.000000*%
%ADD36O,4.000000X1.800000*%
%ADD37RoundRect,0.200000X-0.200000X-0.275000X0.200000X-0.275000X0.200000X0.275000X-0.200000X0.275000X0*%
%ADD38RoundRect,0.250000X1.500000X0.550000X-1.500000X0.550000X-1.500000X-0.550000X1.500000X-0.550000X0*%
%ADD39RoundRect,0.101600X-0.780000X-0.780000X0.780000X-0.780000X0.780000X0.780000X-0.780000X0.780000X0*%
%ADD40C,1.879600*%
%ADD41R,2.500000X1.800000*%
%ADD42R,2.895600X5.410200*%
%ADD43RoundRect,0.225000X0.225000X0.250000X-0.225000X0.250000X-0.225000X-0.250000X0.225000X-0.250000X0*%
%ADD44C,2.250000*%
%ADD45R,2.000000X1.500000*%
%ADD46R,2.000000X3.800000*%
%ADD47R,1.100000X4.600000*%
%ADD48R,10.800000X9.400000*%
%ADD49RoundRect,0.218750X0.218750X0.256250X-0.218750X0.256250X-0.218750X-0.256250X0.218750X-0.256250X0*%
G04 APERTURE END LIST*
D10*
%TO.C,R7*%
X132680000Y-45896250D03*
X132680000Y-44246250D03*
%TD*%
D11*
%TO.C,T3*%
X76270000Y-55053723D03*
X76270000Y-50053723D03*
%TD*%
D12*
%TO.C,J5*%
X143569418Y-118588838D03*
X143569418Y-116048838D03*
X143569418Y-113508838D03*
X143569418Y-110968838D03*
X143569418Y-108428838D03*
X143569418Y-105888838D03*
X143569418Y-103348838D03*
X143569418Y-100808838D03*
X143569418Y-98268838D03*
X143569418Y-95728838D03*
X143569418Y-93188838D03*
X143569418Y-90648838D03*
X143569418Y-88108838D03*
X143569418Y-85568838D03*
X143569418Y-83028838D03*
X143569418Y-80488838D03*
X143569418Y-77948838D03*
X143569418Y-75408838D03*
X143569418Y-72868838D03*
%TD*%
D13*
%TO.C,R17*%
X98100000Y-109577500D03*
X98100000Y-112502500D03*
%TD*%
D10*
%TO.C,R1*%
X117720000Y-45912500D03*
X117720000Y-44262500D03*
%TD*%
D14*
%TO.C,J11*%
X141332544Y-52158000D03*
D15*
X141332544Y-49618000D03*
X141332544Y-47078000D03*
X141332544Y-44538000D03*
X141332544Y-41998000D03*
%TD*%
D16*
%TO.C,C5*%
X94170000Y-67386847D03*
X94170000Y-65836847D03*
%TD*%
D17*
%TO.C,D13*%
X88438853Y-52230000D03*
X88438853Y-56230000D03*
%TD*%
D18*
%TO.C,H2*%
X72350000Y-119600000D03*
%TD*%
D11*
%TO.C,T2*%
X76210000Y-98463750D03*
X76210000Y-103463750D03*
X76210000Y-108463750D03*
X76210000Y-113463750D03*
%TD*%
D19*
%TO.C,D2*%
X120250000Y-47683750D03*
X120250000Y-49258750D03*
%TD*%
D20*
%TO.C,J8*%
X129920000Y-36790000D03*
D21*
X132460000Y-36790000D03*
X135000000Y-36790000D03*
X137540000Y-36790000D03*
X140080000Y-36790000D03*
X142620000Y-36790000D03*
%TD*%
D22*
%TO.C,U3*%
X86720000Y-76427582D03*
X86720000Y-78967582D03*
X86720000Y-81507582D03*
X86720000Y-84047582D03*
X86720000Y-86587582D03*
X86720000Y-89127582D03*
X86720000Y-91667582D03*
X86720000Y-94207582D03*
X101960000Y-94207582D03*
X101960000Y-91667582D03*
X101960000Y-89127582D03*
X101960000Y-86587582D03*
X101960000Y-84047582D03*
X101960000Y-81507582D03*
X101960000Y-78967582D03*
X101960000Y-76427582D03*
%TD*%
D14*
%TO.C,J13*%
X146922544Y-52166000D03*
D15*
X146922544Y-49626000D03*
X146922544Y-47086000D03*
X146922544Y-44546000D03*
X146922544Y-42006000D03*
%TD*%
D23*
%TO.C,D9*%
X83690000Y-56230000D03*
X83690000Y-51930000D03*
%TD*%
D19*
%TO.C,D4*%
X125220000Y-47692500D03*
X125220000Y-49267500D03*
%TD*%
D24*
%TO.C,C2*%
X105452500Y-44600000D03*
X111952500Y-44600000D03*
%TD*%
D25*
%TO.C,D14*%
X87850000Y-47000000D03*
X83550000Y-47000000D03*
%TD*%
D10*
%TO.C,R6*%
X130180000Y-45896250D03*
X130180000Y-44246250D03*
%TD*%
D26*
%TO.C,TB_B1*%
X107780000Y-61657386D03*
X110320000Y-61657386D03*
X112860000Y-61657386D03*
X107780000Y-66737386D03*
X110320000Y-66737386D03*
X112860000Y-66737386D03*
%TD*%
D27*
%TO.C,SW2*%
X126270000Y-58740000D03*
X119070000Y-58740000D03*
X126270000Y-61740000D03*
X119070000Y-61740000D03*
%TD*%
D10*
%TO.C,R4*%
X125220000Y-45905000D03*
X125220000Y-44255000D03*
%TD*%
D28*
%TO.C,F2*%
X83485000Y-61280000D03*
X88535000Y-61280000D03*
%TD*%
D29*
%TO.C,J3*%
X141260000Y-62474000D03*
D30*
X143800000Y-62474000D03*
X146340000Y-62474000D03*
%TD*%
D13*
%TO.C,R18*%
X95100000Y-109577500D03*
X95100000Y-112502500D03*
%TD*%
D19*
%TO.C,D6*%
X130180000Y-47683750D03*
X130180000Y-49258750D03*
%TD*%
%TO.C,D1*%
X117740000Y-47700000D03*
X117740000Y-49275000D03*
%TD*%
D22*
%TO.C,U4*%
X86650000Y-99415527D03*
X86650000Y-101955527D03*
X86650000Y-104495527D03*
X86650000Y-107035527D03*
X86650000Y-109575527D03*
X86650000Y-112115527D03*
X86650000Y-114655527D03*
X86650000Y-117195527D03*
X101890000Y-117195527D03*
X101890000Y-114655527D03*
X101890000Y-112115527D03*
X101890000Y-109575527D03*
X101890000Y-107035527D03*
X101890000Y-104495527D03*
X101890000Y-101955527D03*
X101890000Y-99415527D03*
%TD*%
D26*
%TO.C,12V_SW1*%
X73680000Y-66762369D03*
X76220000Y-66762369D03*
X78760000Y-66762369D03*
X73680000Y-71842369D03*
X76220000Y-71842369D03*
X78760000Y-71842369D03*
%TD*%
D10*
%TO.C,R2*%
X120250000Y-45896250D03*
X120250000Y-44246250D03*
%TD*%
D26*
%TO.C,5V_SW1*%
X83400000Y-66770000D03*
X85940000Y-66770000D03*
X88480000Y-66770000D03*
X83400000Y-71850000D03*
X85940000Y-71850000D03*
X88480000Y-71850000D03*
%TD*%
D19*
%TO.C,D7*%
X132680000Y-47683750D03*
X132680000Y-49258750D03*
%TD*%
D31*
%TO.C,D11*%
X101125000Y-63890000D03*
X102700000Y-63890000D03*
%TD*%
D28*
%TO.C,F1*%
X78715000Y-61280000D03*
X73665000Y-61280000D03*
%TD*%
D10*
%TO.C,R3*%
X122730000Y-45896250D03*
X122730000Y-44246250D03*
%TD*%
D29*
%TO.C,J2*%
X141260000Y-56850000D03*
D30*
X143800000Y-56850000D03*
X146340000Y-56850000D03*
%TD*%
D10*
%TO.C,R8*%
X135190000Y-45896250D03*
X135190000Y-44246250D03*
%TD*%
D18*
%TO.C,H1*%
X72350000Y-31950000D03*
%TD*%
D12*
%TO.C,J9*%
X147480000Y-85580000D03*
X147480000Y-83040000D03*
X147480000Y-80500000D03*
X147480000Y-77960000D03*
%TD*%
D27*
%TO.C,SW4*%
X136203500Y-52850000D03*
X129003500Y-52850000D03*
X136203500Y-55850000D03*
X129003500Y-55850000D03*
%TD*%
D19*
%TO.C,D3*%
X122730000Y-47683750D03*
X122730000Y-49258750D03*
%TD*%
D32*
%TO.C,R10*%
X99335000Y-63890000D03*
X97685000Y-63890000D03*
%TD*%
D33*
%TO.C,R14*%
X95100000Y-89492500D03*
X95100000Y-86567500D03*
%TD*%
D19*
%TO.C,D8*%
X135190000Y-47683750D03*
X135190000Y-49258750D03*
%TD*%
D20*
%TO.C,J7*%
X122890000Y-36780000D03*
D21*
X120350000Y-36780000D03*
X117810000Y-36780000D03*
X115270000Y-36780000D03*
X112730000Y-36780000D03*
X110190000Y-36780000D03*
%TD*%
D27*
%TO.C,SW1*%
X126274490Y-52860000D03*
X119074490Y-52860000D03*
X126274490Y-55860000D03*
X119074490Y-55860000D03*
%TD*%
D33*
%TO.C,R12*%
X95080000Y-84062500D03*
X95080000Y-81137500D03*
%TD*%
D16*
%TO.C,C4*%
X92230000Y-67376847D03*
X92230000Y-65826847D03*
%TD*%
D34*
%TO.C,J6*%
X78580000Y-40400000D03*
D35*
X72780000Y-40400000D03*
D36*
X75580000Y-45200000D03*
%TD*%
D37*
%TO.C,R9*%
X100375000Y-73090000D03*
X102025000Y-73090000D03*
%TD*%
D11*
%TO.C,T1*%
X76210000Y-77579497D03*
X76210000Y-82579497D03*
X76210000Y-87579497D03*
X76210000Y-92579497D03*
%TD*%
D38*
%TO.C,C1*%
X88200000Y-40100000D03*
X82800000Y-40100000D03*
%TD*%
D39*
%TO.C,U1*%
X113179418Y-72868838D03*
D40*
X113179418Y-75408838D03*
X113179418Y-77948838D03*
X113179418Y-80488838D03*
X113179418Y-83028838D03*
X113179418Y-85568838D03*
X113179418Y-88108838D03*
X113179418Y-90648838D03*
X113179418Y-93188838D03*
X113179418Y-95728838D03*
X113179418Y-98268838D03*
X113179418Y-100808838D03*
X113179418Y-103348838D03*
X113179418Y-105888838D03*
X113179418Y-108428838D03*
X113179418Y-110968838D03*
X113179418Y-113508838D03*
X113179418Y-116048838D03*
X113179418Y-118588838D03*
X138579418Y-72868838D03*
X138579418Y-75408838D03*
X138579418Y-77948838D03*
X138579418Y-80488838D03*
X138579418Y-83028838D03*
X138579418Y-85568838D03*
X138579418Y-88108838D03*
X138579418Y-90648838D03*
X138579418Y-93188838D03*
X138579418Y-95728838D03*
X138579418Y-98268838D03*
X138579418Y-100808838D03*
X138579418Y-103348838D03*
X138579418Y-105888838D03*
X138579418Y-108428838D03*
X138579418Y-110968838D03*
X138579418Y-113508838D03*
X138579418Y-116048838D03*
X138579418Y-118588838D03*
%TD*%
D33*
%TO.C,R11*%
X98070000Y-84052500D03*
X98070000Y-81127500D03*
%TD*%
D41*
%TO.C,D12*%
X87400000Y-33700000D03*
X83400000Y-33700000D03*
%TD*%
D27*
%TO.C,SW3*%
X136200000Y-58720000D03*
X129000000Y-58720000D03*
X136200000Y-61720000D03*
X129000000Y-61720000D03*
%TD*%
D13*
%TO.C,R16*%
X98050000Y-104117500D03*
X98050000Y-107042500D03*
%TD*%
D26*
%TO.C,TB_A1*%
X107720000Y-52487102D03*
X110260000Y-52487102D03*
X112800000Y-52487102D03*
X107720000Y-57567102D03*
X110260000Y-57567102D03*
X112800000Y-57567102D03*
%TD*%
D19*
%TO.C,D5*%
X127700000Y-47683750D03*
X127700000Y-49258750D03*
%TD*%
D18*
%TO.C,H3*%
X148500000Y-119600000D03*
%TD*%
D42*
%TO.C,L1*%
X92937735Y-55380000D03*
X102843735Y-55380000D03*
%TD*%
D43*
%TO.C,C6*%
X94175000Y-69111847D03*
X92625000Y-69111847D03*
%TD*%
%TO.C,C3*%
X94225000Y-70911847D03*
X92675000Y-70911847D03*
%TD*%
D44*
%TO.C,REF\u002A\u002A*%
X147470000Y-115260000D03*
%TD*%
D45*
%TO.C,U2*%
X96700000Y-66180000D03*
X96700000Y-68480000D03*
D46*
X103000000Y-68480000D03*
D45*
X96700000Y-70780000D03*
%TD*%
D33*
%TO.C,R13*%
X98100000Y-89502500D03*
X98100000Y-86577500D03*
%TD*%
D47*
%TO.C,U5*%
X93260000Y-45115000D03*
X94960000Y-45115000D03*
D48*
X96660000Y-35965000D03*
D47*
X96660000Y-45115000D03*
X98360000Y-45115000D03*
X100060000Y-45115000D03*
%TD*%
D14*
%TO.C,J12*%
X144122544Y-52166000D03*
D15*
X144122544Y-49626000D03*
X144122544Y-47086000D03*
X144122544Y-44546000D03*
X144122544Y-42006000D03*
%TD*%
D10*
%TO.C,R5*%
X127700000Y-45896250D03*
X127700000Y-44246250D03*
%TD*%
D44*
%TO.C,REF\u002A\u002A*%
X78000000Y-32100000D03*
%TD*%
D49*
%TO.C,D10*%
X97737500Y-73090000D03*
X96162500Y-73090000D03*
%TD*%
D13*
%TO.C,R15*%
X95050000Y-104117500D03*
X95050000Y-107042500D03*
%TD*%
D18*
%TO.C,H4*%
X148500000Y-31950000D03*
%TD*%
D12*
%TO.C,J1*%
X108179418Y-72868838D03*
X108179418Y-75408838D03*
X108179418Y-77948838D03*
X108179418Y-80488838D03*
X108179418Y-83028838D03*
X108179418Y-85568838D03*
X108179418Y-88108838D03*
X108179418Y-90648838D03*
X108179418Y-93188838D03*
X108179418Y-95728838D03*
X108179418Y-98268838D03*
X108179418Y-100808838D03*
X108179418Y-103348838D03*
X108179418Y-105888838D03*
X108179418Y-108428838D03*
X108179418Y-110968838D03*
X108179418Y-113508838D03*
X108179418Y-116048838D03*
X108179418Y-118588838D03*
%TD*%
D29*
%TO.C,J4*%
X141250000Y-59660000D03*
D30*
X143790000Y-59660000D03*
X146330000Y-59660000D03*
%TD*%
M02*
