%TF.GenerationSoftware,KiCad,Pcbnew,6.0.1-79c1e3a40b~116~ubuntu20.04.1*%
%TF.CreationDate,2022-11-22T21:03:40+05:30*%
%TF.ProjectId,sra_dev_board_2023,7372615f-6465-4765-9f62-6f6172645f32,rev?*%
%TF.SameCoordinates,Original*%
%TF.FileFunction,Soldermask,Bot*%
%TF.FilePolarity,Negative*%
%FSLAX46Y46*%
G04 Gerber Fmt 4.6, Leading zero omitted, Abs format (unit mm)*
G04 Created by KiCad (PCBNEW 6.0.1-79c1e3a40b~116~ubuntu20.04.1) date 2022-11-22 21:03:40*
%MOMM*%
%LPD*%
G01*
G04 APERTURE LIST*
G04 Aperture macros list*
%AMRoundRect*
0 Rectangle with rounded corners*
0 $1 Rounding radius*
0 $2 $3 $4 $5 $6 $7 $8 $9 X,Y pos of 4 corners*
0 Add a 4 corners polygon primitive as box body*
4,1,4,$2,$3,$4,$5,$6,$7,$8,$9,$2,$3,0*
0 Add four circle primitives for the rounded corners*
1,1,$1+$1,$2,$3*
1,1,$1+$1,$4,$5*
1,1,$1+$1,$6,$7*
1,1,$1+$1,$8,$9*
0 Add four rect primitives between the rounded corners*
20,1,$1+$1,$2,$3,$4,$5,0*
20,1,$1+$1,$4,$5,$6,$7,0*
20,1,$1+$1,$6,$7,$8,$9,0*
20,1,$1+$1,$8,$9,$2,$3,0*%
%AMFreePoly0*
4,1,25,0.440719,0.844196,0.452842,0.833842,0.833842,0.452842,0.862349,0.396894,0.863600,0.381000,0.863600,-0.381000,0.844196,-0.440719,0.833842,-0.452842,0.452842,-0.833842,0.396894,-0.862349,0.381000,-0.863600,-0.381000,-0.863600,-0.440719,-0.844196,-0.452842,-0.833842,-0.833842,-0.452842,-0.862349,-0.396894,-0.863600,-0.381000,-0.863600,0.381000,-0.844196,0.440719,-0.833842,0.452842,
-0.452842,0.833842,-0.396894,0.862349,-0.381000,0.863600,0.381000,0.863600,0.440719,0.844196,0.440719,0.844196,$1*%
G04 Aperture macros list end*
%ADD10RoundRect,0.101600X0.762000X-0.762000X0.762000X0.762000X-0.762000X0.762000X-0.762000X-0.762000X0*%
%ADD11FreePoly0,90.000000*%
%ADD12C,2.153200*%
%ADD13O,3.251200X1.727200*%
%ADD14R,1.650000X1.650000*%
%ADD15C,1.650000*%
%ADD16R,3.000000X3.000000*%
%ADD17C,3.000000*%
%ADD18O,3.000000X1.500000*%
%ADD19O,3.000000X1.540000*%
%ADD20RoundRect,0.101600X0.762000X0.762000X-0.762000X0.762000X-0.762000X-0.762000X0.762000X-0.762000X0*%
%ADD21FreePoly0,180.000000*%
%ADD22RoundRect,0.101600X-0.850000X-1.000000X0.850000X-1.000000X0.850000X1.000000X-0.850000X1.000000X0*%
%ADD23C,3.200000*%
%ADD24R,1.700000X1.700000*%
%ADD25O,1.700000X1.700000*%
%ADD26C,1.800000*%
%ADD27C,1.219000*%
%ADD28O,1.524000X2.844800*%
%ADD29R,1.800000X4.400000*%
%ADD30O,1.800000X4.000000*%
%ADD31O,4.000000X1.800000*%
%ADD32RoundRect,0.101600X-0.780000X-0.780000X0.780000X-0.780000X0.780000X0.780000X-0.780000X0.780000X0*%
%ADD33C,1.879600*%
G04 APERTURE END LIST*
D10*
%TO.C,J10*%
X141520000Y-56510000D03*
D11*
X144060000Y-56510000D03*
X146600000Y-56510000D03*
%TD*%
D12*
%TO.C,T3*%
X76270000Y-55053723D03*
X76270000Y-50053723D03*
%TD*%
D13*
%TO.C,J5*%
X143569418Y-118588838D03*
X143569418Y-116048838D03*
X143569418Y-113508838D03*
X143569418Y-110968838D03*
X143569418Y-108428838D03*
X143569418Y-105888838D03*
X143569418Y-103348838D03*
X143569418Y-100808838D03*
X143569418Y-98268838D03*
X143569418Y-95728838D03*
X143569418Y-93188838D03*
X143569418Y-90648838D03*
X143569418Y-88108838D03*
X143569418Y-85568838D03*
X143569418Y-83028838D03*
X143569418Y-80488838D03*
X143569418Y-77948838D03*
X143569418Y-75408838D03*
X143569418Y-72868838D03*
%TD*%
D14*
%TO.C,U4*%
X100750000Y-116090000D03*
D15*
X100750000Y-113550000D03*
X100750000Y-111010000D03*
X100750000Y-108470000D03*
X100750000Y-105930000D03*
X100750000Y-103390000D03*
X100750000Y-100850000D03*
X100750000Y-98310000D03*
X88050000Y-98310000D03*
X88050000Y-100850000D03*
X88050000Y-103390000D03*
X88050000Y-105930000D03*
X88050000Y-108470000D03*
X88050000Y-111010000D03*
X88050000Y-113550000D03*
X88050000Y-116090000D03*
%TD*%
D16*
%TO.C,J16*%
X76200000Y-72390000D03*
D17*
X76200000Y-77470000D03*
X76200000Y-82550000D03*
X76200000Y-87630000D03*
X76200000Y-92710000D03*
%TD*%
D18*
%TO.C,J17*%
X147550000Y-111677727D03*
X147550000Y-109137727D03*
X147550000Y-106597727D03*
X147550000Y-104057727D03*
D19*
X147550000Y-101517727D03*
D18*
X147550000Y-98977727D03*
%TD*%
D20*
%TO.C,J11*%
X141332544Y-52158000D03*
D21*
X141332544Y-49618000D03*
X141332544Y-47078000D03*
X141332544Y-44538000D03*
X141332544Y-41998000D03*
%TD*%
D22*
%TO.C,TP2*%
X79560000Y-77579497D03*
%TD*%
D23*
%TO.C,H2*%
X72350000Y-119600000D03*
%TD*%
D16*
%TO.C,T2*%
X76200000Y-98480000D03*
D17*
X76200000Y-103560000D03*
X76200000Y-108640000D03*
X76200000Y-113720000D03*
%TD*%
D24*
%TO.C,J8*%
X129920000Y-36790000D03*
D25*
X132460000Y-36790000D03*
X135000000Y-36790000D03*
X137540000Y-36790000D03*
X140080000Y-36790000D03*
X142620000Y-36790000D03*
%TD*%
D22*
%TO.C,TP1*%
X72860000Y-92579497D03*
%TD*%
D26*
%TO.C,U3*%
X86720000Y-76427582D03*
X86720000Y-78967582D03*
X86720000Y-81507582D03*
X86720000Y-84047582D03*
X86720000Y-86587582D03*
X86720000Y-89127582D03*
X86720000Y-91667582D03*
X86720000Y-94207582D03*
X101960000Y-94207582D03*
X101960000Y-91667582D03*
X101960000Y-89127582D03*
X101960000Y-86587582D03*
X101960000Y-84047582D03*
X101960000Y-81507582D03*
X101960000Y-78967582D03*
X101960000Y-76427582D03*
%TD*%
D20*
%TO.C,J13*%
X146900000Y-52160000D03*
D21*
X146900000Y-49620000D03*
X146900000Y-47080000D03*
X146900000Y-44540000D03*
X146900000Y-42000000D03*
%TD*%
D27*
%TO.C,F2*%
X83485000Y-61280000D03*
X88535000Y-61280000D03*
%TD*%
D10*
%TO.C,J3*%
X141520000Y-64934000D03*
D11*
X144060000Y-64934000D03*
X146600000Y-64934000D03*
%TD*%
D28*
%TO.C,12V_SW1*%
X83120000Y-66602369D03*
X85660000Y-66602369D03*
X88200000Y-66602369D03*
X83120000Y-71682369D03*
X85660000Y-71682369D03*
X88200000Y-71682369D03*
%TD*%
D24*
%TO.C,J14*%
X95940000Y-115555000D03*
D25*
X95940000Y-113015000D03*
X95940000Y-110475000D03*
%TD*%
D28*
%TO.C,5V_SW1*%
X92260000Y-66660000D03*
X94800000Y-66660000D03*
X97340000Y-66660000D03*
X92260000Y-71740000D03*
X94800000Y-71740000D03*
X97340000Y-71740000D03*
%TD*%
D27*
%TO.C,F1*%
X78715000Y-61280000D03*
X73665000Y-61280000D03*
%TD*%
D10*
%TO.C,J2*%
X141520000Y-59310000D03*
D11*
X144060000Y-59310000D03*
X146600000Y-59310000D03*
%TD*%
D23*
%TO.C,H1*%
X72350000Y-31950000D03*
%TD*%
D13*
%TO.C,J9*%
X147480000Y-85580000D03*
X147480000Y-83040000D03*
X147480000Y-80500000D03*
X147480000Y-77960000D03*
%TD*%
D29*
%TO.C,J6*%
X78580000Y-40400000D03*
D30*
X72780000Y-40400000D03*
D31*
X75580000Y-45200000D03*
%TD*%
D32*
%TO.C,U1*%
X113179418Y-72868838D03*
D33*
X113179418Y-75408838D03*
X113179418Y-77948838D03*
X113179418Y-80488838D03*
X113179418Y-83028838D03*
X113179418Y-85568838D03*
X113179418Y-88108838D03*
X113179418Y-90648838D03*
X113179418Y-93188838D03*
X113179418Y-95728838D03*
X113179418Y-98268838D03*
X113179418Y-100808838D03*
X113179418Y-103348838D03*
X113179418Y-105888838D03*
X113179418Y-108428838D03*
X113179418Y-110968838D03*
X113179418Y-113508838D03*
X113179418Y-116048838D03*
X113179418Y-118588838D03*
X138579418Y-72868838D03*
X138579418Y-75408838D03*
X138579418Y-77948838D03*
X138579418Y-80488838D03*
X138579418Y-83028838D03*
X138579418Y-85568838D03*
X138579418Y-88108838D03*
X138579418Y-90648838D03*
X138579418Y-93188838D03*
X138579418Y-95728838D03*
X138579418Y-98268838D03*
X138579418Y-100808838D03*
X138579418Y-103348838D03*
X138579418Y-105888838D03*
X138579418Y-108428838D03*
X138579418Y-110968838D03*
X138579418Y-113508838D03*
X138579418Y-116048838D03*
X138579418Y-118588838D03*
%TD*%
D24*
%TO.C,J7*%
X124825000Y-36800000D03*
D25*
X122285000Y-36800000D03*
X119745000Y-36800000D03*
X117205000Y-36800000D03*
X114665000Y-36800000D03*
X112125000Y-36800000D03*
X109585000Y-36800000D03*
%TD*%
D28*
%TO.C,TB_A1*%
X107720000Y-52487102D03*
X110260000Y-52487102D03*
X112800000Y-52487102D03*
X107720000Y-57567102D03*
X110260000Y-57567102D03*
X112800000Y-57567102D03*
%TD*%
D23*
%TO.C,H3*%
X148500000Y-119600000D03*
%TD*%
D20*
%TO.C,J12*%
X144122544Y-52166000D03*
D21*
X144122544Y-49626000D03*
X144122544Y-47086000D03*
X144122544Y-44546000D03*
X144122544Y-42006000D03*
%TD*%
D24*
%TO.C,J15*%
X93340000Y-115555000D03*
D25*
X93340000Y-113015000D03*
X93340000Y-110475000D03*
%TD*%
D23*
%TO.C,H4*%
X148500000Y-31950000D03*
%TD*%
D13*
%TO.C,J1*%
X108179418Y-72868838D03*
X108179418Y-75408838D03*
X108179418Y-77948838D03*
X108179418Y-80488838D03*
X108179418Y-83028838D03*
X108179418Y-85568838D03*
X108179418Y-88108838D03*
X108179418Y-90648838D03*
X108179418Y-93188838D03*
X108179418Y-95728838D03*
X108179418Y-98268838D03*
X108179418Y-100808838D03*
X108179418Y-103348838D03*
X108179418Y-105888838D03*
X108179418Y-108428838D03*
X108179418Y-110968838D03*
X108179418Y-113508838D03*
X108179418Y-116048838D03*
X108179418Y-118588838D03*
%TD*%
D10*
%TO.C,J4*%
X141510000Y-62120000D03*
D11*
X144050000Y-62120000D03*
X146590000Y-62120000D03*
%TD*%
M02*
