M48
; DRILL file {KiCad 6.0.1-79c1e3a40b~116~ubuntu20.04.1} date Tue Nov 22 21:03:45 2022
; FORMAT={-:-/ absolute / metric / decimal}
; #@! TF.CreationDate,2022-11-22T21:03:45+05:30
; #@! TF.GenerationSoftware,Kicad,Pcbnew,6.0.1-79c1e3a40b~116~ubuntu20.04.1
; #@! TF.FileFunction,MixedPlating,1,2
FMAT,2
METRIC
; #@! TA.AperFunction,Plated,PTH,ViaDrill
T1C0.400
; #@! TA.AperFunction,Plated,PTH,ComponentDrill
T2C0.711
; #@! TA.AperFunction,Plated,PTH,ComponentDrill
T3C0.800
; #@! TA.AperFunction,Plated,PTH,ComponentDrill
T4C0.813
; #@! TA.AperFunction,Plated,PTH,ComponentDrill
T5C1.000
; #@! TA.AperFunction,Plated,PTH,ComponentDrill
T6C1.016
; #@! TA.AperFunction,Plated,PTH,ComponentDrill
T7C1.040
; #@! TA.AperFunction,Plated,PTH,ComponentDrill
T8C1.100
; #@! TA.AperFunction,Plated,PTH,ComponentDrill
T9C1.300
; #@! TA.AperFunction,Plated,PTH,ComponentDrill
T10C1.320
; #@! TA.AperFunction,Plated,PTH,ComponentDrill
T11C1.520
; #@! TA.AperFunction,NonPlated,NPTH,ComponentDrill
T12C3.200
%
G90
G05
T1
X82.8Y-37.5
X82.8Y-40.1
X82.8Y-43.4
X83.505Y-46.955
X94.2Y-33.16
X94.2Y-35.7
X94.2Y-38.24
X96.66Y-45.115
X96.74Y-33.16
X96.74Y-35.7
X96.74Y-38.24
X99.28Y-33.16
X99.28Y-35.7
X99.28Y-38.24
X100.06Y-45.115
X100.087Y-63.52
X100.9Y-71.5
X105.5Y-63.38
X105.5Y-65.68
X110.88Y-44.58
X111.88Y-62.8
X111.88Y-65.62
X112.69Y-70.29
X112.99Y-44.57
X116.549Y-50.4
X117.219Y-53.0
X117.32Y-54.2
X117.68Y-42.97
X119.05Y-61.75
X119.07Y-58.71
X119.08Y-50.29
X120.25Y-43.01
X120.97Y-53.57
X121.5Y-50.3
X121.599Y-55.87
X122.73Y-43.0
X124.0Y-50.3
X125.21Y-42.98
X126.3Y-52.9
X126.3Y-58.71
X127.61Y-81.15
X127.62Y-65.0
X127.73Y-42.99
X128.97Y-54.17
X129.0Y-52.9
X129.02Y-58.71
X130.2Y-42.98
X131.8Y-63.6
X132.71Y-42.97
X133.275Y-63.875
X135.18Y-43.02
X136.203Y-58.716
X136.22Y-52.82
X136.4Y-91.0
X139.5Y-49.1
X140.17Y-54.43
T2
X73.665Y-61.28
X78.715Y-61.28
X83.485Y-61.28
X88.535Y-61.28
T4
X83.12Y-66.602
X83.12Y-71.682
X85.66Y-66.602
X85.66Y-71.682
X88.2Y-66.602
X88.2Y-71.682
X92.26Y-66.66
X92.26Y-71.74
X94.8Y-66.66
X94.8Y-71.74
X97.34Y-66.66
X97.34Y-71.74
X107.72Y-52.487
X107.72Y-57.567
X110.26Y-52.487
X110.26Y-57.567
X112.8Y-52.487
X112.8Y-57.567
T5
X93.34Y-110.475
X93.34Y-113.015
X93.34Y-115.555
X95.94Y-110.475
X95.94Y-113.015
X95.94Y-115.555
X109.585Y-36.8
X112.125Y-36.8
X114.665Y-36.8
X117.205Y-36.8
X119.745Y-36.8
X122.285Y-36.8
X124.825Y-36.8
X129.92Y-36.79
X132.46Y-36.79
X135.0Y-36.79
X137.54Y-36.79
X140.08Y-36.79
X142.62Y-36.79
X147.55Y-98.978
X147.55Y-101.518
X147.55Y-104.058
X147.55Y-106.598
X147.55Y-109.138
T6
X108.179Y-72.869
X108.179Y-75.409
X108.179Y-77.949
X108.179Y-80.489
X108.179Y-83.029
X108.179Y-85.569
X108.179Y-88.109
X108.179Y-90.649
X108.179Y-93.189
X108.179Y-95.729
X108.179Y-98.269
X108.179Y-100.809
X108.179Y-103.349
X108.179Y-105.889
X108.179Y-108.429
X108.179Y-110.969
X108.179Y-113.509
X108.179Y-116.049
X108.179Y-118.589
X141.333Y-41.998
X141.333Y-44.538
X141.333Y-47.078
X141.333Y-49.618
X141.333Y-52.158
X141.51Y-62.12
X141.52Y-56.51
X141.52Y-59.31
X141.52Y-64.934
X143.569Y-72.869
X143.569Y-75.409
X143.569Y-77.949
X143.569Y-80.489
X143.569Y-83.029
X143.569Y-85.569
X143.569Y-88.109
X143.569Y-90.649
X143.569Y-93.189
X143.569Y-95.729
X143.569Y-98.269
X143.569Y-100.809
X143.569Y-103.349
X143.569Y-105.889
X143.569Y-108.429
X143.569Y-110.969
X143.569Y-113.509
X143.569Y-116.049
X143.569Y-118.589
X144.05Y-62.12
X144.06Y-56.51
X144.06Y-59.31
X144.06Y-64.934
X144.123Y-42.006
X144.123Y-44.546
X144.123Y-47.086
X144.123Y-49.626
X144.123Y-52.166
X146.59Y-62.12
X146.6Y-56.51
X146.6Y-59.31
X146.6Y-64.934
X146.9Y-42.0
X146.9Y-44.54
X146.9Y-47.08
X146.9Y-49.62
X146.9Y-52.16
X147.48Y-77.96
X147.48Y-80.5
X147.48Y-83.04
X147.48Y-85.58
T7
X113.179Y-72.869
X113.179Y-75.409
X113.179Y-77.949
X113.179Y-80.489
X113.179Y-83.029
X113.179Y-85.569
X113.179Y-88.109
X113.179Y-90.649
X113.179Y-93.189
X113.179Y-95.729
X113.179Y-98.269
X113.179Y-100.809
X113.179Y-103.349
X113.179Y-105.889
X113.179Y-108.429
X113.179Y-110.969
X113.179Y-113.509
X113.179Y-116.049
X113.179Y-118.589
X138.579Y-72.869
X138.579Y-75.409
X138.579Y-77.949
X138.579Y-80.489
X138.579Y-83.029
X138.579Y-85.569
X138.579Y-88.109
X138.579Y-90.649
X138.579Y-93.189
X138.579Y-95.729
X138.579Y-98.269
X138.579Y-100.809
X138.579Y-103.349
X138.579Y-105.889
X138.579Y-108.429
X138.579Y-110.969
X138.579Y-113.509
X138.579Y-116.049
X138.579Y-118.589
T8
X88.05Y-98.31
X88.05Y-100.85
X88.05Y-103.39
X88.05Y-105.93
X88.05Y-108.47
X88.05Y-111.01
X88.05Y-113.55
X88.05Y-116.09
X100.75Y-98.31
X100.75Y-100.85
X100.75Y-103.39
X100.75Y-105.93
X100.75Y-108.47
X100.75Y-111.01
X100.75Y-113.55
X100.75Y-116.09
T9
X76.27Y-50.054
X76.27Y-55.054
T10
X86.72Y-76.428
X86.72Y-78.968
X86.72Y-81.508
X86.72Y-84.048
X86.72Y-86.588
X86.72Y-89.128
X86.72Y-91.668
X86.72Y-94.208
X101.96Y-76.428
X101.96Y-78.968
X101.96Y-81.508
X101.96Y-84.048
X101.96Y-86.588
X101.96Y-89.128
X101.96Y-91.668
X101.96Y-94.208
T11
X76.2Y-72.39
X76.2Y-77.47
X76.2Y-82.55
X76.2Y-87.63
X76.2Y-92.71
X76.2Y-98.48
X76.2Y-103.56
X76.2Y-108.64
X76.2Y-113.72
T12
X72.35Y-31.95
X72.35Y-119.6
X148.5Y-31.95
X148.5Y-119.6
T3
G00X72.78Y-39.3
M15
G01X72.78Y-41.5
M16
G05
G00X74.48Y-45.2
M15
G01X76.68Y-45.2
M16
G05
G00X78.58Y-39.1
M15
G01X78.58Y-41.7
M16
G05
T5
G00X147.55Y-111.678
M15
G01X147.55Y-111.678
M16
G05
T0
M30
