%TF.GenerationSoftware,KiCad,Pcbnew,6.0.11-2627ca5db0~126~ubuntu22.04.1*%
%TF.CreationDate,2023-02-21T15:55:07+05:30*%
%TF.ProjectId,sra_dev_board_2023,7372615f-6465-4765-9f62-6f6172645f32,rev?*%
%TF.SameCoordinates,Original*%
%TF.FileFunction,Soldermask,Top*%
%TF.FilePolarity,Negative*%
%FSLAX46Y46*%
G04 Gerber Fmt 4.6, Leading zero omitted, Abs format (unit mm)*
G04 Created by KiCad (PCBNEW 6.0.11-2627ca5db0~126~ubuntu22.04.1) date 2023-02-21 15:55:07*
%MOMM*%
%LPD*%
G01*
G04 APERTURE LIST*
G04 Aperture macros list*
%AMRoundRect*
0 Rectangle with rounded corners*
0 $1 Rounding radius*
0 $2 $3 $4 $5 $6 $7 $8 $9 X,Y pos of 4 corners*
0 Add a 4 corners polygon primitive as box body*
4,1,4,$2,$3,$4,$5,$6,$7,$8,$9,$2,$3,0*
0 Add four circle primitives for the rounded corners*
1,1,$1+$1,$2,$3*
1,1,$1+$1,$4,$5*
1,1,$1+$1,$6,$7*
1,1,$1+$1,$8,$9*
0 Add four rect primitives between the rounded corners*
20,1,$1+$1,$2,$3,$4,$5,0*
20,1,$1+$1,$4,$5,$6,$7,0*
20,1,$1+$1,$6,$7,$8,$9,0*
20,1,$1+$1,$8,$9,$2,$3,0*%
%AMFreePoly0*
4,1,25,0.440719,0.844196,0.452842,0.833842,0.833842,0.452842,0.862349,0.396894,0.863600,0.381000,0.863600,-0.381000,0.844196,-0.440719,0.833842,-0.452842,0.452842,-0.833842,0.396894,-0.862349,0.381000,-0.863600,-0.381000,-0.863600,-0.440719,-0.844196,-0.452842,-0.833842,-0.833842,-0.452842,-0.862349,-0.396894,-0.863600,-0.381000,-0.863600,0.381000,-0.844196,0.440719,-0.833842,0.452842,
-0.452842,0.833842,-0.396894,0.862349,-0.381000,0.863600,0.381000,0.863600,0.440719,0.844196,0.440719,0.844196,$1*%
G04 Aperture macros list end*
%ADD10RoundRect,0.200000X0.275000X-0.200000X0.275000X0.200000X-0.275000X0.200000X-0.275000X-0.200000X0*%
%ADD11RoundRect,0.101600X0.762000X-0.762000X0.762000X0.762000X-0.762000X0.762000X-0.762000X-0.762000X0*%
%ADD12FreePoly0,90.000000*%
%ADD13C,2.153200*%
%ADD14O,3.251200X1.727200*%
%ADD15R,1.530000X1.530000*%
%ADD16C,1.530000*%
%ADD17R,3.000000X3.000000*%
%ADD18C,3.000000*%
%ADD19O,3.000000X1.500000*%
%ADD20O,3.000000X1.540000*%
%ADD21RoundRect,0.101600X0.762000X0.762000X-0.762000X0.762000X-0.762000X-0.762000X0.762000X-0.762000X0*%
%ADD22FreePoly0,180.000000*%
%ADD23RoundRect,0.225000X0.250000X-0.225000X0.250000X0.225000X-0.250000X0.225000X-0.250000X-0.225000X0*%
%ADD24RoundRect,0.250000X-0.550000X1.500000X-0.550000X-1.500000X0.550000X-1.500000X0.550000X1.500000X0*%
%ADD25R,1.800000X2.500000*%
%ADD26C,3.200000*%
%ADD27RoundRect,0.218750X-0.256250X0.218750X-0.256250X-0.218750X0.256250X-0.218750X0.256250X0.218750X0*%
%ADD28R,1.700000X1.700000*%
%ADD29O,1.700000X1.700000*%
%ADD30C,1.800000*%
%ADD31R,2.300000X2.500000*%
%ADD32RoundRect,0.200000X-0.275000X0.200000X-0.275000X-0.200000X0.275000X-0.200000X0.275000X0.200000X0*%
%ADD33RoundRect,0.255000X-1.995000X-1.020000X1.995000X-1.020000X1.995000X1.020000X-1.995000X1.020000X0*%
%ADD34RoundRect,0.245000X-2.005000X-0.980000X2.005000X-0.980000X2.005000X0.980000X-2.005000X0.980000X0*%
%ADD35R,2.500000X2.300000*%
%ADD36R,1.600000X1.400000*%
%ADD37C,1.219000*%
%ADD38O,1.524000X2.844800*%
%ADD39RoundRect,0.218750X-0.218750X-0.256250X0.218750X-0.256250X0.218750X0.256250X-0.218750X0.256250X0*%
%ADD40RoundRect,0.200000X0.200000X0.275000X-0.200000X0.275000X-0.200000X-0.275000X0.200000X-0.275000X0*%
%ADD41RoundRect,0.250000X0.625000X-0.312500X0.625000X0.312500X-0.625000X0.312500X-0.625000X-0.312500X0*%
%ADD42R,1.800000X4.400000*%
%ADD43O,1.800000X4.000000*%
%ADD44O,4.000000X1.800000*%
%ADD45RoundRect,0.200000X-0.200000X-0.275000X0.200000X-0.275000X0.200000X0.275000X-0.200000X0.275000X0*%
%ADD46RoundRect,0.250000X1.500000X0.550000X-1.500000X0.550000X-1.500000X-0.550000X1.500000X-0.550000X0*%
%ADD47RoundRect,0.101600X-0.780000X-0.780000X0.780000X-0.780000X0.780000X0.780000X-0.780000X0.780000X0*%
%ADD48C,1.879600*%
%ADD49R,2.500000X1.800000*%
%ADD50R,4.194800X5.405100*%
%ADD51R,4.094800X5.305100*%
%ADD52RoundRect,0.225000X0.225000X0.250000X-0.225000X0.250000X-0.225000X-0.250000X0.225000X-0.250000X0*%
%ADD53C,2.250000*%
%ADD54R,2.000000X1.500000*%
%ADD55R,2.000000X3.800000*%
%ADD56R,1.100000X4.600000*%
%ADD57R,10.800000X9.400000*%
%ADD58RoundRect,0.218750X0.218750X0.256250X-0.218750X0.256250X-0.218750X-0.256250X0.218750X-0.256250X0*%
G04 APERTURE END LIST*
D10*
%TO.C,R7*%
X132680000Y-45896250D03*
X132680000Y-44246250D03*
%TD*%
D11*
%TO.C,J10*%
X141520000Y-56510000D03*
D12*
X144060000Y-56510000D03*
X146600000Y-56510000D03*
%TD*%
D13*
%TO.C,T3*%
X76270000Y-55053723D03*
X76270000Y-50053723D03*
%TD*%
D14*
%TO.C,J5*%
X143569418Y-118588838D03*
X143569418Y-116048838D03*
X143569418Y-113508838D03*
X143569418Y-110968838D03*
X143569418Y-108428838D03*
X143569418Y-105888838D03*
X143569418Y-103348838D03*
X143569418Y-100808838D03*
X143569418Y-98268838D03*
X143569418Y-95728838D03*
X143569418Y-93188838D03*
X143569418Y-90648838D03*
X143569418Y-88108838D03*
X143569418Y-85568838D03*
X143569418Y-83028838D03*
X143569418Y-80488838D03*
X143569418Y-77948838D03*
X143569418Y-75408838D03*
X143569418Y-72868838D03*
%TD*%
D15*
%TO.C,U4*%
X100750000Y-116090000D03*
D16*
X100750000Y-113550000D03*
X100750000Y-111010000D03*
X100750000Y-108470000D03*
X100750000Y-105930000D03*
X100750000Y-103390000D03*
X100750000Y-100850000D03*
X100750000Y-98310000D03*
X88050000Y-98310000D03*
X88050000Y-100850000D03*
X88050000Y-103390000D03*
X88050000Y-105930000D03*
X88050000Y-108470000D03*
X88050000Y-111010000D03*
X88050000Y-113550000D03*
X88050000Y-116090000D03*
%TD*%
D17*
%TO.C,J16*%
X76200000Y-72390000D03*
D18*
X76200000Y-77470000D03*
X76200000Y-82550000D03*
X76200000Y-87630000D03*
X76200000Y-92710000D03*
%TD*%
D19*
%TO.C,J17*%
X147550000Y-111677727D03*
X147550000Y-109137727D03*
X147550000Y-106597727D03*
X147550000Y-104057727D03*
D20*
X147550000Y-101517727D03*
D19*
X147550000Y-98977727D03*
%TD*%
D10*
%TO.C,R1*%
X117720000Y-45912500D03*
X117720000Y-44262500D03*
%TD*%
D21*
%TO.C,J11*%
X141332544Y-52158000D03*
D22*
X141332544Y-49618000D03*
X141332544Y-47078000D03*
X141332544Y-44538000D03*
X141332544Y-41998000D03*
%TD*%
D23*
%TO.C,C5*%
X102975000Y-66575000D03*
X102975000Y-65025000D03*
%TD*%
D24*
%TO.C,C7*%
X94600000Y-99100000D03*
X94600000Y-104500000D03*
%TD*%
D25*
%TO.C,D13*%
X87800000Y-52200000D03*
X87800000Y-56200000D03*
%TD*%
D26*
%TO.C,H2*%
X72350000Y-119600000D03*
%TD*%
D17*
%TO.C,T2*%
X76200000Y-98480000D03*
D18*
X76200000Y-103560000D03*
X76200000Y-108640000D03*
X76200000Y-113720000D03*
%TD*%
D27*
%TO.C,D2*%
X120250000Y-47683750D03*
X120250000Y-49258750D03*
%TD*%
D28*
%TO.C,J8*%
X129920000Y-36790000D03*
D29*
X132460000Y-36790000D03*
X135000000Y-36790000D03*
X137540000Y-36790000D03*
X140080000Y-36790000D03*
X142620000Y-36790000D03*
%TD*%
D30*
%TO.C,U3*%
X86720000Y-76427582D03*
X86720000Y-78967582D03*
X86720000Y-81507582D03*
X86720000Y-84047582D03*
X86720000Y-86587582D03*
X86720000Y-89127582D03*
X86720000Y-91667582D03*
X86720000Y-94207582D03*
X101960000Y-94207582D03*
X101960000Y-91667582D03*
X101960000Y-89127582D03*
X101960000Y-86587582D03*
X101960000Y-84047582D03*
X101960000Y-81507582D03*
X101960000Y-78967582D03*
X101960000Y-76427582D03*
%TD*%
D21*
%TO.C,J13*%
X146900000Y-52160000D03*
D22*
X146900000Y-49620000D03*
X146900000Y-47080000D03*
X146900000Y-44540000D03*
X146900000Y-42000000D03*
%TD*%
D31*
%TO.C,D9*%
X83400000Y-56230000D03*
X83400000Y-51930000D03*
%TD*%
D27*
%TO.C,D4*%
X125220000Y-47692500D03*
X125220000Y-49267500D03*
%TD*%
D32*
%TO.C,R15*%
X137500000Y-44275000D03*
X137500000Y-45925000D03*
%TD*%
D33*
%TO.C,C2*%
X104952500Y-44575000D03*
D34*
X112452500Y-44625000D03*
%TD*%
D35*
%TO.C,D14*%
X87850000Y-47000000D03*
X83550000Y-47000000D03*
%TD*%
D10*
%TO.C,R6*%
X130180000Y-45896250D03*
X130180000Y-44246250D03*
%TD*%
D36*
%TO.C,SW2*%
X126270000Y-58740000D03*
X119070000Y-58740000D03*
X126270000Y-61740000D03*
X119070000Y-61740000D03*
%TD*%
D10*
%TO.C,R4*%
X125220000Y-45905000D03*
X125220000Y-44255000D03*
%TD*%
D37*
%TO.C,F2*%
X83485000Y-61280000D03*
X88535000Y-61280000D03*
%TD*%
D11*
%TO.C,J3*%
X141520000Y-64934000D03*
D12*
X144060000Y-64934000D03*
X146600000Y-64934000D03*
%TD*%
D27*
%TO.C,D6*%
X130180000Y-47683750D03*
X130180000Y-49258750D03*
%TD*%
%TO.C,D1*%
X117740000Y-47700000D03*
X117740000Y-49275000D03*
%TD*%
D38*
%TO.C,12V_SW1*%
X83120000Y-66602369D03*
X85660000Y-66602369D03*
X88200000Y-66602369D03*
X83120000Y-71682369D03*
X85660000Y-71682369D03*
X88200000Y-71682369D03*
%TD*%
D10*
%TO.C,R2*%
X120250000Y-45896250D03*
X120250000Y-44246250D03*
%TD*%
D28*
%TO.C,J14*%
X95940000Y-115555000D03*
D29*
X95940000Y-113015000D03*
X95940000Y-110475000D03*
%TD*%
D38*
%TO.C,5V_SW1*%
X92260000Y-66660000D03*
X94800000Y-66660000D03*
X97340000Y-66660000D03*
X92260000Y-71740000D03*
X94800000Y-71740000D03*
X97340000Y-71740000D03*
%TD*%
D27*
%TO.C,D7*%
X132680000Y-47683750D03*
X132680000Y-49258750D03*
%TD*%
D39*
%TO.C,D11*%
X109925000Y-61090000D03*
X111500000Y-61090000D03*
%TD*%
D37*
%TO.C,F1*%
X78715000Y-61280000D03*
X73665000Y-61280000D03*
%TD*%
D10*
%TO.C,R3*%
X122730000Y-45896250D03*
X122730000Y-44246250D03*
%TD*%
D11*
%TO.C,J2*%
X141520000Y-59310000D03*
D12*
X144060000Y-59310000D03*
X146600000Y-59310000D03*
%TD*%
D10*
%TO.C,R8*%
X135190000Y-45896250D03*
X135190000Y-44246250D03*
%TD*%
D26*
%TO.C,H1*%
X72350000Y-31950000D03*
%TD*%
D14*
%TO.C,J9*%
X147480000Y-85580000D03*
X147480000Y-83040000D03*
X147480000Y-80500000D03*
X147480000Y-77960000D03*
%TD*%
D36*
%TO.C,SW4*%
X136203500Y-52850000D03*
X129003500Y-52850000D03*
X136203500Y-55850000D03*
X129003500Y-55850000D03*
%TD*%
D27*
%TO.C,D3*%
X122730000Y-47683750D03*
X122730000Y-49258750D03*
%TD*%
D40*
%TO.C,R10*%
X108135000Y-61090000D03*
X106485000Y-61090000D03*
%TD*%
D41*
%TO.C,R14*%
X95100000Y-89492500D03*
X95100000Y-86567500D03*
%TD*%
D27*
%TO.C,D8*%
X135190000Y-47683750D03*
X135190000Y-49258750D03*
%TD*%
D36*
%TO.C,SW1*%
X126274490Y-52860000D03*
X119074490Y-52860000D03*
X126274490Y-55860000D03*
X119074490Y-55860000D03*
%TD*%
D41*
%TO.C,R12*%
X95080000Y-84062500D03*
X95080000Y-81137500D03*
%TD*%
D23*
%TO.C,C4*%
X101200000Y-66575000D03*
X101200000Y-65025000D03*
%TD*%
D42*
%TO.C,J6*%
X78580000Y-40400000D03*
D43*
X72780000Y-40400000D03*
D44*
X75580000Y-45200000D03*
%TD*%
D45*
%TO.C,R9*%
X109175000Y-70290000D03*
X110825000Y-70290000D03*
%TD*%
D46*
%TO.C,C1*%
X88200000Y-40100000D03*
X82800000Y-40100000D03*
%TD*%
D47*
%TO.C,U1*%
X113179418Y-72868838D03*
D48*
X113179418Y-75408838D03*
X113179418Y-77948838D03*
X113179418Y-80488838D03*
X113179418Y-83028838D03*
X113179418Y-85568838D03*
X113179418Y-88108838D03*
X113179418Y-90648838D03*
X113179418Y-93188838D03*
X113179418Y-95728838D03*
X113179418Y-98268838D03*
X113179418Y-100808838D03*
X113179418Y-103348838D03*
X113179418Y-105888838D03*
X113179418Y-108428838D03*
X113179418Y-110968838D03*
X113179418Y-113508838D03*
X113179418Y-116048838D03*
X113179418Y-118588838D03*
X138579418Y-72868838D03*
X138579418Y-75408838D03*
X138579418Y-77948838D03*
X138579418Y-80488838D03*
X138579418Y-83028838D03*
X138579418Y-85568838D03*
X138579418Y-88108838D03*
X138579418Y-90648838D03*
X138579418Y-93188838D03*
X138579418Y-95728838D03*
X138579418Y-98268838D03*
X138579418Y-100808838D03*
X138579418Y-103348838D03*
X138579418Y-105888838D03*
X138579418Y-108428838D03*
X138579418Y-110968838D03*
X138579418Y-113508838D03*
X138579418Y-116048838D03*
X138579418Y-118588838D03*
%TD*%
D28*
%TO.C,J7*%
X124825000Y-36800000D03*
D29*
X122285000Y-36800000D03*
X119745000Y-36800000D03*
X117205000Y-36800000D03*
X114665000Y-36800000D03*
X112125000Y-36800000D03*
X109585000Y-36800000D03*
%TD*%
D41*
%TO.C,R11*%
X98070000Y-84052500D03*
X98070000Y-81127500D03*
%TD*%
D49*
%TO.C,D12*%
X87400000Y-33700000D03*
X83400000Y-33700000D03*
%TD*%
D36*
%TO.C,SW3*%
X136200000Y-58720000D03*
X129000000Y-58720000D03*
X136200000Y-61720000D03*
X129000000Y-61720000D03*
%TD*%
D38*
%TO.C,TB_A1*%
X107720000Y-52487102D03*
X110260000Y-52487102D03*
X112800000Y-52487102D03*
X107720000Y-57567102D03*
X110260000Y-57567102D03*
X112800000Y-57567102D03*
%TD*%
D27*
%TO.C,D5*%
X127700000Y-47683750D03*
X127700000Y-49258750D03*
%TD*%
D26*
%TO.C,H3*%
X148500000Y-119600000D03*
%TD*%
D50*
%TO.C,L1*%
X92288135Y-55382550D03*
D51*
X103443335Y-55432550D03*
%TD*%
D52*
%TO.C,C6*%
X103000000Y-68500000D03*
X101450000Y-68500000D03*
%TD*%
%TO.C,C3*%
X103000000Y-70200000D03*
X101450000Y-70200000D03*
%TD*%
D53*
%TO.C,REF\u002A\u002A*%
X147470000Y-115260000D03*
%TD*%
D54*
%TO.C,U2*%
X105500000Y-63380000D03*
X105500000Y-65680000D03*
D55*
X111800000Y-65680000D03*
D54*
X105500000Y-67980000D03*
%TD*%
D41*
%TO.C,R13*%
X98100000Y-89502500D03*
X98100000Y-86577500D03*
%TD*%
D56*
%TO.C,U5*%
X93260000Y-45115000D03*
X94960000Y-45115000D03*
D57*
X96660000Y-35965000D03*
D56*
X96660000Y-45115000D03*
X98360000Y-45115000D03*
X100060000Y-45115000D03*
%TD*%
D21*
%TO.C,J12*%
X144122544Y-52166000D03*
D22*
X144122544Y-49626000D03*
X144122544Y-47086000D03*
X144122544Y-44546000D03*
X144122544Y-42006000D03*
%TD*%
D10*
%TO.C,R5*%
X127700000Y-45896250D03*
X127700000Y-44246250D03*
%TD*%
D53*
%TO.C,REF\u002A\u002A*%
X78000000Y-32100000D03*
%TD*%
D58*
%TO.C,D10*%
X106537500Y-70290000D03*
X104962500Y-70290000D03*
%TD*%
D28*
%TO.C,J15*%
X93340000Y-115555000D03*
D29*
X93340000Y-113015000D03*
X93340000Y-110475000D03*
%TD*%
D26*
%TO.C,H4*%
X148500000Y-31950000D03*
%TD*%
D14*
%TO.C,J1*%
X108179418Y-72868838D03*
X108179418Y-75408838D03*
X108179418Y-77948838D03*
X108179418Y-80488838D03*
X108179418Y-83028838D03*
X108179418Y-85568838D03*
X108179418Y-88108838D03*
X108179418Y-90648838D03*
X108179418Y-93188838D03*
X108179418Y-95728838D03*
X108179418Y-98268838D03*
X108179418Y-100808838D03*
X108179418Y-103348838D03*
X108179418Y-105888838D03*
X108179418Y-108428838D03*
X108179418Y-110968838D03*
X108179418Y-113508838D03*
X108179418Y-116048838D03*
X108179418Y-118588838D03*
%TD*%
D11*
%TO.C,J4*%
X141510000Y-62120000D03*
D12*
X144050000Y-62120000D03*
X146590000Y-62120000D03*
%TD*%
M02*
