M48
; DRILL file {KiCad 6.0.1-79c1e3a40b~116~ubuntu20.04.1} date Tue Feb  1 00:48:40 2022
; FORMAT={-:-/ absolute / metric / decimal}
; #@! TF.CreationDate,2022-02-01T00:48:40+05:30
; #@! TF.GenerationSoftware,Kicad,Pcbnew,6.0.1-79c1e3a40b~116~ubuntu20.04.1
; #@! TF.FileFunction,MixedPlating,1,2
FMAT,2
METRIC
; #@! TA.AperFunction,Plated,PTH,ViaDrill
T1C0.400
; #@! TA.AperFunction,Plated,PTH,ComponentDrill
T2C0.711
; #@! TA.AperFunction,Plated,PTH,ComponentDrill
T3C0.800
; #@! TA.AperFunction,Plated,PTH,ComponentDrill
T4C0.813
; #@! TA.AperFunction,Plated,PTH,ComponentDrill
T5C1.000
; #@! TA.AperFunction,Plated,PTH,ComponentDrill
T6C1.016
; #@! TA.AperFunction,Plated,PTH,ComponentDrill
T7C1.040
; #@! TA.AperFunction,Plated,PTH,ComponentDrill
T8C1.300
; #@! TA.AperFunction,Plated,PTH,ComponentDrill
T9C1.320
; #@! TA.AperFunction,NonPlated,NPTH,ComponentDrill
T10C3.200
%
G90
G05
T1
X82.8Y-37.5
X82.8Y-40.1
X82.8Y-43.4
X83.505Y-46.955
X91.3Y-69.1
X91.3Y-70.9
X92.2Y-64.5
X94.1Y-64.5
X94.2Y-33.16
X94.2Y-35.7
X94.2Y-38.24
X96.66Y-45.115
X96.7Y-66.18
X96.74Y-33.16
X96.74Y-35.7
X96.74Y-38.24
X99.28Y-33.16
X99.28Y-35.7
X99.28Y-38.24
X100.06Y-45.115
X102.0Y-71.6
X103.08Y-65.6
X103.08Y-68.42
X110.88Y-44.58
X112.99Y-44.57
X117.204Y-63.247
X117.3Y-51.7
X117.32Y-53.09
X117.38Y-64.23
X117.68Y-42.97
X119.07Y-63.25
X120.25Y-43.01
X120.85Y-57.929
X121.5Y-50.3
X121.599Y-55.87
X122.37Y-63.9
X122.73Y-43.0
X124.0Y-50.3
X125.21Y-42.98
X126.25Y-63.15
X126.274Y-57.256
X126.5Y-50.3
X127.62Y-65.0
X127.73Y-42.99
X127.75Y-81.19
X129.0Y-50.3
X130.2Y-42.98
X131.4Y-50.3
X132.71Y-42.97
X133.3Y-63.9
X134.0Y-61.7
X137.249Y-44.25
X137.25Y-50.74
X137.7Y-63.8
T2
X73.665Y-61.28
X78.715Y-61.28
X83.485Y-61.28
X88.535Y-61.28
T4
X73.68Y-66.762
X73.68Y-71.842
X76.22Y-66.762
X76.22Y-71.842
X78.76Y-66.762
X78.76Y-71.842
X83.4Y-66.77
X83.4Y-71.85
X85.94Y-66.77
X85.94Y-71.85
X88.48Y-66.77
X88.48Y-71.85
X107.72Y-52.487
X107.72Y-57.567
X107.78Y-61.657
X107.78Y-66.737
X110.26Y-52.487
X110.26Y-57.567
X110.32Y-61.657
X110.32Y-66.737
X112.8Y-52.487
X112.8Y-57.567
X112.86Y-61.657
X112.86Y-66.737
T5
X110.19Y-36.78
X112.73Y-36.78
X115.27Y-36.78
X117.81Y-36.78
X120.35Y-36.78
X122.89Y-36.78
X129.92Y-36.79
X132.46Y-36.79
X135.0Y-36.79
X137.54Y-36.79
X140.08Y-36.79
X142.62Y-36.79
T6
X108.179Y-72.869
X108.179Y-75.409
X108.179Y-77.949
X108.179Y-80.489
X108.179Y-83.029
X108.179Y-85.569
X108.179Y-88.109
X108.179Y-90.649
X108.179Y-93.189
X108.179Y-95.729
X108.179Y-98.269
X108.179Y-100.809
X108.179Y-103.349
X108.179Y-105.889
X108.179Y-108.429
X108.179Y-110.969
X108.179Y-113.509
X108.179Y-116.049
X108.179Y-118.589
X141.25Y-59.66
X141.26Y-56.85
X141.26Y-62.474
X141.333Y-41.998
X141.333Y-44.538
X141.333Y-47.078
X141.333Y-49.618
X141.333Y-52.158
X143.569Y-72.869
X143.569Y-75.409
X143.569Y-77.949
X143.569Y-80.489
X143.569Y-83.029
X143.569Y-85.569
X143.569Y-88.109
X143.569Y-90.649
X143.569Y-93.189
X143.569Y-95.729
X143.569Y-98.269
X143.569Y-100.809
X143.569Y-103.349
X143.569Y-105.889
X143.569Y-108.429
X143.569Y-110.969
X143.569Y-113.509
X143.569Y-116.049
X143.569Y-118.589
X143.79Y-59.66
X143.8Y-56.85
X143.8Y-62.474
X144.123Y-42.006
X144.123Y-44.546
X144.123Y-47.086
X144.123Y-49.626
X144.123Y-52.166
X146.33Y-59.66
X146.34Y-56.85
X146.34Y-62.474
X146.923Y-42.006
X146.923Y-44.546
X146.923Y-47.086
X146.923Y-49.626
X146.923Y-52.166
X147.48Y-77.96
X147.48Y-80.5
X147.48Y-83.04
X147.48Y-85.58
T7
X113.179Y-72.869
X113.179Y-75.409
X113.179Y-77.949
X113.179Y-80.489
X113.179Y-83.029
X113.179Y-85.569
X113.179Y-88.109
X113.179Y-90.649
X113.179Y-93.189
X113.179Y-95.729
X113.179Y-98.269
X113.179Y-100.809
X113.179Y-103.349
X113.179Y-105.889
X113.179Y-108.429
X113.179Y-110.969
X113.179Y-113.509
X113.179Y-116.049
X113.179Y-118.589
X138.579Y-72.869
X138.579Y-75.409
X138.579Y-77.949
X138.579Y-80.489
X138.579Y-83.029
X138.579Y-85.569
X138.579Y-88.109
X138.579Y-90.649
X138.579Y-93.189
X138.579Y-95.729
X138.579Y-98.269
X138.579Y-100.809
X138.579Y-103.349
X138.579Y-105.889
X138.579Y-108.429
X138.579Y-110.969
X138.579Y-113.509
X138.579Y-116.049
X138.579Y-118.589
T8
X76.21Y-77.579
X76.21Y-82.579
X76.21Y-87.579
X76.21Y-92.579
X76.21Y-98.464
X76.21Y-103.464
X76.21Y-108.464
X76.21Y-113.464
X76.27Y-50.054
X76.27Y-55.054
T9
X86.65Y-99.416
X86.65Y-101.956
X86.65Y-104.496
X86.65Y-107.036
X86.65Y-109.576
X86.65Y-112.116
X86.65Y-114.656
X86.65Y-117.196
X86.72Y-76.428
X86.72Y-78.968
X86.72Y-81.508
X86.72Y-84.048
X86.72Y-86.588
X86.72Y-89.128
X86.72Y-91.668
X86.72Y-94.208
X101.89Y-99.416
X101.89Y-101.956
X101.89Y-104.496
X101.89Y-107.036
X101.89Y-109.576
X101.89Y-112.116
X101.89Y-114.656
X101.89Y-117.196
X101.96Y-76.428
X101.96Y-78.968
X101.96Y-81.508
X101.96Y-84.048
X101.96Y-86.588
X101.96Y-89.128
X101.96Y-91.668
X101.96Y-94.208
T10
X72.35Y-31.95
X72.35Y-119.6
X148.5Y-31.95
X148.5Y-119.6
T3
G00X72.78Y-39.3
M15
G01X72.78Y-41.5
M16
G05
G00X74.48Y-45.2
M15
G01X76.68Y-45.2
M16
G05
G00X78.58Y-39.1
M15
G01X78.58Y-41.7
M16
G05
T0
M30
