M48
; DRILL file {KiCad 9.0.7-9.0.7~ubuntu22.04.1} date 2026-03-06T21:13:10+0530
; FORMAT={-:-/ absolute / metric / decimal}
; #@! TF.CreationDate,2026-03-06T21:13:10+05:30
; #@! TF.GenerationSoftware,Kicad,Pcbnew,9.0.7-9.0.7~ubuntu22.04.1
; #@! TF.FileFunction,Plated,1,2,PTH
FMAT,2
METRIC
; #@! TA.AperFunction,Plated,PTH,ViaDrill
T1C0.300
; #@! TA.AperFunction,Plated,PTH,ComponentDrill
T2C0.300
; #@! TA.AperFunction,Plated,PTH,ComponentDrill
T3C0.600
; #@! TA.AperFunction,Plated,PTH,ComponentDrill
T4C0.800
; #@! TA.AperFunction,Plated,PTH,ComponentDrill
T5C0.900
; #@! TA.AperFunction,Plated,PTH,ComponentDrill
T6C1.000
%
G90
G05
T1
X107.309Y-121.744
X107.384Y-116.594
X111.772Y-90.807
X114.659Y-116.669
X114.784Y-121.694
X117.897Y-77.707
X120.817Y-71.237
X120.897Y-87.807
X122.0Y-77.4
X123.397Y-123.097
X123.408Y-128.345
X123.447Y-79.207
X124.197Y-87.807
X125.4Y-60.0
X127.1Y-93.74
X127.16Y-95.57
X128.507Y-77.387
X129.4Y-69.8
X132.407Y-112.707
X134.527Y-118.997
X134.747Y-96.877
X136.6Y-90.6
X137.4Y-86.0
X139.59Y-126.84
X139.602Y-95.568
X139.68Y-87.18
X140.342Y-63.837
X142.922Y-115.902
X142.922Y-117.172
X142.922Y-118.442
X142.922Y-127.902
X142.922Y-129.172
X142.922Y-131.712
X142.922Y-132.982
X142.997Y-121.007
X144.65Y-95.56
X145.4Y-118.4
X145.8Y-109.0
X146.127Y-85.607
X146.4Y-116.2
X147.872Y-113.362
X147.872Y-114.632
X147.872Y-115.902
X147.872Y-117.172
X147.872Y-122.252
X148.867Y-85.557
X149.77Y-89.14
X150.767Y-76.757
X151.507Y-85.567
X153.515Y-114.69
X153.533Y-120.226
X155.447Y-100.807
X156.4Y-131.2
X156.717Y-95.857
X156.717Y-100.807
X157.242Y-110.962
X157.242Y-127.562
X157.4Y-88.2
X157.972Y-79.034
X157.987Y-100.807
X159.352Y-131.252
X160.527Y-95.857
X161.6Y-65.2
X161.797Y-95.857
X163.042Y-110.962
X163.067Y-100.807
X166.447Y-97.507
X166.69Y-78.71
X168.442Y-110.962
X170.8Y-93.2
X171.996Y-86.296
X172.337Y-95.857
X173.147Y-61.762
X173.607Y-95.857
X174.242Y-110.962
X174.242Y-116.362
X174.242Y-122.162
X174.877Y-100.807
X175.107Y-89.22
X175.797Y-66.607
X176.147Y-95.857
X176.147Y-100.807
X176.597Y-78.32
X176.83Y-88.52
X177.437Y-92.387
X177.787Y-103.157
X177.8Y-58.4
X178.047Y-61.762
X178.797Y-80.807
X179.057Y-93.267
X179.997Y-116.607
X180.042Y-111.162
X180.042Y-122.162
X181.8Y-94.0
X182.454Y-86.274
X183.597Y-121.857
X183.6Y-78.8
X183.897Y-116.561
X185.157Y-67.215
X185.642Y-111.162
X186.4Y-74.4
T2
X146.192Y-61.967
X146.192Y-63.367
X146.892Y-61.267
X146.892Y-62.667
X146.892Y-64.067
X147.592Y-61.967
X147.592Y-63.367
X148.292Y-61.267
X148.292Y-62.667
X148.292Y-64.067
X148.992Y-61.967
X148.992Y-63.367
T4
X101.197Y-72.757
X101.197Y-77.807
X101.197Y-83.757
X101.197Y-88.807
T5
X114.572Y-67.782
X114.572Y-73.782
X117.072Y-67.782
X117.072Y-73.782
X118.397Y-97.807
X118.397Y-103.807
X119.572Y-67.782
X119.572Y-73.782
X120.897Y-97.807
X120.897Y-103.807
X123.397Y-97.807
X123.397Y-103.807
T6
X101.367Y-94.837
X101.367Y-97.337
X101.397Y-64.282
X101.397Y-66.782
X101.397Y-103.507
X101.397Y-106.007
X101.657Y-111.247
X101.657Y-126.741
X104.197Y-111.247
X104.197Y-126.741
X106.737Y-111.247
X106.737Y-126.741
X109.277Y-111.247
X109.277Y-126.741
X111.817Y-111.247
X111.817Y-126.741
X112.449Y-136.043
X112.46Y-139.66
X112.56Y-132.41
X114.357Y-111.247
X114.357Y-126.741
X114.989Y-136.043
X115.0Y-139.66
X115.1Y-132.41
X116.897Y-111.247
X116.897Y-126.741
X117.529Y-136.043
X117.54Y-139.66
X117.64Y-132.41
X119.437Y-111.247
X119.437Y-126.741
X121.047Y-56.107
X123.587Y-56.107
X126.457Y-138.657
X128.997Y-138.657
X131.537Y-138.657
X131.98Y-93.15
X132.08Y-115.8
X132.49Y-56.44
X132.49Y-58.98
X132.49Y-61.52
X132.49Y-64.06
X132.49Y-66.6
X132.49Y-69.14
X132.49Y-71.68
X132.49Y-74.22
X132.49Y-76.76
X132.49Y-79.3
X132.49Y-81.84
X132.49Y-84.38
X132.49Y-86.92
X132.49Y-89.46
X134.077Y-138.657
X134.52Y-93.15
X134.62Y-115.8
X136.617Y-138.657
X137.06Y-93.15
X137.16Y-115.8
X137.2Y-83.6
X139.157Y-138.657
X139.6Y-93.15
X139.7Y-115.8
X139.74Y-83.6
X141.697Y-138.657
X142.14Y-93.15
X142.28Y-83.6
X144.68Y-93.15
X144.82Y-83.6
X147.22Y-93.15
X147.36Y-83.6
X149.76Y-93.15
X149.9Y-83.6
X152.44Y-83.6
X154.98Y-83.6
X157.52Y-83.6
X160.06Y-83.6
X164.55Y-56.45
X164.55Y-58.99
X164.55Y-61.53
X164.55Y-64.07
X164.55Y-66.61
X164.55Y-69.15
X164.55Y-71.69
X164.55Y-74.23
X164.55Y-76.77
X164.55Y-79.31
X164.55Y-81.85
X164.55Y-84.39
X164.55Y-86.93
X164.55Y-89.47
X166.479Y-137.147
X166.479Y-139.687
X166.479Y-142.227
X170.329Y-137.107
X170.329Y-139.647
X170.329Y-142.187
X174.129Y-137.097
X174.129Y-139.637
X174.129Y-142.177
X177.929Y-137.097
X177.929Y-139.637
X177.929Y-142.177
T3
G00X171.277Y-56.967
M15
G01X171.277Y-56.367
M16
G05
G00X171.277Y-61.397
M15
G01X171.277Y-60.297
M16
G05
G00X179.917Y-56.967
M15
G01X179.917Y-56.367
M16
G05
G00X179.917Y-61.397
M15
G01X179.917Y-60.297
M16
G05
T4
G00X107.197Y-58.657
M15
G01X107.197Y-60.857
M16
G05
G00X113.097Y-56.957
M15
G01X110.897Y-56.957
M16
G05
G00X113.297Y-62.757
M15
G01X110.697Y-62.757
M16
G05
M30
