G04 EAGLE Gerber RS-274X export*
G75*
%MOMM*%
%FSLAX34Y34*%
%LPD*%
%IN*%
%IPPOS*%
%AMOC8*
5,1,8,0,0,1.08239X$1,22.5*%
G01*
%ADD10C,0.254000*%


D10*
X5036Y1102891D02*
X8379Y7505D01*
X819126Y5142D01*
X816760Y1101506D01*
X5036Y1102891D01*
X46672Y944814D02*
X76672Y944814D01*
X76672Y952814D01*
X46672Y952814D01*
X46672Y944814D01*
X86672Y979314D02*
X96672Y979314D01*
X96672Y1014314D01*
X86672Y1014314D01*
X86672Y979314D01*
X27672Y981814D02*
X35672Y981814D01*
X35672Y1011814D01*
X27672Y1011814D01*
X27672Y981814D01*
X46758Y27288D02*
X46682Y26220D01*
X46529Y25159D01*
X46301Y24112D01*
X45999Y23084D01*
X45625Y22080D01*
X45180Y21106D01*
X44666Y20165D01*
X44087Y19264D01*
X43445Y18406D01*
X42743Y17596D01*
X41986Y16839D01*
X41176Y16137D01*
X40318Y15495D01*
X39417Y14916D01*
X38477Y14402D01*
X37502Y13957D01*
X36498Y13583D01*
X35470Y13281D01*
X34423Y13053D01*
X33362Y12901D01*
X32294Y12824D01*
X31222Y12824D01*
X30154Y12901D01*
X29093Y13053D01*
X28046Y13281D01*
X27018Y13583D01*
X26014Y13957D01*
X25039Y14402D01*
X24099Y14916D01*
X23198Y15495D01*
X22340Y16137D01*
X21530Y16839D01*
X20773Y17596D01*
X20071Y18406D01*
X19429Y19264D01*
X18850Y20165D01*
X18336Y21106D01*
X17891Y22080D01*
X17517Y23084D01*
X17215Y24112D01*
X16987Y25159D01*
X16834Y26220D01*
X16758Y27288D01*
X16758Y28360D01*
X16834Y29429D01*
X16987Y30489D01*
X17215Y31536D01*
X17517Y32564D01*
X17891Y33568D01*
X18336Y34543D01*
X18850Y35483D01*
X19429Y36384D01*
X20071Y37242D01*
X20773Y38052D01*
X21530Y38810D01*
X22340Y39511D01*
X23198Y40153D01*
X24099Y40733D01*
X25039Y41246D01*
X26014Y41691D01*
X27018Y42066D01*
X28046Y42367D01*
X29093Y42595D01*
X30154Y42748D01*
X31222Y42824D01*
X32294Y42824D01*
X33362Y42748D01*
X34423Y42595D01*
X35470Y42367D01*
X36498Y42066D01*
X37502Y41691D01*
X38477Y41246D01*
X39417Y40733D01*
X40318Y40153D01*
X41176Y39511D01*
X41986Y38810D01*
X42743Y38052D01*
X43445Y37242D01*
X44087Y36384D01*
X44666Y35483D01*
X45180Y34543D01*
X45625Y33568D01*
X45999Y32564D01*
X46301Y31536D01*
X46529Y30489D01*
X46682Y29429D01*
X46758Y28360D01*
X46758Y27288D01*
X809050Y27288D02*
X808974Y26220D01*
X808821Y25159D01*
X808593Y24112D01*
X808292Y23084D01*
X807917Y22080D01*
X807472Y21106D01*
X806959Y20165D01*
X806379Y19264D01*
X805737Y18406D01*
X805036Y17596D01*
X804278Y16839D01*
X803468Y16137D01*
X802610Y15495D01*
X801709Y14916D01*
X800769Y14402D01*
X799794Y13957D01*
X798790Y13583D01*
X797762Y13281D01*
X796715Y13053D01*
X795655Y12901D01*
X794586Y12824D01*
X793514Y12824D01*
X792446Y12901D01*
X791385Y13053D01*
X790338Y13281D01*
X789310Y13583D01*
X788306Y13957D01*
X787332Y14402D01*
X786391Y14916D01*
X785490Y15495D01*
X784632Y16137D01*
X783822Y16839D01*
X783065Y17596D01*
X782363Y18406D01*
X781721Y19264D01*
X781142Y20165D01*
X780628Y21106D01*
X780183Y22080D01*
X779809Y23084D01*
X779507Y24112D01*
X779279Y25159D01*
X779127Y26220D01*
X779050Y27288D01*
X779050Y28360D01*
X779127Y29429D01*
X779279Y30489D01*
X779507Y31536D01*
X779809Y32564D01*
X780183Y33568D01*
X780628Y34543D01*
X781142Y35483D01*
X781721Y36384D01*
X782363Y37242D01*
X783065Y38052D01*
X783822Y38810D01*
X784632Y39511D01*
X785490Y40153D01*
X786391Y40733D01*
X787332Y41246D01*
X788306Y41691D01*
X789310Y42066D01*
X790338Y42367D01*
X791385Y42595D01*
X792446Y42748D01*
X793514Y42824D01*
X794586Y42824D01*
X795655Y42748D01*
X796715Y42595D01*
X797762Y42367D01*
X798790Y42066D01*
X799794Y41691D01*
X800769Y41246D01*
X801709Y40733D01*
X802610Y40153D01*
X803468Y39511D01*
X804278Y38810D01*
X805036Y38052D01*
X805737Y37242D01*
X806379Y36384D01*
X806959Y35483D01*
X807472Y34543D01*
X807917Y33568D01*
X808292Y32564D01*
X808593Y31536D01*
X808821Y30489D01*
X808974Y29429D01*
X809050Y28360D01*
X809050Y27288D01*
X46758Y1079991D02*
X46682Y1078923D01*
X46529Y1077862D01*
X46301Y1076815D01*
X45999Y1075787D01*
X45625Y1074783D01*
X45180Y1073809D01*
X44666Y1072868D01*
X44087Y1071967D01*
X43445Y1071109D01*
X42743Y1070299D01*
X41986Y1069542D01*
X41176Y1068840D01*
X40318Y1068198D01*
X39417Y1067619D01*
X38477Y1067105D01*
X37502Y1066660D01*
X36498Y1066286D01*
X35470Y1065984D01*
X34423Y1065756D01*
X33362Y1065604D01*
X32294Y1065527D01*
X31222Y1065527D01*
X30154Y1065604D01*
X29093Y1065756D01*
X28046Y1065984D01*
X27018Y1066286D01*
X26014Y1066660D01*
X25039Y1067105D01*
X24099Y1067619D01*
X23198Y1068198D01*
X22340Y1068840D01*
X21530Y1069542D01*
X20773Y1070299D01*
X20071Y1071109D01*
X19429Y1071967D01*
X18850Y1072868D01*
X18336Y1073809D01*
X17891Y1074783D01*
X17517Y1075787D01*
X17215Y1076815D01*
X16987Y1077862D01*
X16834Y1078923D01*
X16758Y1079991D01*
X16758Y1081063D01*
X16834Y1082132D01*
X16987Y1083192D01*
X17215Y1084239D01*
X17517Y1085267D01*
X17891Y1086271D01*
X18336Y1087246D01*
X18850Y1088186D01*
X19429Y1089087D01*
X20071Y1089945D01*
X20773Y1090755D01*
X21530Y1091513D01*
X22340Y1092214D01*
X23198Y1092856D01*
X24099Y1093436D01*
X25039Y1093949D01*
X26014Y1094394D01*
X27018Y1094769D01*
X28046Y1095070D01*
X29093Y1095298D01*
X30154Y1095451D01*
X31222Y1095527D01*
X32294Y1095527D01*
X33362Y1095451D01*
X34423Y1095298D01*
X35470Y1095070D01*
X36498Y1094769D01*
X37502Y1094394D01*
X38477Y1093949D01*
X39417Y1093436D01*
X40318Y1092856D01*
X41176Y1092214D01*
X41986Y1091513D01*
X42743Y1090755D01*
X43445Y1089945D01*
X44087Y1089087D01*
X44666Y1088186D01*
X45180Y1087246D01*
X45625Y1086271D01*
X45999Y1085267D01*
X46301Y1084239D01*
X46529Y1083192D01*
X46682Y1082132D01*
X46758Y1081063D01*
X46758Y1079991D01*
X809050Y1079991D02*
X808974Y1078923D01*
X808821Y1077862D01*
X808593Y1076815D01*
X808292Y1075787D01*
X807917Y1074783D01*
X807472Y1073809D01*
X806959Y1072868D01*
X806379Y1071967D01*
X805737Y1071109D01*
X805036Y1070299D01*
X804278Y1069542D01*
X803468Y1068840D01*
X802610Y1068198D01*
X801709Y1067619D01*
X800769Y1067105D01*
X799794Y1066660D01*
X798790Y1066286D01*
X797762Y1065984D01*
X796715Y1065756D01*
X795655Y1065604D01*
X794586Y1065527D01*
X793514Y1065527D01*
X792446Y1065604D01*
X791385Y1065756D01*
X790338Y1065984D01*
X789310Y1066286D01*
X788306Y1066660D01*
X787332Y1067105D01*
X786391Y1067619D01*
X785490Y1068198D01*
X784632Y1068840D01*
X783822Y1069542D01*
X783065Y1070299D01*
X782363Y1071109D01*
X781721Y1071967D01*
X781142Y1072868D01*
X780628Y1073809D01*
X780183Y1074783D01*
X779809Y1075787D01*
X779507Y1076815D01*
X779279Y1077862D01*
X779127Y1078923D01*
X779050Y1079991D01*
X779050Y1081063D01*
X779127Y1082132D01*
X779279Y1083192D01*
X779507Y1084239D01*
X779809Y1085267D01*
X780183Y1086271D01*
X780628Y1087246D01*
X781142Y1088186D01*
X781721Y1089087D01*
X782363Y1089945D01*
X783065Y1090755D01*
X783822Y1091513D01*
X784632Y1092214D01*
X785490Y1092856D01*
X786391Y1093436D01*
X787332Y1093949D01*
X788306Y1094394D01*
X789310Y1094769D01*
X790338Y1095070D01*
X791385Y1095298D01*
X792446Y1095451D01*
X793514Y1095527D01*
X794586Y1095527D01*
X795655Y1095451D01*
X796715Y1095298D01*
X797762Y1095070D01*
X798790Y1094769D01*
X799794Y1094394D01*
X800769Y1093949D01*
X801709Y1093436D01*
X802610Y1092856D01*
X803468Y1092214D01*
X804278Y1091513D01*
X805036Y1090755D01*
X805737Y1089945D01*
X806379Y1089087D01*
X806959Y1088186D01*
X807472Y1087246D01*
X807917Y1086271D01*
X808292Y1085267D01*
X808593Y1084239D01*
X808821Y1083192D01*
X808974Y1082132D01*
X809050Y1081063D01*
X809050Y1079991D01*
M02*
