G04 EAGLE Gerber RS-274X export*
G75*
%MOMM*%
%FSLAX34Y34*%
%LPD*%
%INSilkscreen Bottom*%
%IPPOS*%
%AMOC8*
5,1,8,0,0,1.08239X$1,22.5*%
G01*
%ADD10C,0.076200*%


D10*
X95386Y421179D02*
X95386Y413869D01*
X95387Y413869D02*
X95389Y413780D01*
X95395Y413692D01*
X95404Y413604D01*
X95417Y413516D01*
X95434Y413429D01*
X95454Y413343D01*
X95479Y413258D01*
X95506Y413173D01*
X95538Y413090D01*
X95572Y413009D01*
X95611Y412929D01*
X95652Y412851D01*
X95697Y412774D01*
X95745Y412700D01*
X95796Y412627D01*
X95850Y412557D01*
X95908Y412490D01*
X95968Y412424D01*
X96030Y412362D01*
X96096Y412302D01*
X96163Y412244D01*
X96233Y412190D01*
X96306Y412139D01*
X96380Y412091D01*
X96457Y412046D01*
X96535Y412005D01*
X96615Y411966D01*
X96696Y411932D01*
X96779Y411900D01*
X96864Y411873D01*
X96949Y411848D01*
X97035Y411828D01*
X97122Y411811D01*
X97210Y411798D01*
X97298Y411789D01*
X97386Y411783D01*
X97475Y411781D01*
X98519Y411781D01*
X91195Y419091D02*
X88584Y421179D01*
X88584Y411781D01*
X85974Y411781D02*
X91195Y411781D01*
X94386Y210179D02*
X94386Y202869D01*
X94387Y202869D02*
X94389Y202780D01*
X94395Y202692D01*
X94404Y202604D01*
X94417Y202516D01*
X94434Y202429D01*
X94454Y202343D01*
X94479Y202258D01*
X94506Y202173D01*
X94538Y202090D01*
X94572Y202009D01*
X94611Y201929D01*
X94652Y201851D01*
X94697Y201774D01*
X94745Y201700D01*
X94796Y201627D01*
X94850Y201557D01*
X94908Y201490D01*
X94968Y201424D01*
X95030Y201362D01*
X95096Y201302D01*
X95163Y201244D01*
X95233Y201190D01*
X95306Y201139D01*
X95380Y201091D01*
X95457Y201046D01*
X95535Y201005D01*
X95615Y200966D01*
X95696Y200932D01*
X95779Y200900D01*
X95864Y200873D01*
X95949Y200848D01*
X96035Y200828D01*
X96122Y200811D01*
X96210Y200798D01*
X96298Y200789D01*
X96386Y200783D01*
X96475Y200781D01*
X97519Y200781D01*
X90195Y200781D02*
X87584Y200781D01*
X87483Y200783D01*
X87382Y200789D01*
X87281Y200799D01*
X87181Y200812D01*
X87081Y200830D01*
X86982Y200851D01*
X86884Y200877D01*
X86787Y200906D01*
X86691Y200938D01*
X86597Y200975D01*
X86504Y201015D01*
X86412Y201059D01*
X86323Y201106D01*
X86235Y201157D01*
X86149Y201211D01*
X86066Y201268D01*
X85984Y201328D01*
X85906Y201392D01*
X85829Y201458D01*
X85756Y201528D01*
X85685Y201600D01*
X85617Y201675D01*
X85552Y201753D01*
X85490Y201833D01*
X85431Y201915D01*
X85375Y202000D01*
X85323Y202087D01*
X85274Y202175D01*
X85228Y202266D01*
X85187Y202358D01*
X85148Y202452D01*
X85114Y202547D01*
X85083Y202643D01*
X85056Y202741D01*
X85032Y202839D01*
X85013Y202939D01*
X84997Y203039D01*
X84985Y203139D01*
X84977Y203240D01*
X84973Y203341D01*
X84973Y203443D01*
X84977Y203544D01*
X84985Y203645D01*
X84997Y203745D01*
X85013Y203845D01*
X85032Y203945D01*
X85056Y204043D01*
X85083Y204141D01*
X85114Y204237D01*
X85148Y204332D01*
X85187Y204426D01*
X85228Y204518D01*
X85274Y204609D01*
X85323Y204698D01*
X85375Y204784D01*
X85431Y204869D01*
X85490Y204951D01*
X85552Y205031D01*
X85617Y205109D01*
X85685Y205184D01*
X85756Y205256D01*
X85829Y205326D01*
X85906Y205392D01*
X85984Y205456D01*
X86066Y205516D01*
X86149Y205573D01*
X86235Y205627D01*
X86323Y205678D01*
X86412Y205725D01*
X86504Y205769D01*
X86597Y205809D01*
X86691Y205846D01*
X86787Y205878D01*
X86884Y205907D01*
X86982Y205933D01*
X87081Y205954D01*
X87181Y205972D01*
X87281Y205985D01*
X87382Y205995D01*
X87483Y206001D01*
X87584Y206003D01*
X87062Y210179D02*
X90195Y210179D01*
X87062Y210179D02*
X86972Y210177D01*
X86883Y210171D01*
X86793Y210162D01*
X86704Y210148D01*
X86616Y210131D01*
X86529Y210110D01*
X86442Y210085D01*
X86357Y210056D01*
X86273Y210024D01*
X86191Y209989D01*
X86110Y209949D01*
X86031Y209907D01*
X85954Y209861D01*
X85879Y209811D01*
X85806Y209759D01*
X85735Y209703D01*
X85667Y209645D01*
X85602Y209583D01*
X85539Y209519D01*
X85479Y209452D01*
X85422Y209383D01*
X85368Y209311D01*
X85317Y209237D01*
X85269Y209161D01*
X85225Y209083D01*
X85184Y209003D01*
X85146Y208921D01*
X85112Y208838D01*
X85082Y208753D01*
X85055Y208667D01*
X85032Y208581D01*
X85013Y208493D01*
X84998Y208404D01*
X84986Y208315D01*
X84978Y208226D01*
X84974Y208136D01*
X84974Y208046D01*
X84978Y207956D01*
X84986Y207867D01*
X84998Y207778D01*
X85013Y207689D01*
X85032Y207601D01*
X85055Y207515D01*
X85082Y207429D01*
X85112Y207344D01*
X85146Y207261D01*
X85184Y207179D01*
X85225Y207099D01*
X85269Y207021D01*
X85317Y206945D01*
X85368Y206871D01*
X85422Y206799D01*
X85479Y206730D01*
X85539Y206663D01*
X85602Y206599D01*
X85667Y206537D01*
X85735Y206479D01*
X85806Y206423D01*
X85879Y206371D01*
X85954Y206321D01*
X86031Y206275D01*
X86110Y206233D01*
X86191Y206193D01*
X86273Y206158D01*
X86357Y206126D01*
X86442Y206097D01*
X86529Y206072D01*
X86616Y206051D01*
X86704Y206034D01*
X86793Y206020D01*
X86883Y206011D01*
X86972Y206005D01*
X87062Y206003D01*
X87062Y206002D02*
X89150Y206002D01*
X53386Y263369D02*
X53386Y270679D01*
X53387Y263369D02*
X53389Y263280D01*
X53395Y263192D01*
X53404Y263104D01*
X53417Y263016D01*
X53434Y262929D01*
X53454Y262843D01*
X53479Y262758D01*
X53506Y262673D01*
X53538Y262590D01*
X53572Y262509D01*
X53611Y262429D01*
X53652Y262351D01*
X53697Y262274D01*
X53745Y262200D01*
X53796Y262127D01*
X53850Y262057D01*
X53908Y261990D01*
X53968Y261924D01*
X54030Y261862D01*
X54096Y261802D01*
X54163Y261744D01*
X54233Y261690D01*
X54306Y261639D01*
X54380Y261591D01*
X54457Y261546D01*
X54535Y261505D01*
X54615Y261466D01*
X54696Y261432D01*
X54779Y261400D01*
X54864Y261373D01*
X54949Y261348D01*
X55035Y261328D01*
X55122Y261311D01*
X55210Y261298D01*
X55298Y261289D01*
X55386Y261283D01*
X55475Y261281D01*
X56519Y261281D01*
X46323Y270680D02*
X46228Y270678D01*
X46134Y270672D01*
X46040Y270663D01*
X45946Y270650D01*
X45853Y270633D01*
X45761Y270612D01*
X45669Y270587D01*
X45579Y270559D01*
X45490Y270527D01*
X45402Y270492D01*
X45316Y270453D01*
X45231Y270411D01*
X45148Y270365D01*
X45067Y270316D01*
X44988Y270264D01*
X44911Y270209D01*
X44837Y270150D01*
X44765Y270089D01*
X44695Y270025D01*
X44628Y269958D01*
X44564Y269888D01*
X44503Y269816D01*
X44444Y269742D01*
X44389Y269665D01*
X44337Y269586D01*
X44288Y269505D01*
X44242Y269422D01*
X44200Y269337D01*
X44161Y269251D01*
X44126Y269163D01*
X44094Y269074D01*
X44066Y268984D01*
X44041Y268892D01*
X44020Y268800D01*
X44003Y268707D01*
X43990Y268613D01*
X43981Y268519D01*
X43975Y268425D01*
X43973Y268330D01*
X46323Y270679D02*
X46431Y270677D01*
X46540Y270671D01*
X46648Y270661D01*
X46755Y270648D01*
X46862Y270630D01*
X46969Y270609D01*
X47074Y270584D01*
X47179Y270555D01*
X47282Y270523D01*
X47384Y270486D01*
X47485Y270446D01*
X47584Y270403D01*
X47682Y270356D01*
X47778Y270305D01*
X47872Y270251D01*
X47964Y270194D01*
X48054Y270133D01*
X48142Y270069D01*
X48227Y270003D01*
X48310Y269933D01*
X48390Y269860D01*
X48468Y269784D01*
X48543Y269706D01*
X48615Y269625D01*
X48684Y269541D01*
X48750Y269455D01*
X48813Y269367D01*
X48872Y269276D01*
X48929Y269184D01*
X48982Y269089D01*
X49031Y268992D01*
X49077Y268894D01*
X49120Y268795D01*
X49159Y268693D01*
X49194Y268591D01*
X44756Y266502D02*
X44687Y266571D01*
X44621Y266642D01*
X44557Y266715D01*
X44496Y266791D01*
X44438Y266870D01*
X44384Y266950D01*
X44332Y267033D01*
X44284Y267117D01*
X44238Y267203D01*
X44197Y267291D01*
X44158Y267381D01*
X44123Y267472D01*
X44092Y267564D01*
X44064Y267657D01*
X44040Y267751D01*
X44020Y267846D01*
X44003Y267942D01*
X43990Y268039D01*
X43981Y268136D01*
X43975Y268233D01*
X43973Y268330D01*
X44757Y266502D02*
X49195Y261281D01*
X43974Y261281D01*
X77319Y464431D02*
X77319Y473829D01*
X74186Y468608D01*
X71054Y473829D01*
X71054Y464431D01*
X66739Y471741D02*
X64128Y473829D01*
X64128Y464431D01*
X66739Y464431D02*
X61517Y464431D01*
X58117Y464431D02*
X54984Y473829D01*
X51851Y464431D01*
X52635Y466781D02*
X57334Y466781D01*
X120019Y464431D02*
X120019Y473829D01*
X116886Y468608D01*
X113754Y473829D01*
X113754Y464431D01*
X109439Y464431D02*
X106828Y464431D01*
X106727Y464433D01*
X106626Y464439D01*
X106525Y464449D01*
X106425Y464462D01*
X106325Y464480D01*
X106226Y464501D01*
X106128Y464527D01*
X106031Y464556D01*
X105935Y464588D01*
X105841Y464625D01*
X105748Y464665D01*
X105656Y464709D01*
X105567Y464756D01*
X105479Y464807D01*
X105393Y464861D01*
X105310Y464918D01*
X105228Y464978D01*
X105150Y465042D01*
X105073Y465108D01*
X105000Y465178D01*
X104929Y465250D01*
X104861Y465325D01*
X104796Y465403D01*
X104734Y465483D01*
X104675Y465565D01*
X104619Y465650D01*
X104567Y465737D01*
X104518Y465825D01*
X104472Y465916D01*
X104431Y466008D01*
X104392Y466102D01*
X104358Y466197D01*
X104327Y466293D01*
X104300Y466391D01*
X104276Y466489D01*
X104257Y466589D01*
X104241Y466689D01*
X104229Y466789D01*
X104221Y466890D01*
X104217Y466991D01*
X104217Y467093D01*
X104221Y467194D01*
X104229Y467295D01*
X104241Y467395D01*
X104257Y467495D01*
X104276Y467595D01*
X104300Y467693D01*
X104327Y467791D01*
X104358Y467887D01*
X104392Y467982D01*
X104431Y468076D01*
X104472Y468168D01*
X104518Y468259D01*
X104567Y468348D01*
X104619Y468434D01*
X104675Y468519D01*
X104734Y468601D01*
X104796Y468681D01*
X104861Y468759D01*
X104929Y468834D01*
X105000Y468906D01*
X105073Y468976D01*
X105150Y469042D01*
X105228Y469106D01*
X105310Y469166D01*
X105393Y469223D01*
X105479Y469277D01*
X105567Y469328D01*
X105656Y469375D01*
X105748Y469419D01*
X105841Y469459D01*
X105935Y469496D01*
X106031Y469528D01*
X106128Y469557D01*
X106226Y469583D01*
X106325Y469604D01*
X106425Y469622D01*
X106525Y469635D01*
X106626Y469645D01*
X106727Y469651D01*
X106828Y469653D01*
X106306Y473829D02*
X109439Y473829D01*
X106306Y473829D02*
X106216Y473827D01*
X106127Y473821D01*
X106037Y473812D01*
X105948Y473798D01*
X105860Y473781D01*
X105773Y473760D01*
X105686Y473735D01*
X105601Y473706D01*
X105517Y473674D01*
X105435Y473639D01*
X105354Y473599D01*
X105275Y473557D01*
X105198Y473511D01*
X105123Y473461D01*
X105050Y473409D01*
X104979Y473353D01*
X104911Y473295D01*
X104846Y473233D01*
X104783Y473169D01*
X104723Y473102D01*
X104666Y473033D01*
X104612Y472961D01*
X104561Y472887D01*
X104513Y472811D01*
X104469Y472733D01*
X104428Y472653D01*
X104390Y472571D01*
X104356Y472488D01*
X104326Y472403D01*
X104299Y472317D01*
X104276Y472231D01*
X104257Y472143D01*
X104242Y472054D01*
X104230Y471965D01*
X104222Y471876D01*
X104218Y471786D01*
X104218Y471696D01*
X104222Y471606D01*
X104230Y471517D01*
X104242Y471428D01*
X104257Y471339D01*
X104276Y471251D01*
X104299Y471165D01*
X104326Y471079D01*
X104356Y470994D01*
X104390Y470911D01*
X104428Y470829D01*
X104469Y470749D01*
X104513Y470671D01*
X104561Y470595D01*
X104612Y470521D01*
X104666Y470449D01*
X104723Y470380D01*
X104783Y470313D01*
X104846Y470249D01*
X104911Y470187D01*
X104979Y470129D01*
X105050Y470073D01*
X105123Y470021D01*
X105198Y469971D01*
X105275Y469925D01*
X105354Y469883D01*
X105435Y469843D01*
X105517Y469808D01*
X105601Y469776D01*
X105686Y469747D01*
X105773Y469722D01*
X105860Y469701D01*
X105948Y469684D01*
X106037Y469670D01*
X106127Y469661D01*
X106216Y469655D01*
X106306Y469653D01*
X106306Y469652D02*
X108394Y469652D01*
X100817Y464431D02*
X97684Y473829D01*
X94551Y464431D01*
X95335Y466781D02*
X100034Y466781D01*
X41369Y318079D02*
X41369Y308681D01*
X38236Y312858D02*
X41369Y318079D01*
X38236Y312858D02*
X35104Y318079D01*
X35104Y308681D01*
X27917Y318080D02*
X27822Y318078D01*
X27728Y318072D01*
X27634Y318063D01*
X27540Y318050D01*
X27447Y318033D01*
X27355Y318012D01*
X27263Y317987D01*
X27173Y317959D01*
X27084Y317927D01*
X26996Y317892D01*
X26910Y317853D01*
X26825Y317811D01*
X26742Y317765D01*
X26661Y317716D01*
X26582Y317664D01*
X26505Y317609D01*
X26431Y317550D01*
X26359Y317489D01*
X26289Y317425D01*
X26222Y317358D01*
X26158Y317288D01*
X26097Y317216D01*
X26038Y317142D01*
X25983Y317065D01*
X25931Y316986D01*
X25882Y316905D01*
X25836Y316822D01*
X25794Y316737D01*
X25755Y316651D01*
X25720Y316563D01*
X25688Y316474D01*
X25660Y316384D01*
X25635Y316292D01*
X25614Y316200D01*
X25597Y316107D01*
X25584Y316013D01*
X25575Y315919D01*
X25569Y315825D01*
X25567Y315730D01*
X27917Y318079D02*
X28025Y318077D01*
X28134Y318071D01*
X28242Y318061D01*
X28349Y318048D01*
X28456Y318030D01*
X28563Y318009D01*
X28668Y317984D01*
X28773Y317955D01*
X28876Y317923D01*
X28978Y317886D01*
X29079Y317846D01*
X29178Y317803D01*
X29276Y317756D01*
X29372Y317705D01*
X29466Y317651D01*
X29558Y317594D01*
X29648Y317533D01*
X29736Y317469D01*
X29821Y317403D01*
X29904Y317333D01*
X29984Y317260D01*
X30062Y317184D01*
X30137Y317106D01*
X30209Y317025D01*
X30278Y316941D01*
X30344Y316855D01*
X30407Y316767D01*
X30466Y316676D01*
X30523Y316584D01*
X30576Y316489D01*
X30625Y316392D01*
X30671Y316294D01*
X30714Y316195D01*
X30753Y316093D01*
X30788Y315991D01*
X26350Y313902D02*
X26281Y313971D01*
X26215Y314042D01*
X26151Y314115D01*
X26090Y314191D01*
X26032Y314270D01*
X25978Y314350D01*
X25926Y314433D01*
X25878Y314517D01*
X25832Y314603D01*
X25791Y314691D01*
X25752Y314781D01*
X25717Y314872D01*
X25686Y314964D01*
X25658Y315057D01*
X25634Y315151D01*
X25614Y315246D01*
X25597Y315342D01*
X25584Y315439D01*
X25575Y315536D01*
X25569Y315633D01*
X25567Y315730D01*
X26351Y313902D02*
X30789Y308681D01*
X25567Y308681D01*
X22167Y308681D02*
X19034Y318079D01*
X15901Y308681D01*
X16685Y311031D02*
X21384Y311031D01*
X84069Y308681D02*
X84069Y318079D01*
X80936Y312858D01*
X77804Y318079D01*
X77804Y308681D01*
X73489Y310769D02*
X71400Y318079D01*
X73489Y310769D02*
X68267Y310769D01*
X69834Y308681D02*
X69834Y312858D01*
X64867Y308681D02*
X61734Y318079D01*
X58601Y308681D01*
X59385Y311031D02*
X64084Y311031D01*
X77233Y252879D02*
X77233Y243481D01*
X74100Y247658D02*
X77233Y252879D01*
X74100Y247658D02*
X70968Y252879D01*
X70968Y243481D01*
X66652Y250791D02*
X64042Y252879D01*
X64042Y243481D01*
X66652Y243481D02*
X61431Y243481D01*
X57072Y248702D02*
X54462Y248702D01*
X54462Y248703D02*
X54361Y248701D01*
X54260Y248695D01*
X54159Y248685D01*
X54059Y248672D01*
X53959Y248654D01*
X53860Y248633D01*
X53762Y248607D01*
X53665Y248578D01*
X53569Y248546D01*
X53475Y248509D01*
X53382Y248469D01*
X53290Y248425D01*
X53201Y248378D01*
X53113Y248327D01*
X53027Y248273D01*
X52944Y248216D01*
X52862Y248156D01*
X52784Y248092D01*
X52707Y248026D01*
X52634Y247956D01*
X52563Y247884D01*
X52495Y247809D01*
X52430Y247731D01*
X52368Y247651D01*
X52309Y247569D01*
X52253Y247484D01*
X52201Y247398D01*
X52152Y247309D01*
X52106Y247218D01*
X52065Y247126D01*
X52026Y247032D01*
X51992Y246937D01*
X51961Y246841D01*
X51934Y246743D01*
X51910Y246645D01*
X51891Y246545D01*
X51875Y246445D01*
X51863Y246345D01*
X51855Y246244D01*
X51851Y246143D01*
X51851Y246041D01*
X51855Y245940D01*
X51863Y245839D01*
X51875Y245739D01*
X51891Y245639D01*
X51910Y245539D01*
X51934Y245441D01*
X51961Y245343D01*
X51992Y245247D01*
X52026Y245152D01*
X52065Y245058D01*
X52106Y244966D01*
X52152Y244875D01*
X52201Y244787D01*
X52253Y244700D01*
X52309Y244615D01*
X52368Y244533D01*
X52430Y244453D01*
X52495Y244375D01*
X52563Y244300D01*
X52634Y244228D01*
X52707Y244158D01*
X52784Y244092D01*
X52862Y244028D01*
X52944Y243968D01*
X53027Y243911D01*
X53113Y243857D01*
X53201Y243806D01*
X53290Y243759D01*
X53382Y243715D01*
X53475Y243675D01*
X53569Y243638D01*
X53665Y243606D01*
X53762Y243577D01*
X53860Y243551D01*
X53959Y243530D01*
X54059Y243512D01*
X54159Y243499D01*
X54260Y243489D01*
X54361Y243483D01*
X54462Y243481D01*
X57072Y243481D01*
X57072Y252879D01*
X54462Y252879D01*
X54372Y252877D01*
X54283Y252871D01*
X54193Y252862D01*
X54104Y252848D01*
X54016Y252831D01*
X53929Y252810D01*
X53842Y252785D01*
X53757Y252756D01*
X53673Y252724D01*
X53591Y252689D01*
X53510Y252649D01*
X53431Y252607D01*
X53354Y252561D01*
X53279Y252511D01*
X53206Y252459D01*
X53135Y252403D01*
X53067Y252345D01*
X53002Y252283D01*
X52939Y252219D01*
X52879Y252152D01*
X52822Y252083D01*
X52768Y252011D01*
X52717Y251937D01*
X52669Y251861D01*
X52625Y251783D01*
X52584Y251703D01*
X52546Y251621D01*
X52512Y251538D01*
X52482Y251453D01*
X52455Y251367D01*
X52432Y251281D01*
X52413Y251193D01*
X52398Y251104D01*
X52386Y251015D01*
X52378Y250926D01*
X52374Y250836D01*
X52374Y250746D01*
X52378Y250656D01*
X52386Y250567D01*
X52398Y250478D01*
X52413Y250389D01*
X52432Y250301D01*
X52455Y250215D01*
X52482Y250129D01*
X52512Y250044D01*
X52546Y249961D01*
X52584Y249879D01*
X52625Y249799D01*
X52669Y249721D01*
X52717Y249645D01*
X52768Y249571D01*
X52822Y249499D01*
X52879Y249430D01*
X52939Y249363D01*
X53002Y249299D01*
X53067Y249237D01*
X53135Y249179D01*
X53206Y249123D01*
X53279Y249071D01*
X53354Y249021D01*
X53431Y248975D01*
X53510Y248933D01*
X53591Y248893D01*
X53673Y248858D01*
X53757Y248826D01*
X53842Y248797D01*
X53929Y248772D01*
X54016Y248751D01*
X54104Y248734D01*
X54193Y248720D01*
X54283Y248711D01*
X54372Y248705D01*
X54462Y248703D01*
X119933Y252879D02*
X119933Y243481D01*
X116800Y247658D02*
X119933Y252879D01*
X116800Y247658D02*
X113668Y252879D01*
X113668Y243481D01*
X109352Y243481D02*
X106742Y243481D01*
X106641Y243483D01*
X106540Y243489D01*
X106439Y243499D01*
X106339Y243512D01*
X106239Y243530D01*
X106140Y243551D01*
X106042Y243577D01*
X105945Y243606D01*
X105849Y243638D01*
X105755Y243675D01*
X105662Y243715D01*
X105570Y243759D01*
X105481Y243806D01*
X105393Y243857D01*
X105307Y243911D01*
X105224Y243968D01*
X105142Y244028D01*
X105064Y244092D01*
X104987Y244158D01*
X104914Y244228D01*
X104843Y244300D01*
X104775Y244375D01*
X104710Y244453D01*
X104648Y244533D01*
X104589Y244615D01*
X104533Y244700D01*
X104481Y244787D01*
X104432Y244875D01*
X104386Y244966D01*
X104345Y245058D01*
X104306Y245152D01*
X104272Y245247D01*
X104241Y245343D01*
X104214Y245441D01*
X104190Y245539D01*
X104171Y245639D01*
X104155Y245739D01*
X104143Y245839D01*
X104135Y245940D01*
X104131Y246041D01*
X104131Y246143D01*
X104135Y246244D01*
X104143Y246345D01*
X104155Y246445D01*
X104171Y246545D01*
X104190Y246645D01*
X104214Y246743D01*
X104241Y246841D01*
X104272Y246937D01*
X104306Y247032D01*
X104345Y247126D01*
X104386Y247218D01*
X104432Y247309D01*
X104481Y247398D01*
X104533Y247484D01*
X104589Y247569D01*
X104648Y247651D01*
X104710Y247731D01*
X104775Y247809D01*
X104843Y247884D01*
X104914Y247956D01*
X104987Y248026D01*
X105064Y248092D01*
X105142Y248156D01*
X105224Y248216D01*
X105307Y248273D01*
X105393Y248327D01*
X105481Y248378D01*
X105570Y248425D01*
X105662Y248469D01*
X105755Y248509D01*
X105849Y248546D01*
X105945Y248578D01*
X106042Y248607D01*
X106140Y248633D01*
X106239Y248654D01*
X106339Y248672D01*
X106439Y248685D01*
X106540Y248695D01*
X106641Y248701D01*
X106742Y248703D01*
X106220Y252879D02*
X109352Y252879D01*
X106220Y252879D02*
X106130Y252877D01*
X106041Y252871D01*
X105951Y252862D01*
X105862Y252848D01*
X105774Y252831D01*
X105687Y252810D01*
X105600Y252785D01*
X105515Y252756D01*
X105431Y252724D01*
X105349Y252689D01*
X105268Y252649D01*
X105189Y252607D01*
X105112Y252561D01*
X105037Y252511D01*
X104964Y252459D01*
X104893Y252403D01*
X104825Y252345D01*
X104760Y252283D01*
X104697Y252219D01*
X104637Y252152D01*
X104580Y252083D01*
X104526Y252011D01*
X104475Y251937D01*
X104427Y251861D01*
X104383Y251783D01*
X104342Y251703D01*
X104304Y251621D01*
X104270Y251538D01*
X104240Y251453D01*
X104213Y251367D01*
X104190Y251281D01*
X104171Y251193D01*
X104156Y251104D01*
X104144Y251015D01*
X104136Y250926D01*
X104132Y250836D01*
X104132Y250746D01*
X104136Y250656D01*
X104144Y250567D01*
X104156Y250478D01*
X104171Y250389D01*
X104190Y250301D01*
X104213Y250215D01*
X104240Y250129D01*
X104270Y250044D01*
X104304Y249961D01*
X104342Y249879D01*
X104383Y249799D01*
X104427Y249721D01*
X104475Y249645D01*
X104526Y249571D01*
X104580Y249499D01*
X104637Y249430D01*
X104697Y249363D01*
X104760Y249299D01*
X104825Y249237D01*
X104893Y249179D01*
X104964Y249123D01*
X105037Y249071D01*
X105112Y249021D01*
X105189Y248975D01*
X105268Y248933D01*
X105349Y248893D01*
X105431Y248858D01*
X105515Y248826D01*
X105600Y248797D01*
X105687Y248772D01*
X105774Y248751D01*
X105862Y248734D01*
X105951Y248720D01*
X106041Y248711D01*
X106130Y248705D01*
X106220Y248703D01*
X106220Y248702D02*
X108308Y248702D01*
X99772Y248702D02*
X97162Y248702D01*
X97162Y248703D02*
X97061Y248701D01*
X96960Y248695D01*
X96859Y248685D01*
X96759Y248672D01*
X96659Y248654D01*
X96560Y248633D01*
X96462Y248607D01*
X96365Y248578D01*
X96269Y248546D01*
X96175Y248509D01*
X96082Y248469D01*
X95990Y248425D01*
X95901Y248378D01*
X95813Y248327D01*
X95727Y248273D01*
X95644Y248216D01*
X95562Y248156D01*
X95484Y248092D01*
X95407Y248026D01*
X95334Y247956D01*
X95263Y247884D01*
X95195Y247809D01*
X95130Y247731D01*
X95068Y247651D01*
X95009Y247569D01*
X94953Y247484D01*
X94901Y247398D01*
X94852Y247309D01*
X94806Y247218D01*
X94765Y247126D01*
X94726Y247032D01*
X94692Y246937D01*
X94661Y246841D01*
X94634Y246743D01*
X94610Y246645D01*
X94591Y246545D01*
X94575Y246445D01*
X94563Y246345D01*
X94555Y246244D01*
X94551Y246143D01*
X94551Y246041D01*
X94555Y245940D01*
X94563Y245839D01*
X94575Y245739D01*
X94591Y245639D01*
X94610Y245539D01*
X94634Y245441D01*
X94661Y245343D01*
X94692Y245247D01*
X94726Y245152D01*
X94765Y245058D01*
X94806Y244966D01*
X94852Y244875D01*
X94901Y244787D01*
X94953Y244700D01*
X95009Y244615D01*
X95068Y244533D01*
X95130Y244453D01*
X95195Y244375D01*
X95263Y244300D01*
X95334Y244228D01*
X95407Y244158D01*
X95484Y244092D01*
X95562Y244028D01*
X95644Y243968D01*
X95727Y243911D01*
X95813Y243857D01*
X95901Y243806D01*
X95990Y243759D01*
X96082Y243715D01*
X96175Y243675D01*
X96269Y243638D01*
X96365Y243606D01*
X96462Y243577D01*
X96560Y243551D01*
X96659Y243530D01*
X96759Y243512D01*
X96859Y243499D01*
X96960Y243489D01*
X97061Y243483D01*
X97162Y243481D01*
X99772Y243481D01*
X99772Y252879D01*
X97162Y252879D01*
X97072Y252877D01*
X96983Y252871D01*
X96893Y252862D01*
X96804Y252848D01*
X96716Y252831D01*
X96629Y252810D01*
X96542Y252785D01*
X96457Y252756D01*
X96373Y252724D01*
X96291Y252689D01*
X96210Y252649D01*
X96131Y252607D01*
X96054Y252561D01*
X95979Y252511D01*
X95906Y252459D01*
X95835Y252403D01*
X95767Y252345D01*
X95702Y252283D01*
X95639Y252219D01*
X95579Y252152D01*
X95522Y252083D01*
X95468Y252011D01*
X95417Y251937D01*
X95369Y251861D01*
X95325Y251783D01*
X95284Y251703D01*
X95246Y251621D01*
X95212Y251538D01*
X95182Y251453D01*
X95155Y251367D01*
X95132Y251281D01*
X95113Y251193D01*
X95098Y251104D01*
X95086Y251015D01*
X95078Y250926D01*
X95074Y250836D01*
X95074Y250746D01*
X95078Y250656D01*
X95086Y250567D01*
X95098Y250478D01*
X95113Y250389D01*
X95132Y250301D01*
X95155Y250215D01*
X95182Y250129D01*
X95212Y250044D01*
X95246Y249961D01*
X95284Y249879D01*
X95325Y249799D01*
X95369Y249721D01*
X95417Y249645D01*
X95468Y249571D01*
X95522Y249499D01*
X95579Y249430D01*
X95639Y249363D01*
X95702Y249299D01*
X95767Y249237D01*
X95835Y249179D01*
X95906Y249123D01*
X95979Y249071D01*
X96054Y249021D01*
X96131Y248975D01*
X96210Y248933D01*
X96291Y248893D01*
X96373Y248858D01*
X96457Y248826D01*
X96542Y248797D01*
X96629Y248772D01*
X96716Y248751D01*
X96804Y248734D01*
X96893Y248720D01*
X96983Y248711D01*
X97072Y248705D01*
X97162Y248703D01*
X41283Y106129D02*
X41283Y96731D01*
X38150Y100908D02*
X41283Y106129D01*
X38150Y100908D02*
X35018Y106129D01*
X35018Y96731D01*
X27831Y106130D02*
X27736Y106128D01*
X27642Y106122D01*
X27548Y106113D01*
X27454Y106100D01*
X27361Y106083D01*
X27269Y106062D01*
X27177Y106037D01*
X27087Y106009D01*
X26998Y105977D01*
X26910Y105942D01*
X26824Y105903D01*
X26739Y105861D01*
X26656Y105815D01*
X26575Y105766D01*
X26496Y105714D01*
X26419Y105659D01*
X26345Y105600D01*
X26273Y105539D01*
X26203Y105475D01*
X26136Y105408D01*
X26072Y105338D01*
X26011Y105266D01*
X25952Y105192D01*
X25897Y105115D01*
X25845Y105036D01*
X25796Y104955D01*
X25750Y104872D01*
X25708Y104787D01*
X25669Y104701D01*
X25634Y104613D01*
X25602Y104524D01*
X25574Y104434D01*
X25549Y104342D01*
X25528Y104250D01*
X25511Y104157D01*
X25498Y104063D01*
X25489Y103969D01*
X25483Y103875D01*
X25481Y103780D01*
X27831Y106129D02*
X27939Y106127D01*
X28048Y106121D01*
X28156Y106111D01*
X28263Y106098D01*
X28370Y106080D01*
X28477Y106059D01*
X28582Y106034D01*
X28687Y106005D01*
X28790Y105973D01*
X28892Y105936D01*
X28993Y105896D01*
X29092Y105853D01*
X29190Y105806D01*
X29286Y105755D01*
X29380Y105701D01*
X29472Y105644D01*
X29562Y105583D01*
X29650Y105519D01*
X29735Y105453D01*
X29818Y105383D01*
X29898Y105310D01*
X29976Y105234D01*
X30051Y105156D01*
X30123Y105075D01*
X30192Y104991D01*
X30258Y104905D01*
X30321Y104817D01*
X30380Y104726D01*
X30437Y104634D01*
X30490Y104539D01*
X30539Y104442D01*
X30585Y104344D01*
X30628Y104245D01*
X30667Y104143D01*
X30702Y104041D01*
X26264Y101952D02*
X26195Y102021D01*
X26129Y102092D01*
X26065Y102165D01*
X26004Y102241D01*
X25946Y102320D01*
X25892Y102400D01*
X25840Y102483D01*
X25792Y102567D01*
X25746Y102653D01*
X25705Y102741D01*
X25666Y102831D01*
X25631Y102922D01*
X25600Y103014D01*
X25572Y103107D01*
X25548Y103201D01*
X25528Y103296D01*
X25511Y103392D01*
X25498Y103489D01*
X25489Y103586D01*
X25483Y103683D01*
X25481Y103780D01*
X26265Y101952D02*
X30702Y96731D01*
X25481Y96731D01*
X21122Y101952D02*
X18512Y101952D01*
X18512Y101953D02*
X18411Y101951D01*
X18310Y101945D01*
X18209Y101935D01*
X18109Y101922D01*
X18009Y101904D01*
X17910Y101883D01*
X17812Y101857D01*
X17715Y101828D01*
X17619Y101796D01*
X17525Y101759D01*
X17432Y101719D01*
X17340Y101675D01*
X17251Y101628D01*
X17163Y101577D01*
X17077Y101523D01*
X16994Y101466D01*
X16912Y101406D01*
X16834Y101342D01*
X16757Y101276D01*
X16684Y101206D01*
X16613Y101134D01*
X16545Y101059D01*
X16480Y100981D01*
X16418Y100901D01*
X16359Y100819D01*
X16303Y100734D01*
X16251Y100648D01*
X16202Y100559D01*
X16156Y100468D01*
X16115Y100376D01*
X16076Y100282D01*
X16042Y100187D01*
X16011Y100091D01*
X15984Y99993D01*
X15960Y99895D01*
X15941Y99795D01*
X15925Y99695D01*
X15913Y99595D01*
X15905Y99494D01*
X15901Y99393D01*
X15901Y99291D01*
X15905Y99190D01*
X15913Y99089D01*
X15925Y98989D01*
X15941Y98889D01*
X15960Y98789D01*
X15984Y98691D01*
X16011Y98593D01*
X16042Y98497D01*
X16076Y98402D01*
X16115Y98308D01*
X16156Y98216D01*
X16202Y98125D01*
X16251Y98037D01*
X16303Y97950D01*
X16359Y97865D01*
X16418Y97783D01*
X16480Y97703D01*
X16545Y97625D01*
X16613Y97550D01*
X16684Y97478D01*
X16757Y97408D01*
X16834Y97342D01*
X16912Y97278D01*
X16994Y97218D01*
X17077Y97161D01*
X17163Y97107D01*
X17251Y97056D01*
X17340Y97009D01*
X17432Y96965D01*
X17525Y96925D01*
X17619Y96888D01*
X17715Y96856D01*
X17812Y96827D01*
X17910Y96801D01*
X18009Y96780D01*
X18109Y96762D01*
X18209Y96749D01*
X18310Y96739D01*
X18411Y96733D01*
X18512Y96731D01*
X21122Y96731D01*
X21122Y106129D01*
X18512Y106129D01*
X18422Y106127D01*
X18333Y106121D01*
X18243Y106112D01*
X18154Y106098D01*
X18066Y106081D01*
X17979Y106060D01*
X17892Y106035D01*
X17807Y106006D01*
X17723Y105974D01*
X17641Y105939D01*
X17560Y105899D01*
X17481Y105857D01*
X17404Y105811D01*
X17329Y105761D01*
X17256Y105709D01*
X17185Y105653D01*
X17117Y105595D01*
X17052Y105533D01*
X16989Y105469D01*
X16929Y105402D01*
X16872Y105333D01*
X16818Y105261D01*
X16767Y105187D01*
X16719Y105111D01*
X16675Y105033D01*
X16634Y104953D01*
X16596Y104871D01*
X16562Y104788D01*
X16532Y104703D01*
X16505Y104617D01*
X16482Y104531D01*
X16463Y104443D01*
X16448Y104354D01*
X16436Y104265D01*
X16428Y104176D01*
X16424Y104086D01*
X16424Y103996D01*
X16428Y103906D01*
X16436Y103817D01*
X16448Y103728D01*
X16463Y103639D01*
X16482Y103551D01*
X16505Y103465D01*
X16532Y103379D01*
X16562Y103294D01*
X16596Y103211D01*
X16634Y103129D01*
X16675Y103049D01*
X16719Y102971D01*
X16767Y102895D01*
X16818Y102821D01*
X16872Y102749D01*
X16929Y102680D01*
X16989Y102613D01*
X17052Y102549D01*
X17117Y102487D01*
X17185Y102429D01*
X17256Y102373D01*
X17329Y102321D01*
X17404Y102271D01*
X17481Y102225D01*
X17560Y102183D01*
X17641Y102143D01*
X17723Y102108D01*
X17807Y102076D01*
X17892Y102047D01*
X17979Y102022D01*
X18066Y102001D01*
X18154Y101984D01*
X18243Y101970D01*
X18333Y101961D01*
X18422Y101955D01*
X18512Y101953D01*
X83983Y106129D02*
X83983Y96731D01*
X80850Y100908D02*
X83983Y106129D01*
X80850Y100908D02*
X77718Y106129D01*
X77718Y96731D01*
X73402Y98819D02*
X71314Y106129D01*
X73402Y98819D02*
X68181Y98819D01*
X69748Y96731D02*
X69748Y100908D01*
X63822Y101952D02*
X61212Y101952D01*
X61212Y101953D02*
X61111Y101951D01*
X61010Y101945D01*
X60909Y101935D01*
X60809Y101922D01*
X60709Y101904D01*
X60610Y101883D01*
X60512Y101857D01*
X60415Y101828D01*
X60319Y101796D01*
X60225Y101759D01*
X60132Y101719D01*
X60040Y101675D01*
X59951Y101628D01*
X59863Y101577D01*
X59777Y101523D01*
X59694Y101466D01*
X59612Y101406D01*
X59534Y101342D01*
X59457Y101276D01*
X59384Y101206D01*
X59313Y101134D01*
X59245Y101059D01*
X59180Y100981D01*
X59118Y100901D01*
X59059Y100819D01*
X59003Y100734D01*
X58951Y100648D01*
X58902Y100559D01*
X58856Y100468D01*
X58815Y100376D01*
X58776Y100282D01*
X58742Y100187D01*
X58711Y100091D01*
X58684Y99993D01*
X58660Y99895D01*
X58641Y99795D01*
X58625Y99695D01*
X58613Y99595D01*
X58605Y99494D01*
X58601Y99393D01*
X58601Y99291D01*
X58605Y99190D01*
X58613Y99089D01*
X58625Y98989D01*
X58641Y98889D01*
X58660Y98789D01*
X58684Y98691D01*
X58711Y98593D01*
X58742Y98497D01*
X58776Y98402D01*
X58815Y98308D01*
X58856Y98216D01*
X58902Y98125D01*
X58951Y98037D01*
X59003Y97950D01*
X59059Y97865D01*
X59118Y97783D01*
X59180Y97703D01*
X59245Y97625D01*
X59313Y97550D01*
X59384Y97478D01*
X59457Y97408D01*
X59534Y97342D01*
X59612Y97278D01*
X59694Y97218D01*
X59777Y97161D01*
X59863Y97107D01*
X59951Y97056D01*
X60040Y97009D01*
X60132Y96965D01*
X60225Y96925D01*
X60319Y96888D01*
X60415Y96856D01*
X60512Y96827D01*
X60610Y96801D01*
X60709Y96780D01*
X60809Y96762D01*
X60909Y96749D01*
X61010Y96739D01*
X61111Y96733D01*
X61212Y96731D01*
X63822Y96731D01*
X63822Y106129D01*
X61212Y106129D01*
X61122Y106127D01*
X61033Y106121D01*
X60943Y106112D01*
X60854Y106098D01*
X60766Y106081D01*
X60679Y106060D01*
X60592Y106035D01*
X60507Y106006D01*
X60423Y105974D01*
X60341Y105939D01*
X60260Y105899D01*
X60181Y105857D01*
X60104Y105811D01*
X60029Y105761D01*
X59956Y105709D01*
X59885Y105653D01*
X59817Y105595D01*
X59752Y105533D01*
X59689Y105469D01*
X59629Y105402D01*
X59572Y105333D01*
X59518Y105261D01*
X59467Y105187D01*
X59419Y105111D01*
X59375Y105033D01*
X59334Y104953D01*
X59296Y104871D01*
X59262Y104788D01*
X59232Y104703D01*
X59205Y104617D01*
X59182Y104531D01*
X59163Y104443D01*
X59148Y104354D01*
X59136Y104265D01*
X59128Y104176D01*
X59124Y104086D01*
X59124Y103996D01*
X59128Y103906D01*
X59136Y103817D01*
X59148Y103728D01*
X59163Y103639D01*
X59182Y103551D01*
X59205Y103465D01*
X59232Y103379D01*
X59262Y103294D01*
X59296Y103211D01*
X59334Y103129D01*
X59375Y103049D01*
X59419Y102971D01*
X59467Y102895D01*
X59518Y102821D01*
X59572Y102749D01*
X59629Y102680D01*
X59689Y102613D01*
X59752Y102549D01*
X59817Y102487D01*
X59885Y102429D01*
X59956Y102373D01*
X60029Y102321D01*
X60104Y102271D01*
X60181Y102225D01*
X60260Y102183D01*
X60341Y102143D01*
X60423Y102108D01*
X60507Y102076D01*
X60592Y102047D01*
X60679Y102022D01*
X60766Y102001D01*
X60854Y101984D01*
X60943Y101970D01*
X61033Y101961D01*
X61122Y101955D01*
X61212Y101953D01*
X53936Y57429D02*
X53936Y50119D01*
X53937Y50119D02*
X53939Y50030D01*
X53945Y49942D01*
X53954Y49854D01*
X53967Y49766D01*
X53984Y49679D01*
X54004Y49593D01*
X54029Y49508D01*
X54056Y49423D01*
X54088Y49340D01*
X54122Y49259D01*
X54161Y49179D01*
X54202Y49101D01*
X54247Y49024D01*
X54295Y48950D01*
X54346Y48877D01*
X54400Y48807D01*
X54458Y48740D01*
X54518Y48674D01*
X54580Y48612D01*
X54646Y48552D01*
X54713Y48494D01*
X54783Y48440D01*
X54856Y48389D01*
X54930Y48341D01*
X55007Y48296D01*
X55085Y48255D01*
X55165Y48216D01*
X55246Y48182D01*
X55329Y48150D01*
X55414Y48123D01*
X55499Y48098D01*
X55585Y48078D01*
X55672Y48061D01*
X55760Y48048D01*
X55848Y48039D01*
X55936Y48033D01*
X56025Y48031D01*
X57069Y48031D01*
X49745Y50119D02*
X47656Y57429D01*
X49745Y50119D02*
X44524Y50119D01*
X46090Y52208D02*
X46090Y48031D01*
M02*
