G04 EAGLE Gerber RS-274X export*
G75*
%MOMM*%
%FSLAX34Y34*%
%LPD*%
%INSolderpaste Top*%
%IPPOS*%
%AMOC8*
5,1,8,0,0,1.08239X$1,22.5*%
G01*
%ADD10C,0.139500*%
%ADD11C,0.196500*%


D10*
X277807Y845282D02*
X277807Y853188D01*
X289513Y853188D01*
X289513Y845282D01*
X277807Y845282D01*
X277807Y846607D02*
X289513Y846607D01*
X289513Y847932D02*
X277807Y847932D01*
X277807Y849257D02*
X289513Y849257D01*
X289513Y850582D02*
X277807Y850582D01*
X277807Y851907D02*
X289513Y851907D01*
X277807Y830288D02*
X277807Y822382D01*
X277807Y830288D02*
X289513Y830288D01*
X289513Y822382D01*
X277807Y822382D01*
X277807Y823707D02*
X289513Y823707D01*
X289513Y825032D02*
X277807Y825032D01*
X277807Y826357D02*
X289513Y826357D01*
X289513Y827682D02*
X277807Y827682D01*
X277807Y829007D02*
X289513Y829007D01*
X277807Y807388D02*
X277807Y799482D01*
X277807Y807388D02*
X289513Y807388D01*
X289513Y799482D01*
X277807Y799482D01*
X277807Y800807D02*
X289513Y800807D01*
X289513Y802132D02*
X277807Y802132D01*
X277807Y803457D02*
X289513Y803457D01*
X289513Y804782D02*
X277807Y804782D01*
X277807Y806107D02*
X289513Y806107D01*
D11*
X344992Y811117D02*
X344992Y841553D01*
X356128Y841553D01*
X356128Y811117D01*
X344992Y811117D01*
X344992Y812984D02*
X356128Y812984D01*
X356128Y814851D02*
X344992Y814851D01*
X344992Y816718D02*
X356128Y816718D01*
X356128Y818585D02*
X344992Y818585D01*
X344992Y820452D02*
X356128Y820452D01*
X356128Y822319D02*
X344992Y822319D01*
X344992Y824186D02*
X356128Y824186D01*
X356128Y826053D02*
X344992Y826053D01*
X344992Y827920D02*
X356128Y827920D01*
X356128Y829787D02*
X344992Y829787D01*
X344992Y831654D02*
X356128Y831654D01*
X356128Y833521D02*
X344992Y833521D01*
X344992Y835388D02*
X356128Y835388D01*
X356128Y837255D02*
X344992Y837255D01*
X344992Y839122D02*
X356128Y839122D01*
X356128Y840989D02*
X344992Y840989D01*
M02*
