G04 EAGLE Gerber RS-274X export*
G75*
%MOMM*%
%FSLAX34Y34*%
%LPD*%
%INSoldermask Bottom*%
%IPPOS*%
%AMOC8*
5,1,8,0,0,1.08239X$1,22.5*%
G01*
%ADD10C,3.203200*%
%ADD11C,2.387600*%
%ADD12C,2.153200*%
%ADD13P,1.951982X8X112.500000*%
%ADD14C,1.803400*%
%ADD15C,1.853200*%
%ADD16R,2.453200X2.453200*%
%ADD17C,2.453200*%
%ADD18R,1.981200X1.981200*%
%ADD19C,1.981200*%
%ADD20R,1.763200X1.763200*%
%ADD21C,1.879600*%
%ADD22C,1.524000*%
%ADD23C,2.743200*%
%ADD24C,1.727200*%
%ADD25P,1.852186X8X202.500000*%
%ADD26R,1.727200X1.727200*%
%ADD27P,1.869504X8X22.500000*%
%ADD28P,1.869504X8X112.500000*%
%ADD29C,1.711200*%
%ADD30R,1.903200X2.203200*%
%ADD31P,1.951982X8X292.500000*%
%ADD32C,1.903200*%
%ADD33P,1.649562X8X22.500000*%
%ADD34C,0.959600*%


D10*
X31758Y27824D03*
X794050Y27824D03*
X31758Y1080527D03*
X794050Y1080527D03*
D11*
X72594Y948814D02*
X50750Y948814D01*
X31672Y985892D02*
X31672Y1007736D01*
X91672Y1007736D02*
X91672Y985892D01*
D12*
X71850Y440413D03*
X71850Y390413D03*
X71850Y340413D03*
X71850Y290413D03*
X71863Y225631D03*
X71863Y175631D03*
X71863Y125631D03*
X71863Y75631D03*
X67980Y852795D03*
X67980Y902795D03*
D13*
X128587Y1080038D03*
D14*
X128587Y1054638D03*
D13*
X321304Y950343D03*
D14*
X321304Y914783D03*
D15*
X215890Y906609D02*
X199390Y906609D01*
X199390Y956609D02*
X215890Y956609D01*
D16*
X159812Y1016357D03*
D17*
X371812Y1016357D03*
D18*
X173240Y464941D03*
D19*
X328180Y464941D03*
X173240Y439541D03*
X173240Y414141D03*
X173240Y388741D03*
X173240Y363341D03*
X173240Y337941D03*
X173240Y312541D03*
X173240Y287141D03*
X328180Y439541D03*
X328180Y414141D03*
X328180Y388741D03*
X328180Y363341D03*
X328180Y337941D03*
X328180Y312541D03*
X328180Y287141D03*
D18*
X173240Y238080D03*
D19*
X328180Y238080D03*
X173240Y212680D03*
X173240Y187280D03*
X173240Y161880D03*
X173240Y136480D03*
X173240Y111080D03*
X173240Y85680D03*
X173240Y60280D03*
X328180Y212680D03*
X328180Y187280D03*
X328180Y161880D03*
X328180Y136480D03*
X328180Y111080D03*
X328180Y85680D03*
X328180Y60280D03*
D20*
X438256Y490708D03*
D21*
X438256Y465308D03*
X438256Y33508D03*
X438256Y439908D03*
X438256Y414508D03*
X438256Y389108D03*
X438256Y363708D03*
X438256Y338308D03*
X438256Y312908D03*
X438256Y287508D03*
X438256Y262108D03*
X438256Y236708D03*
X438256Y211308D03*
X438256Y185908D03*
X438256Y160508D03*
X438256Y135108D03*
X438256Y109708D03*
X438256Y84308D03*
X438256Y58908D03*
X692256Y490708D03*
X692256Y465308D03*
X692256Y439908D03*
X692256Y414508D03*
X692256Y389108D03*
X692256Y363708D03*
X692256Y338308D03*
X692256Y312908D03*
X692256Y287508D03*
X692256Y262108D03*
X692256Y236708D03*
X692256Y211308D03*
X692256Y185908D03*
X692256Y160508D03*
X692256Y135108D03*
X692256Y109708D03*
X692256Y84308D03*
X692256Y58908D03*
X692256Y33508D03*
D22*
X420310Y835523D02*
X420310Y848731D01*
X445710Y848731D02*
X445710Y835523D01*
X471110Y835523D02*
X471110Y848731D01*
X496510Y848731D02*
X496510Y835523D01*
X521910Y835523D02*
X521910Y848731D01*
X547310Y848731D02*
X547310Y835523D01*
X572710Y835523D02*
X572710Y848731D01*
X598110Y848731D02*
X598110Y835523D01*
X623510Y835523D02*
X623510Y848731D01*
X648910Y848731D02*
X648910Y835523D01*
X648910Y911723D02*
X648910Y924931D01*
X623510Y924931D02*
X623510Y911723D01*
X598110Y911723D02*
X598110Y924931D01*
X572710Y924931D02*
X572710Y911723D01*
X547310Y911723D02*
X547310Y924931D01*
X521910Y924931D02*
X521910Y911723D01*
X496510Y911723D02*
X496510Y924931D01*
X471110Y924931D02*
X471110Y911723D01*
X445710Y911723D02*
X445710Y924931D01*
X420310Y924931D02*
X420310Y911723D01*
X648760Y945350D02*
X648760Y958558D01*
X623360Y958558D02*
X623360Y945350D01*
X597960Y945350D02*
X597960Y958558D01*
X572560Y958558D02*
X572560Y945350D01*
X547160Y945350D02*
X547160Y958558D01*
X521760Y958558D02*
X521760Y945350D01*
X496360Y945350D02*
X496360Y958558D01*
X470960Y958558D02*
X470960Y945350D01*
X445560Y945350D02*
X445560Y958558D01*
X420160Y958558D02*
X420160Y945350D01*
X45258Y530160D02*
X32050Y530160D01*
X32050Y504760D02*
X45258Y504760D01*
X45258Y555560D02*
X32050Y555560D01*
X82850Y504760D02*
X96058Y504760D01*
X96058Y530160D02*
X82850Y530160D01*
X82850Y555560D02*
X96058Y555560D01*
D23*
X170967Y759229D02*
X196367Y759229D01*
X196367Y508785D02*
X170967Y508785D01*
D22*
X45404Y627366D02*
X32196Y627366D01*
X32196Y601966D02*
X45404Y601966D01*
X45404Y652766D02*
X32196Y652766D01*
X82996Y601966D02*
X96204Y601966D01*
X96204Y627366D02*
X82996Y627366D01*
X82996Y652766D02*
X96204Y652766D01*
D23*
X299503Y508975D02*
X324903Y508975D01*
X324903Y759419D02*
X299503Y759419D01*
D24*
X382636Y33492D02*
X397876Y33492D01*
X397876Y58892D02*
X382636Y58892D01*
X382636Y84292D02*
X397876Y84292D01*
X397876Y109692D02*
X382636Y109692D01*
X382636Y135092D02*
X397876Y135092D01*
X397876Y160492D02*
X382636Y160492D01*
X382636Y185892D02*
X397876Y185892D01*
X397876Y211292D02*
X382636Y211292D01*
X382636Y236692D02*
X397876Y236692D01*
X397876Y262092D02*
X382636Y262092D01*
X382636Y287492D02*
X397876Y287492D01*
X397876Y312892D02*
X382636Y312892D01*
X382636Y338292D02*
X397876Y338292D01*
X397876Y363692D02*
X382636Y363692D01*
X382636Y389092D02*
X397876Y389092D01*
X397876Y414492D02*
X382636Y414492D01*
X382636Y439892D02*
X397876Y439892D01*
X397876Y465292D02*
X382636Y465292D01*
X382636Y490692D02*
X397876Y490692D01*
X732636Y490692D02*
X747876Y490692D01*
X747876Y465292D02*
X732636Y465292D01*
X732636Y439892D02*
X747876Y439892D01*
X747876Y414492D02*
X732636Y414492D01*
X732636Y389092D02*
X747876Y389092D01*
X747876Y363692D02*
X732636Y363692D01*
X732636Y338292D02*
X747876Y338292D01*
X747876Y312892D02*
X732636Y312892D01*
X732636Y287492D02*
X747876Y287492D01*
X747876Y262092D02*
X732636Y262092D01*
X732636Y236692D02*
X747876Y236692D01*
X747876Y211292D02*
X732636Y211292D01*
X732636Y185892D02*
X747876Y185892D01*
X747876Y160492D02*
X732636Y160492D01*
X732636Y135092D02*
X747876Y135092D01*
X747876Y109692D02*
X732636Y109692D01*
X732636Y84292D02*
X747876Y84292D01*
X747876Y58892D02*
X732636Y58892D01*
X732636Y33492D02*
X747876Y33492D01*
D25*
X499621Y1056529D03*
X499621Y1031129D03*
X474221Y1056529D03*
X474221Y1031129D03*
X448821Y1056529D03*
X448821Y1031129D03*
X716006Y1056453D03*
X716006Y1031053D03*
X690606Y1056453D03*
X690606Y1031053D03*
X665206Y1056453D03*
X665206Y1031053D03*
X639806Y1056453D03*
X639806Y1031053D03*
X614406Y1056453D03*
X614406Y1031053D03*
D26*
X686197Y951200D03*
D27*
X686197Y925800D03*
X686197Y900400D03*
X686197Y875000D03*
X686197Y849600D03*
D26*
X693953Y727144D03*
D28*
X719353Y727144D03*
X744753Y727144D03*
D29*
X575373Y774027D02*
X575373Y789107D01*
X575373Y724107D02*
X575373Y709027D01*
X530373Y774027D02*
X530373Y789107D01*
X530373Y724107D02*
X530373Y709027D01*
X575373Y681949D02*
X575373Y666869D01*
X575373Y616949D02*
X575373Y601869D01*
X530373Y666869D02*
X530373Y681949D01*
X530373Y616949D02*
X530373Y601869D01*
D26*
X693953Y669425D03*
D28*
X719353Y669425D03*
X744753Y669425D03*
D26*
X693953Y698285D03*
D28*
X719353Y698285D03*
X744753Y698285D03*
D29*
X652860Y774027D02*
X652860Y789107D01*
X652860Y724107D02*
X652860Y709027D01*
X607860Y774027D02*
X607860Y789107D01*
X607860Y724107D02*
X607860Y709027D01*
X652860Y681949D02*
X652860Y666869D01*
X652860Y616949D02*
X652860Y601869D01*
X607860Y666869D02*
X607860Y681949D01*
X607860Y616949D02*
X607860Y601869D01*
D30*
X112900Y440400D03*
X30900Y290400D03*
X112900Y225900D03*
X30900Y75900D03*
D31*
X251920Y849680D03*
X251920Y798880D03*
X221945Y849620D03*
X221945Y798820D03*
D13*
X177285Y834875D03*
D14*
X177285Y809475D03*
D22*
X442222Y725602D02*
X442222Y712394D01*
X467622Y712394D02*
X467622Y725602D01*
X416822Y725602D02*
X416822Y712394D01*
X467622Y763194D02*
X467622Y776402D01*
X442222Y776402D02*
X442222Y763194D01*
X416822Y763194D02*
X416822Y776402D01*
X442222Y614793D02*
X442222Y601585D01*
X467622Y601585D02*
X467622Y614793D01*
X416822Y614793D02*
X416822Y601585D01*
X467622Y652385D02*
X467622Y665593D01*
X442222Y665593D02*
X442222Y652385D01*
X416822Y652385D02*
X416822Y665593D01*
D26*
X746997Y951200D03*
D27*
X746997Y925800D03*
X746997Y900400D03*
X746997Y875000D03*
X746997Y849600D03*
D26*
X716597Y951200D03*
D27*
X716597Y925800D03*
X716597Y900400D03*
X716597Y875000D03*
X716597Y849600D03*
D32*
X389950Y839510D03*
X389950Y915710D03*
D33*
X677795Y801775D03*
X753995Y801775D03*
D24*
X181910Y1061945D02*
X181910Y1077185D01*
X207310Y1077185D02*
X207310Y1061945D01*
X232710Y1061945D02*
X232710Y1077185D01*
X258110Y1077185D02*
X258110Y1061945D01*
X283510Y1061945D02*
X283510Y1077185D01*
X57955Y721900D02*
X42715Y721900D01*
X42715Y747300D02*
X57955Y747300D01*
X57955Y772700D02*
X42715Y772700D01*
D34*
X300290Y56665D03*
X784420Y195900D03*
X309725Y676485D03*
X184360Y670165D03*
X105305Y36780D03*
X305940Y260880D03*
X277440Y261380D03*
X362400Y1062945D03*
X748310Y757985D03*
X738500Y612500D03*
X499695Y598090D03*
X558690Y754495D03*
X747310Y999460D03*
X747330Y1020865D03*
X690315Y600010D03*
X798080Y1026845D03*
X747890Y978850D03*
X546565Y765690D03*
X570800Y298920D03*
X381150Y687975D03*
X557750Y326590D03*
M02*
