M48
;GenerationSoftware,Autodesk,EAGLE,9.6.2*%
;CreationDate,2020-09-05T15:19:04Z*%
FMAT,2
ICI,OFF
METRIC,TZ,000.000
T12C0.350
T11C0.800
T10C0.813
T9C1.000
T8C1.016
T7C1.040
T6C1.100
T5C1.300
T4C1.321
T3C1.500
T2C3.000
%
G90
M71
T2
X3176Y2782
X79405Y2782
X3176Y108053
X79405Y108053
T3
X37181Y101636
X15981Y101636
T4
X18367Y50878
X31220Y75942
X31220Y50898
X18367Y75923
T5
X6798Y90280
X6798Y85280
X7186Y7563
X7186Y17563
X7186Y22563
X7185Y29041
X7185Y34041
X7185Y39041
X7185Y44041
X7186Y12563
T6
X38995Y91571
X20764Y95661
X20764Y90661
X38995Y83951
T7
X43826Y38911
X69226Y8431
X69226Y10971
X43826Y5891
X69226Y18591
X43826Y26211
X43826Y28751
X43826Y31291
X43826Y33831
X43826Y36371
X69226Y16051
X43826Y41451
X69226Y21131
X69226Y13511
X43826Y43991
X43826Y3351
X43826Y46531
X43826Y49071
X69226Y5891
X69226Y3351
X43826Y13511
X69226Y49071
X69226Y46531
X69226Y43991
X69226Y41451
X43826Y8431
X43826Y10971
X43826Y23671
X69226Y38911
X69226Y36371
X69226Y33831
X69226Y31291
X69226Y28751
X69226Y26211
X69226Y23671
X43826Y16051
X43826Y18591
X43826Y21131
T8
X39026Y8429
X74475Y69828
X71935Y69828
X69395Y69828
X74475Y66943
X71935Y66943
X69395Y66943
X74026Y26209
X39026Y46529
X39026Y49069
X74026Y49069
X74026Y46529
X74026Y43989
X74026Y41449
X74026Y38909
X74026Y36369
X74026Y33829
X74026Y31289
X74026Y28749
X39026Y43989
X74026Y23669
X74026Y21129
X74026Y18589
X74026Y16049
X74026Y13509
X74026Y10969
X74026Y8429
X74026Y5889
X74026Y3349
X68620Y95120
X39026Y16049
X71935Y72714
X69395Y72714
X68620Y84960
X68620Y87500
X68620Y90040
X39026Y3349
X39026Y5889
X68620Y92580
X39026Y10969
X39026Y13509
X74475Y72714
X39026Y18589
X39026Y21129
X39026Y23669
X39026Y26209
X39026Y28749
X39026Y31289
X39026Y33829
X39026Y36369
X39026Y38909
X39026Y41449
X71660Y87500
X5034Y74730
X5034Y72190
X28351Y106956
X25811Y106956
X23271Y106956
X20731Y106956
X18191Y106956
X71660Y84960
X5034Y77270
X71660Y90040
X71660Y92580
X71660Y95120
X74700Y84960
X74700Y87500
X74700Y90040
X74700Y92580
X74700Y95120
T9
X61441Y103105
X32818Y36334
X32818Y38874
X32818Y41414
X32818Y43954
X17324Y28714
X17324Y31254
X17324Y33794
X17324Y36334
X17324Y38874
X17324Y41414
X17324Y43954
X32818Y46494
X17324Y46494
X9167Y99681
X32818Y8568
X49962Y105653
X61441Y105645
X63981Y103105
X63981Y105645
X66521Y103105
X66521Y105645
X69061Y103105
X69061Y105645
X71601Y103105
X71601Y105645
X44882Y103113
X44882Y105653
X47422Y103113
X47422Y105653
X49962Y103113
X65286Y78157
X57537Y60941
X53037Y67441
X53037Y60941
X17324Y6028
X32818Y21268
X32818Y18728
X32818Y16188
X32818Y13648
X32818Y11108
X32818Y31254
X65286Y71657
X60786Y78157
X60786Y71657
X65286Y67441
X65286Y60941
X60786Y67441
X60786Y60941
X32818Y6028
X53037Y71657
X32818Y33794
X32818Y28714
X17324Y23808
X32818Y23808
X17324Y21268
X17324Y18728
X17324Y16188
X17324Y13648
X17324Y11108
X17324Y8568
X57537Y78157
X57537Y71657
X57537Y67441
X53037Y78157
T10
X22194Y79882
X47096Y95195
X46762Y60819
X44222Y60819
X41682Y76980
X44222Y76980
X46762Y76980
X41682Y71900
X46762Y71900
X44222Y71900
X17729Y80948
X17729Y83488
X75400Y80178
X22194Y84962
X25192Y79888
X25192Y84968
X41682Y65899
X44222Y65899
X46762Y65899
X41682Y60819
X67780Y80178
X57271Y84213
X47111Y91833
X49651Y91833
X52191Y91833
X54731Y91833
X57271Y91833
X59811Y91833
X62351Y91833
X64891Y91833
X64891Y84213
X62351Y84213
X59811Y84213
X8960Y62737
X54731Y84213
X52191Y84213
X49651Y84213
X47111Y84213
X44571Y84213
X42031Y84213
X32130Y91478
X32130Y95034
X12859Y105464
X12859Y108004
X42031Y91833
X8960Y65277
X8960Y60197
X3880Y65277
X3880Y60197
X3880Y62737
X8945Y55556
X8945Y53016
X8945Y50476
X3865Y55556
X3865Y50476
X3865Y53016
X44556Y95195
X42016Y95195
X49636Y95195
X52176Y95195
X54716Y95195
X57256Y95195
X59796Y95195
X62336Y95195
X64876Y95195
X44571Y91833
T11
X3167Y99681
X6167Y94881
T12
X78442Y19590
X30972Y67649
X18436Y67017
X10531Y3678
X30594Y26088
X27744Y26138
X36240Y106294
X74831Y75799
X73850Y61250
X49969Y59809
X55869Y75450
X74731Y99946
X74733Y102086
X69032Y60001
X79808Y102684
X74789Y97885
X54656Y76569
X57080Y29892
X38115Y68798
X55775Y32659
X30029Y5666
M30