M48
; DRILL file {KiCad 9.0.7-9.0.7~ubuntu22.04.1} date 2026-03-06T23:12:57+0530
; FORMAT={-:-/ absolute / metric / decimal}
; #@! TF.CreationDate,2026-03-06T23:12:57+05:30
; #@! TF.GenerationSoftware,Kicad,Pcbnew,9.0.7-9.0.7~ubuntu22.04.1
; #@! TF.FileFunction,Plated,1,2,PTH
FMAT,2
METRIC
; #@! TA.AperFunction,Plated,PTH,ComponentDrill
T1C1.000
%
G90
G05
T1
X89.93Y-77.85
X89.93Y-83.35
X92.47Y-77.85
X92.47Y-83.35
X103.13Y-77.85
X103.13Y-83.35
X105.67Y-77.85
X105.67Y-83.35
X108.5Y-72.4
X111.04Y-72.4
X113.58Y-72.4
X114.93Y-77.85
X114.93Y-83.35
X116.12Y-72.4
X117.47Y-77.85
X117.47Y-83.35
X118.66Y-72.4
X121.2Y-72.4
X123.74Y-72.4
X126.73Y-77.85
X126.73Y-83.35
X129.27Y-77.85
X129.27Y-83.35
X139.93Y-77.85
X139.93Y-83.35
X142.47Y-77.85
X142.47Y-83.35
M30
