%TF.GenerationSoftware,KiCad,Pcbnew,7.0.5*%
%TF.CreationDate,2024-05-04T18:26:22+05:30*%
%TF.ProjectId,sra_dev_board_2023,7372615f-6465-4765-9f62-6f6172645f32,rev?*%
%TF.SameCoordinates,Original*%
%TF.FileFunction,OtherDrawing,Comment*%
%FSLAX46Y46*%
G04 Gerber Fmt 4.6, Leading zero omitted, Abs format (unit mm)*
G04 Created by KiCad (PCBNEW 7.0.5) date 2024-05-04 18:26:22*
%MOMM*%
%LPD*%
G01*
G04 APERTURE LIST*
%ADD10C,0.750000*%
%ADD11C,0.150000*%
G04 APERTURE END LIST*
D10*
X168808989Y-89412097D02*
X168810375Y-88840670D01*
X168810375Y-88840670D02*
X168668211Y-88554610D01*
X168668211Y-88554610D02*
X168525701Y-88411407D01*
X168525701Y-88411407D02*
X168097824Y-88124653D01*
X168097824Y-88124653D02*
X167526744Y-87980411D01*
X167526744Y-87980411D02*
X166383890Y-87977638D01*
X166383890Y-87977638D02*
X166097830Y-88119802D01*
X166097830Y-88119802D02*
X165954627Y-88262312D01*
X165954627Y-88262312D02*
X165811077Y-88547679D01*
X165811077Y-88547679D02*
X165809691Y-89119106D01*
X165809691Y-89119106D02*
X165951854Y-89405166D01*
X165951854Y-89405166D02*
X166094364Y-89548369D01*
X166094364Y-89548369D02*
X166379731Y-89691919D01*
X166379731Y-89691919D02*
X167094015Y-89693652D01*
X167094015Y-89693652D02*
X167380075Y-89551488D01*
X167380075Y-89551488D02*
X167523278Y-89408978D01*
X167523278Y-89408978D02*
X167666828Y-89123611D01*
X167666828Y-89123611D02*
X167668214Y-88552184D01*
X167668214Y-88552184D02*
X167526050Y-88266124D01*
X167526050Y-88266124D02*
X167383540Y-88122921D01*
X167383540Y-88122921D02*
X167098173Y-87979371D01*
X166100948Y-86834091D02*
X165958438Y-86690888D01*
X165958438Y-86690888D02*
X165816275Y-86404828D01*
X165816275Y-86404828D02*
X165818007Y-85690545D01*
X165818007Y-85690545D02*
X165961557Y-85405178D01*
X165961557Y-85405178D02*
X166104760Y-85262668D01*
X166104760Y-85262668D02*
X166390820Y-85120504D01*
X166390820Y-85120504D02*
X166676534Y-85121197D01*
X166676534Y-85121197D02*
X167104757Y-85265093D01*
X167104757Y-85265093D02*
X168814880Y-86983532D01*
X168814880Y-86983532D02*
X168819385Y-85126395D01*
X168536790Y-83839991D02*
X168679993Y-83697481D01*
X168679993Y-83697481D02*
X168822503Y-83840684D01*
X168822503Y-83840684D02*
X168679300Y-83983194D01*
X168679300Y-83983194D02*
X168536790Y-83839991D01*
X168536790Y-83839991D02*
X168822503Y-83840684D01*
X165829096Y-81119130D02*
X165827710Y-81690557D01*
X165827710Y-81690557D02*
X165969874Y-81976617D01*
X165969874Y-81976617D02*
X166112384Y-82119820D01*
X166112384Y-82119820D02*
X166540261Y-82406573D01*
X166540261Y-82406573D02*
X167111341Y-82550816D01*
X167111341Y-82550816D02*
X168254195Y-82553588D01*
X168254195Y-82553588D02*
X168540255Y-82411424D01*
X168540255Y-82411424D02*
X168683458Y-82268914D01*
X168683458Y-82268914D02*
X168827008Y-81983547D01*
X168827008Y-81983547D02*
X168828394Y-81412120D01*
X168828394Y-81412120D02*
X168686231Y-81126060D01*
X168686231Y-81126060D02*
X168543720Y-80982857D01*
X168543720Y-80982857D02*
X168258353Y-80839307D01*
X168258353Y-80839307D02*
X167544070Y-80837575D01*
X167544070Y-80837575D02*
X167258010Y-80979738D01*
X167258010Y-80979738D02*
X167114807Y-81122249D01*
X167114807Y-81122249D02*
X166971257Y-81407615D01*
X166971257Y-81407615D02*
X166969871Y-81979042D01*
X166969871Y-81979042D02*
X167112034Y-82265102D01*
X167112034Y-82265102D02*
X167254545Y-82408306D01*
X167254545Y-82408306D02*
X167539911Y-82551855D01*
X167119658Y-79122254D02*
X166976108Y-79407621D01*
X166976108Y-79407621D02*
X166832905Y-79550131D01*
X166832905Y-79550131D02*
X166546845Y-79692295D01*
X166546845Y-79692295D02*
X166403988Y-79691949D01*
X166403988Y-79691949D02*
X166118621Y-79548399D01*
X166118621Y-79548399D02*
X165976111Y-79405196D01*
X165976111Y-79405196D02*
X165833947Y-79119136D01*
X165833947Y-79119136D02*
X165835334Y-78547709D01*
X165835334Y-78547709D02*
X165978883Y-78262342D01*
X165978883Y-78262342D02*
X166122087Y-78119832D01*
X166122087Y-78119832D02*
X166408147Y-77977668D01*
X166408147Y-77977668D02*
X166551003Y-77978014D01*
X166551003Y-77978014D02*
X166836370Y-78121564D01*
X166836370Y-78121564D02*
X166978880Y-78264767D01*
X166978880Y-78264767D02*
X167121044Y-78550827D01*
X167121044Y-78550827D02*
X167119658Y-79122254D01*
X167119658Y-79122254D02*
X167261822Y-79408314D01*
X167261822Y-79408314D02*
X167404332Y-79551517D01*
X167404332Y-79551517D02*
X167689699Y-79695067D01*
X167689699Y-79695067D02*
X168261126Y-79696453D01*
X168261126Y-79696453D02*
X168547186Y-79554290D01*
X168547186Y-79554290D02*
X168690389Y-79411780D01*
X168690389Y-79411780D02*
X168833939Y-79126413D01*
X168833939Y-79126413D02*
X168835325Y-78554986D01*
X168835325Y-78554986D02*
X168693161Y-78268926D01*
X168693161Y-78268926D02*
X168550651Y-78125722D01*
X168550651Y-78125722D02*
X168265284Y-77982173D01*
X168265284Y-77982173D02*
X167693857Y-77980787D01*
X167693857Y-77980787D02*
X167407797Y-78122950D01*
X167407797Y-78122950D02*
X167264594Y-78265460D01*
X167264594Y-78265460D02*
X167121044Y-78550827D01*
X166125205Y-76834121D02*
X165982695Y-76690918D01*
X165982695Y-76690918D02*
X165840531Y-76404858D01*
X165840531Y-76404858D02*
X165842264Y-75690574D01*
X165842264Y-75690574D02*
X165985814Y-75405207D01*
X165985814Y-75405207D02*
X166129017Y-75262697D01*
X166129017Y-75262697D02*
X166415077Y-75120533D01*
X166415077Y-75120533D02*
X166700790Y-75121226D01*
X166700790Y-75121226D02*
X167129014Y-75265123D01*
X167129014Y-75265123D02*
X168839136Y-76983562D01*
X168839136Y-76983562D02*
X168843641Y-75126424D01*
X165850234Y-72404869D02*
X165846769Y-73833437D01*
X165846769Y-73833437D02*
X167274990Y-73979759D01*
X167274990Y-73979759D02*
X167132479Y-73836555D01*
X167132479Y-73836555D02*
X166990316Y-73550495D01*
X166990316Y-73550495D02*
X166992048Y-72836212D01*
X166992048Y-72836212D02*
X167135598Y-72550845D01*
X167135598Y-72550845D02*
X167278801Y-72408335D01*
X167278801Y-72408335D02*
X167564861Y-72266171D01*
X167564861Y-72266171D02*
X168279145Y-72267904D01*
X168279145Y-72267904D02*
X168564512Y-72411453D01*
X168564512Y-72411453D02*
X168707022Y-72554657D01*
X168707022Y-72554657D02*
X168849186Y-72840717D01*
X168849186Y-72840717D02*
X168847453Y-73555000D01*
X168847453Y-73555000D02*
X168703903Y-73840367D01*
X168703903Y-73840367D02*
X168560700Y-73982877D01*
X168859235Y-68697872D02*
X166859241Y-68693020D01*
X167144954Y-68693713D02*
X167002444Y-68550510D01*
X167002444Y-68550510D02*
X166860280Y-68264450D01*
X166860280Y-68264450D02*
X166861320Y-67835880D01*
X166861320Y-67835880D02*
X167004870Y-67550513D01*
X167004870Y-67550513D02*
X167290930Y-67408349D01*
X167290930Y-67408349D02*
X168862354Y-67412161D01*
X167290930Y-67408349D02*
X167005563Y-67264800D01*
X167005563Y-67264800D02*
X166863399Y-66978740D01*
X166863399Y-66978740D02*
X166864439Y-66550169D01*
X166864439Y-66550169D02*
X167007988Y-66264803D01*
X167007988Y-66264803D02*
X167294048Y-66122639D01*
X167294048Y-66122639D02*
X168865472Y-66126451D01*
X168868938Y-64697883D02*
X166868944Y-64693032D01*
X167154657Y-64693725D02*
X167012147Y-64550522D01*
X167012147Y-64550522D02*
X166869983Y-64264462D01*
X166869983Y-64264462D02*
X166871023Y-63835892D01*
X166871023Y-63835892D02*
X167014572Y-63550525D01*
X167014572Y-63550525D02*
X167300632Y-63408361D01*
X167300632Y-63408361D02*
X168872056Y-63412173D01*
X167300632Y-63408361D02*
X167015266Y-63264811D01*
X167015266Y-63264811D02*
X166873102Y-62978751D01*
X166873102Y-62978751D02*
X166874141Y-62550181D01*
X166874141Y-62550181D02*
X167017691Y-62264814D01*
X167017691Y-62264814D02*
X167303751Y-62122651D01*
X167303751Y-62122651D02*
X168875175Y-62126462D01*
D11*
X149009999Y-29451213D02*
X171941873Y-29506839D01*
X148785181Y-122133446D02*
X171717055Y-122189072D01*
X171355454Y-29505416D02*
X171130636Y-122187649D01*
X171355454Y-29505416D02*
X171130636Y-122187649D01*
X171355454Y-29505416D02*
X171939140Y-30633339D01*
X171355454Y-29505416D02*
X170766302Y-30630494D01*
X171130636Y-122187649D02*
X170546950Y-121059726D01*
X171130636Y-122187649D02*
X171719788Y-121062571D01*
D10*
X97139830Y-10179173D02*
X96853632Y-10037286D01*
X96853632Y-10037286D02*
X96710291Y-9894915D01*
X96710291Y-9894915D02*
X96566464Y-9609687D01*
X96566464Y-9609687D02*
X96565979Y-9466831D01*
X96565979Y-9466831D02*
X96707866Y-9180633D01*
X96707866Y-9180633D02*
X96850237Y-9037292D01*
X96850237Y-9037292D02*
X97135465Y-8893466D01*
X97135465Y-8893466D02*
X97706890Y-8891526D01*
X97706890Y-8891526D02*
X97993087Y-9033412D01*
X97993087Y-9033412D02*
X98136429Y-9175783D01*
X98136429Y-9175783D02*
X98280255Y-9461011D01*
X98280255Y-9461011D02*
X98280740Y-9603867D01*
X98280740Y-9603867D02*
X98138854Y-9890065D01*
X98138854Y-9890065D02*
X97996482Y-10033406D01*
X97996482Y-10033406D02*
X97711255Y-10177233D01*
X97711255Y-10177233D02*
X97139830Y-10179173D01*
X97139830Y-10179173D02*
X96854602Y-10322999D01*
X96854602Y-10322999D02*
X96712231Y-10466340D01*
X96712231Y-10466340D02*
X96570344Y-10752538D01*
X96570344Y-10752538D02*
X96572284Y-11323963D01*
X96572284Y-11323963D02*
X96716111Y-11609191D01*
X96716111Y-11609191D02*
X96859452Y-11751562D01*
X96859452Y-11751562D02*
X97145650Y-11893448D01*
X97145650Y-11893448D02*
X97717075Y-11891508D01*
X97717075Y-11891508D02*
X98002303Y-11747682D01*
X98002303Y-11747682D02*
X98144674Y-11604341D01*
X98144674Y-11604341D02*
X98286560Y-11318143D01*
X98286560Y-11318143D02*
X98284620Y-10746718D01*
X98284620Y-10746718D02*
X98140794Y-10461490D01*
X98140794Y-10461490D02*
X97997452Y-10319119D01*
X97997452Y-10319119D02*
X97711255Y-10177233D01*
X101145627Y-11879868D02*
X99431351Y-11885688D01*
X100288489Y-11882778D02*
X100278304Y-8882796D01*
X100278304Y-8882796D02*
X99994046Y-9312335D01*
X99994046Y-9312335D02*
X99709303Y-9599017D01*
X99709303Y-9599017D02*
X99424076Y-9742844D01*
X102430364Y-11589791D02*
X102573705Y-11732162D01*
X102573705Y-11732162D02*
X102431334Y-11875503D01*
X102431334Y-11875503D02*
X102287992Y-11733132D01*
X102287992Y-11733132D02*
X102430364Y-11589791D01*
X102430364Y-11589791D02*
X102431334Y-11875503D01*
X104421137Y-8868730D02*
X104706849Y-8867760D01*
X104706849Y-8867760D02*
X104993047Y-9009647D01*
X104993047Y-9009647D02*
X105136388Y-9152018D01*
X105136388Y-9152018D02*
X105280215Y-9437246D01*
X105280215Y-9437246D02*
X105425011Y-10008186D01*
X105425011Y-10008186D02*
X105427436Y-10722468D01*
X105427436Y-10722468D02*
X105286520Y-11294378D01*
X105286520Y-11294378D02*
X105144633Y-11580575D01*
X105144633Y-11580575D02*
X105002262Y-11723917D01*
X105002262Y-11723917D02*
X104717034Y-11867743D01*
X104717034Y-11867743D02*
X104431322Y-11868713D01*
X104431322Y-11868713D02*
X104145124Y-11726827D01*
X104145124Y-11726827D02*
X104001783Y-11584456D01*
X104001783Y-11584456D02*
X103857956Y-11299228D01*
X103857956Y-11299228D02*
X103713160Y-10728288D01*
X103713160Y-10728288D02*
X103710735Y-10014006D01*
X103710735Y-10014006D02*
X103851651Y-9442096D01*
X103851651Y-9442096D02*
X103993538Y-9155898D01*
X103993538Y-9155898D02*
X104135909Y-9012557D01*
X104135909Y-9012557D02*
X104421137Y-8868730D01*
X107278263Y-8859030D02*
X107563976Y-8858060D01*
X107563976Y-8858060D02*
X107850173Y-8999947D01*
X107850173Y-8999947D02*
X107993515Y-9142318D01*
X107993515Y-9142318D02*
X108137341Y-9427546D01*
X108137341Y-9427546D02*
X108282137Y-9998486D01*
X108282137Y-9998486D02*
X108284563Y-10712767D01*
X108284563Y-10712767D02*
X108143646Y-11284678D01*
X108143646Y-11284678D02*
X108001760Y-11570875D01*
X108001760Y-11570875D02*
X107859389Y-11714217D01*
X107859389Y-11714217D02*
X107574161Y-11858043D01*
X107574161Y-11858043D02*
X107288448Y-11859013D01*
X107288448Y-11859013D02*
X107002251Y-11717127D01*
X107002251Y-11717127D02*
X106858909Y-11574755D01*
X106858909Y-11574755D02*
X106715083Y-11289528D01*
X106715083Y-11289528D02*
X106570287Y-10718587D01*
X106570287Y-10718587D02*
X106567862Y-10004306D01*
X106567862Y-10004306D02*
X106708778Y-9432396D01*
X106708778Y-9432396D02*
X106850664Y-9146198D01*
X106850664Y-9146198D02*
X106993036Y-9002857D01*
X106993036Y-9002857D02*
X107278263Y-8859030D01*
X110135390Y-8849330D02*
X110421102Y-8848360D01*
X110421102Y-8848360D02*
X110707300Y-8990246D01*
X110707300Y-8990246D02*
X110850641Y-9132618D01*
X110850641Y-9132618D02*
X110994468Y-9417845D01*
X110994468Y-9417845D02*
X111139264Y-9988786D01*
X111139264Y-9988786D02*
X111141689Y-10703067D01*
X111141689Y-10703067D02*
X111000773Y-11274978D01*
X111000773Y-11274978D02*
X110858886Y-11561175D01*
X110858886Y-11561175D02*
X110716515Y-11704517D01*
X110716515Y-11704517D02*
X110431287Y-11848343D01*
X110431287Y-11848343D02*
X110145575Y-11849313D01*
X110145575Y-11849313D02*
X109859377Y-11707427D01*
X109859377Y-11707427D02*
X109716036Y-11565055D01*
X109716036Y-11565055D02*
X109572210Y-11279828D01*
X109572210Y-11279828D02*
X109427413Y-10708887D01*
X109427413Y-10708887D02*
X109424988Y-9994606D01*
X109424988Y-9994606D02*
X109565904Y-9422695D01*
X109565904Y-9422695D02*
X109707791Y-9136498D01*
X109707791Y-9136498D02*
X109850162Y-8993157D01*
X109850162Y-8993157D02*
X110135390Y-8849330D01*
X113849654Y-8836720D02*
X112421091Y-8841570D01*
X112421091Y-8841570D02*
X112283085Y-10270618D01*
X112283085Y-10270618D02*
X112425456Y-10127277D01*
X112425456Y-10127277D02*
X112710684Y-9983451D01*
X112710684Y-9983451D02*
X113424965Y-9981026D01*
X113424965Y-9981026D02*
X113711163Y-10122912D01*
X113711163Y-10122912D02*
X113854504Y-10265283D01*
X113854504Y-10265283D02*
X113998331Y-10550511D01*
X113998331Y-10550511D02*
X114000756Y-11264792D01*
X114000756Y-11264792D02*
X113858869Y-11550990D01*
X113858869Y-11550990D02*
X113716498Y-11694331D01*
X113716498Y-11694331D02*
X113431270Y-11838158D01*
X113431270Y-11838158D02*
X112716989Y-11840583D01*
X112716989Y-11840583D02*
X112430791Y-11698696D01*
X112430791Y-11698696D02*
X112287450Y-11556325D01*
X117574103Y-11824093D02*
X117567313Y-9824104D01*
X117568283Y-10109817D02*
X117710655Y-9966475D01*
X117710655Y-9966475D02*
X117995882Y-9822649D01*
X117995882Y-9822649D02*
X118424451Y-9821194D01*
X118424451Y-9821194D02*
X118710649Y-9963080D01*
X118710649Y-9963080D02*
X118854475Y-10248308D01*
X118854475Y-10248308D02*
X118859810Y-11819728D01*
X118854475Y-10248308D02*
X118996362Y-9962110D01*
X118996362Y-9962110D02*
X119281589Y-9818284D01*
X119281589Y-9818284D02*
X119710158Y-9816829D01*
X119710158Y-9816829D02*
X119996356Y-9958715D01*
X119996356Y-9958715D02*
X120140182Y-10243943D01*
X120140182Y-10243943D02*
X120145517Y-11815362D01*
X121574080Y-11810512D02*
X121567290Y-9810524D01*
X121568260Y-10096237D02*
X121710632Y-9952895D01*
X121710632Y-9952895D02*
X121995859Y-9809069D01*
X121995859Y-9809069D02*
X122424428Y-9807614D01*
X122424428Y-9807614D02*
X122710626Y-9949500D01*
X122710626Y-9949500D02*
X122854452Y-10234728D01*
X122854452Y-10234728D02*
X122859787Y-11806147D01*
X122854452Y-10234728D02*
X122996339Y-9948530D01*
X122996339Y-9948530D02*
X123281566Y-9804704D01*
X123281566Y-9804704D02*
X123710135Y-9803249D01*
X123710135Y-9803249D02*
X123996333Y-9945135D01*
X123996333Y-9945135D02*
X124140159Y-10230363D01*
X124140159Y-10230363D02*
X124145494Y-11801782D01*
D11*
X69998302Y-31725003D02*
X69937447Y-13800555D01*
X150998302Y-31450003D02*
X150937447Y-13525555D01*
X69939439Y-14386972D02*
X150939439Y-14111972D01*
X69939439Y-14386972D02*
X150939439Y-14111972D01*
X69939439Y-14386972D02*
X71063945Y-13796730D01*
X69939439Y-14386972D02*
X71067927Y-14969565D01*
X150939439Y-14111972D02*
X149814933Y-14702214D01*
X150939439Y-14111972D02*
X149810951Y-13529379D01*
D10*
X154984571Y-89060713D02*
X154841714Y-89346428D01*
X154841714Y-89346428D02*
X154698857Y-89489285D01*
X154698857Y-89489285D02*
X154413142Y-89632142D01*
X154413142Y-89632142D02*
X154270285Y-89632142D01*
X154270285Y-89632142D02*
X153984571Y-89489285D01*
X153984571Y-89489285D02*
X153841714Y-89346428D01*
X153841714Y-89346428D02*
X153698857Y-89060713D01*
X153698857Y-89060713D02*
X153698857Y-88489285D01*
X153698857Y-88489285D02*
X153841714Y-88203571D01*
X153841714Y-88203571D02*
X153984571Y-88060713D01*
X153984571Y-88060713D02*
X154270285Y-87917856D01*
X154270285Y-87917856D02*
X154413142Y-87917856D01*
X154413142Y-87917856D02*
X154698857Y-88060713D01*
X154698857Y-88060713D02*
X154841714Y-88203571D01*
X154841714Y-88203571D02*
X154984571Y-88489285D01*
X154984571Y-88489285D02*
X154984571Y-89060713D01*
X154984571Y-89060713D02*
X155127428Y-89346428D01*
X155127428Y-89346428D02*
X155270285Y-89489285D01*
X155270285Y-89489285D02*
X155556000Y-89632142D01*
X155556000Y-89632142D02*
X156127428Y-89632142D01*
X156127428Y-89632142D02*
X156413142Y-89489285D01*
X156413142Y-89489285D02*
X156556000Y-89346428D01*
X156556000Y-89346428D02*
X156698857Y-89060713D01*
X156698857Y-89060713D02*
X156698857Y-88489285D01*
X156698857Y-88489285D02*
X156556000Y-88203571D01*
X156556000Y-88203571D02*
X156413142Y-88060713D01*
X156413142Y-88060713D02*
X156127428Y-87917856D01*
X156127428Y-87917856D02*
X155556000Y-87917856D01*
X155556000Y-87917856D02*
X155270285Y-88060713D01*
X155270285Y-88060713D02*
X155127428Y-88203571D01*
X155127428Y-88203571D02*
X154984571Y-88489285D01*
X153698857Y-86917856D02*
X153698857Y-84917856D01*
X153698857Y-84917856D02*
X156698857Y-86203570D01*
X156413142Y-83774999D02*
X156556000Y-83632142D01*
X156556000Y-83632142D02*
X156698857Y-83774999D01*
X156698857Y-83774999D02*
X156556000Y-83917856D01*
X156556000Y-83917856D02*
X156413142Y-83774999D01*
X156413142Y-83774999D02*
X156698857Y-83774999D01*
X153698857Y-81060714D02*
X153698857Y-81632142D01*
X153698857Y-81632142D02*
X153841714Y-81917856D01*
X153841714Y-81917856D02*
X153984571Y-82060714D01*
X153984571Y-82060714D02*
X154413142Y-82346428D01*
X154413142Y-82346428D02*
X154984571Y-82489285D01*
X154984571Y-82489285D02*
X156127428Y-82489285D01*
X156127428Y-82489285D02*
X156413142Y-82346428D01*
X156413142Y-82346428D02*
X156556000Y-82203571D01*
X156556000Y-82203571D02*
X156698857Y-81917856D01*
X156698857Y-81917856D02*
X156698857Y-81346428D01*
X156698857Y-81346428D02*
X156556000Y-81060714D01*
X156556000Y-81060714D02*
X156413142Y-80917856D01*
X156413142Y-80917856D02*
X156127428Y-80774999D01*
X156127428Y-80774999D02*
X155413142Y-80774999D01*
X155413142Y-80774999D02*
X155127428Y-80917856D01*
X155127428Y-80917856D02*
X154984571Y-81060714D01*
X154984571Y-81060714D02*
X154841714Y-81346428D01*
X154841714Y-81346428D02*
X154841714Y-81917856D01*
X154841714Y-81917856D02*
X154984571Y-82203571D01*
X154984571Y-82203571D02*
X155127428Y-82346428D01*
X155127428Y-82346428D02*
X155413142Y-82489285D01*
X153698857Y-78060713D02*
X153698857Y-79489285D01*
X153698857Y-79489285D02*
X155127428Y-79632142D01*
X155127428Y-79632142D02*
X154984571Y-79489285D01*
X154984571Y-79489285D02*
X154841714Y-79203571D01*
X154841714Y-79203571D02*
X154841714Y-78489285D01*
X154841714Y-78489285D02*
X154984571Y-78203571D01*
X154984571Y-78203571D02*
X155127428Y-78060713D01*
X155127428Y-78060713D02*
X155413142Y-77917856D01*
X155413142Y-77917856D02*
X156127428Y-77917856D01*
X156127428Y-77917856D02*
X156413142Y-78060713D01*
X156413142Y-78060713D02*
X156556000Y-78203571D01*
X156556000Y-78203571D02*
X156698857Y-78489285D01*
X156698857Y-78489285D02*
X156698857Y-79203571D01*
X156698857Y-79203571D02*
X156556000Y-79489285D01*
X156556000Y-79489285D02*
X156413142Y-79632142D01*
X153698857Y-76060713D02*
X153698857Y-75774999D01*
X153698857Y-75774999D02*
X153841714Y-75489285D01*
X153841714Y-75489285D02*
X153984571Y-75346428D01*
X153984571Y-75346428D02*
X154270285Y-75203570D01*
X154270285Y-75203570D02*
X154841714Y-75060713D01*
X154841714Y-75060713D02*
X155556000Y-75060713D01*
X155556000Y-75060713D02*
X156127428Y-75203570D01*
X156127428Y-75203570D02*
X156413142Y-75346428D01*
X156413142Y-75346428D02*
X156556000Y-75489285D01*
X156556000Y-75489285D02*
X156698857Y-75774999D01*
X156698857Y-75774999D02*
X156698857Y-76060713D01*
X156698857Y-76060713D02*
X156556000Y-76346428D01*
X156556000Y-76346428D02*
X156413142Y-76489285D01*
X156413142Y-76489285D02*
X156127428Y-76632142D01*
X156127428Y-76632142D02*
X155556000Y-76774999D01*
X155556000Y-76774999D02*
X154841714Y-76774999D01*
X154841714Y-76774999D02*
X154270285Y-76632142D01*
X154270285Y-76632142D02*
X153984571Y-76489285D01*
X153984571Y-76489285D02*
X153841714Y-76346428D01*
X153841714Y-76346428D02*
X153698857Y-76060713D01*
X153698857Y-73203570D02*
X153698857Y-72917856D01*
X153698857Y-72917856D02*
X153841714Y-72632142D01*
X153841714Y-72632142D02*
X153984571Y-72489285D01*
X153984571Y-72489285D02*
X154270285Y-72346427D01*
X154270285Y-72346427D02*
X154841714Y-72203570D01*
X154841714Y-72203570D02*
X155556000Y-72203570D01*
X155556000Y-72203570D02*
X156127428Y-72346427D01*
X156127428Y-72346427D02*
X156413142Y-72489285D01*
X156413142Y-72489285D02*
X156556000Y-72632142D01*
X156556000Y-72632142D02*
X156698857Y-72917856D01*
X156698857Y-72917856D02*
X156698857Y-73203570D01*
X156698857Y-73203570D02*
X156556000Y-73489285D01*
X156556000Y-73489285D02*
X156413142Y-73632142D01*
X156413142Y-73632142D02*
X156127428Y-73774999D01*
X156127428Y-73774999D02*
X155556000Y-73917856D01*
X155556000Y-73917856D02*
X154841714Y-73917856D01*
X154841714Y-73917856D02*
X154270285Y-73774999D01*
X154270285Y-73774999D02*
X153984571Y-73632142D01*
X153984571Y-73632142D02*
X153841714Y-73489285D01*
X153841714Y-73489285D02*
X153698857Y-73203570D01*
X156698857Y-68632142D02*
X154698857Y-68632142D01*
X154984571Y-68632142D02*
X154841714Y-68489285D01*
X154841714Y-68489285D02*
X154698857Y-68203570D01*
X154698857Y-68203570D02*
X154698857Y-67774999D01*
X154698857Y-67774999D02*
X154841714Y-67489285D01*
X154841714Y-67489285D02*
X155127428Y-67346428D01*
X155127428Y-67346428D02*
X156698857Y-67346428D01*
X155127428Y-67346428D02*
X154841714Y-67203570D01*
X154841714Y-67203570D02*
X154698857Y-66917856D01*
X154698857Y-66917856D02*
X154698857Y-66489285D01*
X154698857Y-66489285D02*
X154841714Y-66203570D01*
X154841714Y-66203570D02*
X155127428Y-66060713D01*
X155127428Y-66060713D02*
X156698857Y-66060713D01*
X156698857Y-64632142D02*
X154698857Y-64632142D01*
X154984571Y-64632142D02*
X154841714Y-64489285D01*
X154841714Y-64489285D02*
X154698857Y-64203570D01*
X154698857Y-64203570D02*
X154698857Y-63774999D01*
X154698857Y-63774999D02*
X154841714Y-63489285D01*
X154841714Y-63489285D02*
X155127428Y-63346428D01*
X155127428Y-63346428D02*
X156698857Y-63346428D01*
X155127428Y-63346428D02*
X154841714Y-63203570D01*
X154841714Y-63203570D02*
X154698857Y-62917856D01*
X154698857Y-62917856D02*
X154698857Y-62489285D01*
X154698857Y-62489285D02*
X154841714Y-62203570D01*
X154841714Y-62203570D02*
X155127428Y-62060713D01*
X155127428Y-62060713D02*
X156698857Y-62060713D01*
D11*
X149000000Y-31950000D02*
X162186420Y-31950000D01*
X149000000Y-119600000D02*
X162186420Y-119600000D01*
X161600000Y-31950000D02*
X161600000Y-119600000D01*
X161600000Y-31950000D02*
X161600000Y-119600000D01*
X161600000Y-31950000D02*
X162186421Y-33076504D01*
X161600000Y-31950000D02*
X161013579Y-33076504D01*
X161600000Y-119600000D02*
X161013579Y-118473496D01*
X161600000Y-119600000D02*
X162186421Y-118473496D01*
D10*
X96425000Y-19098857D02*
X98425000Y-19098857D01*
X98425000Y-19098857D02*
X97139286Y-22098857D01*
X100853572Y-19098857D02*
X100282143Y-19098857D01*
X100282143Y-19098857D02*
X99996429Y-19241714D01*
X99996429Y-19241714D02*
X99853572Y-19384571D01*
X99853572Y-19384571D02*
X99567857Y-19813142D01*
X99567857Y-19813142D02*
X99425000Y-20384571D01*
X99425000Y-20384571D02*
X99425000Y-21527428D01*
X99425000Y-21527428D02*
X99567857Y-21813142D01*
X99567857Y-21813142D02*
X99710714Y-21956000D01*
X99710714Y-21956000D02*
X99996429Y-22098857D01*
X99996429Y-22098857D02*
X100567857Y-22098857D01*
X100567857Y-22098857D02*
X100853572Y-21956000D01*
X100853572Y-21956000D02*
X100996429Y-21813142D01*
X100996429Y-21813142D02*
X101139286Y-21527428D01*
X101139286Y-21527428D02*
X101139286Y-20813142D01*
X101139286Y-20813142D02*
X100996429Y-20527428D01*
X100996429Y-20527428D02*
X100853572Y-20384571D01*
X100853572Y-20384571D02*
X100567857Y-20241714D01*
X100567857Y-20241714D02*
X99996429Y-20241714D01*
X99996429Y-20241714D02*
X99710714Y-20384571D01*
X99710714Y-20384571D02*
X99567857Y-20527428D01*
X99567857Y-20527428D02*
X99425000Y-20813142D01*
X102425000Y-21813142D02*
X102567857Y-21956000D01*
X102567857Y-21956000D02*
X102425000Y-22098857D01*
X102425000Y-22098857D02*
X102282143Y-21956000D01*
X102282143Y-21956000D02*
X102425000Y-21813142D01*
X102425000Y-21813142D02*
X102425000Y-22098857D01*
X105425000Y-22098857D02*
X103710714Y-22098857D01*
X104567857Y-22098857D02*
X104567857Y-19098857D01*
X104567857Y-19098857D02*
X104282143Y-19527428D01*
X104282143Y-19527428D02*
X103996428Y-19813142D01*
X103996428Y-19813142D02*
X103710714Y-19956000D01*
X108139286Y-19098857D02*
X106710714Y-19098857D01*
X106710714Y-19098857D02*
X106567857Y-20527428D01*
X106567857Y-20527428D02*
X106710714Y-20384571D01*
X106710714Y-20384571D02*
X106996429Y-20241714D01*
X106996429Y-20241714D02*
X107710714Y-20241714D01*
X107710714Y-20241714D02*
X107996429Y-20384571D01*
X107996429Y-20384571D02*
X108139286Y-20527428D01*
X108139286Y-20527428D02*
X108282143Y-20813142D01*
X108282143Y-20813142D02*
X108282143Y-21527428D01*
X108282143Y-21527428D02*
X108139286Y-21813142D01*
X108139286Y-21813142D02*
X107996429Y-21956000D01*
X107996429Y-21956000D02*
X107710714Y-22098857D01*
X107710714Y-22098857D02*
X106996429Y-22098857D01*
X106996429Y-22098857D02*
X106710714Y-21956000D01*
X106710714Y-21956000D02*
X106567857Y-21813142D01*
X110139286Y-19098857D02*
X110425000Y-19098857D01*
X110425000Y-19098857D02*
X110710714Y-19241714D01*
X110710714Y-19241714D02*
X110853572Y-19384571D01*
X110853572Y-19384571D02*
X110996429Y-19670285D01*
X110996429Y-19670285D02*
X111139286Y-20241714D01*
X111139286Y-20241714D02*
X111139286Y-20956000D01*
X111139286Y-20956000D02*
X110996429Y-21527428D01*
X110996429Y-21527428D02*
X110853572Y-21813142D01*
X110853572Y-21813142D02*
X110710714Y-21956000D01*
X110710714Y-21956000D02*
X110425000Y-22098857D01*
X110425000Y-22098857D02*
X110139286Y-22098857D01*
X110139286Y-22098857D02*
X109853572Y-21956000D01*
X109853572Y-21956000D02*
X109710714Y-21813142D01*
X109710714Y-21813142D02*
X109567857Y-21527428D01*
X109567857Y-21527428D02*
X109425000Y-20956000D01*
X109425000Y-20956000D02*
X109425000Y-20241714D01*
X109425000Y-20241714D02*
X109567857Y-19670285D01*
X109567857Y-19670285D02*
X109710714Y-19384571D01*
X109710714Y-19384571D02*
X109853572Y-19241714D01*
X109853572Y-19241714D02*
X110139286Y-19098857D01*
X112996429Y-19098857D02*
X113282143Y-19098857D01*
X113282143Y-19098857D02*
X113567857Y-19241714D01*
X113567857Y-19241714D02*
X113710715Y-19384571D01*
X113710715Y-19384571D02*
X113853572Y-19670285D01*
X113853572Y-19670285D02*
X113996429Y-20241714D01*
X113996429Y-20241714D02*
X113996429Y-20956000D01*
X113996429Y-20956000D02*
X113853572Y-21527428D01*
X113853572Y-21527428D02*
X113710715Y-21813142D01*
X113710715Y-21813142D02*
X113567857Y-21956000D01*
X113567857Y-21956000D02*
X113282143Y-22098857D01*
X113282143Y-22098857D02*
X112996429Y-22098857D01*
X112996429Y-22098857D02*
X112710715Y-21956000D01*
X112710715Y-21956000D02*
X112567857Y-21813142D01*
X112567857Y-21813142D02*
X112425000Y-21527428D01*
X112425000Y-21527428D02*
X112282143Y-20956000D01*
X112282143Y-20956000D02*
X112282143Y-20241714D01*
X112282143Y-20241714D02*
X112425000Y-19670285D01*
X112425000Y-19670285D02*
X112567857Y-19384571D01*
X112567857Y-19384571D02*
X112710715Y-19241714D01*
X112710715Y-19241714D02*
X112996429Y-19098857D01*
X117567857Y-22098857D02*
X117567857Y-20098857D01*
X117567857Y-20384571D02*
X117710714Y-20241714D01*
X117710714Y-20241714D02*
X117996429Y-20098857D01*
X117996429Y-20098857D02*
X118425000Y-20098857D01*
X118425000Y-20098857D02*
X118710714Y-20241714D01*
X118710714Y-20241714D02*
X118853572Y-20527428D01*
X118853572Y-20527428D02*
X118853572Y-22098857D01*
X118853572Y-20527428D02*
X118996429Y-20241714D01*
X118996429Y-20241714D02*
X119282143Y-20098857D01*
X119282143Y-20098857D02*
X119710714Y-20098857D01*
X119710714Y-20098857D02*
X119996429Y-20241714D01*
X119996429Y-20241714D02*
X120139286Y-20527428D01*
X120139286Y-20527428D02*
X120139286Y-22098857D01*
X121567857Y-22098857D02*
X121567857Y-20098857D01*
X121567857Y-20384571D02*
X121710714Y-20241714D01*
X121710714Y-20241714D02*
X121996429Y-20098857D01*
X121996429Y-20098857D02*
X122425000Y-20098857D01*
X122425000Y-20098857D02*
X122710714Y-20241714D01*
X122710714Y-20241714D02*
X122853572Y-20527428D01*
X122853572Y-20527428D02*
X122853572Y-22098857D01*
X122853572Y-20527428D02*
X122996429Y-20241714D01*
X122996429Y-20241714D02*
X123282143Y-20098857D01*
X123282143Y-20098857D02*
X123710714Y-20098857D01*
X123710714Y-20098857D02*
X123996429Y-20241714D01*
X123996429Y-20241714D02*
X124139286Y-20527428D01*
X124139286Y-20527428D02*
X124139286Y-22098857D01*
D11*
X72350000Y-31450000D02*
X72350000Y-23913580D01*
X148500000Y-31450000D02*
X148500000Y-23913580D01*
X72350000Y-24500000D02*
X148500000Y-24500000D01*
X72350000Y-24500000D02*
X148500000Y-24500000D01*
X72350000Y-24500000D02*
X73476504Y-23913579D01*
X72350000Y-24500000D02*
X73476504Y-25086421D01*
X148500000Y-24500000D02*
X147373496Y-25086421D01*
X148500000Y-24500000D02*
X147373496Y-23913579D01*
M02*
