M48
; DRILL file {KiCad 7.0.5} date Sat May  4 18:25:58 2024
; FORMAT={-:-/ absolute / inch / decimal}
; #@! TF.CreationDate,2024-05-04T18:25:58+05:30
; #@! TF.GenerationSoftware,Kicad,Pcbnew,7.0.5
; #@! TF.FileFunction,Plated,1,2,PTH
FMAT,2
INCH
; #@! TA.AperFunction,Plated,PTH,ViaDrill
T1C0.0157
; #@! TA.AperFunction,Plated,PTH,ComponentDrill
T2C0.0280
; #@! TA.AperFunction,Plated,PTH,ComponentDrill
T3C0.0315
; #@! TA.AperFunction,Plated,PTH,ComponentDrill
T4C0.0320
; #@! TA.AperFunction,Plated,PTH,ComponentDrill
T5C0.0394
; #@! TA.AperFunction,Plated,PTH,ComponentDrill
T6C0.0400
; #@! TA.AperFunction,Plated,PTH,ComponentDrill
T7C0.0409
; #@! TA.AperFunction,Plated,PTH,ComponentDrill
T8C0.0413
; #@! TA.AperFunction,Plated,PTH,ComponentDrill
T9C0.0512
; #@! TA.AperFunction,Plated,PTH,ComponentDrill
T10C0.0520
; #@! TA.AperFunction,Plated,PTH,ComponentDrill
T11C0.0598
%
G90
G05
T1
X3.1488Y-2.7992
X3.1937Y-2.6161
X3.2598Y-1.4764
X3.2598Y-1.5787
X3.2598Y-1.7087
X3.2876Y-1.8486
X3.4075Y-2.7992
X3.4728Y-2.6118
X3.5457Y-2.8673
X3.7087Y-1.3055
X3.7087Y-1.4055
X3.7087Y-1.5055
X3.7295Y-2.6516
X3.8055Y-1.7762
X3.8087Y-1.3055
X3.8087Y-1.4055
X3.8087Y-1.5055
X3.8386Y-2.8299
X3.8728Y-3.0811
X3.9087Y-1.3055
X3.9087Y-1.4055
X3.9087Y-1.5055
X3.9248Y-4.5386
X3.9394Y-1.7762
X3.9807Y-2.6287
X3.9807Y-2.7398
X4.3654Y-1.7551
X4.4484Y-1.7547
X4.6011Y-1.9743
X4.6331Y-1.6917
X4.687Y-2.4311
X4.6878Y-2.3114
X4.6882Y-1.9799
X4.7079Y-3.8693
X4.7343Y-1.6933
X4.7614Y-3.3161
X4.7618Y-3.2154
X4.7626Y-2.1091
X4.7874Y-2.1996
X4.8319Y-1.6929
X4.9142Y-3.6004
X4.9205Y-2.7154
X4.9295Y-1.6921
X4.9724Y-2.0827
X4.9724Y-2.3114
X4.9768Y-3.2154
X5.015Y-3.1843
X5.0287Y-1.6925
X5.0776Y-2.1327
X5.0787Y-2.0827
X5.0795Y-2.3114
X5.126Y-1.6921
X5.2248Y-1.6917
X5.2343Y-3.6803
X5.2508Y-3.2154
X5.2508Y-3.4827
X5.251Y-3.0689
X5.2591Y-3.6295
X5.322Y-1.6937
X5.3623Y-2.3117
X5.363Y-2.0795
X5.5185Y-2.1429
T2
X2.9002Y-2.4126
X3.099Y-2.4126
X3.2868Y-2.4126
X3.4856Y-2.4126
T4
X4.2378Y-2.0201
X4.2378Y-2.2201
X4.2378Y-2.3925
X4.2378Y-2.5925
X4.3378Y-2.0201
X4.3378Y-2.2201
X4.3378Y-2.3925
X4.3378Y-2.5925
X4.4378Y-2.0201
X4.4378Y-2.2201
X4.4378Y-2.3925
X4.4378Y-2.5925
T5
X4.3144Y-1.425
X4.4144Y-1.425
X4.5144Y-1.425
X4.6144Y-1.425
X4.7144Y-1.425
X4.8144Y-1.425
X4.9144Y-1.425
X5.115Y-1.425
X5.215Y-1.425
X5.315Y-1.425
X5.415Y-1.425
X5.515Y-1.425
X5.615Y-1.425
X5.8091Y-3.8968
X5.8091Y-3.9968
X5.8091Y-4.0968
X5.8091Y-4.1968
X5.8091Y-4.2968
T6
X4.0795Y-2.9197
X4.0795Y-3.0197
X4.0795Y-3.1197
X4.0795Y-3.2197
X4.259Y-2.8689
X4.259Y-2.9689
X4.259Y-3.0689
X4.259Y-3.1689
X4.259Y-3.2689
X4.259Y-3.3689
X4.259Y-3.4689
X4.259Y-3.5689
X4.259Y-3.6689
X4.259Y-3.7689
X4.259Y-3.8689
X4.259Y-3.9689
X4.259Y-4.0689
X4.259Y-4.1689
X4.259Y-4.2689
X4.259Y-4.3689
X4.259Y-4.4689
X4.259Y-4.5689
X4.259Y-4.6689
X5.5643Y-1.6535
X5.5643Y-1.7535
X5.5643Y-1.8535
X5.5643Y-1.9535
X5.5643Y-2.0535
X5.5713Y-2.4457
X5.5717Y-2.2248
X5.5717Y-2.335
X5.5717Y-2.5565
X5.6523Y-2.8689
X5.6523Y-2.9689
X5.6523Y-3.0689
X5.6523Y-3.1689
X5.6523Y-3.2689
X5.6523Y-3.3689
X5.6523Y-3.4689
X5.6523Y-3.5689
X5.6523Y-3.6689
X5.6523Y-3.7689
X5.6523Y-3.8689
X5.6523Y-3.9689
X5.6523Y-4.0689
X5.6523Y-4.1689
X5.6523Y-4.2689
X5.6523Y-4.3689
X5.6523Y-4.4689
X5.6523Y-4.5689
X5.6523Y-4.6689
X5.6713Y-2.4457
X5.6717Y-2.2248
X5.6717Y-2.335
X5.6717Y-2.5565
X5.6741Y-1.6538
X5.6741Y-1.7538
X5.6741Y-1.8538
X5.6741Y-1.9538
X5.6741Y-2.0538
X5.7713Y-2.4457
X5.7717Y-2.2248
X5.7717Y-2.335
X5.7717Y-2.5565
X5.7835Y-1.6535
X5.7835Y-1.7535
X5.7835Y-1.8535
X5.7835Y-1.9535
X5.7835Y-2.0535
T7
X4.4559Y-2.8689
X4.4559Y-2.9689
X4.4559Y-3.0689
X4.4559Y-3.1689
X4.4559Y-3.2689
X4.4559Y-3.3689
X4.4559Y-3.4689
X4.4559Y-3.5689
X4.4559Y-3.6689
X4.4559Y-3.7689
X4.4559Y-3.8689
X4.4559Y-3.9689
X4.4559Y-4.0689
X4.4559Y-4.1689
X4.4559Y-4.2689
X4.4559Y-4.3689
X4.4559Y-4.4689
X4.4559Y-4.5689
X4.4559Y-4.6689
X5.4559Y-2.8689
X5.4559Y-2.9689
X5.4559Y-3.0689
X5.4559Y-3.1689
X5.4559Y-3.2689
X5.4559Y-3.3689
X5.4559Y-3.4689
X5.4559Y-3.5689
X5.4559Y-3.6689
X5.4559Y-3.7689
X5.4559Y-3.8689
X5.4559Y-3.9689
X5.4559Y-4.0689
X5.4559Y-4.1689
X5.4559Y-4.2689
X5.4559Y-4.3689
X5.4559Y-4.4689
X5.4559Y-4.5689
X5.4559Y-4.6689
T8
X2.9486Y-2.874
X2.9486Y-2.9724
T9
X3.0028Y-1.9706
X3.0028Y-2.1675
T10
X3.415Y-3.8869
X3.415Y-3.9869
X3.415Y-4.0869
X3.415Y-4.1869
X3.415Y-4.2869
X3.415Y-4.3869
X3.415Y-4.4869
X3.415Y-4.5869
X4.015Y-3.8869
X4.015Y-3.9869
X4.015Y-4.0869
X4.015Y-4.1869
X4.015Y-4.2869
X4.015Y-4.3869
X4.015Y-4.4869
X4.015Y-4.5869
T11
X3.0016Y-3.6484
X3.0016Y-3.8484
X3.0016Y-4.0484
X3.0016Y-4.2484
X3.0016Y-4.4484
T3
G00X2.8654Y-1.5472
M15
G01X2.8654Y-1.6339
M16
G05
G00X2.9323Y-1.7795
M15
G01X3.0189Y-1.7795
M16
G05
G00X3.0937Y-1.5394
M15
G01X3.0937Y-1.6417
M16
G05
T5
G00X5.8091Y-4.3968
M15
G01X5.8091Y-4.3968
M16
G05
T0
M30
