%TF.GenerationSoftware,KiCad,Pcbnew,7.0.5*%
%TF.CreationDate,2024-05-04T18:26:23+05:30*%
%TF.ProjectId,sra_dev_board_2023,7372615f-6465-4765-9f62-6f6172645f32,rev?*%
%TF.SameCoordinates,Original*%
%TF.FileFunction,Other,User*%
%FSLAX46Y46*%
G04 Gerber Fmt 4.6, Leading zero omitted, Abs format (unit mm)*
G04 Created by KiCad (PCBNEW 7.0.5) date 2024-05-04 18:26:23*
%MOMM*%
%LPD*%
G01*
G04 APERTURE LIST*
%ADD10C,0.050000*%
%ADD11C,0.127000*%
%ADD12C,0.100000*%
G04 APERTURE END LIST*
D10*
%TO.C,R7*%
X131950000Y-46551250D02*
X131950000Y-43591250D01*
X133410000Y-46551250D02*
X131950000Y-46551250D01*
X131950000Y-43591250D02*
X133410000Y-43591250D01*
X133410000Y-43591250D02*
X133410000Y-46551250D01*
D11*
%TO.C,T3*%
X71770000Y-57803723D02*
X71770000Y-47303723D01*
X80770000Y-57803723D02*
X71770000Y-57803723D01*
X71770000Y-47303723D02*
X80770000Y-47303723D01*
X80770000Y-47303723D02*
X80770000Y-57803723D01*
D10*
%TO.C,J14*%
X78545000Y-70300000D02*
X72295000Y-70300000D01*
X72295000Y-70300000D02*
X72295000Y-78200000D01*
X78545000Y-78200000D02*
X78545000Y-70300000D01*
X72295000Y-78200000D02*
X78545000Y-78200000D01*
%TO.C,J16*%
X80240000Y-89930000D02*
X72240000Y-89930000D01*
X80240000Y-89930000D02*
X80240000Y-115730000D01*
X72240000Y-115730000D02*
X72240000Y-89930000D01*
X72240000Y-115730000D02*
X80240000Y-115730000D01*
%TO.C,J17*%
X149350000Y-113477727D02*
X149350000Y-97177727D01*
X149350000Y-97177727D02*
X145750000Y-97177727D01*
X145750000Y-113477727D02*
X149350000Y-113477727D01*
X145750000Y-97177727D02*
X145750000Y-113477727D01*
%TO.C,R1*%
X116990000Y-46567500D02*
X116990000Y-43607500D01*
X118450000Y-46567500D02*
X116990000Y-46567500D01*
X116990000Y-43607500D02*
X118450000Y-43607500D01*
X118450000Y-43607500D02*
X118450000Y-46567500D01*
%TO.C,C5*%
X91405000Y-68610000D02*
X91405000Y-65650000D01*
X92865000Y-68610000D02*
X91405000Y-68610000D01*
X91405000Y-65650000D02*
X92865000Y-65650000D01*
X92865000Y-65650000D02*
X92865000Y-68610000D01*
%TO.C,D13*%
X89550000Y-50700000D02*
X89550000Y-57700000D01*
X86050000Y-50700000D02*
X89550000Y-50700000D01*
X89550000Y-57700000D02*
X86050000Y-57700000D01*
X86050000Y-57700000D02*
X86050000Y-50700000D01*
%TO.C,H2*%
X75800000Y-119600000D02*
G75*
G03*
X75800000Y-119600000I-3450000J0D01*
G01*
%TO.C,D2*%
X120980000Y-46991250D02*
X120980000Y-49951250D01*
X119520000Y-46991250D02*
X120980000Y-46991250D01*
X120980000Y-49951250D02*
X119520000Y-49951250D01*
X119520000Y-49951250D02*
X119520000Y-46991250D01*
%TO.C,J8*%
X128120000Y-37995000D02*
X144420000Y-37995000D01*
X144420000Y-37995000D02*
X144420000Y-34395000D01*
X128120000Y-34395000D02*
X128120000Y-37995000D01*
X144420000Y-34395000D02*
X128120000Y-34395000D01*
%TO.C,U3*%
X83950000Y-97207582D02*
X83950000Y-118027582D01*
X83950000Y-118027582D02*
X104770000Y-118027582D01*
X104770000Y-97207582D02*
X83950000Y-97207582D01*
X104770000Y-118027582D02*
X104770000Y-97207582D01*
%TO.C,D9*%
X81150000Y-57730000D02*
X81150000Y-50430000D01*
X85650000Y-57730000D02*
X81150000Y-57730000D01*
X81150000Y-50430000D02*
X85650000Y-50430000D01*
X85650000Y-50430000D02*
X85650000Y-57730000D01*
%TO.C,D4*%
X125950000Y-47000000D02*
X125950000Y-49960000D01*
X124490000Y-47000000D02*
X125950000Y-47000000D01*
X125950000Y-49960000D02*
X124490000Y-49960000D01*
X124490000Y-49960000D02*
X124490000Y-47000000D01*
%TO.C,C2*%
X103452500Y-43100000D02*
X103452500Y-46100000D01*
X103452500Y-46100000D02*
X104302500Y-46100000D01*
X104302500Y-41350000D02*
X104302500Y-43100000D01*
X104302500Y-41350000D02*
X105452500Y-40200000D01*
X104302500Y-43100000D02*
X103452500Y-43100000D01*
X104302500Y-46100000D02*
X104302500Y-47850000D01*
X104302500Y-47850000D02*
X105452500Y-49000000D01*
X105452500Y-40200000D02*
X113102500Y-40200000D01*
X105452500Y-49000000D02*
X113102500Y-49000000D01*
X113102500Y-40200000D02*
X113102500Y-43100000D01*
X113102500Y-43100000D02*
X113952500Y-43100000D01*
X113102500Y-46100000D02*
X113102500Y-49000000D01*
X113952500Y-43100000D02*
X113952500Y-46100000D01*
X113952500Y-46100000D02*
X113102500Y-46100000D01*
%TO.C,D14*%
X89350000Y-49250000D02*
X82050000Y-49250000D01*
X89350000Y-44750000D02*
X89350000Y-49250000D01*
X82050000Y-49250000D02*
X82050000Y-44750000D01*
X82050000Y-44750000D02*
X89350000Y-44750000D01*
%TO.C,R6*%
X129450000Y-46551250D02*
X129450000Y-43591250D01*
X130910000Y-46551250D02*
X129450000Y-46551250D01*
X129450000Y-43591250D02*
X130910000Y-43591250D01*
X130910000Y-43591250D02*
X130910000Y-46551250D01*
%TO.C,R4*%
X124490000Y-46560000D02*
X124490000Y-43600000D01*
X125950000Y-46560000D02*
X124490000Y-46560000D01*
X124490000Y-43600000D02*
X125950000Y-43600000D01*
X125950000Y-43600000D02*
X125950000Y-46560000D01*
D12*
%TO.C,F2*%
X81060000Y-58780000D02*
X90960000Y-58780000D01*
X81060000Y-63780000D02*
X81060000Y-58780000D01*
X90960000Y-58780000D02*
X90960000Y-63780000D01*
X90960000Y-63780000D02*
X81060000Y-63780000D01*
D10*
%TO.C,D6*%
X130910000Y-46991250D02*
X130910000Y-49951250D01*
X129450000Y-46991250D02*
X130910000Y-46991250D01*
X130910000Y-49951250D02*
X129450000Y-49951250D01*
X129450000Y-49951250D02*
X129450000Y-46991250D01*
%TO.C,D1*%
X118470000Y-47007500D02*
X118470000Y-49967500D01*
X117010000Y-47007500D02*
X118470000Y-47007500D01*
X118470000Y-49967500D02*
X117010000Y-49967500D01*
X117010000Y-49967500D02*
X117010000Y-47007500D01*
%TO.C,R2*%
X119520000Y-46551250D02*
X119520000Y-43591250D01*
X120980000Y-46551250D02*
X119520000Y-46551250D01*
X119520000Y-43591250D02*
X120980000Y-43591250D01*
X120980000Y-43591250D02*
X120980000Y-46551250D01*
%TO.C,D7*%
X133410000Y-46991250D02*
X133410000Y-49951250D01*
X131950000Y-46991250D02*
X133410000Y-46991250D01*
X133410000Y-49951250D02*
X131950000Y-49951250D01*
X131950000Y-49951250D02*
X131950000Y-46991250D01*
%TO.C,D11*%
X98462500Y-64330000D02*
X101422500Y-64330000D01*
X98462500Y-65790000D02*
X98462500Y-64330000D01*
X101422500Y-64330000D02*
X101422500Y-65790000D01*
X101422500Y-65790000D02*
X98462500Y-65790000D01*
D12*
%TO.C,F1*%
X81640000Y-63780000D02*
X70740000Y-63780000D01*
X81640000Y-58780000D02*
X81640000Y-63780000D01*
X70740000Y-63780000D02*
X70740000Y-58780000D01*
X70740000Y-58780000D02*
X81640000Y-58780000D01*
D10*
%TO.C,R3*%
X122000000Y-46551250D02*
X122000000Y-43591250D01*
X123460000Y-46551250D02*
X122000000Y-46551250D01*
X122000000Y-43591250D02*
X123460000Y-43591250D01*
X123460000Y-43591250D02*
X123460000Y-46551250D01*
%TO.C,R8*%
X134460000Y-46551250D02*
X134460000Y-43591250D01*
X135920000Y-46551250D02*
X134460000Y-46551250D01*
X134460000Y-43591250D02*
X135920000Y-43591250D01*
X135920000Y-43591250D02*
X135920000Y-46551250D01*
%TO.C,H1*%
X75800000Y-31950000D02*
G75*
G03*
X75800000Y-31950000I-3450000J0D01*
G01*
%TO.C,D3*%
X123460000Y-46991250D02*
X123460000Y-49951250D01*
X122000000Y-46991250D02*
X123460000Y-46991250D01*
X123460000Y-49951250D02*
X122000000Y-49951250D01*
X122000000Y-49951250D02*
X122000000Y-46991250D01*
%TO.C,R10*%
X98020000Y-65790000D02*
X95060000Y-65790000D01*
X98020000Y-64330000D02*
X98020000Y-65790000D01*
X95060000Y-65790000D02*
X95060000Y-64330000D01*
X95060000Y-64330000D02*
X98020000Y-64330000D01*
%TO.C,R14*%
X96990000Y-112550000D02*
X96990000Y-107990000D01*
X99230000Y-112550000D02*
X96990000Y-112550000D01*
X96990000Y-107990000D02*
X99230000Y-107990000D01*
X99230000Y-107990000D02*
X99230000Y-112550000D01*
%TO.C,D8*%
X135920000Y-46991250D02*
X135920000Y-49951250D01*
X134460000Y-46991250D02*
X135920000Y-46991250D01*
X135920000Y-49951250D02*
X134460000Y-49951250D01*
X134460000Y-49951250D02*
X134460000Y-46991250D01*
%TO.C,R12*%
X94080000Y-107440000D02*
X94080000Y-102880000D01*
X96320000Y-107440000D02*
X94080000Y-107440000D01*
X94080000Y-102880000D02*
X96320000Y-102880000D01*
X96320000Y-102880000D02*
X96320000Y-107440000D01*
%TO.C,C4*%
X89630000Y-68610000D02*
X89630000Y-65650000D01*
X91090000Y-68610000D02*
X89630000Y-68610000D01*
X89630000Y-65650000D02*
X91090000Y-65650000D01*
X91090000Y-65650000D02*
X91090000Y-68610000D01*
%TO.C,J6*%
X79980000Y-35400000D02*
X64480000Y-35400000D01*
X64480000Y-35400000D02*
X64480000Y-45400000D01*
X79980000Y-45400000D02*
X79980000Y-35400000D01*
X78080000Y-45400000D02*
X79980000Y-45400000D01*
X64480000Y-45400000D02*
X73080000Y-45400000D01*
X78080000Y-46600000D02*
X78080000Y-45400000D01*
X78080000Y-46600000D02*
X73080000Y-46600000D01*
X73080000Y-46600000D02*
X73080000Y-45400000D01*
%TO.C,R9*%
X97750000Y-73530000D02*
X100710000Y-73530000D01*
X97750000Y-74990000D02*
X97750000Y-73530000D01*
X100710000Y-73530000D02*
X100710000Y-74990000D01*
X100710000Y-74990000D02*
X97750000Y-74990000D01*
%TO.C,C1*%
X90200000Y-41150000D02*
X90200000Y-39050000D01*
X90200000Y-39050000D02*
X89050000Y-39050000D01*
X89050000Y-42500000D02*
X89050000Y-41150000D01*
X89050000Y-42500000D02*
X87900000Y-43650000D01*
X89050000Y-41150000D02*
X90200000Y-41150000D01*
X89050000Y-39050000D02*
X89050000Y-37700000D01*
X89050000Y-37700000D02*
X87900000Y-36550000D01*
X87900000Y-43650000D02*
X81950000Y-43650000D01*
X87900000Y-36550000D02*
X81950000Y-36550000D01*
X81950000Y-43650000D02*
X81950000Y-41150000D01*
X81950000Y-41150000D02*
X80800000Y-41150000D01*
X81950000Y-39050000D02*
X81950000Y-36550000D01*
X80800000Y-41150000D02*
X80800000Y-39050000D01*
X80800000Y-39050000D02*
X81950000Y-39050000D01*
%TO.C,U1*%
X111679418Y-65228838D02*
X140079418Y-65228838D01*
X111679418Y-120128838D02*
X111679418Y-65228838D01*
X140079418Y-65228838D02*
X140079418Y-120128838D01*
X140079418Y-120128838D02*
X111679418Y-120128838D01*
%TO.C,J7*%
X126625000Y-34395000D02*
X107775000Y-34395000D01*
X107775000Y-34395000D02*
X107775000Y-37995000D01*
X126625000Y-37995000D02*
X126625000Y-34395000D01*
X107775000Y-37995000D02*
X126625000Y-37995000D01*
%TO.C,R11*%
X97000000Y-107440000D02*
X97000000Y-102880000D01*
X99240000Y-107440000D02*
X97000000Y-107440000D01*
X97000000Y-102880000D02*
X99240000Y-102880000D01*
X99240000Y-102880000D02*
X99240000Y-107440000D01*
%TO.C,D12*%
X88900000Y-35450000D02*
X81900000Y-35450000D01*
X88900000Y-31950000D02*
X88900000Y-35450000D01*
X81900000Y-35450000D02*
X81900000Y-31950000D01*
X81900000Y-31950000D02*
X88900000Y-31950000D01*
%TO.C,D5*%
X128430000Y-46991250D02*
X128430000Y-49951250D01*
X126970000Y-46991250D02*
X128430000Y-46991250D01*
X128430000Y-49951250D02*
X126970000Y-49951250D01*
X126970000Y-49951250D02*
X126970000Y-46991250D01*
%TO.C,H3*%
X151950000Y-119600000D02*
G75*
G03*
X151950000Y-119600000I-3450000J0D01*
G01*
%TO.C,L1*%
X91235935Y-52420900D02*
X91489935Y-52420900D01*
X91235935Y-52420900D02*
X91489935Y-52420900D01*
X91235935Y-58339100D02*
X91235935Y-52420900D01*
X91235935Y-58339100D02*
X91235935Y-52420900D01*
X91489935Y-48979200D02*
X104291535Y-48979200D01*
X91489935Y-48979200D02*
X104291535Y-48979200D01*
X91489935Y-52420900D02*
X91489935Y-48979200D01*
X91489935Y-52420900D02*
X91489935Y-48979200D01*
X91489935Y-58339100D02*
X91235935Y-58339100D01*
X91489935Y-58339100D02*
X91235935Y-58339100D01*
X91489935Y-61780800D02*
X91489935Y-58339100D01*
X91489935Y-61780800D02*
X91489935Y-58339100D01*
X104291535Y-48979200D02*
X104291535Y-52420900D01*
X104291535Y-48979200D02*
X104291535Y-52420900D01*
X104291535Y-52420900D02*
X104545535Y-52420900D01*
X104291535Y-52420900D02*
X104545535Y-52420900D01*
X104291535Y-58339100D02*
X104291535Y-61780800D01*
X104291535Y-58339100D02*
X104291535Y-61780800D01*
X104291535Y-61780800D02*
X91489935Y-61780800D01*
X104291535Y-61780800D02*
X91489935Y-61780800D01*
X104545535Y-52420900D02*
X104545535Y-58339100D01*
X104545535Y-52420900D02*
X104545535Y-58339100D01*
X104545535Y-58339100D02*
X104291535Y-58339100D01*
X104545535Y-58339100D02*
X104291535Y-58339100D01*
%TO.C,C6*%
X92865000Y-70560000D02*
X89905000Y-70560000D01*
X92865000Y-69100000D02*
X92865000Y-70560000D01*
X89905000Y-70560000D02*
X89905000Y-69100000D01*
X89905000Y-69100000D02*
X92865000Y-69100000D01*
%TO.C,C3*%
X92865000Y-72260000D02*
X89905000Y-72260000D01*
X92865000Y-70800000D02*
X92865000Y-72260000D01*
X89905000Y-72260000D02*
X89905000Y-70800000D01*
X89905000Y-70800000D02*
X92865000Y-70800000D01*
%TO.C,REF\u002A\u002A*%
X148880000Y-114890000D02*
G75*
G03*
X148880000Y-114890000I-1380000J0D01*
G01*
%TO.C,U2*%
X93480000Y-66050000D02*
X93480000Y-73250000D01*
X93480000Y-73250000D02*
X102280000Y-73250000D01*
X102280000Y-66050000D02*
X93480000Y-66050000D01*
X102280000Y-73250000D02*
X102280000Y-66050000D01*
%TO.C,R13*%
X94070000Y-112550000D02*
X94070000Y-107990000D01*
X96310000Y-112550000D02*
X94070000Y-112550000D01*
X94070000Y-107990000D02*
X96310000Y-107990000D01*
X96310000Y-107990000D02*
X96310000Y-112550000D01*
%TO.C,U5*%
X91010000Y-47660000D02*
X102310000Y-47660000D01*
X102310000Y-47660000D02*
X102310000Y-31020000D01*
X91010000Y-31020000D02*
X91010000Y-47660000D01*
X102310000Y-31020000D02*
X91010000Y-31020000D01*
%TO.C,R5*%
X126970000Y-46551250D02*
X126970000Y-43591250D01*
X128430000Y-46551250D02*
X126970000Y-46551250D01*
X126970000Y-43591250D02*
X128430000Y-43591250D01*
X128430000Y-43591250D02*
X128430000Y-46551250D01*
%TO.C,REF\u002A\u002A*%
X79380000Y-32100000D02*
G75*
G03*
X79380000Y-32100000I-1380000J0D01*
G01*
%TO.C,D10*%
X96460000Y-74990000D02*
X93500000Y-74990000D01*
X96460000Y-73530000D02*
X96460000Y-74990000D01*
X93500000Y-74990000D02*
X93500000Y-73530000D01*
X93500000Y-73530000D02*
X96460000Y-73530000D01*
%TO.C,H4*%
X151950000Y-31950000D02*
G75*
G03*
X151950000Y-31950000I-3450000J0D01*
G01*
%TO.C,R17*%
X81147500Y-69980000D02*
X85707500Y-69980000D01*
X81147500Y-72220000D02*
X81147500Y-69980000D01*
X85707500Y-69980000D02*
X85707500Y-72220000D01*
X85707500Y-72220000D02*
X81147500Y-72220000D01*
%TO.C,R16*%
X81147500Y-67410000D02*
X85707500Y-67410000D01*
X81147500Y-69650000D02*
X81147500Y-67410000D01*
X85707500Y-67410000D02*
X85707500Y-69650000D01*
X85707500Y-69650000D02*
X81147500Y-69650000D01*
%TD*%
M02*
