%TF.GenerationSoftware,KiCad,Pcbnew,7.0.5*%
%TF.CreationDate,2024-05-04T18:26:22+05:30*%
%TF.ProjectId,sra_dev_board_2023,7372615f-6465-4765-9f62-6f6172645f32,rev?*%
%TF.SameCoordinates,Original*%
%TF.FileFunction,Copper,L2,Bot*%
%TF.FilePolarity,Positive*%
%FSLAX46Y46*%
G04 Gerber Fmt 4.6, Leading zero omitted, Abs format (unit mm)*
G04 Created by KiCad (PCBNEW 7.0.5) date 2024-05-04 18:26:22*
%MOMM*%
%LPD*%
G01*
G04 APERTURE LIST*
G04 Aperture macros list*
%AMOutline5P*
0 Free polygon, 5 corners , with rotation*
0 The origin of the aperture is its center*
0 number of corners: always 5*
0 $1 to $10 corner X, Y*
0 $11 Rotation angle, in degrees counterclockwise*
0 create outline with 5 corners*
4,1,5,$1,$2,$3,$4,$5,$6,$7,$8,$9,$10,$1,$2,$11*%
%AMOutline6P*
0 Free polygon, 6 corners , with rotation*
0 The origin of the aperture is its center*
0 number of corners: always 6*
0 $1 to $12 corner X, Y*
0 $13 Rotation angle, in degrees counterclockwise*
0 create outline with 6 corners*
4,1,6,$1,$2,$3,$4,$5,$6,$7,$8,$9,$10,$11,$12,$1,$2,$13*%
%AMOutline7P*
0 Free polygon, 7 corners , with rotation*
0 The origin of the aperture is its center*
0 number of corners: always 7*
0 $1 to $14 corner X, Y*
0 $15 Rotation angle, in degrees counterclockwise*
0 create outline with 7 corners*
4,1,7,$1,$2,$3,$4,$5,$6,$7,$8,$9,$10,$11,$12,$13,$14,$1,$2,$15*%
%AMOutline8P*
0 Free polygon, 8 corners , with rotation*
0 The origin of the aperture is its center*
0 number of corners: always 8*
0 $1 to $16 corner X, Y*
0 $17 Rotation angle, in degrees counterclockwise*
0 create outline with 8 corners*
4,1,8,$1,$2,$3,$4,$5,$6,$7,$8,$9,$10,$11,$12,$13,$14,$15,$16,$1,$2,$17*%
G04 Aperture macros list end*
%TA.AperFunction,ComponentPad*%
%ADD10R,1.524000X1.524000*%
%TD*%
%TA.AperFunction,ComponentPad*%
%ADD11Outline8P,-0.762000X0.381000X-0.381000X0.762000X0.381000X0.762000X0.762000X0.381000X0.762000X-0.381000X0.381000X-0.762000X-0.381000X-0.762000X-0.762000X-0.381000X90.000000*%
%TD*%
%TA.AperFunction,ComponentPad*%
%ADD12C,1.950000*%
%TD*%
%TA.AperFunction,ComponentPad*%
%ADD13O,3.048000X1.524000*%
%TD*%
%TA.AperFunction,ComponentPad*%
%ADD14R,1.575000X1.575000*%
%TD*%
%TA.AperFunction,ComponentPad*%
%ADD15C,1.575000*%
%TD*%
%TA.AperFunction,ComponentPad*%
%ADD16R,3.000000X3.000000*%
%TD*%
%TA.AperFunction,ComponentPad*%
%ADD17C,3.000000*%
%TD*%
%TA.AperFunction,ComponentPad*%
%ADD18O,3.000000X1.500000*%
%TD*%
%TA.AperFunction,ComponentPad*%
%ADD19O,3.000000X1.540000*%
%TD*%
%TA.AperFunction,ComponentPad*%
%ADD20Outline8P,-0.762000X0.381000X-0.381000X0.762000X0.381000X0.762000X0.762000X0.381000X0.762000X-0.381000X0.381000X-0.762000X-0.381000X-0.762000X-0.762000X-0.381000X180.000000*%
%TD*%
%TA.AperFunction,SMDPad,CuDef*%
%ADD21R,1.700000X2.000000*%
%TD*%
%TA.AperFunction,ComponentPad*%
%ADD22R,1.700000X1.700000*%
%TD*%
%TA.AperFunction,ComponentPad*%
%ADD23O,1.700000X1.700000*%
%TD*%
%TA.AperFunction,ComponentPad*%
%ADD24C,1.800000*%
%TD*%
%TA.AperFunction,ComponentPad*%
%ADD25C,1.219000*%
%TD*%
%TA.AperFunction,ComponentPad*%
%ADD26O,1.320800X2.641600*%
%TD*%
%TA.AperFunction,ComponentPad*%
%ADD27R,1.800000X4.400000*%
%TD*%
%TA.AperFunction,ComponentPad*%
%ADD28O,1.800000X4.000000*%
%TD*%
%TA.AperFunction,ComponentPad*%
%ADD29O,4.000000X1.800000*%
%TD*%
%TA.AperFunction,ComponentPad*%
%ADD30R,1.560000X1.560000*%
%TD*%
%TA.AperFunction,ComponentPad*%
%ADD31C,1.676400*%
%TD*%
%TA.AperFunction,ViaPad*%
%ADD32C,0.800000*%
%TD*%
%TA.AperFunction,Conductor*%
%ADD33C,1.000000*%
%TD*%
%TA.AperFunction,Conductor*%
%ADD34C,0.300000*%
%TD*%
%TA.AperFunction,Conductor*%
%ADD35C,0.600000*%
%TD*%
%TA.AperFunction,Conductor*%
%ADD36C,0.250000*%
%TD*%
%TA.AperFunction,Conductor*%
%ADD37C,1.500000*%
%TD*%
G04 APERTURE END LIST*
D10*
%TO.P,J10,1,Pin_1*%
%TO.N,/15*%
X141520000Y-56510000D03*
D11*
%TO.P,J10,2,Pin_2*%
%TO.N,/5V*%
X144060000Y-56510000D03*
%TO.P,J10,3,Pin_3*%
%TO.N,GND*%
X146600000Y-56510000D03*
%TD*%
D12*
%TO.P,T3,1,Pin_1*%
%TO.N,GND*%
X76270000Y-55053723D03*
%TO.P,T3,2,Pin_2*%
%TO.N,/12V_U*%
X76270000Y-50053723D03*
%TD*%
D13*
%TO.P,J5,1,Pin_1*%
%TO.N,/CLK*%
X143569418Y-118588838D03*
%TO.P,J5,2,Pin_2*%
%TO.N,/SD0*%
X143569418Y-116048838D03*
%TO.P,J5,3,Pin_3*%
%TO.N,/SD1*%
X143569418Y-113508838D03*
%TO.P,J5,4,Pin_4*%
%TO.N,/15*%
X143569418Y-110968838D03*
%TO.P,J5,5,Pin_5*%
%TO.N,/2*%
X143569418Y-108428838D03*
%TO.P,J5,6,Pin_6*%
%TO.N,/0*%
X143569418Y-105888838D03*
%TO.P,J5,7,Pin_7*%
%TO.N,/4*%
X143569418Y-103348838D03*
%TO.P,J5,8,Pin_8*%
%TO.N,/16*%
X143569418Y-100808838D03*
%TO.P,J5,9,Pin_9*%
%TO.N,/17*%
X143569418Y-98268838D03*
%TO.P,J5,10,Pin_10*%
%TO.N,/5*%
X143569418Y-95728838D03*
%TO.P,J5,11,Pin_11*%
%TO.N,/18*%
X143569418Y-93188838D03*
%TO.P,J5,12,Pin_12*%
%TO.N,/19*%
X143569418Y-90648838D03*
%TO.P,J5,13,Pin_13*%
%TO.N,GND*%
X143569418Y-88108838D03*
%TO.P,J5,14,Pin_14*%
%TO.N,D+*%
X143569418Y-85568838D03*
%TO.P,J5,15,Pin_15*%
%TO.N,/RX*%
X143569418Y-83028838D03*
%TO.P,J5,16,Pin_16*%
%TO.N,/TX*%
X143569418Y-80488838D03*
%TO.P,J5,17,Pin_17*%
%TO.N,D-*%
X143569418Y-77948838D03*
%TO.P,J5,18,Pin_18*%
%TO.N,/23*%
X143569418Y-75408838D03*
%TO.P,J5,19,Pin_19*%
%TO.N,GND*%
X143569418Y-72868838D03*
%TD*%
D14*
%TO.P,J14,1,1*%
%TO.N,/12V_U*%
X74895000Y-73000000D03*
D15*
%TO.P,J14,2,2*%
%TO.N,GND*%
X74895000Y-75500000D03*
%TD*%
D16*
%TO.P,J16,1,Pin_1*%
%TO.N,GND*%
X76240000Y-92670000D03*
D17*
%TO.P,J16,2,Pin_2*%
%TO.N,/OUT1A*%
X76240000Y-97750000D03*
%TO.P,J16,3,Pin_3*%
%TO.N,/OUT2A*%
X76240000Y-102830000D03*
%TO.P,J16,4,Pin_4*%
%TO.N,/OUT3A*%
X76240000Y-107910000D03*
%TO.P,J16,5,Pin_5*%
%TO.N,/OUT4A*%
X76240000Y-112990000D03*
%TD*%
D18*
%TO.P,J17,1,Pin_1*%
%TO.N,/19*%
X147550000Y-111677727D03*
%TO.P,J17,2,Pin_2*%
%TO.N,/18*%
X147550000Y-109137727D03*
%TO.P,J17,3,Pin_3*%
%TO.N,/23*%
X147550000Y-106597727D03*
%TO.P,J17,4,Pin_4*%
%TO.N,/5*%
X147550000Y-104057727D03*
D19*
%TO.P,J17,5,Pin_5*%
%TO.N,/3V3*%
X147550000Y-101517727D03*
D18*
%TO.P,J17,6,Pin_6*%
%TO.N,GND*%
X147550000Y-98977727D03*
%TD*%
D10*
%TO.P,J11,1,Pin_1*%
%TO.N,/5V*%
X141332544Y-52158000D03*
D20*
%TO.P,J11,2,Pin_2*%
X141332544Y-49618000D03*
%TO.P,J11,3,Pin_3*%
X141332544Y-47078000D03*
%TO.P,J11,4,Pin_4*%
X141332544Y-44538000D03*
%TO.P,J11,5,Pin_5*%
X141332544Y-41998000D03*
%TD*%
D21*
%TO.P,TP2,1,1*%
%TO.N,/OUT3A*%
X79600000Y-97859497D03*
%TD*%
D22*
%TO.P,J8,1,Pin_1*%
%TO.N,D+*%
X129920000Y-36195000D03*
D23*
%TO.P,J8,2,Pin_2*%
%TO.N,D-*%
X132460000Y-36195000D03*
%TO.P,J8,3,Pin_3*%
%TO.N,GND*%
X135000000Y-36195000D03*
%TO.P,J8,4,Pin_4*%
%TO.N,/23*%
X137540000Y-36195000D03*
%TO.P,J8,5,Pin_5*%
%TO.N,/3V3*%
X140080000Y-36195000D03*
%TO.P,J8,6,Pin_6*%
%TO.N,unconnected-(J8-Pin_6-Pad6)*%
X142620000Y-36195000D03*
%TD*%
D21*
%TO.P,TP1,1,1*%
%TO.N,/OUT2A*%
X72900000Y-112859497D03*
%TD*%
D24*
%TO.P,U3,1,VM*%
%TO.N,/12V_P*%
X86740000Y-98727582D03*
%TO.P,U3,2,VCC*%
%TO.N,/3V3*%
X86740000Y-101267582D03*
%TO.P,U3,3,GND*%
%TO.N,GND*%
X86740000Y-103807582D03*
%TO.P,U3,4,A01*%
%TO.N,/OUT1A*%
X86740000Y-106347582D03*
%TO.P,U3,5,A02*%
%TO.N,/OUT2A*%
X86740000Y-108887582D03*
%TO.P,U3,6,B02*%
%TO.N,/OUT4A*%
X86740000Y-111427582D03*
%TO.P,U3,7,B01*%
%TO.N,/OUT3A*%
X86740000Y-113967582D03*
%TO.P,U3,8,GND*%
%TO.N,GND*%
X86740000Y-116507582D03*
%TO.P,U3,9,GND*%
X101980000Y-116507582D03*
%TO.P,U3,10,PWMB*%
%TO.N,/3V3*%
X101980000Y-113967582D03*
%TO.P,U3,11,BI2*%
%TO.N,Net-(U3-BI2)*%
X101980000Y-111427582D03*
%TO.P,U3,12,BI1*%
%TO.N,Net-(U3-BI1)*%
X101980000Y-108887582D03*
%TO.P,U3,13,STBY*%
%TO.N,/3V3*%
X101980000Y-106347582D03*
%TO.P,U3,14,AI1*%
%TO.N,Net-(U3-AI1)*%
X101980000Y-103807582D03*
%TO.P,U3,15,AI2*%
%TO.N,Net-(U3-AI2)*%
X101980000Y-101267582D03*
%TO.P,U3,16,PWMA*%
%TO.N,/3V3*%
X101980000Y-98727582D03*
%TD*%
D10*
%TO.P,J13,1,Pin_1*%
%TO.N,GND*%
X146900000Y-52160000D03*
D20*
%TO.P,J13,2,Pin_2*%
X146900000Y-49620000D03*
%TO.P,J13,3,Pin_3*%
X146900000Y-47080000D03*
%TO.P,J13,4,Pin_4*%
X146900000Y-44540000D03*
%TO.P,J13,5,Pin_5*%
X146900000Y-42000000D03*
%TD*%
D25*
%TO.P,F2,1*%
%TO.N,Net-(D13-K)*%
X83485000Y-61280000D03*
%TO.P,F2,2*%
%TO.N,Net-(5V_SW1-B-Pad2)*%
X88535000Y-61280000D03*
%TD*%
D10*
%TO.P,J3,1,Pin_1*%
%TO.N,/19*%
X141520000Y-64934000D03*
D11*
%TO.P,J3,2,Pin_2*%
%TO.N,/5V*%
X144060000Y-64934000D03*
%TO.P,J3,3,Pin_3*%
%TO.N,GND*%
X146600000Y-64934000D03*
%TD*%
D26*
%TO.P,12V_SW1,1,A*%
%TO.N,unconnected-(12V_SW1-A-Pad1)*%
X107640000Y-60770000D03*
%TO.P,12V_SW1,2,B*%
%TO.N,Net-(12V_SW1-B-Pad2)*%
X110180000Y-60770000D03*
%TO.P,12V_SW1,3,C*%
%TO.N,/12V_P*%
X112720000Y-60770000D03*
%TO.P,12V_SW1,4,A*%
%TO.N,unconnected-(12V_SW1-A-Pad4)*%
X107640000Y-65850000D03*
%TO.P,12V_SW1,5,B*%
%TO.N,Net-(12V_SW1-B-Pad2)*%
X110180000Y-65850000D03*
%TO.P,12V_SW1,6,C*%
%TO.N,/12V_P*%
X112720000Y-65850000D03*
%TD*%
%TO.P,5V_SW1,1,A*%
%TO.N,unconnected-(5V_SW1-A-Pad1)*%
X107640000Y-51310000D03*
%TO.P,5V_SW1,2,B*%
%TO.N,Net-(5V_SW1-B-Pad2)*%
X110180000Y-51310000D03*
%TO.P,5V_SW1,3,C*%
%TO.N,/5V_P*%
X112720000Y-51310000D03*
%TO.P,5V_SW1,4,A*%
%TO.N,unconnected-(5V_SW1-A-Pad4)*%
X107640000Y-56390000D03*
%TO.P,5V_SW1,5,B*%
%TO.N,Net-(5V_SW1-B-Pad2)*%
X110180000Y-56390000D03*
%TO.P,5V_SW1,6,C*%
%TO.N,/5V_P*%
X112720000Y-56390000D03*
%TD*%
D25*
%TO.P,F1,1*%
%TO.N,Net-(D9-K)*%
X78715000Y-61280000D03*
%TO.P,F1,2*%
%TO.N,Net-(12V_SW1-B-Pad2)*%
X73665000Y-61280000D03*
%TD*%
D10*
%TO.P,J2,1,Pin_1*%
%TO.N,/5*%
X141520000Y-59310000D03*
D11*
%TO.P,J2,2,Pin_2*%
%TO.N,/5V*%
X144060000Y-59310000D03*
%TO.P,J2,3,Pin_3*%
%TO.N,GND*%
X146600000Y-59310000D03*
%TD*%
D13*
%TO.P,J9,1,Pin_1*%
%TO.N,GND*%
X103620000Y-74160000D03*
%TO.P,J9,2,Pin_2*%
%TO.N,/3V3*%
X103620000Y-76700000D03*
%TO.P,J9,3,Pin_3*%
%TO.N,D+*%
X103620000Y-79240000D03*
%TO.P,J9,4,Pin_4*%
%TO.N,D-*%
X103620000Y-81780000D03*
%TD*%
D27*
%TO.P,J6,1*%
%TO.N,/12V_U*%
X78580000Y-40400000D03*
D28*
%TO.P,J6,2*%
%TO.N,GND*%
X72780000Y-40400000D03*
D29*
%TO.P,J6,3*%
X75580000Y-45200000D03*
%TD*%
D30*
%TO.P,U1,1,3V3*%
%TO.N,/ESP_3V3*%
X113179418Y-72868838D03*
D31*
%TO.P,U1,2,EN*%
%TO.N,/EN*%
X113179418Y-75408838D03*
%TO.P,U1,3,SENSOR_VP*%
%TO.N,/36*%
X113179418Y-77948838D03*
%TO.P,U1,4,SENSOR_VN*%
%TO.N,/39*%
X113179418Y-80488838D03*
%TO.P,U1,5,IO34*%
%TO.N,/34*%
X113179418Y-83028838D03*
%TO.P,U1,6,IO35*%
%TO.N,/35*%
X113179418Y-85568838D03*
%TO.P,U1,7,IO32*%
%TO.N,/32*%
X113179418Y-88108838D03*
%TO.P,U1,8,IO33*%
%TO.N,/33*%
X113179418Y-90648838D03*
%TO.P,U1,9,IO25*%
%TO.N,/25*%
X113179418Y-93188838D03*
%TO.P,U1,10,IO26*%
%TO.N,/26*%
X113179418Y-95728838D03*
%TO.P,U1,11,IO27*%
%TO.N,/27*%
X113179418Y-98268838D03*
%TO.P,U1,12,IO14*%
%TO.N,/14*%
X113179418Y-100808838D03*
%TO.P,U1,13,IO12*%
%TO.N,/12*%
X113179418Y-103348838D03*
%TO.P,U1,14,GND1*%
%TO.N,GND*%
X113179418Y-105888838D03*
%TO.P,U1,15,IO13*%
%TO.N,/13*%
X113179418Y-108428838D03*
%TO.P,U1,16,SD2*%
%TO.N,/SD2*%
X113179418Y-110968838D03*
%TO.P,U1,17,SD3*%
%TO.N,/SD3*%
X113179418Y-113508838D03*
%TO.P,U1,18,CMD*%
%TO.N,/11*%
X113179418Y-116048838D03*
%TO.P,U1,19,EXT_5V*%
%TO.N,/5V_P*%
X113179418Y-118588838D03*
%TO.P,U1,20,GND3*%
%TO.N,GND*%
X138579418Y-72868838D03*
%TO.P,U1,21,IO23*%
%TO.N,/23*%
X138579418Y-75408838D03*
%TO.P,U1,22,IO22*%
%TO.N,D-*%
X138579418Y-77948838D03*
%TO.P,U1,23,TXD0*%
%TO.N,/TX*%
X138579418Y-80488838D03*
%TO.P,U1,24,RXD0*%
%TO.N,/RX*%
X138579418Y-83028838D03*
%TO.P,U1,25,IO21*%
%TO.N,D+*%
X138579418Y-85568838D03*
%TO.P,U1,26,GND2*%
%TO.N,GND*%
X138579418Y-88108838D03*
%TO.P,U1,27,IO19*%
%TO.N,/19*%
X138579418Y-90648838D03*
%TO.P,U1,28,IO18*%
%TO.N,/18*%
X138579418Y-93188838D03*
%TO.P,U1,29,IO5*%
%TO.N,/5*%
X138579418Y-95728838D03*
%TO.P,U1,30,IO17*%
%TO.N,/17*%
X138579418Y-98268838D03*
%TO.P,U1,31,IO16*%
%TO.N,/16*%
X138579418Y-100808838D03*
%TO.P,U1,32,IO4*%
%TO.N,/4*%
X138579418Y-103348838D03*
%TO.P,U1,33,IO0*%
%TO.N,/0*%
X138579418Y-105888838D03*
%TO.P,U1,34,IO2*%
%TO.N,/2*%
X138579418Y-108428838D03*
%TO.P,U1,35,IO15*%
%TO.N,/15*%
X138579418Y-110968838D03*
%TO.P,U1,36,SD1*%
%TO.N,/SD1*%
X138579418Y-113508838D03*
%TO.P,U1,37,SD0*%
%TO.N,/SD0*%
X138579418Y-116048838D03*
%TO.P,U1,38,CLK*%
%TO.N,/CLK*%
X138579418Y-118588838D03*
%TD*%
D22*
%TO.P,J7,1,Pin_1*%
%TO.N,/32*%
X124825000Y-36195000D03*
D23*
%TO.P,J7,2,Pin_2*%
%TO.N,/35*%
X122285000Y-36195000D03*
%TO.P,J7,3,Pin_3*%
%TO.N,/34*%
X119745000Y-36195000D03*
%TO.P,J7,4,Pin_4*%
%TO.N,/39*%
X117205000Y-36195000D03*
%TO.P,J7,5,Pin_5*%
%TO.N,/36*%
X114665000Y-36195000D03*
%TO.P,J7,6,Pin_6*%
%TO.N,GND*%
X112125000Y-36195000D03*
%TO.P,J7,7,Pin_7*%
%TO.N,/3V3*%
X109585000Y-36195000D03*
%TD*%
D10*
%TO.P,J12,1,Pin_1*%
%TO.N,/3V3*%
X144122544Y-52166000D03*
D20*
%TO.P,J12,2,Pin_2*%
X144122544Y-49626000D03*
%TO.P,J12,3,Pin_3*%
X144122544Y-47086000D03*
%TO.P,J12,4,Pin_4*%
X144122544Y-44546000D03*
%TO.P,J12,5,Pin_5*%
X144122544Y-42006000D03*
%TD*%
D13*
%TO.P,J1,1,Pin_1*%
%TO.N,/ESP_3V3*%
X108179418Y-72868838D03*
%TO.P,J1,2,Pin_2*%
%TO.N,/EN*%
X108179418Y-75408838D03*
%TO.P,J1,3,Pin_3*%
%TO.N,/36*%
X108179418Y-77948838D03*
%TO.P,J1,4,Pin_4*%
%TO.N,/39*%
X108179418Y-80488838D03*
%TO.P,J1,5,Pin_5*%
%TO.N,/34*%
X108179418Y-83028838D03*
%TO.P,J1,6,Pin_6*%
%TO.N,/35*%
X108179418Y-85568838D03*
%TO.P,J1,7,Pin_7*%
%TO.N,/32*%
X108179418Y-88108838D03*
%TO.P,J1,8,Pin_8*%
%TO.N,/33*%
X108179418Y-90648838D03*
%TO.P,J1,9,Pin_9*%
%TO.N,/25*%
X108179418Y-93188838D03*
%TO.P,J1,10,Pin_10*%
%TO.N,/26*%
X108179418Y-95728838D03*
%TO.P,J1,11,Pin_11*%
%TO.N,/27*%
X108179418Y-98268838D03*
%TO.P,J1,12,Pin_12*%
%TO.N,/14*%
X108179418Y-100808838D03*
%TO.P,J1,13,Pin_13*%
%TO.N,/12*%
X108179418Y-103348838D03*
%TO.P,J1,14,Pin_14*%
%TO.N,GND*%
X108179418Y-105888838D03*
%TO.P,J1,15,Pin_15*%
%TO.N,/13*%
X108179418Y-108428838D03*
%TO.P,J1,16,Pin_16*%
%TO.N,/SD2*%
X108179418Y-110968838D03*
%TO.P,J1,17,Pin_17*%
%TO.N,/SD3*%
X108179418Y-113508838D03*
%TO.P,J1,18,Pin_18*%
%TO.N,/11*%
X108179418Y-116048838D03*
%TO.P,J1,19,Pin_19*%
%TO.N,/5V_P*%
X108179418Y-118588838D03*
%TD*%
D10*
%TO.P,J4,1,Pin_1*%
%TO.N,/18*%
X141510000Y-62120000D03*
D11*
%TO.P,J4,2,Pin_2*%
%TO.N,/5V*%
X144050000Y-62120000D03*
%TO.P,J4,3,Pin_3*%
%TO.N,GND*%
X146590000Y-62120000D03*
%TD*%
D32*
%TO.N,/5V_P*%
X97500000Y-71880000D03*
%TO.N,/12V_P*%
X98370000Y-78260000D03*
%TO.N,/33*%
X86550000Y-71100000D03*
%TO.N,/27*%
X119580000Y-98280000D03*
%TO.N,/12*%
X116867500Y-50147500D03*
%TO.N,/13*%
X99690000Y-115280000D03*
%TO.N,/12V_U*%
X81120000Y-66450000D03*
%TO.N,/3V3*%
X101110000Y-66770000D03*
X101110000Y-69590000D03*
%TO.N,GND*%
X96660000Y-45115000D03*
X136203500Y-58716500D03*
X130200000Y-42980000D03*
X94200000Y-35700000D03*
X96740000Y-33160000D03*
X82800000Y-43400000D03*
X112990000Y-44570000D03*
X119070000Y-58710000D03*
X82800000Y-37500000D03*
X135180000Y-43020000D03*
X90060000Y-72830000D03*
X94200000Y-33160000D03*
X128970000Y-54170000D03*
X129000000Y-52900000D03*
X126300000Y-52900000D03*
X120970000Y-53570000D03*
X88210000Y-66340000D03*
X117680000Y-42970000D03*
X99280000Y-38240000D03*
X119080000Y-50290000D03*
X122730000Y-43000000D03*
X94730000Y-67350000D03*
X83505000Y-46955000D03*
X96740000Y-38240000D03*
X82800000Y-40100000D03*
X110880000Y-44580000D03*
X99280000Y-35700000D03*
X140170000Y-54430000D03*
X127730000Y-42990000D03*
X129020000Y-58710000D03*
X94200000Y-38240000D03*
X132710000Y-42970000D03*
X99280000Y-33160000D03*
X120250000Y-43010000D03*
X96740000Y-35700000D03*
X100060000Y-45115000D03*
X126300000Y-58710000D03*
X136220000Y-52820000D03*
X79980000Y-71100000D03*
X125210000Y-42980000D03*
%TO.N,/5*%
X124820000Y-91450000D03*
%TO.N,/19*%
X133370000Y-88460000D03*
%TO.N,/18*%
X133580000Y-92190000D03*
%TO.N,/15*%
X124980000Y-68970000D03*
X132950000Y-93480000D03*
%TO.N,/2*%
X119050000Y-61750000D03*
%TO.N,/4*%
X121599070Y-55870000D03*
%TO.N,D+*%
X120950000Y-81670000D03*
X126409500Y-81670000D03*
X133370000Y-81670000D03*
%TO.N,D-*%
X120940000Y-84230000D03*
X133375500Y-77948838D03*
X127380000Y-80880000D03*
%TD*%
D33*
%TO.N,/5V_P*%
X100440000Y-71880000D02*
X97500000Y-71880000D01*
X112720000Y-56390000D02*
X112720000Y-57390000D01*
X107040800Y-58749200D02*
X105830000Y-59960000D01*
X112720000Y-57390000D02*
X111360800Y-58749200D01*
X103940000Y-68380000D02*
X100440000Y-71880000D01*
X108179418Y-118588838D02*
X113179418Y-118588838D01*
X105830000Y-62940000D02*
X103940000Y-64830000D01*
X103940000Y-64830000D02*
X103940000Y-68380000D01*
X111360800Y-58749200D02*
X107040800Y-58749200D01*
X105830000Y-59960000D02*
X105830000Y-62940000D01*
%TO.N,/12V_P*%
X108163162Y-71406838D02*
X112720000Y-66850000D01*
X112720000Y-66850000D02*
X112720000Y-65850000D01*
X98370000Y-75647056D02*
X102610218Y-71406838D01*
X98370000Y-78260000D02*
X98370000Y-75647056D01*
X102610218Y-71406838D02*
X108163162Y-71406838D01*
D34*
%TO.N,/32*%
X122400000Y-40000000D02*
X117200000Y-40000000D01*
X115800000Y-41400000D02*
X115800000Y-50569353D01*
X108179418Y-88108838D02*
X113179418Y-88108838D01*
X117700000Y-86300000D02*
X115891162Y-88108838D01*
X124825000Y-36800000D02*
X124825000Y-37575000D01*
X115810400Y-64610400D02*
X117700000Y-66500000D01*
X117200000Y-40000000D02*
X115800000Y-41400000D01*
X115810400Y-50579753D02*
X115810400Y-64610400D01*
X117700000Y-66500000D02*
X117700000Y-86300000D01*
X115800000Y-50569353D02*
X115810400Y-50579753D01*
X115891162Y-88108838D02*
X113179418Y-88108838D01*
X124825000Y-37575000D02*
X122400000Y-40000000D01*
D35*
%TO.N,/33*%
X106098838Y-90648838D02*
X108179418Y-90648838D01*
D34*
X108179418Y-90648838D02*
X113179418Y-90648838D01*
D35*
X86550000Y-71100000D02*
X106098838Y-90648838D01*
D34*
%TO.N,/25*%
X108179418Y-93188838D02*
X113179418Y-93188838D01*
%TO.N,/26*%
X108179418Y-95728838D02*
X113179418Y-95728838D01*
%TO.N,/27*%
X119580000Y-98280000D02*
X119568838Y-98268838D01*
X108179418Y-98268838D02*
X113179418Y-98268838D01*
X119568838Y-98268838D02*
X113179418Y-98268838D01*
%TO.N,/14*%
X108179418Y-100808838D02*
X113179418Y-100808838D01*
%TO.N,/12*%
X118200000Y-65600000D02*
X118200000Y-93607108D01*
X116470000Y-50545000D02*
X116470000Y-63870000D01*
X116867500Y-50147500D02*
X116470000Y-50545000D01*
X116470000Y-63870000D02*
X118200000Y-65600000D01*
X116001162Y-103348838D02*
X113179418Y-103348838D01*
X120430000Y-95837107D02*
X120430000Y-98920000D01*
X120430000Y-98920000D02*
X116001162Y-103348838D01*
X113179418Y-103348838D02*
X108179418Y-103348838D01*
X118200000Y-93607108D02*
X120430000Y-95837107D01*
D36*
%TO.N,/13*%
X104870000Y-111738256D02*
X108179418Y-108428838D01*
X104870000Y-113433884D02*
X104870000Y-111738256D01*
D34*
X108179418Y-108428838D02*
X113179418Y-108428838D01*
D36*
X103023884Y-115280000D02*
X104870000Y-113433884D01*
X99690000Y-115280000D02*
X103023884Y-115280000D01*
D37*
%TO.N,/12V_U*%
X74210000Y-52113723D02*
X74210000Y-59540000D01*
X76270000Y-50053723D02*
X74210000Y-52113723D01*
X74210000Y-59540000D02*
X81120000Y-66450000D01*
D35*
%TO.N,/3V3*%
X101980000Y-98727582D02*
X89280000Y-98727582D01*
X104290000Y-105630000D02*
X103572418Y-106347582D01*
X140080000Y-37720000D02*
X144122544Y-41762544D01*
X149850000Y-55930000D02*
X149850000Y-100080000D01*
X102790000Y-65090000D02*
X101110000Y-66770000D01*
X103452418Y-113967582D02*
X101980000Y-113967582D01*
X101110000Y-66770000D02*
X101110000Y-69590000D01*
X104830000Y-41555000D02*
X104830000Y-61670000D01*
X138180000Y-33570000D02*
X140080000Y-35470000D01*
X89280000Y-98727582D02*
X86740000Y-101267582D01*
X144122544Y-47086000D02*
X144122544Y-49626000D01*
X111430000Y-33570000D02*
X138180000Y-33570000D01*
X109585000Y-36800000D02*
X104830000Y-41555000D01*
X144122544Y-42006000D02*
X144122544Y-44546000D01*
X104830000Y-61670000D02*
X102790000Y-63710000D01*
X144122544Y-49626000D02*
X144122544Y-52166000D01*
X144122544Y-52166000D02*
X146236544Y-54280000D01*
X109585000Y-35415000D02*
X111430000Y-33570000D01*
X104180000Y-106960000D02*
X104180000Y-113240000D01*
X148200000Y-54280000D02*
X149850000Y-55930000D01*
X146236544Y-54280000D02*
X148200000Y-54280000D01*
X103572418Y-106347582D02*
X101980000Y-106347582D01*
X101980000Y-98727582D02*
X103547582Y-98727582D01*
X103567582Y-106347582D02*
X104180000Y-106960000D01*
X140080000Y-36790000D02*
X140080000Y-37720000D01*
X101980000Y-106347582D02*
X103567582Y-106347582D01*
X149850000Y-100080000D02*
X148412273Y-101517727D01*
X144122544Y-44546000D02*
X144122544Y-47086000D01*
X140080000Y-35470000D02*
X140080000Y-36790000D01*
X103547582Y-98727582D02*
X104290000Y-99470000D01*
X104290000Y-99470000D02*
X104290000Y-105630000D01*
X102790000Y-63710000D02*
X102790000Y-65090000D01*
X104180000Y-113240000D02*
X103452418Y-113967582D01*
X109585000Y-36800000D02*
X109585000Y-35415000D01*
D33*
%TO.N,/5V*%
X141332544Y-41998000D02*
X141332544Y-44538000D01*
X144060000Y-55710000D02*
X144060000Y-56510000D01*
X141332544Y-49618000D02*
X141332544Y-52158000D01*
X144050000Y-62120000D02*
X144050000Y-64924000D01*
X144060000Y-56510000D02*
X144060000Y-59310000D01*
X141332544Y-52982544D02*
X144060000Y-55710000D01*
X141332544Y-47078000D02*
X141332544Y-49618000D01*
X141332544Y-44538000D02*
X141332544Y-47078000D01*
X141332544Y-52158000D02*
X141332544Y-52982544D01*
X144060000Y-59310000D02*
X144060000Y-62110000D01*
D35*
%TO.N,GND*%
X129920000Y-64560000D02*
X130880000Y-63600000D01*
X130880000Y-63600000D02*
X131800000Y-63600000D01*
X117680000Y-42970000D02*
X120210000Y-42970000D01*
X138579418Y-72868838D02*
X143569418Y-72868838D01*
X129920000Y-88890000D02*
X129920000Y-64560000D01*
X135160000Y-89760000D02*
X130790000Y-89760000D01*
X108179418Y-105888838D02*
X113179418Y-105888838D01*
X136400000Y-91000000D02*
X135160000Y-89760000D01*
X143569418Y-88108838D02*
X138579418Y-88108838D01*
X130790000Y-89760000D02*
X129920000Y-88890000D01*
X120210000Y-42970000D02*
X120250000Y-43010000D01*
D34*
%TO.N,/EN*%
X113179418Y-75408838D02*
X108179418Y-75408838D01*
%TO.N,/36*%
X115700000Y-70100000D02*
X113800000Y-68200000D01*
X113810400Y-51408181D02*
X113800000Y-51397781D01*
X113800000Y-51397781D02*
X113800000Y-37665000D01*
X113800000Y-68200000D02*
X113810400Y-68189600D01*
X114151162Y-77948838D02*
X115700000Y-76400000D01*
X113179418Y-77948838D02*
X114151162Y-77948838D01*
X115700000Y-76400000D02*
X115700000Y-70100000D01*
X113800000Y-37665000D02*
X114665000Y-36800000D01*
X113179418Y-77948838D02*
X108179418Y-77948838D01*
X113810400Y-68189600D02*
X113810400Y-51408181D01*
%TO.N,/39*%
X113179418Y-80488838D02*
X108179418Y-80488838D01*
X116200000Y-79400000D02*
X116200000Y-69400000D01*
X113179418Y-80488838D02*
X115111162Y-80488838D01*
X116200000Y-69400000D02*
X114310400Y-67510400D01*
X114310400Y-51201074D02*
X114300000Y-51190674D01*
X115111162Y-80488838D02*
X116200000Y-79400000D01*
X114300000Y-51190674D02*
X114300000Y-39705000D01*
X114300000Y-39705000D02*
X117205000Y-36800000D01*
X114310400Y-67510400D02*
X114310400Y-51201074D01*
%TO.N,/34*%
X114810400Y-66810400D02*
X114810400Y-50993967D01*
X116700000Y-82000000D02*
X116700000Y-68700000D01*
X113179418Y-83028838D02*
X115671162Y-83028838D01*
X116700000Y-68700000D02*
X114810400Y-66810400D01*
X117945000Y-38600000D02*
X119745000Y-36800000D01*
X114800000Y-40600000D02*
X116800000Y-38600000D01*
X116800000Y-38600000D02*
X117945000Y-38600000D01*
X115671162Y-83028838D02*
X116700000Y-82000000D01*
X113179418Y-83028838D02*
X108179418Y-83028838D01*
X114800000Y-50983567D02*
X114800000Y-40600000D01*
X114810400Y-50993967D02*
X114800000Y-50983567D01*
%TO.N,/35*%
X113179418Y-85568838D02*
X116431162Y-85568838D01*
X115300000Y-50776460D02*
X115300000Y-40807106D01*
X113179418Y-85568838D02*
X108179418Y-85568838D01*
X116907106Y-39200000D02*
X119885000Y-39200000D01*
X117200000Y-67400000D02*
X115310400Y-65510400D01*
X117200000Y-84800000D02*
X117200000Y-67400000D01*
X116431162Y-85568838D02*
X117200000Y-84800000D01*
X119885000Y-39200000D02*
X122285000Y-36800000D01*
X115310400Y-50786860D02*
X115300000Y-50776460D01*
X115300000Y-40807106D02*
X116907106Y-39200000D01*
X115310400Y-65510400D02*
X115310400Y-50786860D01*
%TO.N,/SD2*%
X108179418Y-110968838D02*
X113179418Y-110968838D01*
%TO.N,/SD3*%
X108179418Y-113508838D02*
X113179418Y-113508838D01*
%TO.N,/5*%
X128759339Y-95730000D02*
X138578256Y-95730000D01*
X145560000Y-97270000D02*
X145560000Y-102067727D01*
X138579418Y-95728838D02*
X143569418Y-95728838D01*
X144018838Y-95728838D02*
X145560000Y-97270000D01*
X145560000Y-102067727D02*
X147550000Y-104057727D01*
X124820000Y-91450000D02*
X124820000Y-91790661D01*
X124820000Y-91790661D02*
X128759339Y-95730000D01*
D36*
%TO.N,/19*%
X133370000Y-88460000D02*
X136390580Y-88460000D01*
D34*
X138579418Y-90648838D02*
X143569418Y-90648838D01*
D36*
X136390580Y-88460000D02*
X138579418Y-90648838D01*
D34*
%TO.N,/18*%
X134578838Y-93188838D02*
X138579418Y-93188838D01*
X138579418Y-93188838D02*
X143569418Y-93188838D01*
X133580000Y-92190000D02*
X134578838Y-93188838D01*
%TO.N,/CLK*%
X138579418Y-118588838D02*
X143569418Y-118588838D01*
%TO.N,/SD0*%
X138579418Y-116048838D02*
X143569418Y-116048838D01*
%TO.N,/SD1*%
X138579418Y-113508838D02*
X143569418Y-113508838D01*
%TO.N,/15*%
X129270000Y-89800000D02*
X129270000Y-73260000D01*
X129270000Y-73260000D02*
X124980000Y-68970000D01*
X138579418Y-110968838D02*
X143569418Y-110968838D01*
X132950000Y-93480000D02*
X129270000Y-89800000D01*
%TO.N,/2*%
X138579418Y-108428838D02*
X143569418Y-108428838D01*
X118700000Y-93400001D02*
X118700000Y-65392893D01*
X118700000Y-65392893D02*
X118603554Y-65296446D01*
X138278838Y-108428838D02*
X131658838Y-101808838D01*
X118603554Y-65296446D02*
X119050000Y-64850000D01*
X131658838Y-101808838D02*
X127108838Y-101808838D01*
X127108838Y-101808838D02*
X118700000Y-93400001D01*
X119050000Y-64850000D02*
X119050000Y-61750000D01*
%TO.N,/0*%
X138579418Y-105888838D02*
X143569418Y-105888838D01*
%TO.N,/4*%
X119200000Y-68162894D02*
X119200000Y-93192895D01*
X127315944Y-101308838D02*
X136539418Y-101308838D01*
X119200000Y-93192895D02*
X127315944Y-101308838D01*
X121510499Y-65852395D02*
X119200000Y-68162894D01*
X121510499Y-55958571D02*
X121510499Y-65852395D01*
X121599070Y-55870000D02*
X121510499Y-55958571D01*
X136539418Y-101308838D02*
X138579418Y-103348838D01*
X138579418Y-103348838D02*
X143569418Y-103348838D01*
%TO.N,/16*%
X138579418Y-100808838D02*
X143569418Y-100808838D01*
%TO.N,/17*%
X138579418Y-98268838D02*
X143569418Y-98268838D01*
%TO.N,D+*%
X134680580Y-81670000D02*
X138579418Y-85568838D01*
X138579418Y-85568838D02*
X143569418Y-85568838D01*
X133370000Y-81670000D02*
X134680580Y-81670000D01*
X120950000Y-81670000D02*
X126409500Y-81670000D01*
%TO.N,/RX*%
X138579418Y-83028838D02*
X143569418Y-83028838D01*
%TO.N,/TX*%
X138579418Y-80488838D02*
X143569418Y-80488838D01*
%TO.N,D-*%
X138579418Y-77948838D02*
X143569418Y-77948838D01*
X127380000Y-81760161D02*
X127380000Y-80880000D01*
X120940000Y-84230000D02*
X124910161Y-84230000D01*
X124910161Y-84230000D02*
X127380000Y-81760161D01*
X133375500Y-77948838D02*
X138579418Y-77948838D01*
%TO.N,/23*%
X137540000Y-40080000D02*
X138900000Y-41440000D01*
X138579418Y-75408838D02*
X143569418Y-75408838D01*
X137828838Y-75408838D02*
X138579418Y-75408838D01*
X135770000Y-73350000D02*
X137828838Y-75408838D01*
X137540000Y-36790000D02*
X137540000Y-40080000D01*
X135770000Y-65052831D02*
X138900000Y-61922831D01*
X135770000Y-65052831D02*
X135770000Y-73350000D01*
X138900000Y-41440000D02*
X138900000Y-61922831D01*
%TO.N,/11*%
X108179418Y-116048838D02*
X113179418Y-116048838D01*
D37*
%TO.N,/OUT2A*%
X72900000Y-106170000D02*
X76240000Y-102830000D01*
X72900000Y-112859497D02*
X72900000Y-106170000D01*
%TO.N,/OUT3A*%
X79600000Y-104550000D02*
X76240000Y-107910000D01*
X79600000Y-97859497D02*
X79600000Y-104550000D01*
%TO.N,/OUT4A*%
X77802418Y-111427582D02*
X86740000Y-111427582D01*
X76240000Y-112990000D02*
X77802418Y-111427582D01*
D35*
%TO.N,/ESP_3V3*%
X108179418Y-72868838D02*
X113179418Y-72868838D01*
%TD*%
%TA.AperFunction,Conductor*%
%TO.N,GND*%
G36*
X148501898Y-29450614D02*
G01*
X148599063Y-29456492D01*
X148806353Y-29470079D01*
X148813543Y-29470971D01*
X148949218Y-29495834D01*
X149115601Y-29528930D01*
X149122023Y-29530564D01*
X149260458Y-29573702D01*
X149261862Y-29574159D01*
X149414981Y-29626136D01*
X149420587Y-29628343D01*
X149500596Y-29664352D01*
X149555498Y-29689061D01*
X149557465Y-29689988D01*
X149644010Y-29732667D01*
X149699803Y-29760182D01*
X149704533Y-29762772D01*
X149832369Y-29840051D01*
X149834778Y-29841583D01*
X149965549Y-29928962D01*
X149969402Y-29931752D01*
X150087537Y-30024304D01*
X150090223Y-30026531D01*
X150208060Y-30129872D01*
X150211054Y-30132676D01*
X150317321Y-30238943D01*
X150320126Y-30241938D01*
X150423467Y-30359775D01*
X150425694Y-30362461D01*
X150518246Y-30480596D01*
X150521036Y-30484449D01*
X150608415Y-30615220D01*
X150609947Y-30617629D01*
X150687226Y-30745465D01*
X150689816Y-30750195D01*
X150759996Y-30892504D01*
X150760943Y-30894513D01*
X150821655Y-31029411D01*
X150823863Y-31035020D01*
X150875816Y-31188066D01*
X150876307Y-31189574D01*
X150919430Y-31327959D01*
X150921073Y-31334416D01*
X150954168Y-31500797D01*
X150979024Y-31636432D01*
X150979922Y-31643673D01*
X150993514Y-31851052D01*
X150999385Y-31948098D01*
X150999500Y-31951903D01*
X150999500Y-32499742D01*
X150940600Y-56227986D01*
X150910604Y-68312503D01*
X150910500Y-68354248D01*
X150890329Y-68422319D01*
X150836558Y-68468678D01*
X150766259Y-68478608D01*
X150701751Y-68448954D01*
X150663516Y-68389133D01*
X150658500Y-68353935D01*
X150658500Y-55838905D01*
X150649362Y-55798869D01*
X150649117Y-55797797D01*
X150647935Y-55790833D01*
X150643217Y-55748956D01*
X150643217Y-55748954D01*
X150629294Y-55709165D01*
X150627338Y-55702377D01*
X150617959Y-55661279D01*
X150599666Y-55623296D01*
X150596968Y-55616782D01*
X150583043Y-55576985D01*
X150560615Y-55541292D01*
X150557195Y-55535104D01*
X150546216Y-55512306D01*
X150538908Y-55497130D01*
X150512624Y-55464171D01*
X150508547Y-55458427D01*
X150486111Y-55422719D01*
X150486108Y-55422716D01*
X150486107Y-55422714D01*
X150354922Y-55291529D01*
X150354899Y-55291508D01*
X148757313Y-53693921D01*
X148757309Y-53693915D01*
X148707281Y-53643889D01*
X148671591Y-53621463D01*
X148665825Y-53617372D01*
X148632871Y-53591092D01*
X148632867Y-53591089D01*
X148594890Y-53572800D01*
X148588702Y-53569380D01*
X148553015Y-53546957D01*
X148548988Y-53545548D01*
X148513226Y-53533034D01*
X148506698Y-53530330D01*
X148468724Y-53512042D01*
X148468717Y-53512040D01*
X148427620Y-53502659D01*
X148420830Y-53500702D01*
X148381052Y-53486784D01*
X148381046Y-53486782D01*
X148339156Y-53482062D01*
X148332187Y-53480878D01*
X148291099Y-53471500D01*
X148291097Y-53471500D01*
X148245406Y-53471500D01*
X146623625Y-53471500D01*
X146555504Y-53451498D01*
X146534530Y-53434595D01*
X145429949Y-52330013D01*
X145395923Y-52267701D01*
X145393044Y-52240918D01*
X145393044Y-51355367D01*
X145393043Y-51355350D01*
X145386534Y-51294803D01*
X145386532Y-51294795D01*
X145335433Y-51157797D01*
X145335431Y-51157792D01*
X145247805Y-51040738D01*
X145130751Y-50953112D01*
X145130748Y-50953111D01*
X145013010Y-50909196D01*
X144956175Y-50866649D01*
X144931365Y-50800129D01*
X144931044Y-50791141D01*
X144931044Y-50731818D01*
X144951046Y-50663697D01*
X144967944Y-50642727D01*
X145273546Y-50337126D01*
X145326358Y-50269140D01*
X145326357Y-50269140D01*
X145326359Y-50269139D01*
X145347028Y-50219236D01*
X145382315Y-50134048D01*
X145393044Y-50048630D01*
X145393045Y-49203375D01*
X145382315Y-49117951D01*
X145326358Y-48982860D01*
X145273541Y-48914869D01*
X144967948Y-48609275D01*
X144933923Y-48546963D01*
X144931044Y-48520180D01*
X144931044Y-48191818D01*
X144951046Y-48123697D01*
X144967944Y-48102727D01*
X145273546Y-47797126D01*
X145326358Y-47729140D01*
X145326357Y-47729140D01*
X145326359Y-47729139D01*
X145347028Y-47679236D01*
X145382315Y-47594048D01*
X145393044Y-47508630D01*
X145393045Y-46663375D01*
X145382315Y-46577951D01*
X145326358Y-46442860D01*
X145273541Y-46374869D01*
X144967948Y-46069275D01*
X144933923Y-46006963D01*
X144931044Y-45980180D01*
X144931044Y-45651818D01*
X144951046Y-45583697D01*
X144967944Y-45562727D01*
X145273546Y-45257126D01*
X145326358Y-45189140D01*
X145326357Y-45189140D01*
X145326359Y-45189139D01*
X145347028Y-45139236D01*
X145382315Y-45054048D01*
X145393044Y-44968630D01*
X145393045Y-44123375D01*
X145382315Y-44037951D01*
X145326358Y-43902860D01*
X145273541Y-43834869D01*
X144967948Y-43529275D01*
X144933923Y-43466963D01*
X144931044Y-43440180D01*
X144931044Y-43111818D01*
X144951046Y-43043697D01*
X144967944Y-43022727D01*
X145273546Y-42717126D01*
X145326358Y-42649140D01*
X145326357Y-42649140D01*
X145326359Y-42649139D01*
X145347028Y-42599236D01*
X145382315Y-42514048D01*
X145393044Y-42428630D01*
X145393045Y-41583375D01*
X145382315Y-41497951D01*
X145326358Y-41362860D01*
X145273541Y-41294869D01*
X144833670Y-40854998D01*
X144823378Y-40847003D01*
X144765683Y-40802184D01*
X144630592Y-40746229D01*
X144545174Y-40735500D01*
X144545170Y-40735499D01*
X144545166Y-40735499D01*
X144291081Y-40735499D01*
X144222960Y-40715497D01*
X144201986Y-40698594D01*
X140934341Y-37430948D01*
X140900315Y-37368636D01*
X140905380Y-37297820D01*
X140946042Y-37242424D01*
X141003240Y-37197906D01*
X141155722Y-37032268D01*
X141244518Y-36896354D01*
X141298520Y-36850268D01*
X141368868Y-36840692D01*
X141433225Y-36870669D01*
X141455480Y-36896353D01*
X141462842Y-36907620D01*
X141544275Y-37032265D01*
X141544279Y-37032270D01*
X141696762Y-37197908D01*
X141746814Y-37236865D01*
X141874424Y-37336189D01*
X142072426Y-37443342D01*
X142072427Y-37443342D01*
X142072428Y-37443343D01*
X142184227Y-37481723D01*
X142285365Y-37516444D01*
X142507431Y-37553500D01*
X142507435Y-37553500D01*
X142732565Y-37553500D01*
X142732569Y-37553500D01*
X142954635Y-37516444D01*
X143167574Y-37443342D01*
X143365576Y-37336189D01*
X143543240Y-37197906D01*
X143695722Y-37032268D01*
X143818860Y-36843791D01*
X143909296Y-36637616D01*
X143964564Y-36419368D01*
X143983156Y-36195000D01*
X143964564Y-35970632D01*
X143909296Y-35752384D01*
X143818860Y-35546209D01*
X143801500Y-35519637D01*
X143695724Y-35357734D01*
X143695720Y-35357729D01*
X143543237Y-35192091D01*
X143423372Y-35098796D01*
X143365576Y-35053811D01*
X143167574Y-34946658D01*
X143167572Y-34946657D01*
X143167571Y-34946656D01*
X142954639Y-34873557D01*
X142954630Y-34873555D01*
X142902990Y-34864938D01*
X142732569Y-34836500D01*
X142507431Y-34836500D01*
X142359211Y-34861233D01*
X142285369Y-34873555D01*
X142285360Y-34873557D01*
X142072428Y-34946656D01*
X142072426Y-34946658D01*
X141874432Y-35053807D01*
X141874426Y-35053810D01*
X141874424Y-35053811D01*
X141696762Y-35192091D01*
X141544279Y-35357729D01*
X141455483Y-35493643D01*
X141401479Y-35539731D01*
X141331131Y-35549306D01*
X141266774Y-35519329D01*
X141244517Y-35493643D01*
X141155720Y-35357729D01*
X141003237Y-35192091D01*
X140883372Y-35098796D01*
X140825576Y-35053811D01*
X140825570Y-35053808D01*
X140825569Y-35053807D01*
X140775545Y-35026735D01*
X140728827Y-34982957D01*
X140716111Y-34962719D01*
X140605003Y-34851611D01*
X140605001Y-34851608D01*
X138719589Y-32966197D01*
X138719588Y-32966196D01*
X138687281Y-32933889D01*
X138659737Y-32916582D01*
X138651591Y-32911463D01*
X138645825Y-32907372D01*
X138612871Y-32881092D01*
X138612867Y-32881089D01*
X138574890Y-32862800D01*
X138568702Y-32859380D01*
X138533015Y-32836957D01*
X138533014Y-32836956D01*
X138493226Y-32823034D01*
X138486698Y-32820330D01*
X138448724Y-32802042D01*
X138448717Y-32802040D01*
X138407620Y-32792659D01*
X138400830Y-32790702D01*
X138361052Y-32776784D01*
X138361046Y-32776782D01*
X138319156Y-32772062D01*
X138312187Y-32770878D01*
X138271099Y-32761500D01*
X138271097Y-32761500D01*
X138225406Y-32761500D01*
X111521097Y-32761500D01*
X111338903Y-32761500D01*
X111338901Y-32761500D01*
X111297811Y-32770878D01*
X111290842Y-32772063D01*
X111248953Y-32776782D01*
X111209165Y-32790704D01*
X111202375Y-32792660D01*
X111161283Y-32802039D01*
X111161282Y-32802040D01*
X111123298Y-32820331D01*
X111116769Y-32823035D01*
X111076983Y-32836957D01*
X111041292Y-32859383D01*
X111035105Y-32862802D01*
X110997129Y-32881090D01*
X110964169Y-32907376D01*
X110958404Y-32911466D01*
X110922718Y-32933889D01*
X110830896Y-33025708D01*
X110830879Y-33025728D01*
X109059996Y-34796610D01*
X109059994Y-34796613D01*
X108948892Y-34907714D01*
X108948889Y-34907717D01*
X108926466Y-34943404D01*
X108922376Y-34949169D01*
X108896090Y-34982130D01*
X108886963Y-35001083D01*
X108843512Y-35050581D01*
X108843536Y-35050611D01*
X108843380Y-35050732D01*
X108842364Y-35051890D01*
X108839427Y-35053808D01*
X108661762Y-35192091D01*
X108509279Y-35357729D01*
X108509275Y-35357734D01*
X108386141Y-35546206D01*
X108295703Y-35752386D01*
X108295702Y-35752387D01*
X108240437Y-35970624D01*
X108221844Y-36195000D01*
X108240437Y-36419375D01*
X108295702Y-36637612D01*
X108295703Y-36637613D01*
X108355120Y-36773072D01*
X108364166Y-36843490D01*
X108333705Y-36907620D01*
X108328827Y-36912780D01*
X104304996Y-40936610D01*
X104304994Y-40936613D01*
X104193892Y-41047714D01*
X104193889Y-41047717D01*
X104171466Y-41083404D01*
X104167376Y-41089169D01*
X104141090Y-41122129D01*
X104122802Y-41160105D01*
X104119383Y-41166292D01*
X104096957Y-41201983D01*
X104083035Y-41241769D01*
X104080331Y-41248298D01*
X104062040Y-41286282D01*
X104062039Y-41286283D01*
X104052660Y-41327375D01*
X104050704Y-41334165D01*
X104036782Y-41373953D01*
X104032063Y-41415842D01*
X104030878Y-41422811D01*
X104021500Y-41463901D01*
X104021500Y-48174000D01*
X104001498Y-48242121D01*
X103947842Y-48288614D01*
X103895500Y-48300000D01*
X90900000Y-48300000D01*
X90900000Y-62200000D01*
X102852417Y-62200000D01*
X102920538Y-62220002D01*
X102967031Y-62273658D01*
X102977135Y-62343932D01*
X102947641Y-62408512D01*
X102941515Y-62415092D01*
X102525491Y-62831116D01*
X102223186Y-63133421D01*
X102153892Y-63202714D01*
X102153889Y-63202717D01*
X102131466Y-63238404D01*
X102127376Y-63244169D01*
X102101090Y-63277129D01*
X102082802Y-63315105D01*
X102079383Y-63321292D01*
X102056957Y-63356983D01*
X102043035Y-63396769D01*
X102040331Y-63403298D01*
X102022040Y-63441282D01*
X102022039Y-63441283D01*
X102012660Y-63482375D01*
X102010704Y-63489165D01*
X101996782Y-63528953D01*
X101992063Y-63570842D01*
X101990878Y-63577811D01*
X101981500Y-63618901D01*
X101981500Y-64702917D01*
X101961498Y-64771038D01*
X101944595Y-64792012D01*
X100858085Y-65878521D01*
X100820239Y-65904533D01*
X100653247Y-65978882D01*
X100498744Y-66091135D01*
X100370965Y-66233048D01*
X100370958Y-66233058D01*
X100275476Y-66398438D01*
X100275473Y-66398445D01*
X100216457Y-66580072D01*
X100196496Y-66770000D01*
X100216457Y-66959927D01*
X100271193Y-67128384D01*
X100275473Y-67141556D01*
X100283809Y-67155994D01*
X100284619Y-67157397D01*
X100301500Y-67220397D01*
X100301500Y-69139602D01*
X100284620Y-69202601D01*
X100275474Y-69218441D01*
X100275473Y-69218445D01*
X100216457Y-69400072D01*
X100196496Y-69590000D01*
X100216457Y-69779927D01*
X100246526Y-69872470D01*
X100275473Y-69961556D01*
X100275476Y-69961561D01*
X100370958Y-70126941D01*
X100370965Y-70126951D01*
X100478509Y-70246390D01*
X100509226Y-70310397D01*
X100500462Y-70380851D01*
X100473969Y-70419795D01*
X100059171Y-70834595D01*
X99996859Y-70868620D01*
X99970075Y-70871500D01*
X97450446Y-70871500D01*
X97302305Y-70886090D01*
X97112195Y-70943759D01*
X96936995Y-71037405D01*
X96783432Y-71163432D01*
X96657405Y-71316995D01*
X96563759Y-71492195D01*
X96506090Y-71682305D01*
X96486620Y-71879996D01*
X96486620Y-71880003D01*
X96506090Y-72077694D01*
X96506091Y-72077700D01*
X96506092Y-72077701D01*
X96563759Y-72267804D01*
X96657405Y-72443004D01*
X96783432Y-72596568D01*
X96936996Y-72722595D01*
X97112196Y-72816241D01*
X97302299Y-72873908D01*
X97302303Y-72873908D01*
X97302305Y-72873909D01*
X97386513Y-72882202D01*
X97450453Y-72888500D01*
X99398132Y-72888500D01*
X99466253Y-72908502D01*
X99512746Y-72962158D01*
X99522850Y-73032432D01*
X99493356Y-73097012D01*
X99487241Y-73103579D01*
X98063529Y-74527292D01*
X97694115Y-74896706D01*
X97689532Y-74900860D01*
X97653432Y-74930486D01*
X97527405Y-75084051D01*
X97461572Y-75207217D01*
X97433760Y-75259248D01*
X97433754Y-75259263D01*
X97376091Y-75449351D01*
X97376089Y-75449363D01*
X97356620Y-75647051D01*
X97356620Y-75647058D01*
X97361196Y-75693520D01*
X97361500Y-75699699D01*
X97361500Y-78309553D01*
X97376090Y-78457694D01*
X97376091Y-78457700D01*
X97376092Y-78457701D01*
X97433759Y-78647804D01*
X97527405Y-78823004D01*
X97653432Y-78976568D01*
X97806996Y-79102595D01*
X97982196Y-79196241D01*
X98172299Y-79253908D01*
X98172303Y-79253908D01*
X98172305Y-79253909D01*
X98369997Y-79273380D01*
X98370000Y-79273380D01*
X98370003Y-79273380D01*
X98567694Y-79253909D01*
X98567695Y-79253908D01*
X98567701Y-79253908D01*
X98757804Y-79196241D01*
X98933004Y-79102595D01*
X99086568Y-78976568D01*
X99212595Y-78823004D01*
X99306241Y-78647804D01*
X99363908Y-78457701D01*
X99364648Y-78450194D01*
X99378499Y-78309553D01*
X99378500Y-78309547D01*
X99378500Y-76116979D01*
X99398502Y-76048858D01*
X99415400Y-76027889D01*
X102991046Y-72452242D01*
X103053359Y-72418217D01*
X103080142Y-72415338D01*
X106059754Y-72415338D01*
X106127875Y-72435340D01*
X106174368Y-72488996D01*
X106184472Y-72559270D01*
X106182595Y-72569375D01*
X106153328Y-72697602D01*
X106153328Y-72697605D01*
X106145410Y-72873909D01*
X106143067Y-72926069D01*
X106173766Y-73152693D01*
X106173767Y-73152697D01*
X106244435Y-73370193D01*
X106352803Y-73571575D01*
X106352807Y-73571582D01*
X106495397Y-73750383D01*
X106667617Y-73900847D01*
X106863933Y-74018141D01*
X106863936Y-74018142D01*
X106863941Y-74018145D01*
X106876301Y-74022783D01*
X106933049Y-74065445D01*
X106957725Y-74132016D01*
X106942493Y-74201359D01*
X106892189Y-74251459D01*
X106886698Y-74254271D01*
X106763148Y-74313769D01*
X106763145Y-74313771D01*
X106578127Y-74448194D01*
X106578126Y-74448195D01*
X106420087Y-74613490D01*
X106294102Y-74804350D01*
X106294098Y-74804358D01*
X106204217Y-75014644D01*
X106204216Y-75014646D01*
X106153328Y-75237603D01*
X106153328Y-75237605D01*
X106143818Y-75449355D01*
X106143067Y-75466069D01*
X106170420Y-75667990D01*
X106173767Y-75692697D01*
X106244435Y-75910193D01*
X106352803Y-76111575D01*
X106352807Y-76111582D01*
X106495397Y-76290383D01*
X106667617Y-76440847D01*
X106863933Y-76558141D01*
X106863936Y-76558142D01*
X106863941Y-76558145D01*
X106876301Y-76562783D01*
X106933049Y-76605445D01*
X106957725Y-76672016D01*
X106942493Y-76741359D01*
X106892189Y-76791459D01*
X106886698Y-76794271D01*
X106763148Y-76853769D01*
X106763145Y-76853771D01*
X106578127Y-76988194D01*
X106578126Y-76988195D01*
X106420087Y-77153490D01*
X106294102Y-77344350D01*
X106294098Y-77344358D01*
X106204217Y-77554644D01*
X106204216Y-77554646D01*
X106153328Y-77777603D01*
X106153328Y-77777605D01*
X106144665Y-77970500D01*
X106143067Y-78006069D01*
X106161878Y-78144931D01*
X106173767Y-78232697D01*
X106244435Y-78450193D01*
X106352803Y-78651575D01*
X106352807Y-78651582D01*
X106495397Y-78830383D01*
X106667617Y-78980847D01*
X106863933Y-79098141D01*
X106863936Y-79098142D01*
X106863941Y-79098145D01*
X106876301Y-79102783D01*
X106933049Y-79145445D01*
X106957725Y-79212016D01*
X106942493Y-79281359D01*
X106892189Y-79331459D01*
X106886698Y-79334271D01*
X106763148Y-79393769D01*
X106763145Y-79393771D01*
X106578127Y-79528194D01*
X106578126Y-79528195D01*
X106420087Y-79693490D01*
X106294102Y-79884350D01*
X106294098Y-79884358D01*
X106204217Y-80094644D01*
X106204216Y-80094646D01*
X106153328Y-80317603D01*
X106153328Y-80317605D01*
X106144665Y-80510500D01*
X106143067Y-80546069D01*
X106167114Y-80723586D01*
X106173767Y-80772697D01*
X106244435Y-80990193D01*
X106352803Y-81191575D01*
X106352807Y-81191582D01*
X106495397Y-81370383D01*
X106667617Y-81520847D01*
X106863933Y-81638141D01*
X106863936Y-81638142D01*
X106863941Y-81638145D01*
X106876301Y-81642783D01*
X106933049Y-81685445D01*
X106957725Y-81752016D01*
X106942493Y-81821359D01*
X106892189Y-81871459D01*
X106886698Y-81874271D01*
X106763148Y-81933769D01*
X106763145Y-81933771D01*
X106578127Y-82068194D01*
X106578126Y-82068195D01*
X106420087Y-82233490D01*
X106294102Y-82424350D01*
X106294098Y-82424358D01*
X106204217Y-82634644D01*
X106204216Y-82634646D01*
X106153328Y-82857603D01*
X106153328Y-82857605D01*
X106144665Y-83050500D01*
X106143067Y-83086069D01*
X106173766Y-83312693D01*
X106173767Y-83312697D01*
X106244435Y-83530193D01*
X106352803Y-83731575D01*
X106352807Y-83731582D01*
X106495397Y-83910383D01*
X106667617Y-84060847D01*
X106863933Y-84178141D01*
X106863936Y-84178142D01*
X106863941Y-84178145D01*
X106876301Y-84182783D01*
X106933049Y-84225445D01*
X106957725Y-84292016D01*
X106942493Y-84361359D01*
X106892189Y-84411459D01*
X106886698Y-84414271D01*
X106763148Y-84473769D01*
X106763145Y-84473771D01*
X106578127Y-84608194D01*
X106578126Y-84608195D01*
X106420087Y-84773490D01*
X106294102Y-84964350D01*
X106294098Y-84964358D01*
X106204217Y-85174644D01*
X106204216Y-85174646D01*
X106195098Y-85214596D01*
X106153328Y-85397605D01*
X106143067Y-85626069D01*
X106167114Y-85803586D01*
X106173767Y-85852697D01*
X106244435Y-86070193D01*
X106352803Y-86271575D01*
X106352807Y-86271582D01*
X106495397Y-86450383D01*
X106667617Y-86600847D01*
X106863933Y-86718141D01*
X106863936Y-86718142D01*
X106863941Y-86718145D01*
X106876301Y-86722783D01*
X106933049Y-86765445D01*
X106957725Y-86832016D01*
X106942493Y-86901359D01*
X106892189Y-86951459D01*
X106886698Y-86954271D01*
X106763148Y-87013769D01*
X106763145Y-87013771D01*
X106578127Y-87148194D01*
X106578126Y-87148195D01*
X106420087Y-87313490D01*
X106294102Y-87504350D01*
X106294098Y-87504358D01*
X106204217Y-87714644D01*
X106204216Y-87714646D01*
X106153328Y-87937603D01*
X106153328Y-87937605D01*
X106147322Y-88071339D01*
X106143067Y-88166069D01*
X106173766Y-88392693D01*
X106173767Y-88392697D01*
X106244435Y-88610193D01*
X106352803Y-88811575D01*
X106352807Y-88811582D01*
X106495397Y-88990383D01*
X106667617Y-89140847D01*
X106863933Y-89258141D01*
X106863936Y-89258142D01*
X106863941Y-89258145D01*
X106876301Y-89262783D01*
X106933049Y-89305445D01*
X106957725Y-89372016D01*
X106942493Y-89441359D01*
X106892189Y-89491459D01*
X106886698Y-89494271D01*
X106763148Y-89553769D01*
X106763145Y-89553771D01*
X106578132Y-89688190D01*
X106578127Y-89688194D01*
X106522233Y-89746655D01*
X106460700Y-89782069D01*
X106389788Y-89778594D01*
X106342067Y-89748675D01*
X98430623Y-81837231D01*
X101583649Y-81837231D01*
X101614348Y-82063855D01*
X101614349Y-82063859D01*
X101685017Y-82281355D01*
X101793385Y-82482737D01*
X101793389Y-82482744D01*
X101935979Y-82661545D01*
X102108199Y-82812009D01*
X102304515Y-82929303D01*
X102304520Y-82929305D01*
X102304523Y-82929307D01*
X102304527Y-82929308D01*
X102304526Y-82929308D01*
X102518633Y-83009665D01*
X102743650Y-83050500D01*
X102743653Y-83050500D01*
X104439048Y-83050500D01*
X104439054Y-83050500D01*
X104609773Y-83035135D01*
X104830226Y-82974294D01*
X105036272Y-82875067D01*
X105221290Y-82740644D01*
X105379332Y-82575345D01*
X105505318Y-82384483D01*
X105595201Y-82174193D01*
X105646090Y-81951233D01*
X105656351Y-81722769D01*
X105625652Y-81496145D01*
X105554982Y-81278644D01*
X105508132Y-81191582D01*
X105446614Y-81077262D01*
X105446610Y-81077255D01*
X105304020Y-80898454D01*
X105131800Y-80747990D01*
X104935484Y-80630696D01*
X104935479Y-80630694D01*
X104935478Y-80630693D01*
X104935477Y-80630693D01*
X104923112Y-80626052D01*
X104866365Y-80583389D01*
X104841692Y-80516817D01*
X104856926Y-80447475D01*
X104907232Y-80397376D01*
X104912693Y-80394579D01*
X105036272Y-80335067D01*
X105221290Y-80200644D01*
X105379332Y-80035345D01*
X105505318Y-79844483D01*
X105595201Y-79634193D01*
X105646090Y-79411233D01*
X105656351Y-79182769D01*
X105625652Y-78956145D01*
X105554982Y-78738644D01*
X105508132Y-78651582D01*
X105446614Y-78537262D01*
X105446610Y-78537255D01*
X105331181Y-78392512D01*
X105304022Y-78358456D01*
X105286367Y-78343031D01*
X105131800Y-78207990D01*
X104935484Y-78090696D01*
X104935479Y-78090694D01*
X104935478Y-78090693D01*
X104935477Y-78090693D01*
X104923112Y-78086052D01*
X104866365Y-78043389D01*
X104841692Y-77976817D01*
X104856926Y-77907475D01*
X104907232Y-77857376D01*
X104912693Y-77854579D01*
X105036272Y-77795067D01*
X105221290Y-77660644D01*
X105379332Y-77495345D01*
X105505318Y-77304483D01*
X105595201Y-77094193D01*
X105646090Y-76871233D01*
X105656351Y-76642769D01*
X105625652Y-76416145D01*
X105554982Y-76198644D01*
X105508132Y-76111582D01*
X105446614Y-75997262D01*
X105446610Y-75997255D01*
X105346072Y-75871185D01*
X105304022Y-75818456D01*
X105286367Y-75803031D01*
X105131800Y-75667990D01*
X104935484Y-75550696D01*
X104935473Y-75550691D01*
X104721366Y-75470334D01*
X104496350Y-75429500D01*
X104496347Y-75429500D01*
X102800946Y-75429500D01*
X102767054Y-75432550D01*
X102630226Y-75444864D01*
X102630224Y-75444865D01*
X102409782Y-75505703D01*
X102409768Y-75505708D01*
X102203734Y-75604929D01*
X102203727Y-75604933D01*
X102018709Y-75739356D01*
X102018708Y-75739357D01*
X101860669Y-75904652D01*
X101734684Y-76095512D01*
X101734680Y-76095520D01*
X101644799Y-76305806D01*
X101644798Y-76305808D01*
X101593910Y-76528765D01*
X101593910Y-76528767D01*
X101583770Y-76754544D01*
X101583649Y-76757231D01*
X101614348Y-76983855D01*
X101614349Y-76983859D01*
X101685017Y-77201355D01*
X101793385Y-77402737D01*
X101793389Y-77402744D01*
X101935979Y-77581545D01*
X102108199Y-77732009D01*
X102304515Y-77849303D01*
X102304518Y-77849304D01*
X102304523Y-77849307D01*
X102316883Y-77853945D01*
X102373631Y-77896607D01*
X102398307Y-77963178D01*
X102383075Y-78032521D01*
X102332771Y-78082621D01*
X102327280Y-78085433D01*
X102203730Y-78144931D01*
X102203727Y-78144933D01*
X102018709Y-78279356D01*
X102018708Y-78279357D01*
X101860669Y-78444652D01*
X101734684Y-78635512D01*
X101734680Y-78635520D01*
X101644799Y-78845806D01*
X101644798Y-78845808D01*
X101593910Y-79068765D01*
X101593910Y-79068767D01*
X101583770Y-79294544D01*
X101583649Y-79297231D01*
X101614348Y-79523855D01*
X101614349Y-79523859D01*
X101685017Y-79741355D01*
X101793385Y-79942737D01*
X101793389Y-79942744D01*
X101935979Y-80121545D01*
X102108199Y-80272009D01*
X102304515Y-80389303D01*
X102304518Y-80389304D01*
X102304523Y-80389307D01*
X102316883Y-80393945D01*
X102373631Y-80436607D01*
X102398307Y-80503178D01*
X102383075Y-80572521D01*
X102332771Y-80622621D01*
X102327280Y-80625433D01*
X102203730Y-80684931D01*
X102203727Y-80684933D01*
X102018709Y-80819356D01*
X102018708Y-80819357D01*
X101860669Y-80984652D01*
X101734684Y-81175512D01*
X101734680Y-81175520D01*
X101644799Y-81385806D01*
X101644798Y-81385808D01*
X101593910Y-81608765D01*
X101593910Y-81608767D01*
X101583770Y-81834544D01*
X101583649Y-81837231D01*
X98430623Y-81837231D01*
X87436090Y-70842698D01*
X87405352Y-70792539D01*
X87384527Y-70728444D01*
X87289040Y-70563056D01*
X87289038Y-70563054D01*
X87289034Y-70563048D01*
X87161255Y-70421135D01*
X87006752Y-70308882D01*
X86832288Y-70231206D01*
X86645487Y-70191500D01*
X86454513Y-70191500D01*
X86267711Y-70231206D01*
X86093247Y-70308882D01*
X85938744Y-70421135D01*
X85810965Y-70563048D01*
X85810958Y-70563058D01*
X85715476Y-70728438D01*
X85715473Y-70728445D01*
X85656457Y-70910072D01*
X85636496Y-71100000D01*
X85656457Y-71289927D01*
X85665253Y-71316996D01*
X85715473Y-71471556D01*
X85715476Y-71471561D01*
X85810958Y-71636941D01*
X85810965Y-71636951D01*
X85938744Y-71778864D01*
X85938747Y-71778866D01*
X86093248Y-71891118D01*
X86260242Y-71965468D01*
X86298086Y-71991478D01*
X105462727Y-91156119D01*
X105591557Y-91284949D01*
X105627248Y-91307375D01*
X105633010Y-91311464D01*
X105665966Y-91337745D01*
X105665969Y-91337747D01*
X105694696Y-91351581D01*
X105703941Y-91356033D01*
X105710120Y-91359447D01*
X105745823Y-91381881D01*
X105785620Y-91395806D01*
X105792122Y-91398499D01*
X105830118Y-91416797D01*
X105871217Y-91426177D01*
X105878000Y-91428131D01*
X105917791Y-91442055D01*
X105959672Y-91446773D01*
X105966640Y-91447956D01*
X106007742Y-91457338D01*
X106053432Y-91457338D01*
X106376467Y-91457338D01*
X106444588Y-91477340D01*
X106474977Y-91504777D01*
X106495397Y-91530383D01*
X106667617Y-91680847D01*
X106863933Y-91798141D01*
X106863936Y-91798142D01*
X106863941Y-91798145D01*
X106876301Y-91802783D01*
X106933049Y-91845445D01*
X106957725Y-91912016D01*
X106942493Y-91981359D01*
X106892189Y-92031459D01*
X106886698Y-92034271D01*
X106763148Y-92093769D01*
X106763145Y-92093771D01*
X106578127Y-92228194D01*
X106578126Y-92228195D01*
X106420087Y-92393490D01*
X106294102Y-92584350D01*
X106294098Y-92584358D01*
X106204217Y-92794644D01*
X106204216Y-92794646D01*
X106153328Y-93017603D01*
X106153328Y-93017605D01*
X106143067Y-93246069D01*
X106167114Y-93423586D01*
X106173767Y-93472697D01*
X106244435Y-93690193D01*
X106352803Y-93891575D01*
X106352807Y-93891582D01*
X106495397Y-94070383D01*
X106667617Y-94220847D01*
X106863933Y-94338141D01*
X106863936Y-94338142D01*
X106863941Y-94338145D01*
X106876301Y-94342783D01*
X106933049Y-94385445D01*
X106957725Y-94452016D01*
X106942493Y-94521359D01*
X106892189Y-94571459D01*
X106886698Y-94574271D01*
X106763148Y-94633769D01*
X106763145Y-94633771D01*
X106578127Y-94768194D01*
X106578126Y-94768195D01*
X106420087Y-94933490D01*
X106294102Y-95124350D01*
X106294098Y-95124358D01*
X106204217Y-95334644D01*
X106204216Y-95334646D01*
X106179034Y-95444978D01*
X106153328Y-95557605D01*
X106143067Y-95786069D01*
X106167114Y-95963586D01*
X106173767Y-96012697D01*
X106244435Y-96230193D01*
X106352803Y-96431575D01*
X106352807Y-96431582D01*
X106495397Y-96610383D01*
X106667617Y-96760847D01*
X106863933Y-96878141D01*
X106863936Y-96878142D01*
X106863941Y-96878145D01*
X106876301Y-96882783D01*
X106933049Y-96925445D01*
X106957725Y-96992016D01*
X106942493Y-97061359D01*
X106892189Y-97111459D01*
X106886698Y-97114271D01*
X106763148Y-97173769D01*
X106763145Y-97173771D01*
X106578127Y-97308194D01*
X106578126Y-97308195D01*
X106420087Y-97473490D01*
X106294102Y-97664350D01*
X106294098Y-97664358D01*
X106204217Y-97874644D01*
X106204216Y-97874646D01*
X106153328Y-98097603D01*
X106153328Y-98097605D01*
X106144546Y-98293146D01*
X106143067Y-98326069D01*
X106173680Y-98552058D01*
X106173767Y-98552697D01*
X106244435Y-98770193D01*
X106352803Y-98971575D01*
X106352807Y-98971582D01*
X106440299Y-99081293D01*
X106482301Y-99133962D01*
X106495397Y-99150383D01*
X106667617Y-99300847D01*
X106863933Y-99418141D01*
X106863936Y-99418142D01*
X106863941Y-99418145D01*
X106876301Y-99422783D01*
X106933049Y-99465445D01*
X106957725Y-99532016D01*
X106942493Y-99601359D01*
X106892189Y-99651459D01*
X106886698Y-99654271D01*
X106763148Y-99713769D01*
X106763145Y-99713771D01*
X106578127Y-99848194D01*
X106578126Y-99848195D01*
X106420087Y-100013490D01*
X106294102Y-100204350D01*
X106294098Y-100204358D01*
X106204217Y-100414644D01*
X106204216Y-100414646D01*
X106153328Y-100637603D01*
X106153328Y-100637605D01*
X106143535Y-100855657D01*
X106143067Y-100866069D01*
X106167114Y-101043586D01*
X106173767Y-101092697D01*
X106244435Y-101310193D01*
X106352803Y-101511575D01*
X106352807Y-101511582D01*
X106495397Y-101690383D01*
X106667617Y-101840847D01*
X106863933Y-101958141D01*
X106863936Y-101958142D01*
X106863941Y-101958145D01*
X106876301Y-101962783D01*
X106933049Y-102005445D01*
X106957725Y-102072016D01*
X106942493Y-102141359D01*
X106892189Y-102191459D01*
X106886698Y-102194271D01*
X106763148Y-102253769D01*
X106763145Y-102253771D01*
X106578127Y-102388194D01*
X106578126Y-102388195D01*
X106420087Y-102553490D01*
X106294102Y-102744350D01*
X106294098Y-102744358D01*
X106204217Y-102954644D01*
X106204216Y-102954646D01*
X106153328Y-103177603D01*
X106153328Y-103177605D01*
X106145645Y-103348678D01*
X106143067Y-103406069D01*
X106173680Y-103632058D01*
X106173767Y-103632697D01*
X106244435Y-103850193D01*
X106352803Y-104051575D01*
X106352807Y-104051582D01*
X106495397Y-104230383D01*
X106667617Y-104380847D01*
X106863933Y-104498141D01*
X106863938Y-104498143D01*
X106863941Y-104498145D01*
X106885441Y-104506214D01*
X107078051Y-104578503D01*
X107303068Y-104619338D01*
X107303071Y-104619338D01*
X108998466Y-104619338D01*
X108998472Y-104619338D01*
X109169191Y-104603973D01*
X109389644Y-104543132D01*
X109595690Y-104443905D01*
X109780708Y-104309482D01*
X109938750Y-104144183D01*
X109991727Y-104063924D01*
X110045947Y-104018093D01*
X110096883Y-104007338D01*
X111930896Y-104007338D01*
X111999017Y-104027340D01*
X112034109Y-104061068D01*
X112143840Y-104217782D01*
X112143849Y-104217792D01*
X112310463Y-104384406D01*
X112310473Y-104384415D01*
X112503492Y-104519567D01*
X112503491Y-104519567D01*
X112531473Y-104532615D01*
X112717060Y-104619156D01*
X112944673Y-104680144D01*
X113179418Y-104700682D01*
X113414163Y-104680144D01*
X113641776Y-104619156D01*
X113855340Y-104519569D01*
X113879313Y-104502783D01*
X114048362Y-104384415D01*
X114048364Y-104384412D01*
X114048367Y-104384411D01*
X114214991Y-104217787D01*
X114266529Y-104144183D01*
X114324727Y-104061068D01*
X114380184Y-104016739D01*
X114427940Y-104007338D01*
X115914551Y-104007338D01*
X115930782Y-104009129D01*
X115930806Y-104008880D01*
X115938698Y-104009626D01*
X115938698Y-104009625D01*
X115938699Y-104009626D01*
X115962437Y-104008880D01*
X116010520Y-104007369D01*
X116012499Y-104007338D01*
X116042587Y-104007338D01*
X116042594Y-104007338D01*
X116049941Y-104006409D01*
X116055844Y-104005944D01*
X116104993Y-104004400D01*
X116125583Y-103998417D01*
X116144938Y-103994409D01*
X116166226Y-103991720D01*
X116211958Y-103973613D01*
X116217542Y-103971701D01*
X116264762Y-103957983D01*
X116283212Y-103947070D01*
X116300975Y-103938368D01*
X116320918Y-103930473D01*
X116360699Y-103901568D01*
X116365649Y-103898318D01*
X116375337Y-103892588D01*
X116407969Y-103873291D01*
X116423139Y-103858119D01*
X116438167Y-103845285D01*
X116455519Y-103832679D01*
X116486864Y-103794788D01*
X116490832Y-103790426D01*
X120834386Y-99446872D01*
X120847129Y-99436665D01*
X120846969Y-99436471D01*
X120853075Y-99431418D01*
X120853080Y-99431416D01*
X120902314Y-99378985D01*
X120903598Y-99377660D01*
X120924927Y-99356333D01*
X120929470Y-99350475D01*
X120933308Y-99345980D01*
X120966972Y-99310133D01*
X120977310Y-99291327D01*
X120988152Y-99274823D01*
X121001304Y-99257868D01*
X121020832Y-99212737D01*
X121023441Y-99207414D01*
X121047124Y-99164337D01*
X121052457Y-99143562D01*
X121058856Y-99124869D01*
X121067380Y-99105176D01*
X121075074Y-99056590D01*
X121076266Y-99050830D01*
X121088500Y-99003188D01*
X121088499Y-98981739D01*
X121090050Y-98962030D01*
X121093406Y-98940848D01*
X121088780Y-98891903D01*
X121088500Y-98885971D01*
X121088500Y-97023950D01*
X121108502Y-96955829D01*
X121162158Y-96909336D01*
X121232432Y-96899232D01*
X121297012Y-96928726D01*
X121303595Y-96934855D01*
X126581963Y-102213223D01*
X126592176Y-102225969D01*
X126592369Y-102225810D01*
X126597421Y-102231917D01*
X126649816Y-102281119D01*
X126651205Y-102282465D01*
X126672505Y-102303765D01*
X126672513Y-102303771D01*
X126678355Y-102308303D01*
X126682871Y-102312160D01*
X126684048Y-102313265D01*
X126718705Y-102345810D01*
X126737507Y-102356146D01*
X126754013Y-102366989D01*
X126770970Y-102380142D01*
X126816092Y-102399667D01*
X126821418Y-102402277D01*
X126864497Y-102425961D01*
X126864501Y-102425962D01*
X126885270Y-102431294D01*
X126903972Y-102437697D01*
X126923662Y-102446218D01*
X126972233Y-102453910D01*
X126978027Y-102455109D01*
X127025650Y-102467338D01*
X127047097Y-102467338D01*
X127066805Y-102468888D01*
X127087990Y-102472244D01*
X127125718Y-102468677D01*
X127136932Y-102467618D01*
X127142865Y-102467338D01*
X131333888Y-102467338D01*
X131402009Y-102487340D01*
X131422983Y-102504243D01*
X137195681Y-108276941D01*
X137229707Y-108339253D01*
X137232107Y-108377015D01*
X137227588Y-108428675D01*
X137227574Y-108428838D01*
X137232581Y-108486064D01*
X137248112Y-108663586D01*
X137309099Y-108891194D01*
X137309101Y-108891198D01*
X137408688Y-109104763D01*
X137543840Y-109297782D01*
X137543849Y-109297792D01*
X137710463Y-109464406D01*
X137710466Y-109464408D01*
X137710469Y-109464411D01*
X137897863Y-109595625D01*
X137942191Y-109651080D01*
X137949500Y-109721700D01*
X137917470Y-109785060D01*
X137897863Y-109802050D01*
X137710468Y-109933264D01*
X137543849Y-110099883D01*
X137543840Y-110099893D01*
X137408688Y-110292912D01*
X137309101Y-110506477D01*
X137309099Y-110506481D01*
X137248112Y-110734089D01*
X137229372Y-110948282D01*
X137227574Y-110968838D01*
X137228902Y-110984014D01*
X137248112Y-111203586D01*
X137309099Y-111431194D01*
X137309101Y-111431198D01*
X137408688Y-111644763D01*
X137543840Y-111837782D01*
X137543849Y-111837792D01*
X137710463Y-112004406D01*
X137710473Y-112004415D01*
X137897862Y-112135625D01*
X137942191Y-112191082D01*
X137949500Y-112261701D01*
X137917470Y-112325062D01*
X137897862Y-112342051D01*
X137710473Y-112473260D01*
X137710463Y-112473269D01*
X137543849Y-112639883D01*
X137543840Y-112639893D01*
X137408688Y-112832912D01*
X137309101Y-113046477D01*
X137309099Y-113046481D01*
X137248112Y-113274089D01*
X137227574Y-113508837D01*
X137248112Y-113743586D01*
X137309099Y-113971194D01*
X137309101Y-113971198D01*
X137408688Y-114184763D01*
X137543840Y-114377782D01*
X137543849Y-114377792D01*
X137710463Y-114544406D01*
X137710473Y-114544415D01*
X137897862Y-114675625D01*
X137942191Y-114731082D01*
X137949500Y-114801701D01*
X137917470Y-114865062D01*
X137897862Y-114882051D01*
X137710473Y-115013260D01*
X137710463Y-115013269D01*
X137543849Y-115179883D01*
X137543840Y-115179893D01*
X137408688Y-115372912D01*
X137309101Y-115586477D01*
X137309099Y-115586481D01*
X137248112Y-115814089D01*
X137227574Y-116048838D01*
X137248112Y-116283586D01*
X137309099Y-116511194D01*
X137309101Y-116511198D01*
X137408688Y-116724763D01*
X137543840Y-116917782D01*
X137543849Y-116917792D01*
X137710463Y-117084406D01*
X137710473Y-117084415D01*
X137897862Y-117215625D01*
X137942191Y-117271082D01*
X137949500Y-117341701D01*
X137917470Y-117405062D01*
X137897862Y-117422051D01*
X137710473Y-117553260D01*
X137710463Y-117553269D01*
X137543849Y-117719883D01*
X137543840Y-117719893D01*
X137408688Y-117912912D01*
X137309101Y-118126477D01*
X137309099Y-118126481D01*
X137248112Y-118354089D01*
X137227574Y-118588838D01*
X137248112Y-118823586D01*
X137309099Y-119051194D01*
X137309101Y-119051198D01*
X137408688Y-119264763D01*
X137543840Y-119457782D01*
X137543849Y-119457792D01*
X137710463Y-119624406D01*
X137710473Y-119624415D01*
X137903492Y-119759567D01*
X137903491Y-119759567D01*
X137954784Y-119783485D01*
X138117060Y-119859156D01*
X138344673Y-119920144D01*
X138579418Y-119940682D01*
X138814163Y-119920144D01*
X139041776Y-119859156D01*
X139255340Y-119759569D01*
X139255343Y-119759567D01*
X139448362Y-119624415D01*
X139448364Y-119624412D01*
X139448367Y-119624411D01*
X139614991Y-119457787D01*
X139614995Y-119457782D01*
X139724727Y-119301068D01*
X139780184Y-119256739D01*
X139827940Y-119247338D01*
X141646846Y-119247338D01*
X141714967Y-119267340D01*
X141745355Y-119294776D01*
X141826931Y-119397069D01*
X141885397Y-119470383D01*
X142057617Y-119620847D01*
X142253933Y-119738141D01*
X142253938Y-119738143D01*
X142253941Y-119738145D01*
X142253945Y-119738146D01*
X142253944Y-119738146D01*
X142468051Y-119818503D01*
X142693068Y-119859338D01*
X142693071Y-119859338D01*
X144388466Y-119859338D01*
X144388472Y-119859338D01*
X144559191Y-119843973D01*
X144779644Y-119783132D01*
X144985690Y-119683905D01*
X145170708Y-119549482D01*
X145328750Y-119384183D01*
X145454736Y-119193321D01*
X145544619Y-118983031D01*
X145595508Y-118760071D01*
X145605769Y-118531607D01*
X145575070Y-118304983D01*
X145504400Y-118087482D01*
X145396029Y-117886095D01*
X145396028Y-117886093D01*
X145253438Y-117707292D01*
X145081218Y-117556828D01*
X144884902Y-117439534D01*
X144884897Y-117439532D01*
X144884896Y-117439531D01*
X144884895Y-117439531D01*
X144872530Y-117434890D01*
X144815783Y-117392227D01*
X144791110Y-117325655D01*
X144806344Y-117256313D01*
X144856650Y-117206214D01*
X144862111Y-117203417D01*
X144985690Y-117143905D01*
X145170708Y-117009482D01*
X145328750Y-116844183D01*
X145454736Y-116653321D01*
X145544619Y-116443031D01*
X145595508Y-116220071D01*
X145605769Y-115991607D01*
X145575070Y-115764983D01*
X145504400Y-115547482D01*
X145504399Y-115547481D01*
X145396032Y-115346100D01*
X145396028Y-115346093D01*
X145253438Y-115167292D01*
X145081218Y-115016828D01*
X144884902Y-114899534D01*
X144884897Y-114899532D01*
X144884896Y-114899531D01*
X144884895Y-114899531D01*
X144872530Y-114894890D01*
X144815783Y-114852227D01*
X144791110Y-114785655D01*
X144806344Y-114716313D01*
X144856650Y-114666214D01*
X144862111Y-114663417D01*
X144985690Y-114603905D01*
X145170708Y-114469482D01*
X145328750Y-114304183D01*
X145454736Y-114113321D01*
X145544619Y-113903031D01*
X145595508Y-113680071D01*
X145605769Y-113451607D01*
X145575070Y-113224983D01*
X145504400Y-113007482D01*
X145466056Y-112936227D01*
X145396032Y-112806100D01*
X145396028Y-112806093D01*
X145300322Y-112686082D01*
X145253440Y-112627294D01*
X145220081Y-112598149D01*
X145081218Y-112476828D01*
X144884902Y-112359534D01*
X144884897Y-112359532D01*
X144884896Y-112359531D01*
X144884895Y-112359531D01*
X144872530Y-112354890D01*
X144815783Y-112312227D01*
X144791110Y-112245655D01*
X144806344Y-112176313D01*
X144856650Y-112126214D01*
X144862111Y-112123417D01*
X144985690Y-112063905D01*
X145170708Y-111929482D01*
X145273549Y-111821919D01*
X145332661Y-111760093D01*
X145334059Y-111761430D01*
X145385087Y-111725602D01*
X145456024Y-111722695D01*
X145517272Y-111758600D01*
X145549385Y-111821919D01*
X145550366Y-111828029D01*
X145568094Y-111958905D01*
X145603606Y-112068197D01*
X145635204Y-112165445D01*
X145638099Y-112174353D01*
X145745440Y-112373827D01*
X145745444Y-112373834D01*
X145886687Y-112550946D01*
X146057280Y-112699989D01*
X146234879Y-112806100D01*
X146251750Y-112816180D01*
X146463839Y-112895778D01*
X146463841Y-112895778D01*
X146463843Y-112895779D01*
X146686730Y-112936227D01*
X146686733Y-112936227D01*
X148356516Y-112936227D01*
X148356522Y-112936227D01*
X148515126Y-112921952D01*
X148525623Y-112921008D01*
X148525623Y-112921007D01*
X148702062Y-112872313D01*
X148743990Y-112860742D01*
X148743990Y-112860741D01*
X148743993Y-112860741D01*
X148948093Y-112762452D01*
X149131363Y-112629298D01*
X149287912Y-112465561D01*
X149412709Y-112276501D01*
X149501743Y-112068197D01*
X149552151Y-111847342D01*
X149562315Y-111621036D01*
X149531906Y-111396552D01*
X149461903Y-111181106D01*
X149414517Y-111093047D01*
X149354559Y-110981626D01*
X149354555Y-110981619D01*
X149270523Y-110876246D01*
X149213314Y-110804509D01*
X149156547Y-110754913D01*
X149042719Y-110655464D01*
X148848256Y-110539277D01*
X148848252Y-110539275D01*
X148848250Y-110539274D01*
X148830202Y-110532500D01*
X148810615Y-110525149D01*
X148753867Y-110482486D01*
X148729193Y-110415914D01*
X148744427Y-110346572D01*
X148794732Y-110296473D01*
X148800168Y-110293688D01*
X148948093Y-110222452D01*
X149131363Y-110089298D01*
X149287912Y-109925561D01*
X149412709Y-109736501D01*
X149501743Y-109528197D01*
X149552151Y-109307342D01*
X149562315Y-109081036D01*
X149531906Y-108856552D01*
X149461903Y-108641106D01*
X149439821Y-108600071D01*
X149354559Y-108441626D01*
X149354555Y-108441619D01*
X149256361Y-108318488D01*
X149213314Y-108264509D01*
X149205412Y-108257605D01*
X149042719Y-108115464D01*
X148848256Y-107999277D01*
X148848252Y-107999275D01*
X148848250Y-107999274D01*
X148830202Y-107992500D01*
X148810615Y-107985149D01*
X148753867Y-107942486D01*
X148729193Y-107875914D01*
X148744427Y-107806572D01*
X148794732Y-107756473D01*
X148800168Y-107753688D01*
X148948093Y-107682452D01*
X149131363Y-107549298D01*
X149287912Y-107385561D01*
X149412709Y-107196501D01*
X149501743Y-106988197D01*
X149552151Y-106767342D01*
X149562315Y-106541036D01*
X149531906Y-106316552D01*
X149461903Y-106101106D01*
X149453236Y-106085000D01*
X149354559Y-105901626D01*
X149354555Y-105901619D01*
X149243366Y-105762193D01*
X149213314Y-105724509D01*
X149156547Y-105674913D01*
X149042719Y-105575464D01*
X148848256Y-105459277D01*
X148848252Y-105459275D01*
X148848250Y-105459274D01*
X148824643Y-105450414D01*
X148810615Y-105445149D01*
X148753867Y-105402486D01*
X148729193Y-105335914D01*
X148744427Y-105266572D01*
X148794732Y-105216473D01*
X148800168Y-105213688D01*
X148948093Y-105142452D01*
X149131363Y-105009298D01*
X149287912Y-104845561D01*
X149412709Y-104656501D01*
X149501743Y-104448197D01*
X149552151Y-104227342D01*
X149562315Y-104001036D01*
X149531906Y-103776552D01*
X149461903Y-103561106D01*
X149439719Y-103519881D01*
X149354559Y-103361626D01*
X149354555Y-103361619D01*
X149213312Y-103184507D01*
X149042719Y-103035464D01*
X148848256Y-102919277D01*
X148848252Y-102919275D01*
X148848250Y-102919274D01*
X148825064Y-102910572D01*
X148768316Y-102867908D01*
X148743642Y-102801337D01*
X148758876Y-102731994D01*
X148809181Y-102681896D01*
X148816068Y-102678422D01*
X148921692Y-102629170D01*
X149104943Y-102500856D01*
X149263129Y-102342670D01*
X149391443Y-102159419D01*
X149485986Y-101956670D01*
X149543887Y-101740584D01*
X149560127Y-101554948D01*
X149585989Y-101488835D01*
X149596544Y-101476846D01*
X150453803Y-100619589D01*
X150453803Y-100619588D01*
X150471526Y-100601866D01*
X150471526Y-100601864D01*
X150486111Y-100587281D01*
X150508542Y-100551580D01*
X150512615Y-100545838D01*
X150538909Y-100512870D01*
X150557202Y-100474880D01*
X150560618Y-100468703D01*
X150565082Y-100461598D01*
X150583043Y-100433015D01*
X150585855Y-100424977D01*
X150627227Y-100367283D01*
X150693225Y-100341115D01*
X150762894Y-100354781D01*
X150814114Y-100403944D01*
X150830787Y-100466896D01*
X150803784Y-111345284D01*
X150784782Y-119000912D01*
X150784682Y-119041018D01*
X150784682Y-119630328D01*
X150784567Y-119634134D01*
X150778695Y-119731172D01*
X150765099Y-119938550D01*
X150764202Y-119945792D01*
X150739344Y-120081427D01*
X150706244Y-120247822D01*
X150704600Y-120254279D01*
X150661505Y-120392573D01*
X150661014Y-120394081D01*
X150609032Y-120547209D01*
X150606824Y-120552818D01*
X150546118Y-120687695D01*
X150545171Y-120689703D01*
X150474988Y-120832019D01*
X150472398Y-120836749D01*
X150395123Y-120964573D01*
X150393591Y-120966981D01*
X150306200Y-121097769D01*
X150303409Y-121101623D01*
X150210866Y-121219742D01*
X150208639Y-121222428D01*
X150105302Y-121340259D01*
X150102483Y-121343269D01*
X149996233Y-121449516D01*
X149993224Y-121452334D01*
X149875384Y-121555675D01*
X149872701Y-121557899D01*
X149853198Y-121573181D01*
X149787240Y-121599451D01*
X149775486Y-121600000D01*
X149133075Y-121600000D01*
X149064954Y-121579998D01*
X149018461Y-121526342D01*
X149008357Y-121456068D01*
X149037851Y-121391488D01*
X149088064Y-121356314D01*
X149148968Y-121333020D01*
X149287558Y-121280014D01*
X149523777Y-121147441D01*
X149738177Y-120981888D01*
X149926186Y-120786881D01*
X150083799Y-120566579D01*
X150090873Y-120552821D01*
X150207656Y-120325675D01*
X150207657Y-120325672D01*
X150290981Y-120081430D01*
X150295118Y-120069305D01*
X150336739Y-119843972D01*
X150344318Y-119802941D01*
X150344319Y-119802930D01*
X150345030Y-119783484D01*
X150354212Y-119532235D01*
X150327733Y-119291581D01*
X150324587Y-119262985D01*
X150269217Y-119051194D01*
X150256072Y-119000912D01*
X150248473Y-118983031D01*
X150150130Y-118751610D01*
X150009018Y-118520390D01*
X149835745Y-118312180D01*
X149835741Y-118312177D01*
X149835740Y-118312175D01*
X149634012Y-118131427D01*
X149634002Y-118131418D01*
X149408090Y-117981956D01*
X149162824Y-117866980D01*
X149005392Y-117819615D01*
X148903425Y-117788938D01*
X148635442Y-117749500D01*
X148635439Y-117749500D01*
X148432369Y-117749500D01*
X148229839Y-117764323D01*
X148229838Y-117764323D01*
X147965456Y-117823217D01*
X147965441Y-117823222D01*
X147712441Y-117919986D01*
X147476229Y-118052555D01*
X147476225Y-118052557D01*
X147261818Y-118218116D01*
X147073815Y-118413117D01*
X147073810Y-118413123D01*
X146916203Y-118633417D01*
X146916196Y-118633427D01*
X146792343Y-118874324D01*
X146792342Y-118874327D01*
X146704883Y-119130689D01*
X146704880Y-119130702D01*
X146655681Y-119397058D01*
X146655680Y-119397069D01*
X146645788Y-119667765D01*
X146675412Y-119937014D01*
X146743928Y-120199090D01*
X146849869Y-120448389D01*
X146849870Y-120448390D01*
X146990982Y-120679610D01*
X147164255Y-120887820D01*
X147164257Y-120887822D01*
X147164259Y-120887824D01*
X147249917Y-120964573D01*
X147365998Y-121068582D01*
X147591910Y-121218044D01*
X147837176Y-121333020D01*
X147904726Y-121353342D01*
X147964194Y-121392122D01*
X147993258Y-121456897D01*
X147982687Y-121527102D01*
X147935839Y-121580448D01*
X147868424Y-121600000D01*
X72983075Y-121600000D01*
X72914954Y-121579998D01*
X72868461Y-121526342D01*
X72858357Y-121456068D01*
X72887851Y-121391488D01*
X72938064Y-121356314D01*
X72998968Y-121333020D01*
X73137558Y-121280014D01*
X73373777Y-121147441D01*
X73588177Y-120981888D01*
X73776186Y-120786881D01*
X73933799Y-120566579D01*
X73940873Y-120552821D01*
X74057656Y-120325675D01*
X74057657Y-120325672D01*
X74140981Y-120081430D01*
X74145118Y-120069305D01*
X74186739Y-119843972D01*
X74194318Y-119802941D01*
X74194319Y-119802930D01*
X74195030Y-119783484D01*
X74204212Y-119532235D01*
X74177733Y-119291581D01*
X74174587Y-119262985D01*
X74119217Y-119051194D01*
X74106072Y-119000912D01*
X74098473Y-118983031D01*
X74000130Y-118751610D01*
X73859018Y-118520390D01*
X73685745Y-118312180D01*
X73685741Y-118312177D01*
X73685740Y-118312175D01*
X73484012Y-118131427D01*
X73484002Y-118131418D01*
X73258090Y-117981956D01*
X73012824Y-117866980D01*
X72855392Y-117819615D01*
X72753425Y-117788938D01*
X72485442Y-117749500D01*
X72485439Y-117749500D01*
X72282369Y-117749500D01*
X72079839Y-117764323D01*
X72079838Y-117764323D01*
X71815456Y-117823217D01*
X71815441Y-117823222D01*
X71562441Y-117919986D01*
X71326229Y-118052555D01*
X71326225Y-118052557D01*
X71111818Y-118218116D01*
X70923815Y-118413117D01*
X70923810Y-118413123D01*
X70766203Y-118633417D01*
X70766196Y-118633427D01*
X70642343Y-118874324D01*
X70642342Y-118874327D01*
X70554883Y-119130689D01*
X70554880Y-119130702D01*
X70505681Y-119397058D01*
X70505680Y-119397069D01*
X70495788Y-119667765D01*
X70525412Y-119937014D01*
X70593928Y-120199090D01*
X70699869Y-120448389D01*
X70699870Y-120448390D01*
X70840982Y-120679610D01*
X71014255Y-120887820D01*
X71014257Y-120887822D01*
X71014259Y-120887824D01*
X71099917Y-120964573D01*
X71215998Y-121068582D01*
X71441910Y-121218044D01*
X71687176Y-121333020D01*
X71754726Y-121353342D01*
X71814194Y-121392122D01*
X71843258Y-121456897D01*
X71832687Y-121527102D01*
X71785839Y-121580448D01*
X71718424Y-121600000D01*
X70794832Y-121600000D01*
X70726711Y-121579998D01*
X70717127Y-121573186D01*
X70697630Y-121557912D01*
X70694965Y-121555702D01*
X70577118Y-121452354D01*
X70574133Y-121449558D01*
X70467850Y-121343275D01*
X70465050Y-121340285D01*
X70361700Y-121222437D01*
X70359498Y-121219782D01*
X70266925Y-121101623D01*
X70264158Y-121097802D01*
X70264136Y-121097769D01*
X70176723Y-120966948D01*
X70175231Y-120964600D01*
X70097950Y-120836764D01*
X70095376Y-120832064D01*
X70025143Y-120689648D01*
X70024235Y-120687720D01*
X70011908Y-120660332D01*
X69963520Y-120552818D01*
X69961313Y-120547213D01*
X69909346Y-120394127D01*
X69908856Y-120392620D01*
X69887993Y-120325672D01*
X69865744Y-120254275D01*
X69864103Y-120247828D01*
X69831003Y-120081430D01*
X69806145Y-119945792D01*
X69805250Y-119938574D01*
X69791525Y-119729066D01*
X69785797Y-119634383D01*
X69785682Y-119630578D01*
X69785682Y-119041020D01*
X69798423Y-113908146D01*
X71541500Y-113908146D01*
X71548009Y-113968693D01*
X71548011Y-113968701D01*
X71599110Y-114105699D01*
X71599112Y-114105704D01*
X71686738Y-114222758D01*
X71803792Y-114310384D01*
X71803794Y-114310385D01*
X71803796Y-114310386D01*
X71862875Y-114332421D01*
X71940795Y-114361485D01*
X71940803Y-114361487D01*
X72001350Y-114367996D01*
X72001355Y-114367996D01*
X72001362Y-114367997D01*
X72001368Y-114367997D01*
X73798632Y-114367997D01*
X73798638Y-114367997D01*
X73798645Y-114367996D01*
X73798649Y-114367996D01*
X73859196Y-114361487D01*
X73859199Y-114361486D01*
X73859201Y-114361486D01*
X73996204Y-114310386D01*
X74004487Y-114304186D01*
X74113261Y-114222758D01*
X74200887Y-114105704D01*
X74200889Y-114105700D01*
X74200890Y-114105699D01*
X74250258Y-113973337D01*
X74292805Y-113916501D01*
X74359326Y-113891691D01*
X74428700Y-113906783D01*
X74478902Y-113956985D01*
X74480163Y-113959355D01*
X74506506Y-114010194D01*
X74519892Y-114036028D01*
X74587797Y-114132227D01*
X74678343Y-114260502D01*
X74865889Y-114461314D01*
X75079031Y-114634718D01*
X75313800Y-114777484D01*
X75313802Y-114777485D01*
X75351140Y-114793703D01*
X75565823Y-114886953D01*
X75830404Y-114961085D01*
X75925504Y-114974156D01*
X76102604Y-114998499D01*
X76102615Y-114998500D01*
X76377385Y-114998500D01*
X76377395Y-114998499D01*
X76506945Y-114980692D01*
X76649596Y-114961085D01*
X76914177Y-114886953D01*
X77166200Y-114777484D01*
X77400969Y-114634718D01*
X77614111Y-114461314D01*
X77801657Y-114260502D01*
X77960111Y-114036023D01*
X78086523Y-113792058D01*
X78178538Y-113533153D01*
X78234442Y-113264130D01*
X78247161Y-113078191D01*
X78253193Y-112990004D01*
X78253193Y-112989996D01*
X78242160Y-112828711D01*
X78257466Y-112759384D01*
X78278776Y-112731011D01*
X78286807Y-112722981D01*
X78349121Y-112688960D01*
X78375897Y-112686082D01*
X85726267Y-112686082D01*
X85794388Y-112706084D01*
X85840881Y-112759740D01*
X85850985Y-112830014D01*
X85821491Y-112894594D01*
X85803657Y-112911514D01*
X85782783Y-112927760D01*
X85782774Y-112927768D01*
X85624685Y-113099498D01*
X85497015Y-113294913D01*
X85403252Y-113508671D01*
X85403249Y-113508678D01*
X85345950Y-113734948D01*
X85345949Y-113734954D01*
X85345949Y-113734956D01*
X85326673Y-113967582D01*
X85344669Y-114184763D01*
X85345950Y-114200215D01*
X85403249Y-114426485D01*
X85403252Y-114426492D01*
X85497015Y-114640250D01*
X85624685Y-114835665D01*
X85782774Y-115007395D01*
X85782778Y-115007399D01*
X85848650Y-115058669D01*
X85966983Y-115150772D01*
X86172273Y-115261869D01*
X86393049Y-115337662D01*
X86623288Y-115376082D01*
X86623292Y-115376082D01*
X86856708Y-115376082D01*
X86856712Y-115376082D01*
X87086951Y-115337662D01*
X87307727Y-115261869D01*
X87513017Y-115150772D01*
X87697220Y-115007400D01*
X87788322Y-114908438D01*
X87855314Y-114835665D01*
X87896898Y-114772016D01*
X87982984Y-114640251D01*
X88076749Y-114426489D01*
X88134051Y-114200208D01*
X88153327Y-113967582D01*
X88134051Y-113734956D01*
X88090378Y-113562494D01*
X88076750Y-113508678D01*
X88076747Y-113508671D01*
X88051716Y-113451607D01*
X87982984Y-113294913D01*
X87937297Y-113224983D01*
X87855314Y-113099498D01*
X87697225Y-112927768D01*
X87697221Y-112927765D01*
X87697212Y-112927758D01*
X87529229Y-112797011D01*
X87487761Y-112739389D01*
X87484027Y-112668491D01*
X87519217Y-112606829D01*
X87529217Y-112598162D01*
X87697220Y-112467400D01*
X87716141Y-112446847D01*
X87855314Y-112295665D01*
X87900017Y-112227242D01*
X87982984Y-112100251D01*
X88076749Y-111886489D01*
X88134051Y-111660208D01*
X88153327Y-111427582D01*
X88134051Y-111194956D01*
X88120152Y-111140071D01*
X88076750Y-110968678D01*
X88076747Y-110968671D01*
X88051716Y-110911607D01*
X87982984Y-110754913D01*
X87900017Y-110627922D01*
X87855314Y-110559498D01*
X87697225Y-110387768D01*
X87697221Y-110387765D01*
X87688540Y-110381008D01*
X87529229Y-110257011D01*
X87487761Y-110199389D01*
X87484027Y-110128491D01*
X87519217Y-110066829D01*
X87529217Y-110058162D01*
X87697220Y-109927400D01*
X87783361Y-109833827D01*
X87855314Y-109755665D01*
X87900017Y-109687242D01*
X87982984Y-109560251D01*
X88076749Y-109346489D01*
X88134051Y-109120208D01*
X88153327Y-108887582D01*
X88134051Y-108654956D01*
X88080029Y-108441626D01*
X88076750Y-108428678D01*
X88076747Y-108428671D01*
X88051716Y-108371607D01*
X87982984Y-108214913D01*
X87937294Y-108144979D01*
X87855314Y-108019498D01*
X87697225Y-107847768D01*
X87697221Y-107847764D01*
X87536793Y-107722898D01*
X87529231Y-107717012D01*
X87487761Y-107659387D01*
X87484027Y-107588489D01*
X87519217Y-107526827D01*
X87529216Y-107518163D01*
X87697220Y-107387400D01*
X87716141Y-107366847D01*
X87855314Y-107215665D01*
X87892648Y-107158521D01*
X87982984Y-107020251D01*
X88076749Y-106806489D01*
X88134051Y-106580208D01*
X88153327Y-106347582D01*
X88134051Y-106114956D01*
X88111242Y-106024886D01*
X88076750Y-105888678D01*
X88076747Y-105888671D01*
X88061614Y-105854172D01*
X87982984Y-105674913D01*
X87965034Y-105647438D01*
X87855314Y-105479498D01*
X87697225Y-105307768D01*
X87697221Y-105307764D01*
X87597744Y-105230338D01*
X87513017Y-105164392D01*
X87307727Y-105053295D01*
X87307724Y-105053294D01*
X87307723Y-105053293D01*
X87086955Y-104977503D01*
X87086948Y-104977501D01*
X86988411Y-104961058D01*
X86856712Y-104939082D01*
X86623288Y-104939082D01*
X86508066Y-104958309D01*
X86393051Y-104977501D01*
X86393044Y-104977503D01*
X86172276Y-105053293D01*
X86172273Y-105053295D01*
X85966985Y-105164391D01*
X85966983Y-105164392D01*
X85782778Y-105307764D01*
X85782774Y-105307768D01*
X85624685Y-105479498D01*
X85497015Y-105674913D01*
X85403252Y-105888671D01*
X85403249Y-105888678D01*
X85345950Y-106114948D01*
X85345949Y-106114954D01*
X85345949Y-106114956D01*
X85326673Y-106347582D01*
X85345210Y-106571293D01*
X85345950Y-106580215D01*
X85403249Y-106806485D01*
X85403252Y-106806492D01*
X85497015Y-107020250D01*
X85624685Y-107215665D01*
X85782774Y-107387395D01*
X85782785Y-107387405D01*
X85950766Y-107518151D01*
X85992237Y-107575776D01*
X85995970Y-107646674D01*
X85960780Y-107708336D01*
X85950766Y-107717013D01*
X85782785Y-107847758D01*
X85782774Y-107847768D01*
X85624685Y-108019498D01*
X85497015Y-108214913D01*
X85403252Y-108428671D01*
X85403249Y-108428678D01*
X85345950Y-108654948D01*
X85345949Y-108654954D01*
X85345949Y-108654956D01*
X85326673Y-108887582D01*
X85344669Y-109104763D01*
X85345950Y-109120215D01*
X85403249Y-109346485D01*
X85403252Y-109346492D01*
X85497015Y-109560250D01*
X85624685Y-109755665D01*
X85782774Y-109927395D01*
X85782783Y-109927403D01*
X85803657Y-109943650D01*
X85845129Y-110001275D01*
X85848863Y-110072173D01*
X85813673Y-110133835D01*
X85750733Y-110166684D01*
X85726267Y-110169082D01*
X77876639Y-110169082D01*
X77869581Y-110168686D01*
X77830770Y-110164313D01*
X77762149Y-110168939D01*
X77757911Y-110169082D01*
X77745890Y-110169082D01*
X77704345Y-110172820D01*
X77702954Y-110172929D01*
X77668947Y-110175222D01*
X77604745Y-110179552D01*
X77604742Y-110179553D01*
X77600566Y-110180605D01*
X77581099Y-110183913D01*
X77576800Y-110184300D01*
X77481924Y-110210483D01*
X77480558Y-110210844D01*
X77385081Y-110234903D01*
X77385074Y-110234905D01*
X77381142Y-110236691D01*
X77362595Y-110243415D01*
X77358434Y-110244564D01*
X77358426Y-110244567D01*
X77358425Y-110244568D01*
X77332580Y-110257014D01*
X77269747Y-110287272D01*
X77268467Y-110287871D01*
X77178827Y-110328587D01*
X77178824Y-110328589D01*
X77175286Y-110331041D01*
X77158211Y-110340985D01*
X77154330Y-110342854D01*
X77154324Y-110342857D01*
X77074677Y-110400725D01*
X77073524Y-110401543D01*
X76992613Y-110457596D01*
X76989557Y-110460653D01*
X76974554Y-110473467D01*
X76971061Y-110476005D01*
X76903006Y-110547182D01*
X76902019Y-110548192D01*
X76501928Y-110948282D01*
X76439616Y-110982308D01*
X76395677Y-110984014D01*
X76377385Y-110981500D01*
X76102615Y-110981500D01*
X76102604Y-110981500D01*
X75830406Y-111018914D01*
X75565819Y-111093048D01*
X75313802Y-111202514D01*
X75079028Y-111345284D01*
X74865886Y-111518688D01*
X74678343Y-111719498D01*
X74519892Y-111943971D01*
X74519888Y-111943977D01*
X74519889Y-111943977D01*
X74498774Y-111984729D01*
X74496374Y-111989360D01*
X74447274Y-112040641D01*
X74378244Y-112057237D01*
X74311201Y-112033877D01*
X74267429Y-111977979D01*
X74258500Y-111931392D01*
X74258500Y-111810864D01*
X74258499Y-111810847D01*
X74251990Y-111750300D01*
X74251988Y-111750292D01*
X74218390Y-111660215D01*
X74200889Y-111613293D01*
X74200887Y-111613290D01*
X74183631Y-111590238D01*
X74158821Y-111523718D01*
X74158500Y-111514730D01*
X74158500Y-108775616D01*
X74178502Y-108707495D01*
X74232158Y-108661002D01*
X74302432Y-108650898D01*
X74367012Y-108680392D01*
X74396372Y-108717646D01*
X74486300Y-108891198D01*
X74519892Y-108956028D01*
X74528422Y-108968112D01*
X74678343Y-109180502D01*
X74865889Y-109381314D01*
X75079031Y-109554718D01*
X75313800Y-109697484D01*
X75313802Y-109697485D01*
X75351140Y-109713703D01*
X75565823Y-109806953D01*
X75830404Y-109881085D01*
X75925504Y-109894156D01*
X76102604Y-109918499D01*
X76102615Y-109918500D01*
X76377385Y-109918500D01*
X76377395Y-109918499D01*
X76506945Y-109900692D01*
X76649596Y-109881085D01*
X76914177Y-109806953D01*
X77166200Y-109697484D01*
X77400969Y-109554718D01*
X77614111Y-109381314D01*
X77801657Y-109180502D01*
X77960111Y-108956023D01*
X78086523Y-108712058D01*
X78178538Y-108453153D01*
X78234442Y-108184130D01*
X78241077Y-108087127D01*
X78253193Y-107910004D01*
X78253193Y-107909997D01*
X78249741Y-107859537D01*
X78242159Y-107748706D01*
X78257465Y-107679383D01*
X78278766Y-107651019D01*
X80437423Y-105492362D01*
X80442667Y-105487676D01*
X80473218Y-105463314D01*
X80518496Y-105411487D01*
X80521352Y-105408433D01*
X80529861Y-105399926D01*
X80556621Y-105367870D01*
X80557450Y-105366900D01*
X80622263Y-105292718D01*
X80624461Y-105289038D01*
X80635914Y-105272895D01*
X80638672Y-105269593D01*
X80687289Y-105183908D01*
X80687935Y-105182800D01*
X80738453Y-105098250D01*
X80739969Y-105094210D01*
X80748349Y-105076299D01*
X80750468Y-105072566D01*
X80783005Y-104979579D01*
X80783430Y-104978405D01*
X80818051Y-104886161D01*
X80818818Y-104881930D01*
X80823866Y-104862807D01*
X80825288Y-104858745D01*
X80840692Y-104761480D01*
X80840927Y-104760097D01*
X80844659Y-104739532D01*
X80858500Y-104663267D01*
X80858500Y-104658964D01*
X80860051Y-104639254D01*
X80860725Y-104635000D01*
X80858515Y-104536569D01*
X80858500Y-104535168D01*
X80858500Y-101267582D01*
X85326673Y-101267582D01*
X85344669Y-101484763D01*
X85345950Y-101500215D01*
X85403249Y-101726485D01*
X85403252Y-101726492D01*
X85497015Y-101940250D01*
X85624685Y-102135665D01*
X85782774Y-102307395D01*
X85782778Y-102307399D01*
X85828097Y-102342672D01*
X85966983Y-102450772D01*
X86172273Y-102561869D01*
X86393049Y-102637662D01*
X86623288Y-102676082D01*
X86623292Y-102676082D01*
X86856708Y-102676082D01*
X86856712Y-102676082D01*
X87086951Y-102637662D01*
X87307727Y-102561869D01*
X87513017Y-102450772D01*
X87697220Y-102307400D01*
X87700567Y-102303765D01*
X87855314Y-102135665D01*
X87896898Y-102072016D01*
X87982984Y-101940251D01*
X88076749Y-101726489D01*
X88134051Y-101500208D01*
X88153327Y-101267582D01*
X88137493Y-101076501D01*
X88151802Y-101006964D01*
X88173965Y-100977007D01*
X89577986Y-99572987D01*
X89640298Y-99538961D01*
X89667081Y-99536082D01*
X100757571Y-99536082D01*
X100825692Y-99556084D01*
X100861450Y-99591576D01*
X100861483Y-99591551D01*
X100861680Y-99591804D01*
X100863055Y-99593169D01*
X100864686Y-99595665D01*
X100864689Y-99595669D01*
X101022774Y-99767395D01*
X101022785Y-99767405D01*
X101190766Y-99898151D01*
X101232237Y-99955776D01*
X101235970Y-100026674D01*
X101200780Y-100088336D01*
X101190766Y-100097013D01*
X101022785Y-100227758D01*
X101022774Y-100227768D01*
X100864685Y-100399498D01*
X100737015Y-100594913D01*
X100643252Y-100808671D01*
X100643249Y-100808678D01*
X100585950Y-101034948D01*
X100585949Y-101034954D01*
X100585949Y-101034956D01*
X100566673Y-101267582D01*
X100584669Y-101484763D01*
X100585950Y-101500215D01*
X100643249Y-101726485D01*
X100643252Y-101726492D01*
X100737015Y-101940250D01*
X100864685Y-102135665D01*
X101022774Y-102307395D01*
X101022785Y-102307405D01*
X101190766Y-102438151D01*
X101232237Y-102495776D01*
X101235970Y-102566674D01*
X101200780Y-102628336D01*
X101190766Y-102637013D01*
X101022785Y-102767758D01*
X101022774Y-102767768D01*
X100864685Y-102939498D01*
X100737015Y-103134913D01*
X100643252Y-103348671D01*
X100643249Y-103348678D01*
X100585950Y-103574948D01*
X100585949Y-103574954D01*
X100585949Y-103574956D01*
X100566673Y-103807582D01*
X100584996Y-104028712D01*
X100585950Y-104040215D01*
X100643249Y-104266485D01*
X100643252Y-104266492D01*
X100737015Y-104480250D01*
X100864685Y-104675665D01*
X101022774Y-104847395D01*
X101022785Y-104847405D01*
X101190766Y-104978151D01*
X101232237Y-105035776D01*
X101235970Y-105106674D01*
X101200780Y-105168336D01*
X101190766Y-105177013D01*
X101022785Y-105307758D01*
X101022774Y-105307768D01*
X100864685Y-105479498D01*
X100737015Y-105674913D01*
X100643252Y-105888671D01*
X100643249Y-105888678D01*
X100585950Y-106114948D01*
X100585949Y-106114954D01*
X100585949Y-106114956D01*
X100566673Y-106347582D01*
X100585210Y-106571293D01*
X100585950Y-106580215D01*
X100643249Y-106806485D01*
X100643252Y-106806492D01*
X100737015Y-107020250D01*
X100864685Y-107215665D01*
X101022774Y-107387395D01*
X101022785Y-107387405D01*
X101190766Y-107518151D01*
X101232237Y-107575776D01*
X101235970Y-107646674D01*
X101200780Y-107708336D01*
X101190766Y-107717013D01*
X101022785Y-107847758D01*
X101022774Y-107847768D01*
X100864685Y-108019498D01*
X100737015Y-108214913D01*
X100643252Y-108428671D01*
X100643249Y-108428678D01*
X100585950Y-108654948D01*
X100585949Y-108654954D01*
X100585949Y-108654956D01*
X100566673Y-108887582D01*
X100584669Y-109104763D01*
X100585950Y-109120215D01*
X100643249Y-109346485D01*
X100643252Y-109346492D01*
X100737015Y-109560250D01*
X100864685Y-109755665D01*
X101022774Y-109927395D01*
X101022785Y-109927405D01*
X101190766Y-110058151D01*
X101232237Y-110115776D01*
X101235970Y-110186674D01*
X101200780Y-110248336D01*
X101190766Y-110257013D01*
X101022785Y-110387758D01*
X101022774Y-110387768D01*
X100864685Y-110559498D01*
X100737015Y-110754913D01*
X100643252Y-110968671D01*
X100643249Y-110968678D01*
X100585950Y-111194948D01*
X100585949Y-111194954D01*
X100585949Y-111194956D01*
X100566673Y-111427582D01*
X100584669Y-111644763D01*
X100585950Y-111660215D01*
X100643249Y-111886485D01*
X100643252Y-111886492D01*
X100737015Y-112100250D01*
X100864685Y-112295665D01*
X101022774Y-112467395D01*
X101022785Y-112467405D01*
X101190766Y-112598151D01*
X101232237Y-112655776D01*
X101235970Y-112726674D01*
X101200780Y-112788336D01*
X101190766Y-112797013D01*
X101022785Y-112927758D01*
X101022774Y-112927768D01*
X100864685Y-113099498D01*
X100737015Y-113294913D01*
X100643252Y-113508671D01*
X100643249Y-113508678D01*
X100585950Y-113734948D01*
X100585949Y-113734954D01*
X100585949Y-113734956D01*
X100566673Y-113967582D01*
X100584669Y-114184763D01*
X100585950Y-114200215D01*
X100643249Y-114426485D01*
X100643250Y-114426486D01*
X100643251Y-114426489D01*
X100655201Y-114453733D01*
X100662287Y-114469887D01*
X100671333Y-114540305D01*
X100640872Y-114604435D01*
X100580575Y-114641916D01*
X100546899Y-114646500D01*
X100398200Y-114646500D01*
X100330079Y-114626498D01*
X100304563Y-114604810D01*
X100301252Y-114601133D01*
X100146752Y-114488882D01*
X99972288Y-114411206D01*
X99785487Y-114371500D01*
X99594513Y-114371500D01*
X99407711Y-114411206D01*
X99233247Y-114488882D01*
X99078744Y-114601135D01*
X98950965Y-114743048D01*
X98950958Y-114743058D01*
X98855476Y-114908438D01*
X98855473Y-114908445D01*
X98796457Y-115090072D01*
X98776496Y-115280000D01*
X98796457Y-115469927D01*
X98821657Y-115547482D01*
X98855473Y-115651556D01*
X98857257Y-115654646D01*
X98950958Y-115816941D01*
X98950965Y-115816951D01*
X99078744Y-115958864D01*
X99078747Y-115958866D01*
X99233248Y-116071118D01*
X99407712Y-116148794D01*
X99594513Y-116188500D01*
X99785487Y-116188500D01*
X99972288Y-116148794D01*
X100146752Y-116071118D01*
X100301253Y-115958866D01*
X100304562Y-115955190D01*
X100365009Y-115917950D01*
X100398200Y-115913500D01*
X102940031Y-115913500D01*
X102955872Y-115915249D01*
X102955900Y-115914956D01*
X102963785Y-115915700D01*
X102963793Y-115915702D01*
X103025092Y-115913775D01*
X103032860Y-115913531D01*
X103034839Y-115913500D01*
X103063735Y-115913500D01*
X103063740Y-115913500D01*
X103070702Y-115912619D01*
X103076603Y-115912154D01*
X103123773Y-115910673D01*
X103143231Y-115905019D01*
X103162578Y-115901013D01*
X103182681Y-115898474D01*
X103226563Y-115881099D01*
X103232158Y-115879183D01*
X103260700Y-115870891D01*
X103277475Y-115866019D01*
X103277479Y-115866017D01*
X103294910Y-115855708D01*
X103312664Y-115847009D01*
X103331501Y-115839552D01*
X103369670Y-115811818D01*
X103374628Y-115808562D01*
X103415246Y-115784542D01*
X103429569Y-115770218D01*
X103444608Y-115757374D01*
X103460991Y-115745472D01*
X103491077Y-115709103D01*
X103495045Y-115704741D01*
X105258657Y-113941129D01*
X105271092Y-113931168D01*
X105270905Y-113930941D01*
X105277016Y-113925885D01*
X105277015Y-113925885D01*
X105277018Y-113925884D01*
X105324352Y-113875476D01*
X105325667Y-113874119D01*
X105346134Y-113853654D01*
X105350429Y-113848116D01*
X105354271Y-113843615D01*
X105386586Y-113809205D01*
X105396345Y-113791451D01*
X105407197Y-113774930D01*
X105419613Y-113758925D01*
X105438347Y-113715632D01*
X105440961Y-113710296D01*
X105457577Y-113680072D01*
X105463695Y-113668944D01*
X105468733Y-113649319D01*
X105475138Y-113630614D01*
X105483181Y-113612029D01*
X105490561Y-113565431D01*
X105491762Y-113559624D01*
X105503500Y-113513914D01*
X105503500Y-113493658D01*
X105505051Y-113473947D01*
X105508220Y-113453941D01*
X105505629Y-113426535D01*
X105503780Y-113406964D01*
X105503500Y-113401032D01*
X105503500Y-112052850D01*
X105523502Y-111984729D01*
X105540399Y-111963760D01*
X106051024Y-111453135D01*
X106113333Y-111419113D01*
X106184148Y-111424177D01*
X106240984Y-111466724D01*
X106251071Y-111482525D01*
X106325610Y-111621040D01*
X106352107Y-111670281D01*
X106352806Y-111671579D01*
X106352807Y-111671582D01*
X106495397Y-111850383D01*
X106667617Y-112000847D01*
X106863933Y-112118141D01*
X106863936Y-112118142D01*
X106863941Y-112118145D01*
X106876301Y-112122783D01*
X106933049Y-112165445D01*
X106957725Y-112232016D01*
X106942493Y-112301359D01*
X106892189Y-112351459D01*
X106886698Y-112354271D01*
X106763148Y-112413769D01*
X106763145Y-112413771D01*
X106578127Y-112548194D01*
X106578126Y-112548195D01*
X106420087Y-112713490D01*
X106294102Y-112904350D01*
X106294098Y-112904358D01*
X106204217Y-113114644D01*
X106204216Y-113114646D01*
X106153328Y-113337603D01*
X106153328Y-113337605D01*
X106143096Y-113565431D01*
X106143067Y-113566069D01*
X106173680Y-113792058D01*
X106173767Y-113792697D01*
X106244435Y-114010193D01*
X106352803Y-114211575D01*
X106352807Y-114211582D01*
X106495397Y-114390383D01*
X106667617Y-114540847D01*
X106863933Y-114658141D01*
X106863936Y-114658142D01*
X106863941Y-114658145D01*
X106876301Y-114662783D01*
X106933049Y-114705445D01*
X106957725Y-114772016D01*
X106942493Y-114841359D01*
X106892189Y-114891459D01*
X106886698Y-114894271D01*
X106763148Y-114953769D01*
X106763145Y-114953771D01*
X106578127Y-115088194D01*
X106578126Y-115088195D01*
X106420087Y-115253490D01*
X106294102Y-115444350D01*
X106294098Y-115444358D01*
X106204217Y-115654644D01*
X106204216Y-115654646D01*
X106155972Y-115866019D01*
X106153328Y-115877605D01*
X106143067Y-116106069D01*
X106167114Y-116283586D01*
X106173767Y-116332697D01*
X106244435Y-116550193D01*
X106352803Y-116751575D01*
X106352807Y-116751582D01*
X106495397Y-116930383D01*
X106667617Y-117080847D01*
X106863933Y-117198141D01*
X106863936Y-117198142D01*
X106863941Y-117198145D01*
X106876301Y-117202783D01*
X106933049Y-117245445D01*
X106957725Y-117312016D01*
X106942493Y-117381359D01*
X106892189Y-117431459D01*
X106886698Y-117434271D01*
X106763148Y-117493769D01*
X106763145Y-117493771D01*
X106578127Y-117628194D01*
X106578126Y-117628195D01*
X106420087Y-117793490D01*
X106294102Y-117984350D01*
X106294098Y-117984358D01*
X106204217Y-118194644D01*
X106204216Y-118194646D01*
X106153328Y-118417603D01*
X106153328Y-118417605D01*
X106148712Y-118520392D01*
X106143067Y-118646069D01*
X106167114Y-118823586D01*
X106173767Y-118872697D01*
X106244435Y-119090193D01*
X106352803Y-119291575D01*
X106352807Y-119291582D01*
X106495397Y-119470383D01*
X106667617Y-119620847D01*
X106863933Y-119738141D01*
X106863938Y-119738143D01*
X106863941Y-119738145D01*
X106863945Y-119738146D01*
X106863944Y-119738146D01*
X107078051Y-119818503D01*
X107303068Y-119859338D01*
X107303071Y-119859338D01*
X108998466Y-119859338D01*
X108998472Y-119859338D01*
X109169191Y-119843973D01*
X109389644Y-119783132D01*
X109595690Y-119683905D01*
X109681719Y-119621401D01*
X109748588Y-119597543D01*
X109755780Y-119597338D01*
X112232344Y-119597338D01*
X112300465Y-119617340D01*
X112305901Y-119621342D01*
X112305962Y-119621256D01*
X112503492Y-119759567D01*
X112503491Y-119759567D01*
X112554784Y-119783485D01*
X112717060Y-119859156D01*
X112944673Y-119920144D01*
X113179418Y-119940682D01*
X113414163Y-119920144D01*
X113641776Y-119859156D01*
X113855340Y-119759569D01*
X113855343Y-119759567D01*
X114048362Y-119624415D01*
X114048364Y-119624412D01*
X114048367Y-119624411D01*
X114214991Y-119457787D01*
X114257508Y-119397067D01*
X114350147Y-119264763D01*
X114350147Y-119264762D01*
X114350149Y-119264760D01*
X114449736Y-119051196D01*
X114510724Y-118823583D01*
X114531262Y-118588838D01*
X114510724Y-118354093D01*
X114449736Y-118126480D01*
X114350149Y-117912916D01*
X114350148Y-117912915D01*
X114350147Y-117912912D01*
X114214995Y-117719893D01*
X114214986Y-117719883D01*
X114048372Y-117553269D01*
X114048369Y-117553267D01*
X114048368Y-117553267D01*
X114048367Y-117553265D01*
X113860971Y-117422050D01*
X113816644Y-117366595D01*
X113809335Y-117295975D01*
X113841365Y-117232615D01*
X113860968Y-117215627D01*
X114048367Y-117084411D01*
X114214991Y-116917787D01*
X114266528Y-116844185D01*
X114350147Y-116724763D01*
X114350147Y-116724762D01*
X114350149Y-116724760D01*
X114449736Y-116511196D01*
X114510724Y-116283583D01*
X114531262Y-116048838D01*
X114510724Y-115814093D01*
X114449736Y-115586480D01*
X114350149Y-115372916D01*
X114350148Y-115372915D01*
X114350147Y-115372912D01*
X114214995Y-115179893D01*
X114214986Y-115179883D01*
X114048372Y-115013269D01*
X114048369Y-115013267D01*
X114048367Y-115013265D01*
X113860971Y-114882050D01*
X113816644Y-114826595D01*
X113809335Y-114755975D01*
X113841365Y-114692615D01*
X113860968Y-114675627D01*
X114048367Y-114544411D01*
X114214991Y-114377787D01*
X114219394Y-114371500D01*
X114350147Y-114184763D01*
X114350147Y-114184762D01*
X114350149Y-114184760D01*
X114449736Y-113971196D01*
X114510724Y-113743583D01*
X114531262Y-113508838D01*
X114510724Y-113274093D01*
X114508054Y-113264130D01*
X114468001Y-113114646D01*
X114449736Y-113046480D01*
X114350149Y-112832916D01*
X114350148Y-112832915D01*
X114350147Y-112832912D01*
X114214995Y-112639893D01*
X114214986Y-112639883D01*
X114048372Y-112473269D01*
X114048369Y-112473267D01*
X114048367Y-112473265D01*
X113860971Y-112342050D01*
X113816644Y-112286595D01*
X113809335Y-112215975D01*
X113841365Y-112152615D01*
X113860968Y-112135627D01*
X114048367Y-112004411D01*
X114214991Y-111837787D01*
X114233855Y-111810847D01*
X114350147Y-111644763D01*
X114350147Y-111644762D01*
X114350149Y-111644760D01*
X114449736Y-111431196D01*
X114510724Y-111203583D01*
X114531262Y-110968838D01*
X114510724Y-110734093D01*
X114449736Y-110506480D01*
X114350149Y-110292916D01*
X114350148Y-110292915D01*
X114350147Y-110292912D01*
X114214995Y-110099893D01*
X114214986Y-110099883D01*
X114048372Y-109933269D01*
X114048369Y-109933267D01*
X114048367Y-109933265D01*
X113860971Y-109802050D01*
X113816644Y-109746595D01*
X113809335Y-109675975D01*
X113841365Y-109612615D01*
X113860968Y-109595627D01*
X114048367Y-109464411D01*
X114214991Y-109297787D01*
X114242567Y-109258405D01*
X114350147Y-109104763D01*
X114350147Y-109104762D01*
X114350149Y-109104760D01*
X114449736Y-108891196D01*
X114510724Y-108663583D01*
X114531262Y-108428838D01*
X114510724Y-108194093D01*
X114508054Y-108184130D01*
X114468001Y-108034646D01*
X114449736Y-107966480D01*
X114350149Y-107752916D01*
X114350148Y-107752915D01*
X114350147Y-107752912D01*
X114214995Y-107559893D01*
X114214986Y-107559883D01*
X114048372Y-107393269D01*
X114048362Y-107393260D01*
X113855343Y-107258108D01*
X113855344Y-107258108D01*
X113641778Y-107158521D01*
X113641774Y-107158519D01*
X113414166Y-107097532D01*
X113179418Y-107076994D01*
X112944669Y-107097532D01*
X112717061Y-107158519D01*
X112717057Y-107158521D01*
X112503492Y-107258108D01*
X112310473Y-107393260D01*
X112310463Y-107393269D01*
X112143849Y-107559883D01*
X112143840Y-107559893D01*
X112034109Y-107716608D01*
X111978652Y-107760937D01*
X111930896Y-107770338D01*
X110101990Y-107770338D01*
X110033869Y-107750336D01*
X110003479Y-107722898D01*
X109991866Y-107708336D01*
X109863440Y-107547294D01*
X109830081Y-107518149D01*
X109691218Y-107396828D01*
X109494902Y-107279534D01*
X109494891Y-107279529D01*
X109280784Y-107199172D01*
X109055768Y-107158338D01*
X109055765Y-107158338D01*
X107360364Y-107158338D01*
X107326472Y-107161388D01*
X107189644Y-107173702D01*
X107189642Y-107173703D01*
X106969200Y-107234541D01*
X106969186Y-107234546D01*
X106763152Y-107333767D01*
X106763145Y-107333771D01*
X106578127Y-107468194D01*
X106578126Y-107468195D01*
X106420087Y-107633490D01*
X106294102Y-107824350D01*
X106294098Y-107824358D01*
X106204217Y-108034644D01*
X106204216Y-108034646D01*
X106153328Y-108257603D01*
X106153328Y-108257605D01*
X106144546Y-108453146D01*
X106143067Y-108486069D01*
X106173062Y-108707495D01*
X106173767Y-108712697D01*
X106244435Y-108930193D01*
X106352803Y-109131575D01*
X106352808Y-109131583D01*
X106362652Y-109143926D01*
X106383740Y-109170370D01*
X106410575Y-109236099D01*
X106397614Y-109305902D01*
X106374325Y-109338025D01*
X105203595Y-110508756D01*
X105141283Y-110542781D01*
X105070468Y-110537717D01*
X105013632Y-110495170D01*
X104988821Y-110428650D01*
X104988500Y-110419661D01*
X104988500Y-106868906D01*
X104984066Y-106849482D01*
X104979118Y-106827802D01*
X104977935Y-106820834D01*
X104976319Y-106806489D01*
X104973217Y-106778953D01*
X104959293Y-106739162D01*
X104957338Y-106732374D01*
X104947959Y-106691280D01*
X104929661Y-106653284D01*
X104926968Y-106646782D01*
X104913043Y-106606985D01*
X104890609Y-106571282D01*
X104887195Y-106565103D01*
X104875605Y-106541036D01*
X104868909Y-106527131D01*
X104868907Y-106527128D01*
X104842626Y-106494172D01*
X104838534Y-106488406D01*
X104816109Y-106452716D01*
X104802487Y-106439094D01*
X104768461Y-106376782D01*
X104773526Y-106305967D01*
X104802484Y-106260907D01*
X104893803Y-106169589D01*
X104893803Y-106169588D01*
X104911526Y-106151866D01*
X104911526Y-106151864D01*
X104926111Y-106137281D01*
X104948542Y-106101580D01*
X104952615Y-106095838D01*
X104978909Y-106062870D01*
X104997205Y-106024875D01*
X105000608Y-106018718D01*
X105023043Y-105983015D01*
X105036969Y-105943213D01*
X105039664Y-105936709D01*
X105056560Y-105901626D01*
X105057957Y-105898726D01*
X105057957Y-105898725D01*
X105057956Y-105898725D01*
X105057959Y-105898721D01*
X105067339Y-105857616D01*
X105069293Y-105850835D01*
X105083217Y-105811047D01*
X105087935Y-105769163D01*
X105089119Y-105762193D01*
X105093955Y-105741007D01*
X105098500Y-105721097D01*
X105098500Y-105538904D01*
X105098500Y-99568822D01*
X105098501Y-99568814D01*
X105098501Y-99378904D01*
X105095077Y-99363904D01*
X105089115Y-99337782D01*
X105087935Y-99330832D01*
X105085603Y-99310135D01*
X105083217Y-99288953D01*
X105072438Y-99258149D01*
X105069294Y-99249164D01*
X105067338Y-99242377D01*
X105057959Y-99201280D01*
X105039661Y-99163284D01*
X105036968Y-99156782D01*
X105023043Y-99116985D01*
X105000609Y-99081282D01*
X104997195Y-99075103D01*
X104985491Y-99050800D01*
X104978909Y-99037131D01*
X104965648Y-99020502D01*
X104952626Y-99004172D01*
X104948534Y-98998406D01*
X104931679Y-98971581D01*
X104926111Y-98962719D01*
X104797281Y-98833889D01*
X104087171Y-98123779D01*
X104054863Y-98091471D01*
X104035156Y-98079088D01*
X104019173Y-98069045D01*
X104013407Y-98064954D01*
X103980453Y-98038674D01*
X103980449Y-98038671D01*
X103942472Y-98020382D01*
X103936284Y-98016962D01*
X103900597Y-97994539D01*
X103900597Y-97994538D01*
X103860808Y-97980616D01*
X103854280Y-97977912D01*
X103816306Y-97959624D01*
X103816299Y-97959622D01*
X103775202Y-97950241D01*
X103768412Y-97948284D01*
X103728634Y-97934366D01*
X103728628Y-97934364D01*
X103686738Y-97929644D01*
X103679769Y-97928460D01*
X103638681Y-97919082D01*
X103638679Y-97919082D01*
X103592988Y-97919082D01*
X103202429Y-97919082D01*
X103134308Y-97899080D01*
X103098549Y-97863587D01*
X103098517Y-97863613D01*
X103098319Y-97863359D01*
X103096944Y-97861994D01*
X103095314Y-97859499D01*
X103095311Y-97859496D01*
X103095310Y-97859494D01*
X102937225Y-97687768D01*
X102937221Y-97687764D01*
X102837479Y-97610132D01*
X102753017Y-97544392D01*
X102547727Y-97433295D01*
X102547724Y-97433294D01*
X102547723Y-97433293D01*
X102326955Y-97357503D01*
X102326948Y-97357501D01*
X102224218Y-97340359D01*
X102096712Y-97319082D01*
X101863288Y-97319082D01*
X101748066Y-97338309D01*
X101633051Y-97357501D01*
X101633044Y-97357503D01*
X101412276Y-97433293D01*
X101412273Y-97433295D01*
X101206985Y-97544391D01*
X101206983Y-97544392D01*
X101022778Y-97687764D01*
X101022774Y-97687768D01*
X100864689Y-97859494D01*
X100864685Y-97859499D01*
X100864686Y-97859499D01*
X100863056Y-97861993D01*
X100862124Y-97862788D01*
X100861483Y-97863613D01*
X100861313Y-97863481D01*
X100809056Y-97908083D01*
X100757571Y-97919082D01*
X89188903Y-97919082D01*
X89147810Y-97928460D01*
X89140844Y-97929643D01*
X89098953Y-97934364D01*
X89098943Y-97934367D01*
X89059166Y-97948285D01*
X89052376Y-97950242D01*
X89011283Y-97959622D01*
X89011279Y-97959623D01*
X88987057Y-97971287D01*
X88973300Y-97977912D01*
X88966771Y-97980616D01*
X88926983Y-97994539D01*
X88891295Y-98016964D01*
X88885108Y-98020383D01*
X88847130Y-98038673D01*
X88814177Y-98064951D01*
X88808414Y-98069040D01*
X88772721Y-98091468D01*
X88740411Y-98123779D01*
X88643889Y-98220301D01*
X88643887Y-98220303D01*
X88396540Y-98467650D01*
X88338375Y-98525815D01*
X88276063Y-98559840D01*
X88205247Y-98554775D01*
X88148412Y-98512228D01*
X88127137Y-98467655D01*
X88076749Y-98268675D01*
X87982984Y-98054913D01*
X87962863Y-98024116D01*
X87855314Y-97859498D01*
X87697225Y-97687768D01*
X87697221Y-97687764D01*
X87597479Y-97610132D01*
X87513017Y-97544392D01*
X87307727Y-97433295D01*
X87307724Y-97433294D01*
X87307723Y-97433293D01*
X87086955Y-97357503D01*
X87086948Y-97357501D01*
X86984218Y-97340359D01*
X86856712Y-97319082D01*
X86623288Y-97319082D01*
X86508066Y-97338309D01*
X86393051Y-97357501D01*
X86393044Y-97357503D01*
X86172276Y-97433293D01*
X86172273Y-97433295D01*
X85966985Y-97544391D01*
X85966983Y-97544392D01*
X85782778Y-97687764D01*
X85782774Y-97687768D01*
X85624685Y-97859498D01*
X85497015Y-98054913D01*
X85403252Y-98268671D01*
X85403249Y-98268678D01*
X85345950Y-98494948D01*
X85345949Y-98494954D01*
X85345949Y-98494956D01*
X85326673Y-98727582D01*
X85344669Y-98944763D01*
X85345950Y-98960215D01*
X85403249Y-99186485D01*
X85403252Y-99186492D01*
X85497015Y-99400250D01*
X85624685Y-99595665D01*
X85782774Y-99767395D01*
X85782785Y-99767405D01*
X85950766Y-99898151D01*
X85992237Y-99955776D01*
X85995970Y-100026674D01*
X85960780Y-100088336D01*
X85950766Y-100097013D01*
X85782785Y-100227758D01*
X85782774Y-100227768D01*
X85624685Y-100399498D01*
X85497015Y-100594913D01*
X85403252Y-100808671D01*
X85403249Y-100808678D01*
X85345950Y-101034948D01*
X85345949Y-101034954D01*
X85345949Y-101034956D01*
X85326673Y-101267582D01*
X80858500Y-101267582D01*
X80858500Y-99204262D01*
X80878502Y-99136141D01*
X80883624Y-99128763D01*
X80900889Y-99105701D01*
X80951989Y-98968698D01*
X80953314Y-98956381D01*
X80958499Y-98908146D01*
X80958500Y-98908129D01*
X80958500Y-96810864D01*
X80958499Y-96810847D01*
X80951990Y-96750300D01*
X80951988Y-96750292D01*
X80900889Y-96613294D01*
X80900887Y-96613289D01*
X80813261Y-96496235D01*
X80696207Y-96408609D01*
X80696202Y-96408607D01*
X80559204Y-96357508D01*
X80559196Y-96357506D01*
X80498649Y-96350997D01*
X80498638Y-96350997D01*
X78701362Y-96350997D01*
X78701350Y-96350997D01*
X78640803Y-96357506D01*
X78640795Y-96357508D01*
X78503797Y-96408607D01*
X78503792Y-96408609D01*
X78386738Y-96496235D01*
X78299112Y-96613289D01*
X78299110Y-96613294D01*
X78248011Y-96750292D01*
X78248010Y-96750298D01*
X78247376Y-96756197D01*
X78220204Y-96821788D01*
X78161885Y-96862277D01*
X78090933Y-96864809D01*
X78029877Y-96828580D01*
X78010224Y-96800692D01*
X77960111Y-96703977D01*
X77949879Y-96689482D01*
X77896099Y-96613293D01*
X77801657Y-96479498D01*
X77614111Y-96278686D01*
X77400969Y-96105282D01*
X77166200Y-95962516D01*
X77166201Y-95962516D01*
X77166197Y-95962514D01*
X76914180Y-95853048D01*
X76914178Y-95853047D01*
X76914177Y-95853047D01*
X76675129Y-95786069D01*
X76649593Y-95778914D01*
X76377395Y-95741500D01*
X76377385Y-95741500D01*
X76102615Y-95741500D01*
X76102604Y-95741500D01*
X75830406Y-95778914D01*
X75565819Y-95853048D01*
X75313802Y-95962514D01*
X75079028Y-96105284D01*
X74865886Y-96278688D01*
X74678343Y-96479498D01*
X74519892Y-96703971D01*
X74393477Y-96947941D01*
X74301462Y-97206845D01*
X74301460Y-97206853D01*
X74267246Y-97371500D01*
X74254406Y-97433295D01*
X74245557Y-97475877D01*
X74245556Y-97475883D01*
X74226807Y-97749995D01*
X74226807Y-97750004D01*
X74245556Y-98024116D01*
X74245557Y-98024122D01*
X74245558Y-98024130D01*
X74276217Y-98171670D01*
X74301460Y-98293146D01*
X74301462Y-98293154D01*
X74313160Y-98326069D01*
X74393477Y-98552058D01*
X74486298Y-98731196D01*
X74519892Y-98796028D01*
X74546618Y-98833890D01*
X74678343Y-99020502D01*
X74799643Y-99150382D01*
X74847177Y-99201279D01*
X74865889Y-99221314D01*
X75079031Y-99394718D01*
X75311495Y-99536082D01*
X75313802Y-99537485D01*
X75368172Y-99561101D01*
X75565823Y-99646953D01*
X75830404Y-99721085D01*
X75925504Y-99734156D01*
X76102604Y-99758499D01*
X76102615Y-99758500D01*
X76377385Y-99758500D01*
X76377395Y-99758499D01*
X76506945Y-99740692D01*
X76649596Y-99721085D01*
X76914177Y-99646953D01*
X77166200Y-99537484D01*
X77400969Y-99394718D01*
X77614111Y-99221314D01*
X77801657Y-99020502D01*
X77960111Y-98796023D01*
X78003627Y-98712039D01*
X78052726Y-98660760D01*
X78121755Y-98644164D01*
X78188799Y-98667524D01*
X78232571Y-98723421D01*
X78241500Y-98770009D01*
X78241500Y-98908146D01*
X78248009Y-98968693D01*
X78283625Y-99064183D01*
X78299111Y-99105701D01*
X78316367Y-99128752D01*
X78341179Y-99195271D01*
X78341500Y-99204262D01*
X78341500Y-102014594D01*
X78321498Y-102082715D01*
X78267842Y-102129208D01*
X78197568Y-102139312D01*
X78132988Y-102109818D01*
X78096776Y-102056791D01*
X78086523Y-102027942D01*
X77960111Y-101783977D01*
X77949879Y-101769482D01*
X77894045Y-101690383D01*
X77801657Y-101559498D01*
X77614111Y-101358686D01*
X77400969Y-101185282D01*
X77166200Y-101042516D01*
X77166201Y-101042516D01*
X77166197Y-101042514D01*
X76914180Y-100933048D01*
X76914178Y-100933047D01*
X76914177Y-100933047D01*
X76675129Y-100866069D01*
X76649593Y-100858914D01*
X76377395Y-100821500D01*
X76377385Y-100821500D01*
X76102615Y-100821500D01*
X76102604Y-100821500D01*
X75830406Y-100858914D01*
X75565819Y-100933048D01*
X75313802Y-101042514D01*
X75079028Y-101185284D01*
X74865886Y-101358688D01*
X74678343Y-101559498D01*
X74519892Y-101783971D01*
X74393477Y-102027941D01*
X74301462Y-102286845D01*
X74301460Y-102286853D01*
X74272553Y-102425962D01*
X74249359Y-102537582D01*
X74245557Y-102555877D01*
X74245556Y-102555883D01*
X74226807Y-102829995D01*
X74226807Y-102830004D01*
X74237839Y-102991289D01*
X74222532Y-103060616D01*
X74201228Y-103088982D01*
X72062585Y-105227626D01*
X72057314Y-105232337D01*
X72026779Y-105256687D01*
X71981540Y-105308468D01*
X71978649Y-105311561D01*
X71970139Y-105320071D01*
X71943398Y-105352102D01*
X71942481Y-105353175D01*
X71877736Y-105427282D01*
X71877734Y-105427285D01*
X71875526Y-105430981D01*
X71864098Y-105447087D01*
X71861330Y-105450405D01*
X71861323Y-105450414D01*
X71812746Y-105536024D01*
X71812035Y-105537244D01*
X71761551Y-105621741D01*
X71761546Y-105621752D01*
X71760029Y-105625794D01*
X71751665Y-105643671D01*
X71749536Y-105647424D01*
X71749529Y-105647438D01*
X71717032Y-105740313D01*
X71716550Y-105741642D01*
X71681949Y-105833838D01*
X71681948Y-105833841D01*
X71681179Y-105838080D01*
X71676138Y-105857180D01*
X71674714Y-105861248D01*
X71674713Y-105861254D01*
X71659306Y-105958519D01*
X71659069Y-105959910D01*
X71641500Y-106056729D01*
X71641500Y-106061034D01*
X71639949Y-106080743D01*
X71639275Y-106084995D01*
X71639275Y-106085000D01*
X71641173Y-106169588D01*
X71641484Y-106183416D01*
X71641500Y-106184830D01*
X71641500Y-111514730D01*
X71621498Y-111582851D01*
X71616369Y-111590238D01*
X71599112Y-111613290D01*
X71599110Y-111613294D01*
X71548011Y-111750292D01*
X71548009Y-111750300D01*
X71541500Y-111810847D01*
X71541500Y-113908146D01*
X69798423Y-113908146D01*
X69894413Y-75237605D01*
X69897892Y-73836149D01*
X73599000Y-73836149D01*
X73605509Y-73896696D01*
X73605511Y-73896704D01*
X73656610Y-74033702D01*
X73656612Y-74033707D01*
X73744238Y-74150761D01*
X73861292Y-74238387D01*
X73861294Y-74238388D01*
X73861296Y-74238389D01*
X73896338Y-74251459D01*
X73998295Y-74289488D01*
X73998303Y-74289490D01*
X74058850Y-74295999D01*
X74058855Y-74295999D01*
X74058862Y-74296000D01*
X74058868Y-74296000D01*
X75731132Y-74296000D01*
X75731138Y-74296000D01*
X75731145Y-74295999D01*
X75731149Y-74295999D01*
X75791696Y-74289490D01*
X75791699Y-74289489D01*
X75791701Y-74289489D01*
X75928704Y-74238389D01*
X75929080Y-74238108D01*
X76045761Y-74150761D01*
X76133387Y-74033707D01*
X76133387Y-74033706D01*
X76133389Y-74033704D01*
X76184489Y-73896701D01*
X76184668Y-73895042D01*
X76190999Y-73836149D01*
X76191000Y-73836132D01*
X76191000Y-72163867D01*
X76190999Y-72163850D01*
X76184490Y-72103303D01*
X76184488Y-72103295D01*
X76138363Y-71979633D01*
X76133389Y-71966296D01*
X76133388Y-71966294D01*
X76133387Y-71966292D01*
X76045761Y-71849238D01*
X75928707Y-71761612D01*
X75928702Y-71761610D01*
X75791704Y-71710511D01*
X75791696Y-71710509D01*
X75731149Y-71704000D01*
X75731138Y-71704000D01*
X74058862Y-71704000D01*
X74058850Y-71704000D01*
X73998303Y-71710509D01*
X73998295Y-71710511D01*
X73861297Y-71761610D01*
X73861292Y-71761612D01*
X73744238Y-71849238D01*
X73656612Y-71966292D01*
X73656610Y-71966297D01*
X73605511Y-72103295D01*
X73605509Y-72103303D01*
X73599000Y-72163850D01*
X73599000Y-73836149D01*
X69897892Y-73836149D01*
X69929060Y-61280004D01*
X72542210Y-61280004D01*
X72561327Y-61486310D01*
X72611902Y-61664064D01*
X72618030Y-61685599D01*
X72702110Y-61854455D01*
X72710386Y-61871075D01*
X72835246Y-62036418D01*
X72988368Y-62176006D01*
X72988369Y-62176007D01*
X73164517Y-62285073D01*
X73164520Y-62285074D01*
X73164529Y-62285080D01*
X73357734Y-62359928D01*
X73561402Y-62398000D01*
X73561404Y-62398000D01*
X73768596Y-62398000D01*
X73768598Y-62398000D01*
X73972266Y-62359928D01*
X74165471Y-62285080D01*
X74341632Y-62176006D01*
X74494752Y-62036419D01*
X74593310Y-61905905D01*
X74650323Y-61863599D01*
X74721159Y-61858831D01*
X74782955Y-61892743D01*
X80270065Y-67379854D01*
X80270074Y-67379862D01*
X80400408Y-67488672D01*
X80597429Y-67600466D01*
X80597433Y-67600468D01*
X80811255Y-67675288D01*
X81035000Y-67710725D01*
X81261477Y-67705642D01*
X81483407Y-67660201D01*
X81693657Y-67575865D01*
X81693658Y-67575863D01*
X81693661Y-67575863D01*
X81885464Y-67455344D01*
X81885466Y-67455343D01*
X81885466Y-67455342D01*
X81885469Y-67455341D01*
X82052678Y-67302505D01*
X82189910Y-67122269D01*
X82292754Y-66920426D01*
X82357905Y-66703463D01*
X82383269Y-66478352D01*
X82368030Y-66252332D01*
X82312679Y-66032664D01*
X82218994Y-65826410D01*
X82218993Y-65826409D01*
X82218990Y-65826403D01*
X82110089Y-65669215D01*
X82089986Y-65640198D01*
X82089980Y-65640192D01*
X82089976Y-65640187D01*
X79005799Y-62556011D01*
X78971773Y-62493699D01*
X78976838Y-62422884D01*
X79019385Y-62366048D01*
X79049373Y-62349426D01*
X79215471Y-62285080D01*
X79391632Y-62176006D01*
X79544752Y-62036419D01*
X79567705Y-62006025D01*
X79617619Y-61939927D01*
X79669615Y-61871073D01*
X79761970Y-61685599D01*
X79818672Y-61486312D01*
X79835069Y-61309362D01*
X79837790Y-61280004D01*
X82362210Y-61280004D01*
X82381327Y-61486310D01*
X82431902Y-61664064D01*
X82438030Y-61685599D01*
X82522110Y-61854455D01*
X82530386Y-61871075D01*
X82655246Y-62036418D01*
X82808368Y-62176006D01*
X82808369Y-62176007D01*
X82984517Y-62285073D01*
X82984520Y-62285074D01*
X82984529Y-62285080D01*
X83177734Y-62359928D01*
X83381402Y-62398000D01*
X83381404Y-62398000D01*
X83588596Y-62398000D01*
X83588598Y-62398000D01*
X83792266Y-62359928D01*
X83985471Y-62285080D01*
X84161632Y-62176006D01*
X84314752Y-62036419D01*
X84337705Y-62006025D01*
X84387619Y-61939927D01*
X84439615Y-61871073D01*
X84531970Y-61685599D01*
X84588672Y-61486312D01*
X84605069Y-61309362D01*
X84607790Y-61280004D01*
X87412210Y-61280004D01*
X87431327Y-61486310D01*
X87481902Y-61664064D01*
X87488030Y-61685599D01*
X87572110Y-61854455D01*
X87580386Y-61871075D01*
X87705246Y-62036418D01*
X87858368Y-62176006D01*
X87858369Y-62176007D01*
X88034517Y-62285073D01*
X88034520Y-62285074D01*
X88034529Y-62285080D01*
X88227734Y-62359928D01*
X88431402Y-62398000D01*
X88431404Y-62398000D01*
X88638596Y-62398000D01*
X88638598Y-62398000D01*
X88842266Y-62359928D01*
X89035471Y-62285080D01*
X89211632Y-62176006D01*
X89364752Y-62036419D01*
X89387705Y-62006025D01*
X89437619Y-61939927D01*
X89489615Y-61871073D01*
X89581970Y-61685599D01*
X89638672Y-61486312D01*
X89655069Y-61309362D01*
X89657790Y-61280004D01*
X89657790Y-61279995D01*
X89638672Y-61073689D01*
X89637945Y-61071135D01*
X89581970Y-60874401D01*
X89489615Y-60688927D01*
X89489613Y-60688924D01*
X89364753Y-60523581D01*
X89211631Y-60383993D01*
X89211630Y-60383992D01*
X89035482Y-60274926D01*
X89035475Y-60274922D01*
X89035471Y-60274920D01*
X89016873Y-60267715D01*
X88842269Y-60200073D01*
X88842268Y-60200072D01*
X88842266Y-60200072D01*
X88638598Y-60162000D01*
X88431402Y-60162000D01*
X88227734Y-60200072D01*
X88227732Y-60200072D01*
X88227730Y-60200073D01*
X88034533Y-60274918D01*
X88034517Y-60274926D01*
X87858369Y-60383992D01*
X87858368Y-60383993D01*
X87705246Y-60523581D01*
X87580386Y-60688924D01*
X87488030Y-60874401D01*
X87488027Y-60874409D01*
X87431327Y-61073689D01*
X87412210Y-61279995D01*
X87412210Y-61280004D01*
X84607790Y-61280004D01*
X84607790Y-61279995D01*
X84588672Y-61073689D01*
X84587945Y-61071135D01*
X84531970Y-60874401D01*
X84439615Y-60688927D01*
X84439613Y-60688924D01*
X84314753Y-60523581D01*
X84161631Y-60383993D01*
X84161630Y-60383992D01*
X83985482Y-60274926D01*
X83985475Y-60274922D01*
X83985471Y-60274920D01*
X83966873Y-60267715D01*
X83792269Y-60200073D01*
X83792268Y-60200072D01*
X83792266Y-60200072D01*
X83588598Y-60162000D01*
X83381402Y-60162000D01*
X83177734Y-60200072D01*
X83177732Y-60200072D01*
X83177730Y-60200073D01*
X82984533Y-60274918D01*
X82984517Y-60274926D01*
X82808369Y-60383992D01*
X82808368Y-60383993D01*
X82655246Y-60523581D01*
X82530386Y-60688924D01*
X82438030Y-60874401D01*
X82438027Y-60874409D01*
X82381327Y-61073689D01*
X82362210Y-61279995D01*
X82362210Y-61280004D01*
X79837790Y-61280004D01*
X79837790Y-61279995D01*
X79818672Y-61073689D01*
X79817945Y-61071135D01*
X79761970Y-60874401D01*
X79669615Y-60688927D01*
X79669613Y-60688924D01*
X79544753Y-60523581D01*
X79391631Y-60383993D01*
X79391630Y-60383992D01*
X79215482Y-60274926D01*
X79215475Y-60274922D01*
X79215471Y-60274920D01*
X79196873Y-60267715D01*
X79022269Y-60200073D01*
X79022268Y-60200072D01*
X79022266Y-60200072D01*
X78818598Y-60162000D01*
X78611402Y-60162000D01*
X78407734Y-60200072D01*
X78407732Y-60200072D01*
X78407730Y-60200073D01*
X78214533Y-60274918D01*
X78214517Y-60274926D01*
X78038369Y-60383992D01*
X78038368Y-60383993D01*
X77885246Y-60523581D01*
X77760386Y-60688924D01*
X77668030Y-60874401D01*
X77668028Y-60874406D01*
X77650544Y-60935858D01*
X77612663Y-60995904D01*
X77548333Y-61025938D01*
X77477976Y-61016425D01*
X77440259Y-60990471D01*
X75505405Y-59055617D01*
X75471379Y-58993305D01*
X75468500Y-58966522D01*
X75468500Y-52687200D01*
X75488502Y-52619079D01*
X75505405Y-52598105D01*
X75989527Y-52113983D01*
X76572499Y-51531010D01*
X76630670Y-51497960D01*
X76635408Y-51496759D01*
X76635426Y-51496757D01*
X76867957Y-51416929D01*
X77084178Y-51299916D01*
X77278191Y-51148910D01*
X77444702Y-50968030D01*
X77579171Y-50762211D01*
X77677928Y-50537065D01*
X77728559Y-50337131D01*
X77738280Y-50298746D01*
X77738281Y-50298740D01*
X77738281Y-50298739D01*
X77738282Y-50298736D01*
X77758584Y-50053723D01*
X77738282Y-49808710D01*
X77738281Y-49808705D01*
X77738280Y-49808699D01*
X77677928Y-49570382D01*
X77656051Y-49520507D01*
X77579171Y-49345235D01*
X77444702Y-49139416D01*
X77293218Y-48974860D01*
X77278193Y-48958538D01*
X77278192Y-48958537D01*
X77278191Y-48958536D01*
X77084178Y-48807530D01*
X77084177Y-48807529D01*
X76867956Y-48690516D01*
X76867954Y-48690515D01*
X76635430Y-48610690D01*
X76635423Y-48610688D01*
X76531638Y-48593370D01*
X76392926Y-48570223D01*
X76147074Y-48570223D01*
X76025716Y-48590474D01*
X75904576Y-48610688D01*
X75904569Y-48610690D01*
X75672045Y-48690515D01*
X75672043Y-48690516D01*
X75455822Y-48807529D01*
X75455821Y-48807530D01*
X75261806Y-48958538D01*
X75095297Y-49139416D01*
X74960829Y-49345235D01*
X74862072Y-49570381D01*
X74862070Y-49570384D01*
X74832782Y-49686038D01*
X74799733Y-49744200D01*
X73372585Y-51171349D01*
X73367314Y-51176060D01*
X73336779Y-51200410D01*
X73291540Y-51252191D01*
X73288649Y-51255284D01*
X73280139Y-51263794D01*
X73253398Y-51295825D01*
X73252481Y-51296898D01*
X73187736Y-51371005D01*
X73187734Y-51371008D01*
X73185526Y-51374704D01*
X73174098Y-51390810D01*
X73171330Y-51394128D01*
X73171323Y-51394137D01*
X73122746Y-51479747D01*
X73122035Y-51480967D01*
X73071551Y-51565464D01*
X73071546Y-51565475D01*
X73070029Y-51569517D01*
X73061665Y-51587394D01*
X73059536Y-51591147D01*
X73059529Y-51591161D01*
X73027032Y-51684036D01*
X73026550Y-51685365D01*
X72991949Y-51777561D01*
X72991948Y-51777564D01*
X72991179Y-51781803D01*
X72986138Y-51800903D01*
X72984714Y-51804971D01*
X72984713Y-51804977D01*
X72969306Y-51902242D01*
X72969069Y-51903633D01*
X72951500Y-52000452D01*
X72951500Y-52004757D01*
X72949949Y-52024466D01*
X72949275Y-52028718D01*
X72949275Y-52028725D01*
X72951484Y-52127139D01*
X72951500Y-52128553D01*
X72951500Y-59465779D01*
X72951104Y-59472837D01*
X72946731Y-59511647D01*
X72951357Y-59580269D01*
X72951500Y-59584507D01*
X72951500Y-59596529D01*
X72955234Y-59638031D01*
X72955345Y-59639436D01*
X72961968Y-59737660D01*
X72961969Y-59737667D01*
X72961970Y-59737668D01*
X72963023Y-59741849D01*
X72966331Y-59761318D01*
X72966718Y-59765622D01*
X72992899Y-59860486D01*
X72993260Y-59861852D01*
X73001335Y-59893895D01*
X73016263Y-59953140D01*
X73017322Y-59957339D01*
X73019103Y-59961260D01*
X73025841Y-59979847D01*
X73026986Y-59983993D01*
X73069703Y-60072696D01*
X73070285Y-60073940D01*
X73111004Y-60163586D01*
X73111820Y-60165023D01*
X73111994Y-60165764D01*
X73113347Y-60168743D01*
X73112756Y-60169011D01*
X73128044Y-60234141D01*
X73104325Y-60301059D01*
X73068566Y-60334337D01*
X72988366Y-60383994D01*
X72835246Y-60523581D01*
X72710386Y-60688924D01*
X72618030Y-60874401D01*
X72618027Y-60874409D01*
X72561327Y-61073689D01*
X72542210Y-61279995D01*
X72542210Y-61280004D01*
X69929060Y-61280004D01*
X69975308Y-42648649D01*
X77171500Y-42648649D01*
X77178009Y-42709196D01*
X77178011Y-42709204D01*
X77229110Y-42846202D01*
X77229112Y-42846207D01*
X77316738Y-42963261D01*
X77433792Y-43050887D01*
X77433794Y-43050888D01*
X77433796Y-43050889D01*
X77492875Y-43072924D01*
X77570795Y-43101988D01*
X77570803Y-43101990D01*
X77631350Y-43108499D01*
X77631355Y-43108499D01*
X77631362Y-43108500D01*
X77631368Y-43108500D01*
X79528632Y-43108500D01*
X79528638Y-43108500D01*
X79528645Y-43108499D01*
X79528649Y-43108499D01*
X79589196Y-43101990D01*
X79589199Y-43101989D01*
X79589201Y-43101989D01*
X79726204Y-43050889D01*
X79735812Y-43043697D01*
X79843261Y-42963261D01*
X79930887Y-42846207D01*
X79930887Y-42846206D01*
X79930889Y-42846204D01*
X79981989Y-42709201D01*
X79981998Y-42709126D01*
X79988499Y-42648649D01*
X79988500Y-42648632D01*
X79988500Y-38151367D01*
X79988499Y-38151350D01*
X79981990Y-38090803D01*
X79981988Y-38090795D01*
X79948483Y-38000968D01*
X79930889Y-37953796D01*
X79930888Y-37953794D01*
X79930887Y-37953792D01*
X79843261Y-37836738D01*
X79726207Y-37749112D01*
X79726202Y-37749110D01*
X79589204Y-37698011D01*
X79589196Y-37698009D01*
X79528649Y-37691500D01*
X79528638Y-37691500D01*
X77631362Y-37691500D01*
X77631350Y-37691500D01*
X77570803Y-37698009D01*
X77570795Y-37698011D01*
X77433797Y-37749110D01*
X77433792Y-37749112D01*
X77316738Y-37836738D01*
X77229112Y-37953792D01*
X77229110Y-37953797D01*
X77178011Y-38090795D01*
X77178009Y-38090803D01*
X77171500Y-38151350D01*
X77171500Y-42648649D01*
X69975308Y-42648649D01*
X70000500Y-32499902D01*
X70000500Y-32017765D01*
X70495788Y-32017765D01*
X70525412Y-32287014D01*
X70593928Y-32549090D01*
X70699869Y-32798389D01*
X70714911Y-32823036D01*
X70840982Y-33029610D01*
X71014255Y-33237820D01*
X71215998Y-33418582D01*
X71441910Y-33568044D01*
X71687176Y-33683020D01*
X71946569Y-33761060D01*
X71946572Y-33761060D01*
X71946574Y-33761061D01*
X72214557Y-33800500D01*
X72214561Y-33800500D01*
X72417631Y-33800500D01*
X72620156Y-33785677D01*
X72620160Y-33785676D01*
X72620161Y-33785676D01*
X72730665Y-33761060D01*
X72884553Y-33726780D01*
X73137558Y-33630014D01*
X73373777Y-33497441D01*
X73588177Y-33331888D01*
X73776186Y-33136881D01*
X73933799Y-32916579D01*
X73936430Y-32911463D01*
X74057656Y-32675675D01*
X74057657Y-32675672D01*
X74145116Y-32419310D01*
X74145118Y-32419305D01*
X74194319Y-32152933D01*
X74199259Y-32017765D01*
X146645788Y-32017765D01*
X146675412Y-32287014D01*
X146743928Y-32549090D01*
X146849869Y-32798389D01*
X146864911Y-32823036D01*
X146990982Y-33029610D01*
X147164255Y-33237820D01*
X147365998Y-33418582D01*
X147591910Y-33568044D01*
X147837176Y-33683020D01*
X148096569Y-33761060D01*
X148096572Y-33761060D01*
X148096574Y-33761061D01*
X148364557Y-33800500D01*
X148364561Y-33800500D01*
X148567631Y-33800500D01*
X148770156Y-33785677D01*
X148770160Y-33785676D01*
X148770161Y-33785676D01*
X148880665Y-33761060D01*
X149034553Y-33726780D01*
X149287558Y-33630014D01*
X149523777Y-33497441D01*
X149738177Y-33331888D01*
X149926186Y-33136881D01*
X150083799Y-32916579D01*
X150086430Y-32911463D01*
X150207656Y-32675675D01*
X150207657Y-32675672D01*
X150295116Y-32419310D01*
X150295118Y-32419305D01*
X150344319Y-32152933D01*
X150354212Y-31882235D01*
X150339338Y-31747058D01*
X150324587Y-31612985D01*
X150256071Y-31350909D01*
X150150130Y-31101610D01*
X150126972Y-31063665D01*
X150009018Y-30870390D01*
X149835745Y-30662180D01*
X149835741Y-30662177D01*
X149835740Y-30662175D01*
X149634012Y-30481427D01*
X149634002Y-30481418D01*
X149408090Y-30331956D01*
X149162824Y-30216980D01*
X149005392Y-30169615D01*
X148903425Y-30138938D01*
X148635442Y-30099500D01*
X148635439Y-30099500D01*
X148432369Y-30099500D01*
X148229839Y-30114323D01*
X148229838Y-30114323D01*
X147965456Y-30173217D01*
X147965441Y-30173222D01*
X147712441Y-30269986D01*
X147476229Y-30402555D01*
X147476225Y-30402557D01*
X147261818Y-30568116D01*
X147073815Y-30763117D01*
X147073810Y-30763123D01*
X146916203Y-30983417D01*
X146916196Y-30983427D01*
X146792343Y-31224324D01*
X146792342Y-31224327D01*
X146704883Y-31480689D01*
X146704880Y-31480702D01*
X146655681Y-31747058D01*
X146655680Y-31747069D01*
X146645788Y-32017765D01*
X74199259Y-32017765D01*
X74204212Y-31882235D01*
X74189338Y-31747058D01*
X74174587Y-31612985D01*
X74106071Y-31350909D01*
X74000130Y-31101610D01*
X73976972Y-31063665D01*
X73859018Y-30870390D01*
X73685745Y-30662180D01*
X73685741Y-30662177D01*
X73685740Y-30662175D01*
X73484012Y-30481427D01*
X73484002Y-30481418D01*
X73258090Y-30331956D01*
X73012824Y-30216980D01*
X72855392Y-30169615D01*
X72753425Y-30138938D01*
X72485442Y-30099500D01*
X72485439Y-30099500D01*
X72282369Y-30099500D01*
X72079839Y-30114323D01*
X72079838Y-30114323D01*
X71815456Y-30173217D01*
X71815441Y-30173222D01*
X71562441Y-30269986D01*
X71326229Y-30402555D01*
X71326225Y-30402557D01*
X71111818Y-30568116D01*
X70923815Y-30763117D01*
X70923810Y-30763123D01*
X70766203Y-30983417D01*
X70766196Y-30983427D01*
X70642343Y-31224324D01*
X70642342Y-31224327D01*
X70554883Y-31480689D01*
X70554880Y-31480702D01*
X70505681Y-31747058D01*
X70505680Y-31747069D01*
X70495788Y-32017765D01*
X70000500Y-32017765D01*
X70000500Y-31951900D01*
X70000615Y-31948097D01*
X70006486Y-31851036D01*
X70020079Y-31643642D01*
X70020970Y-31636460D01*
X70045841Y-31500741D01*
X70078931Y-31334389D01*
X70080561Y-31327985D01*
X70123717Y-31189492D01*
X70124143Y-31188184D01*
X70176141Y-31035003D01*
X70178343Y-31029411D01*
X70239081Y-30894456D01*
X70239967Y-30892577D01*
X70310187Y-30750184D01*
X70312766Y-30745475D01*
X70390074Y-30617591D01*
X70391556Y-30615262D01*
X70478975Y-30484430D01*
X70481738Y-30480614D01*
X70574335Y-30362422D01*
X70576498Y-30359814D01*
X70679889Y-30241918D01*
X70682646Y-30238975D01*
X70788975Y-30132646D01*
X70791918Y-30129889D01*
X70909814Y-30026498D01*
X70912422Y-30024335D01*
X71030614Y-29931738D01*
X71034430Y-29928975D01*
X71165262Y-29841556D01*
X71167591Y-29840074D01*
X71295475Y-29762766D01*
X71300184Y-29760187D01*
X71442577Y-29689967D01*
X71444456Y-29689081D01*
X71579419Y-29628339D01*
X71585003Y-29626141D01*
X71738184Y-29574143D01*
X71739492Y-29573717D01*
X71877985Y-29530561D01*
X71884389Y-29528931D01*
X72050741Y-29495841D01*
X72186460Y-29470970D01*
X72193642Y-29470079D01*
X72401036Y-29456486D01*
X72498100Y-29450614D01*
X72501901Y-29450500D01*
X148498099Y-29450500D01*
X148501898Y-29450614D01*
G37*
%TD.AperFunction*%
%TA.AperFunction,Conductor*%
G36*
X138893225Y-36870669D02*
G01*
X138915480Y-36896353D01*
X138922842Y-36907620D01*
X139004275Y-37032265D01*
X139004279Y-37032270D01*
X139060784Y-37093649D01*
X139156760Y-37197906D01*
X139222892Y-37249379D01*
X139264362Y-37307002D01*
X139271500Y-37348809D01*
X139271500Y-37811099D01*
X139280878Y-37852187D01*
X139282062Y-37859156D01*
X139286782Y-37901046D01*
X139286784Y-37901052D01*
X139300702Y-37940830D01*
X139302659Y-37947620D01*
X139312040Y-37988717D01*
X139312042Y-37988724D01*
X139330330Y-38026698D01*
X139333036Y-38033230D01*
X139346957Y-38073015D01*
X139369380Y-38108702D01*
X139372800Y-38114890D01*
X139391089Y-38152867D01*
X139391092Y-38152871D01*
X139417372Y-38185825D01*
X139421463Y-38191591D01*
X139431506Y-38207574D01*
X139443889Y-38227281D01*
X139476197Y-38259589D01*
X140971658Y-39755050D01*
X141729012Y-40512404D01*
X141763038Y-40574716D01*
X141757973Y-40645531D01*
X141715426Y-40702367D01*
X141648906Y-40727178D01*
X141639917Y-40727499D01*
X140909924Y-40727499D01*
X140909923Y-40727499D01*
X140909919Y-40727499D01*
X140824495Y-40738229D01*
X140805182Y-40746229D01*
X140689402Y-40794187D01*
X140621418Y-40846998D01*
X140621415Y-40847001D01*
X140181542Y-41286873D01*
X140181534Y-41286883D01*
X140128728Y-41354860D01*
X140072773Y-41489951D01*
X140071201Y-41502465D01*
X140068169Y-41526611D01*
X140062044Y-41575373D01*
X140062043Y-41575376D01*
X140062043Y-42322942D01*
X140062043Y-42420625D01*
X140072773Y-42506049D01*
X140128730Y-42641140D01*
X140149694Y-42668126D01*
X140181542Y-42709125D01*
X140181553Y-42709137D01*
X140287139Y-42814723D01*
X140321165Y-42877035D01*
X140324044Y-42903818D01*
X140324044Y-43632181D01*
X140304042Y-43700302D01*
X140287139Y-43721276D01*
X140181550Y-43826864D01*
X140181534Y-43826883D01*
X140128728Y-43894860D01*
X140072773Y-44029951D01*
X140072773Y-44029952D01*
X140062060Y-44115249D01*
X140062044Y-44115373D01*
X140062043Y-44115376D01*
X140062043Y-44862942D01*
X140062043Y-44960625D01*
X140072773Y-45046049D01*
X140128730Y-45181140D01*
X140149694Y-45208126D01*
X140181542Y-45249125D01*
X140181553Y-45249137D01*
X140287139Y-45354723D01*
X140321165Y-45417035D01*
X140324044Y-45443818D01*
X140324044Y-46172181D01*
X140304042Y-46240302D01*
X140287139Y-46261276D01*
X140181550Y-46366864D01*
X140181534Y-46366883D01*
X140128728Y-46434860D01*
X140072773Y-46569951D01*
X140072773Y-46569952D01*
X140062060Y-46655249D01*
X140062044Y-46655373D01*
X140062043Y-46655376D01*
X140062043Y-47402942D01*
X140062043Y-47500625D01*
X140072773Y-47586049D01*
X140128730Y-47721140D01*
X140149694Y-47748126D01*
X140181542Y-47789125D01*
X140181553Y-47789137D01*
X140287139Y-47894723D01*
X140321165Y-47957035D01*
X140324044Y-47983818D01*
X140324044Y-48712181D01*
X140304042Y-48780302D01*
X140287139Y-48801276D01*
X140181550Y-48906864D01*
X140181534Y-48906883D01*
X140128728Y-48974860D01*
X140072773Y-49109951D01*
X140072773Y-49109952D01*
X140062060Y-49195249D01*
X140062044Y-49195373D01*
X140062043Y-49195376D01*
X140062043Y-49686038D01*
X140062043Y-50040625D01*
X140072773Y-50126049D01*
X140128730Y-50261140D01*
X140181547Y-50329131D01*
X140181548Y-50329132D01*
X140287139Y-50434722D01*
X140321164Y-50497034D01*
X140324044Y-50523818D01*
X140324044Y-50882261D01*
X140304042Y-50950382D01*
X140273554Y-50983127D01*
X140248149Y-51002146D01*
X140207281Y-51032740D01*
X140119656Y-51149792D01*
X140119654Y-51149797D01*
X140068555Y-51286795D01*
X140068553Y-51286803D01*
X140062044Y-51347350D01*
X140062044Y-52968649D01*
X140068553Y-53029196D01*
X140068555Y-53029204D01*
X140119654Y-53166202D01*
X140119656Y-53166207D01*
X140207282Y-53283261D01*
X140324336Y-53370887D01*
X140324340Y-53370889D01*
X140369950Y-53387901D01*
X140426786Y-53430447D01*
X140437038Y-53446558D01*
X140458539Y-53486784D01*
X140489949Y-53545548D01*
X140570655Y-53643889D01*
X140615976Y-53699112D01*
X140652075Y-53728738D01*
X140656644Y-53732878D01*
X141393218Y-54469452D01*
X141948171Y-55024405D01*
X141982197Y-55086717D01*
X141977132Y-55157532D01*
X141934585Y-55214368D01*
X141868065Y-55239179D01*
X141859076Y-55239500D01*
X140709350Y-55239500D01*
X140648803Y-55246009D01*
X140648795Y-55246011D01*
X140511797Y-55297110D01*
X140511792Y-55297112D01*
X140394738Y-55384738D01*
X140307112Y-55501792D01*
X140307110Y-55501797D01*
X140256011Y-55638795D01*
X140256009Y-55638803D01*
X140249500Y-55699350D01*
X140249500Y-57320649D01*
X140256009Y-57381196D01*
X140256011Y-57381204D01*
X140307110Y-57518202D01*
X140307112Y-57518207D01*
X140394738Y-57635261D01*
X140511792Y-57722887D01*
X140511794Y-57722888D01*
X140511796Y-57722889D01*
X140559549Y-57740700D01*
X140648795Y-57773988D01*
X140648803Y-57773990D01*
X140709350Y-57780499D01*
X140709355Y-57780499D01*
X140709362Y-57780500D01*
X140709368Y-57780500D01*
X142330632Y-57780500D01*
X142330638Y-57780500D01*
X142330645Y-57780499D01*
X142330649Y-57780499D01*
X142391196Y-57773990D01*
X142391199Y-57773989D01*
X142391201Y-57773989D01*
X142528204Y-57722889D01*
X142645261Y-57635261D01*
X142732889Y-57518204D01*
X142783989Y-57381201D01*
X142783990Y-57381196D01*
X142785803Y-57373526D01*
X142788288Y-57374113D01*
X142810671Y-57320059D01*
X142868984Y-57279561D01*
X142939935Y-57277018D01*
X142997885Y-57310013D01*
X143014595Y-57326723D01*
X143048621Y-57389035D01*
X143051500Y-57415818D01*
X143051500Y-58404181D01*
X143031498Y-58472302D01*
X143014595Y-58493276D01*
X142997885Y-58509986D01*
X142935573Y-58544012D01*
X142864758Y-58538947D01*
X142807922Y-58496400D01*
X142788070Y-58445938D01*
X142785803Y-58446474D01*
X142783988Y-58438795D01*
X142732889Y-58301797D01*
X142732887Y-58301792D01*
X142645261Y-58184738D01*
X142528207Y-58097112D01*
X142528202Y-58097110D01*
X142391204Y-58046011D01*
X142391196Y-58046009D01*
X142330649Y-58039500D01*
X142330638Y-58039500D01*
X140709362Y-58039500D01*
X140709350Y-58039500D01*
X140648803Y-58046009D01*
X140648795Y-58046011D01*
X140511797Y-58097110D01*
X140511792Y-58097112D01*
X140394738Y-58184738D01*
X140307112Y-58301792D01*
X140307110Y-58301797D01*
X140256011Y-58438795D01*
X140256009Y-58438803D01*
X140249500Y-58499350D01*
X140249500Y-60120649D01*
X140256009Y-60181196D01*
X140256011Y-60181204D01*
X140307110Y-60318202D01*
X140307112Y-60318207D01*
X140394738Y-60435261D01*
X140511792Y-60522887D01*
X140511794Y-60522888D01*
X140511796Y-60522889D01*
X140570875Y-60544924D01*
X140648795Y-60573988D01*
X140648803Y-60573990D01*
X140709350Y-60580499D01*
X140709355Y-60580499D01*
X140709362Y-60580500D01*
X140709368Y-60580500D01*
X142330632Y-60580500D01*
X142330638Y-60580500D01*
X142330645Y-60580499D01*
X142330649Y-60580499D01*
X142391196Y-60573990D01*
X142391199Y-60573989D01*
X142391201Y-60573989D01*
X142528204Y-60522889D01*
X142645261Y-60435261D01*
X142732889Y-60318204D01*
X142783989Y-60181201D01*
X142783990Y-60181196D01*
X142785803Y-60173526D01*
X142788288Y-60174113D01*
X142810671Y-60120059D01*
X142868984Y-60079561D01*
X142939935Y-60077018D01*
X142997880Y-60110008D01*
X143014595Y-60126723D01*
X143048620Y-60189030D01*
X143051500Y-60215817D01*
X143051500Y-61204181D01*
X143031498Y-61272302D01*
X143014595Y-61293276D01*
X142987885Y-61319986D01*
X142925573Y-61354012D01*
X142854758Y-61348947D01*
X142797922Y-61306400D01*
X142778070Y-61255938D01*
X142775803Y-61256474D01*
X142773988Y-61248795D01*
X142722889Y-61111797D01*
X142722887Y-61111792D01*
X142635261Y-60994738D01*
X142518207Y-60907112D01*
X142518202Y-60907110D01*
X142381204Y-60856011D01*
X142381196Y-60856009D01*
X142320649Y-60849500D01*
X142320638Y-60849500D01*
X140699362Y-60849500D01*
X140699350Y-60849500D01*
X140638803Y-60856009D01*
X140638795Y-60856011D01*
X140501797Y-60907110D01*
X140501792Y-60907112D01*
X140384738Y-60994738D01*
X140297112Y-61111792D01*
X140297110Y-61111797D01*
X140246011Y-61248795D01*
X140246009Y-61248803D01*
X140239500Y-61309350D01*
X140239500Y-62930649D01*
X140246009Y-62991196D01*
X140246011Y-62991204D01*
X140297110Y-63128202D01*
X140297112Y-63128207D01*
X140384738Y-63245261D01*
X140501792Y-63332887D01*
X140501794Y-63332888D01*
X140501796Y-63332889D01*
X140560875Y-63354924D01*
X140638795Y-63383988D01*
X140638803Y-63383990D01*
X140699350Y-63390499D01*
X140699355Y-63390499D01*
X140699362Y-63390500D01*
X140699368Y-63390500D01*
X142320632Y-63390500D01*
X142320638Y-63390500D01*
X142320645Y-63390499D01*
X142320649Y-63390499D01*
X142381196Y-63383990D01*
X142381199Y-63383989D01*
X142381201Y-63383989D01*
X142518204Y-63332889D01*
X142525004Y-63327799D01*
X142635261Y-63245261D01*
X142722887Y-63128207D01*
X142722887Y-63128206D01*
X142722889Y-63128204D01*
X142773989Y-62991201D01*
X142773990Y-62991196D01*
X142775803Y-62983526D01*
X142778288Y-62984113D01*
X142800671Y-62930059D01*
X142858984Y-62889561D01*
X142929935Y-62887018D01*
X142987885Y-62920013D01*
X143004595Y-62936723D01*
X143038621Y-62999035D01*
X143041500Y-63025818D01*
X143041500Y-64038181D01*
X143021498Y-64106302D01*
X143004595Y-64127276D01*
X142997885Y-64133986D01*
X142935573Y-64168012D01*
X142864758Y-64162947D01*
X142807922Y-64120400D01*
X142788070Y-64069938D01*
X142785803Y-64070474D01*
X142783988Y-64062795D01*
X142754924Y-63984875D01*
X142732889Y-63925796D01*
X142732888Y-63925794D01*
X142732887Y-63925792D01*
X142645261Y-63808738D01*
X142528207Y-63721112D01*
X142528202Y-63721110D01*
X142391204Y-63670011D01*
X142391196Y-63670009D01*
X142330649Y-63663500D01*
X142330638Y-63663500D01*
X140709362Y-63663500D01*
X140709350Y-63663500D01*
X140648803Y-63670009D01*
X140648795Y-63670011D01*
X140511797Y-63721110D01*
X140511792Y-63721112D01*
X140394738Y-63808738D01*
X140307112Y-63925792D01*
X140307110Y-63925797D01*
X140256011Y-64062795D01*
X140256009Y-64062803D01*
X140249500Y-64123350D01*
X140249500Y-65744649D01*
X140256009Y-65805196D01*
X140256011Y-65805204D01*
X140307110Y-65942202D01*
X140307112Y-65942207D01*
X140394738Y-66059261D01*
X140511792Y-66146887D01*
X140511794Y-66146888D01*
X140511796Y-66146889D01*
X140570875Y-66168924D01*
X140648795Y-66197988D01*
X140648803Y-66197990D01*
X140709350Y-66204499D01*
X140709355Y-66204499D01*
X140709362Y-66204500D01*
X140709368Y-66204500D01*
X142330632Y-66204500D01*
X142330638Y-66204500D01*
X142330645Y-66204499D01*
X142330649Y-66204499D01*
X142391196Y-66197990D01*
X142391199Y-66197989D01*
X142391201Y-66197989D01*
X142402513Y-66193770D01*
X142410045Y-66190960D01*
X142528204Y-66146889D01*
X142540326Y-66137815D01*
X142645261Y-66059261D01*
X142732887Y-65942207D01*
X142732887Y-65942206D01*
X142732889Y-65942204D01*
X142783989Y-65805201D01*
X142783990Y-65805196D01*
X142785803Y-65797526D01*
X142788288Y-65798113D01*
X142810671Y-65744059D01*
X142868984Y-65703561D01*
X142939935Y-65701018D01*
X142997883Y-65734011D01*
X143206074Y-65942202D01*
X143348873Y-66085001D01*
X143348883Y-66085009D01*
X143416860Y-66137815D01*
X143502048Y-66173100D01*
X143551952Y-66193771D01*
X143637370Y-66204500D01*
X144482625Y-66204501D01*
X144568049Y-66193771D01*
X144703140Y-66137814D01*
X144771131Y-66084997D01*
X145211002Y-65645126D01*
X145263814Y-65577140D01*
X145263813Y-65577140D01*
X145263815Y-65577139D01*
X145284484Y-65527236D01*
X145319771Y-65442048D01*
X145330500Y-65356630D01*
X145330501Y-64511375D01*
X145319771Y-64425951D01*
X145263814Y-64290860D01*
X145210997Y-64222869D01*
X145156140Y-64168012D01*
X145095404Y-64107275D01*
X145061379Y-64044963D01*
X145058500Y-64018180D01*
X145058500Y-63025818D01*
X145078502Y-62957697D01*
X145095400Y-62936727D01*
X145201002Y-62831126D01*
X145253814Y-62763140D01*
X145253813Y-62763140D01*
X145253815Y-62763139D01*
X145283883Y-62690547D01*
X145309771Y-62628048D01*
X145320500Y-62542630D01*
X145320501Y-61697375D01*
X145309771Y-61611951D01*
X145253814Y-61476860D01*
X145200997Y-61408869D01*
X145170566Y-61378438D01*
X145105404Y-61313275D01*
X145071379Y-61250963D01*
X145068500Y-61224180D01*
X145068500Y-60215818D01*
X145088502Y-60147697D01*
X145105400Y-60126727D01*
X145211002Y-60021126D01*
X145263814Y-59953140D01*
X145263813Y-59953140D01*
X145263815Y-59953139D01*
X145288354Y-59893895D01*
X145319771Y-59818048D01*
X145330500Y-59732630D01*
X145330501Y-58887375D01*
X145319771Y-58801951D01*
X145263814Y-58666860D01*
X145210997Y-58598869D01*
X145177531Y-58565403D01*
X145105404Y-58493275D01*
X145071379Y-58430963D01*
X145068500Y-58404180D01*
X145068500Y-57415818D01*
X145088502Y-57347697D01*
X145105400Y-57326727D01*
X145211002Y-57221126D01*
X145263814Y-57153140D01*
X145263813Y-57153140D01*
X145263815Y-57153139D01*
X145284484Y-57103236D01*
X145319771Y-57018048D01*
X145330500Y-56932630D01*
X145330501Y-56087375D01*
X145319771Y-56001951D01*
X145263814Y-55866860D01*
X145210997Y-55798869D01*
X145099933Y-55687804D01*
X145065907Y-55625493D01*
X145063635Y-55611059D01*
X145053909Y-55512306D01*
X145053908Y-55512304D01*
X145053908Y-55512299D01*
X144996241Y-55322196D01*
X144902595Y-55146996D01*
X144821317Y-55047959D01*
X144821317Y-55047958D01*
X144821315Y-55047957D01*
X144776570Y-54993433D01*
X144740466Y-54963804D01*
X144735893Y-54959659D01*
X143427829Y-53651595D01*
X143393803Y-53589283D01*
X143398868Y-53518468D01*
X143441415Y-53461632D01*
X143507935Y-53436821D01*
X143516924Y-53436500D01*
X144197462Y-53436500D01*
X144265583Y-53456502D01*
X144286557Y-53473405D01*
X145598052Y-54784899D01*
X145598073Y-54784922D01*
X145729258Y-54916107D01*
X145729260Y-54916108D01*
X145729263Y-54916111D01*
X145764971Y-54938547D01*
X145770715Y-54942624D01*
X145803674Y-54968908D01*
X145836159Y-54984552D01*
X145841648Y-54987195D01*
X145847836Y-54990615D01*
X145883529Y-55013043D01*
X145923326Y-55026968D01*
X145929840Y-55029666D01*
X145967823Y-55047959D01*
X146008921Y-55057338D01*
X146015708Y-55059293D01*
X146055497Y-55073217D01*
X146097378Y-55077935D01*
X146104341Y-55079117D01*
X146145447Y-55088500D01*
X146191138Y-55088500D01*
X147812918Y-55088500D01*
X147881039Y-55108502D01*
X147902013Y-55125405D01*
X149004595Y-56227986D01*
X149038620Y-56290298D01*
X149041500Y-56317081D01*
X149041500Y-99692916D01*
X149021498Y-99761037D01*
X149004595Y-99782011D01*
X148571906Y-100214700D01*
X148509594Y-100248726D01*
X148471832Y-100251125D01*
X148335826Y-100239227D01*
X146764174Y-100239227D01*
X146597143Y-100253840D01*
X146377111Y-100312798D01*
X146306135Y-100311108D01*
X146247339Y-100271314D01*
X146219391Y-100206050D01*
X146218500Y-100191091D01*
X146218500Y-97356611D01*
X146220292Y-97340382D01*
X146220042Y-97340359D01*
X146220788Y-97332465D01*
X146218531Y-97260640D01*
X146218500Y-97258661D01*
X146218500Y-97228576D01*
X146218500Y-97228568D01*
X146217571Y-97221220D01*
X146217106Y-97215316D01*
X146215562Y-97166169D01*
X146209579Y-97145576D01*
X146205571Y-97126218D01*
X146202882Y-97104939D01*
X146202882Y-97104936D01*
X146184777Y-97059208D01*
X146182863Y-97053619D01*
X146169145Y-97006400D01*
X146158226Y-96987939D01*
X146149528Y-96970182D01*
X146141635Y-96950244D01*
X146112731Y-96910461D01*
X146109471Y-96905498D01*
X146105765Y-96899232D01*
X146084452Y-96863193D01*
X146084451Y-96863192D01*
X146084450Y-96863190D01*
X146069291Y-96848031D01*
X146056450Y-96832998D01*
X146053240Y-96828580D01*
X146043841Y-96815643D01*
X146005959Y-96784304D01*
X146001566Y-96780307D01*
X145544890Y-96323630D01*
X145510864Y-96261318D01*
X145515929Y-96190503D01*
X145518101Y-96185071D01*
X145544619Y-96123031D01*
X145595508Y-95900071D01*
X145605769Y-95671607D01*
X145575070Y-95444983D01*
X145504400Y-95227482D01*
X145448902Y-95124350D01*
X145396032Y-95026100D01*
X145396028Y-95026093D01*
X145253438Y-94847292D01*
X145081218Y-94696828D01*
X144884902Y-94579534D01*
X144884897Y-94579532D01*
X144884896Y-94579531D01*
X144884895Y-94579531D01*
X144872530Y-94574890D01*
X144815783Y-94532227D01*
X144791110Y-94465655D01*
X144806344Y-94396313D01*
X144856650Y-94346214D01*
X144862111Y-94343417D01*
X144985690Y-94283905D01*
X145170708Y-94149482D01*
X145328750Y-93984183D01*
X145454736Y-93793321D01*
X145544619Y-93583031D01*
X145595508Y-93360071D01*
X145605769Y-93131607D01*
X145575070Y-92904983D01*
X145504400Y-92687482D01*
X145419837Y-92530338D01*
X145396032Y-92486100D01*
X145396028Y-92486093D01*
X145253438Y-92307292D01*
X145081218Y-92156828D01*
X144884902Y-92039534D01*
X144884897Y-92039532D01*
X144884896Y-92039531D01*
X144884895Y-92039531D01*
X144872530Y-92034890D01*
X144815783Y-91992227D01*
X144791110Y-91925655D01*
X144806344Y-91856313D01*
X144856650Y-91806214D01*
X144862111Y-91803417D01*
X144985690Y-91743905D01*
X145170708Y-91609482D01*
X145328750Y-91444183D01*
X145454736Y-91253321D01*
X145544619Y-91043031D01*
X145595508Y-90820071D01*
X145605769Y-90591607D01*
X145575070Y-90364983D01*
X145504400Y-90147482D01*
X145419837Y-89990338D01*
X145396032Y-89946100D01*
X145396028Y-89946093D01*
X145311194Y-89839715D01*
X145253440Y-89767294D01*
X145229817Y-89746655D01*
X145081218Y-89616828D01*
X144884902Y-89499534D01*
X144884891Y-89499529D01*
X144670784Y-89419172D01*
X144445768Y-89378338D01*
X144445765Y-89378338D01*
X142750364Y-89378338D01*
X142716472Y-89381388D01*
X142579644Y-89393702D01*
X142579642Y-89393703D01*
X142359200Y-89454541D01*
X142359186Y-89454546D01*
X142153152Y-89553767D01*
X142153145Y-89553771D01*
X141968127Y-89688194D01*
X141968126Y-89688195D01*
X141810088Y-89853489D01*
X141787073Y-89888355D01*
X141757108Y-89933751D01*
X141702889Y-89979583D01*
X141651953Y-89990338D01*
X139827940Y-89990338D01*
X139759819Y-89970336D01*
X139724727Y-89936608D01*
X139614995Y-89779893D01*
X139614986Y-89779883D01*
X139448372Y-89613269D01*
X139448362Y-89613260D01*
X139255343Y-89478108D01*
X139255344Y-89478108D01*
X139041778Y-89378521D01*
X139041774Y-89378519D01*
X138814166Y-89317532D01*
X138579418Y-89296994D01*
X138344673Y-89317532D01*
X138344670Y-89317532D01*
X138344667Y-89317533D01*
X138256685Y-89341107D01*
X138185709Y-89339417D01*
X138134980Y-89308495D01*
X136897824Y-88071339D01*
X136887859Y-88058901D01*
X136887632Y-88059090D01*
X136882581Y-88052984D01*
X136882580Y-88052982D01*
X136832206Y-88005678D01*
X136830817Y-88004332D01*
X136820570Y-87994085D01*
X136810356Y-87983870D01*
X136810352Y-87983866D01*
X136804805Y-87979563D01*
X136800297Y-87975712D01*
X136765905Y-87943417D01*
X136765899Y-87943413D01*
X136748143Y-87933651D01*
X136731627Y-87922802D01*
X136715621Y-87910386D01*
X136684869Y-87897078D01*
X136672320Y-87891648D01*
X136666988Y-87889036D01*
X136625641Y-87866305D01*
X136606016Y-87861266D01*
X136587316Y-87854864D01*
X136568725Y-87846819D01*
X136568723Y-87846818D01*
X136568722Y-87846818D01*
X136522122Y-87839437D01*
X136516309Y-87838233D01*
X136470610Y-87826500D01*
X136450356Y-87826500D01*
X136430646Y-87824949D01*
X136410637Y-87821780D01*
X136410636Y-87821780D01*
X136363663Y-87826220D01*
X136357730Y-87826500D01*
X135536000Y-87826500D01*
X135467879Y-87806498D01*
X135421386Y-87752842D01*
X135410000Y-87700500D01*
X135410000Y-83634870D01*
X135430002Y-83566749D01*
X135483658Y-83520256D01*
X135553932Y-83510152D01*
X135618512Y-83539646D01*
X135625095Y-83545775D01*
X137231604Y-85152284D01*
X137265630Y-85214596D01*
X137264216Y-85273989D01*
X137248112Y-85334088D01*
X137227574Y-85568837D01*
X137248112Y-85803586D01*
X137309099Y-86031194D01*
X137309101Y-86031198D01*
X137408688Y-86244763D01*
X137543840Y-86437782D01*
X137543849Y-86437792D01*
X137710463Y-86604406D01*
X137710473Y-86604415D01*
X137903492Y-86739567D01*
X137903491Y-86739567D01*
X137954020Y-86763129D01*
X138117060Y-86839156D01*
X138344673Y-86900144D01*
X138579418Y-86920682D01*
X138814163Y-86900144D01*
X139041776Y-86839156D01*
X139255340Y-86739569D01*
X139279313Y-86722783D01*
X139448362Y-86604415D01*
X139448364Y-86604412D01*
X139448367Y-86604411D01*
X139614991Y-86437787D01*
X139666527Y-86364186D01*
X139724727Y-86281068D01*
X139780184Y-86236739D01*
X139827940Y-86227338D01*
X141646846Y-86227338D01*
X141714967Y-86247340D01*
X141745355Y-86274776D01*
X141816657Y-86364186D01*
X141885397Y-86450383D01*
X142057617Y-86600847D01*
X142253933Y-86718141D01*
X142253938Y-86718143D01*
X142253941Y-86718145D01*
X142275441Y-86726214D01*
X142468051Y-86798503D01*
X142693068Y-86839338D01*
X142693071Y-86839338D01*
X144388466Y-86839338D01*
X144388472Y-86839338D01*
X144559191Y-86823973D01*
X144779644Y-86763132D01*
X144985690Y-86663905D01*
X145170708Y-86529482D01*
X145328750Y-86364183D01*
X145454736Y-86173321D01*
X145544619Y-85963031D01*
X145595508Y-85740071D01*
X145605769Y-85511607D01*
X145575070Y-85284983D01*
X145504400Y-85067482D01*
X145419837Y-84910338D01*
X145396032Y-84866100D01*
X145396028Y-84866093D01*
X145253438Y-84687292D01*
X145081218Y-84536828D01*
X144884902Y-84419534D01*
X144884897Y-84419532D01*
X144884896Y-84419531D01*
X144884895Y-84419531D01*
X144872530Y-84414890D01*
X144815783Y-84372227D01*
X144791110Y-84305655D01*
X144806344Y-84236313D01*
X144856650Y-84186214D01*
X144862111Y-84183417D01*
X144985690Y-84123905D01*
X145170708Y-83989482D01*
X145328750Y-83824183D01*
X145454736Y-83633321D01*
X145544619Y-83423031D01*
X145595508Y-83200071D01*
X145605769Y-82971607D01*
X145575070Y-82744983D01*
X145504400Y-82527482D01*
X145504399Y-82527482D01*
X145396032Y-82326100D01*
X145396028Y-82326093D01*
X145274891Y-82174193D01*
X145253440Y-82147294D01*
X145253438Y-82147292D01*
X145081218Y-81996828D01*
X144884902Y-81879534D01*
X144884897Y-81879532D01*
X144884896Y-81879531D01*
X144884895Y-81879531D01*
X144872530Y-81874890D01*
X144815783Y-81832227D01*
X144791110Y-81765655D01*
X144806344Y-81696313D01*
X144856650Y-81646214D01*
X144862111Y-81643417D01*
X144985690Y-81583905D01*
X145170708Y-81449482D01*
X145328750Y-81284183D01*
X145454736Y-81093321D01*
X145544619Y-80883031D01*
X145595508Y-80660071D01*
X145605769Y-80431607D01*
X145575070Y-80204983D01*
X145504400Y-79987482D01*
X145504399Y-79987482D01*
X145396032Y-79786100D01*
X145396028Y-79786093D01*
X145274891Y-79634193D01*
X145253440Y-79607294D01*
X145253438Y-79607292D01*
X145081218Y-79456828D01*
X144884902Y-79339534D01*
X144884897Y-79339532D01*
X144884896Y-79339531D01*
X144884895Y-79339531D01*
X144872530Y-79334890D01*
X144815783Y-79292227D01*
X144791110Y-79225655D01*
X144806344Y-79156313D01*
X144856650Y-79106214D01*
X144862111Y-79103417D01*
X144985690Y-79043905D01*
X145170708Y-78909482D01*
X145328750Y-78744183D01*
X145454736Y-78553321D01*
X145544619Y-78343031D01*
X145595508Y-78120071D01*
X145605769Y-77891607D01*
X145575070Y-77664983D01*
X145504400Y-77447482D01*
X145504399Y-77447481D01*
X145396032Y-77246100D01*
X145396028Y-77246093D01*
X145274891Y-77094193D01*
X145253440Y-77067294D01*
X145253438Y-77067292D01*
X145081218Y-76916828D01*
X144884902Y-76799534D01*
X144884897Y-76799532D01*
X144884896Y-76799531D01*
X144884895Y-76799531D01*
X144872530Y-76794890D01*
X144815783Y-76752227D01*
X144791110Y-76685655D01*
X144806344Y-76616313D01*
X144856650Y-76566214D01*
X144862111Y-76563417D01*
X144985690Y-76503905D01*
X145170708Y-76369482D01*
X145328750Y-76204183D01*
X145454736Y-76013321D01*
X145544619Y-75803031D01*
X145595508Y-75580071D01*
X145605769Y-75351607D01*
X145575070Y-75124983D01*
X145504400Y-74907482D01*
X145419837Y-74750338D01*
X145396032Y-74706100D01*
X145396028Y-74706093D01*
X145253438Y-74527292D01*
X145081218Y-74376828D01*
X144884902Y-74259534D01*
X144884891Y-74259529D01*
X144670784Y-74179172D01*
X144445768Y-74138338D01*
X144445765Y-74138338D01*
X142750364Y-74138338D01*
X142716472Y-74141388D01*
X142579644Y-74153702D01*
X142579642Y-74153703D01*
X142359200Y-74214541D01*
X142359186Y-74214546D01*
X142153152Y-74313767D01*
X142153145Y-74313771D01*
X141968127Y-74448194D01*
X141968126Y-74448195D01*
X141810088Y-74613489D01*
X141787073Y-74648355D01*
X141757108Y-74693751D01*
X141702889Y-74739583D01*
X141651953Y-74750338D01*
X139827940Y-74750338D01*
X139759819Y-74730336D01*
X139724727Y-74696608D01*
X139614995Y-74539893D01*
X139614986Y-74539883D01*
X139448372Y-74373269D01*
X139448362Y-74373260D01*
X139255343Y-74238108D01*
X139255344Y-74238108D01*
X139041778Y-74138521D01*
X139041774Y-74138519D01*
X138814166Y-74077532D01*
X138579418Y-74056994D01*
X138344669Y-74077532D01*
X138117061Y-74138519D01*
X138117057Y-74138521D01*
X137903496Y-74238106D01*
X137805341Y-74306835D01*
X137738067Y-74329522D01*
X137669207Y-74312237D01*
X137643976Y-74292716D01*
X137067524Y-73716264D01*
X136465405Y-73114144D01*
X136431379Y-73051832D01*
X136428500Y-73025049D01*
X136428500Y-65377779D01*
X136448502Y-65309658D01*
X136465400Y-65288689D01*
X139304384Y-62449704D01*
X139317129Y-62439496D01*
X139316969Y-62439302D01*
X139323075Y-62434249D01*
X139323080Y-62434247D01*
X139372329Y-62381800D01*
X139373613Y-62380475D01*
X139394926Y-62359164D01*
X139399462Y-62353314D01*
X139403306Y-62348813D01*
X139436972Y-62312964D01*
X139447303Y-62294170D01*
X139458151Y-62277654D01*
X139471304Y-62260700D01*
X139490845Y-62215541D01*
X139493428Y-62210269D01*
X139517124Y-62167168D01*
X139522460Y-62146380D01*
X139528857Y-62127700D01*
X139537379Y-62108008D01*
X139545072Y-62059427D01*
X139546271Y-62053642D01*
X139558500Y-62006019D01*
X139558500Y-61984573D01*
X139560051Y-61964862D01*
X139563406Y-61943680D01*
X139558780Y-61894738D01*
X139558500Y-61888805D01*
X139558500Y-41526611D01*
X139560292Y-41510382D01*
X139560042Y-41510359D01*
X139560788Y-41502465D01*
X139558531Y-41430640D01*
X139558500Y-41428661D01*
X139558500Y-41398576D01*
X139558500Y-41398568D01*
X139557571Y-41391220D01*
X139557106Y-41385316D01*
X139555562Y-41336169D01*
X139549580Y-41315581D01*
X139545570Y-41296218D01*
X139542882Y-41274936D01*
X139542881Y-41274934D01*
X139542881Y-41274932D01*
X139531073Y-41245112D01*
X139524778Y-41229214D01*
X139522860Y-41223610D01*
X139516577Y-41201983D01*
X139509145Y-41176399D01*
X139498228Y-41157940D01*
X139489529Y-41140182D01*
X139481637Y-41120248D01*
X139481635Y-41120245D01*
X139481635Y-41120244D01*
X139452731Y-41080462D01*
X139449479Y-41075511D01*
X139424452Y-41033193D01*
X139424451Y-41033192D01*
X139424450Y-41033190D01*
X139409291Y-41018031D01*
X139396450Y-41002998D01*
X139383841Y-40985643D01*
X139345945Y-40954293D01*
X139341571Y-40950312D01*
X138235405Y-39844145D01*
X138201379Y-39781833D01*
X138198500Y-39755050D01*
X138198500Y-37458391D01*
X138218502Y-37390270D01*
X138264530Y-37347578D01*
X138285576Y-37336189D01*
X138463240Y-37197906D01*
X138615722Y-37032268D01*
X138704518Y-36896354D01*
X138758520Y-36850268D01*
X138828868Y-36840692D01*
X138893225Y-36870669D01*
G37*
%TD.AperFunction*%
%TA.AperFunction,Conductor*%
G36*
X136144107Y-89113502D02*
G01*
X136165081Y-89130405D01*
X137239075Y-90204399D01*
X137273101Y-90266711D01*
X137271687Y-90326104D01*
X137248113Y-90414087D01*
X137227574Y-90648838D01*
X137248112Y-90883586D01*
X137309099Y-91111194D01*
X137309101Y-91111198D01*
X137408688Y-91324763D01*
X137543840Y-91517782D01*
X137543849Y-91517792D01*
X137710463Y-91684406D01*
X137710473Y-91684415D01*
X137897862Y-91815625D01*
X137942191Y-91871082D01*
X137949500Y-91941701D01*
X137917470Y-92005062D01*
X137897862Y-92022051D01*
X137710473Y-92153260D01*
X137710463Y-92153269D01*
X137543849Y-92319883D01*
X137543840Y-92319893D01*
X137434109Y-92476608D01*
X137378652Y-92520937D01*
X137330896Y-92530338D01*
X134903787Y-92530338D01*
X134835666Y-92510336D01*
X134814692Y-92493433D01*
X134696354Y-92375095D01*
X134662328Y-92312783D01*
X134667393Y-92241968D01*
X134709940Y-92185132D01*
X134776460Y-92160321D01*
X134785449Y-92160000D01*
X135410000Y-92160000D01*
X135410000Y-89219500D01*
X135430002Y-89151379D01*
X135483658Y-89104886D01*
X135536000Y-89093500D01*
X136075986Y-89093500D01*
X136144107Y-89113502D01*
G37*
%TD.AperFunction*%
%TA.AperFunction,Conductor*%
G36*
X137861039Y-34398502D02*
G01*
X137882013Y-34415405D01*
X138198419Y-34731811D01*
X138232445Y-34794123D01*
X138227380Y-34864938D01*
X138184833Y-34921774D01*
X138118313Y-34946585D01*
X138068412Y-34940079D01*
X137874639Y-34873557D01*
X137874630Y-34873555D01*
X137822990Y-34864938D01*
X137652569Y-34836500D01*
X137427431Y-34836500D01*
X137279211Y-34861233D01*
X137205369Y-34873555D01*
X137205360Y-34873557D01*
X136992428Y-34946656D01*
X136992426Y-34946658D01*
X136794432Y-35053807D01*
X136794426Y-35053810D01*
X136794424Y-35053811D01*
X136616762Y-35192091D01*
X136464279Y-35357729D01*
X136464275Y-35357734D01*
X136341141Y-35546206D01*
X136250703Y-35752386D01*
X136250702Y-35752387D01*
X136195437Y-35970624D01*
X136176844Y-36195000D01*
X136195437Y-36419375D01*
X136250702Y-36637612D01*
X136250703Y-36637613D01*
X136341141Y-36843793D01*
X136464275Y-37032265D01*
X136464279Y-37032270D01*
X136616762Y-37197908D01*
X136666814Y-37236865D01*
X136794424Y-37336189D01*
X136815468Y-37347577D01*
X136865859Y-37397588D01*
X136881500Y-37458391D01*
X136881500Y-39993389D01*
X136879708Y-40009620D01*
X136879958Y-40009644D01*
X136879211Y-40017536D01*
X136881469Y-40089358D01*
X136881500Y-40091337D01*
X136881500Y-40121430D01*
X136882427Y-40128776D01*
X136882893Y-40134690D01*
X136884437Y-40183829D01*
X136884438Y-40183832D01*
X136890421Y-40204429D01*
X136894428Y-40223780D01*
X136897117Y-40245060D01*
X136897117Y-40245062D01*
X136915216Y-40290778D01*
X136917139Y-40296394D01*
X136930853Y-40343597D01*
X136930853Y-40343598D01*
X136941771Y-40362058D01*
X136950468Y-40379811D01*
X136958364Y-40399755D01*
X136958367Y-40399760D01*
X136976352Y-40424513D01*
X136987265Y-40439532D01*
X136990521Y-40444490D01*
X137015547Y-40486807D01*
X137030714Y-40501974D01*
X137043552Y-40517005D01*
X137056158Y-40534356D01*
X137094040Y-40565695D01*
X137098421Y-40569681D01*
X137668923Y-41140182D01*
X138204595Y-41675854D01*
X138238620Y-41738166D01*
X138241500Y-41764949D01*
X138241500Y-61597881D01*
X138221498Y-61666002D01*
X138204595Y-61686976D01*
X135408476Y-64483095D01*
X135346164Y-64517121D01*
X135319381Y-64520000D01*
X122294999Y-64520000D01*
X122226878Y-64499998D01*
X122180385Y-64446342D01*
X122168999Y-64394000D01*
X122168999Y-56642173D01*
X122189001Y-56574052D01*
X122206093Y-56553944D01*
X122205905Y-56553774D01*
X122338104Y-56406951D01*
X122338105Y-56406949D01*
X122338110Y-56406944D01*
X122433597Y-56241556D01*
X122492612Y-56059928D01*
X122512574Y-55870000D01*
X122492612Y-55680072D01*
X122433597Y-55498444D01*
X122338110Y-55333056D01*
X122338108Y-55333054D01*
X122338104Y-55333048D01*
X122210325Y-55191135D01*
X122055822Y-55078882D01*
X121881358Y-55001206D01*
X121694557Y-54961500D01*
X121503583Y-54961500D01*
X121316781Y-55001206D01*
X121142317Y-55078882D01*
X120987814Y-55191135D01*
X120860035Y-55333048D01*
X120860028Y-55333058D01*
X120764546Y-55498438D01*
X120764543Y-55498445D01*
X120705527Y-55680072D01*
X120685566Y-55870000D01*
X120705527Y-56059927D01*
X120711857Y-56079408D01*
X120764543Y-56241556D01*
X120835118Y-56363795D01*
X120851999Y-56426794D01*
X120851999Y-64394000D01*
X120831997Y-64462121D01*
X120778341Y-64508614D01*
X120725999Y-64520000D01*
X119834500Y-64520000D01*
X119766379Y-64499998D01*
X119719886Y-64446342D01*
X119708500Y-64394000D01*
X119708500Y-62424759D01*
X119728502Y-62356638D01*
X119740865Y-62340447D01*
X119789038Y-62286946D01*
X119789037Y-62286946D01*
X119789040Y-62286944D01*
X119884527Y-62121556D01*
X119943542Y-61939928D01*
X119963504Y-61750000D01*
X119943542Y-61560072D01*
X119884527Y-61378444D01*
X119789040Y-61213056D01*
X119789038Y-61213054D01*
X119789034Y-61213048D01*
X119661255Y-61071135D01*
X119506752Y-60958882D01*
X119332288Y-60881206D01*
X119145487Y-60841500D01*
X118954513Y-60841500D01*
X118767711Y-60881206D01*
X118593247Y-60958882D01*
X118438744Y-61071135D01*
X118310965Y-61213048D01*
X118310958Y-61213058D01*
X118215476Y-61378438D01*
X118215473Y-61378445D01*
X118156457Y-61560072D01*
X118136496Y-61750000D01*
X118156457Y-61939927D01*
X118170964Y-61984573D01*
X118215473Y-62121556D01*
X118246910Y-62176006D01*
X118310961Y-62286946D01*
X118359135Y-62340448D01*
X118389852Y-62404456D01*
X118391499Y-62424759D01*
X118391500Y-64394000D01*
X118371498Y-64462121D01*
X118317842Y-64508614D01*
X118265500Y-64520000D01*
X118103449Y-64520000D01*
X118035328Y-64499998D01*
X118014354Y-64483095D01*
X117165404Y-63634145D01*
X117131378Y-63571833D01*
X117128499Y-63545050D01*
X117128499Y-57310013D01*
X117128499Y-51107593D01*
X117148501Y-51039476D01*
X117202157Y-50992983D01*
X117203093Y-50992561D01*
X117324252Y-50938618D01*
X117478753Y-50826366D01*
X117510470Y-50791141D01*
X117606534Y-50684451D01*
X117606535Y-50684449D01*
X117606540Y-50684444D01*
X117702027Y-50519056D01*
X117761042Y-50337428D01*
X117781004Y-50147500D01*
X117761042Y-49957572D01*
X117702027Y-49775944D01*
X117606540Y-49610556D01*
X117606538Y-49610554D01*
X117606534Y-49610548D01*
X117478755Y-49468635D01*
X117324252Y-49356382D01*
X117149788Y-49278706D01*
X116962987Y-49239000D01*
X116772013Y-49239000D01*
X116610697Y-49273289D01*
X116539906Y-49267887D01*
X116483274Y-49225070D01*
X116458780Y-49158433D01*
X116458500Y-49150042D01*
X116458500Y-41724949D01*
X116478502Y-41656828D01*
X116495396Y-41635863D01*
X117435857Y-40695402D01*
X117498167Y-40661379D01*
X117524950Y-40658500D01*
X122313389Y-40658500D01*
X122329620Y-40660291D01*
X122329644Y-40660042D01*
X122337536Y-40660788D01*
X122337536Y-40660787D01*
X122337537Y-40660788D01*
X122361275Y-40660042D01*
X122409358Y-40658531D01*
X122411337Y-40658500D01*
X122441425Y-40658500D01*
X122441432Y-40658500D01*
X122448779Y-40657571D01*
X122454682Y-40657106D01*
X122503831Y-40655562D01*
X122524421Y-40649579D01*
X122543776Y-40645571D01*
X122565064Y-40642882D01*
X122610796Y-40624775D01*
X122616380Y-40622863D01*
X122663600Y-40609145D01*
X122682050Y-40598232D01*
X122699813Y-40589530D01*
X122719756Y-40581635D01*
X122759537Y-40552730D01*
X122764487Y-40549480D01*
X122774175Y-40543750D01*
X122806807Y-40524453D01*
X122821977Y-40509281D01*
X122837005Y-40496447D01*
X122854357Y-40483841D01*
X122885702Y-40445950D01*
X122889670Y-40441588D01*
X125229386Y-38101872D01*
X125242129Y-38091665D01*
X125241969Y-38091471D01*
X125248075Y-38086418D01*
X125248080Y-38086416D01*
X125297314Y-38033985D01*
X125298598Y-38032660D01*
X125319927Y-38011333D01*
X125324470Y-38005475D01*
X125328308Y-38000980D01*
X125361972Y-37965133D01*
X125372310Y-37946327D01*
X125383152Y-37929823D01*
X125396304Y-37912868D01*
X125415832Y-37867737D01*
X125418441Y-37862414D01*
X125442124Y-37819337D01*
X125447457Y-37798562D01*
X125453856Y-37779869D01*
X125462380Y-37760176D01*
X125470074Y-37711591D01*
X125471271Y-37705810D01*
X125483500Y-37658188D01*
X125485473Y-37650506D01*
X125488252Y-37651219D01*
X125511172Y-37598646D01*
X125570226Y-37559236D01*
X125607809Y-37553500D01*
X125723632Y-37553500D01*
X125723638Y-37553500D01*
X125723645Y-37553499D01*
X125723649Y-37553499D01*
X125784196Y-37546990D01*
X125784199Y-37546989D01*
X125784201Y-37546989D01*
X125921204Y-37495889D01*
X125942665Y-37479824D01*
X126038261Y-37408261D01*
X126125887Y-37291207D01*
X126125887Y-37291206D01*
X126125889Y-37291204D01*
X126176989Y-37154201D01*
X126177056Y-37153584D01*
X126183499Y-37093649D01*
X128561500Y-37093649D01*
X128568009Y-37154196D01*
X128568011Y-37154204D01*
X128619110Y-37291202D01*
X128619112Y-37291207D01*
X128706738Y-37408261D01*
X128823792Y-37495887D01*
X128823794Y-37495888D01*
X128823796Y-37495889D01*
X128878900Y-37516442D01*
X128960795Y-37546988D01*
X128960803Y-37546990D01*
X129021350Y-37553499D01*
X129021355Y-37553499D01*
X129021362Y-37553500D01*
X129021368Y-37553500D01*
X130818632Y-37553500D01*
X130818638Y-37553500D01*
X130818645Y-37553499D01*
X130818649Y-37553499D01*
X130879196Y-37546990D01*
X130879199Y-37546989D01*
X130879201Y-37546989D01*
X131016204Y-37495889D01*
X131037665Y-37479824D01*
X131133261Y-37408261D01*
X131220886Y-37291208D01*
X131220885Y-37291208D01*
X131220889Y-37291204D01*
X131264999Y-37172939D01*
X131307545Y-37116107D01*
X131374066Y-37091296D01*
X131443440Y-37106388D01*
X131475753Y-37131635D01*
X131496529Y-37154204D01*
X131536762Y-37197908D01*
X131586814Y-37236865D01*
X131714424Y-37336189D01*
X131912426Y-37443342D01*
X131912427Y-37443342D01*
X131912428Y-37443343D01*
X132024227Y-37481723D01*
X132125365Y-37516444D01*
X132347431Y-37553500D01*
X132347435Y-37553500D01*
X132572565Y-37553500D01*
X132572569Y-37553500D01*
X132794635Y-37516444D01*
X133007574Y-37443342D01*
X133205576Y-37336189D01*
X133383240Y-37197906D01*
X133535722Y-37032268D01*
X133658860Y-36843791D01*
X133749296Y-36637616D01*
X133804564Y-36419368D01*
X133823156Y-36195000D01*
X133804564Y-35970632D01*
X133749296Y-35752384D01*
X133658860Y-35546209D01*
X133641500Y-35519637D01*
X133535724Y-35357734D01*
X133535720Y-35357729D01*
X133383237Y-35192091D01*
X133263372Y-35098796D01*
X133205576Y-35053811D01*
X133007574Y-34946658D01*
X133007572Y-34946657D01*
X133007571Y-34946656D01*
X132794639Y-34873557D01*
X132794630Y-34873555D01*
X132742990Y-34864938D01*
X132572569Y-34836500D01*
X132347431Y-34836500D01*
X132199210Y-34861233D01*
X132125369Y-34873555D01*
X132125360Y-34873557D01*
X131912428Y-34946656D01*
X131912426Y-34946658D01*
X131714432Y-35053807D01*
X131714426Y-35053810D01*
X131714424Y-35053811D01*
X131536762Y-35192091D01*
X131475754Y-35258363D01*
X131414901Y-35294933D01*
X131343936Y-35292798D01*
X131285391Y-35252636D01*
X131264999Y-35217057D01*
X131220889Y-35098797D01*
X131220887Y-35098792D01*
X131133261Y-34981738D01*
X131016207Y-34894112D01*
X131016202Y-34894110D01*
X130879204Y-34843011D01*
X130879196Y-34843009D01*
X130818649Y-34836500D01*
X130818638Y-34836500D01*
X129021362Y-34836500D01*
X129021350Y-34836500D01*
X128960803Y-34843009D01*
X128960795Y-34843011D01*
X128823797Y-34894110D01*
X128823792Y-34894112D01*
X128706738Y-34981738D01*
X128619112Y-35098792D01*
X128619110Y-35098797D01*
X128568011Y-35235795D01*
X128568009Y-35235803D01*
X128561500Y-35296350D01*
X128561500Y-37093649D01*
X126183499Y-37093649D01*
X126183500Y-37093632D01*
X126183500Y-35296367D01*
X126183499Y-35296350D01*
X126176990Y-35235803D01*
X126176988Y-35235795D01*
X126125889Y-35098797D01*
X126125887Y-35098792D01*
X126038261Y-34981738D01*
X125921207Y-34894112D01*
X125921202Y-34894110D01*
X125784204Y-34843011D01*
X125784196Y-34843009D01*
X125723649Y-34836500D01*
X125723638Y-34836500D01*
X123926362Y-34836500D01*
X123926350Y-34836500D01*
X123865803Y-34843009D01*
X123865795Y-34843011D01*
X123728797Y-34894110D01*
X123728792Y-34894112D01*
X123611738Y-34981738D01*
X123524112Y-35098792D01*
X123524111Y-35098795D01*
X123480000Y-35217058D01*
X123437453Y-35273893D01*
X123370932Y-35298703D01*
X123301558Y-35283611D01*
X123269246Y-35258363D01*
X123208240Y-35192094D01*
X123208239Y-35192093D01*
X123208237Y-35192091D01*
X123088372Y-35098796D01*
X123030576Y-35053811D01*
X122832574Y-34946658D01*
X122832572Y-34946657D01*
X122832571Y-34946656D01*
X122619639Y-34873557D01*
X122619630Y-34873555D01*
X122567990Y-34864938D01*
X122397569Y-34836500D01*
X122172431Y-34836500D01*
X122024211Y-34861233D01*
X121950369Y-34873555D01*
X121950360Y-34873557D01*
X121737428Y-34946656D01*
X121737426Y-34946658D01*
X121539432Y-35053807D01*
X121539426Y-35053810D01*
X121539424Y-35053811D01*
X121361762Y-35192091D01*
X121209279Y-35357729D01*
X121120483Y-35493643D01*
X121066479Y-35539731D01*
X120996131Y-35549306D01*
X120931774Y-35519329D01*
X120909517Y-35493643D01*
X120820720Y-35357729D01*
X120668237Y-35192091D01*
X120548372Y-35098796D01*
X120490576Y-35053811D01*
X120292574Y-34946658D01*
X120292572Y-34946657D01*
X120292571Y-34946656D01*
X120079639Y-34873557D01*
X120079630Y-34873555D01*
X120027990Y-34864938D01*
X119857569Y-34836500D01*
X119632431Y-34836500D01*
X119484211Y-34861233D01*
X119410369Y-34873555D01*
X119410360Y-34873557D01*
X119197428Y-34946656D01*
X119197426Y-34946658D01*
X118999432Y-35053807D01*
X118999426Y-35053810D01*
X118999424Y-35053811D01*
X118821762Y-35192091D01*
X118669279Y-35357729D01*
X118580483Y-35493643D01*
X118526479Y-35539731D01*
X118456131Y-35549306D01*
X118391774Y-35519329D01*
X118369517Y-35493643D01*
X118280720Y-35357729D01*
X118128237Y-35192091D01*
X118008372Y-35098796D01*
X117950576Y-35053811D01*
X117752574Y-34946658D01*
X117752572Y-34946657D01*
X117752571Y-34946656D01*
X117539639Y-34873557D01*
X117539630Y-34873555D01*
X117487990Y-34864938D01*
X117317569Y-34836500D01*
X117092431Y-34836500D01*
X116944211Y-34861233D01*
X116870369Y-34873555D01*
X116870360Y-34873557D01*
X116657428Y-34946656D01*
X116657426Y-34946658D01*
X116459432Y-35053807D01*
X116459426Y-35053810D01*
X116459424Y-35053811D01*
X116281762Y-35192091D01*
X116129279Y-35357729D01*
X116040483Y-35493643D01*
X115986479Y-35539731D01*
X115916131Y-35549306D01*
X115851774Y-35519329D01*
X115829517Y-35493643D01*
X115740720Y-35357729D01*
X115588237Y-35192091D01*
X115468372Y-35098796D01*
X115410576Y-35053811D01*
X115212574Y-34946658D01*
X115212572Y-34946657D01*
X115212571Y-34946656D01*
X114999639Y-34873557D01*
X114999630Y-34873555D01*
X114947990Y-34864938D01*
X114777569Y-34836500D01*
X114552431Y-34836500D01*
X114404210Y-34861233D01*
X114330369Y-34873555D01*
X114330360Y-34873557D01*
X114117428Y-34946656D01*
X114117426Y-34946658D01*
X113919432Y-35053807D01*
X113919426Y-35053810D01*
X113919424Y-35053811D01*
X113741762Y-35192091D01*
X113589279Y-35357729D01*
X113589275Y-35357734D01*
X113466141Y-35546206D01*
X113375703Y-35752386D01*
X113375702Y-35752387D01*
X113320437Y-35970624D01*
X113301844Y-36195000D01*
X113320437Y-36419375D01*
X113375702Y-36637612D01*
X113375703Y-36637613D01*
X113464780Y-36840692D01*
X113466140Y-36843791D01*
X113483500Y-36870362D01*
X113498617Y-36893501D01*
X113519129Y-36961470D01*
X113499639Y-37029739D01*
X113482228Y-37051510D01*
X113395611Y-37138127D01*
X113382865Y-37148340D01*
X113383025Y-37148533D01*
X113376920Y-37153583D01*
X113327718Y-37205977D01*
X113326342Y-37207397D01*
X113305071Y-37228668D01*
X113300527Y-37234525D01*
X113296678Y-37239031D01*
X113263029Y-37274865D01*
X113263027Y-37274867D01*
X113252691Y-37293667D01*
X113241843Y-37310180D01*
X113228699Y-37327126D01*
X113228694Y-37327135D01*
X113209172Y-37372247D01*
X113206560Y-37377577D01*
X113182877Y-37420660D01*
X113182873Y-37420670D01*
X113177541Y-37441436D01*
X113171139Y-37460136D01*
X113162620Y-37479820D01*
X113162619Y-37479824D01*
X113154928Y-37528384D01*
X113153724Y-37534197D01*
X113141499Y-37581810D01*
X113141500Y-37603258D01*
X113139949Y-37622967D01*
X113136594Y-37644150D01*
X113136594Y-37644152D01*
X113141220Y-37693094D01*
X113141500Y-37699027D01*
X113141500Y-49387508D01*
X113121498Y-49455629D01*
X113067842Y-49502122D01*
X112997568Y-49512226D01*
X112992357Y-49511364D01*
X112828315Y-49480700D01*
X112611685Y-49480700D01*
X112398745Y-49520505D01*
X112398740Y-49520506D01*
X112398737Y-49520507D01*
X112196750Y-49598758D01*
X112196743Y-49598761D01*
X112012559Y-49712802D01*
X111852470Y-49858743D01*
X111721924Y-50031615D01*
X111625363Y-50225536D01*
X111625360Y-50225544D01*
X111571190Y-50415935D01*
X111533310Y-50475982D01*
X111468979Y-50506016D01*
X111398623Y-50496503D01*
X111344578Y-50450463D01*
X111328810Y-50415935D01*
X111295464Y-50298736D01*
X111274637Y-50225536D01*
X111178077Y-50031617D01*
X111112070Y-49944210D01*
X111047529Y-49858743D01*
X110887440Y-49712802D01*
X110703256Y-49598761D01*
X110703249Y-49598758D01*
X110501262Y-49520507D01*
X110501259Y-49520506D01*
X110501256Y-49520505D01*
X110501255Y-49520505D01*
X110288315Y-49480700D01*
X110071685Y-49480700D01*
X109858745Y-49520505D01*
X109858740Y-49520506D01*
X109858737Y-49520507D01*
X109656750Y-49598758D01*
X109656743Y-49598761D01*
X109472559Y-49712802D01*
X109312470Y-49858743D01*
X109181924Y-50031615D01*
X109085363Y-50225536D01*
X109085360Y-50225544D01*
X109031190Y-50415935D01*
X108993310Y-50475982D01*
X108928979Y-50506016D01*
X108858623Y-50496503D01*
X108804578Y-50450463D01*
X108788810Y-50415935D01*
X108755464Y-50298736D01*
X108734637Y-50225536D01*
X108638077Y-50031617D01*
X108572070Y-49944210D01*
X108507529Y-49858743D01*
X108347440Y-49712802D01*
X108163256Y-49598761D01*
X108163249Y-49598758D01*
X107961262Y-49520507D01*
X107961259Y-49520506D01*
X107961256Y-49520505D01*
X107961255Y-49520505D01*
X107748315Y-49480700D01*
X107531685Y-49480700D01*
X107318745Y-49520505D01*
X107318740Y-49520506D01*
X107318737Y-49520507D01*
X107116750Y-49598758D01*
X107116743Y-49598761D01*
X106932559Y-49712802D01*
X106772470Y-49858743D01*
X106641924Y-50031615D01*
X106545363Y-50225536D01*
X106545360Y-50225544D01*
X106486080Y-50433893D01*
X106486079Y-50433895D01*
X106486080Y-50433895D01*
X106471100Y-50595555D01*
X106471100Y-52024445D01*
X106480616Y-52127139D01*
X106486080Y-52186106D01*
X106516524Y-52293108D01*
X106545363Y-52394464D01*
X106641923Y-52588383D01*
X106641924Y-52588384D01*
X106772470Y-52761256D01*
X106932559Y-52907197D01*
X106932561Y-52907198D01*
X106932562Y-52907199D01*
X107116744Y-53021239D01*
X107318745Y-53099495D01*
X107531685Y-53139300D01*
X107531687Y-53139300D01*
X107748313Y-53139300D01*
X107748315Y-53139300D01*
X107961255Y-53099495D01*
X108163256Y-53021239D01*
X108347438Y-52907199D01*
X108507528Y-52761257D01*
X108638077Y-52588383D01*
X108734637Y-52394464D01*
X108788810Y-52204063D01*
X108826690Y-52144017D01*
X108891021Y-52113983D01*
X108961377Y-52123496D01*
X109015422Y-52169536D01*
X109031189Y-52204062D01*
X109085363Y-52394464D01*
X109181923Y-52588383D01*
X109181924Y-52588384D01*
X109312470Y-52761256D01*
X109472559Y-52907197D01*
X109472561Y-52907198D01*
X109472562Y-52907199D01*
X109656744Y-53021239D01*
X109858745Y-53099495D01*
X110071685Y-53139300D01*
X110071687Y-53139300D01*
X110288313Y-53139300D01*
X110288315Y-53139300D01*
X110501255Y-53099495D01*
X110703256Y-53021239D01*
X110887438Y-52907199D01*
X111047528Y-52761257D01*
X111178077Y-52588383D01*
X111274637Y-52394464D01*
X111328810Y-52204063D01*
X111366690Y-52144017D01*
X111431021Y-52113983D01*
X111501377Y-52123496D01*
X111555422Y-52169536D01*
X111571189Y-52204062D01*
X111625363Y-52394464D01*
X111721923Y-52588383D01*
X111721924Y-52588384D01*
X111852470Y-52761256D01*
X112012559Y-52907197D01*
X112012561Y-52907198D01*
X112012562Y-52907199D01*
X112196744Y-53021239D01*
X112398745Y-53099495D01*
X112611685Y-53139300D01*
X112611687Y-53139300D01*
X112828312Y-53139300D01*
X112828315Y-53139300D01*
X113002751Y-53106692D01*
X113073384Y-53113837D01*
X113128944Y-53158035D01*
X113151789Y-53225256D01*
X113151900Y-53230547D01*
X113151900Y-54469452D01*
X113131898Y-54537573D01*
X113078242Y-54584066D01*
X113007968Y-54594170D01*
X113002754Y-54593308D01*
X112828315Y-54560700D01*
X112611685Y-54560700D01*
X112432635Y-54594170D01*
X112398740Y-54600506D01*
X112398737Y-54600507D01*
X112196750Y-54678758D01*
X112196743Y-54678761D01*
X112012559Y-54792802D01*
X111852470Y-54938743D01*
X111721924Y-55111615D01*
X111625363Y-55305536D01*
X111625360Y-55305544D01*
X111571190Y-55495935D01*
X111533310Y-55555982D01*
X111468979Y-55586016D01*
X111398623Y-55576503D01*
X111344578Y-55530463D01*
X111328810Y-55495935D01*
X111297172Y-55384738D01*
X111274637Y-55305536D01*
X111178077Y-55111617D01*
X111135163Y-55054790D01*
X111047529Y-54938743D01*
X110887440Y-54792802D01*
X110703256Y-54678761D01*
X110703249Y-54678758D01*
X110501262Y-54600507D01*
X110501259Y-54600506D01*
X110501256Y-54600505D01*
X110501255Y-54600505D01*
X110288315Y-54560700D01*
X110071685Y-54560700D01*
X109892635Y-54594170D01*
X109858740Y-54600506D01*
X109858737Y-54600507D01*
X109656750Y-54678758D01*
X109656743Y-54678761D01*
X109472559Y-54792802D01*
X109312470Y-54938743D01*
X109181924Y-55111615D01*
X109085363Y-55305536D01*
X109085360Y-55305544D01*
X109031190Y-55495935D01*
X108993310Y-55555982D01*
X108928979Y-55586016D01*
X108858623Y-55576503D01*
X108804578Y-55530463D01*
X108788810Y-55495935D01*
X108757172Y-55384738D01*
X108734637Y-55305536D01*
X108638077Y-55111617D01*
X108595163Y-55054790D01*
X108507529Y-54938743D01*
X108347440Y-54792802D01*
X108163256Y-54678761D01*
X108163249Y-54678758D01*
X107961262Y-54600507D01*
X107961259Y-54600506D01*
X107961256Y-54600505D01*
X107961255Y-54600505D01*
X107748315Y-54560700D01*
X107531685Y-54560700D01*
X107352635Y-54594170D01*
X107318740Y-54600506D01*
X107318737Y-54600507D01*
X107116750Y-54678758D01*
X107116743Y-54678761D01*
X106932559Y-54792802D01*
X106772470Y-54938743D01*
X106641924Y-55111615D01*
X106545363Y-55305536D01*
X106545360Y-55305544D01*
X106486080Y-55513893D01*
X106486079Y-55513895D01*
X106486080Y-55513895D01*
X106471100Y-55675555D01*
X106471100Y-57104445D01*
X106481911Y-57221116D01*
X106486080Y-57266106D01*
X106528676Y-57415818D01*
X106545363Y-57474464D01*
X106641923Y-57668383D01*
X106644520Y-57673598D01*
X106643169Y-57674270D01*
X106660105Y-57735737D01*
X106638965Y-57803513D01*
X106593520Y-57844749D01*
X106477793Y-57906606D01*
X106324230Y-58032632D01*
X106294609Y-58068726D01*
X106290455Y-58073309D01*
X105853596Y-58510169D01*
X105791283Y-58544194D01*
X105720468Y-58539130D01*
X105663632Y-58496583D01*
X105638821Y-58430063D01*
X105638500Y-58421074D01*
X105638500Y-41942080D01*
X105658502Y-41873959D01*
X105675400Y-41852990D01*
X110039592Y-37488797D01*
X110087771Y-37458722D01*
X110132574Y-37443342D01*
X110330576Y-37336189D01*
X110508240Y-37197906D01*
X110660722Y-37032268D01*
X110783860Y-36843791D01*
X110874296Y-36637616D01*
X110929564Y-36419368D01*
X110948156Y-36195000D01*
X110929564Y-35970632D01*
X110874296Y-35752384D01*
X110783860Y-35546209D01*
X110766055Y-35518957D01*
X110745542Y-35450990D01*
X110765030Y-35382721D01*
X110782434Y-35360956D01*
X111727989Y-34415402D01*
X111790299Y-34381379D01*
X111817082Y-34378500D01*
X137792918Y-34378500D01*
X137861039Y-34398502D01*
G37*
%TD.AperFunction*%
%TD*%
M02*
