%TF.GenerationSoftware,KiCad,Pcbnew,6.0.9-8da3e8f707~116~ubuntu22.04.1*%
%TF.CreationDate,2022-11-13T12:20:04+05:30*%
%TF.ProjectId,lsa,6c73612e-6b69-4636-9164-5f7063625858,rev?*%
%TF.SameCoordinates,Original*%
%TF.FileFunction,Copper,L1,Top*%
%TF.FilePolarity,Positive*%
%FSLAX46Y46*%
G04 Gerber Fmt 4.6, Leading zero omitted, Abs format (unit mm)*
G04 Created by KiCad (PCBNEW 6.0.9-8da3e8f707~116~ubuntu22.04.1) date 2022-11-13 12:20:04*
%MOMM*%
%LPD*%
G01*
G04 APERTURE LIST*
%TA.AperFunction,ComponentPad*%
%ADD10R,1.700000X1.700000*%
%TD*%
%TA.AperFunction,ComponentPad*%
%ADD11O,1.700000X1.700000*%
%TD*%
%TA.AperFunction,ComponentPad*%
%ADD12C,1.500000*%
%TD*%
%TA.AperFunction,Conductor*%
%ADD13C,0.600000*%
%TD*%
G04 APERTURE END LIST*
D10*
%TO.P,J1,1,Pin_1*%
%TO.N,/A4_32*%
X108575000Y-72000000D03*
D11*
%TO.P,J1,2,Pin_2*%
%TO.N,/A3_35*%
X111115000Y-72000000D03*
%TO.P,J1,3,Pin_3*%
%TO.N,/A2_34*%
X113655000Y-72000000D03*
%TO.P,J1,4,Pin_4*%
%TO.N,/A1_39*%
X116195000Y-72000000D03*
%TO.P,J1,5,Pin_5*%
%TO.N,/A0_36*%
X118735000Y-72000000D03*
%TO.P,J1,6,Pin_6*%
%TO.N,GND*%
X121275000Y-72000000D03*
%TO.P,J1,7,Pin_7*%
%TO.N,+3V3*%
X123815000Y-72000000D03*
%TD*%
D12*
%TO.P,U5,A*%
%TO.N,GND*%
X89930000Y-77850000D03*
%TO.P,U5,CATH*%
%TO.N,Net-(R9-Pad2)*%
X92470000Y-77850000D03*
%TO.P,U5,COLL*%
%TO.N,GND*%
X89930000Y-83350000D03*
%TO.P,U5,E*%
%TO.N,/A4_32*%
X92470000Y-83350000D03*
%TD*%
%TO.P,U3,A*%
%TO.N,GND*%
X114930000Y-77850000D03*
%TO.P,U3,CATH*%
%TO.N,Net-(R5-Pad2)*%
X117470000Y-77850000D03*
%TO.P,U3,COLL*%
%TO.N,GND*%
X114930000Y-83350000D03*
%TO.P,U3,E*%
%TO.N,/A2_34*%
X117470000Y-83350000D03*
%TD*%
%TO.P,U4,A*%
%TO.N,GND*%
X103130000Y-77850000D03*
%TO.P,U4,CATH*%
%TO.N,Net-(R7-Pad2)*%
X105670000Y-77850000D03*
%TO.P,U4,COLL*%
%TO.N,GND*%
X103130000Y-83350000D03*
%TO.P,U4,E*%
%TO.N,/A3_35*%
X105670000Y-83350000D03*
%TD*%
%TO.P,U2,A*%
%TO.N,GND*%
X126730000Y-77850000D03*
%TO.P,U2,CATH*%
%TO.N,Net-(R3-Pad2)*%
X129270000Y-77850000D03*
%TO.P,U2,COLL*%
%TO.N,GND*%
X126730000Y-83350000D03*
%TO.P,U2,E*%
%TO.N,/A1_39*%
X129270000Y-83350000D03*
%TD*%
%TO.P,U1,A*%
%TO.N,GND*%
X139930000Y-77850000D03*
%TO.P,U1,CATH*%
%TO.N,Net-(R1-Pad2)*%
X142470000Y-77850000D03*
%TO.P,U1,COLL*%
%TO.N,GND*%
X139930000Y-83350000D03*
%TO.P,U1,E*%
%TO.N,/A0_36*%
X142470000Y-83350000D03*
%TD*%
D13*
%TO.N,/A4_32*%
X108575000Y-72000000D02*
X99400000Y-72000000D01*
X96800000Y-81200000D02*
X94650000Y-83350000D01*
X94650000Y-83350000D02*
X92470000Y-83350000D01*
X99400000Y-72000000D02*
X96800000Y-74600000D01*
X96800000Y-74600000D02*
X96800000Y-81200000D01*
%TO.N,/A3_35*%
X108050000Y-83350000D02*
X105670000Y-83350000D01*
X111115000Y-80285000D02*
X108050000Y-83350000D01*
X111115000Y-72000000D02*
X111115000Y-80285000D01*
%TO.N,/A2_34*%
X119250000Y-83350000D02*
X117470000Y-83350000D01*
X120200000Y-82400000D02*
X119250000Y-83350000D01*
X118200000Y-75800000D02*
X120200000Y-77800000D01*
X113655000Y-72000000D02*
X113655000Y-74255000D01*
X113655000Y-74255000D02*
X115200000Y-75800000D01*
X120200000Y-77800000D02*
X120200000Y-82400000D01*
X115200000Y-75800000D02*
X118200000Y-75800000D01*
%TO.N,/A1_39*%
X127620000Y-85000000D02*
X129270000Y-83350000D01*
X124200000Y-85000000D02*
X127620000Y-85000000D01*
X118800000Y-74600000D02*
X121600000Y-77400000D01*
X116195000Y-72000000D02*
X116195000Y-73995000D01*
X116195000Y-73995000D02*
X116800000Y-74600000D01*
X116800000Y-74600000D02*
X118800000Y-74600000D01*
X121600000Y-77400000D02*
X121600000Y-82400000D01*
X121600000Y-82400000D02*
X124200000Y-85000000D01*
%TO.N,/A0_36*%
X134600000Y-77200000D02*
X134600000Y-82800000D01*
X141600000Y-85800000D02*
X142470000Y-84930000D01*
X142470000Y-84930000D02*
X142470000Y-83350000D01*
X134600000Y-82800000D02*
X137600000Y-85800000D01*
X122135000Y-75400000D02*
X132800000Y-75400000D01*
X118735000Y-72000000D02*
X122135000Y-75400000D01*
X137600000Y-85800000D02*
X141600000Y-85800000D01*
X132800000Y-75400000D02*
X134600000Y-77200000D01*
%TD*%
M02*
