M48
; DRILL file {KiCad 6.0.9-8da3e8f707~116~ubuntu22.04.1} date Sun 13 Nov 2022 12:20:07 PM IST
; FORMAT={-:-/ absolute / inch / decimal}
; #@! TF.CreationDate,2022-11-13T12:20:07+05:30
; #@! TF.GenerationSoftware,Kicad,Pcbnew,6.0.9-8da3e8f707~116~ubuntu22.04.1
; #@! TF.FileFunction,Plated,1,2,PTH
FMAT,2
INCH
; #@! TA.AperFunction,Plated,PTH,ComponentDrill
T1C0.0394
%
G90
G05
T1
X3.5406Y-3.065
X3.5406Y-3.2815
X3.6406Y-3.065
X3.6406Y-3.2815
X4.0602Y-3.065
X4.0602Y-3.2815
X4.1602Y-3.065
X4.1602Y-3.2815
X4.2746Y-2.8346
X4.3746Y-2.8346
X4.4746Y-2.8346
X4.5248Y-3.065
X4.5248Y-3.2815
X4.5746Y-2.8346
X4.6248Y-3.065
X4.6248Y-3.2815
X4.6746Y-2.8346
X4.7746Y-2.8346
X4.8746Y-2.8346
X4.9894Y-3.065
X4.9894Y-3.2815
X5.0894Y-3.065
X5.0894Y-3.2815
X5.5091Y-3.065
X5.5091Y-3.2815
X5.6091Y-3.065
X5.6091Y-3.2815
T0
M30
