%TF.GenerationSoftware,KiCad,Pcbnew,6.0.9-8da3e8f707~116~ubuntu22.04.1*%
%TF.CreationDate,2022-11-13T12:20:07+05:30*%
%TF.ProjectId,lsa,6c73612e-6b69-4636-9164-5f7063625858,rev?*%
%TF.SameCoordinates,Original*%
%TF.FileFunction,Drillmap*%
%TF.FilePolarity,Positive*%
%FSLAX45Y45*%
G04 Gerber Fmt 4.5, Leading zero omitted, Abs format (unit mm)*
G04 Created by KiCad (PCBNEW 6.0.9-8da3e8f707~116~ubuntu22.04.1) date 2022-11-13 12:20:07*
%MOMM*%
%LPD*%
G01*
G04 APERTURE LIST*
%ADD10C,0.100000*%
%ADD11C,0.200000*%
%ADD12C,0.250000*%
%ADD13C,0.320000*%
G04 APERTURE END LIST*
D10*
X14703934Y-9057934D02*
X14703934Y-7091066D01*
X8681000Y-9209000D02*
X14553934Y-9207934D01*
X8531000Y-9059000D02*
G75*
G03*
X8681000Y-9209000I150000J0D01*
G01*
X14553934Y-6941066D02*
X8681000Y-6941000D01*
X8681000Y-6941000D02*
G75*
G03*
X8531000Y-7091000I0J-150000D01*
G01*
X14553934Y-9207934D02*
G75*
G03*
X14703934Y-9057934I-4J150004D01*
G01*
X8531000Y-7091000D02*
X8531000Y-9059000D01*
X14703934Y-7091066D02*
G75*
G03*
X14553934Y-6941066I-150004J-4D01*
G01*
D11*
D10*
X9315000Y-8475000D02*
X9415000Y-8575000D01*
X9415000Y-8475000D02*
X9315000Y-8575000D01*
X10635000Y-8475000D02*
X10735000Y-8575000D01*
X10735000Y-8475000D02*
X10635000Y-8575000D01*
X11815000Y-8475000D02*
X11915000Y-8575000D01*
X11915000Y-8475000D02*
X11815000Y-8575000D01*
X12995000Y-8475000D02*
X13095000Y-8575000D01*
X13095000Y-8475000D02*
X12995000Y-8575000D01*
X14315000Y-8475000D02*
X14415000Y-8575000D01*
X14415000Y-8475000D02*
X14315000Y-8575000D01*
D12*
X9055000Y-8060000D02*
G75*
G03*
X9055000Y-8060000I-125000J0D01*
G01*
X9435000Y-8060000D02*
G75*
G03*
X9435000Y-8060000I-125000J0D01*
G01*
X10375000Y-8060000D02*
G75*
G03*
X10375000Y-8060000I-125000J0D01*
G01*
X10755000Y-8060000D02*
G75*
G03*
X10755000Y-8060000I-125000J0D01*
G01*
X11555000Y-8060000D02*
G75*
G03*
X11555000Y-8060000I-125000J0D01*
G01*
X11935000Y-8060000D02*
G75*
G03*
X11935000Y-8060000I-125000J0D01*
G01*
X12735000Y-8060000D02*
G75*
G03*
X12735000Y-8060000I-125000J0D01*
G01*
X13115000Y-8060000D02*
G75*
G03*
X13115000Y-8060000I-125000J0D01*
G01*
X14055000Y-8060000D02*
G75*
G03*
X14055000Y-8060000I-125000J0D01*
G01*
X14435000Y-8060000D02*
G75*
G03*
X14435000Y-8060000I-125000J0D01*
G01*
D13*
X8781000Y-7031000D02*
X8781000Y-7351000D01*
X8621000Y-7191000D02*
X8941000Y-7191000D01*
X9846000Y-8662000D02*
X9846000Y-8982000D01*
X9686000Y-8822000D02*
X10006000Y-8822000D01*
X13390000Y-8662000D02*
X13390000Y-8982000D01*
X13230000Y-8822000D02*
X13550000Y-8822000D01*
X14454000Y-7031000D02*
X14454000Y-7351000D01*
X14294000Y-7191000D02*
X14614000Y-7191000D01*
D11*
X8783619Y-9524476D02*
X8783619Y-9324476D01*
X8831238Y-9324476D01*
X8859810Y-9334000D01*
X8878857Y-9353048D01*
X8888381Y-9372095D01*
X8897905Y-9410190D01*
X8897905Y-9438762D01*
X8888381Y-9476857D01*
X8878857Y-9495905D01*
X8859810Y-9514952D01*
X8831238Y-9524476D01*
X8783619Y-9524476D01*
X8983619Y-9524476D02*
X8983619Y-9391143D01*
X8983619Y-9429238D02*
X8993143Y-9410190D01*
X9002667Y-9400667D01*
X9021714Y-9391143D01*
X9040762Y-9391143D01*
X9107429Y-9524476D02*
X9107429Y-9391143D01*
X9107429Y-9324476D02*
X9097905Y-9334000D01*
X9107429Y-9343524D01*
X9116952Y-9334000D01*
X9107429Y-9324476D01*
X9107429Y-9343524D01*
X9231238Y-9524476D02*
X9212190Y-9514952D01*
X9202667Y-9495905D01*
X9202667Y-9324476D01*
X9336000Y-9524476D02*
X9316952Y-9514952D01*
X9307429Y-9495905D01*
X9307429Y-9324476D01*
X9564571Y-9524476D02*
X9564571Y-9324476D01*
X9631238Y-9467333D01*
X9697905Y-9324476D01*
X9697905Y-9524476D01*
X9878857Y-9524476D02*
X9878857Y-9419714D01*
X9869333Y-9400667D01*
X9850286Y-9391143D01*
X9812190Y-9391143D01*
X9793143Y-9400667D01*
X9878857Y-9514952D02*
X9859810Y-9524476D01*
X9812190Y-9524476D01*
X9793143Y-9514952D01*
X9783619Y-9495905D01*
X9783619Y-9476857D01*
X9793143Y-9457810D01*
X9812190Y-9448286D01*
X9859810Y-9448286D01*
X9878857Y-9438762D01*
X9974095Y-9391143D02*
X9974095Y-9591143D01*
X9974095Y-9400667D02*
X9993143Y-9391143D01*
X10031238Y-9391143D01*
X10050286Y-9400667D01*
X10059810Y-9410190D01*
X10069333Y-9429238D01*
X10069333Y-9486381D01*
X10059810Y-9505429D01*
X10050286Y-9514952D01*
X10031238Y-9524476D01*
X9993143Y-9524476D01*
X9974095Y-9514952D01*
X10155048Y-9505429D02*
X10164571Y-9514952D01*
X10155048Y-9524476D01*
X10145524Y-9514952D01*
X10155048Y-9505429D01*
X10155048Y-9524476D01*
X10155048Y-9400667D02*
X10164571Y-9410190D01*
X10155048Y-9419714D01*
X10145524Y-9410190D01*
X10155048Y-9400667D01*
X10155048Y-9419714D01*
D10*
X8426000Y-9804000D02*
X8526000Y-9904000D01*
X8526000Y-9804000D02*
X8426000Y-9904000D01*
D11*
X8888381Y-9944476D02*
X8774095Y-9944476D01*
X8831238Y-9944476D02*
X8831238Y-9744476D01*
X8812190Y-9773048D01*
X8793143Y-9792095D01*
X8774095Y-9801619D01*
X8974095Y-9925429D02*
X8983619Y-9934952D01*
X8974095Y-9944476D01*
X8964571Y-9934952D01*
X8974095Y-9925429D01*
X8974095Y-9944476D01*
X9107429Y-9744476D02*
X9126476Y-9744476D01*
X9145524Y-9754000D01*
X9155048Y-9763524D01*
X9164571Y-9782571D01*
X9174095Y-9820667D01*
X9174095Y-9868286D01*
X9164571Y-9906381D01*
X9155048Y-9925429D01*
X9145524Y-9934952D01*
X9126476Y-9944476D01*
X9107429Y-9944476D01*
X9088381Y-9934952D01*
X9078857Y-9925429D01*
X9069333Y-9906381D01*
X9059810Y-9868286D01*
X9059810Y-9820667D01*
X9069333Y-9782571D01*
X9078857Y-9763524D01*
X9088381Y-9754000D01*
X9107429Y-9744476D01*
X9297905Y-9744476D02*
X9316952Y-9744476D01*
X9336000Y-9754000D01*
X9345524Y-9763524D01*
X9355048Y-9782571D01*
X9364571Y-9820667D01*
X9364571Y-9868286D01*
X9355048Y-9906381D01*
X9345524Y-9925429D01*
X9336000Y-9934952D01*
X9316952Y-9944476D01*
X9297905Y-9944476D01*
X9278857Y-9934952D01*
X9269333Y-9925429D01*
X9259810Y-9906381D01*
X9250286Y-9868286D01*
X9250286Y-9820667D01*
X9259810Y-9782571D01*
X9269333Y-9763524D01*
X9278857Y-9754000D01*
X9297905Y-9744476D01*
X9488381Y-9744476D02*
X9507429Y-9744476D01*
X9526476Y-9754000D01*
X9536000Y-9763524D01*
X9545524Y-9782571D01*
X9555048Y-9820667D01*
X9555048Y-9868286D01*
X9545524Y-9906381D01*
X9536000Y-9925429D01*
X9526476Y-9934952D01*
X9507429Y-9944476D01*
X9488381Y-9944476D01*
X9469333Y-9934952D01*
X9459810Y-9925429D01*
X9450286Y-9906381D01*
X9440762Y-9868286D01*
X9440762Y-9820667D01*
X9450286Y-9782571D01*
X9459810Y-9763524D01*
X9469333Y-9754000D01*
X9488381Y-9744476D01*
X9640762Y-9944476D02*
X9640762Y-9811143D01*
X9640762Y-9830190D02*
X9650286Y-9820667D01*
X9669333Y-9811143D01*
X9697905Y-9811143D01*
X9716952Y-9820667D01*
X9726476Y-9839714D01*
X9726476Y-9944476D01*
X9726476Y-9839714D02*
X9736000Y-9820667D01*
X9755048Y-9811143D01*
X9783619Y-9811143D01*
X9802667Y-9820667D01*
X9812190Y-9839714D01*
X9812190Y-9944476D01*
X9907429Y-9944476D02*
X9907429Y-9811143D01*
X9907429Y-9830190D02*
X9916952Y-9820667D01*
X9936000Y-9811143D01*
X9964571Y-9811143D01*
X9983619Y-9820667D01*
X9993143Y-9839714D01*
X9993143Y-9944476D01*
X9993143Y-9839714D02*
X10002667Y-9820667D01*
X10021714Y-9811143D01*
X10050286Y-9811143D01*
X10069333Y-9820667D01*
X10078857Y-9839714D01*
X10078857Y-9944476D01*
X10469333Y-9734952D02*
X10297905Y-9992095D01*
X10726476Y-9744476D02*
X10745524Y-9744476D01*
X10764571Y-9754000D01*
X10774095Y-9763524D01*
X10783619Y-9782571D01*
X10793143Y-9820667D01*
X10793143Y-9868286D01*
X10783619Y-9906381D01*
X10774095Y-9925429D01*
X10764571Y-9934952D01*
X10745524Y-9944476D01*
X10726476Y-9944476D01*
X10707429Y-9934952D01*
X10697905Y-9925429D01*
X10688381Y-9906381D01*
X10678857Y-9868286D01*
X10678857Y-9820667D01*
X10688381Y-9782571D01*
X10697905Y-9763524D01*
X10707429Y-9754000D01*
X10726476Y-9744476D01*
X10878857Y-9925429D02*
X10888381Y-9934952D01*
X10878857Y-9944476D01*
X10869333Y-9934952D01*
X10878857Y-9925429D01*
X10878857Y-9944476D01*
X11012190Y-9744476D02*
X11031238Y-9744476D01*
X11050286Y-9754000D01*
X11059810Y-9763524D01*
X11069333Y-9782571D01*
X11078857Y-9820667D01*
X11078857Y-9868286D01*
X11069333Y-9906381D01*
X11059810Y-9925429D01*
X11050286Y-9934952D01*
X11031238Y-9944476D01*
X11012190Y-9944476D01*
X10993143Y-9934952D01*
X10983619Y-9925429D01*
X10974095Y-9906381D01*
X10964571Y-9868286D01*
X10964571Y-9820667D01*
X10974095Y-9782571D01*
X10983619Y-9763524D01*
X10993143Y-9754000D01*
X11012190Y-9744476D01*
X11145524Y-9744476D02*
X11269333Y-9744476D01*
X11202667Y-9820667D01*
X11231238Y-9820667D01*
X11250286Y-9830190D01*
X11259809Y-9839714D01*
X11269333Y-9858762D01*
X11269333Y-9906381D01*
X11259809Y-9925429D01*
X11250286Y-9934952D01*
X11231238Y-9944476D01*
X11174095Y-9944476D01*
X11155048Y-9934952D01*
X11145524Y-9925429D01*
X11364571Y-9944476D02*
X11402667Y-9944476D01*
X11421714Y-9934952D01*
X11431238Y-9925429D01*
X11450286Y-9896857D01*
X11459809Y-9858762D01*
X11459809Y-9782571D01*
X11450286Y-9763524D01*
X11440762Y-9754000D01*
X11421714Y-9744476D01*
X11383619Y-9744476D01*
X11364571Y-9754000D01*
X11355048Y-9763524D01*
X11345524Y-9782571D01*
X11345524Y-9830190D01*
X11355048Y-9849238D01*
X11364571Y-9858762D01*
X11383619Y-9868286D01*
X11421714Y-9868286D01*
X11440762Y-9858762D01*
X11450286Y-9849238D01*
X11459809Y-9830190D01*
X11631238Y-9811143D02*
X11631238Y-9944476D01*
X11583619Y-9734952D02*
X11536000Y-9877810D01*
X11659809Y-9877810D01*
X11726476Y-9744476D02*
X11726476Y-9782571D01*
X11802667Y-9744476D02*
X11802667Y-9782571D01*
X12097905Y-10020667D02*
X12088381Y-10011143D01*
X12069333Y-9982571D01*
X12059809Y-9963524D01*
X12050286Y-9934952D01*
X12040762Y-9887333D01*
X12040762Y-9849238D01*
X12050286Y-9801619D01*
X12059809Y-9773048D01*
X12069333Y-9754000D01*
X12088381Y-9725429D01*
X12097905Y-9715905D01*
X12269333Y-9744476D02*
X12174095Y-9744476D01*
X12164571Y-9839714D01*
X12174095Y-9830190D01*
X12193143Y-9820667D01*
X12240762Y-9820667D01*
X12259809Y-9830190D01*
X12269333Y-9839714D01*
X12278857Y-9858762D01*
X12278857Y-9906381D01*
X12269333Y-9925429D01*
X12259809Y-9934952D01*
X12240762Y-9944476D01*
X12193143Y-9944476D01*
X12174095Y-9934952D01*
X12164571Y-9925429D01*
X12516952Y-9944476D02*
X12516952Y-9744476D01*
X12602667Y-9944476D02*
X12602667Y-9839714D01*
X12593143Y-9820667D01*
X12574095Y-9811143D01*
X12545524Y-9811143D01*
X12526476Y-9820667D01*
X12516952Y-9830190D01*
X12726476Y-9944476D02*
X12707428Y-9934952D01*
X12697905Y-9925429D01*
X12688381Y-9906381D01*
X12688381Y-9849238D01*
X12697905Y-9830190D01*
X12707428Y-9820667D01*
X12726476Y-9811143D01*
X12755048Y-9811143D01*
X12774095Y-9820667D01*
X12783619Y-9830190D01*
X12793143Y-9849238D01*
X12793143Y-9906381D01*
X12783619Y-9925429D01*
X12774095Y-9934952D01*
X12755048Y-9944476D01*
X12726476Y-9944476D01*
X12907428Y-9944476D02*
X12888381Y-9934952D01*
X12878857Y-9915905D01*
X12878857Y-9744476D01*
X13059809Y-9934952D02*
X13040762Y-9944476D01*
X13002667Y-9944476D01*
X12983619Y-9934952D01*
X12974095Y-9915905D01*
X12974095Y-9839714D01*
X12983619Y-9820667D01*
X13002667Y-9811143D01*
X13040762Y-9811143D01*
X13059809Y-9820667D01*
X13069333Y-9839714D01*
X13069333Y-9858762D01*
X12974095Y-9877810D01*
X13145524Y-9934952D02*
X13164571Y-9944476D01*
X13202667Y-9944476D01*
X13221714Y-9934952D01*
X13231238Y-9915905D01*
X13231238Y-9906381D01*
X13221714Y-9887333D01*
X13202667Y-9877810D01*
X13174095Y-9877810D01*
X13155048Y-9868286D01*
X13145524Y-9849238D01*
X13145524Y-9839714D01*
X13155048Y-9820667D01*
X13174095Y-9811143D01*
X13202667Y-9811143D01*
X13221714Y-9820667D01*
X13297905Y-10020667D02*
X13307428Y-10011143D01*
X13326476Y-9982571D01*
X13336000Y-9963524D01*
X13345524Y-9934952D01*
X13355048Y-9887333D01*
X13355048Y-9849238D01*
X13345524Y-9801619D01*
X13336000Y-9773048D01*
X13326476Y-9754000D01*
X13307428Y-9725429D01*
X13297905Y-9715905D01*
X13659809Y-10020667D02*
X13650286Y-10011143D01*
X13631238Y-9982571D01*
X13621714Y-9963524D01*
X13612190Y-9934952D01*
X13602667Y-9887333D01*
X13602667Y-9849238D01*
X13612190Y-9801619D01*
X13621714Y-9773048D01*
X13631238Y-9754000D01*
X13650286Y-9725429D01*
X13659809Y-9715905D01*
X13736000Y-9811143D02*
X13736000Y-9944476D01*
X13736000Y-9830190D02*
X13745524Y-9820667D01*
X13764571Y-9811143D01*
X13793143Y-9811143D01*
X13812190Y-9820667D01*
X13821714Y-9839714D01*
X13821714Y-9944476D01*
X13945524Y-9944476D02*
X13926476Y-9934952D01*
X13916952Y-9925429D01*
X13907428Y-9906381D01*
X13907428Y-9849238D01*
X13916952Y-9830190D01*
X13926476Y-9820667D01*
X13945524Y-9811143D01*
X13974095Y-9811143D01*
X13993143Y-9820667D01*
X14002667Y-9830190D01*
X14012190Y-9849238D01*
X14012190Y-9906381D01*
X14002667Y-9925429D01*
X13993143Y-9934952D01*
X13974095Y-9944476D01*
X13945524Y-9944476D01*
X14069333Y-9811143D02*
X14145524Y-9811143D01*
X14097905Y-9744476D02*
X14097905Y-9915905D01*
X14107428Y-9934952D01*
X14126476Y-9944476D01*
X14145524Y-9944476D01*
X14364571Y-9811143D02*
X14364571Y-10011143D01*
X14364571Y-9820667D02*
X14383619Y-9811143D01*
X14421714Y-9811143D01*
X14440762Y-9820667D01*
X14450286Y-9830190D01*
X14459809Y-9849238D01*
X14459809Y-9906381D01*
X14450286Y-9925429D01*
X14440762Y-9934952D01*
X14421714Y-9944476D01*
X14383619Y-9944476D01*
X14364571Y-9934952D01*
X14574095Y-9944476D02*
X14555048Y-9934952D01*
X14545524Y-9915905D01*
X14545524Y-9744476D01*
X14736000Y-9944476D02*
X14736000Y-9839714D01*
X14726476Y-9820667D01*
X14707428Y-9811143D01*
X14669333Y-9811143D01*
X14650286Y-9820667D01*
X14736000Y-9934952D02*
X14716952Y-9944476D01*
X14669333Y-9944476D01*
X14650286Y-9934952D01*
X14640762Y-9915905D01*
X14640762Y-9896857D01*
X14650286Y-9877810D01*
X14669333Y-9868286D01*
X14716952Y-9868286D01*
X14736000Y-9858762D01*
X14802667Y-9811143D02*
X14878857Y-9811143D01*
X14831238Y-9744476D02*
X14831238Y-9915905D01*
X14840762Y-9934952D01*
X14859809Y-9944476D01*
X14878857Y-9944476D01*
X15021714Y-9934952D02*
X15002667Y-9944476D01*
X14964571Y-9944476D01*
X14945524Y-9934952D01*
X14936000Y-9915905D01*
X14936000Y-9839714D01*
X14945524Y-9820667D01*
X14964571Y-9811143D01*
X15002667Y-9811143D01*
X15021714Y-9820667D01*
X15031238Y-9839714D01*
X15031238Y-9858762D01*
X14936000Y-9877810D01*
X15202667Y-9944476D02*
X15202667Y-9744476D01*
X15202667Y-9934952D02*
X15183619Y-9944476D01*
X15145524Y-9944476D01*
X15126476Y-9934952D01*
X15116952Y-9925429D01*
X15107428Y-9906381D01*
X15107428Y-9849238D01*
X15116952Y-9830190D01*
X15126476Y-9820667D01*
X15145524Y-9811143D01*
X15183619Y-9811143D01*
X15202667Y-9820667D01*
X15278857Y-10020667D02*
X15288381Y-10011143D01*
X15307428Y-9982571D01*
X15316952Y-9963524D01*
X15326476Y-9934952D01*
X15336000Y-9887333D01*
X15336000Y-9849238D01*
X15326476Y-9801619D01*
X15316952Y-9773048D01*
X15307428Y-9754000D01*
X15288381Y-9725429D01*
X15278857Y-9715905D01*
X8526000Y-10118000D02*
G75*
G03*
X8526000Y-10118000I-100000J0D01*
G01*
X8774095Y-10027524D02*
X8783619Y-10018000D01*
X8802667Y-10008476D01*
X8850286Y-10008476D01*
X8869333Y-10018000D01*
X8878857Y-10027524D01*
X8888381Y-10046571D01*
X8888381Y-10065619D01*
X8878857Y-10094190D01*
X8764571Y-10208476D01*
X8888381Y-10208476D01*
X8974095Y-10189429D02*
X8983619Y-10198952D01*
X8974095Y-10208476D01*
X8964571Y-10198952D01*
X8974095Y-10189429D01*
X8974095Y-10208476D01*
X9164571Y-10008476D02*
X9069333Y-10008476D01*
X9059810Y-10103714D01*
X9069333Y-10094190D01*
X9088381Y-10084667D01*
X9136000Y-10084667D01*
X9155048Y-10094190D01*
X9164571Y-10103714D01*
X9174095Y-10122762D01*
X9174095Y-10170381D01*
X9164571Y-10189429D01*
X9155048Y-10198952D01*
X9136000Y-10208476D01*
X9088381Y-10208476D01*
X9069333Y-10198952D01*
X9059810Y-10189429D01*
X9297905Y-10008476D02*
X9316952Y-10008476D01*
X9336000Y-10018000D01*
X9345524Y-10027524D01*
X9355048Y-10046571D01*
X9364571Y-10084667D01*
X9364571Y-10132286D01*
X9355048Y-10170381D01*
X9345524Y-10189429D01*
X9336000Y-10198952D01*
X9316952Y-10208476D01*
X9297905Y-10208476D01*
X9278857Y-10198952D01*
X9269333Y-10189429D01*
X9259810Y-10170381D01*
X9250286Y-10132286D01*
X9250286Y-10084667D01*
X9259810Y-10046571D01*
X9269333Y-10027524D01*
X9278857Y-10018000D01*
X9297905Y-10008476D01*
X9488381Y-10008476D02*
X9507429Y-10008476D01*
X9526476Y-10018000D01*
X9536000Y-10027524D01*
X9545524Y-10046571D01*
X9555048Y-10084667D01*
X9555048Y-10132286D01*
X9545524Y-10170381D01*
X9536000Y-10189429D01*
X9526476Y-10198952D01*
X9507429Y-10208476D01*
X9488381Y-10208476D01*
X9469333Y-10198952D01*
X9459810Y-10189429D01*
X9450286Y-10170381D01*
X9440762Y-10132286D01*
X9440762Y-10084667D01*
X9450286Y-10046571D01*
X9459810Y-10027524D01*
X9469333Y-10018000D01*
X9488381Y-10008476D01*
X9640762Y-10208476D02*
X9640762Y-10075143D01*
X9640762Y-10094190D02*
X9650286Y-10084667D01*
X9669333Y-10075143D01*
X9697905Y-10075143D01*
X9716952Y-10084667D01*
X9726476Y-10103714D01*
X9726476Y-10208476D01*
X9726476Y-10103714D02*
X9736000Y-10084667D01*
X9755048Y-10075143D01*
X9783619Y-10075143D01*
X9802667Y-10084667D01*
X9812190Y-10103714D01*
X9812190Y-10208476D01*
X9907429Y-10208476D02*
X9907429Y-10075143D01*
X9907429Y-10094190D02*
X9916952Y-10084667D01*
X9936000Y-10075143D01*
X9964571Y-10075143D01*
X9983619Y-10084667D01*
X9993143Y-10103714D01*
X9993143Y-10208476D01*
X9993143Y-10103714D02*
X10002667Y-10084667D01*
X10021714Y-10075143D01*
X10050286Y-10075143D01*
X10069333Y-10084667D01*
X10078857Y-10103714D01*
X10078857Y-10208476D01*
X10469333Y-9998952D02*
X10297905Y-10256095D01*
X10726476Y-10008476D02*
X10745524Y-10008476D01*
X10764571Y-10018000D01*
X10774095Y-10027524D01*
X10783619Y-10046571D01*
X10793143Y-10084667D01*
X10793143Y-10132286D01*
X10783619Y-10170381D01*
X10774095Y-10189429D01*
X10764571Y-10198952D01*
X10745524Y-10208476D01*
X10726476Y-10208476D01*
X10707429Y-10198952D01*
X10697905Y-10189429D01*
X10688381Y-10170381D01*
X10678857Y-10132286D01*
X10678857Y-10084667D01*
X10688381Y-10046571D01*
X10697905Y-10027524D01*
X10707429Y-10018000D01*
X10726476Y-10008476D01*
X10878857Y-10189429D02*
X10888381Y-10198952D01*
X10878857Y-10208476D01*
X10869333Y-10198952D01*
X10878857Y-10189429D01*
X10878857Y-10208476D01*
X11012190Y-10008476D02*
X11031238Y-10008476D01*
X11050286Y-10018000D01*
X11059810Y-10027524D01*
X11069333Y-10046571D01*
X11078857Y-10084667D01*
X11078857Y-10132286D01*
X11069333Y-10170381D01*
X11059810Y-10189429D01*
X11050286Y-10198952D01*
X11031238Y-10208476D01*
X11012190Y-10208476D01*
X10993143Y-10198952D01*
X10983619Y-10189429D01*
X10974095Y-10170381D01*
X10964571Y-10132286D01*
X10964571Y-10084667D01*
X10974095Y-10046571D01*
X10983619Y-10027524D01*
X10993143Y-10018000D01*
X11012190Y-10008476D01*
X11174095Y-10208476D02*
X11212190Y-10208476D01*
X11231238Y-10198952D01*
X11240762Y-10189429D01*
X11259809Y-10160857D01*
X11269333Y-10122762D01*
X11269333Y-10046571D01*
X11259809Y-10027524D01*
X11250286Y-10018000D01*
X11231238Y-10008476D01*
X11193143Y-10008476D01*
X11174095Y-10018000D01*
X11164571Y-10027524D01*
X11155048Y-10046571D01*
X11155048Y-10094190D01*
X11164571Y-10113238D01*
X11174095Y-10122762D01*
X11193143Y-10132286D01*
X11231238Y-10132286D01*
X11250286Y-10122762D01*
X11259809Y-10113238D01*
X11269333Y-10094190D01*
X11383619Y-10094190D02*
X11364571Y-10084667D01*
X11355048Y-10075143D01*
X11345524Y-10056095D01*
X11345524Y-10046571D01*
X11355048Y-10027524D01*
X11364571Y-10018000D01*
X11383619Y-10008476D01*
X11421714Y-10008476D01*
X11440762Y-10018000D01*
X11450286Y-10027524D01*
X11459809Y-10046571D01*
X11459809Y-10056095D01*
X11450286Y-10075143D01*
X11440762Y-10084667D01*
X11421714Y-10094190D01*
X11383619Y-10094190D01*
X11364571Y-10103714D01*
X11355048Y-10113238D01*
X11345524Y-10132286D01*
X11345524Y-10170381D01*
X11355048Y-10189429D01*
X11364571Y-10198952D01*
X11383619Y-10208476D01*
X11421714Y-10208476D01*
X11440762Y-10198952D01*
X11450286Y-10189429D01*
X11459809Y-10170381D01*
X11459809Y-10132286D01*
X11450286Y-10113238D01*
X11440762Y-10103714D01*
X11421714Y-10094190D01*
X11631238Y-10075143D02*
X11631238Y-10208476D01*
X11583619Y-9998952D02*
X11536000Y-10141810D01*
X11659809Y-10141810D01*
X11726476Y-10008476D02*
X11726476Y-10046571D01*
X11802667Y-10008476D02*
X11802667Y-10046571D01*
X12097905Y-10284667D02*
X12088381Y-10275143D01*
X12069333Y-10246571D01*
X12059809Y-10227524D01*
X12050286Y-10198952D01*
X12040762Y-10151333D01*
X12040762Y-10113238D01*
X12050286Y-10065619D01*
X12059809Y-10037048D01*
X12069333Y-10018000D01*
X12088381Y-9989429D01*
X12097905Y-9979905D01*
X12278857Y-10208476D02*
X12164571Y-10208476D01*
X12221714Y-10208476D02*
X12221714Y-10008476D01*
X12202667Y-10037048D01*
X12183619Y-10056095D01*
X12164571Y-10065619D01*
X12402667Y-10008476D02*
X12421714Y-10008476D01*
X12440762Y-10018000D01*
X12450286Y-10027524D01*
X12459809Y-10046571D01*
X12469333Y-10084667D01*
X12469333Y-10132286D01*
X12459809Y-10170381D01*
X12450286Y-10189429D01*
X12440762Y-10198952D01*
X12421714Y-10208476D01*
X12402667Y-10208476D01*
X12383619Y-10198952D01*
X12374095Y-10189429D01*
X12364571Y-10170381D01*
X12355048Y-10132286D01*
X12355048Y-10084667D01*
X12364571Y-10046571D01*
X12374095Y-10027524D01*
X12383619Y-10018000D01*
X12402667Y-10008476D01*
X12707428Y-10208476D02*
X12707428Y-10008476D01*
X12793143Y-10208476D02*
X12793143Y-10103714D01*
X12783619Y-10084667D01*
X12764571Y-10075143D01*
X12736000Y-10075143D01*
X12716952Y-10084667D01*
X12707428Y-10094190D01*
X12916952Y-10208476D02*
X12897905Y-10198952D01*
X12888381Y-10189429D01*
X12878857Y-10170381D01*
X12878857Y-10113238D01*
X12888381Y-10094190D01*
X12897905Y-10084667D01*
X12916952Y-10075143D01*
X12945524Y-10075143D01*
X12964571Y-10084667D01*
X12974095Y-10094190D01*
X12983619Y-10113238D01*
X12983619Y-10170381D01*
X12974095Y-10189429D01*
X12964571Y-10198952D01*
X12945524Y-10208476D01*
X12916952Y-10208476D01*
X13097905Y-10208476D02*
X13078857Y-10198952D01*
X13069333Y-10179905D01*
X13069333Y-10008476D01*
X13250286Y-10198952D02*
X13231238Y-10208476D01*
X13193143Y-10208476D01*
X13174095Y-10198952D01*
X13164571Y-10179905D01*
X13164571Y-10103714D01*
X13174095Y-10084667D01*
X13193143Y-10075143D01*
X13231238Y-10075143D01*
X13250286Y-10084667D01*
X13259809Y-10103714D01*
X13259809Y-10122762D01*
X13164571Y-10141810D01*
X13336000Y-10198952D02*
X13355048Y-10208476D01*
X13393143Y-10208476D01*
X13412190Y-10198952D01*
X13421714Y-10179905D01*
X13421714Y-10170381D01*
X13412190Y-10151333D01*
X13393143Y-10141810D01*
X13364571Y-10141810D01*
X13345524Y-10132286D01*
X13336000Y-10113238D01*
X13336000Y-10103714D01*
X13345524Y-10084667D01*
X13364571Y-10075143D01*
X13393143Y-10075143D01*
X13412190Y-10084667D01*
X13488381Y-10284667D02*
X13497905Y-10275143D01*
X13516952Y-10246571D01*
X13526476Y-10227524D01*
X13536000Y-10198952D01*
X13545524Y-10151333D01*
X13545524Y-10113238D01*
X13536000Y-10065619D01*
X13526476Y-10037048D01*
X13516952Y-10018000D01*
X13497905Y-9989429D01*
X13488381Y-9979905D01*
X13850286Y-10284667D02*
X13840762Y-10275143D01*
X13821714Y-10246571D01*
X13812190Y-10227524D01*
X13802667Y-10198952D01*
X13793143Y-10151333D01*
X13793143Y-10113238D01*
X13802667Y-10065619D01*
X13812190Y-10037048D01*
X13821714Y-10018000D01*
X13840762Y-9989429D01*
X13850286Y-9979905D01*
X13926476Y-10075143D02*
X13926476Y-10208476D01*
X13926476Y-10094190D02*
X13936000Y-10084667D01*
X13955048Y-10075143D01*
X13983619Y-10075143D01*
X14002667Y-10084667D01*
X14012190Y-10103714D01*
X14012190Y-10208476D01*
X14136000Y-10208476D02*
X14116952Y-10198952D01*
X14107428Y-10189429D01*
X14097905Y-10170381D01*
X14097905Y-10113238D01*
X14107428Y-10094190D01*
X14116952Y-10084667D01*
X14136000Y-10075143D01*
X14164571Y-10075143D01*
X14183619Y-10084667D01*
X14193143Y-10094190D01*
X14202667Y-10113238D01*
X14202667Y-10170381D01*
X14193143Y-10189429D01*
X14183619Y-10198952D01*
X14164571Y-10208476D01*
X14136000Y-10208476D01*
X14259809Y-10075143D02*
X14336000Y-10075143D01*
X14288381Y-10008476D02*
X14288381Y-10179905D01*
X14297905Y-10198952D01*
X14316952Y-10208476D01*
X14336000Y-10208476D01*
X14555048Y-10075143D02*
X14555048Y-10275143D01*
X14555048Y-10084667D02*
X14574095Y-10075143D01*
X14612190Y-10075143D01*
X14631238Y-10084667D01*
X14640762Y-10094190D01*
X14650286Y-10113238D01*
X14650286Y-10170381D01*
X14640762Y-10189429D01*
X14631238Y-10198952D01*
X14612190Y-10208476D01*
X14574095Y-10208476D01*
X14555048Y-10198952D01*
X14764571Y-10208476D02*
X14745524Y-10198952D01*
X14736000Y-10179905D01*
X14736000Y-10008476D01*
X14926476Y-10208476D02*
X14926476Y-10103714D01*
X14916952Y-10084667D01*
X14897905Y-10075143D01*
X14859809Y-10075143D01*
X14840762Y-10084667D01*
X14926476Y-10198952D02*
X14907428Y-10208476D01*
X14859809Y-10208476D01*
X14840762Y-10198952D01*
X14831238Y-10179905D01*
X14831238Y-10160857D01*
X14840762Y-10141810D01*
X14859809Y-10132286D01*
X14907428Y-10132286D01*
X14926476Y-10122762D01*
X14993143Y-10075143D02*
X15069333Y-10075143D01*
X15021714Y-10008476D02*
X15021714Y-10179905D01*
X15031238Y-10198952D01*
X15050286Y-10208476D01*
X15069333Y-10208476D01*
X15212190Y-10198952D02*
X15193143Y-10208476D01*
X15155048Y-10208476D01*
X15136000Y-10198952D01*
X15126476Y-10179905D01*
X15126476Y-10103714D01*
X15136000Y-10084667D01*
X15155048Y-10075143D01*
X15193143Y-10075143D01*
X15212190Y-10084667D01*
X15221714Y-10103714D01*
X15221714Y-10122762D01*
X15126476Y-10141810D01*
X15393143Y-10208476D02*
X15393143Y-10008476D01*
X15393143Y-10198952D02*
X15374095Y-10208476D01*
X15336000Y-10208476D01*
X15316952Y-10198952D01*
X15307428Y-10189429D01*
X15297905Y-10170381D01*
X15297905Y-10113238D01*
X15307428Y-10094190D01*
X15316952Y-10084667D01*
X15336000Y-10075143D01*
X15374095Y-10075143D01*
X15393143Y-10084667D01*
X15469333Y-10284667D02*
X15478857Y-10275143D01*
X15497905Y-10246571D01*
X15507428Y-10227524D01*
X15516952Y-10198952D01*
X15526476Y-10151333D01*
X15526476Y-10113238D01*
X15516952Y-10065619D01*
X15507428Y-10037048D01*
X15497905Y-10018000D01*
X15478857Y-9989429D01*
X15469333Y-9979905D01*
X8426000Y-10338000D02*
X8426000Y-10538000D01*
X8326000Y-10438000D02*
X8526000Y-10438000D01*
X8764571Y-10328476D02*
X8888381Y-10328476D01*
X8821714Y-10404667D01*
X8850286Y-10404667D01*
X8869333Y-10414190D01*
X8878857Y-10423714D01*
X8888381Y-10442762D01*
X8888381Y-10490381D01*
X8878857Y-10509429D01*
X8869333Y-10518952D01*
X8850286Y-10528476D01*
X8793143Y-10528476D01*
X8774095Y-10518952D01*
X8764571Y-10509429D01*
X8974095Y-10509429D02*
X8983619Y-10518952D01*
X8974095Y-10528476D01*
X8964571Y-10518952D01*
X8974095Y-10509429D01*
X8974095Y-10528476D01*
X9059810Y-10347524D02*
X9069333Y-10338000D01*
X9088381Y-10328476D01*
X9136000Y-10328476D01*
X9155048Y-10338000D01*
X9164571Y-10347524D01*
X9174095Y-10366571D01*
X9174095Y-10385619D01*
X9164571Y-10414190D01*
X9050286Y-10528476D01*
X9174095Y-10528476D01*
X9297905Y-10328476D02*
X9316952Y-10328476D01*
X9336000Y-10338000D01*
X9345524Y-10347524D01*
X9355048Y-10366571D01*
X9364571Y-10404667D01*
X9364571Y-10452286D01*
X9355048Y-10490381D01*
X9345524Y-10509429D01*
X9336000Y-10518952D01*
X9316952Y-10528476D01*
X9297905Y-10528476D01*
X9278857Y-10518952D01*
X9269333Y-10509429D01*
X9259810Y-10490381D01*
X9250286Y-10452286D01*
X9250286Y-10404667D01*
X9259810Y-10366571D01*
X9269333Y-10347524D01*
X9278857Y-10338000D01*
X9297905Y-10328476D01*
X9488381Y-10328476D02*
X9507429Y-10328476D01*
X9526476Y-10338000D01*
X9536000Y-10347524D01*
X9545524Y-10366571D01*
X9555048Y-10404667D01*
X9555048Y-10452286D01*
X9545524Y-10490381D01*
X9536000Y-10509429D01*
X9526476Y-10518952D01*
X9507429Y-10528476D01*
X9488381Y-10528476D01*
X9469333Y-10518952D01*
X9459810Y-10509429D01*
X9450286Y-10490381D01*
X9440762Y-10452286D01*
X9440762Y-10404667D01*
X9450286Y-10366571D01*
X9459810Y-10347524D01*
X9469333Y-10338000D01*
X9488381Y-10328476D01*
X9640762Y-10528476D02*
X9640762Y-10395143D01*
X9640762Y-10414190D02*
X9650286Y-10404667D01*
X9669333Y-10395143D01*
X9697905Y-10395143D01*
X9716952Y-10404667D01*
X9726476Y-10423714D01*
X9726476Y-10528476D01*
X9726476Y-10423714D02*
X9736000Y-10404667D01*
X9755048Y-10395143D01*
X9783619Y-10395143D01*
X9802667Y-10404667D01*
X9812190Y-10423714D01*
X9812190Y-10528476D01*
X9907429Y-10528476D02*
X9907429Y-10395143D01*
X9907429Y-10414190D02*
X9916952Y-10404667D01*
X9936000Y-10395143D01*
X9964571Y-10395143D01*
X9983619Y-10404667D01*
X9993143Y-10423714D01*
X9993143Y-10528476D01*
X9993143Y-10423714D02*
X10002667Y-10404667D01*
X10021714Y-10395143D01*
X10050286Y-10395143D01*
X10069333Y-10404667D01*
X10078857Y-10423714D01*
X10078857Y-10528476D01*
X10469333Y-10318952D02*
X10297905Y-10576095D01*
X10726476Y-10328476D02*
X10745524Y-10328476D01*
X10764571Y-10338000D01*
X10774095Y-10347524D01*
X10783619Y-10366571D01*
X10793143Y-10404667D01*
X10793143Y-10452286D01*
X10783619Y-10490381D01*
X10774095Y-10509429D01*
X10764571Y-10518952D01*
X10745524Y-10528476D01*
X10726476Y-10528476D01*
X10707429Y-10518952D01*
X10697905Y-10509429D01*
X10688381Y-10490381D01*
X10678857Y-10452286D01*
X10678857Y-10404667D01*
X10688381Y-10366571D01*
X10697905Y-10347524D01*
X10707429Y-10338000D01*
X10726476Y-10328476D01*
X10878857Y-10509429D02*
X10888381Y-10518952D01*
X10878857Y-10528476D01*
X10869333Y-10518952D01*
X10878857Y-10509429D01*
X10878857Y-10528476D01*
X11078857Y-10528476D02*
X10964571Y-10528476D01*
X11021714Y-10528476D02*
X11021714Y-10328476D01*
X11002667Y-10357048D01*
X10983619Y-10376095D01*
X10964571Y-10385619D01*
X11155048Y-10347524D02*
X11164571Y-10338000D01*
X11183619Y-10328476D01*
X11231238Y-10328476D01*
X11250286Y-10338000D01*
X11259809Y-10347524D01*
X11269333Y-10366571D01*
X11269333Y-10385619D01*
X11259809Y-10414190D01*
X11145524Y-10528476D01*
X11269333Y-10528476D01*
X11440762Y-10328476D02*
X11402667Y-10328476D01*
X11383619Y-10338000D01*
X11374095Y-10347524D01*
X11355048Y-10376095D01*
X11345524Y-10414190D01*
X11345524Y-10490381D01*
X11355048Y-10509429D01*
X11364571Y-10518952D01*
X11383619Y-10528476D01*
X11421714Y-10528476D01*
X11440762Y-10518952D01*
X11450286Y-10509429D01*
X11459809Y-10490381D01*
X11459809Y-10442762D01*
X11450286Y-10423714D01*
X11440762Y-10414190D01*
X11421714Y-10404667D01*
X11383619Y-10404667D01*
X11364571Y-10414190D01*
X11355048Y-10423714D01*
X11345524Y-10442762D01*
X11583619Y-10328476D02*
X11602667Y-10328476D01*
X11621714Y-10338000D01*
X11631238Y-10347524D01*
X11640762Y-10366571D01*
X11650286Y-10404667D01*
X11650286Y-10452286D01*
X11640762Y-10490381D01*
X11631238Y-10509429D01*
X11621714Y-10518952D01*
X11602667Y-10528476D01*
X11583619Y-10528476D01*
X11564571Y-10518952D01*
X11555048Y-10509429D01*
X11545524Y-10490381D01*
X11536000Y-10452286D01*
X11536000Y-10404667D01*
X11545524Y-10366571D01*
X11555048Y-10347524D01*
X11564571Y-10338000D01*
X11583619Y-10328476D01*
X11726476Y-10328476D02*
X11726476Y-10366571D01*
X11802667Y-10328476D02*
X11802667Y-10366571D01*
X12097905Y-10604667D02*
X12088381Y-10595143D01*
X12069333Y-10566571D01*
X12059809Y-10547524D01*
X12050286Y-10518952D01*
X12040762Y-10471333D01*
X12040762Y-10433238D01*
X12050286Y-10385619D01*
X12059809Y-10357048D01*
X12069333Y-10338000D01*
X12088381Y-10309429D01*
X12097905Y-10299905D01*
X12259809Y-10395143D02*
X12259809Y-10528476D01*
X12212190Y-10318952D02*
X12164571Y-10461810D01*
X12288381Y-10461810D01*
X12516952Y-10528476D02*
X12516952Y-10328476D01*
X12602667Y-10528476D02*
X12602667Y-10423714D01*
X12593143Y-10404667D01*
X12574095Y-10395143D01*
X12545524Y-10395143D01*
X12526476Y-10404667D01*
X12516952Y-10414190D01*
X12726476Y-10528476D02*
X12707428Y-10518952D01*
X12697905Y-10509429D01*
X12688381Y-10490381D01*
X12688381Y-10433238D01*
X12697905Y-10414190D01*
X12707428Y-10404667D01*
X12726476Y-10395143D01*
X12755048Y-10395143D01*
X12774095Y-10404667D01*
X12783619Y-10414190D01*
X12793143Y-10433238D01*
X12793143Y-10490381D01*
X12783619Y-10509429D01*
X12774095Y-10518952D01*
X12755048Y-10528476D01*
X12726476Y-10528476D01*
X12907428Y-10528476D02*
X12888381Y-10518952D01*
X12878857Y-10499905D01*
X12878857Y-10328476D01*
X13059809Y-10518952D02*
X13040762Y-10528476D01*
X13002667Y-10528476D01*
X12983619Y-10518952D01*
X12974095Y-10499905D01*
X12974095Y-10423714D01*
X12983619Y-10404667D01*
X13002667Y-10395143D01*
X13040762Y-10395143D01*
X13059809Y-10404667D01*
X13069333Y-10423714D01*
X13069333Y-10442762D01*
X12974095Y-10461810D01*
X13145524Y-10518952D02*
X13164571Y-10528476D01*
X13202667Y-10528476D01*
X13221714Y-10518952D01*
X13231238Y-10499905D01*
X13231238Y-10490381D01*
X13221714Y-10471333D01*
X13202667Y-10461810D01*
X13174095Y-10461810D01*
X13155048Y-10452286D01*
X13145524Y-10433238D01*
X13145524Y-10423714D01*
X13155048Y-10404667D01*
X13174095Y-10395143D01*
X13202667Y-10395143D01*
X13221714Y-10404667D01*
X13297905Y-10604667D02*
X13307428Y-10595143D01*
X13326476Y-10566571D01*
X13336000Y-10547524D01*
X13345524Y-10518952D01*
X13355048Y-10471333D01*
X13355048Y-10433238D01*
X13345524Y-10385619D01*
X13336000Y-10357048D01*
X13326476Y-10338000D01*
X13307428Y-10309429D01*
X13297905Y-10299905D01*
X13659809Y-10604667D02*
X13650286Y-10595143D01*
X13631238Y-10566571D01*
X13621714Y-10547524D01*
X13612190Y-10518952D01*
X13602667Y-10471333D01*
X13602667Y-10433238D01*
X13612190Y-10385619D01*
X13621714Y-10357048D01*
X13631238Y-10338000D01*
X13650286Y-10309429D01*
X13659809Y-10299905D01*
X13736000Y-10395143D02*
X13736000Y-10528476D01*
X13736000Y-10414190D02*
X13745524Y-10404667D01*
X13764571Y-10395143D01*
X13793143Y-10395143D01*
X13812190Y-10404667D01*
X13821714Y-10423714D01*
X13821714Y-10528476D01*
X13945524Y-10528476D02*
X13926476Y-10518952D01*
X13916952Y-10509429D01*
X13907428Y-10490381D01*
X13907428Y-10433238D01*
X13916952Y-10414190D01*
X13926476Y-10404667D01*
X13945524Y-10395143D01*
X13974095Y-10395143D01*
X13993143Y-10404667D01*
X14002667Y-10414190D01*
X14012190Y-10433238D01*
X14012190Y-10490381D01*
X14002667Y-10509429D01*
X13993143Y-10518952D01*
X13974095Y-10528476D01*
X13945524Y-10528476D01*
X14069333Y-10395143D02*
X14145524Y-10395143D01*
X14097905Y-10328476D02*
X14097905Y-10499905D01*
X14107428Y-10518952D01*
X14126476Y-10528476D01*
X14145524Y-10528476D01*
X14364571Y-10395143D02*
X14364571Y-10595143D01*
X14364571Y-10404667D02*
X14383619Y-10395143D01*
X14421714Y-10395143D01*
X14440762Y-10404667D01*
X14450286Y-10414190D01*
X14459809Y-10433238D01*
X14459809Y-10490381D01*
X14450286Y-10509429D01*
X14440762Y-10518952D01*
X14421714Y-10528476D01*
X14383619Y-10528476D01*
X14364571Y-10518952D01*
X14574095Y-10528476D02*
X14555048Y-10518952D01*
X14545524Y-10499905D01*
X14545524Y-10328476D01*
X14736000Y-10528476D02*
X14736000Y-10423714D01*
X14726476Y-10404667D01*
X14707428Y-10395143D01*
X14669333Y-10395143D01*
X14650286Y-10404667D01*
X14736000Y-10518952D02*
X14716952Y-10528476D01*
X14669333Y-10528476D01*
X14650286Y-10518952D01*
X14640762Y-10499905D01*
X14640762Y-10480857D01*
X14650286Y-10461810D01*
X14669333Y-10452286D01*
X14716952Y-10452286D01*
X14736000Y-10442762D01*
X14802667Y-10395143D02*
X14878857Y-10395143D01*
X14831238Y-10328476D02*
X14831238Y-10499905D01*
X14840762Y-10518952D01*
X14859809Y-10528476D01*
X14878857Y-10528476D01*
X15021714Y-10518952D02*
X15002667Y-10528476D01*
X14964571Y-10528476D01*
X14945524Y-10518952D01*
X14936000Y-10499905D01*
X14936000Y-10423714D01*
X14945524Y-10404667D01*
X14964571Y-10395143D01*
X15002667Y-10395143D01*
X15021714Y-10404667D01*
X15031238Y-10423714D01*
X15031238Y-10442762D01*
X14936000Y-10461810D01*
X15202667Y-10528476D02*
X15202667Y-10328476D01*
X15202667Y-10518952D02*
X15183619Y-10528476D01*
X15145524Y-10528476D01*
X15126476Y-10518952D01*
X15116952Y-10509429D01*
X15107428Y-10490381D01*
X15107428Y-10433238D01*
X15116952Y-10414190D01*
X15126476Y-10404667D01*
X15145524Y-10395143D01*
X15183619Y-10395143D01*
X15202667Y-10404667D01*
X15278857Y-10604667D02*
X15288381Y-10595143D01*
X15307428Y-10566571D01*
X15316952Y-10547524D01*
X15326476Y-10518952D01*
X15336000Y-10471333D01*
X15336000Y-10433238D01*
X15326476Y-10385619D01*
X15316952Y-10357048D01*
X15307428Y-10338000D01*
X15288381Y-10309429D01*
X15278857Y-10299905D01*
M02*
