M48
; DRILL file {KiCad 6.0.9-8da3e8f707~117~ubuntu22.04.1} date Sun 11 Dec 2022 02:22:11 AM IST
; FORMAT={-:-/ absolute / inch / decimal}
; #@! TF.CreationDate,2022-12-11T02:22:11+05:30
; #@! TF.GenerationSoftware,Kicad,Pcbnew,6.0.9-8da3e8f707~117~ubuntu22.04.1
; #@! TF.FileFunction,Plated,1,2,PTH
FMAT,2
INCH
; #@! TA.AperFunction,Plated,PTH,ComponentDrill
T1C0.0394
%
G90
G05
T1
X3.5406Y-3.065
X3.5406Y-3.2815
X3.6406Y-3.065
X3.6406Y-3.2815
X4.0602Y-3.065
X4.0602Y-3.2815
X4.1602Y-3.065
X4.1602Y-3.2815
X4.2717Y-2.8504
X4.3717Y-2.8504
X4.4717Y-2.8504
X4.5248Y-3.065
X4.5248Y-3.2815
X4.5717Y-2.8504
X4.6248Y-3.065
X4.6248Y-3.2815
X4.6717Y-2.8504
X4.7717Y-2.8504
X4.8717Y-2.8504
X4.9894Y-3.065
X4.9894Y-3.2815
X5.0894Y-3.065
X5.0894Y-3.2815
X5.5091Y-3.065
X5.5091Y-3.2815
X5.6091Y-3.065
X5.6091Y-3.2815
T0
M30
