%TF.GenerationSoftware,KiCad,Pcbnew,6.0.9-8da3e8f707~117~ubuntu22.04.1*%
%TF.CreationDate,2022-12-11T02:22:03+05:30*%
%TF.ProjectId,lsa,6c73612e-6b69-4636-9164-5f7063625858,rev?*%
%TF.SameCoordinates,Original*%
%TF.FileFunction,Soldermask,Top*%
%TF.FilePolarity,Negative*%
%FSLAX46Y46*%
G04 Gerber Fmt 4.6, Leading zero omitted, Abs format (unit mm)*
G04 Created by KiCad (PCBNEW 6.0.9-8da3e8f707~117~ubuntu22.04.1) date 2022-12-11 02:22:03*
%MOMM*%
%LPD*%
G01*
G04 APERTURE LIST*
%ADD10C,1.000000*%
%ADD11C,2.500000*%
%ADD12C,1.500000*%
%ADD13C,3.200000*%
%ADD14R,1.700000X1.700000*%
%ADD15O,1.700000X1.700000*%
G04 APERTURE END LIST*
D10*
%TO.C,U3*%
X113750000Y-75950000D03*
D11*
X118100000Y-80600000D03*
X114300000Y-80600000D03*
D12*
X117470000Y-83350000D03*
X114930000Y-83350000D03*
X117470000Y-77850000D03*
X114930000Y-77850000D03*
%TD*%
D13*
%TO.C,REF\u002A\u002A*%
X98460000Y-88220000D03*
%TD*%
%TO.C,REF\u002A\u002A*%
X144540000Y-71910000D03*
%TD*%
D14*
%TO.C,J1*%
X108500000Y-72400000D03*
D15*
X111040000Y-72400000D03*
X113580000Y-72400000D03*
X116120000Y-72400000D03*
X118660000Y-72400000D03*
X121200000Y-72400000D03*
X123740000Y-72400000D03*
%TD*%
D11*
%TO.C,U5*%
X89300000Y-80600000D03*
D10*
X88750000Y-75950000D03*
D11*
X93100000Y-80600000D03*
D12*
X92470000Y-83350000D03*
X89930000Y-83350000D03*
X92470000Y-77850000D03*
X89930000Y-77850000D03*
%TD*%
D13*
%TO.C,REF\u002A\u002A*%
X133900000Y-88220000D03*
%TD*%
%TO.C,REF\u002A\u002A*%
X87810000Y-71910000D03*
%TD*%
D11*
%TO.C,U4*%
X102500000Y-80600000D03*
D10*
X101950000Y-75950000D03*
D11*
X106300000Y-80600000D03*
D12*
X105670000Y-83350000D03*
X103130000Y-83350000D03*
X105670000Y-77850000D03*
X103130000Y-77850000D03*
%TD*%
D10*
%TO.C,U2*%
X125550000Y-75950000D03*
D11*
X126100000Y-80600000D03*
X129900000Y-80600000D03*
D12*
X129270000Y-83350000D03*
X126730000Y-83350000D03*
X129270000Y-77850000D03*
X126730000Y-77850000D03*
%TD*%
%TO.C,U1*%
X139930000Y-77850000D03*
X142470000Y-77850000D03*
X139930000Y-83350000D03*
X142470000Y-83350000D03*
D11*
X143100000Y-80600000D03*
D10*
X138750000Y-75950000D03*
D11*
X139300000Y-80600000D03*
%TD*%
M02*
