%FSLAX45Y45*%
G04 Gerber Fmt 4.5, Leading zero omitted, Abs format (unit mm)*
G04 Created by KiCad (PCBNEW 6.0.1-79c1e3a40b~116~ubuntu20.04.1) date 2022-02-17 01:54:02*
%MOMM*%
%LPD*%
G01*
G04 APERTURE LIST*
%TA.AperFunction,Profile*%
%ADD10C,0.100000*%
%TD*%
%ADD11C,0.200000*%
%ADD12C,0.090000*%
%ADD13C,0.100000*%
%ADD14C,0.320000*%
G04 APERTURE END LIST*
D10*
X14703934Y-9057934D02*
X14703934Y-7091066D01*
X8681000Y-9209000D02*
X14553934Y-9207934D01*
X8531000Y-9059000D02*
G75*
G03*
X8681000Y-9209000I150000J0D01*
G01*
X14553934Y-6941066D02*
X8681000Y-6941000D01*
X8681000Y-6941000D02*
G75*
G03*
X8531000Y-7091000I0J-150000D01*
G01*
X14553934Y-9207934D02*
G75*
G03*
X14703934Y-9057934I0J150000D01*
G01*
X8531000Y-7091000D02*
X8531000Y-9059000D01*
X14703934Y-7091066D02*
G75*
G03*
X14553934Y-6941066I-150000J0D01*
G01*
D11*
D12*
X8783500Y-8777000D02*
X8873500Y-8867000D01*
X8873500Y-8777000D02*
X8783500Y-8867000D01*
X8909000Y-7799500D02*
X8999000Y-7889500D01*
X8999000Y-7799500D02*
X8909000Y-7889500D01*
X8909000Y-8053500D02*
X8999000Y-8143500D01*
X8999000Y-8053500D02*
X8909000Y-8143500D01*
X9037500Y-8777000D02*
X9127500Y-8867000D01*
X9127500Y-8777000D02*
X9037500Y-8867000D01*
X10558500Y-8777000D02*
X10648500Y-8867000D01*
X10648500Y-8777000D02*
X10558500Y-8867000D01*
X10684000Y-7799500D02*
X10774000Y-7889500D01*
X10774000Y-7799500D02*
X10684000Y-7889500D01*
X10684000Y-8053500D02*
X10774000Y-8143500D01*
X10774000Y-8053500D02*
X10684000Y-8143500D01*
X10812500Y-8777000D02*
X10902500Y-8867000D01*
X10902500Y-8777000D02*
X10812500Y-8867000D01*
X12333500Y-8777000D02*
X12423500Y-8867000D01*
X12423500Y-8777000D02*
X12333500Y-8867000D01*
X12459000Y-7799500D02*
X12549000Y-7889500D01*
X12549000Y-7799500D02*
X12459000Y-7889500D01*
X12459000Y-8053500D02*
X12549000Y-8143500D01*
X12549000Y-8053500D02*
X12459000Y-8143500D01*
X12587500Y-8777000D02*
X12677500Y-8867000D01*
X12677500Y-8777000D02*
X12587500Y-8867000D01*
X14108500Y-8777000D02*
X14198500Y-8867000D01*
X14198500Y-8777000D02*
X14108500Y-8867000D01*
X14234000Y-7799500D02*
X14324000Y-7889500D01*
X14324000Y-7799500D02*
X14234000Y-7889500D01*
X14234000Y-8053500D02*
X14324000Y-8143500D01*
X14324000Y-8053500D02*
X14234000Y-8143500D01*
X14362500Y-8777000D02*
X14452500Y-8867000D01*
X14452500Y-8777000D02*
X14362500Y-8867000D01*
D13*
X11034500Y-7358500D02*
G75*
G03*
X11034500Y-7358500I-50000J0D01*
G01*
X11288500Y-7358500D02*
G75*
G03*
X11288500Y-7358500I-50000J0D01*
G01*
X11542500Y-7358500D02*
G75*
G03*
X11542500Y-7358500I-50000J0D01*
G01*
X11796500Y-7358500D02*
G75*
G03*
X11796500Y-7358500I-50000J0D01*
G01*
X12050500Y-7358500D02*
G75*
G03*
X12050500Y-7358500I-50000J0D01*
G01*
X12304500Y-7358500D02*
G75*
G03*
X12304500Y-7358500I-50000J0D01*
G01*
D14*
X8781000Y-7031000D02*
X8781000Y-7351000D01*
X8621000Y-7191000D02*
X8941000Y-7191000D01*
X9846000Y-8662000D02*
X9846000Y-8982000D01*
X9686000Y-8822000D02*
X10006000Y-8822000D01*
X13390000Y-8662000D02*
X13390000Y-8982000D01*
X13230000Y-8822000D02*
X13550000Y-8822000D01*
X14454000Y-7031000D02*
X14454000Y-7351000D01*
X14294000Y-7191000D02*
X14614000Y-7191000D01*
D11*
X8783619Y-9524476D02*
X8783619Y-9324476D01*
X8831238Y-9324476D01*
X8859810Y-9334000D01*
X8878857Y-9353048D01*
X8888381Y-9372095D01*
X8897905Y-9410190D01*
X8897905Y-9438762D01*
X8888381Y-9476857D01*
X8878857Y-9495905D01*
X8859810Y-9514952D01*
X8831238Y-9524476D01*
X8783619Y-9524476D01*
X8983619Y-9524476D02*
X8983619Y-9391143D01*
X8983619Y-9429238D02*
X8993143Y-9410190D01*
X9002667Y-9400667D01*
X9021714Y-9391143D01*
X9040762Y-9391143D01*
X9107429Y-9524476D02*
X9107429Y-9391143D01*
X9107429Y-9324476D02*
X9097905Y-9334000D01*
X9107429Y-9343524D01*
X9116952Y-9334000D01*
X9107429Y-9324476D01*
X9107429Y-9343524D01*
X9231238Y-9524476D02*
X9212190Y-9514952D01*
X9202667Y-9495905D01*
X9202667Y-9324476D01*
X9336000Y-9524476D02*
X9316952Y-9514952D01*
X9307429Y-9495905D01*
X9307429Y-9324476D01*
X9564571Y-9524476D02*
X9564571Y-9324476D01*
X9631238Y-9467333D01*
X9697905Y-9324476D01*
X9697905Y-9524476D01*
X9878857Y-9524476D02*
X9878857Y-9419714D01*
X9869333Y-9400667D01*
X9850286Y-9391143D01*
X9812190Y-9391143D01*
X9793143Y-9400667D01*
X9878857Y-9514952D02*
X9859810Y-9524476D01*
X9812190Y-9524476D01*
X9793143Y-9514952D01*
X9783619Y-9495905D01*
X9783619Y-9476857D01*
X9793143Y-9457810D01*
X9812190Y-9448286D01*
X9859810Y-9448286D01*
X9878857Y-9438762D01*
X9974095Y-9391143D02*
X9974095Y-9591143D01*
X9974095Y-9400667D02*
X9993143Y-9391143D01*
X10031238Y-9391143D01*
X10050286Y-9400667D01*
X10059810Y-9410190D01*
X10069333Y-9429238D01*
X10069333Y-9486381D01*
X10059810Y-9505429D01*
X10050286Y-9514952D01*
X10031238Y-9524476D01*
X9993143Y-9524476D01*
X9974095Y-9514952D01*
X10155048Y-9505429D02*
X10164571Y-9514952D01*
X10155048Y-9524476D01*
X10145524Y-9514952D01*
X10155048Y-9505429D01*
X10155048Y-9524476D01*
X10155048Y-9400667D02*
X10164571Y-9410190D01*
X10155048Y-9419714D01*
X10145524Y-9410190D01*
X10155048Y-9400667D01*
X10155048Y-9419714D01*
D12*
X8436000Y-9809000D02*
X8526000Y-9899000D01*
X8526000Y-9809000D02*
X8436000Y-9899000D01*
D11*
X8821714Y-9744476D02*
X8840762Y-9744476D01*
X8859810Y-9754000D01*
X8869333Y-9763524D01*
X8878857Y-9782571D01*
X8888381Y-9820667D01*
X8888381Y-9868286D01*
X8878857Y-9906381D01*
X8869333Y-9925429D01*
X8859810Y-9934952D01*
X8840762Y-9944476D01*
X8821714Y-9944476D01*
X8802667Y-9934952D01*
X8793143Y-9925429D01*
X8783619Y-9906381D01*
X8774095Y-9868286D01*
X8774095Y-9820667D01*
X8783619Y-9782571D01*
X8793143Y-9763524D01*
X8802667Y-9754000D01*
X8821714Y-9744476D01*
X8974095Y-9925429D02*
X8983619Y-9934952D01*
X8974095Y-9944476D01*
X8964571Y-9934952D01*
X8974095Y-9925429D01*
X8974095Y-9944476D01*
X9078857Y-9944476D02*
X9116952Y-9944476D01*
X9136000Y-9934952D01*
X9145524Y-9925429D01*
X9164571Y-9896857D01*
X9174095Y-9858762D01*
X9174095Y-9782571D01*
X9164571Y-9763524D01*
X9155048Y-9754000D01*
X9136000Y-9744476D01*
X9097905Y-9744476D01*
X9078857Y-9754000D01*
X9069333Y-9763524D01*
X9059810Y-9782571D01*
X9059810Y-9830190D01*
X9069333Y-9849238D01*
X9078857Y-9858762D01*
X9097905Y-9868286D01*
X9136000Y-9868286D01*
X9155048Y-9858762D01*
X9164571Y-9849238D01*
X9174095Y-9830190D01*
X9297905Y-9744476D02*
X9316952Y-9744476D01*
X9336000Y-9754000D01*
X9345524Y-9763524D01*
X9355048Y-9782571D01*
X9364571Y-9820667D01*
X9364571Y-9868286D01*
X9355048Y-9906381D01*
X9345524Y-9925429D01*
X9336000Y-9934952D01*
X9316952Y-9944476D01*
X9297905Y-9944476D01*
X9278857Y-9934952D01*
X9269333Y-9925429D01*
X9259810Y-9906381D01*
X9250286Y-9868286D01*
X9250286Y-9820667D01*
X9259810Y-9782571D01*
X9269333Y-9763524D01*
X9278857Y-9754000D01*
X9297905Y-9744476D01*
X9488381Y-9744476D02*
X9507429Y-9744476D01*
X9526476Y-9754000D01*
X9536000Y-9763524D01*
X9545524Y-9782571D01*
X9555048Y-9820667D01*
X9555048Y-9868286D01*
X9545524Y-9906381D01*
X9536000Y-9925429D01*
X9526476Y-9934952D01*
X9507429Y-9944476D01*
X9488381Y-9944476D01*
X9469333Y-9934952D01*
X9459810Y-9925429D01*
X9450286Y-9906381D01*
X9440762Y-9868286D01*
X9440762Y-9820667D01*
X9450286Y-9782571D01*
X9459810Y-9763524D01*
X9469333Y-9754000D01*
X9488381Y-9744476D01*
X9640762Y-9944476D02*
X9640762Y-9811143D01*
X9640762Y-9830190D02*
X9650286Y-9820667D01*
X9669333Y-9811143D01*
X9697905Y-9811143D01*
X9716952Y-9820667D01*
X9726476Y-9839714D01*
X9726476Y-9944476D01*
X9726476Y-9839714D02*
X9736000Y-9820667D01*
X9755048Y-9811143D01*
X9783619Y-9811143D01*
X9802667Y-9820667D01*
X9812190Y-9839714D01*
X9812190Y-9944476D01*
X9907429Y-9944476D02*
X9907429Y-9811143D01*
X9907429Y-9830190D02*
X9916952Y-9820667D01*
X9936000Y-9811143D01*
X9964571Y-9811143D01*
X9983619Y-9820667D01*
X9993143Y-9839714D01*
X9993143Y-9944476D01*
X9993143Y-9839714D02*
X10002667Y-9820667D01*
X10021714Y-9811143D01*
X10050286Y-9811143D01*
X10069333Y-9820667D01*
X10078857Y-9839714D01*
X10078857Y-9944476D01*
X10469333Y-9734952D02*
X10297905Y-9992095D01*
X10726476Y-9744476D02*
X10745524Y-9744476D01*
X10764571Y-9754000D01*
X10774095Y-9763524D01*
X10783619Y-9782571D01*
X10793143Y-9820667D01*
X10793143Y-9868286D01*
X10783619Y-9906381D01*
X10774095Y-9925429D01*
X10764571Y-9934952D01*
X10745524Y-9944476D01*
X10726476Y-9944476D01*
X10707429Y-9934952D01*
X10697905Y-9925429D01*
X10688381Y-9906381D01*
X10678857Y-9868286D01*
X10678857Y-9820667D01*
X10688381Y-9782571D01*
X10697905Y-9763524D01*
X10707429Y-9754000D01*
X10726476Y-9744476D01*
X10878857Y-9925429D02*
X10888381Y-9934952D01*
X10878857Y-9944476D01*
X10869333Y-9934952D01*
X10878857Y-9925429D01*
X10878857Y-9944476D01*
X11012190Y-9744476D02*
X11031238Y-9744476D01*
X11050286Y-9754000D01*
X11059810Y-9763524D01*
X11069333Y-9782571D01*
X11078857Y-9820667D01*
X11078857Y-9868286D01*
X11069333Y-9906381D01*
X11059810Y-9925429D01*
X11050286Y-9934952D01*
X11031238Y-9944476D01*
X11012190Y-9944476D01*
X10993143Y-9934952D01*
X10983619Y-9925429D01*
X10974095Y-9906381D01*
X10964571Y-9868286D01*
X10964571Y-9820667D01*
X10974095Y-9782571D01*
X10983619Y-9763524D01*
X10993143Y-9754000D01*
X11012190Y-9744476D01*
X11145524Y-9744476D02*
X11269333Y-9744476D01*
X11202667Y-9820667D01*
X11231238Y-9820667D01*
X11250286Y-9830190D01*
X11259809Y-9839714D01*
X11269333Y-9858762D01*
X11269333Y-9906381D01*
X11259809Y-9925429D01*
X11250286Y-9934952D01*
X11231238Y-9944476D01*
X11174095Y-9944476D01*
X11155048Y-9934952D01*
X11145524Y-9925429D01*
X11450286Y-9744476D02*
X11355048Y-9744476D01*
X11345524Y-9839714D01*
X11355048Y-9830190D01*
X11374095Y-9820667D01*
X11421714Y-9820667D01*
X11440762Y-9830190D01*
X11450286Y-9839714D01*
X11459809Y-9858762D01*
X11459809Y-9906381D01*
X11450286Y-9925429D01*
X11440762Y-9934952D01*
X11421714Y-9944476D01*
X11374095Y-9944476D01*
X11355048Y-9934952D01*
X11345524Y-9925429D01*
X11631238Y-9811143D02*
X11631238Y-9944476D01*
X11583619Y-9734952D02*
X11536000Y-9877810D01*
X11659809Y-9877810D01*
X11726476Y-9744476D02*
X11726476Y-9782571D01*
X11802667Y-9744476D02*
X11802667Y-9782571D01*
X12097905Y-10020667D02*
X12088381Y-10011143D01*
X12069333Y-9982571D01*
X12059809Y-9963524D01*
X12050286Y-9934952D01*
X12040762Y-9887333D01*
X12040762Y-9849238D01*
X12050286Y-9801619D01*
X12059809Y-9773048D01*
X12069333Y-9754000D01*
X12088381Y-9725429D01*
X12097905Y-9715905D01*
X12278857Y-9944476D02*
X12164571Y-9944476D01*
X12221714Y-9944476D02*
X12221714Y-9744476D01*
X12202667Y-9773048D01*
X12183619Y-9792095D01*
X12164571Y-9801619D01*
X12450286Y-9744476D02*
X12412190Y-9744476D01*
X12393143Y-9754000D01*
X12383619Y-9763524D01*
X12364571Y-9792095D01*
X12355048Y-9830190D01*
X12355048Y-9906381D01*
X12364571Y-9925429D01*
X12374095Y-9934952D01*
X12393143Y-9944476D01*
X12431238Y-9944476D01*
X12450286Y-9934952D01*
X12459809Y-9925429D01*
X12469333Y-9906381D01*
X12469333Y-9858762D01*
X12459809Y-9839714D01*
X12450286Y-9830190D01*
X12431238Y-9820667D01*
X12393143Y-9820667D01*
X12374095Y-9830190D01*
X12364571Y-9839714D01*
X12355048Y-9858762D01*
X12707428Y-9944476D02*
X12707428Y-9744476D01*
X12793143Y-9944476D02*
X12793143Y-9839714D01*
X12783619Y-9820667D01*
X12764571Y-9811143D01*
X12736000Y-9811143D01*
X12716952Y-9820667D01*
X12707428Y-9830190D01*
X12916952Y-9944476D02*
X12897905Y-9934952D01*
X12888381Y-9925429D01*
X12878857Y-9906381D01*
X12878857Y-9849238D01*
X12888381Y-9830190D01*
X12897905Y-9820667D01*
X12916952Y-9811143D01*
X12945524Y-9811143D01*
X12964571Y-9820667D01*
X12974095Y-9830190D01*
X12983619Y-9849238D01*
X12983619Y-9906381D01*
X12974095Y-9925429D01*
X12964571Y-9934952D01*
X12945524Y-9944476D01*
X12916952Y-9944476D01*
X13097905Y-9944476D02*
X13078857Y-9934952D01*
X13069333Y-9915905D01*
X13069333Y-9744476D01*
X13250286Y-9934952D02*
X13231238Y-9944476D01*
X13193143Y-9944476D01*
X13174095Y-9934952D01*
X13164571Y-9915905D01*
X13164571Y-9839714D01*
X13174095Y-9820667D01*
X13193143Y-9811143D01*
X13231238Y-9811143D01*
X13250286Y-9820667D01*
X13259809Y-9839714D01*
X13259809Y-9858762D01*
X13164571Y-9877810D01*
X13336000Y-9934952D02*
X13355048Y-9944476D01*
X13393143Y-9944476D01*
X13412190Y-9934952D01*
X13421714Y-9915905D01*
X13421714Y-9906381D01*
X13412190Y-9887333D01*
X13393143Y-9877810D01*
X13364571Y-9877810D01*
X13345524Y-9868286D01*
X13336000Y-9849238D01*
X13336000Y-9839714D01*
X13345524Y-9820667D01*
X13364571Y-9811143D01*
X13393143Y-9811143D01*
X13412190Y-9820667D01*
X13488381Y-10020667D02*
X13497905Y-10011143D01*
X13516952Y-9982571D01*
X13526476Y-9963524D01*
X13536000Y-9934952D01*
X13545524Y-9887333D01*
X13545524Y-9849238D01*
X13536000Y-9801619D01*
X13526476Y-9773048D01*
X13516952Y-9754000D01*
X13497905Y-9725429D01*
X13488381Y-9715905D01*
D13*
X8526000Y-10118000D02*
G75*
G03*
X8526000Y-10118000I-50000J0D01*
G01*
D11*
X8888381Y-10208476D02*
X8774095Y-10208476D01*
X8831238Y-10208476D02*
X8831238Y-10008476D01*
X8812190Y-10037048D01*
X8793143Y-10056095D01*
X8774095Y-10065619D01*
X8974095Y-10189429D02*
X8983619Y-10198952D01*
X8974095Y-10208476D01*
X8964571Y-10198952D01*
X8974095Y-10189429D01*
X8974095Y-10208476D01*
X9107429Y-10008476D02*
X9126476Y-10008476D01*
X9145524Y-10018000D01*
X9155048Y-10027524D01*
X9164571Y-10046571D01*
X9174095Y-10084667D01*
X9174095Y-10132286D01*
X9164571Y-10170381D01*
X9155048Y-10189429D01*
X9145524Y-10198952D01*
X9126476Y-10208476D01*
X9107429Y-10208476D01*
X9088381Y-10198952D01*
X9078857Y-10189429D01*
X9069333Y-10170381D01*
X9059810Y-10132286D01*
X9059810Y-10084667D01*
X9069333Y-10046571D01*
X9078857Y-10027524D01*
X9088381Y-10018000D01*
X9107429Y-10008476D01*
X9297905Y-10008476D02*
X9316952Y-10008476D01*
X9336000Y-10018000D01*
X9345524Y-10027524D01*
X9355048Y-10046571D01*
X9364571Y-10084667D01*
X9364571Y-10132286D01*
X9355048Y-10170381D01*
X9345524Y-10189429D01*
X9336000Y-10198952D01*
X9316952Y-10208476D01*
X9297905Y-10208476D01*
X9278857Y-10198952D01*
X9269333Y-10189429D01*
X9259810Y-10170381D01*
X9250286Y-10132286D01*
X9250286Y-10084667D01*
X9259810Y-10046571D01*
X9269333Y-10027524D01*
X9278857Y-10018000D01*
X9297905Y-10008476D01*
X9488381Y-10008476D02*
X9507429Y-10008476D01*
X9526476Y-10018000D01*
X9536000Y-10027524D01*
X9545524Y-10046571D01*
X9555048Y-10084667D01*
X9555048Y-10132286D01*
X9545524Y-10170381D01*
X9536000Y-10189429D01*
X9526476Y-10198952D01*
X9507429Y-10208476D01*
X9488381Y-10208476D01*
X9469333Y-10198952D01*
X9459810Y-10189429D01*
X9450286Y-10170381D01*
X9440762Y-10132286D01*
X9440762Y-10084667D01*
X9450286Y-10046571D01*
X9459810Y-10027524D01*
X9469333Y-10018000D01*
X9488381Y-10008476D01*
X9640762Y-10208476D02*
X9640762Y-10075143D01*
X9640762Y-10094190D02*
X9650286Y-10084667D01*
X9669333Y-10075143D01*
X9697905Y-10075143D01*
X9716952Y-10084667D01*
X9726476Y-10103714D01*
X9726476Y-10208476D01*
X9726476Y-10103714D02*
X9736000Y-10084667D01*
X9755048Y-10075143D01*
X9783619Y-10075143D01*
X9802667Y-10084667D01*
X9812190Y-10103714D01*
X9812190Y-10208476D01*
X9907429Y-10208476D02*
X9907429Y-10075143D01*
X9907429Y-10094190D02*
X9916952Y-10084667D01*
X9936000Y-10075143D01*
X9964571Y-10075143D01*
X9983619Y-10084667D01*
X9993143Y-10103714D01*
X9993143Y-10208476D01*
X9993143Y-10103714D02*
X10002667Y-10084667D01*
X10021714Y-10075143D01*
X10050286Y-10075143D01*
X10069333Y-10084667D01*
X10078857Y-10103714D01*
X10078857Y-10208476D01*
X10469333Y-9998952D02*
X10297905Y-10256095D01*
X10726476Y-10008476D02*
X10745524Y-10008476D01*
X10764571Y-10018000D01*
X10774095Y-10027524D01*
X10783619Y-10046571D01*
X10793143Y-10084667D01*
X10793143Y-10132286D01*
X10783619Y-10170381D01*
X10774095Y-10189429D01*
X10764571Y-10198952D01*
X10745524Y-10208476D01*
X10726476Y-10208476D01*
X10707429Y-10198952D01*
X10697905Y-10189429D01*
X10688381Y-10170381D01*
X10678857Y-10132286D01*
X10678857Y-10084667D01*
X10688381Y-10046571D01*
X10697905Y-10027524D01*
X10707429Y-10018000D01*
X10726476Y-10008476D01*
X10878857Y-10189429D02*
X10888381Y-10198952D01*
X10878857Y-10208476D01*
X10869333Y-10198952D01*
X10878857Y-10189429D01*
X10878857Y-10208476D01*
X11012190Y-10008476D02*
X11031238Y-10008476D01*
X11050286Y-10018000D01*
X11059810Y-10027524D01*
X11069333Y-10046571D01*
X11078857Y-10084667D01*
X11078857Y-10132286D01*
X11069333Y-10170381D01*
X11059810Y-10189429D01*
X11050286Y-10198952D01*
X11031238Y-10208476D01*
X11012190Y-10208476D01*
X10993143Y-10198952D01*
X10983619Y-10189429D01*
X10974095Y-10170381D01*
X10964571Y-10132286D01*
X10964571Y-10084667D01*
X10974095Y-10046571D01*
X10983619Y-10027524D01*
X10993143Y-10018000D01*
X11012190Y-10008476D01*
X11145524Y-10008476D02*
X11269333Y-10008476D01*
X11202667Y-10084667D01*
X11231238Y-10084667D01*
X11250286Y-10094190D01*
X11259809Y-10103714D01*
X11269333Y-10122762D01*
X11269333Y-10170381D01*
X11259809Y-10189429D01*
X11250286Y-10198952D01*
X11231238Y-10208476D01*
X11174095Y-10208476D01*
X11155048Y-10198952D01*
X11145524Y-10189429D01*
X11364571Y-10208476D02*
X11402667Y-10208476D01*
X11421714Y-10198952D01*
X11431238Y-10189429D01*
X11450286Y-10160857D01*
X11459809Y-10122762D01*
X11459809Y-10046571D01*
X11450286Y-10027524D01*
X11440762Y-10018000D01*
X11421714Y-10008476D01*
X11383619Y-10008476D01*
X11364571Y-10018000D01*
X11355048Y-10027524D01*
X11345524Y-10046571D01*
X11345524Y-10094190D01*
X11355048Y-10113238D01*
X11364571Y-10122762D01*
X11383619Y-10132286D01*
X11421714Y-10132286D01*
X11440762Y-10122762D01*
X11450286Y-10113238D01*
X11459809Y-10094190D01*
X11631238Y-10075143D02*
X11631238Y-10208476D01*
X11583619Y-9998952D02*
X11536000Y-10141810D01*
X11659809Y-10141810D01*
X11726476Y-10008476D02*
X11726476Y-10046571D01*
X11802667Y-10008476D02*
X11802667Y-10046571D01*
X12097905Y-10284667D02*
X12088381Y-10275143D01*
X12069333Y-10246571D01*
X12059809Y-10227524D01*
X12050286Y-10198952D01*
X12040762Y-10151333D01*
X12040762Y-10113238D01*
X12050286Y-10065619D01*
X12059809Y-10037048D01*
X12069333Y-10018000D01*
X12088381Y-9989429D01*
X12097905Y-9979905D01*
X12259809Y-10008476D02*
X12221714Y-10008476D01*
X12202667Y-10018000D01*
X12193143Y-10027524D01*
X12174095Y-10056095D01*
X12164571Y-10094190D01*
X12164571Y-10170381D01*
X12174095Y-10189429D01*
X12183619Y-10198952D01*
X12202667Y-10208476D01*
X12240762Y-10208476D01*
X12259809Y-10198952D01*
X12269333Y-10189429D01*
X12278857Y-10170381D01*
X12278857Y-10122762D01*
X12269333Y-10103714D01*
X12259809Y-10094190D01*
X12240762Y-10084667D01*
X12202667Y-10084667D01*
X12183619Y-10094190D01*
X12174095Y-10103714D01*
X12164571Y-10122762D01*
X12516952Y-10208476D02*
X12516952Y-10008476D01*
X12602667Y-10208476D02*
X12602667Y-10103714D01*
X12593143Y-10084667D01*
X12574095Y-10075143D01*
X12545524Y-10075143D01*
X12526476Y-10084667D01*
X12516952Y-10094190D01*
X12726476Y-10208476D02*
X12707428Y-10198952D01*
X12697905Y-10189429D01*
X12688381Y-10170381D01*
X12688381Y-10113238D01*
X12697905Y-10094190D01*
X12707428Y-10084667D01*
X12726476Y-10075143D01*
X12755048Y-10075143D01*
X12774095Y-10084667D01*
X12783619Y-10094190D01*
X12793143Y-10113238D01*
X12793143Y-10170381D01*
X12783619Y-10189429D01*
X12774095Y-10198952D01*
X12755048Y-10208476D01*
X12726476Y-10208476D01*
X12907428Y-10208476D02*
X12888381Y-10198952D01*
X12878857Y-10179905D01*
X12878857Y-10008476D01*
X13059809Y-10198952D02*
X13040762Y-10208476D01*
X13002667Y-10208476D01*
X12983619Y-10198952D01*
X12974095Y-10179905D01*
X12974095Y-10103714D01*
X12983619Y-10084667D01*
X13002667Y-10075143D01*
X13040762Y-10075143D01*
X13059809Y-10084667D01*
X13069333Y-10103714D01*
X13069333Y-10122762D01*
X12974095Y-10141810D01*
X13145524Y-10198952D02*
X13164571Y-10208476D01*
X13202667Y-10208476D01*
X13221714Y-10198952D01*
X13231238Y-10179905D01*
X13231238Y-10170381D01*
X13221714Y-10151333D01*
X13202667Y-10141810D01*
X13174095Y-10141810D01*
X13155048Y-10132286D01*
X13145524Y-10113238D01*
X13145524Y-10103714D01*
X13155048Y-10084667D01*
X13174095Y-10075143D01*
X13202667Y-10075143D01*
X13221714Y-10084667D01*
X13297905Y-10284667D02*
X13307428Y-10275143D01*
X13326476Y-10246571D01*
X13336000Y-10227524D01*
X13345524Y-10198952D01*
X13355048Y-10151333D01*
X13355048Y-10113238D01*
X13345524Y-10065619D01*
X13336000Y-10037048D01*
X13326476Y-10018000D01*
X13307428Y-9989429D01*
X13297905Y-9979905D01*
X8426000Y-10282000D02*
X8426000Y-10482000D01*
X8326000Y-10382000D02*
X8526000Y-10382000D01*
X8764571Y-10272476D02*
X8888381Y-10272476D01*
X8821714Y-10348667D01*
X8850286Y-10348667D01*
X8869333Y-10358190D01*
X8878857Y-10367714D01*
X8888381Y-10386762D01*
X8888381Y-10434381D01*
X8878857Y-10453429D01*
X8869333Y-10462952D01*
X8850286Y-10472476D01*
X8793143Y-10472476D01*
X8774095Y-10462952D01*
X8764571Y-10453429D01*
X8974095Y-10453429D02*
X8983619Y-10462952D01*
X8974095Y-10472476D01*
X8964571Y-10462952D01*
X8974095Y-10453429D01*
X8974095Y-10472476D01*
X9059810Y-10291524D02*
X9069333Y-10282000D01*
X9088381Y-10272476D01*
X9136000Y-10272476D01*
X9155048Y-10282000D01*
X9164571Y-10291524D01*
X9174095Y-10310571D01*
X9174095Y-10329619D01*
X9164571Y-10358190D01*
X9050286Y-10472476D01*
X9174095Y-10472476D01*
X9297905Y-10272476D02*
X9316952Y-10272476D01*
X9336000Y-10282000D01*
X9345524Y-10291524D01*
X9355048Y-10310571D01*
X9364571Y-10348667D01*
X9364571Y-10396286D01*
X9355048Y-10434381D01*
X9345524Y-10453429D01*
X9336000Y-10462952D01*
X9316952Y-10472476D01*
X9297905Y-10472476D01*
X9278857Y-10462952D01*
X9269333Y-10453429D01*
X9259810Y-10434381D01*
X9250286Y-10396286D01*
X9250286Y-10348667D01*
X9259810Y-10310571D01*
X9269333Y-10291524D01*
X9278857Y-10282000D01*
X9297905Y-10272476D01*
X9488381Y-10272476D02*
X9507429Y-10272476D01*
X9526476Y-10282000D01*
X9536000Y-10291524D01*
X9545524Y-10310571D01*
X9555048Y-10348667D01*
X9555048Y-10396286D01*
X9545524Y-10434381D01*
X9536000Y-10453429D01*
X9526476Y-10462952D01*
X9507429Y-10472476D01*
X9488381Y-10472476D01*
X9469333Y-10462952D01*
X9459810Y-10453429D01*
X9450286Y-10434381D01*
X9440762Y-10396286D01*
X9440762Y-10348667D01*
X9450286Y-10310571D01*
X9459810Y-10291524D01*
X9469333Y-10282000D01*
X9488381Y-10272476D01*
X9640762Y-10472476D02*
X9640762Y-10339143D01*
X9640762Y-10358190D02*
X9650286Y-10348667D01*
X9669333Y-10339143D01*
X9697905Y-10339143D01*
X9716952Y-10348667D01*
X9726476Y-10367714D01*
X9726476Y-10472476D01*
X9726476Y-10367714D02*
X9736000Y-10348667D01*
X9755048Y-10339143D01*
X9783619Y-10339143D01*
X9802667Y-10348667D01*
X9812190Y-10367714D01*
X9812190Y-10472476D01*
X9907429Y-10472476D02*
X9907429Y-10339143D01*
X9907429Y-10358190D02*
X9916952Y-10348667D01*
X9936000Y-10339143D01*
X9964571Y-10339143D01*
X9983619Y-10348667D01*
X9993143Y-10367714D01*
X9993143Y-10472476D01*
X9993143Y-10367714D02*
X10002667Y-10348667D01*
X10021714Y-10339143D01*
X10050286Y-10339143D01*
X10069333Y-10348667D01*
X10078857Y-10367714D01*
X10078857Y-10472476D01*
X10469333Y-10262952D02*
X10297905Y-10520095D01*
X10726476Y-10272476D02*
X10745524Y-10272476D01*
X10764571Y-10282000D01*
X10774095Y-10291524D01*
X10783619Y-10310571D01*
X10793143Y-10348667D01*
X10793143Y-10396286D01*
X10783619Y-10434381D01*
X10774095Y-10453429D01*
X10764571Y-10462952D01*
X10745524Y-10472476D01*
X10726476Y-10472476D01*
X10707429Y-10462952D01*
X10697905Y-10453429D01*
X10688381Y-10434381D01*
X10678857Y-10396286D01*
X10678857Y-10348667D01*
X10688381Y-10310571D01*
X10697905Y-10291524D01*
X10707429Y-10282000D01*
X10726476Y-10272476D01*
X10878857Y-10453429D02*
X10888381Y-10462952D01*
X10878857Y-10472476D01*
X10869333Y-10462952D01*
X10878857Y-10453429D01*
X10878857Y-10472476D01*
X11078857Y-10472476D02*
X10964571Y-10472476D01*
X11021714Y-10472476D02*
X11021714Y-10272476D01*
X11002667Y-10301048D01*
X10983619Y-10320095D01*
X10964571Y-10329619D01*
X11155048Y-10291524D02*
X11164571Y-10282000D01*
X11183619Y-10272476D01*
X11231238Y-10272476D01*
X11250286Y-10282000D01*
X11259809Y-10291524D01*
X11269333Y-10310571D01*
X11269333Y-10329619D01*
X11259809Y-10358190D01*
X11145524Y-10472476D01*
X11269333Y-10472476D01*
X11440762Y-10272476D02*
X11402667Y-10272476D01*
X11383619Y-10282000D01*
X11374095Y-10291524D01*
X11355048Y-10320095D01*
X11345524Y-10358190D01*
X11345524Y-10434381D01*
X11355048Y-10453429D01*
X11364571Y-10462952D01*
X11383619Y-10472476D01*
X11421714Y-10472476D01*
X11440762Y-10462952D01*
X11450286Y-10453429D01*
X11459809Y-10434381D01*
X11459809Y-10386762D01*
X11450286Y-10367714D01*
X11440762Y-10358190D01*
X11421714Y-10348667D01*
X11383619Y-10348667D01*
X11364571Y-10358190D01*
X11355048Y-10367714D01*
X11345524Y-10386762D01*
X11583619Y-10272476D02*
X11602667Y-10272476D01*
X11621714Y-10282000D01*
X11631238Y-10291524D01*
X11640762Y-10310571D01*
X11650286Y-10348667D01*
X11650286Y-10396286D01*
X11640762Y-10434381D01*
X11631238Y-10453429D01*
X11621714Y-10462952D01*
X11602667Y-10472476D01*
X11583619Y-10472476D01*
X11564571Y-10462952D01*
X11555048Y-10453429D01*
X11545524Y-10434381D01*
X11536000Y-10396286D01*
X11536000Y-10348667D01*
X11545524Y-10310571D01*
X11555048Y-10291524D01*
X11564571Y-10282000D01*
X11583619Y-10272476D01*
X11726476Y-10272476D02*
X11726476Y-10310571D01*
X11802667Y-10272476D02*
X11802667Y-10310571D01*
X12097905Y-10548667D02*
X12088381Y-10539143D01*
X12069333Y-10510571D01*
X12059809Y-10491524D01*
X12050286Y-10462952D01*
X12040762Y-10415333D01*
X12040762Y-10377238D01*
X12050286Y-10329619D01*
X12059809Y-10301048D01*
X12069333Y-10282000D01*
X12088381Y-10253429D01*
X12097905Y-10243905D01*
X12259809Y-10339143D02*
X12259809Y-10472476D01*
X12212190Y-10262952D02*
X12164571Y-10405810D01*
X12288381Y-10405810D01*
X12516952Y-10472476D02*
X12516952Y-10272476D01*
X12602667Y-10472476D02*
X12602667Y-10367714D01*
X12593143Y-10348667D01*
X12574095Y-10339143D01*
X12545524Y-10339143D01*
X12526476Y-10348667D01*
X12516952Y-10358190D01*
X12726476Y-10472476D02*
X12707428Y-10462952D01*
X12697905Y-10453429D01*
X12688381Y-10434381D01*
X12688381Y-10377238D01*
X12697905Y-10358190D01*
X12707428Y-10348667D01*
X12726476Y-10339143D01*
X12755048Y-10339143D01*
X12774095Y-10348667D01*
X12783619Y-10358190D01*
X12793143Y-10377238D01*
X12793143Y-10434381D01*
X12783619Y-10453429D01*
X12774095Y-10462952D01*
X12755048Y-10472476D01*
X12726476Y-10472476D01*
X12907428Y-10472476D02*
X12888381Y-10462952D01*
X12878857Y-10443905D01*
X12878857Y-10272476D01*
X13059809Y-10462952D02*
X13040762Y-10472476D01*
X13002667Y-10472476D01*
X12983619Y-10462952D01*
X12974095Y-10443905D01*
X12974095Y-10367714D01*
X12983619Y-10348667D01*
X13002667Y-10339143D01*
X13040762Y-10339143D01*
X13059809Y-10348667D01*
X13069333Y-10367714D01*
X13069333Y-10386762D01*
X12974095Y-10405810D01*
X13145524Y-10462952D02*
X13164571Y-10472476D01*
X13202667Y-10472476D01*
X13221714Y-10462952D01*
X13231238Y-10443905D01*
X13231238Y-10434381D01*
X13221714Y-10415333D01*
X13202667Y-10405810D01*
X13174095Y-10405810D01*
X13155048Y-10396286D01*
X13145524Y-10377238D01*
X13145524Y-10367714D01*
X13155048Y-10348667D01*
X13174095Y-10339143D01*
X13202667Y-10339143D01*
X13221714Y-10348667D01*
X13297905Y-10548667D02*
X13307428Y-10539143D01*
X13326476Y-10510571D01*
X13336000Y-10491524D01*
X13345524Y-10462952D01*
X13355048Y-10415333D01*
X13355048Y-10377238D01*
X13345524Y-10329619D01*
X13336000Y-10301048D01*
X13326476Y-10282000D01*
X13307428Y-10253429D01*
X13297905Y-10243905D01*
X13659809Y-10548667D02*
X13650286Y-10539143D01*
X13631238Y-10510571D01*
X13621714Y-10491524D01*
X13612190Y-10462952D01*
X13602667Y-10415333D01*
X13602667Y-10377238D01*
X13612190Y-10329619D01*
X13621714Y-10301048D01*
X13631238Y-10282000D01*
X13650286Y-10253429D01*
X13659809Y-10243905D01*
X13736000Y-10339143D02*
X13736000Y-10472476D01*
X13736000Y-10358190D02*
X13745524Y-10348667D01*
X13764571Y-10339143D01*
X13793143Y-10339143D01*
X13812190Y-10348667D01*
X13821714Y-10367714D01*
X13821714Y-10472476D01*
X13945524Y-10472476D02*
X13926476Y-10462952D01*
X13916952Y-10453429D01*
X13907428Y-10434381D01*
X13907428Y-10377238D01*
X13916952Y-10358190D01*
X13926476Y-10348667D01*
X13945524Y-10339143D01*
X13974095Y-10339143D01*
X13993143Y-10348667D01*
X14002667Y-10358190D01*
X14012190Y-10377238D01*
X14012190Y-10434381D01*
X14002667Y-10453429D01*
X13993143Y-10462952D01*
X13974095Y-10472476D01*
X13945524Y-10472476D01*
X14069333Y-10339143D02*
X14145524Y-10339143D01*
X14097905Y-10272476D02*
X14097905Y-10443905D01*
X14107428Y-10462952D01*
X14126476Y-10472476D01*
X14145524Y-10472476D01*
X14364571Y-10339143D02*
X14364571Y-10539143D01*
X14364571Y-10348667D02*
X14383619Y-10339143D01*
X14421714Y-10339143D01*
X14440762Y-10348667D01*
X14450286Y-10358190D01*
X14459809Y-10377238D01*
X14459809Y-10434381D01*
X14450286Y-10453429D01*
X14440762Y-10462952D01*
X14421714Y-10472476D01*
X14383619Y-10472476D01*
X14364571Y-10462952D01*
X14574095Y-10472476D02*
X14555048Y-10462952D01*
X14545524Y-10443905D01*
X14545524Y-10272476D01*
X14736000Y-10472476D02*
X14736000Y-10367714D01*
X14726476Y-10348667D01*
X14707428Y-10339143D01*
X14669333Y-10339143D01*
X14650286Y-10348667D01*
X14736000Y-10462952D02*
X14716952Y-10472476D01*
X14669333Y-10472476D01*
X14650286Y-10462952D01*
X14640762Y-10443905D01*
X14640762Y-10424857D01*
X14650286Y-10405810D01*
X14669333Y-10396286D01*
X14716952Y-10396286D01*
X14736000Y-10386762D01*
X14802667Y-10339143D02*
X14878857Y-10339143D01*
X14831238Y-10272476D02*
X14831238Y-10443905D01*
X14840762Y-10462952D01*
X14859809Y-10472476D01*
X14878857Y-10472476D01*
X15021714Y-10462952D02*
X15002667Y-10472476D01*
X14964571Y-10472476D01*
X14945524Y-10462952D01*
X14936000Y-10443905D01*
X14936000Y-10367714D01*
X14945524Y-10348667D01*
X14964571Y-10339143D01*
X15002667Y-10339143D01*
X15021714Y-10348667D01*
X15031238Y-10367714D01*
X15031238Y-10386762D01*
X14936000Y-10405810D01*
X15202667Y-10472476D02*
X15202667Y-10272476D01*
X15202667Y-10462952D02*
X15183619Y-10472476D01*
X15145524Y-10472476D01*
X15126476Y-10462952D01*
X15116952Y-10453429D01*
X15107428Y-10434381D01*
X15107428Y-10377238D01*
X15116952Y-10358190D01*
X15126476Y-10348667D01*
X15145524Y-10339143D01*
X15183619Y-10339143D01*
X15202667Y-10348667D01*
X15278857Y-10548667D02*
X15288381Y-10539143D01*
X15307428Y-10510571D01*
X15316952Y-10491524D01*
X15326476Y-10462952D01*
X15336000Y-10415333D01*
X15336000Y-10377238D01*
X15326476Y-10329619D01*
X15316952Y-10301048D01*
X15307428Y-10282000D01*
X15288381Y-10253429D01*
X15278857Y-10243905D01*
M02*
