%TF.GenerationSoftware,KiCad,Pcbnew,6.0.9-8da3e8f707~116~ubuntu22.04.1*%
%TF.CreationDate,2022-11-19T00:39:28+05:30*%
%TF.ProjectId,lsa,6c73612e-6b69-4636-9164-5f7063625858,rev?*%
%TF.SameCoordinates,Original*%
%TF.FileFunction,Copper,L2,Bot*%
%TF.FilePolarity,Positive*%
%FSLAX46Y46*%
G04 Gerber Fmt 4.6, Leading zero omitted, Abs format (unit mm)*
G04 Created by KiCad (PCBNEW 6.0.9-8da3e8f707~116~ubuntu22.04.1) date 2022-11-19 00:39:28*
%MOMM*%
%LPD*%
G01*
G04 APERTURE LIST*
G04 Aperture macros list*
%AMRoundRect*
0 Rectangle with rounded corners*
0 $1 Rounding radius*
0 $2 $3 $4 $5 $6 $7 $8 $9 X,Y pos of 4 corners*
0 Add a 4 corners polygon primitive as box body*
4,1,4,$2,$3,$4,$5,$6,$7,$8,$9,$2,$3,0*
0 Add four circle primitives for the rounded corners*
1,1,$1+$1,$2,$3*
1,1,$1+$1,$4,$5*
1,1,$1+$1,$6,$7*
1,1,$1+$1,$8,$9*
0 Add four rect primitives between the rounded corners*
20,1,$1+$1,$2,$3,$4,$5,0*
20,1,$1+$1,$4,$5,$6,$7,0*
20,1,$1+$1,$6,$7,$8,$9,0*
20,1,$1+$1,$8,$9,$2,$3,0*%
G04 Aperture macros list end*
%TA.AperFunction,ComponentPad*%
%ADD10R,1.700000X1.700000*%
%TD*%
%TA.AperFunction,ComponentPad*%
%ADD11O,1.700000X1.700000*%
%TD*%
%TA.AperFunction,ComponentPad*%
%ADD12C,1.500000*%
%TD*%
%TA.AperFunction,SMDPad,CuDef*%
%ADD13RoundRect,0.250000X0.625000X-0.400000X0.625000X0.400000X-0.625000X0.400000X-0.625000X-0.400000X0*%
%TD*%
%TA.AperFunction,SMDPad,CuDef*%
%ADD14RoundRect,0.250000X0.400000X0.625000X-0.400000X0.625000X-0.400000X-0.625000X0.400000X-0.625000X0*%
%TD*%
%TA.AperFunction,SMDPad,CuDef*%
%ADD15C,0.500000*%
%TD*%
%TA.AperFunction,Conductor*%
%ADD16C,0.300000*%
%TD*%
%TA.AperFunction,Conductor*%
%ADD17C,0.600000*%
%TD*%
G04 APERTURE END LIST*
D10*
%TO.P,J1,1,Pin_1*%
%TO.N,/A4_32*%
X108575000Y-72000000D03*
D11*
%TO.P,J1,2,Pin_2*%
%TO.N,/A3_35*%
X111115000Y-72000000D03*
%TO.P,J1,3,Pin_3*%
%TO.N,/A2_34*%
X113655000Y-72000000D03*
%TO.P,J1,4,Pin_4*%
%TO.N,/A1_39*%
X116195000Y-72000000D03*
%TO.P,J1,5,Pin_5*%
%TO.N,/A0_36*%
X118735000Y-72000000D03*
%TO.P,J1,6,Pin_6*%
%TO.N,GND*%
X121275000Y-72000000D03*
%TO.P,J1,7,Pin_7*%
%TO.N,+3V3*%
X123815000Y-72000000D03*
%TD*%
D12*
%TO.P,U5,A*%
%TO.N,GND*%
X89930000Y-77850000D03*
%TO.P,U5,CATH*%
%TO.N,Net-(R9-Pad2)*%
X92470000Y-77850000D03*
%TO.P,U5,COLL*%
%TO.N,GND*%
X89930000Y-83350000D03*
%TO.P,U5,E*%
%TO.N,/A4_32*%
X92470000Y-83350000D03*
%TD*%
%TO.P,U3,A*%
%TO.N,GND*%
X114930000Y-77850000D03*
%TO.P,U3,CATH*%
%TO.N,Net-(R5-Pad2)*%
X117470000Y-77850000D03*
%TO.P,U3,COLL*%
%TO.N,GND*%
X114930000Y-83350000D03*
%TO.P,U3,E*%
%TO.N,/A2_34*%
X117470000Y-83350000D03*
%TD*%
%TO.P,U4,A*%
%TO.N,GND*%
X103130000Y-77850000D03*
%TO.P,U4,CATH*%
%TO.N,Net-(R7-Pad2)*%
X105670000Y-77850000D03*
%TO.P,U4,COLL*%
%TO.N,GND*%
X103130000Y-83350000D03*
%TO.P,U4,E*%
%TO.N,/A3_35*%
X105670000Y-83350000D03*
%TD*%
%TO.P,U2,A*%
%TO.N,GND*%
X126730000Y-77850000D03*
%TO.P,U2,CATH*%
%TO.N,Net-(R3-Pad2)*%
X129270000Y-77850000D03*
%TO.P,U2,COLL*%
%TO.N,GND*%
X126730000Y-83350000D03*
%TO.P,U2,E*%
%TO.N,/A1_39*%
X129270000Y-83350000D03*
%TD*%
%TO.P,U1,A*%
%TO.N,GND*%
X139930000Y-77850000D03*
%TO.P,U1,CATH*%
%TO.N,Net-(R1-Pad2)*%
X142470000Y-77850000D03*
%TO.P,U1,COLL*%
%TO.N,GND*%
X139930000Y-83350000D03*
%TO.P,U1,E*%
%TO.N,/A0_36*%
X142470000Y-83350000D03*
%TD*%
D13*
%TO.P,R7,1*%
%TO.N,+3V3*%
X99600000Y-78550000D03*
%TO.P,R7,2*%
%TO.N,Net-(R7-Pad2)*%
X99600000Y-75450000D03*
%TD*%
%TO.P,R2,1*%
%TO.N,/A0_36*%
X136400000Y-83950000D03*
%TO.P,R2,2*%
%TO.N,+3V3*%
X136400000Y-80850000D03*
%TD*%
D14*
%TO.P,R5,1*%
%TO.N,+3V3*%
X115100000Y-87600000D03*
%TO.P,R5,2*%
%TO.N,Net-(R5-Pad2)*%
X112000000Y-87600000D03*
%TD*%
D13*
%TO.P,R9,1*%
%TO.N,+3V3*%
X96000000Y-78550000D03*
%TO.P,R9,2*%
%TO.N,Net-(R9-Pad2)*%
X96000000Y-75450000D03*
%TD*%
D15*
%TO.P,REF\u002A\u002A,*%
%TO.N,*%
X145440000Y-90610000D03*
%TD*%
D13*
%TO.P,R4,1*%
%TO.N,/A1_39*%
X132800000Y-84000000D03*
%TO.P,R4,2*%
%TO.N,+3V3*%
X132800000Y-80900000D03*
%TD*%
%TO.P,R3,1*%
%TO.N,+3V3*%
X132800000Y-78750000D03*
%TO.P,R3,2*%
%TO.N,Net-(R3-Pad2)*%
X132800000Y-75650000D03*
%TD*%
%TO.P,R1,1*%
%TO.N,+3V3*%
X136400000Y-78750000D03*
%TO.P,R1,2*%
%TO.N,Net-(R1-Pad2)*%
X136400000Y-75650000D03*
%TD*%
%TO.P,R8,1*%
%TO.N,/A3_35*%
X99600000Y-83750000D03*
%TO.P,R8,2*%
%TO.N,+3V3*%
X99600000Y-80650000D03*
%TD*%
D14*
%TO.P,R6,1*%
%TO.N,/A2_34*%
X120350000Y-87600000D03*
%TO.P,R6,2*%
%TO.N,+3V3*%
X117250000Y-87600000D03*
%TD*%
D13*
%TO.P,R10,1*%
%TO.N,/A4_32*%
X96000000Y-83750000D03*
%TO.P,R10,2*%
%TO.N,+3V3*%
X96000000Y-80650000D03*
%TD*%
D15*
%TO.P,REF\u002A\u002A,*%
%TO.N,*%
X92550000Y-71850000D03*
%TD*%
D16*
%TO.N,*%
X142525000Y-81250000D02*
X142790000Y-80985000D01*
X142790000Y-80985000D02*
X142455000Y-81320000D01*
D17*
%TO.N,/A4_32*%
X92470000Y-83350000D02*
X92920000Y-83800000D01*
X92920000Y-83800000D02*
X95950000Y-83800000D01*
X95950000Y-83800000D02*
X96000000Y-83750000D01*
%TO.N,+3V3*%
X97800000Y-73600000D02*
X101000000Y-70400000D01*
X97800000Y-77600000D02*
X97800000Y-73600000D01*
X136350000Y-80900000D02*
X136400000Y-80850000D01*
X118000000Y-89400000D02*
X117250000Y-88650000D01*
X96850000Y-78550000D02*
X97800000Y-77600000D01*
X99600000Y-80650000D02*
X99600000Y-78550000D01*
X117250000Y-88650000D02*
X117250000Y-87600000D01*
X132800000Y-78750000D02*
X132800000Y-80900000D01*
X132400000Y-72000000D02*
X123815000Y-72000000D01*
X115100000Y-87600000D02*
X117250000Y-87600000D01*
X123815000Y-72000000D02*
X123815000Y-87985000D01*
X132800000Y-80900000D02*
X136350000Y-80900000D01*
X96000000Y-80650000D02*
X99600000Y-80650000D01*
X135550000Y-78750000D02*
X134600000Y-77800000D01*
X123815000Y-87985000D02*
X122400000Y-89400000D01*
X136400000Y-80850000D02*
X136400000Y-78750000D01*
X136400000Y-78750000D02*
X135550000Y-78750000D01*
X134600000Y-74200000D02*
X132400000Y-72000000D01*
X122215000Y-70400000D02*
X123815000Y-72000000D01*
X101000000Y-70400000D02*
X122215000Y-70400000D01*
X96000000Y-78550000D02*
X96850000Y-78550000D01*
X122400000Y-89400000D02*
X118000000Y-89400000D01*
X134600000Y-77800000D02*
X134600000Y-74200000D01*
X96000000Y-78550000D02*
X96000000Y-80650000D01*
%TO.N,Net-(R1-Pad2)*%
X142470000Y-76470000D02*
X142470000Y-77850000D01*
X141650000Y-75650000D02*
X142470000Y-76470000D01*
X136400000Y-75650000D02*
X141650000Y-75650000D01*
%TO.N,Net-(R3-Pad2)*%
X129270000Y-77850000D02*
X129270000Y-76930000D01*
X129270000Y-76930000D02*
X130550000Y-75650000D01*
X130550000Y-75650000D02*
X132800000Y-75650000D01*
%TO.N,Net-(R5-Pad2)*%
X112000000Y-77200000D02*
X112000000Y-87600000D01*
X113200000Y-76000000D02*
X112000000Y-77200000D01*
X117470000Y-77270000D02*
X116200000Y-76000000D01*
X117470000Y-77850000D02*
X117470000Y-77270000D01*
X116200000Y-76000000D02*
X113200000Y-76000000D01*
%TO.N,Net-(R7-Pad2)*%
X103270000Y-75450000D02*
X105670000Y-77850000D01*
X99600000Y-75450000D02*
X103270000Y-75450000D01*
%TO.N,Net-(R9-Pad2)*%
X94350000Y-75450000D02*
X96000000Y-75450000D01*
X92470000Y-77330000D02*
X94350000Y-75450000D01*
X92470000Y-77850000D02*
X92470000Y-77330000D01*
%TO.N,/A3_35*%
X105670000Y-83350000D02*
X104020000Y-85000000D01*
X100850000Y-85000000D02*
X99600000Y-83750000D01*
X104020000Y-85000000D02*
X100850000Y-85000000D01*
%TO.N,/A2_34*%
X118550000Y-83350000D02*
X120400000Y-85200000D01*
X120400000Y-85200000D02*
X120400000Y-87550000D01*
X120400000Y-87550000D02*
X120350000Y-87600000D01*
X117470000Y-83350000D02*
X118550000Y-83350000D01*
%TO.N,/A1_39*%
X129920000Y-84000000D02*
X132800000Y-84000000D01*
X129270000Y-83350000D02*
X129920000Y-84000000D01*
%TO.N,/A0_36*%
X142470000Y-84930000D02*
X142470000Y-83350000D01*
X141600000Y-85800000D02*
X142470000Y-84930000D01*
X137800000Y-85800000D02*
X141600000Y-85800000D01*
X136400000Y-84400000D02*
X137800000Y-85800000D01*
X136400000Y-83950000D02*
X136400000Y-84400000D01*
%TD*%
%TA.AperFunction,Conductor*%
%TO.N,GND*%
G36*
X100694557Y-69664656D02*
G01*
X100762677Y-69684659D01*
X100809169Y-69738315D01*
X100819272Y-69808589D01*
X100789779Y-69873170D01*
X100744598Y-69906292D01*
X100717939Y-69917829D01*
X100717935Y-69917832D01*
X100710054Y-69921242D01*
X100703381Y-69926646D01*
X100703379Y-69926647D01*
X100698225Y-69930821D01*
X100679637Y-69943312D01*
X100666285Y-69950652D01*
X100661281Y-69954972D01*
X100659860Y-69956198D01*
X100659853Y-69956204D01*
X100658109Y-69957710D01*
X100633366Y-69982453D01*
X100623565Y-69991279D01*
X100598662Y-70011444D01*
X100598659Y-70011447D01*
X100591987Y-70016850D01*
X100580962Y-70032364D01*
X100567355Y-70048464D01*
X97418587Y-73197232D01*
X97414779Y-73200885D01*
X97368734Y-73243226D01*
X97364211Y-73250521D01*
X97364210Y-73250522D01*
X97345619Y-73280506D01*
X97338896Y-73290288D01*
X97312370Y-73325235D01*
X97309209Y-73333219D01*
X97306763Y-73339396D01*
X97296700Y-73359402D01*
X97293206Y-73365037D01*
X97293202Y-73365046D01*
X97288677Y-73372344D01*
X97286281Y-73380591D01*
X97276435Y-73414480D01*
X97272593Y-73425702D01*
X97256444Y-73466490D01*
X97255546Y-73475035D01*
X97254852Y-73481633D01*
X97250541Y-73503605D01*
X97246291Y-73518235D01*
X97245500Y-73529007D01*
X97245500Y-73564005D01*
X97244810Y-73577175D01*
X97240563Y-73617581D01*
X97243737Y-73636346D01*
X97245500Y-73657348D01*
X97245500Y-74658423D01*
X97225498Y-74726544D01*
X97171842Y-74773037D01*
X97101568Y-74783141D01*
X97036988Y-74753647D01*
X97018674Y-74733988D01*
X96990785Y-74696776D01*
X96985404Y-74689596D01*
X96943810Y-74658423D01*
X96876946Y-74608311D01*
X96876943Y-74608309D01*
X96869764Y-74602929D01*
X96780046Y-74569296D01*
X96741843Y-74554974D01*
X96741841Y-74554974D01*
X96734448Y-74552202D01*
X96726598Y-74551349D01*
X96726597Y-74551349D01*
X96676153Y-74545869D01*
X96676152Y-74545869D01*
X96672756Y-74545500D01*
X95327244Y-74545500D01*
X95323848Y-74545869D01*
X95323847Y-74545869D01*
X95273403Y-74551349D01*
X95273402Y-74551349D01*
X95265552Y-74552202D01*
X95258159Y-74554974D01*
X95258157Y-74554974D01*
X95219954Y-74569296D01*
X95130236Y-74602929D01*
X95123057Y-74608309D01*
X95123054Y-74608311D01*
X95056190Y-74658423D01*
X95014596Y-74689596D01*
X95009215Y-74696776D01*
X94933311Y-74798054D01*
X94933309Y-74798057D01*
X94927929Y-74805236D01*
X94924779Y-74813638D01*
X94924777Y-74813642D01*
X94924744Y-74813731D01*
X94924687Y-74813806D01*
X94920467Y-74821515D01*
X94919354Y-74820906D01*
X94882102Y-74870495D01*
X94815540Y-74895194D01*
X94806763Y-74895500D01*
X94365074Y-74895500D01*
X94359798Y-74895390D01*
X94297326Y-74892772D01*
X94288961Y-74894734D01*
X94254622Y-74902788D01*
X94242949Y-74904951D01*
X94232050Y-74906444D01*
X94199482Y-74910905D01*
X94186767Y-74916407D01*
X94185506Y-74916953D01*
X94164237Y-74923987D01*
X94149417Y-74927463D01*
X94110963Y-74948603D01*
X94100317Y-74953818D01*
X94067937Y-74967830D01*
X94067933Y-74967832D01*
X94060054Y-74971242D01*
X94053381Y-74976646D01*
X94053379Y-74976647D01*
X94048225Y-74980821D01*
X94029637Y-74993312D01*
X94016285Y-75000652D01*
X94011281Y-75004972D01*
X94009860Y-75006198D01*
X94009853Y-75006204D01*
X94008109Y-75007710D01*
X93983366Y-75032453D01*
X93973565Y-75041279D01*
X93948662Y-75061444D01*
X93948659Y-75061447D01*
X93941987Y-75066850D01*
X93930962Y-75082364D01*
X93917355Y-75098464D01*
X92125360Y-76890459D01*
X92091294Y-76913005D01*
X92091887Y-76914138D01*
X91922772Y-77002549D01*
X91922768Y-77002552D01*
X91917312Y-77005404D01*
X91912512Y-77009264D01*
X91912511Y-77009264D01*
X91902725Y-77017132D01*
X91763788Y-77128840D01*
X91637163Y-77279745D01*
X91630740Y-77291429D01*
X91554736Y-77429681D01*
X91542262Y-77452371D01*
X91540398Y-77458246D01*
X91540397Y-77458249D01*
X91521402Y-77518129D01*
X91482697Y-77640142D01*
X91470377Y-77749979D01*
X91461664Y-77827656D01*
X91460738Y-77835907D01*
X91461254Y-77842050D01*
X91461254Y-77842051D01*
X91476683Y-78025787D01*
X91477222Y-78032209D01*
X91498162Y-78105236D01*
X91529060Y-78212987D01*
X91531521Y-78221570D01*
X91621566Y-78396779D01*
X91625389Y-78401603D01*
X91625392Y-78401607D01*
X91653045Y-78436496D01*
X91743927Y-78551160D01*
X91748620Y-78555154D01*
X91748621Y-78555155D01*
X91773447Y-78576283D01*
X91893945Y-78678835D01*
X91899323Y-78681841D01*
X91899325Y-78681842D01*
X91929019Y-78698437D01*
X92065904Y-78774940D01*
X92253255Y-78835814D01*
X92448862Y-78859139D01*
X92454997Y-78858667D01*
X92454999Y-78858667D01*
X92514801Y-78854065D01*
X92645274Y-78844026D01*
X92835009Y-78791050D01*
X92840513Y-78788270D01*
X93005341Y-78705010D01*
X93005343Y-78705009D01*
X93010842Y-78702231D01*
X93166074Y-78580950D01*
X93170100Y-78576286D01*
X93170103Y-78576283D01*
X93290764Y-78436496D01*
X93290765Y-78436494D01*
X93294793Y-78431828D01*
X93392096Y-78260544D01*
X93454277Y-78073622D01*
X93478966Y-77878183D01*
X93479258Y-77857325D01*
X93479311Y-77853522D01*
X93479311Y-77853518D01*
X93479360Y-77850000D01*
X93460137Y-77653948D01*
X93403200Y-77465363D01*
X93348252Y-77362021D01*
X93333932Y-77292485D01*
X93359479Y-77226244D01*
X93370408Y-77213773D01*
X94542777Y-76041405D01*
X94605089Y-76007379D01*
X94631872Y-76004500D01*
X94806763Y-76004500D01*
X94874884Y-76024502D01*
X94921377Y-76078158D01*
X94924744Y-76086269D01*
X94924777Y-76086358D01*
X94924779Y-76086362D01*
X94927929Y-76094764D01*
X94933309Y-76101943D01*
X94933311Y-76101946D01*
X94969047Y-76149628D01*
X95014596Y-76210404D01*
X95021776Y-76215785D01*
X95123054Y-76291689D01*
X95123057Y-76291691D01*
X95130236Y-76297071D01*
X95209974Y-76326963D01*
X95258157Y-76345026D01*
X95258159Y-76345026D01*
X95265552Y-76347798D01*
X95273402Y-76348651D01*
X95273403Y-76348651D01*
X95309119Y-76352531D01*
X95327244Y-76354500D01*
X96672756Y-76354500D01*
X96690881Y-76352531D01*
X96726597Y-76348651D01*
X96726598Y-76348651D01*
X96734448Y-76347798D01*
X96741841Y-76345026D01*
X96741843Y-76345026D01*
X96790026Y-76326963D01*
X96869764Y-76297071D01*
X96876943Y-76291691D01*
X96876946Y-76291689D01*
X96978224Y-76215785D01*
X96985404Y-76210404D01*
X97018674Y-76166012D01*
X97075533Y-76123497D01*
X97146352Y-76118471D01*
X97208645Y-76152531D01*
X97242635Y-76214862D01*
X97245500Y-76241577D01*
X97245500Y-77318129D01*
X97225498Y-77386250D01*
X97208595Y-77407224D01*
X96958494Y-77657325D01*
X96896182Y-77691351D01*
X96825171Y-77686212D01*
X96748114Y-77657325D01*
X96741843Y-77654974D01*
X96741841Y-77654974D01*
X96734448Y-77652202D01*
X96726598Y-77651349D01*
X96726597Y-77651349D01*
X96676153Y-77645869D01*
X96676152Y-77645869D01*
X96672756Y-77645500D01*
X95327244Y-77645500D01*
X95323848Y-77645869D01*
X95323847Y-77645869D01*
X95273403Y-77651349D01*
X95273402Y-77651349D01*
X95265552Y-77652202D01*
X95258159Y-77654974D01*
X95258157Y-77654974D01*
X95251886Y-77657325D01*
X95130236Y-77702929D01*
X95123057Y-77708309D01*
X95123054Y-77708311D01*
X95072418Y-77746261D01*
X95014596Y-77789596D01*
X95009216Y-77796775D01*
X95009215Y-77796776D01*
X94933311Y-77898054D01*
X94933309Y-77898057D01*
X94927929Y-77905236D01*
X94901846Y-77974814D01*
X94880330Y-78032209D01*
X94877202Y-78040552D01*
X94870500Y-78102244D01*
X94870500Y-78997756D01*
X94877202Y-79059448D01*
X94927929Y-79194764D01*
X94933309Y-79201943D01*
X94933311Y-79201946D01*
X94981949Y-79266843D01*
X95014596Y-79310404D01*
X95021776Y-79315785D01*
X95123054Y-79391689D01*
X95123057Y-79391691D01*
X95130236Y-79397071D01*
X95197733Y-79422374D01*
X95258157Y-79445026D01*
X95258159Y-79445026D01*
X95265552Y-79447798D01*
X95273402Y-79448651D01*
X95273403Y-79448651D01*
X95281714Y-79449554D01*
X95327244Y-79454500D01*
X95327234Y-79454588D01*
X95393261Y-79477927D01*
X95436780Y-79534022D01*
X95445500Y-79580081D01*
X95445500Y-79619919D01*
X95425498Y-79688040D01*
X95371842Y-79734533D01*
X95327274Y-79745500D01*
X95327244Y-79745500D01*
X95281714Y-79750446D01*
X95273403Y-79751349D01*
X95273402Y-79751349D01*
X95265552Y-79752202D01*
X95258159Y-79754974D01*
X95258157Y-79754974D01*
X95219954Y-79769296D01*
X95130236Y-79802929D01*
X95123057Y-79808309D01*
X95123054Y-79808311D01*
X95040851Y-79869919D01*
X95014596Y-79889596D01*
X95009215Y-79896776D01*
X94933311Y-79998054D01*
X94933309Y-79998057D01*
X94927929Y-80005236D01*
X94877202Y-80140552D01*
X94870500Y-80202244D01*
X94870500Y-81097756D01*
X94877202Y-81159448D01*
X94927929Y-81294764D01*
X94933309Y-81301943D01*
X94933311Y-81301946D01*
X94962558Y-81340970D01*
X95014596Y-81410404D01*
X95021776Y-81415785D01*
X95123054Y-81491689D01*
X95123057Y-81491691D01*
X95130236Y-81497071D01*
X95219954Y-81530704D01*
X95258157Y-81545026D01*
X95258159Y-81545026D01*
X95265552Y-81547798D01*
X95273402Y-81548651D01*
X95273403Y-81548651D01*
X95303734Y-81551946D01*
X95327244Y-81554500D01*
X96672756Y-81554500D01*
X96696266Y-81551946D01*
X96726597Y-81548651D01*
X96726598Y-81548651D01*
X96734448Y-81547798D01*
X96741841Y-81545026D01*
X96741843Y-81545026D01*
X96780046Y-81530704D01*
X96869764Y-81497071D01*
X96876943Y-81491691D01*
X96876946Y-81491689D01*
X96978224Y-81415785D01*
X96985404Y-81410404D01*
X97037442Y-81340970D01*
X97066689Y-81301946D01*
X97066691Y-81301943D01*
X97072071Y-81294764D01*
X97075221Y-81286362D01*
X97075223Y-81286358D01*
X97075256Y-81286269D01*
X97075313Y-81286194D01*
X97079533Y-81278485D01*
X97080646Y-81279094D01*
X97117898Y-81229505D01*
X97184460Y-81204806D01*
X97193237Y-81204500D01*
X98406763Y-81204500D01*
X98474884Y-81224502D01*
X98521377Y-81278158D01*
X98524744Y-81286269D01*
X98524777Y-81286358D01*
X98524779Y-81286362D01*
X98527929Y-81294764D01*
X98533309Y-81301943D01*
X98533311Y-81301946D01*
X98562558Y-81340970D01*
X98614596Y-81410404D01*
X98621776Y-81415785D01*
X98723054Y-81491689D01*
X98723057Y-81491691D01*
X98730236Y-81497071D01*
X98819954Y-81530704D01*
X98858157Y-81545026D01*
X98858159Y-81545026D01*
X98865552Y-81547798D01*
X98873402Y-81548651D01*
X98873403Y-81548651D01*
X98903734Y-81551946D01*
X98927244Y-81554500D01*
X100272756Y-81554500D01*
X100296266Y-81551946D01*
X100326597Y-81548651D01*
X100326598Y-81548651D01*
X100334448Y-81547798D01*
X100341841Y-81545026D01*
X100341843Y-81545026D01*
X100380046Y-81530704D01*
X100469764Y-81497071D01*
X100476943Y-81491691D01*
X100476946Y-81491689D01*
X100578224Y-81415785D01*
X100585404Y-81410404D01*
X100637442Y-81340970D01*
X100666689Y-81301946D01*
X100666691Y-81301943D01*
X100672071Y-81294764D01*
X100722798Y-81159448D01*
X100729500Y-81097756D01*
X100729500Y-80652677D01*
X100991524Y-80652677D01*
X101019351Y-80893176D01*
X101085271Y-81126133D01*
X101087406Y-81130712D01*
X101087407Y-81130714D01*
X101141849Y-81247465D01*
X101187589Y-81345553D01*
X101190430Y-81349734D01*
X101190431Y-81349735D01*
X101225172Y-81400854D01*
X101224556Y-81401272D01*
X101225720Y-81402420D01*
X101225905Y-81402281D01*
X101225935Y-81402321D01*
X101226597Y-81403203D01*
X101226797Y-81403482D01*
X101226834Y-81403519D01*
X101228393Y-81405595D01*
X101229809Y-81407679D01*
X101229898Y-81407820D01*
X101230035Y-81408011D01*
X101323671Y-81545793D01*
X101327148Y-81549470D01*
X101327153Y-81549476D01*
X101372137Y-81597044D01*
X101371584Y-81597567D01*
X101373601Y-81598994D01*
X101374083Y-81599636D01*
X101377809Y-81603197D01*
X101378140Y-81603570D01*
X101381516Y-81606963D01*
X101423972Y-81651858D01*
X101490018Y-81721699D01*
X101494035Y-81724770D01*
X101494038Y-81724773D01*
X101548578Y-81766472D01*
X101549084Y-81766870D01*
X101552468Y-81770104D01*
X101556740Y-81773018D01*
X101557645Y-81773636D01*
X101563166Y-81777626D01*
X101678327Y-81865674D01*
X101678338Y-81865681D01*
X101682348Y-81868747D01*
X101746786Y-81903298D01*
X101749421Y-81904754D01*
X101752029Y-81906236D01*
X101756300Y-81909149D01*
X101760986Y-81911324D01*
X101760989Y-81911326D01*
X101763427Y-81912458D01*
X101769912Y-81915699D01*
X101895715Y-81983153D01*
X101900500Y-81984801D01*
X101900501Y-81984801D01*
X101967084Y-82007727D01*
X101970543Y-82009121D01*
X101970561Y-82009071D01*
X101975403Y-82010853D01*
X101980104Y-82013035D01*
X101988723Y-82015425D01*
X101996036Y-82017697D01*
X102124629Y-82061975D01*
X102129618Y-82062837D01*
X102129619Y-82062837D01*
X102203145Y-82075537D01*
X102208988Y-82076848D01*
X102212888Y-82077592D01*
X102217871Y-82078974D01*
X102227403Y-82079993D01*
X102235428Y-82081113D01*
X102363200Y-82103183D01*
X102367161Y-82103363D01*
X102367162Y-82103363D01*
X102390784Y-82104436D01*
X102390803Y-82104436D01*
X102392203Y-82104500D01*
X102560841Y-82104500D01*
X102563349Y-82104298D01*
X102563354Y-82104298D01*
X102736283Y-82090385D01*
X102736288Y-82090384D01*
X102741324Y-82089979D01*
X102746232Y-82088774D01*
X102746235Y-82088773D01*
X102971525Y-82033436D01*
X102976439Y-82032229D01*
X102981091Y-82030254D01*
X102981095Y-82030253D01*
X103194642Y-81939607D01*
X103194643Y-81939607D01*
X103199297Y-81937631D01*
X103404163Y-81808620D01*
X103585768Y-81648514D01*
X103739439Y-81461432D01*
X103836690Y-81294339D01*
X103858680Y-81256556D01*
X103858681Y-81256554D01*
X103861222Y-81252188D01*
X103899835Y-81151597D01*
X103946169Y-81030894D01*
X103946170Y-81030891D01*
X103947984Y-81026165D01*
X103997493Y-80789177D01*
X104000578Y-80721254D01*
X104003148Y-80664657D01*
X104003692Y-80652677D01*
X104791524Y-80652677D01*
X104819351Y-80893176D01*
X104885271Y-81126133D01*
X104887406Y-81130712D01*
X104887407Y-81130714D01*
X104941849Y-81247465D01*
X104987589Y-81345553D01*
X104990430Y-81349734D01*
X104990431Y-81349735D01*
X105025172Y-81400854D01*
X105024556Y-81401272D01*
X105025720Y-81402420D01*
X105025905Y-81402281D01*
X105025935Y-81402321D01*
X105026597Y-81403203D01*
X105026797Y-81403482D01*
X105026834Y-81403519D01*
X105028393Y-81405595D01*
X105029809Y-81407679D01*
X105029898Y-81407820D01*
X105030035Y-81408011D01*
X105123671Y-81545793D01*
X105127148Y-81549470D01*
X105127153Y-81549476D01*
X105172137Y-81597044D01*
X105171584Y-81597567D01*
X105173601Y-81598994D01*
X105174083Y-81599636D01*
X105177809Y-81603197D01*
X105178140Y-81603570D01*
X105181516Y-81606963D01*
X105223972Y-81651858D01*
X105290018Y-81721699D01*
X105294035Y-81724770D01*
X105294038Y-81724773D01*
X105348578Y-81766472D01*
X105349084Y-81766870D01*
X105352468Y-81770104D01*
X105356740Y-81773018D01*
X105357645Y-81773636D01*
X105363166Y-81777626D01*
X105478327Y-81865674D01*
X105478338Y-81865681D01*
X105482348Y-81868747D01*
X105546786Y-81903298D01*
X105549421Y-81904754D01*
X105552029Y-81906236D01*
X105556300Y-81909149D01*
X105560986Y-81911324D01*
X105560989Y-81911326D01*
X105563427Y-81912458D01*
X105569912Y-81915699D01*
X105695715Y-81983153D01*
X105700500Y-81984801D01*
X105700501Y-81984801D01*
X105767084Y-82007727D01*
X105770543Y-82009121D01*
X105770561Y-82009071D01*
X105775403Y-82010853D01*
X105780104Y-82013035D01*
X105788723Y-82015425D01*
X105796036Y-82017697D01*
X105924629Y-82061975D01*
X105929618Y-82062837D01*
X105929619Y-82062837D01*
X106003145Y-82075537D01*
X106008988Y-82076848D01*
X106012888Y-82077592D01*
X106017871Y-82078974D01*
X106027403Y-82079993D01*
X106035428Y-82081113D01*
X106163200Y-82103183D01*
X106167161Y-82103363D01*
X106167162Y-82103363D01*
X106190784Y-82104436D01*
X106190803Y-82104436D01*
X106192203Y-82104500D01*
X106360841Y-82104500D01*
X106363349Y-82104298D01*
X106363354Y-82104298D01*
X106536283Y-82090385D01*
X106536288Y-82090384D01*
X106541324Y-82089979D01*
X106546232Y-82088774D01*
X106546235Y-82088773D01*
X106771525Y-82033436D01*
X106776439Y-82032229D01*
X106781091Y-82030254D01*
X106781095Y-82030253D01*
X106994642Y-81939607D01*
X106994643Y-81939607D01*
X106999297Y-81937631D01*
X107204163Y-81808620D01*
X107385768Y-81648514D01*
X107539439Y-81461432D01*
X107636690Y-81294339D01*
X107658680Y-81256556D01*
X107658681Y-81256554D01*
X107661222Y-81252188D01*
X107699835Y-81151597D01*
X107746169Y-81030894D01*
X107746170Y-81030891D01*
X107747984Y-81026165D01*
X107797493Y-80789177D01*
X107800578Y-80721254D01*
X107803148Y-80664657D01*
X107808476Y-80547323D01*
X107780649Y-80306824D01*
X107768455Y-80263729D01*
X107716107Y-80078736D01*
X107716106Y-80078734D01*
X107714729Y-80073867D01*
X107704966Y-80052929D01*
X107614548Y-79859030D01*
X107612411Y-79854447D01*
X107588946Y-79819919D01*
X107574828Y-79799146D01*
X107575444Y-79798728D01*
X107574280Y-79797580D01*
X107574095Y-79797719D01*
X107573991Y-79797580D01*
X107573403Y-79796797D01*
X107573203Y-79796518D01*
X107573166Y-79796481D01*
X107571607Y-79794405D01*
X107570191Y-79792321D01*
X107570102Y-79792180D01*
X107569965Y-79791989D01*
X107476329Y-79654207D01*
X107472852Y-79650530D01*
X107472847Y-79650524D01*
X107427863Y-79602956D01*
X107428416Y-79602433D01*
X107426399Y-79601006D01*
X107425917Y-79600364D01*
X107422191Y-79596803D01*
X107421860Y-79596430D01*
X107418484Y-79593037D01*
X107313458Y-79481977D01*
X107309982Y-79478301D01*
X107305965Y-79475230D01*
X107305962Y-79475227D01*
X107251422Y-79433528D01*
X107250916Y-79433130D01*
X107247532Y-79429896D01*
X107243260Y-79426982D01*
X107242355Y-79426364D01*
X107236834Y-79422374D01*
X107121673Y-79334326D01*
X107121662Y-79334319D01*
X107117652Y-79331253D01*
X107053214Y-79296702D01*
X107050579Y-79295246D01*
X107047971Y-79293764D01*
X107043700Y-79290851D01*
X107039014Y-79288676D01*
X107039011Y-79288674D01*
X107036573Y-79287542D01*
X107030081Y-79284298D01*
X106997528Y-79266843D01*
X106904285Y-79216847D01*
X106832913Y-79192272D01*
X106829457Y-79190879D01*
X106829439Y-79190929D01*
X106824597Y-79189147D01*
X106819896Y-79186965D01*
X106811277Y-79184575D01*
X106803964Y-79182303D01*
X106675371Y-79138025D01*
X106670382Y-79137163D01*
X106670381Y-79137163D01*
X106596855Y-79124463D01*
X106591012Y-79123152D01*
X106587112Y-79122408D01*
X106582129Y-79121026D01*
X106572597Y-79120007D01*
X106564572Y-79118887D01*
X106436800Y-79096817D01*
X106432839Y-79096637D01*
X106432838Y-79096637D01*
X106409216Y-79095564D01*
X106409197Y-79095564D01*
X106407797Y-79095500D01*
X106239159Y-79095500D01*
X106236651Y-79095702D01*
X106236646Y-79095702D01*
X106063717Y-79109615D01*
X106063712Y-79109616D01*
X106058676Y-79110021D01*
X106053768Y-79111226D01*
X106053765Y-79111227D01*
X105937951Y-79139674D01*
X105823561Y-79167771D01*
X105818909Y-79169746D01*
X105818905Y-79169747D01*
X105702308Y-79219240D01*
X105600703Y-79262369D01*
X105395837Y-79391380D01*
X105214232Y-79551486D01*
X105060561Y-79738568D01*
X105036400Y-79780081D01*
X104946507Y-79934533D01*
X104938778Y-79947812D01*
X104936965Y-79952535D01*
X104867225Y-80134215D01*
X104852016Y-80173835D01*
X104802507Y-80410823D01*
X104802278Y-80415873D01*
X104802277Y-80415878D01*
X104798589Y-80497106D01*
X104791524Y-80652677D01*
X104003692Y-80652677D01*
X104008476Y-80547323D01*
X103980649Y-80306824D01*
X103968455Y-80263729D01*
X103916107Y-80078736D01*
X103916106Y-80078734D01*
X103914729Y-80073867D01*
X103904966Y-80052929D01*
X103814548Y-79859030D01*
X103812411Y-79854447D01*
X103788946Y-79819919D01*
X103774828Y-79799146D01*
X103775444Y-79798728D01*
X103774280Y-79797580D01*
X103774095Y-79797719D01*
X103773991Y-79797580D01*
X103773403Y-79796797D01*
X103773203Y-79796518D01*
X103773166Y-79796481D01*
X103771607Y-79794405D01*
X103770191Y-79792321D01*
X103770102Y-79792180D01*
X103769965Y-79791989D01*
X103676329Y-79654207D01*
X103672852Y-79650530D01*
X103672847Y-79650524D01*
X103627863Y-79602956D01*
X103628416Y-79602433D01*
X103626399Y-79601006D01*
X103625917Y-79600364D01*
X103622191Y-79596803D01*
X103621860Y-79596430D01*
X103618484Y-79593037D01*
X103513458Y-79481977D01*
X103509982Y-79478301D01*
X103505965Y-79475230D01*
X103505962Y-79475227D01*
X103451422Y-79433528D01*
X103450916Y-79433130D01*
X103447532Y-79429896D01*
X103443260Y-79426982D01*
X103442355Y-79426364D01*
X103436834Y-79422374D01*
X103321673Y-79334326D01*
X103321662Y-79334319D01*
X103317652Y-79331253D01*
X103253214Y-79296702D01*
X103250579Y-79295246D01*
X103247971Y-79293764D01*
X103243700Y-79290851D01*
X103239014Y-79288676D01*
X103239011Y-79288674D01*
X103236573Y-79287542D01*
X103230081Y-79284298D01*
X103197528Y-79266843D01*
X103104285Y-79216847D01*
X103032913Y-79192272D01*
X103029457Y-79190879D01*
X103029439Y-79190929D01*
X103024597Y-79189147D01*
X103019896Y-79186965D01*
X103011277Y-79184575D01*
X103003964Y-79182303D01*
X102875371Y-79138025D01*
X102870382Y-79137163D01*
X102870381Y-79137163D01*
X102796855Y-79124463D01*
X102791012Y-79123152D01*
X102787112Y-79122408D01*
X102782129Y-79121026D01*
X102772597Y-79120007D01*
X102764572Y-79118887D01*
X102636800Y-79096817D01*
X102632839Y-79096637D01*
X102632838Y-79096637D01*
X102609216Y-79095564D01*
X102609197Y-79095564D01*
X102607797Y-79095500D01*
X102439159Y-79095500D01*
X102436651Y-79095702D01*
X102436646Y-79095702D01*
X102263717Y-79109615D01*
X102263712Y-79109616D01*
X102258676Y-79110021D01*
X102253768Y-79111226D01*
X102253765Y-79111227D01*
X102137951Y-79139674D01*
X102023561Y-79167771D01*
X102018909Y-79169746D01*
X102018905Y-79169747D01*
X101902308Y-79219240D01*
X101800703Y-79262369D01*
X101595837Y-79391380D01*
X101414232Y-79551486D01*
X101260561Y-79738568D01*
X101236400Y-79780081D01*
X101146507Y-79934533D01*
X101138778Y-79947812D01*
X101136965Y-79952535D01*
X101067225Y-80134215D01*
X101052016Y-80173835D01*
X101002507Y-80410823D01*
X101002278Y-80415873D01*
X101002277Y-80415878D01*
X100998589Y-80497106D01*
X100991524Y-80652677D01*
X100729500Y-80652677D01*
X100729500Y-80202244D01*
X100722798Y-80140552D01*
X100672071Y-80005236D01*
X100666691Y-79998057D01*
X100666689Y-79998054D01*
X100590785Y-79896776D01*
X100585404Y-79889596D01*
X100559149Y-79869919D01*
X100476946Y-79808311D01*
X100476943Y-79808309D01*
X100469764Y-79802929D01*
X100380046Y-79769296D01*
X100341843Y-79754974D01*
X100341841Y-79754974D01*
X100334448Y-79752202D01*
X100326598Y-79751349D01*
X100326597Y-79751349D01*
X100318286Y-79750446D01*
X100272756Y-79745500D01*
X100272766Y-79745412D01*
X100206739Y-79722073D01*
X100163220Y-79665978D01*
X100154500Y-79619919D01*
X100154500Y-79580081D01*
X100174502Y-79511960D01*
X100228158Y-79465467D01*
X100272726Y-79454500D01*
X100272756Y-79454500D01*
X100318286Y-79449554D01*
X100326597Y-79448651D01*
X100326598Y-79448651D01*
X100334448Y-79447798D01*
X100341841Y-79445026D01*
X100341843Y-79445026D01*
X100402267Y-79422374D01*
X100469764Y-79397071D01*
X100476943Y-79391691D01*
X100476946Y-79391689D01*
X100578224Y-79315785D01*
X100585404Y-79310404D01*
X100618051Y-79266843D01*
X100666689Y-79201946D01*
X100666691Y-79201943D01*
X100672071Y-79194764D01*
X100722798Y-79059448D01*
X100729500Y-78997756D01*
X100729500Y-78102244D01*
X100722798Y-78040552D01*
X100719671Y-78032209D01*
X100698154Y-77974814D01*
X100672071Y-77905236D01*
X100666691Y-77898057D01*
X100666689Y-77898054D01*
X100590785Y-77796776D01*
X100590784Y-77796775D01*
X100585404Y-77789596D01*
X100527582Y-77746261D01*
X100476946Y-77708311D01*
X100476943Y-77708309D01*
X100469764Y-77702929D01*
X100348114Y-77657325D01*
X100341843Y-77654974D01*
X100341841Y-77654974D01*
X100334448Y-77652202D01*
X100326598Y-77651349D01*
X100326597Y-77651349D01*
X100276153Y-77645869D01*
X100276152Y-77645869D01*
X100272756Y-77645500D01*
X98927244Y-77645500D01*
X98923848Y-77645869D01*
X98923847Y-77645869D01*
X98873403Y-77651349D01*
X98873402Y-77651349D01*
X98865552Y-77652202D01*
X98858159Y-77654974D01*
X98858157Y-77654974D01*
X98851886Y-77657325D01*
X98730236Y-77702929D01*
X98723057Y-77708309D01*
X98723054Y-77708311D01*
X98672418Y-77746261D01*
X98614596Y-77789596D01*
X98557388Y-77865928D01*
X98500531Y-77908443D01*
X98464097Y-77911029D01*
X98488049Y-77955590D01*
X98482737Y-78025787D01*
X98477202Y-78040552D01*
X98470500Y-78102244D01*
X98470500Y-78997756D01*
X98477202Y-79059448D01*
X98527929Y-79194764D01*
X98533309Y-79201943D01*
X98533311Y-79201946D01*
X98581949Y-79266843D01*
X98614596Y-79310404D01*
X98621776Y-79315785D01*
X98723054Y-79391689D01*
X98723057Y-79391691D01*
X98730236Y-79397071D01*
X98797733Y-79422374D01*
X98858157Y-79445026D01*
X98858159Y-79445026D01*
X98865552Y-79447798D01*
X98873402Y-79448651D01*
X98873403Y-79448651D01*
X98881714Y-79449554D01*
X98927244Y-79454500D01*
X98927234Y-79454588D01*
X98993261Y-79477927D01*
X99036780Y-79534022D01*
X99045500Y-79580081D01*
X99045500Y-79619919D01*
X99025498Y-79688040D01*
X98971842Y-79734533D01*
X98927274Y-79745500D01*
X98927244Y-79745500D01*
X98881714Y-79750446D01*
X98873403Y-79751349D01*
X98873402Y-79751349D01*
X98865552Y-79752202D01*
X98858159Y-79754974D01*
X98858157Y-79754974D01*
X98819954Y-79769296D01*
X98730236Y-79802929D01*
X98723057Y-79808309D01*
X98723054Y-79808311D01*
X98640851Y-79869919D01*
X98614596Y-79889596D01*
X98609215Y-79896776D01*
X98533311Y-79998054D01*
X98533309Y-79998057D01*
X98527929Y-80005236D01*
X98524779Y-80013638D01*
X98524777Y-80013642D01*
X98524744Y-80013731D01*
X98524687Y-80013806D01*
X98520467Y-80021515D01*
X98519354Y-80020906D01*
X98482102Y-80070495D01*
X98415540Y-80095194D01*
X98406763Y-80095500D01*
X97193237Y-80095500D01*
X97125116Y-80075498D01*
X97078623Y-80021842D01*
X97075256Y-80013731D01*
X97075223Y-80013642D01*
X97075221Y-80013638D01*
X97072071Y-80005236D01*
X97066691Y-79998057D01*
X97066689Y-79998054D01*
X96990785Y-79896776D01*
X96985404Y-79889596D01*
X96959149Y-79869919D01*
X96876946Y-79808311D01*
X96876943Y-79808309D01*
X96869764Y-79802929D01*
X96780046Y-79769296D01*
X96741843Y-79754974D01*
X96741841Y-79754974D01*
X96734448Y-79752202D01*
X96726598Y-79751349D01*
X96726597Y-79751349D01*
X96718286Y-79750446D01*
X96672756Y-79745500D01*
X96672766Y-79745412D01*
X96606739Y-79722073D01*
X96563220Y-79665978D01*
X96554500Y-79619919D01*
X96554500Y-79580081D01*
X96574502Y-79511960D01*
X96628158Y-79465467D01*
X96672726Y-79454500D01*
X96672756Y-79454500D01*
X96718286Y-79449554D01*
X96726597Y-79448651D01*
X96726598Y-79448651D01*
X96734448Y-79447798D01*
X96741841Y-79445026D01*
X96741843Y-79445026D01*
X96802267Y-79422374D01*
X96869764Y-79397071D01*
X96876943Y-79391691D01*
X96876946Y-79391689D01*
X96978224Y-79315785D01*
X96985404Y-79310404D01*
X97018051Y-79266843D01*
X97066689Y-79201946D01*
X97066691Y-79201943D01*
X97072071Y-79194764D01*
X97118981Y-79069630D01*
X97161622Y-79012865D01*
X97176259Y-79003447D01*
X97183715Y-78999348D01*
X97189245Y-78994574D01*
X97190140Y-78993802D01*
X97190147Y-78993796D01*
X97191891Y-78992290D01*
X97216634Y-78967547D01*
X97226435Y-78958721D01*
X97251338Y-78938556D01*
X97251341Y-78938553D01*
X97258013Y-78933150D01*
X97269038Y-78917636D01*
X97282645Y-78901536D01*
X98181413Y-78002768D01*
X98185221Y-77999115D01*
X98224948Y-77962584D01*
X98224949Y-77962583D01*
X98231266Y-77956774D01*
X98254381Y-77919494D01*
X98261100Y-77909718D01*
X98264387Y-77905387D01*
X98321502Y-77863216D01*
X98357321Y-77860892D01*
X98333428Y-77817078D01*
X98338919Y-77749979D01*
X98338345Y-77749838D01*
X98339224Y-77746261D01*
X98339410Y-77743983D01*
X98340393Y-77741500D01*
X98340394Y-77741497D01*
X98343556Y-77733510D01*
X98345148Y-77718367D01*
X98349459Y-77696394D01*
X98351867Y-77688104D01*
X98353709Y-77681765D01*
X98354500Y-77670993D01*
X98354500Y-77635995D01*
X98355190Y-77622824D01*
X98358539Y-77590963D01*
X98359437Y-77582419D01*
X98356263Y-77563654D01*
X98354500Y-77542652D01*
X98354500Y-76241577D01*
X98374502Y-76173456D01*
X98428158Y-76126963D01*
X98498432Y-76116859D01*
X98563012Y-76146353D01*
X98581326Y-76166012D01*
X98614596Y-76210404D01*
X98621776Y-76215785D01*
X98723054Y-76291689D01*
X98723057Y-76291691D01*
X98730236Y-76297071D01*
X98809974Y-76326963D01*
X98858157Y-76345026D01*
X98858159Y-76345026D01*
X98865552Y-76347798D01*
X98873402Y-76348651D01*
X98873403Y-76348651D01*
X98909119Y-76352531D01*
X98927244Y-76354500D01*
X100272756Y-76354500D01*
X100290881Y-76352531D01*
X100326597Y-76348651D01*
X100326598Y-76348651D01*
X100334448Y-76347798D01*
X100341841Y-76345026D01*
X100341843Y-76345026D01*
X100390026Y-76326963D01*
X100469764Y-76297071D01*
X100476943Y-76291691D01*
X100476946Y-76291689D01*
X100578224Y-76215785D01*
X100585404Y-76210404D01*
X100630953Y-76149628D01*
X100666689Y-76101946D01*
X100666691Y-76101943D01*
X100672071Y-76094764D01*
X100675221Y-76086362D01*
X100675223Y-76086358D01*
X100675256Y-76086269D01*
X100675313Y-76086194D01*
X100679533Y-76078485D01*
X100680646Y-76079094D01*
X100717898Y-76029505D01*
X100784460Y-76004806D01*
X100793237Y-76004500D01*
X102988129Y-76004500D01*
X103056250Y-76024502D01*
X103077224Y-76041405D01*
X104639138Y-77603319D01*
X104673164Y-77665631D01*
X104675258Y-77706459D01*
X104661425Y-77829781D01*
X104660738Y-77835907D01*
X104661934Y-77850152D01*
X104676683Y-78025787D01*
X104677222Y-78032209D01*
X104698162Y-78105236D01*
X104729060Y-78212987D01*
X104731521Y-78221570D01*
X104821566Y-78396779D01*
X104825389Y-78401603D01*
X104825392Y-78401607D01*
X104853045Y-78436496D01*
X104943927Y-78551160D01*
X104948620Y-78555154D01*
X104948621Y-78555155D01*
X104973447Y-78576283D01*
X105093945Y-78678835D01*
X105099323Y-78681841D01*
X105099325Y-78681842D01*
X105129019Y-78698437D01*
X105265904Y-78774940D01*
X105453255Y-78835814D01*
X105648862Y-78859139D01*
X105654997Y-78858667D01*
X105654999Y-78858667D01*
X105714801Y-78854065D01*
X105845274Y-78844026D01*
X106035009Y-78791050D01*
X106040513Y-78788270D01*
X106205341Y-78705010D01*
X106205343Y-78705009D01*
X106210842Y-78702231D01*
X106366074Y-78580950D01*
X106370100Y-78576286D01*
X106370103Y-78576283D01*
X106490764Y-78436496D01*
X106490765Y-78436494D01*
X106494793Y-78431828D01*
X106592096Y-78260544D01*
X106654277Y-78073622D01*
X106678966Y-77878183D01*
X106679258Y-77857325D01*
X106679311Y-77853522D01*
X106679311Y-77853518D01*
X106679360Y-77850000D01*
X106660137Y-77653948D01*
X106603200Y-77465363D01*
X106593418Y-77446966D01*
X106513611Y-77296871D01*
X106513609Y-77296868D01*
X106510717Y-77291429D01*
X106386212Y-77138770D01*
X106289189Y-77058506D01*
X106239177Y-77017132D01*
X106239174Y-77017130D01*
X106234427Y-77013203D01*
X106061143Y-76919508D01*
X105872960Y-76861256D01*
X105866835Y-76860612D01*
X105866834Y-76860612D01*
X105683176Y-76841309D01*
X105683174Y-76841309D01*
X105677047Y-76840665D01*
X105522995Y-76854685D01*
X105453343Y-76840940D01*
X105422481Y-76818299D01*
X103672767Y-75068586D01*
X103669114Y-75064778D01*
X103632584Y-75025052D01*
X103632583Y-75025051D01*
X103626774Y-75018734D01*
X103611645Y-75009353D01*
X103589494Y-74995619D01*
X103579712Y-74988896D01*
X103551605Y-74967562D01*
X103551606Y-74967562D01*
X103544765Y-74962370D01*
X103535053Y-74958525D01*
X103530604Y-74956763D01*
X103510598Y-74946700D01*
X103504963Y-74943206D01*
X103504954Y-74943202D01*
X103497656Y-74938677D01*
X103455521Y-74926435D01*
X103444298Y-74922593D01*
X103403510Y-74906444D01*
X103389308Y-74904951D01*
X103388367Y-74904852D01*
X103366394Y-74900541D01*
X103351765Y-74896291D01*
X103340993Y-74895500D01*
X103305995Y-74895500D01*
X103292824Y-74894810D01*
X103282607Y-74893736D01*
X103273435Y-74892772D01*
X103260963Y-74891461D01*
X103252419Y-74890563D01*
X103233654Y-74893737D01*
X103212652Y-74895500D01*
X100793237Y-74895500D01*
X100725116Y-74875498D01*
X100678623Y-74821842D01*
X100675256Y-74813731D01*
X100675223Y-74813642D01*
X100675221Y-74813638D01*
X100672071Y-74805236D01*
X100666691Y-74798057D01*
X100666689Y-74798054D01*
X100590785Y-74696776D01*
X100585404Y-74689596D01*
X100543810Y-74658423D01*
X100476946Y-74608311D01*
X100476943Y-74608309D01*
X100469764Y-74602929D01*
X100380046Y-74569296D01*
X100341843Y-74554974D01*
X100341841Y-74554974D01*
X100334448Y-74552202D01*
X100326598Y-74551349D01*
X100326597Y-74551349D01*
X100276153Y-74545869D01*
X100276152Y-74545869D01*
X100272756Y-74545500D01*
X98927244Y-74545500D01*
X98923848Y-74545869D01*
X98923847Y-74545869D01*
X98873403Y-74551349D01*
X98873402Y-74551349D01*
X98865552Y-74552202D01*
X98858159Y-74554974D01*
X98858157Y-74554974D01*
X98819954Y-74569296D01*
X98730236Y-74602929D01*
X98723057Y-74608309D01*
X98723054Y-74608311D01*
X98656190Y-74658423D01*
X98614596Y-74689596D01*
X98609215Y-74696776D01*
X98581326Y-74733988D01*
X98524467Y-74776503D01*
X98453648Y-74781529D01*
X98391355Y-74747469D01*
X98357365Y-74685138D01*
X98354500Y-74658423D01*
X98354500Y-73881871D01*
X98374502Y-73813750D01*
X98391405Y-73792776D01*
X101192777Y-70991405D01*
X101255089Y-70957379D01*
X101281872Y-70954500D01*
X107350870Y-70954500D01*
X107418991Y-70974502D01*
X107465484Y-71028158D01*
X107474449Y-71105079D01*
X107470500Y-71124933D01*
X107470501Y-72875066D01*
X107485266Y-72949301D01*
X107492161Y-72959620D01*
X107492162Y-72959622D01*
X107532516Y-73020015D01*
X107541516Y-73033484D01*
X107625699Y-73089734D01*
X107699933Y-73104500D01*
X108574858Y-73104500D01*
X109450066Y-73104499D01*
X109485818Y-73097388D01*
X109512126Y-73092156D01*
X109512128Y-73092155D01*
X109524301Y-73089734D01*
X109534621Y-73082839D01*
X109534622Y-73082838D01*
X109598168Y-73040377D01*
X109608484Y-73033484D01*
X109664734Y-72949301D01*
X109679500Y-72875067D01*
X109679499Y-71124934D01*
X109675550Y-71105079D01*
X109681879Y-71034365D01*
X109725434Y-70978299D01*
X109799129Y-70954500D01*
X110297125Y-70954500D01*
X110365246Y-70974502D01*
X110411739Y-71028158D01*
X110421843Y-71098432D01*
X110392349Y-71163012D01*
X110380203Y-71175232D01*
X110310392Y-71236455D01*
X110306817Y-71240990D01*
X110306816Y-71240991D01*
X110296675Y-71253855D01*
X110184720Y-71395869D01*
X110182031Y-71400980D01*
X110182029Y-71400983D01*
X110153687Y-71454852D01*
X110090203Y-71575515D01*
X110030007Y-71769378D01*
X110006148Y-71970964D01*
X110019424Y-72173522D01*
X110020845Y-72179118D01*
X110020846Y-72179123D01*
X110055578Y-72315876D01*
X110069392Y-72370269D01*
X110071809Y-72375512D01*
X110147625Y-72539970D01*
X110154377Y-72554616D01*
X110271533Y-72720389D01*
X110416938Y-72862035D01*
X110421742Y-72865245D01*
X110468225Y-72896304D01*
X110585720Y-72974812D01*
X110591023Y-72977090D01*
X110591026Y-72977092D01*
X110722283Y-73033484D01*
X110772228Y-73054942D01*
X110845244Y-73071464D01*
X110964579Y-73098467D01*
X110964584Y-73098468D01*
X110970216Y-73099742D01*
X110975987Y-73099969D01*
X110975989Y-73099969D01*
X111035756Y-73102317D01*
X111173053Y-73107712D01*
X111280348Y-73092155D01*
X111368231Y-73079413D01*
X111368236Y-73079412D01*
X111373945Y-73078584D01*
X111379409Y-73076729D01*
X111379414Y-73076728D01*
X111560693Y-73015192D01*
X111560698Y-73015190D01*
X111566165Y-73013334D01*
X111743276Y-72914147D01*
X111769172Y-72892610D01*
X111894913Y-72788031D01*
X111899345Y-72784345D01*
X112004029Y-72658477D01*
X112025453Y-72632718D01*
X112025455Y-72632715D01*
X112029147Y-72628276D01*
X112108966Y-72485749D01*
X112125510Y-72456208D01*
X112125511Y-72456206D01*
X112128334Y-72451165D01*
X112130190Y-72445698D01*
X112130192Y-72445693D01*
X112191728Y-72264414D01*
X112191729Y-72264409D01*
X112193584Y-72258945D01*
X112194412Y-72253236D01*
X112194413Y-72253231D01*
X112222179Y-72061727D01*
X112222712Y-72058053D01*
X112224232Y-72000000D01*
X112205658Y-71797859D01*
X112204090Y-71792299D01*
X112152125Y-71608046D01*
X112152124Y-71608044D01*
X112150557Y-71602487D01*
X112139978Y-71581033D01*
X112063331Y-71425609D01*
X112060776Y-71420428D01*
X112056742Y-71415025D01*
X111996424Y-71334251D01*
X111939320Y-71257779D01*
X111904892Y-71225954D01*
X111847633Y-71173024D01*
X111811188Y-71112096D01*
X111813469Y-71041136D01*
X111853751Y-70982674D01*
X111919246Y-70955271D01*
X111933162Y-70954500D01*
X112837125Y-70954500D01*
X112905246Y-70974502D01*
X112951739Y-71028158D01*
X112961843Y-71098432D01*
X112932349Y-71163012D01*
X112920203Y-71175232D01*
X112850392Y-71236455D01*
X112846817Y-71240990D01*
X112846816Y-71240991D01*
X112836675Y-71253855D01*
X112724720Y-71395869D01*
X112722031Y-71400980D01*
X112722029Y-71400983D01*
X112693687Y-71454852D01*
X112630203Y-71575515D01*
X112570007Y-71769378D01*
X112546148Y-71970964D01*
X112559424Y-72173522D01*
X112560845Y-72179118D01*
X112560846Y-72179123D01*
X112595578Y-72315876D01*
X112609392Y-72370269D01*
X112611809Y-72375512D01*
X112687625Y-72539970D01*
X112694377Y-72554616D01*
X112811533Y-72720389D01*
X112956938Y-72862035D01*
X112961742Y-72865245D01*
X113008225Y-72896304D01*
X113125720Y-72974812D01*
X113131023Y-72977090D01*
X113131026Y-72977092D01*
X113262283Y-73033484D01*
X113312228Y-73054942D01*
X113385244Y-73071464D01*
X113504579Y-73098467D01*
X113504584Y-73098468D01*
X113510216Y-73099742D01*
X113515987Y-73099969D01*
X113515989Y-73099969D01*
X113575756Y-73102317D01*
X113713053Y-73107712D01*
X113820348Y-73092155D01*
X113908231Y-73079413D01*
X113908236Y-73079412D01*
X113913945Y-73078584D01*
X113919409Y-73076729D01*
X113919414Y-73076728D01*
X114100693Y-73015192D01*
X114100698Y-73015190D01*
X114106165Y-73013334D01*
X114283276Y-72914147D01*
X114309172Y-72892610D01*
X114434913Y-72788031D01*
X114439345Y-72784345D01*
X114544029Y-72658477D01*
X114565453Y-72632718D01*
X114565455Y-72632715D01*
X114569147Y-72628276D01*
X114648966Y-72485749D01*
X114665510Y-72456208D01*
X114665511Y-72456206D01*
X114668334Y-72451165D01*
X114670190Y-72445698D01*
X114670192Y-72445693D01*
X114731728Y-72264414D01*
X114731729Y-72264409D01*
X114733584Y-72258945D01*
X114734412Y-72253236D01*
X114734413Y-72253231D01*
X114762179Y-72061727D01*
X114762712Y-72058053D01*
X114764232Y-72000000D01*
X114745658Y-71797859D01*
X114744090Y-71792299D01*
X114692125Y-71608046D01*
X114692124Y-71608044D01*
X114690557Y-71602487D01*
X114679978Y-71581033D01*
X114603331Y-71425609D01*
X114600776Y-71420428D01*
X114596742Y-71415025D01*
X114536424Y-71334251D01*
X114479320Y-71257779D01*
X114444892Y-71225954D01*
X114387633Y-71173024D01*
X114351188Y-71112096D01*
X114353469Y-71041136D01*
X114393751Y-70982674D01*
X114459246Y-70955271D01*
X114473162Y-70954500D01*
X115377125Y-70954500D01*
X115445246Y-70974502D01*
X115491739Y-71028158D01*
X115501843Y-71098432D01*
X115472349Y-71163012D01*
X115460203Y-71175232D01*
X115390392Y-71236455D01*
X115386817Y-71240990D01*
X115386816Y-71240991D01*
X115376675Y-71253855D01*
X115264720Y-71395869D01*
X115262031Y-71400980D01*
X115262029Y-71400983D01*
X115233687Y-71454852D01*
X115170203Y-71575515D01*
X115110007Y-71769378D01*
X115086148Y-71970964D01*
X115099424Y-72173522D01*
X115100845Y-72179118D01*
X115100846Y-72179123D01*
X115135578Y-72315876D01*
X115149392Y-72370269D01*
X115151809Y-72375512D01*
X115227625Y-72539970D01*
X115234377Y-72554616D01*
X115351533Y-72720389D01*
X115496938Y-72862035D01*
X115501742Y-72865245D01*
X115548225Y-72896304D01*
X115665720Y-72974812D01*
X115671023Y-72977090D01*
X115671026Y-72977092D01*
X115802283Y-73033484D01*
X115852228Y-73054942D01*
X115925244Y-73071464D01*
X116044579Y-73098467D01*
X116044584Y-73098468D01*
X116050216Y-73099742D01*
X116055987Y-73099969D01*
X116055989Y-73099969D01*
X116115756Y-73102317D01*
X116253053Y-73107712D01*
X116360348Y-73092155D01*
X116448231Y-73079413D01*
X116448236Y-73079412D01*
X116453945Y-73078584D01*
X116459409Y-73076729D01*
X116459414Y-73076728D01*
X116640693Y-73015192D01*
X116640698Y-73015190D01*
X116646165Y-73013334D01*
X116823276Y-72914147D01*
X116849172Y-72892610D01*
X116974913Y-72788031D01*
X116979345Y-72784345D01*
X117084029Y-72658477D01*
X117105453Y-72632718D01*
X117105455Y-72632715D01*
X117109147Y-72628276D01*
X117188966Y-72485749D01*
X117205510Y-72456208D01*
X117205511Y-72456206D01*
X117208334Y-72451165D01*
X117210190Y-72445698D01*
X117210192Y-72445693D01*
X117271728Y-72264414D01*
X117271729Y-72264409D01*
X117273584Y-72258945D01*
X117274412Y-72253236D01*
X117274413Y-72253231D01*
X117302179Y-72061727D01*
X117302712Y-72058053D01*
X117304232Y-72000000D01*
X117285658Y-71797859D01*
X117284090Y-71792299D01*
X117232125Y-71608046D01*
X117232124Y-71608044D01*
X117230557Y-71602487D01*
X117219978Y-71581033D01*
X117143331Y-71425609D01*
X117140776Y-71420428D01*
X117136742Y-71415025D01*
X117076424Y-71334251D01*
X117019320Y-71257779D01*
X116984892Y-71225954D01*
X116927633Y-71173024D01*
X116891188Y-71112096D01*
X116893469Y-71041136D01*
X116933751Y-70982674D01*
X116999246Y-70955271D01*
X117013162Y-70954500D01*
X117917125Y-70954500D01*
X117985246Y-70974502D01*
X118031739Y-71028158D01*
X118041843Y-71098432D01*
X118012349Y-71163012D01*
X118000203Y-71175232D01*
X117930392Y-71236455D01*
X117926817Y-71240990D01*
X117926816Y-71240991D01*
X117916675Y-71253855D01*
X117804720Y-71395869D01*
X117802031Y-71400980D01*
X117802029Y-71400983D01*
X117773687Y-71454852D01*
X117710203Y-71575515D01*
X117650007Y-71769378D01*
X117626148Y-71970964D01*
X117639424Y-72173522D01*
X117640845Y-72179118D01*
X117640846Y-72179123D01*
X117675578Y-72315876D01*
X117689392Y-72370269D01*
X117691809Y-72375512D01*
X117767625Y-72539970D01*
X117774377Y-72554616D01*
X117891533Y-72720389D01*
X118036938Y-72862035D01*
X118041742Y-72865245D01*
X118088225Y-72896304D01*
X118205720Y-72974812D01*
X118211023Y-72977090D01*
X118211026Y-72977092D01*
X118342283Y-73033484D01*
X118392228Y-73054942D01*
X118465244Y-73071464D01*
X118584579Y-73098467D01*
X118584584Y-73098468D01*
X118590216Y-73099742D01*
X118595987Y-73099969D01*
X118595989Y-73099969D01*
X118655756Y-73102317D01*
X118793053Y-73107712D01*
X118900348Y-73092155D01*
X118988231Y-73079413D01*
X118988236Y-73079412D01*
X118993945Y-73078584D01*
X118999409Y-73076729D01*
X118999414Y-73076728D01*
X119180693Y-73015192D01*
X119180698Y-73015190D01*
X119186165Y-73013334D01*
X119363276Y-72914147D01*
X119389172Y-72892610D01*
X119514913Y-72788031D01*
X119519345Y-72784345D01*
X119624029Y-72658477D01*
X119645453Y-72632718D01*
X119645455Y-72632715D01*
X119649147Y-72628276D01*
X119728966Y-72485749D01*
X119745510Y-72456208D01*
X119745511Y-72456206D01*
X119748334Y-72451165D01*
X119750190Y-72445698D01*
X119750192Y-72445693D01*
X119811728Y-72264414D01*
X119811729Y-72264409D01*
X119813584Y-72258945D01*
X119814412Y-72253236D01*
X119814413Y-72253231D01*
X119842179Y-72061727D01*
X119842712Y-72058053D01*
X119844232Y-72000000D01*
X119825658Y-71797859D01*
X119824090Y-71792299D01*
X119772125Y-71608046D01*
X119772124Y-71608044D01*
X119770557Y-71602487D01*
X119759978Y-71581033D01*
X119683331Y-71425609D01*
X119680776Y-71420428D01*
X119676742Y-71415025D01*
X119616424Y-71334251D01*
X119559320Y-71257779D01*
X119524892Y-71225954D01*
X119467633Y-71173024D01*
X119431188Y-71112096D01*
X119433469Y-71041136D01*
X119473751Y-70982674D01*
X119539246Y-70955271D01*
X119553162Y-70954500D01*
X121933129Y-70954500D01*
X122001250Y-70974502D01*
X122022224Y-70991405D01*
X122694381Y-71663562D01*
X122728407Y-71725874D01*
X122728512Y-71769201D01*
X122730007Y-71769378D01*
X122706148Y-71970964D01*
X122719424Y-72173522D01*
X122720845Y-72179118D01*
X122720846Y-72179123D01*
X122755578Y-72315876D01*
X122769392Y-72370269D01*
X122771809Y-72375512D01*
X122847625Y-72539970D01*
X122854377Y-72554616D01*
X122971533Y-72720389D01*
X123116938Y-72862035D01*
X123204503Y-72920544D01*
X123250029Y-72975019D01*
X123260500Y-73025308D01*
X123260500Y-87703129D01*
X123240498Y-87771250D01*
X123223595Y-87792224D01*
X122207224Y-88808595D01*
X122144912Y-88842621D01*
X122118129Y-88845500D01*
X121141577Y-88845500D01*
X121073456Y-88825498D01*
X121026963Y-88771842D01*
X121016859Y-88701568D01*
X121046353Y-88636988D01*
X121066012Y-88618674D01*
X121103224Y-88590785D01*
X121110404Y-88585404D01*
X121151852Y-88530100D01*
X121191689Y-88476946D01*
X121191691Y-88476943D01*
X121197071Y-88469764D01*
X121247798Y-88334448D01*
X121254500Y-88272756D01*
X121254500Y-86927244D01*
X121247798Y-86865552D01*
X121197071Y-86730236D01*
X121191691Y-86723057D01*
X121191689Y-86723054D01*
X121115785Y-86621776D01*
X121110404Y-86614596D01*
X121004935Y-86535551D01*
X120962420Y-86478693D01*
X120954500Y-86434726D01*
X120954500Y-85215075D01*
X120954610Y-85209799D01*
X120954949Y-85201702D01*
X120957228Y-85147326D01*
X120947212Y-85104622D01*
X120945049Y-85092949D01*
X120940261Y-85057995D01*
X120939095Y-85049482D01*
X120933047Y-85035506D01*
X120926013Y-85014237D01*
X120924498Y-85007778D01*
X120922537Y-84999417D01*
X120901397Y-84960963D01*
X120896182Y-84950317D01*
X120882170Y-84917937D01*
X120882168Y-84917933D01*
X120878758Y-84910054D01*
X120869179Y-84898225D01*
X120856688Y-84879637D01*
X120849348Y-84866285D01*
X120842290Y-84858109D01*
X120817547Y-84833366D01*
X120808721Y-84823565D01*
X120788556Y-84798662D01*
X120788553Y-84798659D01*
X120783150Y-84791987D01*
X120767636Y-84780962D01*
X120751536Y-84767355D01*
X118952768Y-82968587D01*
X118949115Y-82964779D01*
X118912584Y-82925052D01*
X118912583Y-82925051D01*
X118906774Y-82918734D01*
X118881284Y-82902929D01*
X118869494Y-82895619D01*
X118859712Y-82888896D01*
X118831605Y-82867562D01*
X118831606Y-82867562D01*
X118824765Y-82862370D01*
X118815053Y-82858525D01*
X118810604Y-82856763D01*
X118790598Y-82846700D01*
X118784963Y-82843206D01*
X118784954Y-82843202D01*
X118777656Y-82838677D01*
X118735521Y-82826435D01*
X118724298Y-82822593D01*
X118683510Y-82806444D01*
X118669902Y-82805013D01*
X118668367Y-82804852D01*
X118646394Y-82800541D01*
X118631765Y-82796291D01*
X118620993Y-82795500D01*
X118585995Y-82795500D01*
X118572824Y-82794810D01*
X118562607Y-82793736D01*
X118558773Y-82793333D01*
X118540963Y-82791461D01*
X118532419Y-82790563D01*
X118513654Y-82793737D01*
X118492652Y-82795500D01*
X118373866Y-82795500D01*
X118305745Y-82775498D01*
X118276223Y-82749135D01*
X118186212Y-82638770D01*
X118120894Y-82584734D01*
X118039177Y-82517132D01*
X118039174Y-82517130D01*
X118034427Y-82513203D01*
X117861143Y-82419508D01*
X117672960Y-82361256D01*
X117666835Y-82360612D01*
X117666834Y-82360612D01*
X117483176Y-82341309D01*
X117483174Y-82341309D01*
X117477047Y-82340665D01*
X117395018Y-82348130D01*
X117287004Y-82357960D01*
X117287001Y-82357961D01*
X117280865Y-82358519D01*
X117274959Y-82360257D01*
X117274955Y-82360258D01*
X117134775Y-82401516D01*
X117091887Y-82414138D01*
X117086427Y-82416992D01*
X117086428Y-82416992D01*
X116922772Y-82502549D01*
X116922768Y-82502552D01*
X116917312Y-82505404D01*
X116763788Y-82628840D01*
X116637163Y-82779745D01*
X116628881Y-82794810D01*
X116557281Y-82925052D01*
X116542262Y-82952371D01*
X116540398Y-82958246D01*
X116540397Y-82958249D01*
X116537118Y-82968587D01*
X116482697Y-83140142D01*
X116460738Y-83335907D01*
X116461254Y-83342051D01*
X116474993Y-83505661D01*
X116477222Y-83532209D01*
X116531521Y-83721570D01*
X116621566Y-83896779D01*
X116625389Y-83901603D01*
X116625392Y-83901607D01*
X116653045Y-83936496D01*
X116743927Y-84051160D01*
X116748620Y-84055154D01*
X116748621Y-84055155D01*
X116773447Y-84076283D01*
X116893945Y-84178835D01*
X116899323Y-84181841D01*
X116899325Y-84181842D01*
X117024137Y-84251597D01*
X117065904Y-84274940D01*
X117253255Y-84335814D01*
X117448862Y-84359139D01*
X117454997Y-84358667D01*
X117454999Y-84358667D01*
X117514801Y-84354065D01*
X117645274Y-84344026D01*
X117835009Y-84291050D01*
X117856083Y-84280405D01*
X118005341Y-84205010D01*
X118005343Y-84205009D01*
X118010842Y-84202231D01*
X118166074Y-84080950D01*
X118170100Y-84076286D01*
X118170103Y-84076283D01*
X118230681Y-84006102D01*
X118290334Y-83967605D01*
X118361330Y-83967469D01*
X118415157Y-83999338D01*
X118696224Y-84280405D01*
X118730250Y-84342717D01*
X118725185Y-84413532D01*
X118682638Y-84470368D01*
X118616118Y-84495179D01*
X118613258Y-84495281D01*
X118613258Y-84495288D01*
X118609613Y-84495500D01*
X118605947Y-84495500D01*
X118514050Y-84506214D01*
X118482518Y-84509890D01*
X118482516Y-84509890D01*
X118475246Y-84510738D01*
X118468369Y-84513234D01*
X118468366Y-84513235D01*
X118341082Y-84559437D01*
X118309866Y-84570768D01*
X118303749Y-84574778D01*
X118303746Y-84574780D01*
X118264943Y-84600221D01*
X118162732Y-84667234D01*
X118041736Y-84794960D01*
X117953368Y-84947096D01*
X117902370Y-85115480D01*
X117891476Y-85291080D01*
X117892716Y-85298296D01*
X117892716Y-85298298D01*
X117920031Y-85457262D01*
X117921271Y-85464477D01*
X117990156Y-85626368D01*
X118094437Y-85768071D01*
X118228520Y-85881982D01*
X118272034Y-85904201D01*
X118378695Y-85958666D01*
X118378700Y-85958668D01*
X118385212Y-85961993D01*
X118392318Y-85963732D01*
X118392321Y-85963733D01*
X118473710Y-85983648D01*
X118556108Y-86003811D01*
X118561710Y-86004159D01*
X118561713Y-86004159D01*
X118565275Y-86004380D01*
X118565284Y-86004380D01*
X118567214Y-86004500D01*
X118694053Y-86004500D01*
X118785950Y-85993786D01*
X118817482Y-85990110D01*
X118817484Y-85990110D01*
X118824754Y-85989262D01*
X118831631Y-85986766D01*
X118831634Y-85986765D01*
X118983255Y-85931729D01*
X118990134Y-85929232D01*
X118996251Y-85925222D01*
X118996254Y-85925220D01*
X119069431Y-85877242D01*
X119137268Y-85832766D01*
X119258264Y-85705040D01*
X119346632Y-85552904D01*
X119397630Y-85384520D01*
X119403855Y-85284182D01*
X119428037Y-85217430D01*
X119484468Y-85174349D01*
X119555233Y-85168616D01*
X119618708Y-85202889D01*
X119808595Y-85392776D01*
X119842621Y-85455088D01*
X119845500Y-85481871D01*
X119845500Y-86388019D01*
X119825498Y-86456140D01*
X119771842Y-86502633D01*
X119763729Y-86506001D01*
X119746129Y-86512599D01*
X119705236Y-86527929D01*
X119698057Y-86533309D01*
X119698054Y-86533311D01*
X119610023Y-86599287D01*
X119589596Y-86614596D01*
X119584215Y-86621776D01*
X119508311Y-86723054D01*
X119508309Y-86723057D01*
X119502929Y-86730236D01*
X119452202Y-86865552D01*
X119445500Y-86927244D01*
X119445500Y-88272756D01*
X119452202Y-88334448D01*
X119502929Y-88469764D01*
X119508309Y-88476943D01*
X119508311Y-88476946D01*
X119548148Y-88530100D01*
X119589596Y-88585404D01*
X119596776Y-88590785D01*
X119633988Y-88618674D01*
X119676503Y-88675533D01*
X119681529Y-88746352D01*
X119647469Y-88808645D01*
X119585138Y-88842635D01*
X119558423Y-88845500D01*
X118281871Y-88845500D01*
X118213750Y-88825498D01*
X118192776Y-88808595D01*
X118070162Y-88685981D01*
X118036136Y-88623669D01*
X118041201Y-88552854D01*
X118058431Y-88521321D01*
X118091689Y-88476946D01*
X118091691Y-88476943D01*
X118097071Y-88469764D01*
X118147798Y-88334448D01*
X118154500Y-88272756D01*
X118154500Y-86927244D01*
X118147798Y-86865552D01*
X118097071Y-86730236D01*
X118091691Y-86723057D01*
X118091689Y-86723054D01*
X118015785Y-86621776D01*
X118010404Y-86614596D01*
X117989977Y-86599287D01*
X117901946Y-86533311D01*
X117901943Y-86533309D01*
X117894764Y-86527929D01*
X117772519Y-86482102D01*
X117766843Y-86479974D01*
X117766841Y-86479974D01*
X117759448Y-86477202D01*
X117751598Y-86476349D01*
X117751597Y-86476349D01*
X117701153Y-86470869D01*
X117701152Y-86470869D01*
X117697756Y-86470500D01*
X116802244Y-86470500D01*
X116798848Y-86470869D01*
X116798847Y-86470869D01*
X116748403Y-86476349D01*
X116748402Y-86476349D01*
X116740552Y-86477202D01*
X116733159Y-86479974D01*
X116733157Y-86479974D01*
X116727481Y-86482102D01*
X116605236Y-86527929D01*
X116598057Y-86533309D01*
X116598054Y-86533311D01*
X116510023Y-86599287D01*
X116489596Y-86614596D01*
X116484215Y-86621776D01*
X116408311Y-86723054D01*
X116408309Y-86723057D01*
X116402929Y-86730236D01*
X116352202Y-86865552D01*
X116345500Y-86927244D01*
X116345412Y-86927234D01*
X116322073Y-86993261D01*
X116265978Y-87036780D01*
X116219919Y-87045500D01*
X116130081Y-87045500D01*
X116061960Y-87025498D01*
X116015467Y-86971842D01*
X116004500Y-86927274D01*
X116004500Y-86927244D01*
X115997798Y-86865552D01*
X115947071Y-86730236D01*
X115941691Y-86723057D01*
X115941689Y-86723054D01*
X115865785Y-86621776D01*
X115860404Y-86614596D01*
X115839977Y-86599287D01*
X115751946Y-86533311D01*
X115751943Y-86533309D01*
X115744764Y-86527929D01*
X115622519Y-86482102D01*
X115616843Y-86479974D01*
X115616841Y-86479974D01*
X115609448Y-86477202D01*
X115601598Y-86476349D01*
X115601597Y-86476349D01*
X115551153Y-86470869D01*
X115551152Y-86470869D01*
X115547756Y-86470500D01*
X114652244Y-86470500D01*
X114648848Y-86470869D01*
X114648847Y-86470869D01*
X114598403Y-86476349D01*
X114598402Y-86476349D01*
X114590552Y-86477202D01*
X114583159Y-86479974D01*
X114583157Y-86479974D01*
X114577481Y-86482102D01*
X114455236Y-86527929D01*
X114448057Y-86533309D01*
X114448054Y-86533311D01*
X114360023Y-86599287D01*
X114339596Y-86614596D01*
X114334215Y-86621776D01*
X114258311Y-86723054D01*
X114258309Y-86723057D01*
X114252929Y-86730236D01*
X114202202Y-86865552D01*
X114195500Y-86927244D01*
X114195500Y-88272756D01*
X114202202Y-88334448D01*
X114252929Y-88469764D01*
X114258309Y-88476943D01*
X114258311Y-88476946D01*
X114298148Y-88530100D01*
X114339596Y-88585404D01*
X114346776Y-88590785D01*
X114448054Y-88666689D01*
X114448057Y-88666691D01*
X114455236Y-88672071D01*
X114533920Y-88701568D01*
X114583157Y-88720026D01*
X114583159Y-88720026D01*
X114590552Y-88722798D01*
X114598402Y-88723651D01*
X114598403Y-88723651D01*
X114648847Y-88729131D01*
X114652244Y-88729500D01*
X115547756Y-88729500D01*
X115551153Y-88729131D01*
X115601597Y-88723651D01*
X115601598Y-88723651D01*
X115609448Y-88722798D01*
X115616841Y-88720026D01*
X115616843Y-88720026D01*
X115666080Y-88701568D01*
X115744764Y-88672071D01*
X115751943Y-88666691D01*
X115751946Y-88666689D01*
X115853224Y-88590785D01*
X115860404Y-88585404D01*
X115901852Y-88530100D01*
X115941689Y-88476946D01*
X115941691Y-88476943D01*
X115947071Y-88469764D01*
X115997798Y-88334448D01*
X116004500Y-88272756D01*
X116004588Y-88272766D01*
X116027927Y-88206739D01*
X116084022Y-88163220D01*
X116130081Y-88154500D01*
X116219919Y-88154500D01*
X116288040Y-88174502D01*
X116334533Y-88228158D01*
X116345500Y-88272726D01*
X116345500Y-88272756D01*
X116352202Y-88334448D01*
X116402929Y-88469764D01*
X116408309Y-88476943D01*
X116408311Y-88476946D01*
X116448148Y-88530100D01*
X116489596Y-88585404D01*
X116496776Y-88590785D01*
X116598054Y-88666689D01*
X116598057Y-88666691D01*
X116605236Y-88672071D01*
X116627680Y-88680485D01*
X116684443Y-88723126D01*
X116708281Y-88781364D01*
X116710905Y-88800518D01*
X116714422Y-88808645D01*
X116716953Y-88814494D01*
X116723987Y-88835763D01*
X116727463Y-88850583D01*
X116748603Y-88889037D01*
X116753818Y-88899683D01*
X116767830Y-88932063D01*
X116767832Y-88932067D01*
X116771242Y-88939946D01*
X116776646Y-88946619D01*
X116776647Y-88946621D01*
X116780821Y-88951775D01*
X116793312Y-88970363D01*
X116800652Y-88983715D01*
X116807710Y-88991891D01*
X116832453Y-89016634D01*
X116841279Y-89026435D01*
X116861444Y-89051338D01*
X116861447Y-89051341D01*
X116866850Y-89058013D01*
X116882364Y-89069038D01*
X116898464Y-89082645D01*
X117597232Y-89781413D01*
X117600885Y-89785221D01*
X117630611Y-89817547D01*
X117643226Y-89831266D01*
X117650521Y-89835789D01*
X117650522Y-89835790D01*
X117680505Y-89854380D01*
X117690288Y-89861104D01*
X117711321Y-89877069D01*
X117725234Y-89887630D01*
X117739396Y-89893237D01*
X117759409Y-89903303D01*
X117765041Y-89906795D01*
X117772344Y-89911323D01*
X117780591Y-89913719D01*
X117780593Y-89913720D01*
X117802720Y-89920148D01*
X117814476Y-89923564D01*
X117825701Y-89927408D01*
X117858498Y-89940393D01*
X117858505Y-89940395D01*
X117866490Y-89943556D01*
X117880098Y-89944987D01*
X117881633Y-89945148D01*
X117903605Y-89949459D01*
X117918235Y-89953709D01*
X117929007Y-89954500D01*
X117964005Y-89954500D01*
X117977175Y-89955190D01*
X117991227Y-89956667D01*
X118009037Y-89958539D01*
X118017581Y-89959437D01*
X118036346Y-89956263D01*
X118057348Y-89954500D01*
X122384925Y-89954500D01*
X122390201Y-89954610D01*
X122452674Y-89957228D01*
X122475531Y-89951867D01*
X122495378Y-89947212D01*
X122507051Y-89945049D01*
X122530675Y-89941813D01*
X122550518Y-89939095D01*
X122564493Y-89933047D01*
X122585763Y-89926013D01*
X122592222Y-89924498D01*
X122600583Y-89922537D01*
X122639037Y-89901397D01*
X122649683Y-89896182D01*
X122682063Y-89882170D01*
X122682067Y-89882168D01*
X122689946Y-89878758D01*
X122701775Y-89869179D01*
X122720363Y-89856688D01*
X122733715Y-89849348D01*
X122739245Y-89844574D01*
X122740140Y-89843802D01*
X122740147Y-89843796D01*
X122741891Y-89842290D01*
X122766634Y-89817547D01*
X122776435Y-89808721D01*
X122801338Y-89788556D01*
X122801341Y-89788553D01*
X122808013Y-89783150D01*
X122819038Y-89767636D01*
X122832645Y-89751536D01*
X124196413Y-88387768D01*
X124200221Y-88384115D01*
X124239948Y-88347584D01*
X124239949Y-88347583D01*
X124246266Y-88341774D01*
X124250809Y-88334448D01*
X124269380Y-88304495D01*
X124276104Y-88294712D01*
X124297433Y-88266613D01*
X124297434Y-88266612D01*
X124300793Y-88262186D01*
X132041018Y-88262186D01*
X132066579Y-88530100D01*
X132067664Y-88534534D01*
X132067665Y-88534540D01*
X132109401Y-88705100D01*
X132130547Y-88791518D01*
X132231583Y-89040963D01*
X132367569Y-89273210D01*
X132535658Y-89483395D01*
X132732327Y-89667113D01*
X132854023Y-89751536D01*
X132936455Y-89808721D01*
X132953457Y-89820516D01*
X133194416Y-89940391D01*
X133198750Y-89941812D01*
X133198753Y-89941813D01*
X133445823Y-90022807D01*
X133445829Y-90022808D01*
X133450156Y-90024227D01*
X133454647Y-90025007D01*
X133454648Y-90025007D01*
X133711538Y-90069611D01*
X133711546Y-90069612D01*
X133715319Y-90070267D01*
X133719156Y-90070458D01*
X133798777Y-90074422D01*
X133798785Y-90074422D01*
X133800348Y-90074500D01*
X133968374Y-90074500D01*
X133970642Y-90074335D01*
X133970654Y-90074335D01*
X134101457Y-90064844D01*
X134168425Y-90059985D01*
X134172880Y-90059001D01*
X134172883Y-90059001D01*
X134426770Y-90002947D01*
X134426772Y-90002946D01*
X134431226Y-90001963D01*
X134682900Y-89906613D01*
X134701680Y-89896182D01*
X134914179Y-89778149D01*
X134914180Y-89778148D01*
X134918172Y-89775931D01*
X135064842Y-89663996D01*
X135128491Y-89615421D01*
X135128495Y-89615417D01*
X135132116Y-89612654D01*
X135320249Y-89420203D01*
X135427242Y-89273210D01*
X135475942Y-89206304D01*
X135475947Y-89206297D01*
X135478630Y-89202610D01*
X135603941Y-88964433D01*
X135688970Y-88723651D01*
X135692034Y-88714975D01*
X135692034Y-88714974D01*
X135693557Y-88710662D01*
X135724661Y-88552854D01*
X135744720Y-88451083D01*
X135744721Y-88451077D01*
X135745601Y-88446611D01*
X135745828Y-88442055D01*
X135758755Y-88182383D01*
X135758755Y-88182377D01*
X135758982Y-88177814D01*
X135733421Y-87909900D01*
X135669453Y-87648482D01*
X135568417Y-87399037D01*
X135432431Y-87166790D01*
X135264342Y-86956605D01*
X135067673Y-86772887D01*
X134846543Y-86619484D01*
X134605584Y-86499609D01*
X134601250Y-86498188D01*
X134601247Y-86498187D01*
X134354177Y-86417193D01*
X134354171Y-86417192D01*
X134349844Y-86415773D01*
X134345352Y-86414993D01*
X134088462Y-86370389D01*
X134088454Y-86370388D01*
X134084681Y-86369733D01*
X134074718Y-86369237D01*
X134001223Y-86365578D01*
X134001215Y-86365578D01*
X133999652Y-86365500D01*
X133831626Y-86365500D01*
X133829358Y-86365665D01*
X133829346Y-86365665D01*
X133698543Y-86375156D01*
X133631575Y-86380015D01*
X133627120Y-86380999D01*
X133627117Y-86380999D01*
X133373230Y-86437053D01*
X133373228Y-86437054D01*
X133368774Y-86438037D01*
X133117100Y-86533387D01*
X132881828Y-86664069D01*
X132878196Y-86666841D01*
X132671509Y-86824579D01*
X132671505Y-86824583D01*
X132667884Y-86827346D01*
X132479751Y-87019797D01*
X132461042Y-87045500D01*
X132324058Y-87233696D01*
X132324053Y-87233703D01*
X132321370Y-87237390D01*
X132196059Y-87475567D01*
X132106443Y-87729338D01*
X132098182Y-87771250D01*
X132057834Y-87975963D01*
X132054399Y-87993389D01*
X132054172Y-87997942D01*
X132054172Y-87997945D01*
X132042364Y-88235150D01*
X132041018Y-88262186D01*
X124300793Y-88262186D01*
X124302630Y-88259766D01*
X124308237Y-88245604D01*
X124318303Y-88225591D01*
X124321795Y-88219959D01*
X124321795Y-88219958D01*
X124326323Y-88212656D01*
X124338564Y-88170524D01*
X124342408Y-88159299D01*
X124355393Y-88126502D01*
X124355395Y-88126495D01*
X124358556Y-88118510D01*
X124360148Y-88103367D01*
X124364459Y-88081394D01*
X124366867Y-88073104D01*
X124368709Y-88066765D01*
X124369500Y-88055993D01*
X124369500Y-88020995D01*
X124370190Y-88007824D01*
X124373539Y-87975963D01*
X124374437Y-87967419D01*
X124371263Y-87948654D01*
X124369500Y-87927652D01*
X124369500Y-83335907D01*
X128260738Y-83335907D01*
X128261254Y-83342051D01*
X128274993Y-83505661D01*
X128277222Y-83532209D01*
X128331521Y-83721570D01*
X128421566Y-83896779D01*
X128425389Y-83901603D01*
X128425392Y-83901607D01*
X128453045Y-83936496D01*
X128543927Y-84051160D01*
X128548620Y-84055154D01*
X128548621Y-84055155D01*
X128573447Y-84076283D01*
X128693945Y-84178835D01*
X128699323Y-84181841D01*
X128699325Y-84181842D01*
X128824137Y-84251597D01*
X128865904Y-84274940D01*
X129053255Y-84335814D01*
X129248862Y-84359139D01*
X129254997Y-84358667D01*
X129255000Y-84358667D01*
X129419510Y-84346009D01*
X129488964Y-84360726D01*
X129521924Y-84386351D01*
X129546919Y-84413532D01*
X129563226Y-84431266D01*
X129570521Y-84435789D01*
X129570522Y-84435790D01*
X129600506Y-84454381D01*
X129610288Y-84461104D01*
X129645235Y-84487630D01*
X129653220Y-84490791D01*
X129653219Y-84490791D01*
X129659396Y-84493237D01*
X129679402Y-84503300D01*
X129685037Y-84506794D01*
X129685046Y-84506798D01*
X129692344Y-84511323D01*
X129715666Y-84518099D01*
X129734480Y-84523565D01*
X129745702Y-84527407D01*
X129786490Y-84543556D01*
X129799506Y-84544924D01*
X129803294Y-84546483D01*
X129803372Y-84546502D01*
X129803369Y-84546514D01*
X129865160Y-84571937D01*
X129905789Y-84630159D01*
X129908491Y-84701105D01*
X129877804Y-84756886D01*
X129841736Y-84794960D01*
X129753368Y-84947096D01*
X129702370Y-85115480D01*
X129691476Y-85291080D01*
X129692716Y-85298296D01*
X129692716Y-85298298D01*
X129720031Y-85457262D01*
X129721271Y-85464477D01*
X129790156Y-85626368D01*
X129894437Y-85768071D01*
X130028520Y-85881982D01*
X130072034Y-85904201D01*
X130178695Y-85958666D01*
X130178700Y-85958668D01*
X130185212Y-85961993D01*
X130192318Y-85963732D01*
X130192321Y-85963733D01*
X130273710Y-85983648D01*
X130356108Y-86003811D01*
X130361710Y-86004159D01*
X130361713Y-86004159D01*
X130365275Y-86004380D01*
X130365284Y-86004380D01*
X130367214Y-86004500D01*
X130494053Y-86004500D01*
X130585950Y-85993786D01*
X130617482Y-85990110D01*
X130617484Y-85990110D01*
X130624754Y-85989262D01*
X130631631Y-85986766D01*
X130631634Y-85986765D01*
X130783255Y-85931729D01*
X130790134Y-85929232D01*
X130796251Y-85925222D01*
X130796254Y-85925220D01*
X130869431Y-85877242D01*
X130937268Y-85832766D01*
X131058264Y-85705040D01*
X131146632Y-85552904D01*
X131197630Y-85384520D01*
X131208524Y-85208920D01*
X131193724Y-85122785D01*
X131179969Y-85042738D01*
X131179968Y-85042736D01*
X131178729Y-85035523D01*
X131109844Y-84873632D01*
X131022675Y-84755182D01*
X130998409Y-84688461D01*
X131014067Y-84619213D01*
X131064678Y-84569423D01*
X131124157Y-84554500D01*
X131606763Y-84554500D01*
X131674884Y-84574502D01*
X131721377Y-84628158D01*
X131724744Y-84636269D01*
X131724777Y-84636358D01*
X131724779Y-84636362D01*
X131727929Y-84644764D01*
X131733309Y-84651943D01*
X131733311Y-84651946D01*
X131784211Y-84719861D01*
X131814596Y-84760404D01*
X131821776Y-84765785D01*
X131923054Y-84841689D01*
X131923057Y-84841691D01*
X131930236Y-84847071D01*
X132003409Y-84874502D01*
X132058157Y-84895026D01*
X132058159Y-84895026D01*
X132065552Y-84897798D01*
X132073402Y-84898651D01*
X132073403Y-84898651D01*
X132116925Y-84903379D01*
X132127244Y-84904500D01*
X133472756Y-84904500D01*
X133483075Y-84903379D01*
X133526597Y-84898651D01*
X133526598Y-84898651D01*
X133534448Y-84897798D01*
X133541841Y-84895026D01*
X133541843Y-84895026D01*
X133596591Y-84874502D01*
X133669764Y-84847071D01*
X133676943Y-84841691D01*
X133676946Y-84841689D01*
X133778224Y-84765785D01*
X133785404Y-84760404D01*
X133815789Y-84719861D01*
X133866689Y-84651946D01*
X133866691Y-84651943D01*
X133872071Y-84644764D01*
X133922798Y-84509448D01*
X133927427Y-84466843D01*
X133929131Y-84451153D01*
X133929131Y-84451152D01*
X133929500Y-84447756D01*
X133929500Y-84397756D01*
X135270500Y-84397756D01*
X135270869Y-84401152D01*
X135270869Y-84401153D01*
X135271678Y-84408595D01*
X135277202Y-84459448D01*
X135279974Y-84466841D01*
X135279974Y-84466843D01*
X135283030Y-84474994D01*
X135327929Y-84594764D01*
X135333309Y-84601943D01*
X135333311Y-84601946D01*
X135379235Y-84663222D01*
X135414596Y-84710404D01*
X135435023Y-84725713D01*
X135523054Y-84791689D01*
X135523057Y-84791691D01*
X135530236Y-84797071D01*
X135619954Y-84830704D01*
X135658157Y-84845026D01*
X135658159Y-84845026D01*
X135665552Y-84847798D01*
X135673402Y-84848651D01*
X135673403Y-84848651D01*
X135723847Y-84854131D01*
X135727244Y-84854500D01*
X136018129Y-84854500D01*
X136086250Y-84874502D01*
X136107224Y-84891405D01*
X137397232Y-86181413D01*
X137400885Y-86185221D01*
X137430611Y-86217547D01*
X137443226Y-86231266D01*
X137450521Y-86235789D01*
X137450522Y-86235790D01*
X137480506Y-86254381D01*
X137490288Y-86261104D01*
X137525235Y-86287630D01*
X137533220Y-86290791D01*
X137533219Y-86290791D01*
X137539396Y-86293237D01*
X137559402Y-86303300D01*
X137565037Y-86306794D01*
X137565046Y-86306798D01*
X137572344Y-86311323D01*
X137580591Y-86313719D01*
X137614480Y-86323565D01*
X137625702Y-86327407D01*
X137666490Y-86343556D01*
X137680098Y-86344987D01*
X137681633Y-86345148D01*
X137703605Y-86349459D01*
X137718235Y-86353709D01*
X137729007Y-86354500D01*
X137764005Y-86354500D01*
X137777175Y-86355190D01*
X137791227Y-86356667D01*
X137809037Y-86358539D01*
X137817581Y-86359437D01*
X137836346Y-86356263D01*
X137857348Y-86354500D01*
X141584925Y-86354500D01*
X141590201Y-86354610D01*
X141652674Y-86357228D01*
X141675531Y-86351867D01*
X141695378Y-86347212D01*
X141707051Y-86345049D01*
X141722754Y-86342898D01*
X141750518Y-86339095D01*
X141764493Y-86333047D01*
X141785763Y-86326013D01*
X141792222Y-86324498D01*
X141800583Y-86322537D01*
X141839037Y-86301397D01*
X141849683Y-86296182D01*
X141882063Y-86282170D01*
X141882067Y-86282168D01*
X141889946Y-86278758D01*
X141901775Y-86269179D01*
X141920363Y-86256688D01*
X141933715Y-86249348D01*
X141939245Y-86244574D01*
X141940140Y-86243802D01*
X141940147Y-86243796D01*
X141941891Y-86242290D01*
X141966634Y-86217547D01*
X141976435Y-86208721D01*
X142001338Y-86188556D01*
X142001341Y-86188553D01*
X142008013Y-86183150D01*
X142019038Y-86167636D01*
X142032645Y-86151536D01*
X142729139Y-85455042D01*
X142791451Y-85421016D01*
X142862266Y-85426081D01*
X142919102Y-85468628D01*
X142934175Y-85494804D01*
X142944216Y-85518401D01*
X142990156Y-85626368D01*
X143094437Y-85768071D01*
X143228520Y-85881982D01*
X143272034Y-85904201D01*
X143378695Y-85958666D01*
X143378700Y-85958668D01*
X143385212Y-85961993D01*
X143392318Y-85963732D01*
X143392321Y-85963733D01*
X143473710Y-85983648D01*
X143556108Y-86003811D01*
X143561710Y-86004159D01*
X143561713Y-86004159D01*
X143565275Y-86004380D01*
X143565284Y-86004380D01*
X143567214Y-86004500D01*
X143694053Y-86004500D01*
X143785950Y-85993786D01*
X143817482Y-85990110D01*
X143817484Y-85990110D01*
X143824754Y-85989262D01*
X143831631Y-85986766D01*
X143831634Y-85986765D01*
X143983255Y-85931729D01*
X143990134Y-85929232D01*
X143996251Y-85925222D01*
X143996254Y-85925220D01*
X144069431Y-85877242D01*
X144137268Y-85832766D01*
X144258264Y-85705040D01*
X144346632Y-85552904D01*
X144397630Y-85384520D01*
X144408524Y-85208920D01*
X144393724Y-85122785D01*
X144379969Y-85042738D01*
X144379968Y-85042736D01*
X144378729Y-85035523D01*
X144309844Y-84873632D01*
X144205563Y-84731929D01*
X144071480Y-84618018D01*
X143993057Y-84577973D01*
X143921305Y-84541334D01*
X143921300Y-84541332D01*
X143914788Y-84538007D01*
X143907682Y-84536268D01*
X143907679Y-84536267D01*
X143813553Y-84513235D01*
X143743892Y-84496189D01*
X143738290Y-84495841D01*
X143738287Y-84495841D01*
X143734725Y-84495620D01*
X143734716Y-84495620D01*
X143732786Y-84495500D01*
X143605947Y-84495500D01*
X143514050Y-84506214D01*
X143482518Y-84509890D01*
X143482516Y-84509890D01*
X143475246Y-84510738D01*
X143468369Y-84513234D01*
X143468366Y-84513235D01*
X143341082Y-84559437D01*
X143309866Y-84570768D01*
X143269748Y-84597071D01*
X143219585Y-84629959D01*
X143151650Y-84650582D01*
X143083349Y-84631202D01*
X143036369Y-84577973D01*
X143024500Y-84524587D01*
X143024500Y-84253014D01*
X143044502Y-84184893D01*
X143072926Y-84153725D01*
X143100446Y-84132224D01*
X143166074Y-84080950D01*
X143170100Y-84076286D01*
X143290764Y-83936496D01*
X143290765Y-83936494D01*
X143294793Y-83931828D01*
X143310318Y-83904500D01*
X143389049Y-83765907D01*
X143392096Y-83760544D01*
X143454277Y-83573622D01*
X143478966Y-83378183D01*
X143479360Y-83350000D01*
X143460137Y-83153948D01*
X143403200Y-82965363D01*
X143366116Y-82895619D01*
X143313611Y-82796871D01*
X143313609Y-82796868D01*
X143310717Y-82791429D01*
X143186212Y-82638770D01*
X143120894Y-82584734D01*
X143039177Y-82517132D01*
X143039174Y-82517130D01*
X143034427Y-82513203D01*
X142861143Y-82419508D01*
X142672960Y-82361256D01*
X142666835Y-82360612D01*
X142666834Y-82360612D01*
X142483176Y-82341309D01*
X142483174Y-82341309D01*
X142477047Y-82340665D01*
X142395018Y-82348130D01*
X142287004Y-82357960D01*
X142287001Y-82357961D01*
X142280865Y-82358519D01*
X142274959Y-82360257D01*
X142274955Y-82360258D01*
X142134775Y-82401516D01*
X142091887Y-82414138D01*
X142086427Y-82416992D01*
X142086428Y-82416992D01*
X141922772Y-82502549D01*
X141922768Y-82502552D01*
X141917312Y-82505404D01*
X141763788Y-82628840D01*
X141637163Y-82779745D01*
X141628881Y-82794810D01*
X141557281Y-82925052D01*
X141542262Y-82952371D01*
X141540398Y-82958246D01*
X141540397Y-82958249D01*
X141537118Y-82968587D01*
X141482697Y-83140142D01*
X141460738Y-83335907D01*
X141461254Y-83342051D01*
X141474993Y-83505661D01*
X141477222Y-83532209D01*
X141531521Y-83721570D01*
X141621566Y-83896779D01*
X141625389Y-83901603D01*
X141625392Y-83901607D01*
X141653045Y-83936496D01*
X141743927Y-84051160D01*
X141748620Y-84055154D01*
X141748621Y-84055155D01*
X141871163Y-84159446D01*
X141910076Y-84218829D01*
X141915500Y-84255400D01*
X141915500Y-84648129D01*
X141895498Y-84716250D01*
X141878595Y-84737224D01*
X141407224Y-85208595D01*
X141344912Y-85242621D01*
X141318129Y-85245500D01*
X138081871Y-85245500D01*
X138013750Y-85225498D01*
X137992776Y-85208595D01*
X137504042Y-84719861D01*
X137470016Y-84657549D01*
X137475155Y-84586537D01*
X137478366Y-84577973D01*
X137501282Y-84516843D01*
X137520026Y-84466843D01*
X137520026Y-84466841D01*
X137522798Y-84459448D01*
X137528323Y-84408595D01*
X137529131Y-84401153D01*
X137529131Y-84401152D01*
X137529500Y-84397756D01*
X137529500Y-83502244D01*
X137529083Y-83498403D01*
X137523651Y-83448403D01*
X137523651Y-83448402D01*
X137522798Y-83440552D01*
X137472071Y-83305236D01*
X137466691Y-83298057D01*
X137466689Y-83298054D01*
X137390785Y-83196776D01*
X137385404Y-83189596D01*
X137346022Y-83160081D01*
X137276946Y-83108311D01*
X137276943Y-83108309D01*
X137269764Y-83102929D01*
X137180046Y-83069296D01*
X137141843Y-83054974D01*
X137141841Y-83054974D01*
X137134448Y-83052202D01*
X137126598Y-83051349D01*
X137126597Y-83051349D01*
X137076153Y-83045869D01*
X137076152Y-83045869D01*
X137072756Y-83045500D01*
X135727244Y-83045500D01*
X135723848Y-83045869D01*
X135723847Y-83045869D01*
X135673403Y-83051349D01*
X135673402Y-83051349D01*
X135665552Y-83052202D01*
X135658159Y-83054974D01*
X135658157Y-83054974D01*
X135619954Y-83069296D01*
X135530236Y-83102929D01*
X135523057Y-83108309D01*
X135523054Y-83108311D01*
X135453978Y-83160081D01*
X135414596Y-83189596D01*
X135409215Y-83196776D01*
X135333311Y-83298054D01*
X135333309Y-83298057D01*
X135327929Y-83305236D01*
X135277202Y-83440552D01*
X135276349Y-83448402D01*
X135276349Y-83448403D01*
X135270917Y-83498403D01*
X135270500Y-83502244D01*
X135270500Y-84397756D01*
X133929500Y-84397756D01*
X133929500Y-83552244D01*
X133927967Y-83538129D01*
X133923651Y-83498403D01*
X133923651Y-83498402D01*
X133922798Y-83490552D01*
X133872071Y-83355236D01*
X133866691Y-83348057D01*
X133866689Y-83348054D01*
X133790785Y-83246776D01*
X133785404Y-83239596D01*
X133695000Y-83171842D01*
X133676946Y-83158311D01*
X133676943Y-83158309D01*
X133669764Y-83152929D01*
X133550744Y-83108311D01*
X133541843Y-83104974D01*
X133541841Y-83104974D01*
X133534448Y-83102202D01*
X133526598Y-83101349D01*
X133526597Y-83101349D01*
X133476153Y-83095869D01*
X133476152Y-83095869D01*
X133472756Y-83095500D01*
X132127244Y-83095500D01*
X132123848Y-83095869D01*
X132123847Y-83095869D01*
X132073403Y-83101349D01*
X132073402Y-83101349D01*
X132065552Y-83102202D01*
X132058159Y-83104974D01*
X132058157Y-83104974D01*
X132049256Y-83108311D01*
X131930236Y-83152929D01*
X131923057Y-83158309D01*
X131923054Y-83158311D01*
X131905000Y-83171842D01*
X131814596Y-83239596D01*
X131809215Y-83246776D01*
X131733311Y-83348054D01*
X131733309Y-83348057D01*
X131727929Y-83355236D01*
X131724779Y-83363638D01*
X131724777Y-83363642D01*
X131724744Y-83363731D01*
X131724687Y-83363806D01*
X131720467Y-83371515D01*
X131719354Y-83370906D01*
X131682102Y-83420495D01*
X131615540Y-83445194D01*
X131606763Y-83445500D01*
X130402974Y-83445500D01*
X130334853Y-83425498D01*
X130288360Y-83371842D01*
X130277575Y-83331795D01*
X130275795Y-83313640D01*
X130260137Y-83153948D01*
X130203200Y-82965363D01*
X130166116Y-82895619D01*
X130113611Y-82796871D01*
X130113609Y-82796868D01*
X130110717Y-82791429D01*
X129986212Y-82638770D01*
X129920894Y-82584734D01*
X129839177Y-82517132D01*
X129839174Y-82517130D01*
X129834427Y-82513203D01*
X129661143Y-82419508D01*
X129472960Y-82361256D01*
X129466835Y-82360612D01*
X129466834Y-82360612D01*
X129283176Y-82341309D01*
X129283174Y-82341309D01*
X129277047Y-82340665D01*
X129195018Y-82348130D01*
X129087004Y-82357960D01*
X129087001Y-82357961D01*
X129080865Y-82358519D01*
X129074959Y-82360257D01*
X129074955Y-82360258D01*
X128934775Y-82401516D01*
X128891887Y-82414138D01*
X128886427Y-82416992D01*
X128886428Y-82416992D01*
X128722772Y-82502549D01*
X128722768Y-82502552D01*
X128717312Y-82505404D01*
X128563788Y-82628840D01*
X128437163Y-82779745D01*
X128428881Y-82794810D01*
X128357281Y-82925052D01*
X128342262Y-82952371D01*
X128340398Y-82958246D01*
X128340397Y-82958249D01*
X128337118Y-82968587D01*
X128282697Y-83140142D01*
X128260738Y-83335907D01*
X124369500Y-83335907D01*
X124369500Y-80914293D01*
X124389502Y-80846172D01*
X124443158Y-80799679D01*
X124513432Y-80789575D01*
X124578012Y-80819069D01*
X124616396Y-80878795D01*
X124618839Y-80888755D01*
X124619351Y-80893176D01*
X124685271Y-81126133D01*
X124687406Y-81130712D01*
X124687407Y-81130714D01*
X124741849Y-81247465D01*
X124787589Y-81345553D01*
X124790430Y-81349734D01*
X124790431Y-81349735D01*
X124825172Y-81400854D01*
X124824556Y-81401272D01*
X124825720Y-81402420D01*
X124825905Y-81402281D01*
X124825935Y-81402321D01*
X124826597Y-81403203D01*
X124826797Y-81403482D01*
X124826834Y-81403519D01*
X124828393Y-81405595D01*
X124829809Y-81407679D01*
X124829898Y-81407820D01*
X124830035Y-81408011D01*
X124923671Y-81545793D01*
X124927148Y-81549470D01*
X124927153Y-81549476D01*
X124972137Y-81597044D01*
X124971584Y-81597567D01*
X124973601Y-81598994D01*
X124974083Y-81599636D01*
X124977809Y-81603197D01*
X124978140Y-81603570D01*
X124981516Y-81606963D01*
X125023972Y-81651858D01*
X125090018Y-81721699D01*
X125094035Y-81724770D01*
X125094038Y-81724773D01*
X125148578Y-81766472D01*
X125149084Y-81766870D01*
X125152468Y-81770104D01*
X125156740Y-81773018D01*
X125157645Y-81773636D01*
X125163166Y-81777626D01*
X125278327Y-81865674D01*
X125278338Y-81865681D01*
X125282348Y-81868747D01*
X125346786Y-81903298D01*
X125349421Y-81904754D01*
X125352029Y-81906236D01*
X125356300Y-81909149D01*
X125360986Y-81911324D01*
X125360989Y-81911326D01*
X125363427Y-81912458D01*
X125369912Y-81915699D01*
X125495715Y-81983153D01*
X125500500Y-81984801D01*
X125500501Y-81984801D01*
X125567084Y-82007727D01*
X125570543Y-82009121D01*
X125570561Y-82009071D01*
X125575403Y-82010853D01*
X125580104Y-82013035D01*
X125588723Y-82015425D01*
X125596036Y-82017697D01*
X125724629Y-82061975D01*
X125729618Y-82062837D01*
X125729619Y-82062837D01*
X125803145Y-82075537D01*
X125808988Y-82076848D01*
X125812888Y-82077592D01*
X125817871Y-82078974D01*
X125827403Y-82079993D01*
X125835428Y-82081113D01*
X125963200Y-82103183D01*
X125967161Y-82103363D01*
X125967162Y-82103363D01*
X125990784Y-82104436D01*
X125990803Y-82104436D01*
X125992203Y-82104500D01*
X126160841Y-82104500D01*
X126163349Y-82104298D01*
X126163354Y-82104298D01*
X126336283Y-82090385D01*
X126336288Y-82090384D01*
X126341324Y-82089979D01*
X126346232Y-82088774D01*
X126346235Y-82088773D01*
X126571525Y-82033436D01*
X126576439Y-82032229D01*
X126581091Y-82030254D01*
X126581095Y-82030253D01*
X126794642Y-81939607D01*
X126794643Y-81939607D01*
X126799297Y-81937631D01*
X127004163Y-81808620D01*
X127185768Y-81648514D01*
X127339439Y-81461432D01*
X127436690Y-81294339D01*
X127458680Y-81256556D01*
X127458681Y-81256554D01*
X127461222Y-81252188D01*
X127499835Y-81151597D01*
X127546169Y-81030894D01*
X127546170Y-81030891D01*
X127547984Y-81026165D01*
X127597493Y-80789177D01*
X127600578Y-80721254D01*
X127603148Y-80664657D01*
X127603692Y-80652677D01*
X128391524Y-80652677D01*
X128419351Y-80893176D01*
X128485271Y-81126133D01*
X128487406Y-81130712D01*
X128487407Y-81130714D01*
X128541849Y-81247465D01*
X128587589Y-81345553D01*
X128590430Y-81349734D01*
X128590431Y-81349735D01*
X128625172Y-81400854D01*
X128624556Y-81401272D01*
X128625720Y-81402420D01*
X128625905Y-81402281D01*
X128625935Y-81402321D01*
X128626597Y-81403203D01*
X128626797Y-81403482D01*
X128626834Y-81403519D01*
X128628393Y-81405595D01*
X128629809Y-81407679D01*
X128629898Y-81407820D01*
X128630035Y-81408011D01*
X128723671Y-81545793D01*
X128727148Y-81549470D01*
X128727153Y-81549476D01*
X128772137Y-81597044D01*
X128771584Y-81597567D01*
X128773601Y-81598994D01*
X128774083Y-81599636D01*
X128777809Y-81603197D01*
X128778140Y-81603570D01*
X128781516Y-81606963D01*
X128823972Y-81651858D01*
X128890018Y-81721699D01*
X128894035Y-81724770D01*
X128894038Y-81724773D01*
X128948578Y-81766472D01*
X128949084Y-81766870D01*
X128952468Y-81770104D01*
X128956740Y-81773018D01*
X128957645Y-81773636D01*
X128963166Y-81777626D01*
X129078327Y-81865674D01*
X129078338Y-81865681D01*
X129082348Y-81868747D01*
X129146786Y-81903298D01*
X129149421Y-81904754D01*
X129152029Y-81906236D01*
X129156300Y-81909149D01*
X129160986Y-81911324D01*
X129160989Y-81911326D01*
X129163427Y-81912458D01*
X129169912Y-81915699D01*
X129295715Y-81983153D01*
X129300500Y-81984801D01*
X129300501Y-81984801D01*
X129367084Y-82007727D01*
X129370543Y-82009121D01*
X129370561Y-82009071D01*
X129375403Y-82010853D01*
X129380104Y-82013035D01*
X129388723Y-82015425D01*
X129396036Y-82017697D01*
X129524629Y-82061975D01*
X129529618Y-82062837D01*
X129529619Y-82062837D01*
X129603145Y-82075537D01*
X129608988Y-82076848D01*
X129612888Y-82077592D01*
X129617871Y-82078974D01*
X129627403Y-82079993D01*
X129635428Y-82081113D01*
X129763200Y-82103183D01*
X129767161Y-82103363D01*
X129767162Y-82103363D01*
X129790784Y-82104436D01*
X129790803Y-82104436D01*
X129792203Y-82104500D01*
X129960841Y-82104500D01*
X129963349Y-82104298D01*
X129963354Y-82104298D01*
X130136283Y-82090385D01*
X130136288Y-82090384D01*
X130141324Y-82089979D01*
X130146232Y-82088774D01*
X130146235Y-82088773D01*
X130371525Y-82033436D01*
X130376439Y-82032229D01*
X130381091Y-82030254D01*
X130381095Y-82030253D01*
X130594642Y-81939607D01*
X130594643Y-81939607D01*
X130599297Y-81937631D01*
X130804163Y-81808620D01*
X130985768Y-81648514D01*
X131139439Y-81461432D01*
X131236690Y-81294339D01*
X131258680Y-81256556D01*
X131258681Y-81256554D01*
X131261222Y-81252188D01*
X131299835Y-81151597D01*
X131346169Y-81030894D01*
X131346170Y-81030891D01*
X131347984Y-81026165D01*
X131397493Y-80789177D01*
X131400578Y-80721254D01*
X131403148Y-80664657D01*
X131408476Y-80547323D01*
X131380649Y-80306824D01*
X131368455Y-80263729D01*
X131316107Y-80078736D01*
X131316106Y-80078734D01*
X131314729Y-80073867D01*
X131304966Y-80052929D01*
X131214548Y-79859030D01*
X131212411Y-79854447D01*
X131188946Y-79819919D01*
X131174828Y-79799146D01*
X131175444Y-79798728D01*
X131174280Y-79797580D01*
X131174095Y-79797719D01*
X131173991Y-79797580D01*
X131173403Y-79796797D01*
X131173203Y-79796518D01*
X131173166Y-79796481D01*
X131171607Y-79794405D01*
X131170191Y-79792321D01*
X131170102Y-79792180D01*
X131169965Y-79791989D01*
X131076329Y-79654207D01*
X131072852Y-79650530D01*
X131072847Y-79650524D01*
X131027863Y-79602956D01*
X131028416Y-79602433D01*
X131026399Y-79601006D01*
X131025917Y-79600364D01*
X131022191Y-79596803D01*
X131021860Y-79596430D01*
X131018484Y-79593037D01*
X130913458Y-79481977D01*
X130909982Y-79478301D01*
X130905965Y-79475230D01*
X130905962Y-79475227D01*
X130851422Y-79433528D01*
X130850916Y-79433130D01*
X130847532Y-79429896D01*
X130843260Y-79426982D01*
X130842355Y-79426364D01*
X130836834Y-79422374D01*
X130721673Y-79334326D01*
X130721662Y-79334319D01*
X130717652Y-79331253D01*
X130653214Y-79296702D01*
X130650579Y-79295246D01*
X130647971Y-79293764D01*
X130643700Y-79290851D01*
X130639014Y-79288676D01*
X130639011Y-79288674D01*
X130636573Y-79287542D01*
X130630081Y-79284298D01*
X130597528Y-79266843D01*
X130504285Y-79216847D01*
X130432913Y-79192272D01*
X130429457Y-79190879D01*
X130429439Y-79190929D01*
X130424597Y-79189147D01*
X130419896Y-79186965D01*
X130411277Y-79184575D01*
X130403964Y-79182303D01*
X130275371Y-79138025D01*
X130270382Y-79137163D01*
X130270381Y-79137163D01*
X130196855Y-79124463D01*
X130191012Y-79123152D01*
X130187112Y-79122408D01*
X130182129Y-79121026D01*
X130172597Y-79120007D01*
X130164572Y-79118887D01*
X130036800Y-79096817D01*
X130032839Y-79096637D01*
X130032838Y-79096637D01*
X130009216Y-79095564D01*
X130009197Y-79095564D01*
X130007797Y-79095500D01*
X129839159Y-79095500D01*
X129836651Y-79095702D01*
X129836646Y-79095702D01*
X129663717Y-79109615D01*
X129663712Y-79109616D01*
X129658676Y-79110021D01*
X129653768Y-79111226D01*
X129653765Y-79111227D01*
X129537951Y-79139674D01*
X129423561Y-79167771D01*
X129418909Y-79169746D01*
X129418905Y-79169747D01*
X129302308Y-79219240D01*
X129200703Y-79262369D01*
X128995837Y-79391380D01*
X128814232Y-79551486D01*
X128660561Y-79738568D01*
X128636400Y-79780081D01*
X128546507Y-79934533D01*
X128538778Y-79947812D01*
X128536965Y-79952535D01*
X128467225Y-80134215D01*
X128452016Y-80173835D01*
X128402507Y-80410823D01*
X128402278Y-80415873D01*
X128402277Y-80415878D01*
X128398589Y-80497106D01*
X128391524Y-80652677D01*
X127603692Y-80652677D01*
X127608476Y-80547323D01*
X127580649Y-80306824D01*
X127568455Y-80263729D01*
X127516107Y-80078736D01*
X127516106Y-80078734D01*
X127514729Y-80073867D01*
X127504966Y-80052929D01*
X127414548Y-79859030D01*
X127412411Y-79854447D01*
X127388946Y-79819919D01*
X127374828Y-79799146D01*
X127375444Y-79798728D01*
X127374280Y-79797580D01*
X127374095Y-79797719D01*
X127373991Y-79797580D01*
X127373403Y-79796797D01*
X127373203Y-79796518D01*
X127373166Y-79796481D01*
X127371607Y-79794405D01*
X127370191Y-79792321D01*
X127370102Y-79792180D01*
X127369965Y-79791989D01*
X127276329Y-79654207D01*
X127272852Y-79650530D01*
X127272847Y-79650524D01*
X127227863Y-79602956D01*
X127228416Y-79602433D01*
X127226399Y-79601006D01*
X127225917Y-79600364D01*
X127222191Y-79596803D01*
X127221860Y-79596430D01*
X127218484Y-79593037D01*
X127113458Y-79481977D01*
X127109982Y-79478301D01*
X127105965Y-79475230D01*
X127105962Y-79475227D01*
X127051422Y-79433528D01*
X127050916Y-79433130D01*
X127047532Y-79429896D01*
X127043260Y-79426982D01*
X127042355Y-79426364D01*
X127036834Y-79422374D01*
X126921673Y-79334326D01*
X126921662Y-79334319D01*
X126917652Y-79331253D01*
X126853214Y-79296702D01*
X126850579Y-79295246D01*
X126847971Y-79293764D01*
X126843700Y-79290851D01*
X126839014Y-79288676D01*
X126839011Y-79288674D01*
X126836573Y-79287542D01*
X126830081Y-79284298D01*
X126797528Y-79266843D01*
X126704285Y-79216847D01*
X126632913Y-79192272D01*
X126629457Y-79190879D01*
X126629439Y-79190929D01*
X126624597Y-79189147D01*
X126619896Y-79186965D01*
X126611277Y-79184575D01*
X126603964Y-79182303D01*
X126475371Y-79138025D01*
X126470382Y-79137163D01*
X126470381Y-79137163D01*
X126396855Y-79124463D01*
X126391012Y-79123152D01*
X126387112Y-79122408D01*
X126382129Y-79121026D01*
X126372597Y-79120007D01*
X126364572Y-79118887D01*
X126236800Y-79096817D01*
X126232839Y-79096637D01*
X126232838Y-79096637D01*
X126209216Y-79095564D01*
X126209197Y-79095564D01*
X126207797Y-79095500D01*
X126039159Y-79095500D01*
X126036651Y-79095702D01*
X126036646Y-79095702D01*
X125863717Y-79109615D01*
X125863712Y-79109616D01*
X125858676Y-79110021D01*
X125853768Y-79111226D01*
X125853765Y-79111227D01*
X125737951Y-79139674D01*
X125623561Y-79167771D01*
X125618909Y-79169746D01*
X125618905Y-79169747D01*
X125502308Y-79219240D01*
X125400703Y-79262369D01*
X125195837Y-79391380D01*
X125014232Y-79551486D01*
X124860561Y-79738568D01*
X124836400Y-79780081D01*
X124746507Y-79934533D01*
X124738778Y-79947812D01*
X124736965Y-79952535D01*
X124667225Y-80134215D01*
X124652016Y-80173835D01*
X124633236Y-80263729D01*
X124618837Y-80332655D01*
X124585328Y-80395246D01*
X124523298Y-80429784D01*
X124452443Y-80425304D01*
X124395258Y-80383228D01*
X124369899Y-80316915D01*
X124369500Y-80306889D01*
X124369500Y-73029313D01*
X124389502Y-72961192D01*
X124433937Y-72919377D01*
X124438234Y-72916971D01*
X124438236Y-72916969D01*
X124443276Y-72914147D01*
X124599345Y-72784345D01*
X124729147Y-72628276D01*
X124731973Y-72623231D01*
X124734377Y-72618937D01*
X124785112Y-72569274D01*
X124844313Y-72554500D01*
X132118129Y-72554500D01*
X132186250Y-72574502D01*
X132207224Y-72591405D01*
X134008595Y-74392776D01*
X134042621Y-74455088D01*
X134045500Y-74481871D01*
X134045500Y-74858423D01*
X134025498Y-74926544D01*
X133971842Y-74973037D01*
X133901568Y-74983141D01*
X133836988Y-74953647D01*
X133818674Y-74933988D01*
X133790785Y-74896776D01*
X133785404Y-74889596D01*
X133764977Y-74874287D01*
X133676946Y-74808311D01*
X133676943Y-74808309D01*
X133669764Y-74802929D01*
X133580046Y-74769296D01*
X133541843Y-74754974D01*
X133541841Y-74754974D01*
X133534448Y-74752202D01*
X133526598Y-74751349D01*
X133526597Y-74751349D01*
X133476153Y-74745869D01*
X133476152Y-74745869D01*
X133472756Y-74745500D01*
X132127244Y-74745500D01*
X132123848Y-74745869D01*
X132123847Y-74745869D01*
X132073403Y-74751349D01*
X132073402Y-74751349D01*
X132065552Y-74752202D01*
X132058159Y-74754974D01*
X132058157Y-74754974D01*
X132019954Y-74769296D01*
X131930236Y-74802929D01*
X131923057Y-74808309D01*
X131923054Y-74808311D01*
X131835023Y-74874287D01*
X131814596Y-74889596D01*
X131809215Y-74896776D01*
X131733311Y-74998054D01*
X131733309Y-74998057D01*
X131727929Y-75005236D01*
X131724779Y-75013638D01*
X131724777Y-75013642D01*
X131724744Y-75013731D01*
X131724687Y-75013806D01*
X131720467Y-75021515D01*
X131719354Y-75020906D01*
X131682102Y-75070495D01*
X131615540Y-75095194D01*
X131606763Y-75095500D01*
X130565074Y-75095500D01*
X130559798Y-75095390D01*
X130497326Y-75092772D01*
X130488961Y-75094734D01*
X130454622Y-75102788D01*
X130442949Y-75104951D01*
X130432050Y-75106444D01*
X130399482Y-75110905D01*
X130386767Y-75116407D01*
X130385506Y-75116953D01*
X130364237Y-75123987D01*
X130349417Y-75127463D01*
X130310963Y-75148603D01*
X130300317Y-75153818D01*
X130267937Y-75167830D01*
X130267933Y-75167832D01*
X130260054Y-75171242D01*
X130253381Y-75176646D01*
X130253379Y-75176647D01*
X130248225Y-75180821D01*
X130229637Y-75193312D01*
X130216285Y-75200652D01*
X130211281Y-75204972D01*
X130209860Y-75206198D01*
X130209853Y-75206204D01*
X130208109Y-75207710D01*
X130183366Y-75232453D01*
X130173565Y-75241279D01*
X130148662Y-75261444D01*
X130148659Y-75261447D01*
X130141987Y-75266850D01*
X130130962Y-75282364D01*
X130117355Y-75298464D01*
X128888587Y-76527232D01*
X128884779Y-76530885D01*
X128838734Y-76573226D01*
X128834211Y-76580521D01*
X128834210Y-76580522D01*
X128815619Y-76610506D01*
X128808896Y-76620288D01*
X128782370Y-76655235D01*
X128779209Y-76663219D01*
X128776763Y-76669396D01*
X128766700Y-76689402D01*
X128763206Y-76695037D01*
X128763202Y-76695046D01*
X128758677Y-76702344D01*
X128756281Y-76710591D01*
X128746435Y-76744480D01*
X128742593Y-76755702D01*
X128726444Y-76796490D01*
X128725546Y-76805035D01*
X128724852Y-76811633D01*
X128720541Y-76833605D01*
X128716291Y-76848235D01*
X128715500Y-76859007D01*
X128715500Y-76894005D01*
X128714810Y-76907175D01*
X128710563Y-76947581D01*
X128710791Y-76948932D01*
X128693813Y-77014281D01*
X128664680Y-77047721D01*
X128563788Y-77128840D01*
X128437163Y-77279745D01*
X128430740Y-77291429D01*
X128354736Y-77429681D01*
X128342262Y-77452371D01*
X128340398Y-77458246D01*
X128340397Y-77458249D01*
X128321402Y-77518129D01*
X128282697Y-77640142D01*
X128270377Y-77749979D01*
X128261664Y-77827656D01*
X128260738Y-77835907D01*
X128261254Y-77842050D01*
X128261254Y-77842051D01*
X128276683Y-78025787D01*
X128277222Y-78032209D01*
X128298162Y-78105236D01*
X128329060Y-78212987D01*
X128331521Y-78221570D01*
X128421566Y-78396779D01*
X128425389Y-78401603D01*
X128425392Y-78401607D01*
X128453045Y-78436496D01*
X128543927Y-78551160D01*
X128548620Y-78555154D01*
X128548621Y-78555155D01*
X128573447Y-78576283D01*
X128693945Y-78678835D01*
X128699323Y-78681841D01*
X128699325Y-78681842D01*
X128729019Y-78698437D01*
X128865904Y-78774940D01*
X129053255Y-78835814D01*
X129248862Y-78859139D01*
X129254997Y-78858667D01*
X129254999Y-78858667D01*
X129314801Y-78854065D01*
X129445274Y-78844026D01*
X129635009Y-78791050D01*
X129640513Y-78788270D01*
X129805341Y-78705010D01*
X129805343Y-78705009D01*
X129810842Y-78702231D01*
X129966074Y-78580950D01*
X129970100Y-78576286D01*
X129970103Y-78576283D01*
X130090764Y-78436496D01*
X130090765Y-78436494D01*
X130094793Y-78431828D01*
X130192096Y-78260544D01*
X130254277Y-78073622D01*
X130278966Y-77878183D01*
X130279258Y-77857325D01*
X130279311Y-77853522D01*
X130279311Y-77853518D01*
X130279360Y-77850000D01*
X130260137Y-77653948D01*
X130203200Y-77465363D01*
X130193418Y-77446966D01*
X130113611Y-77296871D01*
X130113609Y-77296868D01*
X130110717Y-77291429D01*
X130057393Y-77226047D01*
X129994919Y-77149445D01*
X129967365Y-77084013D01*
X129979561Y-77014072D01*
X130003467Y-76980715D01*
X130742777Y-76241405D01*
X130805089Y-76207379D01*
X130831872Y-76204500D01*
X131606763Y-76204500D01*
X131674884Y-76224502D01*
X131721377Y-76278158D01*
X131724744Y-76286269D01*
X131724777Y-76286358D01*
X131724779Y-76286362D01*
X131727929Y-76294764D01*
X131733309Y-76301943D01*
X131733311Y-76301946D01*
X131781326Y-76366012D01*
X131814596Y-76410404D01*
X131821776Y-76415785D01*
X131923054Y-76491689D01*
X131923057Y-76491691D01*
X131930236Y-76497071D01*
X132015709Y-76529113D01*
X132058157Y-76545026D01*
X132058159Y-76545026D01*
X132065552Y-76547798D01*
X132073402Y-76548651D01*
X132073403Y-76548651D01*
X132123847Y-76554131D01*
X132127244Y-76554500D01*
X133472756Y-76554500D01*
X133476153Y-76554131D01*
X133526597Y-76548651D01*
X133526598Y-76548651D01*
X133534448Y-76547798D01*
X133541841Y-76545026D01*
X133541843Y-76545026D01*
X133584291Y-76529113D01*
X133669764Y-76497071D01*
X133676943Y-76491691D01*
X133676946Y-76491689D01*
X133778224Y-76415785D01*
X133785404Y-76410404D01*
X133818674Y-76366012D01*
X133875533Y-76323497D01*
X133946352Y-76318471D01*
X134008645Y-76352531D01*
X134042635Y-76414862D01*
X134045500Y-76441577D01*
X134045500Y-77784925D01*
X134045390Y-77790201D01*
X134042772Y-77852674D01*
X134044734Y-77861039D01*
X134052788Y-77895378D01*
X134054951Y-77907051D01*
X134060905Y-77950518D01*
X134063159Y-77955727D01*
X134062229Y-78025313D01*
X134031555Y-78071670D01*
X134083517Y-78075294D01*
X134140428Y-78117739D01*
X134143568Y-78122599D01*
X134143703Y-78122505D01*
X134147465Y-78127918D01*
X134150652Y-78133715D01*
X134157710Y-78141891D01*
X134182453Y-78166634D01*
X134191279Y-78176435D01*
X134211444Y-78201338D01*
X134211447Y-78201341D01*
X134216850Y-78208013D01*
X134232364Y-78219038D01*
X134248464Y-78232645D01*
X135147232Y-79131413D01*
X135150885Y-79135221D01*
X135182634Y-79169747D01*
X135193226Y-79181266D01*
X135227942Y-79202791D01*
X135275295Y-79255685D01*
X135279525Y-79265644D01*
X135327929Y-79394764D01*
X135333309Y-79401943D01*
X135333311Y-79401946D01*
X135372698Y-79454500D01*
X135414596Y-79510404D01*
X135421776Y-79515785D01*
X135523054Y-79591689D01*
X135523057Y-79591691D01*
X135530236Y-79597071D01*
X135591184Y-79619919D01*
X135658157Y-79645026D01*
X135658159Y-79645026D01*
X135665552Y-79647798D01*
X135673402Y-79648651D01*
X135673403Y-79648651D01*
X135681714Y-79649554D01*
X135727244Y-79654500D01*
X135727234Y-79654588D01*
X135793261Y-79677927D01*
X135836780Y-79734022D01*
X135845500Y-79780081D01*
X135845500Y-79819919D01*
X135825498Y-79888040D01*
X135771842Y-79934533D01*
X135727274Y-79945500D01*
X135727244Y-79945500D01*
X135681714Y-79950446D01*
X135673403Y-79951349D01*
X135673402Y-79951349D01*
X135665552Y-79952202D01*
X135658159Y-79954974D01*
X135658157Y-79954974D01*
X135619954Y-79969296D01*
X135530236Y-80002929D01*
X135523057Y-80008309D01*
X135523054Y-80008311D01*
X135435583Y-80073867D01*
X135414596Y-80089596D01*
X135409215Y-80096776D01*
X135333311Y-80198054D01*
X135333309Y-80198057D01*
X135327929Y-80205236D01*
X135324779Y-80213640D01*
X135306001Y-80263729D01*
X135263360Y-80320494D01*
X135196798Y-80345194D01*
X135188019Y-80345500D01*
X133993237Y-80345500D01*
X133925116Y-80325498D01*
X133878623Y-80271842D01*
X133875256Y-80263731D01*
X133875223Y-80263642D01*
X133875221Y-80263638D01*
X133872071Y-80255236D01*
X133866691Y-80248057D01*
X133866689Y-80248054D01*
X133790785Y-80146776D01*
X133785404Y-80139596D01*
X133726567Y-80095500D01*
X133676946Y-80058311D01*
X133676943Y-80058309D01*
X133669764Y-80052929D01*
X133550744Y-80008311D01*
X133541843Y-80004974D01*
X133541841Y-80004974D01*
X133534448Y-80002202D01*
X133526598Y-80001349D01*
X133526597Y-80001349D01*
X133512144Y-79999779D01*
X133472756Y-79995500D01*
X133472766Y-79995412D01*
X133406739Y-79972073D01*
X133363220Y-79915978D01*
X133354500Y-79869919D01*
X133354500Y-79780081D01*
X133374502Y-79711960D01*
X133428158Y-79665467D01*
X133472726Y-79654500D01*
X133472756Y-79654500D01*
X133518286Y-79649554D01*
X133526597Y-79648651D01*
X133526598Y-79648651D01*
X133534448Y-79647798D01*
X133541841Y-79645026D01*
X133541843Y-79645026D01*
X133608816Y-79619919D01*
X133669764Y-79597071D01*
X133676943Y-79591691D01*
X133676946Y-79591689D01*
X133778224Y-79515785D01*
X133785404Y-79510404D01*
X133827302Y-79454500D01*
X133866689Y-79401946D01*
X133866691Y-79401943D01*
X133872071Y-79394764D01*
X133922798Y-79259448D01*
X133929500Y-79197756D01*
X133929500Y-78302244D01*
X133929131Y-78298847D01*
X133923651Y-78248403D01*
X133923651Y-78248402D01*
X133922798Y-78240552D01*
X133920026Y-78233157D01*
X133918198Y-78225470D01*
X133920778Y-78224857D01*
X133916526Y-78166862D01*
X133946707Y-78111358D01*
X133887949Y-78102107D01*
X133840993Y-78063769D01*
X133785404Y-77989596D01*
X133733262Y-77950518D01*
X133676946Y-77908311D01*
X133676943Y-77908309D01*
X133669764Y-77902929D01*
X133548114Y-77857325D01*
X133541843Y-77854974D01*
X133541841Y-77854974D01*
X133534448Y-77852202D01*
X133526598Y-77851349D01*
X133526597Y-77851349D01*
X133476153Y-77845869D01*
X133476152Y-77845869D01*
X133472756Y-77845500D01*
X132127244Y-77845500D01*
X132123848Y-77845869D01*
X132123847Y-77845869D01*
X132073403Y-77851349D01*
X132073402Y-77851349D01*
X132065552Y-77852202D01*
X132058159Y-77854974D01*
X132058157Y-77854974D01*
X132051886Y-77857325D01*
X131930236Y-77902929D01*
X131923057Y-77908309D01*
X131923054Y-77908311D01*
X131866738Y-77950518D01*
X131814596Y-77989596D01*
X131809216Y-77996775D01*
X131809215Y-77996776D01*
X131733311Y-78098054D01*
X131733309Y-78098057D01*
X131727929Y-78105236D01*
X131714188Y-78141891D01*
X131685269Y-78219034D01*
X131677202Y-78240552D01*
X131676349Y-78248402D01*
X131676349Y-78248403D01*
X131670869Y-78298847D01*
X131670500Y-78302244D01*
X131670500Y-79197756D01*
X131677202Y-79259448D01*
X131727929Y-79394764D01*
X131733309Y-79401943D01*
X131733311Y-79401946D01*
X131772698Y-79454500D01*
X131814596Y-79510404D01*
X131821776Y-79515785D01*
X131923054Y-79591689D01*
X131923057Y-79591691D01*
X131930236Y-79597071D01*
X131991184Y-79619919D01*
X132058157Y-79645026D01*
X132058159Y-79645026D01*
X132065552Y-79647798D01*
X132073402Y-79648651D01*
X132073403Y-79648651D01*
X132081714Y-79649554D01*
X132127244Y-79654500D01*
X132127234Y-79654588D01*
X132193261Y-79677927D01*
X132236780Y-79734022D01*
X132245500Y-79780081D01*
X132245500Y-79869919D01*
X132225498Y-79938040D01*
X132171842Y-79984533D01*
X132127274Y-79995500D01*
X132127244Y-79995500D01*
X132087856Y-79999779D01*
X132073403Y-80001349D01*
X132073402Y-80001349D01*
X132065552Y-80002202D01*
X132058159Y-80004974D01*
X132058157Y-80004974D01*
X132049256Y-80008311D01*
X131930236Y-80052929D01*
X131923057Y-80058309D01*
X131923054Y-80058311D01*
X131873433Y-80095500D01*
X131814596Y-80139596D01*
X131809215Y-80146776D01*
X131733311Y-80248054D01*
X131733309Y-80248057D01*
X131727929Y-80255236D01*
X131677202Y-80390552D01*
X131670500Y-80452244D01*
X131670500Y-81347756D01*
X131670869Y-81351152D01*
X131670869Y-81351153D01*
X131672574Y-81366843D01*
X131677202Y-81409448D01*
X131727929Y-81544764D01*
X131733309Y-81551943D01*
X131733311Y-81551946D01*
X131767502Y-81597567D01*
X131814596Y-81660404D01*
X131821776Y-81665785D01*
X131923054Y-81741689D01*
X131923057Y-81741691D01*
X131930236Y-81747071D01*
X131999451Y-81773018D01*
X132058157Y-81795026D01*
X132058159Y-81795026D01*
X132065552Y-81797798D01*
X132073402Y-81798651D01*
X132073403Y-81798651D01*
X132123847Y-81804131D01*
X132127244Y-81804500D01*
X133472756Y-81804500D01*
X133476153Y-81804131D01*
X133526597Y-81798651D01*
X133526598Y-81798651D01*
X133534448Y-81797798D01*
X133541841Y-81795026D01*
X133541843Y-81795026D01*
X133600549Y-81773018D01*
X133669764Y-81747071D01*
X133676943Y-81741691D01*
X133676946Y-81741689D01*
X133778224Y-81665785D01*
X133785404Y-81660404D01*
X133832498Y-81597567D01*
X133866689Y-81551946D01*
X133866691Y-81551943D01*
X133872071Y-81544764D01*
X133875221Y-81536362D01*
X133875223Y-81536358D01*
X133875256Y-81536269D01*
X133875313Y-81536194D01*
X133879533Y-81528485D01*
X133880646Y-81529094D01*
X133917898Y-81479505D01*
X133984460Y-81454806D01*
X133993237Y-81454500D01*
X135234726Y-81454500D01*
X135302847Y-81474502D01*
X135335551Y-81504934D01*
X135414596Y-81610404D01*
X135421776Y-81615785D01*
X135523054Y-81691689D01*
X135523057Y-81691691D01*
X135530236Y-81697071D01*
X135595932Y-81721699D01*
X135658157Y-81745026D01*
X135658159Y-81745026D01*
X135665552Y-81747798D01*
X135673402Y-81748651D01*
X135673403Y-81748651D01*
X135723847Y-81754131D01*
X135727244Y-81754500D01*
X137072756Y-81754500D01*
X137076153Y-81754131D01*
X137126597Y-81748651D01*
X137126598Y-81748651D01*
X137134448Y-81747798D01*
X137141841Y-81745026D01*
X137141843Y-81745026D01*
X137204068Y-81721699D01*
X137269764Y-81697071D01*
X137276943Y-81691691D01*
X137276946Y-81691689D01*
X137378224Y-81615785D01*
X137385404Y-81610404D01*
X137431685Y-81548651D01*
X137466689Y-81501946D01*
X137466691Y-81501943D01*
X137472071Y-81494764D01*
X137522798Y-81359448D01*
X137529500Y-81297756D01*
X137529500Y-80652677D01*
X137791524Y-80652677D01*
X137819351Y-80893176D01*
X137885271Y-81126133D01*
X137887406Y-81130712D01*
X137887407Y-81130714D01*
X137941849Y-81247465D01*
X137987589Y-81345553D01*
X137990430Y-81349734D01*
X137990431Y-81349735D01*
X138025172Y-81400854D01*
X138024556Y-81401272D01*
X138025720Y-81402420D01*
X138025905Y-81402281D01*
X138025935Y-81402321D01*
X138026597Y-81403203D01*
X138026797Y-81403482D01*
X138026834Y-81403519D01*
X138028393Y-81405595D01*
X138029809Y-81407679D01*
X138029898Y-81407820D01*
X138030035Y-81408011D01*
X138123671Y-81545793D01*
X138127148Y-81549470D01*
X138127153Y-81549476D01*
X138172137Y-81597044D01*
X138171584Y-81597567D01*
X138173601Y-81598994D01*
X138174083Y-81599636D01*
X138177809Y-81603197D01*
X138178140Y-81603570D01*
X138181516Y-81606963D01*
X138223972Y-81651858D01*
X138290018Y-81721699D01*
X138294035Y-81724770D01*
X138294038Y-81724773D01*
X138348578Y-81766472D01*
X138349084Y-81766870D01*
X138352468Y-81770104D01*
X138356740Y-81773018D01*
X138357645Y-81773636D01*
X138363166Y-81777626D01*
X138478327Y-81865674D01*
X138478338Y-81865681D01*
X138482348Y-81868747D01*
X138546786Y-81903298D01*
X138549421Y-81904754D01*
X138552029Y-81906236D01*
X138556300Y-81909149D01*
X138560986Y-81911324D01*
X138560989Y-81911326D01*
X138563427Y-81912458D01*
X138569912Y-81915699D01*
X138695715Y-81983153D01*
X138700500Y-81984801D01*
X138700501Y-81984801D01*
X138767084Y-82007727D01*
X138770543Y-82009121D01*
X138770561Y-82009071D01*
X138775403Y-82010853D01*
X138780104Y-82013035D01*
X138788723Y-82015425D01*
X138796036Y-82017697D01*
X138924629Y-82061975D01*
X138929618Y-82062837D01*
X138929619Y-82062837D01*
X139003145Y-82075537D01*
X139008988Y-82076848D01*
X139012888Y-82077592D01*
X139017871Y-82078974D01*
X139027403Y-82079993D01*
X139035428Y-82081113D01*
X139163200Y-82103183D01*
X139167161Y-82103363D01*
X139167162Y-82103363D01*
X139190784Y-82104436D01*
X139190803Y-82104436D01*
X139192203Y-82104500D01*
X139360841Y-82104500D01*
X139363349Y-82104298D01*
X139363354Y-82104298D01*
X139536283Y-82090385D01*
X139536288Y-82090384D01*
X139541324Y-82089979D01*
X139546232Y-82088774D01*
X139546235Y-82088773D01*
X139771525Y-82033436D01*
X139776439Y-82032229D01*
X139781091Y-82030254D01*
X139781095Y-82030253D01*
X139994642Y-81939607D01*
X139994643Y-81939607D01*
X139999297Y-81937631D01*
X140204163Y-81808620D01*
X140385768Y-81648514D01*
X140539439Y-81461432D01*
X140636690Y-81294339D01*
X140658680Y-81256556D01*
X140658681Y-81256554D01*
X140661222Y-81252188D01*
X140699835Y-81151597D01*
X140746169Y-81030894D01*
X140746170Y-81030891D01*
X140747984Y-81026165D01*
X140797493Y-80789177D01*
X140800578Y-80721254D01*
X140803148Y-80664657D01*
X140803692Y-80652677D01*
X141591524Y-80652677D01*
X141619351Y-80893176D01*
X141685271Y-81126133D01*
X141687406Y-81130712D01*
X141687407Y-81130714D01*
X141741849Y-81247465D01*
X141787589Y-81345553D01*
X141790430Y-81349734D01*
X141790431Y-81349735D01*
X141825172Y-81400854D01*
X141824556Y-81401272D01*
X141825720Y-81402420D01*
X141825905Y-81402281D01*
X141825935Y-81402321D01*
X141826597Y-81403203D01*
X141826797Y-81403482D01*
X141826834Y-81403519D01*
X141828393Y-81405595D01*
X141829809Y-81407679D01*
X141829898Y-81407820D01*
X141830035Y-81408011D01*
X141923671Y-81545793D01*
X141927148Y-81549470D01*
X141927153Y-81549476D01*
X141972137Y-81597044D01*
X141971584Y-81597567D01*
X141973601Y-81598994D01*
X141974083Y-81599636D01*
X141977809Y-81603197D01*
X141978140Y-81603570D01*
X141981516Y-81606963D01*
X142023972Y-81651858D01*
X142090018Y-81721699D01*
X142094035Y-81724770D01*
X142094038Y-81724773D01*
X142148578Y-81766472D01*
X142149084Y-81766870D01*
X142152468Y-81770104D01*
X142156740Y-81773018D01*
X142157645Y-81773636D01*
X142163166Y-81777626D01*
X142278327Y-81865674D01*
X142278338Y-81865681D01*
X142282348Y-81868747D01*
X142346786Y-81903298D01*
X142349421Y-81904754D01*
X142352029Y-81906236D01*
X142356300Y-81909149D01*
X142360986Y-81911324D01*
X142360989Y-81911326D01*
X142363427Y-81912458D01*
X142369912Y-81915699D01*
X142495715Y-81983153D01*
X142500500Y-81984801D01*
X142500501Y-81984801D01*
X142567084Y-82007727D01*
X142570543Y-82009121D01*
X142570561Y-82009071D01*
X142575403Y-82010853D01*
X142580104Y-82013035D01*
X142588723Y-82015425D01*
X142596036Y-82017697D01*
X142724629Y-82061975D01*
X142729618Y-82062837D01*
X142729619Y-82062837D01*
X142803145Y-82075537D01*
X142808988Y-82076848D01*
X142812888Y-82077592D01*
X142817871Y-82078974D01*
X142827403Y-82079993D01*
X142835428Y-82081113D01*
X142963200Y-82103183D01*
X142967161Y-82103363D01*
X142967162Y-82103363D01*
X142990784Y-82104436D01*
X142990803Y-82104436D01*
X142992203Y-82104500D01*
X143160841Y-82104500D01*
X143163349Y-82104298D01*
X143163354Y-82104298D01*
X143336283Y-82090385D01*
X143336288Y-82090384D01*
X143341324Y-82089979D01*
X143346232Y-82088774D01*
X143346235Y-82088773D01*
X143571525Y-82033436D01*
X143576439Y-82032229D01*
X143581091Y-82030254D01*
X143581095Y-82030253D01*
X143794642Y-81939607D01*
X143794643Y-81939607D01*
X143799297Y-81937631D01*
X144004163Y-81808620D01*
X144185768Y-81648514D01*
X144339439Y-81461432D01*
X144436690Y-81294339D01*
X144458680Y-81256556D01*
X144458681Y-81256554D01*
X144461222Y-81252188D01*
X144499835Y-81151597D01*
X144546169Y-81030894D01*
X144546170Y-81030891D01*
X144547984Y-81026165D01*
X144597493Y-80789177D01*
X144600578Y-80721254D01*
X144603148Y-80664657D01*
X144608476Y-80547323D01*
X144580649Y-80306824D01*
X144568455Y-80263729D01*
X144516107Y-80078736D01*
X144516106Y-80078734D01*
X144514729Y-80073867D01*
X144504966Y-80052929D01*
X144414548Y-79859030D01*
X144412411Y-79854447D01*
X144388946Y-79819919D01*
X144374828Y-79799146D01*
X144375444Y-79798728D01*
X144374280Y-79797580D01*
X144374095Y-79797719D01*
X144373991Y-79797580D01*
X144373403Y-79796797D01*
X144373203Y-79796518D01*
X144373166Y-79796481D01*
X144371607Y-79794405D01*
X144370191Y-79792321D01*
X144370102Y-79792180D01*
X144369965Y-79791989D01*
X144276329Y-79654207D01*
X144272852Y-79650530D01*
X144272847Y-79650524D01*
X144227863Y-79602956D01*
X144228416Y-79602433D01*
X144226399Y-79601006D01*
X144225917Y-79600364D01*
X144222191Y-79596803D01*
X144221860Y-79596430D01*
X144218484Y-79593037D01*
X144113458Y-79481977D01*
X144109982Y-79478301D01*
X144105965Y-79475230D01*
X144105962Y-79475227D01*
X144051422Y-79433528D01*
X144050916Y-79433130D01*
X144047532Y-79429896D01*
X144043260Y-79426982D01*
X144042355Y-79426364D01*
X144036834Y-79422374D01*
X143921673Y-79334326D01*
X143921662Y-79334319D01*
X143917652Y-79331253D01*
X143853214Y-79296702D01*
X143850579Y-79295246D01*
X143847971Y-79293764D01*
X143843700Y-79290851D01*
X143839014Y-79288676D01*
X143839011Y-79288674D01*
X143836573Y-79287542D01*
X143830081Y-79284298D01*
X143797528Y-79266843D01*
X143704285Y-79216847D01*
X143632913Y-79192272D01*
X143629457Y-79190879D01*
X143629439Y-79190929D01*
X143624597Y-79189147D01*
X143619896Y-79186965D01*
X143611277Y-79184575D01*
X143603964Y-79182303D01*
X143475371Y-79138025D01*
X143470382Y-79137163D01*
X143470381Y-79137163D01*
X143396855Y-79124463D01*
X143391012Y-79123152D01*
X143387112Y-79122408D01*
X143382129Y-79121026D01*
X143372597Y-79120007D01*
X143364572Y-79118887D01*
X143236800Y-79096817D01*
X143232839Y-79096637D01*
X143232838Y-79096637D01*
X143209216Y-79095564D01*
X143209197Y-79095564D01*
X143207797Y-79095500D01*
X143039159Y-79095500D01*
X143036651Y-79095702D01*
X143036646Y-79095702D01*
X142863717Y-79109615D01*
X142863712Y-79109616D01*
X142858676Y-79110021D01*
X142853768Y-79111226D01*
X142853765Y-79111227D01*
X142737951Y-79139674D01*
X142623561Y-79167771D01*
X142618909Y-79169746D01*
X142618905Y-79169747D01*
X142502308Y-79219240D01*
X142400703Y-79262369D01*
X142195837Y-79391380D01*
X142014232Y-79551486D01*
X141860561Y-79738568D01*
X141836400Y-79780081D01*
X141746507Y-79934533D01*
X141738778Y-79947812D01*
X141736965Y-79952535D01*
X141667225Y-80134215D01*
X141652016Y-80173835D01*
X141602507Y-80410823D01*
X141602278Y-80415873D01*
X141602277Y-80415878D01*
X141598589Y-80497106D01*
X141591524Y-80652677D01*
X140803692Y-80652677D01*
X140808476Y-80547323D01*
X140780649Y-80306824D01*
X140768455Y-80263729D01*
X140716107Y-80078736D01*
X140716106Y-80078734D01*
X140714729Y-80073867D01*
X140704966Y-80052929D01*
X140614548Y-79859030D01*
X140612411Y-79854447D01*
X140588946Y-79819919D01*
X140574828Y-79799146D01*
X140575444Y-79798728D01*
X140574280Y-79797580D01*
X140574095Y-79797719D01*
X140573991Y-79797580D01*
X140573403Y-79796797D01*
X140573203Y-79796518D01*
X140573166Y-79796481D01*
X140571607Y-79794405D01*
X140570191Y-79792321D01*
X140570102Y-79792180D01*
X140569965Y-79791989D01*
X140476329Y-79654207D01*
X140472852Y-79650530D01*
X140472847Y-79650524D01*
X140427863Y-79602956D01*
X140428416Y-79602433D01*
X140426399Y-79601006D01*
X140425917Y-79600364D01*
X140422191Y-79596803D01*
X140421860Y-79596430D01*
X140418484Y-79593037D01*
X140313458Y-79481977D01*
X140309982Y-79478301D01*
X140305965Y-79475230D01*
X140305962Y-79475227D01*
X140251422Y-79433528D01*
X140250916Y-79433130D01*
X140247532Y-79429896D01*
X140243260Y-79426982D01*
X140242355Y-79426364D01*
X140236834Y-79422374D01*
X140121673Y-79334326D01*
X140121662Y-79334319D01*
X140117652Y-79331253D01*
X140053214Y-79296702D01*
X140050579Y-79295246D01*
X140047971Y-79293764D01*
X140043700Y-79290851D01*
X140039014Y-79288676D01*
X140039011Y-79288674D01*
X140036573Y-79287542D01*
X140030081Y-79284298D01*
X139997528Y-79266843D01*
X139904285Y-79216847D01*
X139832913Y-79192272D01*
X139829457Y-79190879D01*
X139829439Y-79190929D01*
X139824597Y-79189147D01*
X139819896Y-79186965D01*
X139811277Y-79184575D01*
X139803964Y-79182303D01*
X139675371Y-79138025D01*
X139670382Y-79137163D01*
X139670381Y-79137163D01*
X139596855Y-79124463D01*
X139591012Y-79123152D01*
X139587112Y-79122408D01*
X139582129Y-79121026D01*
X139572597Y-79120007D01*
X139564572Y-79118887D01*
X139436800Y-79096817D01*
X139432839Y-79096637D01*
X139432838Y-79096637D01*
X139409216Y-79095564D01*
X139409197Y-79095564D01*
X139407797Y-79095500D01*
X139239159Y-79095500D01*
X139236651Y-79095702D01*
X139236646Y-79095702D01*
X139063717Y-79109615D01*
X139063712Y-79109616D01*
X139058676Y-79110021D01*
X139053768Y-79111226D01*
X139053765Y-79111227D01*
X138937951Y-79139674D01*
X138823561Y-79167771D01*
X138818909Y-79169746D01*
X138818905Y-79169747D01*
X138702308Y-79219240D01*
X138600703Y-79262369D01*
X138395837Y-79391380D01*
X138214232Y-79551486D01*
X138060561Y-79738568D01*
X138036400Y-79780081D01*
X137946507Y-79934533D01*
X137938778Y-79947812D01*
X137936965Y-79952535D01*
X137867225Y-80134215D01*
X137852016Y-80173835D01*
X137802507Y-80410823D01*
X137802278Y-80415873D01*
X137802277Y-80415878D01*
X137798589Y-80497106D01*
X137791524Y-80652677D01*
X137529500Y-80652677D01*
X137529500Y-80402244D01*
X137528230Y-80390552D01*
X137523651Y-80348403D01*
X137523651Y-80348402D01*
X137522798Y-80340552D01*
X137510179Y-80306889D01*
X137490815Y-80255236D01*
X137472071Y-80205236D01*
X137466691Y-80198057D01*
X137466689Y-80198054D01*
X137390785Y-80096776D01*
X137385404Y-80089596D01*
X137364417Y-80073867D01*
X137276946Y-80008311D01*
X137276943Y-80008309D01*
X137269764Y-80002929D01*
X137180046Y-79969296D01*
X137141843Y-79954974D01*
X137141841Y-79954974D01*
X137134448Y-79952202D01*
X137126598Y-79951349D01*
X137126597Y-79951349D01*
X137118286Y-79950446D01*
X137072756Y-79945500D01*
X137072766Y-79945412D01*
X137006739Y-79922073D01*
X136963220Y-79865978D01*
X136954500Y-79819919D01*
X136954500Y-79780081D01*
X136974502Y-79711960D01*
X137028158Y-79665467D01*
X137072726Y-79654500D01*
X137072756Y-79654500D01*
X137118286Y-79649554D01*
X137126597Y-79648651D01*
X137126598Y-79648651D01*
X137134448Y-79647798D01*
X137141841Y-79645026D01*
X137141843Y-79645026D01*
X137208816Y-79619919D01*
X137269764Y-79597071D01*
X137276943Y-79591691D01*
X137276946Y-79591689D01*
X137378224Y-79515785D01*
X137385404Y-79510404D01*
X137427302Y-79454500D01*
X137466689Y-79401946D01*
X137466691Y-79401943D01*
X137472071Y-79394764D01*
X137522798Y-79259448D01*
X137529500Y-79197756D01*
X137529500Y-78302244D01*
X137529131Y-78298847D01*
X137523651Y-78248403D01*
X137523651Y-78248402D01*
X137522798Y-78240552D01*
X137514732Y-78219034D01*
X137485812Y-78141891D01*
X137472071Y-78105236D01*
X137466691Y-78098057D01*
X137466689Y-78098054D01*
X137390785Y-77996776D01*
X137390784Y-77996775D01*
X137385404Y-77989596D01*
X137333262Y-77950518D01*
X137276946Y-77908311D01*
X137276943Y-77908309D01*
X137269764Y-77902929D01*
X137148114Y-77857325D01*
X137141843Y-77854974D01*
X137141841Y-77854974D01*
X137134448Y-77852202D01*
X137126598Y-77851349D01*
X137126597Y-77851349D01*
X137076153Y-77845869D01*
X137076152Y-77845869D01*
X137072756Y-77845500D01*
X135727244Y-77845500D01*
X135723848Y-77845869D01*
X135723847Y-77845869D01*
X135673403Y-77851349D01*
X135673402Y-77851349D01*
X135665552Y-77852202D01*
X135658159Y-77854974D01*
X135658157Y-77854974D01*
X135651886Y-77857325D01*
X135574829Y-77886212D01*
X135504023Y-77891395D01*
X135441506Y-77857325D01*
X135191405Y-77607224D01*
X135157379Y-77544912D01*
X135154500Y-77518129D01*
X135154500Y-76441577D01*
X135174502Y-76373456D01*
X135228158Y-76326963D01*
X135298432Y-76316859D01*
X135363012Y-76346353D01*
X135381326Y-76366012D01*
X135414596Y-76410404D01*
X135421776Y-76415785D01*
X135523054Y-76491689D01*
X135523057Y-76491691D01*
X135530236Y-76497071D01*
X135615709Y-76529113D01*
X135658157Y-76545026D01*
X135658159Y-76545026D01*
X135665552Y-76547798D01*
X135673402Y-76548651D01*
X135673403Y-76548651D01*
X135723847Y-76554131D01*
X135727244Y-76554500D01*
X137072756Y-76554500D01*
X137076153Y-76554131D01*
X137126597Y-76548651D01*
X137126598Y-76548651D01*
X137134448Y-76547798D01*
X137141841Y-76545026D01*
X137141843Y-76545026D01*
X137184291Y-76529113D01*
X137269764Y-76497071D01*
X137276943Y-76491691D01*
X137276946Y-76491689D01*
X137378224Y-76415785D01*
X137385404Y-76410404D01*
X137418674Y-76366012D01*
X137466689Y-76301946D01*
X137466691Y-76301943D01*
X137472071Y-76294764D01*
X137475221Y-76286362D01*
X137475223Y-76286358D01*
X137475256Y-76286269D01*
X137475313Y-76286194D01*
X137479533Y-76278485D01*
X137480646Y-76279094D01*
X137517898Y-76229505D01*
X137584460Y-76204806D01*
X137593237Y-76204500D01*
X141368129Y-76204500D01*
X141436250Y-76224502D01*
X141457224Y-76241405D01*
X141878595Y-76662776D01*
X141912621Y-76725088D01*
X141915500Y-76751871D01*
X141915500Y-76946491D01*
X141895498Y-77014612D01*
X141868452Y-77044688D01*
X141830708Y-77075035D01*
X141763788Y-77128840D01*
X141637163Y-77279745D01*
X141630740Y-77291429D01*
X141554736Y-77429681D01*
X141542262Y-77452371D01*
X141540398Y-77458246D01*
X141540397Y-77458249D01*
X141521402Y-77518129D01*
X141482697Y-77640142D01*
X141470377Y-77749979D01*
X141461664Y-77827656D01*
X141460738Y-77835907D01*
X141461254Y-77842050D01*
X141461254Y-77842051D01*
X141476683Y-78025787D01*
X141477222Y-78032209D01*
X141498162Y-78105236D01*
X141529060Y-78212987D01*
X141531521Y-78221570D01*
X141621566Y-78396779D01*
X141625389Y-78401603D01*
X141625392Y-78401607D01*
X141653045Y-78436496D01*
X141743927Y-78551160D01*
X141748620Y-78555154D01*
X141748621Y-78555155D01*
X141773447Y-78576283D01*
X141893945Y-78678835D01*
X141899323Y-78681841D01*
X141899325Y-78681842D01*
X141929019Y-78698437D01*
X142065904Y-78774940D01*
X142253255Y-78835814D01*
X142448862Y-78859139D01*
X142454997Y-78858667D01*
X142454999Y-78858667D01*
X142514801Y-78854065D01*
X142645274Y-78844026D01*
X142835009Y-78791050D01*
X142840513Y-78788270D01*
X143005341Y-78705010D01*
X143005343Y-78705009D01*
X143010842Y-78702231D01*
X143166074Y-78580950D01*
X143170100Y-78576286D01*
X143170103Y-78576283D01*
X143290764Y-78436496D01*
X143290765Y-78436494D01*
X143294793Y-78431828D01*
X143392096Y-78260544D01*
X143454277Y-78073622D01*
X143478966Y-77878183D01*
X143479258Y-77857325D01*
X143479311Y-77853522D01*
X143479311Y-77853518D01*
X143479360Y-77850000D01*
X143460137Y-77653948D01*
X143403200Y-77465363D01*
X143393418Y-77446966D01*
X143313611Y-77296871D01*
X143313609Y-77296868D01*
X143310717Y-77291429D01*
X143186212Y-77138770D01*
X143117145Y-77081633D01*
X143070185Y-77042784D01*
X143030446Y-76983950D01*
X143024500Y-76945699D01*
X143024500Y-76485074D01*
X143024610Y-76479798D01*
X143027228Y-76417326D01*
X143017212Y-76374622D01*
X143015049Y-76362949D01*
X143010261Y-76327995D01*
X143009095Y-76319482D01*
X143003047Y-76305506D01*
X142996013Y-76284237D01*
X142994498Y-76277778D01*
X142992537Y-76269417D01*
X142971397Y-76230963D01*
X142966182Y-76220317D01*
X142952170Y-76187937D01*
X142952168Y-76187933D01*
X142948758Y-76180054D01*
X142939179Y-76168225D01*
X142926688Y-76149637D01*
X142919348Y-76136285D01*
X142912290Y-76128109D01*
X142887547Y-76103366D01*
X142878721Y-76093565D01*
X142858556Y-76068662D01*
X142858553Y-76068659D01*
X142853150Y-76061987D01*
X142837636Y-76050962D01*
X142821536Y-76037355D01*
X142052768Y-75268587D01*
X142049115Y-75264779D01*
X142012584Y-75225052D01*
X142012583Y-75225051D01*
X142006774Y-75218734D01*
X141991645Y-75209353D01*
X141969494Y-75195619D01*
X141959712Y-75188896D01*
X141931605Y-75167562D01*
X141931606Y-75167562D01*
X141924765Y-75162370D01*
X141915053Y-75158525D01*
X141910604Y-75156763D01*
X141890598Y-75146700D01*
X141884963Y-75143206D01*
X141884954Y-75143202D01*
X141877656Y-75138677D01*
X141835521Y-75126435D01*
X141824298Y-75122593D01*
X141783510Y-75106444D01*
X141769308Y-75104951D01*
X141768367Y-75104852D01*
X141746394Y-75100541D01*
X141731765Y-75096291D01*
X141720993Y-75095500D01*
X141685995Y-75095500D01*
X141672824Y-75094810D01*
X141662607Y-75093736D01*
X141653435Y-75092772D01*
X141640963Y-75091461D01*
X141632419Y-75090563D01*
X141613654Y-75093737D01*
X141592652Y-75095500D01*
X137593237Y-75095500D01*
X137525116Y-75075498D01*
X137478623Y-75021842D01*
X137475256Y-75013731D01*
X137475223Y-75013642D01*
X137475221Y-75013638D01*
X137472071Y-75005236D01*
X137466691Y-74998057D01*
X137466689Y-74998054D01*
X137390785Y-74896776D01*
X137385404Y-74889596D01*
X137364977Y-74874287D01*
X137276946Y-74808311D01*
X137276943Y-74808309D01*
X137269764Y-74802929D01*
X137180046Y-74769296D01*
X137141843Y-74754974D01*
X137141841Y-74754974D01*
X137134448Y-74752202D01*
X137126598Y-74751349D01*
X137126597Y-74751349D01*
X137076153Y-74745869D01*
X137076152Y-74745869D01*
X137072756Y-74745500D01*
X135727244Y-74745500D01*
X135723848Y-74745869D01*
X135723847Y-74745869D01*
X135673403Y-74751349D01*
X135673402Y-74751349D01*
X135665552Y-74752202D01*
X135658159Y-74754974D01*
X135658157Y-74754974D01*
X135619954Y-74769296D01*
X135530236Y-74802929D01*
X135523057Y-74808309D01*
X135523054Y-74808311D01*
X135435023Y-74874287D01*
X135414596Y-74889596D01*
X135409215Y-74896776D01*
X135381326Y-74933988D01*
X135324467Y-74976503D01*
X135253648Y-74981529D01*
X135191355Y-74947469D01*
X135157365Y-74885138D01*
X135154500Y-74858423D01*
X135154500Y-74215065D01*
X135154611Y-74209789D01*
X135156869Y-74155910D01*
X135157229Y-74147326D01*
X135155268Y-74138964D01*
X135155267Y-74138958D01*
X135147211Y-74104613D01*
X135145050Y-74092960D01*
X135139095Y-74049482D01*
X135135682Y-74041595D01*
X135135681Y-74041592D01*
X135133047Y-74035505D01*
X135126013Y-74014239D01*
X135124498Y-74007780D01*
X135122537Y-73999417D01*
X135101397Y-73960963D01*
X135096182Y-73950317D01*
X135082170Y-73917937D01*
X135082168Y-73917933D01*
X135078758Y-73910054D01*
X135069179Y-73898225D01*
X135056688Y-73879637D01*
X135049348Y-73866285D01*
X135042290Y-73858109D01*
X135017547Y-73833366D01*
X135008721Y-73823565D01*
X134988556Y-73798662D01*
X134988553Y-73798659D01*
X134983150Y-73791987D01*
X134967636Y-73780962D01*
X134951536Y-73767355D01*
X133136367Y-71952186D01*
X142681018Y-71952186D01*
X142706579Y-72220100D01*
X142707664Y-72224534D01*
X142707665Y-72224540D01*
X142743325Y-72370269D01*
X142770547Y-72481518D01*
X142871583Y-72730963D01*
X142904998Y-72788031D01*
X143003034Y-72955464D01*
X143007569Y-72963210D01*
X143098352Y-73076728D01*
X143122949Y-73107485D01*
X143175658Y-73173395D01*
X143372327Y-73357113D01*
X143593457Y-73510516D01*
X143834416Y-73630391D01*
X143838750Y-73631812D01*
X143838753Y-73631813D01*
X144085823Y-73712807D01*
X144085829Y-73712808D01*
X144090156Y-73714227D01*
X144094647Y-73715007D01*
X144094648Y-73715007D01*
X144351538Y-73759611D01*
X144351546Y-73759612D01*
X144355319Y-73760267D01*
X144359156Y-73760458D01*
X144438777Y-73764422D01*
X144438785Y-73764422D01*
X144440348Y-73764500D01*
X144608374Y-73764500D01*
X144610642Y-73764335D01*
X144610654Y-73764335D01*
X144741457Y-73754844D01*
X144808425Y-73749985D01*
X144812880Y-73749001D01*
X144812883Y-73749001D01*
X145066770Y-73692947D01*
X145066772Y-73692946D01*
X145071226Y-73691963D01*
X145322900Y-73596613D01*
X145369713Y-73570611D01*
X145554179Y-73468149D01*
X145554180Y-73468148D01*
X145558172Y-73465931D01*
X145669994Y-73380591D01*
X145768491Y-73305421D01*
X145768495Y-73305417D01*
X145772116Y-73302654D01*
X145960249Y-73110203D01*
X146023600Y-73023168D01*
X146115942Y-72896304D01*
X146115947Y-72896297D01*
X146118630Y-72892610D01*
X146243941Y-72654433D01*
X146333557Y-72400662D01*
X146362615Y-72253231D01*
X146384720Y-72141083D01*
X146384721Y-72141077D01*
X146385601Y-72136611D01*
X146389512Y-72058053D01*
X146398755Y-71872383D01*
X146398755Y-71872377D01*
X146398982Y-71867814D01*
X146373421Y-71599900D01*
X146368805Y-71581033D01*
X146310539Y-71342920D01*
X146309453Y-71338482D01*
X146208417Y-71089037D01*
X146089193Y-70885418D01*
X146074741Y-70860735D01*
X146074740Y-70860734D01*
X146072431Y-70856790D01*
X145904342Y-70646605D01*
X145707673Y-70462887D01*
X145486543Y-70309484D01*
X145245584Y-70189609D01*
X145241250Y-70188188D01*
X145241247Y-70188187D01*
X144994177Y-70107193D01*
X144994171Y-70107192D01*
X144989844Y-70105773D01*
X144985352Y-70104993D01*
X144728462Y-70060389D01*
X144728454Y-70060388D01*
X144724681Y-70059733D01*
X144714718Y-70059237D01*
X144641223Y-70055578D01*
X144641215Y-70055578D01*
X144639652Y-70055500D01*
X144471626Y-70055500D01*
X144469358Y-70055665D01*
X144469346Y-70055665D01*
X144338543Y-70065156D01*
X144271575Y-70070015D01*
X144267120Y-70070999D01*
X144267117Y-70070999D01*
X144013230Y-70127053D01*
X144013228Y-70127054D01*
X144008774Y-70128037D01*
X143757100Y-70223387D01*
X143753114Y-70225601D01*
X143753112Y-70225602D01*
X143552970Y-70336771D01*
X143521828Y-70354069D01*
X143518196Y-70356841D01*
X143311509Y-70514579D01*
X143311505Y-70514583D01*
X143307884Y-70517346D01*
X143119751Y-70709797D01*
X143117066Y-70713486D01*
X142964058Y-70923696D01*
X142964053Y-70923703D01*
X142961370Y-70927390D01*
X142836059Y-71165567D01*
X142746443Y-71419338D01*
X142725880Y-71523668D01*
X142697869Y-71665786D01*
X142694399Y-71683389D01*
X142694172Y-71687942D01*
X142694172Y-71687945D01*
X142684991Y-71872383D01*
X142681018Y-71952186D01*
X133136367Y-71952186D01*
X132802768Y-71618587D01*
X132799115Y-71614779D01*
X132762584Y-71575052D01*
X132762583Y-71575051D01*
X132756774Y-71568734D01*
X132719494Y-71545619D01*
X132709712Y-71538896D01*
X132693439Y-71526544D01*
X132674765Y-71512370D01*
X132665053Y-71508525D01*
X132660604Y-71506763D01*
X132640598Y-71496700D01*
X132634963Y-71493206D01*
X132634954Y-71493202D01*
X132627656Y-71488677D01*
X132585521Y-71476435D01*
X132574298Y-71472593D01*
X132533510Y-71456444D01*
X132519902Y-71455013D01*
X132518367Y-71454852D01*
X132496394Y-71450541D01*
X132481765Y-71446291D01*
X132470993Y-71445500D01*
X132435995Y-71445500D01*
X132422824Y-71444810D01*
X132412607Y-71443736D01*
X132408773Y-71443333D01*
X132390963Y-71441461D01*
X132382419Y-71440563D01*
X132363654Y-71443737D01*
X132342652Y-71445500D01*
X124842663Y-71445500D01*
X124774542Y-71425498D01*
X124741705Y-71394889D01*
X124727510Y-71375880D01*
X124639320Y-71257779D01*
X124490258Y-71119987D01*
X124485375Y-71116906D01*
X124485371Y-71116903D01*
X124323464Y-71014748D01*
X124318581Y-71011667D01*
X124130039Y-70936446D01*
X124124379Y-70935320D01*
X124124375Y-70935319D01*
X123936613Y-70897971D01*
X123936610Y-70897971D01*
X123930946Y-70896844D01*
X123925171Y-70896768D01*
X123925167Y-70896768D01*
X123823793Y-70895441D01*
X123727971Y-70894187D01*
X123722274Y-70895166D01*
X123722273Y-70895166D01*
X123592070Y-70917539D01*
X123521546Y-70909362D01*
X123481637Y-70882455D01*
X122617756Y-70018575D01*
X122614103Y-70014766D01*
X122577584Y-69975052D01*
X122577583Y-69975051D01*
X122571774Y-69968734D01*
X122556645Y-69959353D01*
X122534494Y-69945619D01*
X122524712Y-69938896D01*
X122496605Y-69917562D01*
X122496606Y-69917562D01*
X122489765Y-69912370D01*
X122481783Y-69909210D01*
X122481780Y-69909208D01*
X122478860Y-69908052D01*
X122476604Y-69906292D01*
X122474294Y-69904990D01*
X122474490Y-69904642D01*
X122422887Y-69864377D01*
X122399412Y-69797374D01*
X122415889Y-69728315D01*
X122467085Y-69679127D01*
X122525246Y-69664901D01*
X136403084Y-69665057D01*
X145501854Y-69665159D01*
X145526438Y-69667581D01*
X145527159Y-69667725D01*
X145527165Y-69667725D01*
X145539333Y-69670146D01*
X145551503Y-69667726D01*
X145563915Y-69667726D01*
X145563915Y-69668576D01*
X145574669Y-69667942D01*
X145724286Y-69679721D01*
X145743813Y-69682814D01*
X145914569Y-69723812D01*
X145933373Y-69729922D01*
X146095613Y-69797127D01*
X146113229Y-69806103D01*
X146262963Y-69897862D01*
X146278957Y-69909483D01*
X146412489Y-70023530D01*
X146426470Y-70037511D01*
X146540517Y-70171043D01*
X146552138Y-70187037D01*
X146643897Y-70336771D01*
X146652873Y-70354387D01*
X146720078Y-70516627D01*
X146726188Y-70535431D01*
X146767186Y-70706187D01*
X146770279Y-70725714D01*
X146782058Y-70875331D01*
X146781424Y-70886085D01*
X146782274Y-70886085D01*
X146782274Y-70898497D01*
X146779854Y-70910667D01*
X146782275Y-70922837D01*
X146782275Y-70922839D01*
X146782418Y-70923555D01*
X146784840Y-70948140D01*
X146784840Y-90541860D01*
X146782418Y-90566444D01*
X146779854Y-90579333D01*
X146782274Y-90591503D01*
X146782274Y-90603915D01*
X146781424Y-90603915D01*
X146782058Y-90614669D01*
X146770279Y-90764286D01*
X146767186Y-90783813D01*
X146726188Y-90954569D01*
X146720078Y-90973373D01*
X146652873Y-91135613D01*
X146643897Y-91153229D01*
X146552138Y-91302963D01*
X146540517Y-91318957D01*
X146426470Y-91452489D01*
X146412489Y-91466470D01*
X146278957Y-91580517D01*
X146262963Y-91592138D01*
X146113229Y-91683897D01*
X146095613Y-91692873D01*
X145933373Y-91760078D01*
X145914569Y-91766188D01*
X145743813Y-91807186D01*
X145724286Y-91810279D01*
X145574669Y-91822058D01*
X145563915Y-91821424D01*
X145563915Y-91822274D01*
X145551503Y-91822274D01*
X145539333Y-91819854D01*
X145527163Y-91822275D01*
X145527162Y-91822275D01*
X145526608Y-91822386D01*
X145526409Y-91822425D01*
X145501851Y-91824846D01*
X116427208Y-91830124D01*
X86847466Y-91835494D01*
X86822867Y-91833073D01*
X86810000Y-91830514D01*
X86797827Y-91832936D01*
X86785418Y-91832936D01*
X86785418Y-91832084D01*
X86774669Y-91832720D01*
X86625046Y-91820944D01*
X86605518Y-91817851D01*
X86434755Y-91776854D01*
X86415961Y-91770748D01*
X86253712Y-91703542D01*
X86236107Y-91694572D01*
X86086368Y-91602812D01*
X86070372Y-91591190D01*
X85936839Y-91477141D01*
X85922859Y-91463161D01*
X85808810Y-91329628D01*
X85797188Y-91313632D01*
X85773156Y-91274416D01*
X85705428Y-91163893D01*
X85696458Y-91146288D01*
X85629252Y-90984039D01*
X85623144Y-90965240D01*
X85622898Y-90964212D01*
X85582149Y-90794481D01*
X85579056Y-90774954D01*
X85567733Y-90631088D01*
X85567280Y-90625331D01*
X85567916Y-90614582D01*
X85567064Y-90614582D01*
X85567064Y-90602173D01*
X85567605Y-90599455D01*
X144684825Y-90599455D01*
X144685512Y-90606462D01*
X144685512Y-90606465D01*
X144688311Y-90635010D01*
X144701255Y-90767025D01*
X144754402Y-90926791D01*
X144758049Y-90932813D01*
X144758050Y-90932815D01*
X144789076Y-90984044D01*
X144841624Y-91070812D01*
X144846513Y-91075875D01*
X144846514Y-91075876D01*
X144904202Y-91135613D01*
X144958586Y-91191929D01*
X144964483Y-91195788D01*
X145093577Y-91280266D01*
X145093581Y-91280268D01*
X145099475Y-91284125D01*
X145257289Y-91342815D01*
X145264270Y-91343746D01*
X145264272Y-91343747D01*
X145309812Y-91349823D01*
X145424183Y-91365083D01*
X145431194Y-91364445D01*
X145431198Y-91364445D01*
X145584843Y-91350462D01*
X145591864Y-91349823D01*
X145598566Y-91347645D01*
X145598568Y-91347645D01*
X145745298Y-91299970D01*
X145745301Y-91299969D01*
X145751997Y-91297793D01*
X145896623Y-91211578D01*
X145901717Y-91206727D01*
X145901721Y-91206724D01*
X146013454Y-91100322D01*
X146013455Y-91100320D01*
X146018554Y-91095465D01*
X146034934Y-91070812D01*
X146099672Y-90973373D01*
X146111731Y-90955223D01*
X146171521Y-90797823D01*
X146194955Y-90631088D01*
X146195249Y-90610000D01*
X146194809Y-90606077D01*
X146177266Y-90449672D01*
X146177265Y-90449669D01*
X146176481Y-90442676D01*
X146121108Y-90283668D01*
X146031884Y-90140879D01*
X146023723Y-90132661D01*
X145918205Y-90026403D01*
X145918201Y-90026400D01*
X145913242Y-90021406D01*
X145771079Y-89931187D01*
X145612462Y-89874706D01*
X145605474Y-89873873D01*
X145605471Y-89873872D01*
X145498397Y-89861104D01*
X145445273Y-89854769D01*
X145438270Y-89855505D01*
X145438269Y-89855505D01*
X145392712Y-89860293D01*
X145277821Y-89872369D01*
X145271155Y-89874638D01*
X145271152Y-89874639D01*
X145125098Y-89924360D01*
X145125095Y-89924361D01*
X145118431Y-89926630D01*
X145112436Y-89930318D01*
X145112432Y-89930320D01*
X144981021Y-90011165D01*
X144981019Y-90011167D01*
X144975022Y-90014856D01*
X144854724Y-90132661D01*
X144763515Y-90274190D01*
X144705927Y-90432409D01*
X144684825Y-90599455D01*
X85567605Y-90599455D01*
X85569486Y-90590000D01*
X85566921Y-90577103D01*
X85564500Y-90552524D01*
X85564500Y-88262186D01*
X96601018Y-88262186D01*
X96626579Y-88530100D01*
X96627664Y-88534534D01*
X96627665Y-88534540D01*
X96669401Y-88705100D01*
X96690547Y-88791518D01*
X96791583Y-89040963D01*
X96927569Y-89273210D01*
X97095658Y-89483395D01*
X97292327Y-89667113D01*
X97414023Y-89751536D01*
X97496455Y-89808721D01*
X97513457Y-89820516D01*
X97754416Y-89940391D01*
X97758750Y-89941812D01*
X97758753Y-89941813D01*
X98005823Y-90022807D01*
X98005829Y-90022808D01*
X98010156Y-90024227D01*
X98014647Y-90025007D01*
X98014648Y-90025007D01*
X98271538Y-90069611D01*
X98271546Y-90069612D01*
X98275319Y-90070267D01*
X98279156Y-90070458D01*
X98358777Y-90074422D01*
X98358785Y-90074422D01*
X98360348Y-90074500D01*
X98528374Y-90074500D01*
X98530642Y-90074335D01*
X98530654Y-90074335D01*
X98661457Y-90064844D01*
X98728425Y-90059985D01*
X98732880Y-90059001D01*
X98732883Y-90059001D01*
X98986770Y-90002947D01*
X98986772Y-90002946D01*
X98991226Y-90001963D01*
X99242900Y-89906613D01*
X99261680Y-89896182D01*
X99474179Y-89778149D01*
X99474180Y-89778148D01*
X99478172Y-89775931D01*
X99624842Y-89663996D01*
X99688491Y-89615421D01*
X99688495Y-89615417D01*
X99692116Y-89612654D01*
X99880249Y-89420203D01*
X99987242Y-89273210D01*
X100035942Y-89206304D01*
X100035947Y-89206297D01*
X100038630Y-89202610D01*
X100163941Y-88964433D01*
X100248970Y-88723651D01*
X100252034Y-88714975D01*
X100252034Y-88714974D01*
X100253557Y-88710662D01*
X100284661Y-88552854D01*
X100304720Y-88451083D01*
X100304721Y-88451077D01*
X100305601Y-88446611D01*
X100305828Y-88442055D01*
X100314256Y-88272756D01*
X111095500Y-88272756D01*
X111102202Y-88334448D01*
X111152929Y-88469764D01*
X111158309Y-88476943D01*
X111158311Y-88476946D01*
X111198148Y-88530100D01*
X111239596Y-88585404D01*
X111246776Y-88590785D01*
X111348054Y-88666689D01*
X111348057Y-88666691D01*
X111355236Y-88672071D01*
X111433920Y-88701568D01*
X111483157Y-88720026D01*
X111483159Y-88720026D01*
X111490552Y-88722798D01*
X111498402Y-88723651D01*
X111498403Y-88723651D01*
X111548847Y-88729131D01*
X111552244Y-88729500D01*
X112447756Y-88729500D01*
X112451153Y-88729131D01*
X112501597Y-88723651D01*
X112501598Y-88723651D01*
X112509448Y-88722798D01*
X112516841Y-88720026D01*
X112516843Y-88720026D01*
X112566080Y-88701568D01*
X112644764Y-88672071D01*
X112651943Y-88666691D01*
X112651946Y-88666689D01*
X112753224Y-88590785D01*
X112760404Y-88585404D01*
X112801852Y-88530100D01*
X112841689Y-88476946D01*
X112841691Y-88476943D01*
X112847071Y-88469764D01*
X112897798Y-88334448D01*
X112904500Y-88272756D01*
X112904500Y-86927244D01*
X112897798Y-86865552D01*
X112847071Y-86730236D01*
X112841691Y-86723057D01*
X112841689Y-86723054D01*
X112765785Y-86621776D01*
X112760404Y-86614596D01*
X112739977Y-86599287D01*
X112651946Y-86533311D01*
X112651943Y-86533309D01*
X112644764Y-86527929D01*
X112636362Y-86524779D01*
X112636358Y-86524777D01*
X112636269Y-86524744D01*
X112636194Y-86524687D01*
X112628485Y-86520467D01*
X112629094Y-86519354D01*
X112579505Y-86482102D01*
X112554806Y-86415540D01*
X112554500Y-86406763D01*
X112554500Y-80789375D01*
X112574502Y-80721254D01*
X112628158Y-80674761D01*
X112698432Y-80664657D01*
X112763012Y-80694151D01*
X112801396Y-80753877D01*
X112805665Y-80774893D01*
X112819351Y-80893176D01*
X112885271Y-81126133D01*
X112887406Y-81130712D01*
X112887407Y-81130714D01*
X112941849Y-81247465D01*
X112987589Y-81345553D01*
X112990430Y-81349734D01*
X112990431Y-81349735D01*
X113025172Y-81400854D01*
X113024556Y-81401272D01*
X113025720Y-81402420D01*
X113025905Y-81402281D01*
X113025935Y-81402321D01*
X113026597Y-81403203D01*
X113026797Y-81403482D01*
X113026834Y-81403519D01*
X113028393Y-81405595D01*
X113029809Y-81407679D01*
X113029898Y-81407820D01*
X113030035Y-81408011D01*
X113123671Y-81545793D01*
X113127148Y-81549470D01*
X113127153Y-81549476D01*
X113172137Y-81597044D01*
X113171584Y-81597567D01*
X113173601Y-81598994D01*
X113174083Y-81599636D01*
X113177809Y-81603197D01*
X113178140Y-81603570D01*
X113181516Y-81606963D01*
X113223972Y-81651858D01*
X113290018Y-81721699D01*
X113294035Y-81724770D01*
X113294038Y-81724773D01*
X113348578Y-81766472D01*
X113349084Y-81766870D01*
X113352468Y-81770104D01*
X113356740Y-81773018D01*
X113357645Y-81773636D01*
X113363166Y-81777626D01*
X113478327Y-81865674D01*
X113478338Y-81865681D01*
X113482348Y-81868747D01*
X113546786Y-81903298D01*
X113549421Y-81904754D01*
X113552029Y-81906236D01*
X113556300Y-81909149D01*
X113560986Y-81911324D01*
X113560989Y-81911326D01*
X113563427Y-81912458D01*
X113569912Y-81915699D01*
X113695715Y-81983153D01*
X113700500Y-81984801D01*
X113700501Y-81984801D01*
X113767084Y-82007727D01*
X113770543Y-82009121D01*
X113770561Y-82009071D01*
X113775403Y-82010853D01*
X113780104Y-82013035D01*
X113788723Y-82015425D01*
X113796036Y-82017697D01*
X113924629Y-82061975D01*
X113929618Y-82062837D01*
X113929619Y-82062837D01*
X114003145Y-82075537D01*
X114008988Y-82076848D01*
X114012888Y-82077592D01*
X114017871Y-82078974D01*
X114027403Y-82079993D01*
X114035428Y-82081113D01*
X114163200Y-82103183D01*
X114167161Y-82103363D01*
X114167162Y-82103363D01*
X114190784Y-82104436D01*
X114190803Y-82104436D01*
X114192203Y-82104500D01*
X114360841Y-82104500D01*
X114363349Y-82104298D01*
X114363354Y-82104298D01*
X114536283Y-82090385D01*
X114536288Y-82090384D01*
X114541324Y-82089979D01*
X114546232Y-82088774D01*
X114546235Y-82088773D01*
X114771525Y-82033436D01*
X114776439Y-82032229D01*
X114781091Y-82030254D01*
X114781095Y-82030253D01*
X114994642Y-81939607D01*
X114994643Y-81939607D01*
X114999297Y-81937631D01*
X115204163Y-81808620D01*
X115385768Y-81648514D01*
X115539439Y-81461432D01*
X115636690Y-81294339D01*
X115658680Y-81256556D01*
X115658681Y-81256554D01*
X115661222Y-81252188D01*
X115699835Y-81151597D01*
X115746169Y-81030894D01*
X115746170Y-81030891D01*
X115747984Y-81026165D01*
X115797493Y-80789177D01*
X115800578Y-80721254D01*
X115803148Y-80664657D01*
X115803692Y-80652677D01*
X116591524Y-80652677D01*
X116619351Y-80893176D01*
X116685271Y-81126133D01*
X116687406Y-81130712D01*
X116687407Y-81130714D01*
X116741849Y-81247465D01*
X116787589Y-81345553D01*
X116790430Y-81349734D01*
X116790431Y-81349735D01*
X116825172Y-81400854D01*
X116824556Y-81401272D01*
X116825720Y-81402420D01*
X116825905Y-81402281D01*
X116825935Y-81402321D01*
X116826597Y-81403203D01*
X116826797Y-81403482D01*
X116826834Y-81403519D01*
X116828393Y-81405595D01*
X116829809Y-81407679D01*
X116829898Y-81407820D01*
X116830035Y-81408011D01*
X116923671Y-81545793D01*
X116927148Y-81549470D01*
X116927153Y-81549476D01*
X116972137Y-81597044D01*
X116971584Y-81597567D01*
X116973601Y-81598994D01*
X116974083Y-81599636D01*
X116977809Y-81603197D01*
X116978140Y-81603570D01*
X116981516Y-81606963D01*
X117023972Y-81651858D01*
X117090018Y-81721699D01*
X117094035Y-81724770D01*
X117094038Y-81724773D01*
X117148578Y-81766472D01*
X117149084Y-81766870D01*
X117152468Y-81770104D01*
X117156740Y-81773018D01*
X117157645Y-81773636D01*
X117163166Y-81777626D01*
X117278327Y-81865674D01*
X117278338Y-81865681D01*
X117282348Y-81868747D01*
X117346786Y-81903298D01*
X117349421Y-81904754D01*
X117352029Y-81906236D01*
X117356300Y-81909149D01*
X117360986Y-81911324D01*
X117360989Y-81911326D01*
X117363427Y-81912458D01*
X117369912Y-81915699D01*
X117495715Y-81983153D01*
X117500500Y-81984801D01*
X117500501Y-81984801D01*
X117567084Y-82007727D01*
X117570543Y-82009121D01*
X117570561Y-82009071D01*
X117575403Y-82010853D01*
X117580104Y-82013035D01*
X117588723Y-82015425D01*
X117596036Y-82017697D01*
X117724629Y-82061975D01*
X117729618Y-82062837D01*
X117729619Y-82062837D01*
X117803145Y-82075537D01*
X117808988Y-82076848D01*
X117812888Y-82077592D01*
X117817871Y-82078974D01*
X117827403Y-82079993D01*
X117835428Y-82081113D01*
X117963200Y-82103183D01*
X117967161Y-82103363D01*
X117967162Y-82103363D01*
X117990784Y-82104436D01*
X117990803Y-82104436D01*
X117992203Y-82104500D01*
X118160841Y-82104500D01*
X118163349Y-82104298D01*
X118163354Y-82104298D01*
X118336283Y-82090385D01*
X118336288Y-82090384D01*
X118341324Y-82089979D01*
X118346232Y-82088774D01*
X118346235Y-82088773D01*
X118571525Y-82033436D01*
X118576439Y-82032229D01*
X118581091Y-82030254D01*
X118581095Y-82030253D01*
X118794642Y-81939607D01*
X118794643Y-81939607D01*
X118799297Y-81937631D01*
X119004163Y-81808620D01*
X119185768Y-81648514D01*
X119339439Y-81461432D01*
X119436690Y-81294339D01*
X119458680Y-81256556D01*
X119458681Y-81256554D01*
X119461222Y-81252188D01*
X119499835Y-81151597D01*
X119546169Y-81030894D01*
X119546170Y-81030891D01*
X119547984Y-81026165D01*
X119597493Y-80789177D01*
X119600578Y-80721254D01*
X119603148Y-80664657D01*
X119608476Y-80547323D01*
X119580649Y-80306824D01*
X119568455Y-80263729D01*
X119516107Y-80078736D01*
X119516106Y-80078734D01*
X119514729Y-80073867D01*
X119504966Y-80052929D01*
X119414548Y-79859030D01*
X119412411Y-79854447D01*
X119388946Y-79819919D01*
X119374828Y-79799146D01*
X119375444Y-79798728D01*
X119374280Y-79797580D01*
X119374095Y-79797719D01*
X119373991Y-79797580D01*
X119373403Y-79796797D01*
X119373203Y-79796518D01*
X119373166Y-79796481D01*
X119371607Y-79794405D01*
X119370191Y-79792321D01*
X119370102Y-79792180D01*
X119369965Y-79791989D01*
X119276329Y-79654207D01*
X119272852Y-79650530D01*
X119272847Y-79650524D01*
X119227863Y-79602956D01*
X119228416Y-79602433D01*
X119226399Y-79601006D01*
X119225917Y-79600364D01*
X119222191Y-79596803D01*
X119221860Y-79596430D01*
X119218484Y-79593037D01*
X119113458Y-79481977D01*
X119109982Y-79478301D01*
X119105965Y-79475230D01*
X119105962Y-79475227D01*
X119051422Y-79433528D01*
X119050916Y-79433130D01*
X119047532Y-79429896D01*
X119043260Y-79426982D01*
X119042355Y-79426364D01*
X119036834Y-79422374D01*
X118921673Y-79334326D01*
X118921662Y-79334319D01*
X118917652Y-79331253D01*
X118853214Y-79296702D01*
X118850579Y-79295246D01*
X118847971Y-79293764D01*
X118843700Y-79290851D01*
X118839014Y-79288676D01*
X118839011Y-79288674D01*
X118836573Y-79287542D01*
X118830081Y-79284298D01*
X118797528Y-79266843D01*
X118704285Y-79216847D01*
X118632913Y-79192272D01*
X118629457Y-79190879D01*
X118629439Y-79190929D01*
X118624597Y-79189147D01*
X118619896Y-79186965D01*
X118611277Y-79184575D01*
X118603964Y-79182303D01*
X118475371Y-79138025D01*
X118470382Y-79137163D01*
X118470381Y-79137163D01*
X118396855Y-79124463D01*
X118391012Y-79123152D01*
X118387112Y-79122408D01*
X118382129Y-79121026D01*
X118372597Y-79120007D01*
X118364572Y-79118887D01*
X118236800Y-79096817D01*
X118232839Y-79096637D01*
X118232838Y-79096637D01*
X118209216Y-79095564D01*
X118209197Y-79095564D01*
X118207797Y-79095500D01*
X118039159Y-79095500D01*
X118036651Y-79095702D01*
X118036646Y-79095702D01*
X117863717Y-79109615D01*
X117863712Y-79109616D01*
X117858676Y-79110021D01*
X117853768Y-79111226D01*
X117853765Y-79111227D01*
X117737951Y-79139674D01*
X117623561Y-79167771D01*
X117618909Y-79169746D01*
X117618905Y-79169747D01*
X117502308Y-79219240D01*
X117400703Y-79262369D01*
X117195837Y-79391380D01*
X117014232Y-79551486D01*
X116860561Y-79738568D01*
X116836400Y-79780081D01*
X116746507Y-79934533D01*
X116738778Y-79947812D01*
X116736965Y-79952535D01*
X116667225Y-80134215D01*
X116652016Y-80173835D01*
X116602507Y-80410823D01*
X116602278Y-80415873D01*
X116602277Y-80415878D01*
X116598589Y-80497106D01*
X116591524Y-80652677D01*
X115803692Y-80652677D01*
X115808476Y-80547323D01*
X115780649Y-80306824D01*
X115768455Y-80263729D01*
X115716107Y-80078736D01*
X115716106Y-80078734D01*
X115714729Y-80073867D01*
X115704966Y-80052929D01*
X115614548Y-79859030D01*
X115612411Y-79854447D01*
X115588946Y-79819919D01*
X115574828Y-79799146D01*
X115575444Y-79798728D01*
X115574280Y-79797580D01*
X115574095Y-79797719D01*
X115573991Y-79797580D01*
X115573403Y-79796797D01*
X115573203Y-79796518D01*
X115573166Y-79796481D01*
X115571607Y-79794405D01*
X115570191Y-79792321D01*
X115570102Y-79792180D01*
X115569965Y-79791989D01*
X115476329Y-79654207D01*
X115472852Y-79650530D01*
X115472847Y-79650524D01*
X115427863Y-79602956D01*
X115428416Y-79602433D01*
X115426399Y-79601006D01*
X115425917Y-79600364D01*
X115422191Y-79596803D01*
X115421860Y-79596430D01*
X115418484Y-79593037D01*
X115313458Y-79481977D01*
X115309982Y-79478301D01*
X115305965Y-79475230D01*
X115305962Y-79475227D01*
X115251422Y-79433528D01*
X115250916Y-79433130D01*
X115247532Y-79429896D01*
X115243260Y-79426982D01*
X115242355Y-79426364D01*
X115236834Y-79422374D01*
X115121673Y-79334326D01*
X115121662Y-79334319D01*
X115117652Y-79331253D01*
X115053214Y-79296702D01*
X115050579Y-79295246D01*
X115047971Y-79293764D01*
X115043700Y-79290851D01*
X115039014Y-79288676D01*
X115039011Y-79288674D01*
X115036573Y-79287542D01*
X115030081Y-79284298D01*
X114997528Y-79266843D01*
X114904285Y-79216847D01*
X114832913Y-79192272D01*
X114829457Y-79190879D01*
X114829439Y-79190929D01*
X114824597Y-79189147D01*
X114819896Y-79186965D01*
X114811277Y-79184575D01*
X114803964Y-79182303D01*
X114675371Y-79138025D01*
X114670382Y-79137163D01*
X114670381Y-79137163D01*
X114596855Y-79124463D01*
X114591012Y-79123152D01*
X114587112Y-79122408D01*
X114582129Y-79121026D01*
X114572597Y-79120007D01*
X114564572Y-79118887D01*
X114436800Y-79096817D01*
X114432839Y-79096637D01*
X114432838Y-79096637D01*
X114409216Y-79095564D01*
X114409197Y-79095564D01*
X114407797Y-79095500D01*
X114239159Y-79095500D01*
X114236651Y-79095702D01*
X114236646Y-79095702D01*
X114063717Y-79109615D01*
X114063712Y-79109616D01*
X114058676Y-79110021D01*
X114053768Y-79111226D01*
X114053765Y-79111227D01*
X113937951Y-79139674D01*
X113823561Y-79167771D01*
X113818909Y-79169746D01*
X113818905Y-79169747D01*
X113702308Y-79219240D01*
X113600703Y-79262369D01*
X113395837Y-79391380D01*
X113214232Y-79551486D01*
X113060561Y-79738568D01*
X113036400Y-79780081D01*
X112946507Y-79934533D01*
X112938778Y-79947812D01*
X112936965Y-79952535D01*
X112867225Y-80134215D01*
X112852016Y-80173835D01*
X112824233Y-80306824D01*
X112803837Y-80404457D01*
X112770328Y-80467048D01*
X112708298Y-80501586D01*
X112637443Y-80497106D01*
X112580258Y-80455030D01*
X112554899Y-80388717D01*
X112554500Y-80378691D01*
X112554500Y-77481872D01*
X112574502Y-77413751D01*
X112591405Y-77392776D01*
X113392778Y-76591404D01*
X113455090Y-76557379D01*
X113481873Y-76554500D01*
X115918129Y-76554500D01*
X115986250Y-76574502D01*
X116007224Y-76591405D01*
X116590985Y-77175166D01*
X116625011Y-77237478D01*
X116619946Y-77308293D01*
X116612305Y-77324961D01*
X116545233Y-77446966D01*
X116542262Y-77452371D01*
X116540398Y-77458246D01*
X116540397Y-77458249D01*
X116521402Y-77518129D01*
X116482697Y-77640142D01*
X116470377Y-77749979D01*
X116461664Y-77827656D01*
X116460738Y-77835907D01*
X116461254Y-77842050D01*
X116461254Y-77842051D01*
X116476683Y-78025787D01*
X116477222Y-78032209D01*
X116498162Y-78105236D01*
X116529060Y-78212987D01*
X116531521Y-78221570D01*
X116621566Y-78396779D01*
X116625389Y-78401603D01*
X116625392Y-78401607D01*
X116653045Y-78436496D01*
X116743927Y-78551160D01*
X116748620Y-78555154D01*
X116748621Y-78555155D01*
X116773447Y-78576283D01*
X116893945Y-78678835D01*
X116899323Y-78681841D01*
X116899325Y-78681842D01*
X116929019Y-78698437D01*
X117065904Y-78774940D01*
X117253255Y-78835814D01*
X117448862Y-78859139D01*
X117454997Y-78858667D01*
X117454999Y-78858667D01*
X117514801Y-78854065D01*
X117645274Y-78844026D01*
X117835009Y-78791050D01*
X117840513Y-78788270D01*
X118005341Y-78705010D01*
X118005343Y-78705009D01*
X118010842Y-78702231D01*
X118166074Y-78580950D01*
X118170100Y-78576286D01*
X118170103Y-78576283D01*
X118290764Y-78436496D01*
X118290765Y-78436494D01*
X118294793Y-78431828D01*
X118392096Y-78260544D01*
X118454277Y-78073622D01*
X118478966Y-77878183D01*
X118479258Y-77857325D01*
X118479311Y-77853522D01*
X118479311Y-77853518D01*
X118479360Y-77850000D01*
X118460137Y-77653948D01*
X118403200Y-77465363D01*
X118393418Y-77446966D01*
X118313611Y-77296871D01*
X118313609Y-77296868D01*
X118310717Y-77291429D01*
X118186212Y-77138770D01*
X118089189Y-77058506D01*
X118039177Y-77017132D01*
X118039174Y-77017130D01*
X118034427Y-77013203D01*
X118029002Y-77010270D01*
X118028998Y-77010267D01*
X117960766Y-76973373D01*
X117919409Y-76936397D01*
X117919348Y-76936285D01*
X117912290Y-76928109D01*
X117887547Y-76903366D01*
X117878721Y-76893565D01*
X117858556Y-76868662D01*
X117858553Y-76868659D01*
X117853150Y-76861987D01*
X117837636Y-76850962D01*
X117821536Y-76837355D01*
X116602768Y-75618587D01*
X116599115Y-75614779D01*
X116562584Y-75575052D01*
X116562583Y-75575051D01*
X116556774Y-75568734D01*
X116541645Y-75559353D01*
X116519494Y-75545619D01*
X116509712Y-75538896D01*
X116481605Y-75517562D01*
X116481606Y-75517562D01*
X116474765Y-75512370D01*
X116465053Y-75508525D01*
X116460604Y-75506763D01*
X116440598Y-75496700D01*
X116434963Y-75493206D01*
X116434954Y-75493202D01*
X116427656Y-75488677D01*
X116385521Y-75476435D01*
X116374298Y-75472593D01*
X116333510Y-75456444D01*
X116319308Y-75454951D01*
X116318367Y-75454852D01*
X116296394Y-75450541D01*
X116281765Y-75446291D01*
X116270993Y-75445500D01*
X116235995Y-75445500D01*
X116222824Y-75444810D01*
X116212607Y-75443736D01*
X116203435Y-75442772D01*
X116190963Y-75441461D01*
X116182419Y-75440563D01*
X116163654Y-75443737D01*
X116142652Y-75445500D01*
X113215074Y-75445500D01*
X113209798Y-75445390D01*
X113147326Y-75442772D01*
X113138961Y-75444734D01*
X113104622Y-75452788D01*
X113092949Y-75454951D01*
X113082050Y-75456444D01*
X113049482Y-75460905D01*
X113036767Y-75466407D01*
X113035506Y-75466953D01*
X113014237Y-75473987D01*
X112999417Y-75477463D01*
X112960963Y-75498603D01*
X112950317Y-75503818D01*
X112917937Y-75517830D01*
X112917933Y-75517832D01*
X112910054Y-75521242D01*
X112903381Y-75526646D01*
X112903379Y-75526647D01*
X112898225Y-75530821D01*
X112879637Y-75543312D01*
X112866285Y-75550652D01*
X112861281Y-75554972D01*
X112859860Y-75556198D01*
X112859853Y-75556204D01*
X112858109Y-75557710D01*
X112833366Y-75582453D01*
X112823565Y-75591279D01*
X112798662Y-75611444D01*
X112798659Y-75611447D01*
X112791987Y-75616850D01*
X112780962Y-75632364D01*
X112767355Y-75648464D01*
X111618587Y-76797232D01*
X111614779Y-76800885D01*
X111575119Y-76837355D01*
X111568734Y-76843226D01*
X111564211Y-76850521D01*
X111564210Y-76850522D01*
X111545619Y-76880506D01*
X111538896Y-76890288D01*
X111512370Y-76925235D01*
X111509209Y-76933219D01*
X111506763Y-76939396D01*
X111496700Y-76959402D01*
X111493206Y-76965037D01*
X111493202Y-76965046D01*
X111488677Y-76972344D01*
X111486281Y-76980591D01*
X111476435Y-77014480D01*
X111472593Y-77025702D01*
X111456444Y-77066490D01*
X111455546Y-77075035D01*
X111454852Y-77081633D01*
X111450541Y-77103605D01*
X111446291Y-77118235D01*
X111445500Y-77129007D01*
X111445500Y-77164005D01*
X111444810Y-77177175D01*
X111440563Y-77217581D01*
X111443737Y-77236346D01*
X111445500Y-77257348D01*
X111445500Y-86406763D01*
X111425498Y-86474884D01*
X111371842Y-86521377D01*
X111363731Y-86524744D01*
X111363642Y-86524777D01*
X111363638Y-86524779D01*
X111355236Y-86527929D01*
X111348057Y-86533309D01*
X111348054Y-86533311D01*
X111260023Y-86599287D01*
X111239596Y-86614596D01*
X111234215Y-86621776D01*
X111158311Y-86723054D01*
X111158309Y-86723057D01*
X111152929Y-86730236D01*
X111102202Y-86865552D01*
X111095500Y-86927244D01*
X111095500Y-88272756D01*
X100314256Y-88272756D01*
X100318755Y-88182383D01*
X100318755Y-88182377D01*
X100318982Y-88177814D01*
X100293421Y-87909900D01*
X100229453Y-87648482D01*
X100128417Y-87399037D01*
X99992431Y-87166790D01*
X99824342Y-86956605D01*
X99627673Y-86772887D01*
X99406543Y-86619484D01*
X99165584Y-86499609D01*
X99161250Y-86498188D01*
X99161247Y-86498187D01*
X98914177Y-86417193D01*
X98914171Y-86417192D01*
X98909844Y-86415773D01*
X98905352Y-86414993D01*
X98648462Y-86370389D01*
X98648454Y-86370388D01*
X98644681Y-86369733D01*
X98634718Y-86369237D01*
X98561223Y-86365578D01*
X98561215Y-86365578D01*
X98559652Y-86365500D01*
X98391626Y-86365500D01*
X98389358Y-86365665D01*
X98389346Y-86365665D01*
X98258543Y-86375156D01*
X98191575Y-86380015D01*
X98187120Y-86380999D01*
X98187117Y-86380999D01*
X97933230Y-86437053D01*
X97933228Y-86437054D01*
X97928774Y-86438037D01*
X97677100Y-86533387D01*
X97441828Y-86664069D01*
X97438196Y-86666841D01*
X97231509Y-86824579D01*
X97231505Y-86824583D01*
X97227884Y-86827346D01*
X97039751Y-87019797D01*
X97021042Y-87045500D01*
X96884058Y-87233696D01*
X96884053Y-87233703D01*
X96881370Y-87237390D01*
X96756059Y-87475567D01*
X96666443Y-87729338D01*
X96658182Y-87771250D01*
X96617834Y-87975963D01*
X96614399Y-87993389D01*
X96614172Y-87997942D01*
X96614172Y-87997945D01*
X96602364Y-88235150D01*
X96601018Y-88262186D01*
X85564500Y-88262186D01*
X85564500Y-83335907D01*
X91460738Y-83335907D01*
X91461254Y-83342051D01*
X91474993Y-83505661D01*
X91477222Y-83532209D01*
X91531521Y-83721570D01*
X91621566Y-83896779D01*
X91625389Y-83901603D01*
X91625392Y-83901607D01*
X91653045Y-83936496D01*
X91743927Y-84051160D01*
X91748620Y-84055154D01*
X91748621Y-84055155D01*
X91773447Y-84076283D01*
X91893945Y-84178835D01*
X91899323Y-84181841D01*
X91899325Y-84181842D01*
X92024137Y-84251597D01*
X92065904Y-84274940D01*
X92253255Y-84335814D01*
X92448862Y-84359139D01*
X92454997Y-84358667D01*
X92454999Y-84358667D01*
X92639132Y-84344499D01*
X92639136Y-84344498D01*
X92645274Y-84344026D01*
X92687945Y-84332112D01*
X92758933Y-84333059D01*
X92768209Y-84336318D01*
X92786490Y-84343556D01*
X92800098Y-84344987D01*
X92801633Y-84345148D01*
X92823605Y-84349459D01*
X92838235Y-84353709D01*
X92849007Y-84354500D01*
X92884005Y-84354500D01*
X92897175Y-84355190D01*
X92911227Y-84356667D01*
X92929037Y-84358539D01*
X92937581Y-84359437D01*
X92956346Y-84356263D01*
X92977348Y-84354500D01*
X93217744Y-84354500D01*
X93285865Y-84374502D01*
X93332358Y-84428158D01*
X93342462Y-84498432D01*
X93312968Y-84563012D01*
X93286830Y-84585871D01*
X93162732Y-84667234D01*
X93041736Y-84794960D01*
X92953368Y-84947096D01*
X92902370Y-85115480D01*
X92891476Y-85291080D01*
X92892716Y-85298296D01*
X92892716Y-85298298D01*
X92920031Y-85457262D01*
X92921271Y-85464477D01*
X92990156Y-85626368D01*
X93094437Y-85768071D01*
X93228520Y-85881982D01*
X93272034Y-85904201D01*
X93378695Y-85958666D01*
X93378700Y-85958668D01*
X93385212Y-85961993D01*
X93392318Y-85963732D01*
X93392321Y-85963733D01*
X93473710Y-85983648D01*
X93556108Y-86003811D01*
X93561710Y-86004159D01*
X93561713Y-86004159D01*
X93565275Y-86004380D01*
X93565284Y-86004380D01*
X93567214Y-86004500D01*
X93694053Y-86004500D01*
X93785950Y-85993786D01*
X93817482Y-85990110D01*
X93817484Y-85990110D01*
X93824754Y-85989262D01*
X93831631Y-85986766D01*
X93831634Y-85986765D01*
X93983255Y-85931729D01*
X93990134Y-85929232D01*
X93996251Y-85925222D01*
X93996254Y-85925220D01*
X94069431Y-85877242D01*
X94137268Y-85832766D01*
X94258264Y-85705040D01*
X94346632Y-85552904D01*
X94397630Y-85384520D01*
X94408524Y-85208920D01*
X94393724Y-85122785D01*
X94379969Y-85042738D01*
X94379968Y-85042736D01*
X94378729Y-85035523D01*
X94309844Y-84873632D01*
X94205563Y-84731929D01*
X94071480Y-84618018D01*
X94021931Y-84592717D01*
X93970358Y-84543924D01*
X93953352Y-84474994D01*
X93976312Y-84407812D01*
X94031948Y-84363709D01*
X94079232Y-84354500D01*
X94834726Y-84354500D01*
X94902847Y-84374502D01*
X94935551Y-84404934D01*
X95014596Y-84510404D01*
X95021776Y-84515785D01*
X95123054Y-84591689D01*
X95123057Y-84591691D01*
X95130236Y-84597071D01*
X95186113Y-84618018D01*
X95258157Y-84645026D01*
X95258159Y-84645026D01*
X95265552Y-84647798D01*
X95273402Y-84648651D01*
X95273403Y-84648651D01*
X95303734Y-84651946D01*
X95327244Y-84654500D01*
X96672756Y-84654500D01*
X96696266Y-84651946D01*
X96726597Y-84648651D01*
X96726598Y-84648651D01*
X96734448Y-84647798D01*
X96741841Y-84645026D01*
X96741843Y-84645026D01*
X96813887Y-84618018D01*
X96869764Y-84597071D01*
X96876943Y-84591691D01*
X96876946Y-84591689D01*
X96978224Y-84515785D01*
X96985404Y-84510404D01*
X97034917Y-84444339D01*
X97066689Y-84401946D01*
X97066691Y-84401943D01*
X97072071Y-84394764D01*
X97116277Y-84276844D01*
X97120026Y-84266843D01*
X97120026Y-84266841D01*
X97122798Y-84259448D01*
X97129500Y-84197756D01*
X98470500Y-84197756D01*
X98477202Y-84259448D01*
X98479974Y-84266841D01*
X98479974Y-84266843D01*
X98483723Y-84276844D01*
X98527929Y-84394764D01*
X98533309Y-84401943D01*
X98533311Y-84401946D01*
X98565083Y-84444339D01*
X98614596Y-84510404D01*
X98621776Y-84515785D01*
X98723054Y-84591689D01*
X98723057Y-84591691D01*
X98730236Y-84597071D01*
X98786113Y-84618018D01*
X98858157Y-84645026D01*
X98858159Y-84645026D01*
X98865552Y-84647798D01*
X98873402Y-84648651D01*
X98873403Y-84648651D01*
X98903734Y-84651946D01*
X98927244Y-84654500D01*
X99668129Y-84654500D01*
X99736250Y-84674502D01*
X99757224Y-84691405D01*
X100447232Y-85381413D01*
X100450885Y-85385221D01*
X100483801Y-85421016D01*
X100493226Y-85431266D01*
X100500521Y-85435789D01*
X100500522Y-85435790D01*
X100530506Y-85454381D01*
X100540288Y-85461104D01*
X100575235Y-85487630D01*
X100583220Y-85490791D01*
X100583219Y-85490791D01*
X100589396Y-85493237D01*
X100609402Y-85503300D01*
X100615037Y-85506794D01*
X100615046Y-85506798D01*
X100622344Y-85511323D01*
X100630591Y-85513719D01*
X100664480Y-85523565D01*
X100675702Y-85527407D01*
X100716490Y-85543556D01*
X100730098Y-85544987D01*
X100731633Y-85545148D01*
X100753605Y-85549459D01*
X100768235Y-85553709D01*
X100779007Y-85554500D01*
X100814005Y-85554500D01*
X100827175Y-85555190D01*
X100841227Y-85556667D01*
X100859037Y-85558539D01*
X100867581Y-85559437D01*
X100886346Y-85556263D01*
X100907348Y-85554500D01*
X104004925Y-85554500D01*
X104010201Y-85554610D01*
X104072674Y-85557228D01*
X104095531Y-85551867D01*
X104115378Y-85547212D01*
X104127051Y-85545049D01*
X104142754Y-85542898D01*
X104170518Y-85539095D01*
X104184493Y-85533047D01*
X104205763Y-85526013D01*
X104212222Y-85524498D01*
X104220583Y-85522537D01*
X104259037Y-85501397D01*
X104269683Y-85496182D01*
X104302063Y-85482170D01*
X104302067Y-85482168D01*
X104309946Y-85478758D01*
X104319265Y-85471212D01*
X104321775Y-85469179D01*
X104340363Y-85456688D01*
X104353715Y-85449348D01*
X104359245Y-85444574D01*
X104360140Y-85443802D01*
X104360147Y-85443796D01*
X104361891Y-85442290D01*
X104386634Y-85417547D01*
X104396435Y-85408721D01*
X104421338Y-85388556D01*
X104421341Y-85388553D01*
X104428013Y-85383150D01*
X104439038Y-85367636D01*
X104452640Y-85351542D01*
X104513102Y-85291080D01*
X106091476Y-85291080D01*
X106092716Y-85298296D01*
X106092716Y-85298298D01*
X106120031Y-85457262D01*
X106121271Y-85464477D01*
X106190156Y-85626368D01*
X106294437Y-85768071D01*
X106428520Y-85881982D01*
X106472034Y-85904201D01*
X106578695Y-85958666D01*
X106578700Y-85958668D01*
X106585212Y-85961993D01*
X106592318Y-85963732D01*
X106592321Y-85963733D01*
X106673710Y-85983648D01*
X106756108Y-86003811D01*
X106761710Y-86004159D01*
X106761713Y-86004159D01*
X106765275Y-86004380D01*
X106765284Y-86004380D01*
X106767214Y-86004500D01*
X106894053Y-86004500D01*
X106985950Y-85993786D01*
X107017482Y-85990110D01*
X107017484Y-85990110D01*
X107024754Y-85989262D01*
X107031631Y-85986766D01*
X107031634Y-85986765D01*
X107183255Y-85931729D01*
X107190134Y-85929232D01*
X107196251Y-85925222D01*
X107196254Y-85925220D01*
X107269431Y-85877242D01*
X107337268Y-85832766D01*
X107458264Y-85705040D01*
X107546632Y-85552904D01*
X107597630Y-85384520D01*
X107608524Y-85208920D01*
X107593724Y-85122785D01*
X107579969Y-85042738D01*
X107579968Y-85042736D01*
X107578729Y-85035523D01*
X107509844Y-84873632D01*
X107405563Y-84731929D01*
X107271480Y-84618018D01*
X107193057Y-84577973D01*
X107121305Y-84541334D01*
X107121300Y-84541332D01*
X107114788Y-84538007D01*
X107107682Y-84536268D01*
X107107679Y-84536267D01*
X107013553Y-84513235D01*
X106943892Y-84496189D01*
X106938290Y-84495841D01*
X106938287Y-84495841D01*
X106934725Y-84495620D01*
X106934716Y-84495620D01*
X106932786Y-84495500D01*
X106805947Y-84495500D01*
X106714050Y-84506214D01*
X106682518Y-84509890D01*
X106682516Y-84509890D01*
X106675246Y-84510738D01*
X106668369Y-84513234D01*
X106668366Y-84513235D01*
X106541082Y-84559437D01*
X106509866Y-84570768D01*
X106503749Y-84574778D01*
X106503746Y-84574780D01*
X106464943Y-84600221D01*
X106362732Y-84667234D01*
X106241736Y-84794960D01*
X106153368Y-84947096D01*
X106102370Y-85115480D01*
X106091476Y-85291080D01*
X104513102Y-85291080D01*
X105423497Y-84380685D01*
X105485807Y-84346661D01*
X105527507Y-84344668D01*
X105648862Y-84359139D01*
X105654997Y-84358667D01*
X105654999Y-84358667D01*
X105714801Y-84354065D01*
X105845274Y-84344026D01*
X106035009Y-84291050D01*
X106056083Y-84280405D01*
X106205341Y-84205010D01*
X106205343Y-84205009D01*
X106210842Y-84202231D01*
X106366074Y-84080950D01*
X106370100Y-84076286D01*
X106370103Y-84076283D01*
X106490764Y-83936496D01*
X106490765Y-83936494D01*
X106494793Y-83931828D01*
X106510318Y-83904500D01*
X106589049Y-83765907D01*
X106592096Y-83760544D01*
X106654277Y-83573622D01*
X106678966Y-83378183D01*
X106679360Y-83350000D01*
X106660137Y-83153948D01*
X106603200Y-82965363D01*
X106566116Y-82895619D01*
X106513611Y-82796871D01*
X106513609Y-82796868D01*
X106510717Y-82791429D01*
X106386212Y-82638770D01*
X106320894Y-82584734D01*
X106239177Y-82517132D01*
X106239174Y-82517130D01*
X106234427Y-82513203D01*
X106061143Y-82419508D01*
X105872960Y-82361256D01*
X105866835Y-82360612D01*
X105866834Y-82360612D01*
X105683176Y-82341309D01*
X105683174Y-82341309D01*
X105677047Y-82340665D01*
X105595018Y-82348130D01*
X105487004Y-82357960D01*
X105487001Y-82357961D01*
X105480865Y-82358519D01*
X105474959Y-82360257D01*
X105474955Y-82360258D01*
X105334775Y-82401516D01*
X105291887Y-82414138D01*
X105286427Y-82416992D01*
X105286428Y-82416992D01*
X105122772Y-82502549D01*
X105122768Y-82502552D01*
X105117312Y-82505404D01*
X104963788Y-82628840D01*
X104837163Y-82779745D01*
X104828881Y-82794810D01*
X104757281Y-82925052D01*
X104742262Y-82952371D01*
X104740398Y-82958246D01*
X104740397Y-82958249D01*
X104737118Y-82968587D01*
X104682697Y-83140142D01*
X104660738Y-83335907D01*
X104661254Y-83342051D01*
X104674372Y-83498272D01*
X104660140Y-83567827D01*
X104637909Y-83597910D01*
X103827224Y-84408595D01*
X103764912Y-84442621D01*
X103738129Y-84445500D01*
X101131871Y-84445500D01*
X101063750Y-84425498D01*
X101042776Y-84408595D01*
X100766405Y-84132224D01*
X100732379Y-84069912D01*
X100729500Y-84043129D01*
X100729500Y-83302244D01*
X100722798Y-83240552D01*
X100672071Y-83105236D01*
X100666691Y-83098057D01*
X100666689Y-83098054D01*
X100590785Y-82996776D01*
X100585404Y-82989596D01*
X100490853Y-82918734D01*
X100476946Y-82908311D01*
X100476943Y-82908309D01*
X100469764Y-82902929D01*
X100375421Y-82867562D01*
X100341843Y-82854974D01*
X100341841Y-82854974D01*
X100334448Y-82852202D01*
X100326598Y-82851349D01*
X100326597Y-82851349D01*
X100276153Y-82845869D01*
X100276152Y-82845869D01*
X100272756Y-82845500D01*
X98927244Y-82845500D01*
X98923848Y-82845869D01*
X98923847Y-82845869D01*
X98873403Y-82851349D01*
X98873402Y-82851349D01*
X98865552Y-82852202D01*
X98858159Y-82854974D01*
X98858157Y-82854974D01*
X98824579Y-82867562D01*
X98730236Y-82902929D01*
X98723057Y-82908309D01*
X98723054Y-82908311D01*
X98709147Y-82918734D01*
X98614596Y-82989596D01*
X98609215Y-82996776D01*
X98533311Y-83098054D01*
X98533309Y-83098057D01*
X98527929Y-83105236D01*
X98477202Y-83240552D01*
X98470500Y-83302244D01*
X98470500Y-84197756D01*
X97129500Y-84197756D01*
X97129500Y-83302244D01*
X97122798Y-83240552D01*
X97072071Y-83105236D01*
X97066691Y-83098057D01*
X97066689Y-83098054D01*
X96990785Y-82996776D01*
X96985404Y-82989596D01*
X96890853Y-82918734D01*
X96876946Y-82908311D01*
X96876943Y-82908309D01*
X96869764Y-82902929D01*
X96775421Y-82867562D01*
X96741843Y-82854974D01*
X96741841Y-82854974D01*
X96734448Y-82852202D01*
X96726598Y-82851349D01*
X96726597Y-82851349D01*
X96676153Y-82845869D01*
X96676152Y-82845869D01*
X96672756Y-82845500D01*
X95327244Y-82845500D01*
X95323848Y-82845869D01*
X95323847Y-82845869D01*
X95273403Y-82851349D01*
X95273402Y-82851349D01*
X95265552Y-82852202D01*
X95258159Y-82854974D01*
X95258157Y-82854974D01*
X95224579Y-82867562D01*
X95130236Y-82902929D01*
X95123057Y-82908309D01*
X95123054Y-82908311D01*
X95109147Y-82918734D01*
X95014596Y-82989596D01*
X95009215Y-82996776D01*
X94933311Y-83098054D01*
X94933309Y-83098057D01*
X94927929Y-83105236D01*
X94924779Y-83113640D01*
X94906001Y-83163729D01*
X94863360Y-83220494D01*
X94796798Y-83245194D01*
X94788019Y-83245500D01*
X93581149Y-83245500D01*
X93513028Y-83225498D01*
X93466535Y-83171842D01*
X93460710Y-83153775D01*
X93460137Y-83153948D01*
X93445351Y-83104974D01*
X93403200Y-82965363D01*
X93366116Y-82895619D01*
X93313611Y-82796871D01*
X93313609Y-82796868D01*
X93310717Y-82791429D01*
X93186212Y-82638770D01*
X93120894Y-82584734D01*
X93039177Y-82517132D01*
X93039174Y-82517130D01*
X93034427Y-82513203D01*
X92861143Y-82419508D01*
X92672960Y-82361256D01*
X92666835Y-82360612D01*
X92666834Y-82360612D01*
X92483176Y-82341309D01*
X92483174Y-82341309D01*
X92477047Y-82340665D01*
X92395018Y-82348130D01*
X92287004Y-82357960D01*
X92287001Y-82357961D01*
X92280865Y-82358519D01*
X92274959Y-82360257D01*
X92274955Y-82360258D01*
X92134775Y-82401516D01*
X92091887Y-82414138D01*
X92086427Y-82416992D01*
X92086428Y-82416992D01*
X91922772Y-82502549D01*
X91922768Y-82502552D01*
X91917312Y-82505404D01*
X91763788Y-82628840D01*
X91637163Y-82779745D01*
X91628881Y-82794810D01*
X91557281Y-82925052D01*
X91542262Y-82952371D01*
X91540398Y-82958246D01*
X91540397Y-82958249D01*
X91537118Y-82968587D01*
X91482697Y-83140142D01*
X91460738Y-83335907D01*
X85564500Y-83335907D01*
X85564500Y-80652677D01*
X87791524Y-80652677D01*
X87819351Y-80893176D01*
X87885271Y-81126133D01*
X87887406Y-81130712D01*
X87887407Y-81130714D01*
X87941849Y-81247465D01*
X87987589Y-81345553D01*
X87990430Y-81349734D01*
X87990431Y-81349735D01*
X88025172Y-81400854D01*
X88024556Y-81401272D01*
X88025720Y-81402420D01*
X88025905Y-81402281D01*
X88025935Y-81402321D01*
X88026597Y-81403203D01*
X88026797Y-81403482D01*
X88026834Y-81403519D01*
X88028393Y-81405595D01*
X88029809Y-81407679D01*
X88029898Y-81407820D01*
X88030035Y-81408011D01*
X88123671Y-81545793D01*
X88127148Y-81549470D01*
X88127153Y-81549476D01*
X88172137Y-81597044D01*
X88171584Y-81597567D01*
X88173601Y-81598994D01*
X88174083Y-81599636D01*
X88177809Y-81603197D01*
X88178140Y-81603570D01*
X88181516Y-81606963D01*
X88223972Y-81651858D01*
X88290018Y-81721699D01*
X88294035Y-81724770D01*
X88294038Y-81724773D01*
X88348578Y-81766472D01*
X88349084Y-81766870D01*
X88352468Y-81770104D01*
X88356740Y-81773018D01*
X88357645Y-81773636D01*
X88363166Y-81777626D01*
X88478327Y-81865674D01*
X88478338Y-81865681D01*
X88482348Y-81868747D01*
X88546786Y-81903298D01*
X88549421Y-81904754D01*
X88552029Y-81906236D01*
X88556300Y-81909149D01*
X88560986Y-81911324D01*
X88560989Y-81911326D01*
X88563427Y-81912458D01*
X88569912Y-81915699D01*
X88695715Y-81983153D01*
X88700500Y-81984801D01*
X88700501Y-81984801D01*
X88767084Y-82007727D01*
X88770543Y-82009121D01*
X88770561Y-82009071D01*
X88775403Y-82010853D01*
X88780104Y-82013035D01*
X88788723Y-82015425D01*
X88796036Y-82017697D01*
X88924629Y-82061975D01*
X88929618Y-82062837D01*
X88929619Y-82062837D01*
X89003145Y-82075537D01*
X89008988Y-82076848D01*
X89012888Y-82077592D01*
X89017871Y-82078974D01*
X89027403Y-82079993D01*
X89035428Y-82081113D01*
X89163200Y-82103183D01*
X89167161Y-82103363D01*
X89167162Y-82103363D01*
X89190784Y-82104436D01*
X89190803Y-82104436D01*
X89192203Y-82104500D01*
X89360841Y-82104500D01*
X89363349Y-82104298D01*
X89363354Y-82104298D01*
X89536283Y-82090385D01*
X89536288Y-82090384D01*
X89541324Y-82089979D01*
X89546232Y-82088774D01*
X89546235Y-82088773D01*
X89771525Y-82033436D01*
X89776439Y-82032229D01*
X89781091Y-82030254D01*
X89781095Y-82030253D01*
X89994642Y-81939607D01*
X89994643Y-81939607D01*
X89999297Y-81937631D01*
X90204163Y-81808620D01*
X90385768Y-81648514D01*
X90539439Y-81461432D01*
X90636690Y-81294339D01*
X90658680Y-81256556D01*
X90658681Y-81256554D01*
X90661222Y-81252188D01*
X90699835Y-81151597D01*
X90746169Y-81030894D01*
X90746170Y-81030891D01*
X90747984Y-81026165D01*
X90797493Y-80789177D01*
X90800578Y-80721254D01*
X90803148Y-80664657D01*
X90803692Y-80652677D01*
X91591524Y-80652677D01*
X91619351Y-80893176D01*
X91685271Y-81126133D01*
X91687406Y-81130712D01*
X91687407Y-81130714D01*
X91741849Y-81247465D01*
X91787589Y-81345553D01*
X91790430Y-81349734D01*
X91790431Y-81349735D01*
X91825172Y-81400854D01*
X91824556Y-81401272D01*
X91825720Y-81402420D01*
X91825905Y-81402281D01*
X91825935Y-81402321D01*
X91826597Y-81403203D01*
X91826797Y-81403482D01*
X91826834Y-81403519D01*
X91828393Y-81405595D01*
X91829809Y-81407679D01*
X91829898Y-81407820D01*
X91830035Y-81408011D01*
X91923671Y-81545793D01*
X91927148Y-81549470D01*
X91927153Y-81549476D01*
X91972137Y-81597044D01*
X91971584Y-81597567D01*
X91973601Y-81598994D01*
X91974083Y-81599636D01*
X91977809Y-81603197D01*
X91978140Y-81603570D01*
X91981516Y-81606963D01*
X92023972Y-81651858D01*
X92090018Y-81721699D01*
X92094035Y-81724770D01*
X92094038Y-81724773D01*
X92148578Y-81766472D01*
X92149084Y-81766870D01*
X92152468Y-81770104D01*
X92156740Y-81773018D01*
X92157645Y-81773636D01*
X92163166Y-81777626D01*
X92278327Y-81865674D01*
X92278338Y-81865681D01*
X92282348Y-81868747D01*
X92346786Y-81903298D01*
X92349421Y-81904754D01*
X92352029Y-81906236D01*
X92356300Y-81909149D01*
X92360986Y-81911324D01*
X92360989Y-81911326D01*
X92363427Y-81912458D01*
X92369912Y-81915699D01*
X92495715Y-81983153D01*
X92500500Y-81984801D01*
X92500501Y-81984801D01*
X92567084Y-82007727D01*
X92570543Y-82009121D01*
X92570561Y-82009071D01*
X92575403Y-82010853D01*
X92580104Y-82013035D01*
X92588723Y-82015425D01*
X92596036Y-82017697D01*
X92724629Y-82061975D01*
X92729618Y-82062837D01*
X92729619Y-82062837D01*
X92803145Y-82075537D01*
X92808988Y-82076848D01*
X92812888Y-82077592D01*
X92817871Y-82078974D01*
X92827403Y-82079993D01*
X92835428Y-82081113D01*
X92963200Y-82103183D01*
X92967161Y-82103363D01*
X92967162Y-82103363D01*
X92990784Y-82104436D01*
X92990803Y-82104436D01*
X92992203Y-82104500D01*
X93160841Y-82104500D01*
X93163349Y-82104298D01*
X93163354Y-82104298D01*
X93336283Y-82090385D01*
X93336288Y-82090384D01*
X93341324Y-82089979D01*
X93346232Y-82088774D01*
X93346235Y-82088773D01*
X93571525Y-82033436D01*
X93576439Y-82032229D01*
X93581091Y-82030254D01*
X93581095Y-82030253D01*
X93794642Y-81939607D01*
X93794643Y-81939607D01*
X93799297Y-81937631D01*
X94004163Y-81808620D01*
X94185768Y-81648514D01*
X94339439Y-81461432D01*
X94436690Y-81294339D01*
X94458680Y-81256556D01*
X94458681Y-81256554D01*
X94461222Y-81252188D01*
X94499835Y-81151597D01*
X94546169Y-81030894D01*
X94546170Y-81030891D01*
X94547984Y-81026165D01*
X94597493Y-80789177D01*
X94600578Y-80721254D01*
X94603148Y-80664657D01*
X94608476Y-80547323D01*
X94580649Y-80306824D01*
X94568455Y-80263729D01*
X94516107Y-80078736D01*
X94516106Y-80078734D01*
X94514729Y-80073867D01*
X94504966Y-80052929D01*
X94414548Y-79859030D01*
X94412411Y-79854447D01*
X94388946Y-79819919D01*
X94374828Y-79799146D01*
X94375444Y-79798728D01*
X94374280Y-79797580D01*
X94374095Y-79797719D01*
X94373991Y-79797580D01*
X94373403Y-79796797D01*
X94373203Y-79796518D01*
X94373166Y-79796481D01*
X94371607Y-79794405D01*
X94370191Y-79792321D01*
X94370102Y-79792180D01*
X94369965Y-79791989D01*
X94276329Y-79654207D01*
X94272852Y-79650530D01*
X94272847Y-79650524D01*
X94227863Y-79602956D01*
X94228416Y-79602433D01*
X94226399Y-79601006D01*
X94225917Y-79600364D01*
X94222191Y-79596803D01*
X94221860Y-79596430D01*
X94218484Y-79593037D01*
X94113458Y-79481977D01*
X94109982Y-79478301D01*
X94105965Y-79475230D01*
X94105962Y-79475227D01*
X94051422Y-79433528D01*
X94050916Y-79433130D01*
X94047532Y-79429896D01*
X94043260Y-79426982D01*
X94042355Y-79426364D01*
X94036834Y-79422374D01*
X93921673Y-79334326D01*
X93921662Y-79334319D01*
X93917652Y-79331253D01*
X93853214Y-79296702D01*
X93850579Y-79295246D01*
X93847971Y-79293764D01*
X93843700Y-79290851D01*
X93839014Y-79288676D01*
X93839011Y-79288674D01*
X93836573Y-79287542D01*
X93830081Y-79284298D01*
X93797528Y-79266843D01*
X93704285Y-79216847D01*
X93632913Y-79192272D01*
X93629457Y-79190879D01*
X93629439Y-79190929D01*
X93624597Y-79189147D01*
X93619896Y-79186965D01*
X93611277Y-79184575D01*
X93603964Y-79182303D01*
X93475371Y-79138025D01*
X93470382Y-79137163D01*
X93470381Y-79137163D01*
X93396855Y-79124463D01*
X93391012Y-79123152D01*
X93387112Y-79122408D01*
X93382129Y-79121026D01*
X93372597Y-79120007D01*
X93364572Y-79118887D01*
X93236800Y-79096817D01*
X93232839Y-79096637D01*
X93232838Y-79096637D01*
X93209216Y-79095564D01*
X93209197Y-79095564D01*
X93207797Y-79095500D01*
X93039159Y-79095500D01*
X93036651Y-79095702D01*
X93036646Y-79095702D01*
X92863717Y-79109615D01*
X92863712Y-79109616D01*
X92858676Y-79110021D01*
X92853768Y-79111226D01*
X92853765Y-79111227D01*
X92737951Y-79139674D01*
X92623561Y-79167771D01*
X92618909Y-79169746D01*
X92618905Y-79169747D01*
X92502308Y-79219240D01*
X92400703Y-79262369D01*
X92195837Y-79391380D01*
X92014232Y-79551486D01*
X91860561Y-79738568D01*
X91836400Y-79780081D01*
X91746507Y-79934533D01*
X91738778Y-79947812D01*
X91736965Y-79952535D01*
X91667225Y-80134215D01*
X91652016Y-80173835D01*
X91602507Y-80410823D01*
X91602278Y-80415873D01*
X91602277Y-80415878D01*
X91598589Y-80497106D01*
X91591524Y-80652677D01*
X90803692Y-80652677D01*
X90808476Y-80547323D01*
X90780649Y-80306824D01*
X90768455Y-80263729D01*
X90716107Y-80078736D01*
X90716106Y-80078734D01*
X90714729Y-80073867D01*
X90704966Y-80052929D01*
X90614548Y-79859030D01*
X90612411Y-79854447D01*
X90588946Y-79819919D01*
X90574828Y-79799146D01*
X90575444Y-79798728D01*
X90574280Y-79797580D01*
X90574095Y-79797719D01*
X90573991Y-79797580D01*
X90573403Y-79796797D01*
X90573203Y-79796518D01*
X90573166Y-79796481D01*
X90571607Y-79794405D01*
X90570191Y-79792321D01*
X90570102Y-79792180D01*
X90569965Y-79791989D01*
X90476329Y-79654207D01*
X90472852Y-79650530D01*
X90472847Y-79650524D01*
X90427863Y-79602956D01*
X90428416Y-79602433D01*
X90426399Y-79601006D01*
X90425917Y-79600364D01*
X90422191Y-79596803D01*
X90421860Y-79596430D01*
X90418484Y-79593037D01*
X90313458Y-79481977D01*
X90309982Y-79478301D01*
X90305965Y-79475230D01*
X90305962Y-79475227D01*
X90251422Y-79433528D01*
X90250916Y-79433130D01*
X90247532Y-79429896D01*
X90243260Y-79426982D01*
X90242355Y-79426364D01*
X90236834Y-79422374D01*
X90121673Y-79334326D01*
X90121662Y-79334319D01*
X90117652Y-79331253D01*
X90053214Y-79296702D01*
X90050579Y-79295246D01*
X90047971Y-79293764D01*
X90043700Y-79290851D01*
X90039014Y-79288676D01*
X90039011Y-79288674D01*
X90036573Y-79287542D01*
X90030081Y-79284298D01*
X89997528Y-79266843D01*
X89904285Y-79216847D01*
X89832913Y-79192272D01*
X89829457Y-79190879D01*
X89829439Y-79190929D01*
X89824597Y-79189147D01*
X89819896Y-79186965D01*
X89811277Y-79184575D01*
X89803964Y-79182303D01*
X89675371Y-79138025D01*
X89670382Y-79137163D01*
X89670381Y-79137163D01*
X89596855Y-79124463D01*
X89591012Y-79123152D01*
X89587112Y-79122408D01*
X89582129Y-79121026D01*
X89572597Y-79120007D01*
X89564572Y-79118887D01*
X89436800Y-79096817D01*
X89432839Y-79096637D01*
X89432838Y-79096637D01*
X89409216Y-79095564D01*
X89409197Y-79095564D01*
X89407797Y-79095500D01*
X89239159Y-79095500D01*
X89236651Y-79095702D01*
X89236646Y-79095702D01*
X89063717Y-79109615D01*
X89063712Y-79109616D01*
X89058676Y-79110021D01*
X89053768Y-79111226D01*
X89053765Y-79111227D01*
X88937951Y-79139674D01*
X88823561Y-79167771D01*
X88818909Y-79169746D01*
X88818905Y-79169747D01*
X88702308Y-79219240D01*
X88600703Y-79262369D01*
X88395837Y-79391380D01*
X88214232Y-79551486D01*
X88060561Y-79738568D01*
X88036400Y-79780081D01*
X87946507Y-79934533D01*
X87938778Y-79947812D01*
X87936965Y-79952535D01*
X87867225Y-80134215D01*
X87852016Y-80173835D01*
X87802507Y-80410823D01*
X87802278Y-80415873D01*
X87802277Y-80415878D01*
X87798589Y-80497106D01*
X87791524Y-80652677D01*
X85564500Y-80652677D01*
X85564500Y-71952186D01*
X85951018Y-71952186D01*
X85976579Y-72220100D01*
X85977664Y-72224534D01*
X85977665Y-72224540D01*
X86013325Y-72370269D01*
X86040547Y-72481518D01*
X86141583Y-72730963D01*
X86174998Y-72788031D01*
X86273034Y-72955464D01*
X86277569Y-72963210D01*
X86368352Y-73076728D01*
X86392949Y-73107485D01*
X86445658Y-73173395D01*
X86642327Y-73357113D01*
X86863457Y-73510516D01*
X87104416Y-73630391D01*
X87108750Y-73631812D01*
X87108753Y-73631813D01*
X87355823Y-73712807D01*
X87355829Y-73712808D01*
X87360156Y-73714227D01*
X87364647Y-73715007D01*
X87364648Y-73715007D01*
X87621538Y-73759611D01*
X87621546Y-73759612D01*
X87625319Y-73760267D01*
X87629156Y-73760458D01*
X87708777Y-73764422D01*
X87708785Y-73764422D01*
X87710348Y-73764500D01*
X87878374Y-73764500D01*
X87880642Y-73764335D01*
X87880654Y-73764335D01*
X88011457Y-73754844D01*
X88078425Y-73749985D01*
X88082880Y-73749001D01*
X88082883Y-73749001D01*
X88336770Y-73692947D01*
X88336772Y-73692946D01*
X88341226Y-73691963D01*
X88592900Y-73596613D01*
X88639713Y-73570611D01*
X88824179Y-73468149D01*
X88824180Y-73468148D01*
X88828172Y-73465931D01*
X88939994Y-73380591D01*
X89038491Y-73305421D01*
X89038495Y-73305417D01*
X89042116Y-73302654D01*
X89230249Y-73110203D01*
X89293600Y-73023168D01*
X89385942Y-72896304D01*
X89385947Y-72896297D01*
X89388630Y-72892610D01*
X89513941Y-72654433D01*
X89603557Y-72400662D01*
X89632615Y-72253231D01*
X89654720Y-72141083D01*
X89654721Y-72141077D01*
X89655601Y-72136611D01*
X89659512Y-72058053D01*
X89668755Y-71872383D01*
X89668755Y-71872377D01*
X89668982Y-71867814D01*
X89666276Y-71839455D01*
X91794825Y-71839455D01*
X91795512Y-71846462D01*
X91795512Y-71846465D01*
X91798311Y-71875010D01*
X91811255Y-72007025D01*
X91864402Y-72166791D01*
X91868049Y-72172813D01*
X91868050Y-72172815D01*
X91916752Y-72253231D01*
X91951624Y-72310812D01*
X91956513Y-72315875D01*
X91956514Y-72315876D01*
X92003638Y-72364674D01*
X92068586Y-72431929D01*
X92074483Y-72435788D01*
X92203577Y-72520266D01*
X92203581Y-72520268D01*
X92209475Y-72524125D01*
X92367289Y-72582815D01*
X92374270Y-72583746D01*
X92374272Y-72583747D01*
X92419812Y-72589823D01*
X92534183Y-72605083D01*
X92541194Y-72604445D01*
X92541198Y-72604445D01*
X92694843Y-72590462D01*
X92701864Y-72589823D01*
X92708566Y-72587645D01*
X92708568Y-72587645D01*
X92855298Y-72539970D01*
X92855301Y-72539969D01*
X92861997Y-72537793D01*
X93006623Y-72451578D01*
X93011717Y-72446727D01*
X93011721Y-72446724D01*
X93123454Y-72340322D01*
X93123455Y-72340320D01*
X93128554Y-72335465D01*
X93144934Y-72310812D01*
X93202253Y-72224540D01*
X93221731Y-72195223D01*
X93281521Y-72037823D01*
X93304955Y-71871088D01*
X93305249Y-71850000D01*
X93298777Y-71792299D01*
X93287266Y-71689672D01*
X93287265Y-71689669D01*
X93286481Y-71682676D01*
X93231108Y-71523668D01*
X93141884Y-71380879D01*
X93133723Y-71372661D01*
X93028205Y-71266403D01*
X93028201Y-71266400D01*
X93023242Y-71261406D01*
X93011344Y-71253855D01*
X92967953Y-71226319D01*
X92881079Y-71171187D01*
X92722462Y-71114706D01*
X92715474Y-71113873D01*
X92715471Y-71113872D01*
X92621043Y-71102612D01*
X92555273Y-71094769D01*
X92548270Y-71095505D01*
X92548269Y-71095505D01*
X92502712Y-71100293D01*
X92387821Y-71112369D01*
X92381155Y-71114638D01*
X92381152Y-71114639D01*
X92235098Y-71164360D01*
X92235095Y-71164361D01*
X92228431Y-71166630D01*
X92222436Y-71170318D01*
X92222432Y-71170320D01*
X92091021Y-71251165D01*
X92091019Y-71251167D01*
X92085022Y-71254856D01*
X91964724Y-71372661D01*
X91873515Y-71514190D01*
X91871105Y-71520810D01*
X91871104Y-71520813D01*
X91855309Y-71564210D01*
X91815927Y-71672409D01*
X91794825Y-71839455D01*
X89666276Y-71839455D01*
X89643421Y-71599900D01*
X89638805Y-71581033D01*
X89580539Y-71342920D01*
X89579453Y-71338482D01*
X89478417Y-71089037D01*
X89359193Y-70885418D01*
X89344741Y-70860735D01*
X89344740Y-70860734D01*
X89342431Y-70856790D01*
X89174342Y-70646605D01*
X88977673Y-70462887D01*
X88756543Y-70309484D01*
X88515584Y-70189609D01*
X88511250Y-70188188D01*
X88511247Y-70188187D01*
X88264177Y-70107193D01*
X88264171Y-70107192D01*
X88259844Y-70105773D01*
X88255352Y-70104993D01*
X87998462Y-70060389D01*
X87998454Y-70060388D01*
X87994681Y-70059733D01*
X87984718Y-70059237D01*
X87911223Y-70055578D01*
X87911215Y-70055578D01*
X87909652Y-70055500D01*
X87741626Y-70055500D01*
X87739358Y-70055665D01*
X87739346Y-70055665D01*
X87608543Y-70065156D01*
X87541575Y-70070015D01*
X87537120Y-70070999D01*
X87537117Y-70070999D01*
X87283230Y-70127053D01*
X87283228Y-70127054D01*
X87278774Y-70128037D01*
X87027100Y-70223387D01*
X87023114Y-70225601D01*
X87023112Y-70225602D01*
X86822970Y-70336771D01*
X86791828Y-70354069D01*
X86788196Y-70356841D01*
X86581509Y-70514579D01*
X86581505Y-70514583D01*
X86577884Y-70517346D01*
X86389751Y-70709797D01*
X86387066Y-70713486D01*
X86234058Y-70923696D01*
X86234053Y-70923703D01*
X86231370Y-70927390D01*
X86106059Y-71165567D01*
X86016443Y-71419338D01*
X85995880Y-71523668D01*
X85967869Y-71665786D01*
X85964399Y-71683389D01*
X85964172Y-71687942D01*
X85964172Y-71687945D01*
X85954991Y-71872383D01*
X85951018Y-71952186D01*
X85564500Y-71952186D01*
X85564500Y-70947476D01*
X85566921Y-70922894D01*
X85567065Y-70922171D01*
X85569486Y-70910000D01*
X85567064Y-70897827D01*
X85567064Y-70885418D01*
X85567916Y-70885418D01*
X85567280Y-70874666D01*
X85568377Y-70860735D01*
X85579056Y-70725046D01*
X85582149Y-70705518D01*
X85623144Y-70534760D01*
X85629254Y-70515956D01*
X85696458Y-70353712D01*
X85705428Y-70336107D01*
X85774503Y-70223387D01*
X85797188Y-70186368D01*
X85808810Y-70170372D01*
X85902745Y-70060389D01*
X85922860Y-70036838D01*
X85936839Y-70022859D01*
X86070372Y-69908810D01*
X86086368Y-69897188D01*
X86128419Y-69871419D01*
X86236107Y-69805428D01*
X86253712Y-69796458D01*
X86415961Y-69729252D01*
X86434755Y-69723146D01*
X86605519Y-69682149D01*
X86625046Y-69679056D01*
X86774669Y-69667280D01*
X86785418Y-69667916D01*
X86785418Y-69667064D01*
X86797827Y-69667064D01*
X86810000Y-69669486D01*
X86822893Y-69666922D01*
X86847470Y-69664501D01*
X100694557Y-69664656D01*
G37*
%TD.AperFunction*%
%TD*%
M02*
