%TF.GenerationSoftware,KiCad,Pcbnew,6.0.9-8da3e8f707~117~ubuntu22.04.1*%
%TF.CreationDate,2022-12-11T02:22:03+05:30*%
%TF.ProjectId,lsa,6c73612e-6b69-4636-9164-5f7063625858,rev?*%
%TF.SameCoordinates,Original*%
%TF.FileFunction,Copper,L2,Bot*%
%TF.FilePolarity,Positive*%
%FSLAX46Y46*%
G04 Gerber Fmt 4.6, Leading zero omitted, Abs format (unit mm)*
G04 Created by KiCad (PCBNEW 6.0.9-8da3e8f707~117~ubuntu22.04.1) date 2022-12-11 02:22:03*
%MOMM*%
%LPD*%
G01*
G04 APERTURE LIST*
G04 Aperture macros list*
%AMRoundRect*
0 Rectangle with rounded corners*
0 $1 Rounding radius*
0 $2 $3 $4 $5 $6 $7 $8 $9 X,Y pos of 4 corners*
0 Add a 4 corners polygon primitive as box body*
4,1,4,$2,$3,$4,$5,$6,$7,$8,$9,$2,$3,0*
0 Add four circle primitives for the rounded corners*
1,1,$1+$1,$2,$3*
1,1,$1+$1,$4,$5*
1,1,$1+$1,$6,$7*
1,1,$1+$1,$8,$9*
0 Add four rect primitives between the rounded corners*
20,1,$1+$1,$2,$3,$4,$5,0*
20,1,$1+$1,$4,$5,$6,$7,0*
20,1,$1+$1,$6,$7,$8,$9,0*
20,1,$1+$1,$8,$9,$2,$3,0*%
G04 Aperture macros list end*
%TA.AperFunction,ComponentPad*%
%ADD10C,1.500000*%
%TD*%
%TA.AperFunction,SMDPad,CuDef*%
%ADD11RoundRect,0.250000X0.625000X-0.400000X0.625000X0.400000X-0.625000X0.400000X-0.625000X-0.400000X0*%
%TD*%
%TA.AperFunction,ComponentPad*%
%ADD12R,1.700000X1.700000*%
%TD*%
%TA.AperFunction,ComponentPad*%
%ADD13O,1.700000X1.700000*%
%TD*%
%TA.AperFunction,SMDPad,CuDef*%
%ADD14RoundRect,0.250000X-0.400000X-0.625000X0.400000X-0.625000X0.400000X0.625000X-0.400000X0.625000X0*%
%TD*%
%TA.AperFunction,SMDPad,CuDef*%
%ADD15C,0.500000*%
%TD*%
%TA.AperFunction,Conductor*%
%ADD16C,0.600000*%
%TD*%
%TA.AperFunction,Conductor*%
%ADD17C,0.300000*%
%TD*%
G04 APERTURE END LIST*
D10*
%TO.P,U3,A*%
%TO.N,Net-(R6-Pad1)*%
X117470000Y-83350000D03*
%TO.P,U3,CATH*%
%TO.N,GND*%
X114930000Y-83350000D03*
%TO.P,U3,COLL*%
%TO.N,/A2_34*%
X117470000Y-77850000D03*
%TO.P,U3,E*%
%TO.N,GND*%
X114930000Y-77850000D03*
%TD*%
D11*
%TO.P,R8,2*%
%TO.N,+3V3*%
X99700000Y-80650000D03*
%TO.P,R8,1*%
%TO.N,Net-(R8-Pad1)*%
X99700000Y-83750000D03*
%TD*%
D12*
%TO.P,J1,1,Pin_1*%
%TO.N,/A4_32*%
X108500000Y-72400000D03*
D13*
%TO.P,J1,2,Pin_2*%
%TO.N,/A3_35*%
X111040000Y-72400000D03*
%TO.P,J1,3,Pin_3*%
%TO.N,/A2_34*%
X113580000Y-72400000D03*
%TO.P,J1,4,Pin_4*%
%TO.N,/A1_39*%
X116120000Y-72400000D03*
%TO.P,J1,5,Pin_5*%
%TO.N,/A0_36*%
X118660000Y-72400000D03*
%TO.P,J1,6,Pin_6*%
%TO.N,GND*%
X121200000Y-72400000D03*
%TO.P,J1,7,Pin_7*%
%TO.N,+3V3*%
X123740000Y-72400000D03*
%TD*%
D10*
%TO.P,U5,A*%
%TO.N,Net-(R10-Pad1)*%
X92470000Y-83350000D03*
%TO.P,U5,CATH*%
%TO.N,GND*%
X89930000Y-83350000D03*
%TO.P,U5,COLL*%
%TO.N,/A4_32*%
X92470000Y-77850000D03*
%TO.P,U5,E*%
%TO.N,GND*%
X89930000Y-77850000D03*
%TD*%
%TO.P,U4,A*%
%TO.N,Net-(R8-Pad1)*%
X105670000Y-83350000D03*
%TO.P,U4,CATH*%
%TO.N,GND*%
X103130000Y-83350000D03*
%TO.P,U4,COLL*%
%TO.N,/A3_35*%
X105670000Y-77850000D03*
%TO.P,U4,E*%
%TO.N,GND*%
X103130000Y-77850000D03*
%TD*%
%TO.P,U2,A*%
%TO.N,Net-(R4-Pad1)*%
X129270000Y-83350000D03*
%TO.P,U2,CATH*%
%TO.N,GND*%
X126730000Y-83350000D03*
%TO.P,U2,COLL*%
%TO.N,/A1_39*%
X129270000Y-77850000D03*
%TO.P,U2,E*%
%TO.N,GND*%
X126730000Y-77850000D03*
%TD*%
%TO.P,U1,E*%
%TO.N,GND*%
X139930000Y-77850000D03*
%TO.P,U1,COLL*%
%TO.N,/A0_36*%
X142470000Y-77850000D03*
%TO.P,U1,CATH*%
%TO.N,GND*%
X139930000Y-83350000D03*
%TO.P,U1,A*%
%TO.N,Net-(R2-Pad1)*%
X142470000Y-83350000D03*
%TD*%
D11*
%TO.P,R7,2*%
%TO.N,/A3_35*%
X99700000Y-75450000D03*
%TO.P,R7,1*%
%TO.N,+3V3*%
X99700000Y-78550000D03*
%TD*%
%TO.P,R2,2*%
%TO.N,+3V3*%
X136400000Y-80850000D03*
%TO.P,R2,1*%
%TO.N,Net-(R2-Pad1)*%
X136400000Y-83950000D03*
%TD*%
D14*
%TO.P,R5,1*%
%TO.N,+3V3*%
X117100000Y-88200000D03*
%TO.P,R5,2*%
%TO.N,/A2_34*%
X120200000Y-88200000D03*
%TD*%
D11*
%TO.P,R9,2*%
%TO.N,/A4_32*%
X96000000Y-75450000D03*
%TO.P,R9,1*%
%TO.N,+3V3*%
X96000000Y-78550000D03*
%TD*%
D15*
%TO.P,REF\u002A\u002A,*%
%TO.N,*%
X145440000Y-90610000D03*
%TD*%
D11*
%TO.P,R4,1*%
%TO.N,Net-(R4-Pad1)*%
X132800000Y-84000000D03*
%TO.P,R4,2*%
%TO.N,+3V3*%
X132800000Y-80900000D03*
%TD*%
%TO.P,R3,1*%
%TO.N,+3V3*%
X132800000Y-78750000D03*
%TO.P,R3,2*%
%TO.N,/A1_39*%
X132800000Y-75650000D03*
%TD*%
%TO.P,R1,2*%
%TO.N,/A0_36*%
X136400000Y-75650000D03*
%TO.P,R1,1*%
%TO.N,+3V3*%
X136400000Y-78750000D03*
%TD*%
D14*
%TO.P,R6,1*%
%TO.N,Net-(R6-Pad1)*%
X111800000Y-88200000D03*
%TO.P,R6,2*%
%TO.N,+3V3*%
X114900000Y-88200000D03*
%TD*%
D11*
%TO.P,R10,2*%
%TO.N,+3V3*%
X96000000Y-80650000D03*
%TO.P,R10,1*%
%TO.N,Net-(R10-Pad1)*%
X96000000Y-83750000D03*
%TD*%
D15*
%TO.P,REF\u002A\u002A,*%
%TO.N,*%
X92550000Y-71850000D03*
%TD*%
D16*
%TO.N,/A2_34*%
X117470000Y-77850000D02*
X119150000Y-77850000D01*
X119150000Y-77850000D02*
X120200000Y-78900000D01*
X120200000Y-78900000D02*
X120200000Y-88200000D01*
%TO.N,Net-(R2-Pad1)*%
X137000000Y-84900000D02*
X141900000Y-84900000D01*
X142470000Y-84330000D02*
X142470000Y-83350000D01*
X136400000Y-84300000D02*
X137000000Y-84900000D01*
X141900000Y-84900000D02*
X142470000Y-84330000D01*
%TO.N,+3V3*%
X123740000Y-72400000D02*
X123840000Y-72500000D01*
X123840000Y-72500000D02*
X134900000Y-72500000D01*
X134900000Y-72500000D02*
X136200000Y-73800000D01*
X136200000Y-73800000D02*
X141500000Y-73800000D01*
X141500000Y-73800000D02*
X144900001Y-77200001D01*
X144900001Y-77200001D02*
X144900001Y-84899999D01*
X134400000Y-85085660D02*
X134400000Y-84300000D01*
X144900001Y-84899999D02*
X143700000Y-86100000D01*
X143700000Y-86100000D02*
X135414340Y-86100000D01*
X135414340Y-86100000D02*
X134400000Y-85085660D01*
%TO.N,/A0_36*%
X136400000Y-75650000D02*
X134750000Y-74000000D01*
X134750000Y-74000000D02*
X119600000Y-74000000D01*
X119600000Y-74000000D02*
X118660000Y-73060000D01*
X118660000Y-73060000D02*
X118660000Y-72400000D01*
X142470000Y-76770000D02*
X140600000Y-74900000D01*
X142470000Y-77850000D02*
X142470000Y-76770000D01*
X140600000Y-74900000D02*
X137150000Y-74900000D01*
X137150000Y-74900000D02*
X136400000Y-75650000D01*
%TO.N,+3V3*%
X136400000Y-80850000D02*
X136350000Y-80900000D01*
X136350000Y-80900000D02*
X134500000Y-80900000D01*
%TO.N,Net-(R4-Pad1)*%
X129270000Y-83350000D02*
X132150000Y-83350000D01*
X132150000Y-83350000D02*
X132800000Y-84000000D01*
%TO.N,/A1_39*%
X129270000Y-77850000D02*
X129270000Y-76955000D01*
X129270000Y-76955000D02*
X130575000Y-75650000D01*
X130575000Y-75650000D02*
X132800000Y-75650000D01*
X129270000Y-77850000D02*
X129270000Y-76870000D01*
X116120000Y-74320000D02*
X116120000Y-72400000D01*
X129270000Y-76870000D02*
X127299999Y-74899999D01*
X127299999Y-74899999D02*
X116699999Y-74899999D01*
X116699999Y-74899999D02*
X116120000Y-74320000D01*
%TO.N,/A2_34*%
X113580000Y-72400000D02*
X113580000Y-73880000D01*
X113580000Y-73880000D02*
X117470000Y-77770000D01*
X117470000Y-77770000D02*
X117470000Y-77850000D01*
%TO.N,Net-(R6-Pad1)*%
X111800000Y-88200000D02*
X111800000Y-86600000D01*
X111800000Y-86600000D02*
X113100000Y-85300000D01*
X113100000Y-85300000D02*
X116700000Y-85300000D01*
X116700000Y-85300000D02*
X117470000Y-84530000D01*
X117470000Y-84530000D02*
X117470000Y-83350000D01*
%TO.N,+3V3*%
X117100000Y-88200000D02*
X117100000Y-89000000D01*
X117100000Y-89000000D02*
X118700000Y-90600000D01*
X113600000Y-90600000D02*
X114900000Y-89300000D01*
X114900000Y-89300000D02*
X114900000Y-88200000D01*
%TO.N,/A3_35*%
X100100000Y-74500000D02*
X107500000Y-74500000D01*
X107500000Y-74500000D02*
X110400000Y-74500000D01*
X105670000Y-77850000D02*
X105670000Y-76330000D01*
X105670000Y-76330000D02*
X107500000Y-74500000D01*
X99700000Y-75450000D02*
X99700000Y-74900000D01*
X99700000Y-74900000D02*
X100100000Y-74500000D01*
X110400000Y-74500000D02*
X111040000Y-73860000D01*
X111040000Y-73860000D02*
X111040000Y-72400000D01*
%TO.N,+3V3*%
X113600000Y-90600000D02*
X107900000Y-90600000D01*
X107900000Y-90600000D02*
X103100000Y-85800000D01*
X103100000Y-85800000D02*
X98700000Y-85800000D01*
X97900000Y-82550000D02*
X96000000Y-80650000D01*
X98700000Y-85800000D02*
X97900000Y-85000000D01*
X97900000Y-85000000D02*
X97900000Y-82550000D01*
%TO.N,Net-(R8-Pad1)*%
X99700000Y-83750000D02*
X99700000Y-83800000D01*
X100800000Y-84900000D02*
X104120000Y-84900000D01*
X99700000Y-83800000D02*
X100800000Y-84900000D01*
X104120000Y-84900000D02*
X105670000Y-83350000D01*
%TO.N,+3V3*%
X99700000Y-80650000D02*
X99450000Y-80650000D01*
X99450000Y-80650000D02*
X97900000Y-82200000D01*
X97900000Y-82200000D02*
X97900000Y-84900000D01*
%TO.N,Net-(R10-Pad1)*%
X92470000Y-83350000D02*
X95600000Y-83350000D01*
X95600000Y-83350000D02*
X96000000Y-83750000D01*
%TO.N,/A4_32*%
X97600000Y-72400000D02*
X96000000Y-74000000D01*
X96000000Y-74000000D02*
X96000000Y-75450000D01*
X96000000Y-75450000D02*
X94870000Y-75450000D01*
X94870000Y-75450000D02*
X92470000Y-77850000D01*
%TO.N,+3V3*%
X118700000Y-90600000D02*
X125200000Y-90600000D01*
X129730001Y-86069999D02*
X133530001Y-86069999D01*
X133530001Y-86069999D02*
X134400000Y-85200000D01*
X125200000Y-90600000D02*
X129730001Y-86069999D01*
X134400000Y-85200000D02*
X134400000Y-84300000D01*
X134400000Y-84300000D02*
X134400000Y-81000000D01*
X134400000Y-81000000D02*
X134500000Y-80900000D01*
X132800000Y-80900000D02*
X134500000Y-80900000D01*
%TO.N,Net-(R2-Pad1)*%
X136400000Y-83950000D02*
X136400000Y-84300000D01*
%TO.N,Net-(R6-Pad1)*%
X111900000Y-88300000D02*
X111800000Y-88200000D01*
%TO.N,/A4_32*%
X97600000Y-72400000D02*
X108500000Y-72400000D01*
%TO.N,GND*%
X102730000Y-83750000D02*
X103130000Y-83350000D01*
%TO.N,+3V3*%
X114900000Y-88200000D02*
X117100000Y-88200000D01*
X99700000Y-78550000D02*
X99700000Y-80650000D01*
X96000000Y-78550000D02*
X96000000Y-80650000D01*
%TO.N,/A4_32*%
X92470000Y-77850000D02*
X92470000Y-77430000D01*
D17*
%TO.N,*%
X142525000Y-81250000D02*
X142790000Y-80985000D01*
X142790000Y-80985000D02*
X142455000Y-81320000D01*
D16*
%TO.N,+3V3*%
X123740000Y-72400000D02*
X123815000Y-72475000D01*
X124140000Y-72000000D02*
X123740000Y-72400000D01*
X132800000Y-78750000D02*
X132800000Y-80900000D01*
X136400000Y-80850000D02*
X136400000Y-78750000D01*
%TD*%
%TA.AperFunction,Conductor*%
%TO.N,GND*%
G36*
X115992902Y-68154500D02*
G01*
X145327180Y-68154829D01*
X145351766Y-68157251D01*
X145352487Y-68157395D01*
X145352491Y-68157395D01*
X145364659Y-68159816D01*
X145376829Y-68157396D01*
X145389242Y-68157396D01*
X145389242Y-68158096D01*
X145400012Y-68157433D01*
X145529899Y-68166998D01*
X145562497Y-68169399D01*
X145580794Y-68172108D01*
X145699194Y-68198640D01*
X145765324Y-68213459D01*
X145783021Y-68218816D01*
X145959505Y-68286735D01*
X145976225Y-68294623D01*
X145977158Y-68295150D01*
X146140865Y-68387649D01*
X146156256Y-68397904D01*
X146190654Y-68424669D01*
X146305505Y-68514035D01*
X146319230Y-68526435D01*
X146446914Y-68660073D01*
X146449862Y-68663159D01*
X146461623Y-68677435D01*
X146570832Y-68831812D01*
X146580377Y-68847655D01*
X146665022Y-69014805D01*
X146665807Y-69016356D01*
X146672928Y-69033423D01*
X146711576Y-69149340D01*
X146732741Y-69212823D01*
X146737287Y-69230753D01*
X146765637Y-69391210D01*
X146766069Y-69401972D01*
X146766766Y-69401901D01*
X146768023Y-69414249D01*
X146766847Y-69426601D01*
X146770384Y-69438125D01*
X146770943Y-69448190D01*
X146778303Y-70223387D01*
X146784834Y-70911285D01*
X146784840Y-70912481D01*
X146784840Y-90541860D01*
X146782418Y-90566444D01*
X146779854Y-90579333D01*
X146782274Y-90591503D01*
X146782274Y-90603915D01*
X146781424Y-90603915D01*
X146782058Y-90614669D01*
X146770279Y-90764286D01*
X146767186Y-90783813D01*
X146726188Y-90954569D01*
X146720078Y-90973373D01*
X146652873Y-91135613D01*
X146643897Y-91153229D01*
X146552138Y-91302963D01*
X146540517Y-91318957D01*
X146426470Y-91452489D01*
X146412489Y-91466470D01*
X146278957Y-91580517D01*
X146262963Y-91592138D01*
X146113229Y-91683897D01*
X146095613Y-91692873D01*
X145933373Y-91760078D01*
X145914569Y-91766188D01*
X145743813Y-91807186D01*
X145724286Y-91810279D01*
X145574669Y-91822058D01*
X145563915Y-91821424D01*
X145563915Y-91822274D01*
X145551503Y-91822274D01*
X145539333Y-91819854D01*
X145527163Y-91822275D01*
X145527162Y-91822275D01*
X145526608Y-91822386D01*
X145526409Y-91822425D01*
X145501851Y-91824846D01*
X86812431Y-91835500D01*
X86662476Y-91835500D01*
X86637897Y-91833079D01*
X86625000Y-91830514D01*
X86612827Y-91832936D01*
X86600418Y-91832936D01*
X86600418Y-91832084D01*
X86589669Y-91832720D01*
X86440046Y-91820944D01*
X86420518Y-91817851D01*
X86249755Y-91776854D01*
X86230961Y-91770748D01*
X86068712Y-91703542D01*
X86051107Y-91694572D01*
X85901368Y-91602812D01*
X85885372Y-91591190D01*
X85751839Y-91477141D01*
X85737859Y-91463161D01*
X85623810Y-91329628D01*
X85612188Y-91313632D01*
X85588156Y-91274416D01*
X85520428Y-91163893D01*
X85511458Y-91146288D01*
X85444252Y-90984039D01*
X85438144Y-90965240D01*
X85437898Y-90964212D01*
X85397149Y-90794481D01*
X85394056Y-90774954D01*
X85382733Y-90631088D01*
X85382280Y-90625331D01*
X85382916Y-90614582D01*
X85382064Y-90614582D01*
X85382064Y-90602173D01*
X85384486Y-90590000D01*
X85382065Y-90577828D01*
X85382065Y-90577212D01*
X85379760Y-90552953D01*
X85389658Y-89105654D01*
X85389662Y-89105582D01*
X85389830Y-89104737D01*
X85389830Y-89080894D01*
X85389833Y-89080032D01*
X85389979Y-89058694D01*
X85389979Y-89058693D01*
X85389995Y-89056345D01*
X85389833Y-89055499D01*
X85389830Y-89055439D01*
X85389830Y-83335907D01*
X91460738Y-83335907D01*
X91461254Y-83342051D01*
X91474993Y-83505661D01*
X91477222Y-83532209D01*
X91531521Y-83721570D01*
X91621566Y-83896779D01*
X91625389Y-83901603D01*
X91625392Y-83901607D01*
X91653045Y-83936496D01*
X91743927Y-84051160D01*
X91748620Y-84055154D01*
X91748621Y-84055155D01*
X91824711Y-84119912D01*
X91893945Y-84178835D01*
X91899323Y-84181841D01*
X91899325Y-84181842D01*
X92060361Y-84271842D01*
X92065904Y-84274940D01*
X92253255Y-84335814D01*
X92448862Y-84359139D01*
X92454997Y-84358667D01*
X92454999Y-84358667D01*
X92514801Y-84354065D01*
X92645274Y-84344026D01*
X92835009Y-84291050D01*
X92840513Y-84288270D01*
X93005341Y-84205010D01*
X93005343Y-84205009D01*
X93010842Y-84202231D01*
X93166074Y-84080950D01*
X93170100Y-84076286D01*
X93170103Y-84076283D01*
X93280688Y-83948169D01*
X93340341Y-83909672D01*
X93376069Y-83904500D01*
X94744500Y-83904500D01*
X94812621Y-83924502D01*
X94859114Y-83978158D01*
X94870500Y-84030500D01*
X94870500Y-84197756D01*
X94877202Y-84259448D01*
X94879974Y-84266841D01*
X94879974Y-84266843D01*
X94883723Y-84276844D01*
X94927929Y-84394764D01*
X94933309Y-84401943D01*
X94933311Y-84401946D01*
X94967644Y-84447756D01*
X95014596Y-84510404D01*
X95021776Y-84515785D01*
X95123054Y-84591689D01*
X95123057Y-84591691D01*
X95130236Y-84597071D01*
X95186401Y-84618126D01*
X95258157Y-84645026D01*
X95258159Y-84645026D01*
X95265552Y-84647798D01*
X95273402Y-84648651D01*
X95273403Y-84648651D01*
X95303734Y-84651946D01*
X95327244Y-84654500D01*
X96672756Y-84654500D01*
X96696266Y-84651946D01*
X96726597Y-84648651D01*
X96726598Y-84648651D01*
X96734448Y-84647798D01*
X96741841Y-84645026D01*
X96741843Y-84645026D01*
X96813599Y-84618126D01*
X96869764Y-84597071D01*
X96876943Y-84591691D01*
X96876946Y-84591689D01*
X96978224Y-84515785D01*
X96985404Y-84510404D01*
X97032356Y-84447756D01*
X97066689Y-84401946D01*
X97066691Y-84401943D01*
X97072071Y-84394764D01*
X97101518Y-84316213D01*
X97144159Y-84259448D01*
X97210720Y-84234748D01*
X97280069Y-84249955D01*
X97330188Y-84300241D01*
X97345500Y-84360442D01*
X97345500Y-84984925D01*
X97345390Y-84990201D01*
X97342772Y-85052674D01*
X97344734Y-85061039D01*
X97352788Y-85095378D01*
X97354951Y-85107051D01*
X97360905Y-85150518D01*
X97364317Y-85158402D01*
X97366953Y-85164494D01*
X97373987Y-85185763D01*
X97377463Y-85200583D01*
X97398603Y-85239037D01*
X97403818Y-85249683D01*
X97417830Y-85282063D01*
X97417832Y-85282067D01*
X97421242Y-85289946D01*
X97426646Y-85296619D01*
X97426647Y-85296621D01*
X97430821Y-85301775D01*
X97443312Y-85320363D01*
X97450652Y-85333715D01*
X97457710Y-85341891D01*
X97482453Y-85366634D01*
X97491279Y-85376435D01*
X97511444Y-85401338D01*
X97511447Y-85401341D01*
X97516850Y-85408013D01*
X97532364Y-85419038D01*
X97548464Y-85432645D01*
X98280425Y-86164606D01*
X98314451Y-86226918D01*
X98309386Y-86297733D01*
X98266839Y-86354569D01*
X98200451Y-86379370D01*
X98196138Y-86379683D01*
X98196125Y-86379685D01*
X98191575Y-86380015D01*
X98187120Y-86380999D01*
X98187117Y-86380999D01*
X97933230Y-86437053D01*
X97933228Y-86437054D01*
X97928774Y-86438037D01*
X97677100Y-86533387D01*
X97673114Y-86535601D01*
X97673112Y-86535602D01*
X97454792Y-86656868D01*
X97441828Y-86664069D01*
X97438196Y-86666841D01*
X97231509Y-86824579D01*
X97231505Y-86824583D01*
X97227884Y-86827346D01*
X97039751Y-87019797D01*
X97037066Y-87023486D01*
X96884058Y-87233696D01*
X96884053Y-87233703D01*
X96881370Y-87237390D01*
X96756059Y-87475567D01*
X96666443Y-87729338D01*
X96665560Y-87733820D01*
X96630855Y-87909900D01*
X96614399Y-87993389D01*
X96614172Y-87997942D01*
X96614172Y-87997945D01*
X96604991Y-88182383D01*
X96601018Y-88262186D01*
X96626579Y-88530100D01*
X96690547Y-88791518D01*
X96791583Y-89040963D01*
X96927569Y-89273210D01*
X97095658Y-89483395D01*
X97292327Y-89667113D01*
X97513457Y-89820516D01*
X97754416Y-89940391D01*
X97758750Y-89941812D01*
X97758753Y-89941813D01*
X98005823Y-90022807D01*
X98005829Y-90022808D01*
X98010156Y-90024227D01*
X98014647Y-90025007D01*
X98014648Y-90025007D01*
X98271538Y-90069611D01*
X98271546Y-90069612D01*
X98275319Y-90070267D01*
X98279156Y-90070458D01*
X98358777Y-90074422D01*
X98358785Y-90074422D01*
X98360348Y-90074500D01*
X98528374Y-90074500D01*
X98530642Y-90074335D01*
X98530654Y-90074335D01*
X98661457Y-90064844D01*
X98728425Y-90059985D01*
X98732880Y-90059001D01*
X98732883Y-90059001D01*
X98986770Y-90002947D01*
X98986772Y-90002946D01*
X98991226Y-90001963D01*
X99242900Y-89906613D01*
X99300344Y-89874706D01*
X99474179Y-89778149D01*
X99474180Y-89778148D01*
X99478172Y-89775931D01*
X99528943Y-89737184D01*
X99688491Y-89615421D01*
X99688495Y-89615417D01*
X99692116Y-89612654D01*
X99880249Y-89420203D01*
X99946270Y-89329500D01*
X100035942Y-89206304D01*
X100035947Y-89206297D01*
X100038630Y-89202610D01*
X100163941Y-88964433D01*
X100253557Y-88710662D01*
X100278688Y-88583156D01*
X100304720Y-88451083D01*
X100304721Y-88451077D01*
X100305601Y-88446611D01*
X100314782Y-88262186D01*
X100318755Y-88182383D01*
X100318755Y-88182377D01*
X100318982Y-88177814D01*
X100293421Y-87909900D01*
X100229453Y-87648482D01*
X100128417Y-87399037D01*
X99992431Y-87166790D01*
X99824342Y-86956605D01*
X99627673Y-86772887D01*
X99415955Y-86626013D01*
X99410291Y-86622084D01*
X99410290Y-86622084D01*
X99406543Y-86619484D01*
X99353933Y-86593311D01*
X99301852Y-86545060D01*
X99284125Y-86476313D01*
X99306379Y-86408894D01*
X99361551Y-86364210D01*
X99410055Y-86354500D01*
X102818129Y-86354500D01*
X102886250Y-86374502D01*
X102907224Y-86391405D01*
X107497232Y-90981413D01*
X107500885Y-90985221D01*
X107530611Y-91017547D01*
X107543226Y-91031266D01*
X107550521Y-91035789D01*
X107550522Y-91035790D01*
X107580505Y-91054380D01*
X107590286Y-91061103D01*
X107625234Y-91087630D01*
X107639396Y-91093237D01*
X107659409Y-91103303D01*
X107665041Y-91106795D01*
X107672344Y-91111323D01*
X107680591Y-91113719D01*
X107680593Y-91113720D01*
X107702720Y-91120148D01*
X107714476Y-91123564D01*
X107725701Y-91127408D01*
X107758498Y-91140393D01*
X107758505Y-91140395D01*
X107766490Y-91143556D01*
X107780098Y-91144987D01*
X107781633Y-91145148D01*
X107803605Y-91149459D01*
X107818235Y-91153709D01*
X107829007Y-91154500D01*
X107864005Y-91154500D01*
X107877175Y-91155190D01*
X107891227Y-91156667D01*
X107909037Y-91158539D01*
X107917581Y-91159437D01*
X107936346Y-91156263D01*
X107957348Y-91154500D01*
X113584925Y-91154500D01*
X113590201Y-91154610D01*
X113652674Y-91157228D01*
X113675531Y-91151867D01*
X113695378Y-91147212D01*
X113707051Y-91145049D01*
X113722754Y-91142898D01*
X113750518Y-91139095D01*
X113764493Y-91133047D01*
X113785763Y-91126013D01*
X113792222Y-91124498D01*
X113800583Y-91122537D01*
X113839037Y-91101397D01*
X113849683Y-91096182D01*
X113882063Y-91082170D01*
X113882067Y-91082168D01*
X113889946Y-91078758D01*
X113899759Y-91070812D01*
X113901775Y-91069179D01*
X113920363Y-91056688D01*
X113933715Y-91049348D01*
X113939245Y-91044574D01*
X113940140Y-91043802D01*
X113940147Y-91043796D01*
X113941891Y-91042290D01*
X113966634Y-91017547D01*
X113976435Y-91008721D01*
X114001338Y-90988556D01*
X114001341Y-90988553D01*
X114008013Y-90983150D01*
X114019038Y-90967636D01*
X114032645Y-90951536D01*
X115281413Y-89702768D01*
X115285221Y-89699115D01*
X115324948Y-89662584D01*
X115324949Y-89662583D01*
X115331266Y-89656774D01*
X115354381Y-89619494D01*
X115361104Y-89609712D01*
X115382438Y-89581605D01*
X115387630Y-89574765D01*
X115393237Y-89560604D01*
X115403300Y-89540598D01*
X115406794Y-89534963D01*
X115406798Y-89534954D01*
X115411323Y-89527656D01*
X115423565Y-89485520D01*
X115427409Y-89474293D01*
X115443556Y-89433510D01*
X115445148Y-89418367D01*
X115449459Y-89396394D01*
X115453709Y-89381765D01*
X115454192Y-89375182D01*
X115454848Y-89371539D01*
X115486598Y-89308037D01*
X115528666Y-89279863D01*
X115528485Y-89279533D01*
X115532176Y-89277513D01*
X115534625Y-89275872D01*
X115544764Y-89272071D01*
X115551943Y-89266691D01*
X115551946Y-89266689D01*
X115653224Y-89190785D01*
X115660404Y-89185404D01*
X115720213Y-89105601D01*
X115741689Y-89076946D01*
X115741691Y-89076943D01*
X115747071Y-89069764D01*
X115797798Y-88934448D01*
X115804500Y-88872756D01*
X115804588Y-88872766D01*
X115827927Y-88806739D01*
X115884022Y-88763220D01*
X115930081Y-88754500D01*
X116069919Y-88754500D01*
X116138040Y-88774502D01*
X116184533Y-88828158D01*
X116195500Y-88872726D01*
X116195500Y-88872756D01*
X116202202Y-88934448D01*
X116252929Y-89069764D01*
X116258309Y-89076943D01*
X116258311Y-89076946D01*
X116279787Y-89105601D01*
X116339596Y-89185404D01*
X116346776Y-89190785D01*
X116448054Y-89266689D01*
X116448057Y-89266691D01*
X116455236Y-89272071D01*
X116523566Y-89297686D01*
X116583151Y-89320024D01*
X116583154Y-89320025D01*
X116590552Y-89322798D01*
X116600366Y-89323864D01*
X116601788Y-89324455D01*
X116606091Y-89325478D01*
X116605925Y-89326174D01*
X116665928Y-89351108D01*
X116675851Y-89360032D01*
X116682453Y-89366634D01*
X116691279Y-89376435D01*
X116711444Y-89401338D01*
X116711447Y-89401341D01*
X116716850Y-89408013D01*
X116732364Y-89419038D01*
X116748464Y-89432645D01*
X118297232Y-90981413D01*
X118300885Y-90985221D01*
X118330611Y-91017547D01*
X118343226Y-91031266D01*
X118350521Y-91035789D01*
X118350522Y-91035790D01*
X118380506Y-91054381D01*
X118390288Y-91061104D01*
X118425235Y-91087630D01*
X118433220Y-91090791D01*
X118433219Y-91090791D01*
X118439396Y-91093237D01*
X118459402Y-91103300D01*
X118465037Y-91106794D01*
X118465046Y-91106798D01*
X118472344Y-91111323D01*
X118480591Y-91113719D01*
X118514480Y-91123565D01*
X118525702Y-91127407D01*
X118566490Y-91143556D01*
X118580098Y-91144987D01*
X118581633Y-91145148D01*
X118603605Y-91149459D01*
X118618235Y-91153709D01*
X118629007Y-91154500D01*
X118664005Y-91154500D01*
X118677175Y-91155190D01*
X118691227Y-91156667D01*
X118709037Y-91158539D01*
X118717581Y-91159437D01*
X118736346Y-91156263D01*
X118757348Y-91154500D01*
X125184925Y-91154500D01*
X125190201Y-91154610D01*
X125252674Y-91157228D01*
X125275531Y-91151867D01*
X125295378Y-91147212D01*
X125307051Y-91145049D01*
X125322754Y-91142898D01*
X125350518Y-91139095D01*
X125364493Y-91133047D01*
X125385763Y-91126013D01*
X125392222Y-91124498D01*
X125400583Y-91122537D01*
X125439037Y-91101397D01*
X125449683Y-91096182D01*
X125482063Y-91082170D01*
X125482067Y-91082168D01*
X125489946Y-91078758D01*
X125499759Y-91070812D01*
X125501775Y-91069179D01*
X125520363Y-91056688D01*
X125533715Y-91049348D01*
X125539245Y-91044574D01*
X125540140Y-91043802D01*
X125540147Y-91043796D01*
X125541891Y-91042290D01*
X125566634Y-91017547D01*
X125576435Y-91008721D01*
X125601338Y-90988556D01*
X125601341Y-90988553D01*
X125608013Y-90983150D01*
X125619038Y-90967636D01*
X125632645Y-90951536D01*
X125984726Y-90599455D01*
X144684825Y-90599455D01*
X144685512Y-90606462D01*
X144685512Y-90606465D01*
X144688311Y-90635010D01*
X144701255Y-90767025D01*
X144754402Y-90926791D01*
X144758049Y-90932813D01*
X144758050Y-90932815D01*
X144836350Y-91062103D01*
X144841624Y-91070812D01*
X144846513Y-91075875D01*
X144846514Y-91075876D01*
X144908818Y-91140393D01*
X144958586Y-91191929D01*
X144964483Y-91195788D01*
X145093577Y-91280266D01*
X145093581Y-91280268D01*
X145099475Y-91284125D01*
X145257289Y-91342815D01*
X145264270Y-91343746D01*
X145264272Y-91343747D01*
X145309812Y-91349823D01*
X145424183Y-91365083D01*
X145431194Y-91364445D01*
X145431198Y-91364445D01*
X145584843Y-91350462D01*
X145591864Y-91349823D01*
X145598566Y-91347645D01*
X145598568Y-91347645D01*
X145745298Y-91299970D01*
X145745301Y-91299969D01*
X145751997Y-91297793D01*
X145896623Y-91211578D01*
X145901717Y-91206727D01*
X145901721Y-91206724D01*
X146013454Y-91100322D01*
X146013455Y-91100320D01*
X146018554Y-91095465D01*
X146027213Y-91082433D01*
X146076187Y-91008721D01*
X146111731Y-90955223D01*
X146171521Y-90797823D01*
X146194955Y-90631088D01*
X146195249Y-90610000D01*
X146194809Y-90606077D01*
X146177266Y-90449672D01*
X146177265Y-90449669D01*
X146176481Y-90442676D01*
X146121108Y-90283668D01*
X146031884Y-90140879D01*
X146023723Y-90132661D01*
X145918205Y-90026403D01*
X145918201Y-90026400D01*
X145913242Y-90021406D01*
X145771079Y-89931187D01*
X145612462Y-89874706D01*
X145605474Y-89873873D01*
X145605471Y-89873872D01*
X145512300Y-89862762D01*
X145445273Y-89854769D01*
X145438270Y-89855505D01*
X145438269Y-89855505D01*
X145392712Y-89860293D01*
X145277821Y-89872369D01*
X145271155Y-89874638D01*
X145271152Y-89874639D01*
X145125098Y-89924360D01*
X145125095Y-89924361D01*
X145118431Y-89926630D01*
X145112436Y-89930318D01*
X145112432Y-89930320D01*
X144981021Y-90011165D01*
X144981019Y-90011167D01*
X144975022Y-90014856D01*
X144854724Y-90132661D01*
X144763515Y-90274190D01*
X144705927Y-90432409D01*
X144684825Y-90599455D01*
X125984726Y-90599455D01*
X129922777Y-86661404D01*
X129985089Y-86627378D01*
X130011872Y-86624499D01*
X132566803Y-86624499D01*
X132634924Y-86644501D01*
X132681417Y-86698157D01*
X132691521Y-86768431D01*
X132662027Y-86833011D01*
X132656904Y-86838578D01*
X132479751Y-87019797D01*
X132477066Y-87023486D01*
X132324058Y-87233696D01*
X132324053Y-87233703D01*
X132321370Y-87237390D01*
X132196059Y-87475567D01*
X132106443Y-87729338D01*
X132105560Y-87733820D01*
X132070855Y-87909900D01*
X132054399Y-87993389D01*
X132054172Y-87997942D01*
X132054172Y-87997945D01*
X132044991Y-88182383D01*
X132041018Y-88262186D01*
X132066579Y-88530100D01*
X132130547Y-88791518D01*
X132231583Y-89040963D01*
X132367569Y-89273210D01*
X132535658Y-89483395D01*
X132732327Y-89667113D01*
X132953457Y-89820516D01*
X133194416Y-89940391D01*
X133198750Y-89941812D01*
X133198753Y-89941813D01*
X133445823Y-90022807D01*
X133445829Y-90022808D01*
X133450156Y-90024227D01*
X133454647Y-90025007D01*
X133454648Y-90025007D01*
X133711538Y-90069611D01*
X133711546Y-90069612D01*
X133715319Y-90070267D01*
X133719156Y-90070458D01*
X133798777Y-90074422D01*
X133798785Y-90074422D01*
X133800348Y-90074500D01*
X133968374Y-90074500D01*
X133970642Y-90074335D01*
X133970654Y-90074335D01*
X134101457Y-90064844D01*
X134168425Y-90059985D01*
X134172880Y-90059001D01*
X134172883Y-90059001D01*
X134426770Y-90002947D01*
X134426772Y-90002946D01*
X134431226Y-90001963D01*
X134682900Y-89906613D01*
X134740344Y-89874706D01*
X134914179Y-89778149D01*
X134914180Y-89778148D01*
X134918172Y-89775931D01*
X134968943Y-89737184D01*
X135128491Y-89615421D01*
X135128495Y-89615417D01*
X135132116Y-89612654D01*
X135320249Y-89420203D01*
X135386270Y-89329500D01*
X135475942Y-89206304D01*
X135475947Y-89206297D01*
X135478630Y-89202610D01*
X135603941Y-88964433D01*
X135693557Y-88710662D01*
X135718688Y-88583156D01*
X135744720Y-88451083D01*
X135744721Y-88451077D01*
X135745601Y-88446611D01*
X135754782Y-88262186D01*
X135758755Y-88182383D01*
X135758755Y-88182377D01*
X135758982Y-88177814D01*
X135733421Y-87909900D01*
X135669453Y-87648482D01*
X135568417Y-87399037D01*
X135432431Y-87166790D01*
X135264342Y-86956605D01*
X135154903Y-86854372D01*
X135118777Y-86793254D01*
X135121429Y-86722307D01*
X135162017Y-86664057D01*
X135227655Y-86636997D01*
X135270968Y-86639934D01*
X135272845Y-86640395D01*
X135280829Y-86643556D01*
X135295037Y-86645049D01*
X135295969Y-86645147D01*
X135317949Y-86649460D01*
X135326230Y-86651866D01*
X135326235Y-86651867D01*
X135332575Y-86653709D01*
X135339156Y-86654192D01*
X135339160Y-86654193D01*
X135340037Y-86654257D01*
X135343347Y-86654500D01*
X135378352Y-86654500D01*
X135391522Y-86655190D01*
X135431921Y-86659436D01*
X135440388Y-86658004D01*
X135440389Y-86658004D01*
X135450676Y-86656264D01*
X135471688Y-86654500D01*
X143684925Y-86654500D01*
X143690201Y-86654610D01*
X143752674Y-86657228D01*
X143795376Y-86647212D01*
X143807051Y-86645049D01*
X143822754Y-86642898D01*
X143850518Y-86639095D01*
X143864493Y-86633047D01*
X143885763Y-86626013D01*
X143892222Y-86624498D01*
X143900583Y-86622537D01*
X143939037Y-86601397D01*
X143949683Y-86596182D01*
X143982063Y-86582170D01*
X143982067Y-86582168D01*
X143989946Y-86578758D01*
X144001775Y-86569179D01*
X144020363Y-86556688D01*
X144033715Y-86549348D01*
X144039245Y-86544574D01*
X144040140Y-86543802D01*
X144040147Y-86543796D01*
X144041891Y-86542290D01*
X144066634Y-86517547D01*
X144076435Y-86508721D01*
X144101338Y-86488556D01*
X144101341Y-86488553D01*
X144108013Y-86483150D01*
X144119038Y-86467636D01*
X144132645Y-86451536D01*
X145281414Y-85302767D01*
X145285222Y-85299114D01*
X145324949Y-85262583D01*
X145324950Y-85262582D01*
X145331267Y-85256773D01*
X145339041Y-85244236D01*
X145354382Y-85219493D01*
X145361105Y-85209711D01*
X145382439Y-85181604D01*
X145387631Y-85174764D01*
X145393238Y-85160603D01*
X145403301Y-85140597D01*
X145406795Y-85134962D01*
X145406799Y-85134953D01*
X145411324Y-85127655D01*
X145423566Y-85085519D01*
X145427410Y-85074292D01*
X145432657Y-85061039D01*
X145443557Y-85033509D01*
X145445149Y-85018366D01*
X145449460Y-84996393D01*
X145451868Y-84988103D01*
X145453710Y-84981764D01*
X145454501Y-84970992D01*
X145454501Y-84935994D01*
X145455191Y-84922823D01*
X145458540Y-84890962D01*
X145459438Y-84882418D01*
X145456264Y-84863653D01*
X145454501Y-84842651D01*
X145454501Y-77215100D01*
X145454611Y-77209824D01*
X145456870Y-77155911D01*
X145457230Y-77147328D01*
X145454002Y-77133566D01*
X145447214Y-77104622D01*
X145445051Y-77092953D01*
X145440261Y-77057990D01*
X145439096Y-77049483D01*
X145433048Y-77035507D01*
X145426014Y-77014238D01*
X145424500Y-77007783D01*
X145422538Y-76999418D01*
X145418401Y-76991893D01*
X145418400Y-76991890D01*
X145401401Y-76960970D01*
X145396179Y-76950310D01*
X145382169Y-76917935D01*
X145378759Y-76910055D01*
X145369176Y-76898221D01*
X145356686Y-76879633D01*
X145352530Y-76872073D01*
X145349349Y-76866287D01*
X145342292Y-76858110D01*
X145317544Y-76833362D01*
X145308718Y-76823561D01*
X145288556Y-76798662D01*
X145288554Y-76798660D01*
X145283151Y-76791988D01*
X145267643Y-76780967D01*
X145251538Y-76767356D01*
X141902767Y-73418586D01*
X141899114Y-73414778D01*
X141862584Y-73375052D01*
X141862583Y-73375051D01*
X141856774Y-73368734D01*
X141838032Y-73357113D01*
X141819494Y-73345619D01*
X141809712Y-73338896D01*
X141793439Y-73326544D01*
X141774765Y-73312370D01*
X141765053Y-73308525D01*
X141760604Y-73306763D01*
X141740598Y-73296700D01*
X141734963Y-73293206D01*
X141734954Y-73293202D01*
X141727656Y-73288677D01*
X141685521Y-73276435D01*
X141674298Y-73272593D01*
X141633510Y-73256444D01*
X141619902Y-73255013D01*
X141618367Y-73254852D01*
X141596394Y-73250541D01*
X141581765Y-73246291D01*
X141570993Y-73245500D01*
X141535995Y-73245500D01*
X141522824Y-73244810D01*
X141512607Y-73243736D01*
X141508773Y-73243333D01*
X141490963Y-73241461D01*
X141482419Y-73240563D01*
X141463654Y-73243737D01*
X141442652Y-73245500D01*
X136481872Y-73245500D01*
X136413751Y-73225498D01*
X136392777Y-73208595D01*
X135302767Y-72118586D01*
X135299114Y-72114778D01*
X135262584Y-72075052D01*
X135262583Y-72075051D01*
X135256774Y-72068734D01*
X135219494Y-72045619D01*
X135209712Y-72038896D01*
X135181605Y-72017562D01*
X135181606Y-72017562D01*
X135174765Y-72012370D01*
X135163844Y-72008046D01*
X135160604Y-72006763D01*
X135140598Y-71996700D01*
X135134963Y-71993206D01*
X135134954Y-71993202D01*
X135127656Y-71988677D01*
X135085521Y-71976435D01*
X135074298Y-71972593D01*
X135033510Y-71956444D01*
X135019489Y-71954970D01*
X135018367Y-71954852D01*
X135004779Y-71952186D01*
X142681018Y-71952186D01*
X142706579Y-72220100D01*
X142707664Y-72224534D01*
X142707665Y-72224540D01*
X142743495Y-72370964D01*
X142770547Y-72481518D01*
X142871583Y-72730963D01*
X143007569Y-72963210D01*
X143175658Y-73173395D01*
X143372327Y-73357113D01*
X143522564Y-73461336D01*
X143584784Y-73504499D01*
X143593457Y-73510516D01*
X143834416Y-73630391D01*
X143838750Y-73631812D01*
X143838753Y-73631813D01*
X144085823Y-73712807D01*
X144085829Y-73712808D01*
X144090156Y-73714227D01*
X144094647Y-73715007D01*
X144094648Y-73715007D01*
X144351538Y-73759611D01*
X144351546Y-73759612D01*
X144355319Y-73760267D01*
X144359156Y-73760458D01*
X144438777Y-73764422D01*
X144438785Y-73764422D01*
X144440348Y-73764500D01*
X144608374Y-73764500D01*
X144610642Y-73764335D01*
X144610654Y-73764335D01*
X144741457Y-73754844D01*
X144808425Y-73749985D01*
X144812880Y-73749001D01*
X144812883Y-73749001D01*
X145066770Y-73692947D01*
X145066772Y-73692946D01*
X145071226Y-73691963D01*
X145322900Y-73596613D01*
X145420344Y-73542488D01*
X145554179Y-73468149D01*
X145554180Y-73468148D01*
X145558172Y-73465931D01*
X145622317Y-73416977D01*
X145768491Y-73305421D01*
X145768495Y-73305417D01*
X145772116Y-73302654D01*
X145777937Y-73296700D01*
X145884167Y-73188031D01*
X145960249Y-73110203D01*
X146023557Y-73023227D01*
X146115942Y-72896304D01*
X146115947Y-72896297D01*
X146118630Y-72892610D01*
X146243941Y-72654433D01*
X146333557Y-72400662D01*
X146358688Y-72273156D01*
X146384720Y-72141083D01*
X146384721Y-72141077D01*
X146385601Y-72136611D01*
X146385828Y-72132055D01*
X146398755Y-71872383D01*
X146398755Y-71872377D01*
X146398982Y-71867814D01*
X146373421Y-71599900D01*
X146354768Y-71523668D01*
X146310539Y-71342920D01*
X146309453Y-71338482D01*
X146208417Y-71089037D01*
X146072431Y-70856790D01*
X145904342Y-70646605D01*
X145707673Y-70462887D01*
X145486543Y-70309484D01*
X145245584Y-70189609D01*
X145241250Y-70188188D01*
X145241247Y-70188187D01*
X144994177Y-70107193D01*
X144994171Y-70107192D01*
X144989844Y-70105773D01*
X144985352Y-70104993D01*
X144728462Y-70060389D01*
X144728454Y-70060388D01*
X144724681Y-70059733D01*
X144714718Y-70059237D01*
X144641223Y-70055578D01*
X144641215Y-70055578D01*
X144639652Y-70055500D01*
X144471626Y-70055500D01*
X144469358Y-70055665D01*
X144469346Y-70055665D01*
X144338543Y-70065156D01*
X144271575Y-70070015D01*
X144267120Y-70070999D01*
X144267117Y-70070999D01*
X144013230Y-70127053D01*
X144013228Y-70127054D01*
X144008774Y-70128037D01*
X143757100Y-70223387D01*
X143521828Y-70354069D01*
X143518196Y-70356841D01*
X143311509Y-70514579D01*
X143311505Y-70514583D01*
X143307884Y-70517346D01*
X143119751Y-70709797D01*
X143117066Y-70713486D01*
X142964058Y-70923696D01*
X142964053Y-70923703D01*
X142961370Y-70927390D01*
X142836059Y-71165567D01*
X142746443Y-71419338D01*
X142725880Y-71523668D01*
X142697869Y-71665786D01*
X142694399Y-71683389D01*
X142694172Y-71687942D01*
X142694172Y-71687945D01*
X142681253Y-71947472D01*
X142681018Y-71952186D01*
X135004779Y-71952186D01*
X134996394Y-71950541D01*
X134981765Y-71946291D01*
X134970993Y-71945500D01*
X134935995Y-71945500D01*
X134922824Y-71944810D01*
X134912607Y-71943736D01*
X134908630Y-71943318D01*
X134890963Y-71941461D01*
X134882419Y-71940563D01*
X134863654Y-71943737D01*
X134842652Y-71945500D01*
X124825806Y-71945500D01*
X124757685Y-71925498D01*
X124712800Y-71875228D01*
X124712693Y-71875010D01*
X124696972Y-71843131D01*
X124688331Y-71825608D01*
X124688328Y-71825604D01*
X124685776Y-71820428D01*
X124682321Y-71815801D01*
X124682320Y-71815799D01*
X124646315Y-71767584D01*
X124633268Y-71745849D01*
X124609415Y-71695159D01*
X124510145Y-71580153D01*
X124436349Y-71531123D01*
X124390758Y-71500833D01*
X124383604Y-71496080D01*
X124375438Y-71493426D01*
X124372096Y-71491811D01*
X124359702Y-71484934D01*
X124248464Y-71414748D01*
X124248465Y-71414748D01*
X124243581Y-71411667D01*
X124055039Y-71336446D01*
X124049379Y-71335320D01*
X124049375Y-71335319D01*
X123861613Y-71297971D01*
X123861610Y-71297971D01*
X123855946Y-71296844D01*
X123850171Y-71296768D01*
X123850167Y-71296768D01*
X123748793Y-71295441D01*
X123652971Y-71294187D01*
X123647274Y-71295166D01*
X123647273Y-71295166D01*
X123559397Y-71310266D01*
X123452910Y-71328564D01*
X123262463Y-71398824D01*
X123088010Y-71502612D01*
X123083670Y-71506418D01*
X123083666Y-71506421D01*
X122977075Y-71599900D01*
X122935392Y-71636455D01*
X122809720Y-71795869D01*
X122807031Y-71800980D01*
X122807029Y-71800983D01*
X122771868Y-71867814D01*
X122715203Y-71975515D01*
X122655007Y-72169378D01*
X122631148Y-72370964D01*
X122644424Y-72573522D01*
X122645845Y-72579118D01*
X122645846Y-72579123D01*
X122664973Y-72654433D01*
X122694392Y-72770269D01*
X122696809Y-72775512D01*
X122734010Y-72856208D01*
X122779377Y-72954616D01*
X122793431Y-72974502D01*
X122891638Y-73113462D01*
X122896533Y-73120389D01*
X123008280Y-73229248D01*
X123043117Y-73291107D01*
X123038980Y-73361983D01*
X122997181Y-73419371D01*
X122930992Y-73445050D01*
X122920358Y-73445500D01*
X119881872Y-73445500D01*
X119813751Y-73425498D01*
X119792777Y-73408595D01*
X119582006Y-73197824D01*
X119547980Y-73135512D01*
X119553045Y-73064697D01*
X119567259Y-73037364D01*
X119570449Y-73032722D01*
X119574147Y-73028276D01*
X119613852Y-72957379D01*
X119670510Y-72856208D01*
X119670511Y-72856206D01*
X119673334Y-72851165D01*
X119675190Y-72845698D01*
X119675192Y-72845693D01*
X119736728Y-72664414D01*
X119736729Y-72664409D01*
X119738584Y-72658945D01*
X119739412Y-72653236D01*
X119739413Y-72653231D01*
X119758132Y-72524125D01*
X119767712Y-72458053D01*
X119769232Y-72400000D01*
X119752702Y-72220100D01*
X119751187Y-72203613D01*
X119751186Y-72203610D01*
X119750658Y-72197859D01*
X119748059Y-72188642D01*
X119697125Y-72008046D01*
X119697124Y-72008044D01*
X119695557Y-72002487D01*
X119692704Y-71996700D01*
X119608331Y-71825609D01*
X119608330Y-71825608D01*
X119605776Y-71820428D01*
X119602320Y-71815799D01*
X119512233Y-71695159D01*
X119484320Y-71657779D01*
X119335258Y-71519987D01*
X119330375Y-71516906D01*
X119330371Y-71516903D01*
X119168464Y-71414748D01*
X119163581Y-71411667D01*
X118975039Y-71336446D01*
X118969379Y-71335320D01*
X118969375Y-71335319D01*
X118781613Y-71297971D01*
X118781610Y-71297971D01*
X118775946Y-71296844D01*
X118770171Y-71296768D01*
X118770167Y-71296768D01*
X118668793Y-71295441D01*
X118572971Y-71294187D01*
X118567274Y-71295166D01*
X118567273Y-71295166D01*
X118479397Y-71310266D01*
X118372910Y-71328564D01*
X118182463Y-71398824D01*
X118008010Y-71502612D01*
X118003670Y-71506418D01*
X118003666Y-71506421D01*
X117897075Y-71599900D01*
X117855392Y-71636455D01*
X117729720Y-71795869D01*
X117727031Y-71800980D01*
X117727029Y-71800983D01*
X117691868Y-71867814D01*
X117635203Y-71975515D01*
X117575007Y-72169378D01*
X117551148Y-72370964D01*
X117564424Y-72573522D01*
X117565845Y-72579118D01*
X117565846Y-72579123D01*
X117584973Y-72654433D01*
X117614392Y-72770269D01*
X117616809Y-72775512D01*
X117654010Y-72856208D01*
X117699377Y-72954616D01*
X117713431Y-72974502D01*
X117811638Y-73113462D01*
X117816533Y-73120389D01*
X117961938Y-73262035D01*
X117966742Y-73265245D01*
X118013818Y-73296700D01*
X118130720Y-73374812D01*
X118136025Y-73377091D01*
X118210479Y-73409079D01*
X118258661Y-73445552D01*
X118271443Y-73461336D01*
X118276850Y-73468013D01*
X118292364Y-73479038D01*
X118308464Y-73492645D01*
X118946223Y-74130404D01*
X118980249Y-74192716D01*
X118975184Y-74263531D01*
X118932637Y-74320367D01*
X118866117Y-74345178D01*
X118857128Y-74345499D01*
X116981870Y-74345499D01*
X116913749Y-74325497D01*
X116892775Y-74308594D01*
X116711405Y-74127224D01*
X116677379Y-74064912D01*
X116674500Y-74038129D01*
X116674500Y-73429313D01*
X116694502Y-73361192D01*
X116738937Y-73319377D01*
X116743234Y-73316971D01*
X116743236Y-73316969D01*
X116748276Y-73314147D01*
X116904345Y-73184345D01*
X116981643Y-73091405D01*
X117030453Y-73032718D01*
X117030455Y-73032715D01*
X117034147Y-73028276D01*
X117133334Y-72851165D01*
X117135190Y-72845698D01*
X117135192Y-72845693D01*
X117196728Y-72664414D01*
X117196729Y-72664409D01*
X117198584Y-72658945D01*
X117199412Y-72653236D01*
X117199413Y-72653231D01*
X117218132Y-72524125D01*
X117227712Y-72458053D01*
X117229232Y-72400000D01*
X117212702Y-72220100D01*
X117211187Y-72203613D01*
X117211186Y-72203610D01*
X117210658Y-72197859D01*
X117208059Y-72188642D01*
X117157125Y-72008046D01*
X117157124Y-72008044D01*
X117155557Y-72002487D01*
X117152704Y-71996700D01*
X117068331Y-71825609D01*
X117068330Y-71825608D01*
X117065776Y-71820428D01*
X117062320Y-71815799D01*
X116972233Y-71695159D01*
X116944320Y-71657779D01*
X116795258Y-71519987D01*
X116790375Y-71516906D01*
X116790371Y-71516903D01*
X116628464Y-71414748D01*
X116623581Y-71411667D01*
X116435039Y-71336446D01*
X116429379Y-71335320D01*
X116429375Y-71335319D01*
X116241613Y-71297971D01*
X116241610Y-71297971D01*
X116235946Y-71296844D01*
X116230171Y-71296768D01*
X116230167Y-71296768D01*
X116128793Y-71295441D01*
X116032971Y-71294187D01*
X116027274Y-71295166D01*
X116027273Y-71295166D01*
X115939397Y-71310266D01*
X115832910Y-71328564D01*
X115642463Y-71398824D01*
X115468010Y-71502612D01*
X115463670Y-71506418D01*
X115463666Y-71506421D01*
X115357075Y-71599900D01*
X115315392Y-71636455D01*
X115189720Y-71795869D01*
X115187031Y-71800980D01*
X115187029Y-71800983D01*
X115151868Y-71867814D01*
X115095203Y-71975515D01*
X115035007Y-72169378D01*
X115011148Y-72370964D01*
X115024424Y-72573522D01*
X115025845Y-72579118D01*
X115025846Y-72579123D01*
X115044973Y-72654433D01*
X115074392Y-72770269D01*
X115076809Y-72775512D01*
X115114010Y-72856208D01*
X115159377Y-72954616D01*
X115173431Y-72974502D01*
X115271638Y-73113462D01*
X115276533Y-73120389D01*
X115421938Y-73262035D01*
X115509503Y-73320544D01*
X115555029Y-73375019D01*
X115565500Y-73425308D01*
X115565500Y-74304925D01*
X115565390Y-74310201D01*
X115562772Y-74372674D01*
X115564734Y-74381039D01*
X115572788Y-74415378D01*
X115574951Y-74427051D01*
X115580905Y-74470518D01*
X115584317Y-74478402D01*
X115586953Y-74484494D01*
X115593987Y-74505763D01*
X115597463Y-74520583D01*
X115618603Y-74559037D01*
X115623818Y-74569683D01*
X115637830Y-74602063D01*
X115637832Y-74602067D01*
X115641242Y-74609946D01*
X115646646Y-74616619D01*
X115646647Y-74616621D01*
X115650821Y-74621775D01*
X115663312Y-74640363D01*
X115670652Y-74653715D01*
X115677710Y-74661891D01*
X115702453Y-74686634D01*
X115711279Y-74696435D01*
X115731444Y-74721338D01*
X115731447Y-74721341D01*
X115736850Y-74728013D01*
X115743852Y-74732989D01*
X115743853Y-74732990D01*
X115752354Y-74739031D01*
X115768461Y-74752642D01*
X116297254Y-75281436D01*
X116300906Y-75285244D01*
X116303624Y-75288200D01*
X116343225Y-75331265D01*
X116380504Y-75354379D01*
X116390267Y-75361088D01*
X116425233Y-75387629D01*
X116438247Y-75392781D01*
X116439393Y-75393235D01*
X116459402Y-75403298D01*
X116472343Y-75411322D01*
X116504306Y-75420609D01*
X116514475Y-75423563D01*
X116525704Y-75427408D01*
X116558501Y-75440393D01*
X116558509Y-75440395D01*
X116566488Y-75443554D01*
X116581618Y-75445144D01*
X116603603Y-75449457D01*
X116618234Y-75453708D01*
X116624818Y-75454191D01*
X116624821Y-75454192D01*
X116625520Y-75454243D01*
X116629006Y-75454499D01*
X116664012Y-75454499D01*
X116677182Y-75455189D01*
X116717579Y-75459435D01*
X116726046Y-75458003D01*
X116726047Y-75458003D01*
X116736334Y-75456263D01*
X116757346Y-75454499D01*
X124746337Y-75454499D01*
X124814458Y-75474501D01*
X124860951Y-75528157D01*
X124871055Y-75598431D01*
X124858843Y-75633566D01*
X124859963Y-75634053D01*
X124857042Y-75640771D01*
X124853368Y-75647096D01*
X124802370Y-75815480D01*
X124791476Y-75991080D01*
X124792716Y-75998296D01*
X124792716Y-75998298D01*
X124815058Y-76128319D01*
X124821271Y-76164477D01*
X124890156Y-76326368D01*
X124994437Y-76468071D01*
X125128520Y-76581982D01*
X125172034Y-76604201D01*
X125278695Y-76658666D01*
X125278700Y-76658668D01*
X125285212Y-76661993D01*
X125292318Y-76663732D01*
X125292321Y-76663733D01*
X125336822Y-76674622D01*
X125456108Y-76703811D01*
X125461710Y-76704159D01*
X125461713Y-76704159D01*
X125465275Y-76704380D01*
X125465284Y-76704380D01*
X125467214Y-76704500D01*
X125594053Y-76704500D01*
X125685950Y-76693786D01*
X125717482Y-76690110D01*
X125717484Y-76690110D01*
X125724754Y-76689262D01*
X125731631Y-76686766D01*
X125731634Y-76686765D01*
X125883255Y-76631729D01*
X125890134Y-76629232D01*
X125896251Y-76625222D01*
X125896254Y-76625220D01*
X125981366Y-76569417D01*
X126037268Y-76532766D01*
X126158264Y-76405040D01*
X126246632Y-76252904D01*
X126297630Y-76084520D01*
X126308524Y-75908920D01*
X126307190Y-75901153D01*
X126279969Y-75742738D01*
X126279968Y-75742736D01*
X126278729Y-75735523D01*
X126233757Y-75629831D01*
X126225491Y-75559319D01*
X126256659Y-75495529D01*
X126317367Y-75458718D01*
X126349698Y-75454499D01*
X127018128Y-75454499D01*
X127086249Y-75474501D01*
X127107223Y-75491404D01*
X128565563Y-76949744D01*
X128599589Y-77012056D01*
X128594524Y-77082871D01*
X128565572Y-77127405D01*
X128563788Y-77128840D01*
X128437163Y-77279745D01*
X128428881Y-77294810D01*
X128357281Y-77425052D01*
X128342262Y-77452371D01*
X128340398Y-77458246D01*
X128340397Y-77458249D01*
X128305719Y-77567569D01*
X128282697Y-77640142D01*
X128260738Y-77835907D01*
X128261254Y-77842051D01*
X128274247Y-77996776D01*
X128277222Y-78032209D01*
X128331521Y-78221570D01*
X128421566Y-78396779D01*
X128425389Y-78401603D01*
X128425392Y-78401607D01*
X128522055Y-78523565D01*
X128543927Y-78551160D01*
X128548620Y-78555154D01*
X128548621Y-78555155D01*
X128666837Y-78655764D01*
X128693945Y-78678835D01*
X128699323Y-78681841D01*
X128699325Y-78681842D01*
X128835585Y-78757995D01*
X128865904Y-78774940D01*
X129053255Y-78835814D01*
X129248862Y-78859139D01*
X129254997Y-78858667D01*
X129254999Y-78858667D01*
X129314801Y-78854065D01*
X129445274Y-78844026D01*
X129635009Y-78791050D01*
X129640513Y-78788270D01*
X129805341Y-78705010D01*
X129805343Y-78705009D01*
X129810842Y-78702231D01*
X129966074Y-78580950D01*
X129970100Y-78576286D01*
X129970103Y-78576283D01*
X130090764Y-78436496D01*
X130090765Y-78436494D01*
X130094793Y-78431828D01*
X130110318Y-78404500D01*
X130189049Y-78265907D01*
X130192096Y-78260544D01*
X130254277Y-78073622D01*
X130278966Y-77878183D01*
X130279071Y-77870640D01*
X130279311Y-77853522D01*
X130279311Y-77853518D01*
X130279360Y-77850000D01*
X130260137Y-77653948D01*
X130203200Y-77465363D01*
X130164605Y-77392777D01*
X130113611Y-77296871D01*
X130113609Y-77296868D01*
X130110717Y-77291429D01*
X130006146Y-77163212D01*
X129978594Y-77097784D01*
X129990789Y-77027843D01*
X130014696Y-76994485D01*
X130767776Y-76241405D01*
X130830088Y-76207379D01*
X130856871Y-76204500D01*
X131606763Y-76204500D01*
X131674884Y-76224502D01*
X131721377Y-76278158D01*
X131724744Y-76286269D01*
X131724777Y-76286358D01*
X131724779Y-76286362D01*
X131727929Y-76294764D01*
X131733309Y-76301943D01*
X131733311Y-76301946D01*
X131781568Y-76366335D01*
X131814596Y-76410404D01*
X131821776Y-76415785D01*
X131923054Y-76491689D01*
X131923057Y-76491691D01*
X131930236Y-76497071D01*
X131998805Y-76522776D01*
X132058157Y-76545026D01*
X132058159Y-76545026D01*
X132065552Y-76547798D01*
X132073402Y-76548651D01*
X132073403Y-76548651D01*
X132123847Y-76554131D01*
X132127244Y-76554500D01*
X133472756Y-76554500D01*
X133476153Y-76554131D01*
X133526597Y-76548651D01*
X133526598Y-76548651D01*
X133534448Y-76547798D01*
X133541841Y-76545026D01*
X133541843Y-76545026D01*
X133601195Y-76522776D01*
X133669764Y-76497071D01*
X133676943Y-76491691D01*
X133676946Y-76491689D01*
X133778224Y-76415785D01*
X133785404Y-76410404D01*
X133818432Y-76366335D01*
X133866689Y-76301946D01*
X133866691Y-76301943D01*
X133872071Y-76294764D01*
X133922798Y-76159448D01*
X133929500Y-76097756D01*
X133929500Y-75202244D01*
X133928767Y-75195500D01*
X133923651Y-75148403D01*
X133923651Y-75148402D01*
X133922798Y-75140552D01*
X133919443Y-75131601D01*
X133893991Y-75063709D01*
X133872071Y-75005236D01*
X133866691Y-74998057D01*
X133866689Y-74998054D01*
X133790785Y-74896776D01*
X133785404Y-74889596D01*
X133744605Y-74859019D01*
X133676946Y-74808311D01*
X133676943Y-74808309D01*
X133669764Y-74802929D01*
X133657902Y-74798482D01*
X133654971Y-74796281D01*
X133653485Y-74795467D01*
X133653602Y-74795253D01*
X133601137Y-74755842D01*
X133576436Y-74689281D01*
X133591642Y-74619932D01*
X133641927Y-74569813D01*
X133702130Y-74554500D01*
X134468128Y-74554500D01*
X134536249Y-74574502D01*
X134557224Y-74591405D01*
X135233596Y-75267778D01*
X135267621Y-75330090D01*
X135270500Y-75356873D01*
X135270500Y-76097756D01*
X135277202Y-76159448D01*
X135327929Y-76294764D01*
X135333309Y-76301943D01*
X135333311Y-76301946D01*
X135381568Y-76366335D01*
X135414596Y-76410404D01*
X135421776Y-76415785D01*
X135523054Y-76491689D01*
X135523057Y-76491691D01*
X135530236Y-76497071D01*
X135598805Y-76522776D01*
X135658157Y-76545026D01*
X135658159Y-76545026D01*
X135665552Y-76547798D01*
X135673402Y-76548651D01*
X135673403Y-76548651D01*
X135723847Y-76554131D01*
X135727244Y-76554500D01*
X137072756Y-76554500D01*
X137076153Y-76554131D01*
X137126597Y-76548651D01*
X137126598Y-76548651D01*
X137134448Y-76547798D01*
X137141841Y-76545026D01*
X137141843Y-76545026D01*
X137201195Y-76522776D01*
X137269764Y-76497071D01*
X137276943Y-76491691D01*
X137276946Y-76491689D01*
X137378224Y-76415785D01*
X137385404Y-76410404D01*
X137418432Y-76366335D01*
X137466689Y-76301946D01*
X137466691Y-76301943D01*
X137472071Y-76294764D01*
X137522798Y-76159448D01*
X137529500Y-76097756D01*
X137529500Y-75580500D01*
X137549502Y-75512379D01*
X137603158Y-75465886D01*
X137655500Y-75454500D01*
X137946337Y-75454500D01*
X138014458Y-75474502D01*
X138060951Y-75528158D01*
X138071055Y-75598432D01*
X138058841Y-75633565D01*
X138059963Y-75634053D01*
X138057042Y-75640771D01*
X138053368Y-75647096D01*
X138002370Y-75815480D01*
X137991476Y-75991080D01*
X137992716Y-75998296D01*
X137992716Y-75998298D01*
X138015058Y-76128319D01*
X138021271Y-76164477D01*
X138090156Y-76326368D01*
X138194437Y-76468071D01*
X138328520Y-76581982D01*
X138372034Y-76604201D01*
X138478695Y-76658666D01*
X138478700Y-76658668D01*
X138485212Y-76661993D01*
X138492318Y-76663732D01*
X138492321Y-76663733D01*
X138536822Y-76674622D01*
X138656108Y-76703811D01*
X138661710Y-76704159D01*
X138661713Y-76704159D01*
X138665275Y-76704380D01*
X138665284Y-76704380D01*
X138667214Y-76704500D01*
X138794053Y-76704500D01*
X138885950Y-76693786D01*
X138917482Y-76690110D01*
X138917484Y-76690110D01*
X138924754Y-76689262D01*
X138931631Y-76686766D01*
X138931634Y-76686765D01*
X139083255Y-76631729D01*
X139090134Y-76629232D01*
X139096251Y-76625222D01*
X139096254Y-76625220D01*
X139181366Y-76569417D01*
X139237268Y-76532766D01*
X139358264Y-76405040D01*
X139446632Y-76252904D01*
X139497630Y-76084520D01*
X139508524Y-75908920D01*
X139507190Y-75901153D01*
X139479969Y-75742738D01*
X139479968Y-75742736D01*
X139478729Y-75735523D01*
X139438412Y-75640771D01*
X139433758Y-75629833D01*
X139425492Y-75559319D01*
X139456661Y-75495530D01*
X139517369Y-75458718D01*
X139549699Y-75454500D01*
X140318129Y-75454500D01*
X140386250Y-75474502D01*
X140407224Y-75491405D01*
X141820181Y-76904363D01*
X141854207Y-76966675D01*
X141849142Y-77037491D01*
X141810039Y-77091654D01*
X141763788Y-77128840D01*
X141637163Y-77279745D01*
X141628881Y-77294810D01*
X141557281Y-77425052D01*
X141542262Y-77452371D01*
X141540398Y-77458246D01*
X141540397Y-77458249D01*
X141505719Y-77567569D01*
X141482697Y-77640142D01*
X141460738Y-77835907D01*
X141461254Y-77842051D01*
X141474247Y-77996776D01*
X141477222Y-78032209D01*
X141531521Y-78221570D01*
X141621566Y-78396779D01*
X141625389Y-78401603D01*
X141625392Y-78401607D01*
X141722055Y-78523565D01*
X141743927Y-78551160D01*
X141748620Y-78555154D01*
X141748621Y-78555155D01*
X141866837Y-78655764D01*
X141893945Y-78678835D01*
X141899323Y-78681841D01*
X141899325Y-78681842D01*
X142035585Y-78757995D01*
X142065904Y-78774940D01*
X142253255Y-78835814D01*
X142448862Y-78859139D01*
X142454997Y-78858667D01*
X142454999Y-78858667D01*
X142514801Y-78854065D01*
X142645274Y-78844026D01*
X142835009Y-78791050D01*
X142840513Y-78788270D01*
X143005341Y-78705010D01*
X143005343Y-78705009D01*
X143010842Y-78702231D01*
X143166074Y-78580950D01*
X143170100Y-78576286D01*
X143170103Y-78576283D01*
X143290764Y-78436496D01*
X143290765Y-78436494D01*
X143294793Y-78431828D01*
X143310318Y-78404500D01*
X143389049Y-78265907D01*
X143392096Y-78260544D01*
X143454277Y-78073622D01*
X143478966Y-77878183D01*
X143479071Y-77870640D01*
X143479311Y-77853522D01*
X143479311Y-77853518D01*
X143479360Y-77850000D01*
X143460137Y-77653948D01*
X143403200Y-77465363D01*
X143364605Y-77392777D01*
X143313611Y-77296871D01*
X143313609Y-77296868D01*
X143310717Y-77291429D01*
X143186212Y-77138770D01*
X143122838Y-77086343D01*
X143070185Y-77042784D01*
X143030446Y-76983950D01*
X143024500Y-76945699D01*
X143024500Y-76785074D01*
X143024610Y-76779798D01*
X143026868Y-76725909D01*
X143027228Y-76717326D01*
X143017212Y-76674622D01*
X143015049Y-76662949D01*
X143012898Y-76647246D01*
X143009095Y-76619482D01*
X143003047Y-76605506D01*
X142996013Y-76584237D01*
X142994498Y-76577778D01*
X142992537Y-76569417D01*
X142971397Y-76530963D01*
X142966182Y-76520317D01*
X142952170Y-76487937D01*
X142952168Y-76487933D01*
X142948758Y-76480054D01*
X142939179Y-76468225D01*
X142926688Y-76449637D01*
X142919348Y-76436285D01*
X142912290Y-76428109D01*
X142887547Y-76403366D01*
X142878721Y-76393565D01*
X142858556Y-76368662D01*
X142858553Y-76368659D01*
X142853150Y-76361987D01*
X142837636Y-76350962D01*
X142821536Y-76337355D01*
X141053776Y-74569595D01*
X141019750Y-74507283D01*
X141024815Y-74436468D01*
X141067362Y-74379632D01*
X141133882Y-74354821D01*
X141142871Y-74354500D01*
X141218129Y-74354500D01*
X141286250Y-74374502D01*
X141307224Y-74391405D01*
X144308596Y-77392777D01*
X144342622Y-77455089D01*
X144345501Y-77481872D01*
X144345501Y-79410731D01*
X144325499Y-79478852D01*
X144271843Y-79525345D01*
X144201569Y-79535449D01*
X144136989Y-79505955D01*
X144127952Y-79497304D01*
X144113457Y-79481976D01*
X144109982Y-79478301D01*
X144105965Y-79475230D01*
X144105962Y-79475227D01*
X144051422Y-79433528D01*
X144050916Y-79433130D01*
X144047532Y-79429896D01*
X144043260Y-79426982D01*
X144042355Y-79426364D01*
X144036834Y-79422374D01*
X143921673Y-79334326D01*
X143921662Y-79334319D01*
X143917652Y-79331253D01*
X143853214Y-79296702D01*
X143850579Y-79295246D01*
X143847971Y-79293764D01*
X143843700Y-79290851D01*
X143839014Y-79288676D01*
X143839011Y-79288674D01*
X143836573Y-79287542D01*
X143830081Y-79284298D01*
X143797528Y-79266843D01*
X143704285Y-79216847D01*
X143632913Y-79192272D01*
X143629457Y-79190879D01*
X143629439Y-79190929D01*
X143624597Y-79189147D01*
X143619896Y-79186965D01*
X143611277Y-79184575D01*
X143603964Y-79182303D01*
X143475371Y-79138025D01*
X143470382Y-79137163D01*
X143470381Y-79137163D01*
X143396855Y-79124463D01*
X143391012Y-79123152D01*
X143387112Y-79122408D01*
X143382129Y-79121026D01*
X143372597Y-79120007D01*
X143364572Y-79118887D01*
X143236800Y-79096817D01*
X143232839Y-79096637D01*
X143232838Y-79096637D01*
X143209216Y-79095564D01*
X143209197Y-79095564D01*
X143207797Y-79095500D01*
X143039159Y-79095500D01*
X143036651Y-79095702D01*
X143036646Y-79095702D01*
X142863717Y-79109615D01*
X142863712Y-79109616D01*
X142858676Y-79110021D01*
X142853768Y-79111226D01*
X142853765Y-79111227D01*
X142628475Y-79166564D01*
X142623561Y-79167771D01*
X142618909Y-79169746D01*
X142618905Y-79169747D01*
X142502308Y-79219240D01*
X142400703Y-79262369D01*
X142195837Y-79391380D01*
X142014232Y-79551486D01*
X141860561Y-79738568D01*
X141829494Y-79791947D01*
X141746507Y-79934533D01*
X141738778Y-79947812D01*
X141736965Y-79952535D01*
X141667225Y-80134215D01*
X141652016Y-80173835D01*
X141602507Y-80410823D01*
X141591524Y-80652677D01*
X141592105Y-80657697D01*
X141592105Y-80657701D01*
X141602243Y-80745319D01*
X141619351Y-80893176D01*
X141620730Y-80898050D01*
X141620731Y-80898054D01*
X141660162Y-81037401D01*
X141685271Y-81126133D01*
X141687406Y-81130712D01*
X141687407Y-81130714D01*
X141741849Y-81247465D01*
X141787589Y-81345553D01*
X141790430Y-81349734D01*
X141790431Y-81349735D01*
X141825172Y-81400854D01*
X141824556Y-81401272D01*
X141825720Y-81402420D01*
X141825905Y-81402281D01*
X141825935Y-81402321D01*
X141826597Y-81403203D01*
X141826797Y-81403482D01*
X141826834Y-81403519D01*
X141828393Y-81405595D01*
X141829809Y-81407679D01*
X141829898Y-81407820D01*
X141830035Y-81408011D01*
X141923671Y-81545793D01*
X141927148Y-81549470D01*
X141927153Y-81549476D01*
X141972137Y-81597044D01*
X141971584Y-81597567D01*
X141973601Y-81598994D01*
X141974083Y-81599636D01*
X141977809Y-81603197D01*
X141978140Y-81603570D01*
X141981516Y-81606963D01*
X142023972Y-81651858D01*
X142090018Y-81721699D01*
X142094035Y-81724770D01*
X142094038Y-81724773D01*
X142148578Y-81766472D01*
X142149084Y-81766870D01*
X142152468Y-81770104D01*
X142156740Y-81773018D01*
X142157645Y-81773636D01*
X142163166Y-81777626D01*
X142278327Y-81865674D01*
X142278338Y-81865681D01*
X142282348Y-81868747D01*
X142346786Y-81903298D01*
X142349421Y-81904754D01*
X142352029Y-81906236D01*
X142356300Y-81909149D01*
X142360986Y-81911324D01*
X142360989Y-81911326D01*
X142363427Y-81912458D01*
X142369912Y-81915699D01*
X142495715Y-81983153D01*
X142500500Y-81984801D01*
X142500501Y-81984801D01*
X142567084Y-82007727D01*
X142570543Y-82009121D01*
X142570561Y-82009071D01*
X142575403Y-82010853D01*
X142580104Y-82013035D01*
X142588723Y-82015425D01*
X142596036Y-82017697D01*
X142724629Y-82061975D01*
X142729618Y-82062837D01*
X142729619Y-82062837D01*
X142803145Y-82075537D01*
X142808988Y-82076848D01*
X142812888Y-82077592D01*
X142817871Y-82078974D01*
X142827403Y-82079993D01*
X142835428Y-82081113D01*
X142963200Y-82103183D01*
X142967161Y-82103363D01*
X142967162Y-82103363D01*
X142990784Y-82104436D01*
X142990803Y-82104436D01*
X142992203Y-82104500D01*
X143160841Y-82104500D01*
X143163349Y-82104298D01*
X143163354Y-82104298D01*
X143336283Y-82090385D01*
X143336288Y-82090384D01*
X143341324Y-82089979D01*
X143346232Y-82088774D01*
X143346235Y-82088773D01*
X143571525Y-82033436D01*
X143576439Y-82032229D01*
X143581091Y-82030254D01*
X143581095Y-82030253D01*
X143794642Y-81939607D01*
X143794643Y-81939607D01*
X143799297Y-81937631D01*
X144004163Y-81808620D01*
X144136176Y-81692235D01*
X144200501Y-81662190D01*
X144270859Y-81671691D01*
X144324911Y-81717723D01*
X144345501Y-81786749D01*
X144345501Y-84618126D01*
X144325499Y-84686247D01*
X144308597Y-84707221D01*
X143507224Y-85508595D01*
X143444911Y-85542620D01*
X143418128Y-85545500D01*
X142342871Y-85545500D01*
X142274750Y-85525498D01*
X142228257Y-85471842D01*
X142218153Y-85401568D01*
X142247647Y-85336988D01*
X142253776Y-85330405D01*
X142266634Y-85317547D01*
X142276435Y-85308721D01*
X142301338Y-85288556D01*
X142301341Y-85288553D01*
X142308013Y-85283150D01*
X142319038Y-85267636D01*
X142332645Y-85251536D01*
X142851413Y-84732768D01*
X142855221Y-84729115D01*
X142894948Y-84692584D01*
X142894949Y-84692583D01*
X142901266Y-84686774D01*
X142924381Y-84649494D01*
X142931104Y-84639712D01*
X142952438Y-84611605D01*
X142957630Y-84604765D01*
X142963237Y-84590604D01*
X142973300Y-84570598D01*
X142976794Y-84564963D01*
X142976798Y-84564954D01*
X142981323Y-84557656D01*
X142993565Y-84515520D01*
X142997409Y-84504293D01*
X142997832Y-84503224D01*
X143013556Y-84463510D01*
X143015148Y-84448367D01*
X143019459Y-84426394D01*
X143021867Y-84418104D01*
X143023709Y-84411765D01*
X143024500Y-84400993D01*
X143024500Y-84365995D01*
X143025190Y-84352824D01*
X143028539Y-84320963D01*
X143029437Y-84312419D01*
X143026263Y-84293654D01*
X143024500Y-84272652D01*
X143024500Y-84253014D01*
X143044502Y-84184893D01*
X143072926Y-84153725D01*
X143166074Y-84080950D01*
X143170100Y-84076286D01*
X143290764Y-83936496D01*
X143290765Y-83936494D01*
X143294793Y-83931828D01*
X143310318Y-83904500D01*
X143389049Y-83765907D01*
X143392096Y-83760544D01*
X143454277Y-83573622D01*
X143478966Y-83378183D01*
X143479360Y-83350000D01*
X143460137Y-83153948D01*
X143403200Y-82965363D01*
X143366116Y-82895619D01*
X143313611Y-82796871D01*
X143313609Y-82796868D01*
X143310717Y-82791429D01*
X143186212Y-82638770D01*
X143090740Y-82559789D01*
X143039177Y-82517132D01*
X143039174Y-82517130D01*
X143034427Y-82513203D01*
X142861143Y-82419508D01*
X142672960Y-82361256D01*
X142666835Y-82360612D01*
X142666834Y-82360612D01*
X142483176Y-82341309D01*
X142483174Y-82341309D01*
X142477047Y-82340665D01*
X142395018Y-82348130D01*
X142287004Y-82357960D01*
X142287001Y-82357961D01*
X142280865Y-82358519D01*
X142274959Y-82360257D01*
X142274955Y-82360258D01*
X142134775Y-82401516D01*
X142091887Y-82414138D01*
X142086427Y-82416992D01*
X142086428Y-82416992D01*
X141922772Y-82502549D01*
X141922768Y-82502552D01*
X141917312Y-82505404D01*
X141763788Y-82628840D01*
X141637163Y-82779745D01*
X141628881Y-82794810D01*
X141557281Y-82925052D01*
X141542262Y-82952371D01*
X141540398Y-82958246D01*
X141540397Y-82958249D01*
X141530453Y-82989596D01*
X141482697Y-83140142D01*
X141460738Y-83335907D01*
X141461254Y-83342051D01*
X141474993Y-83505661D01*
X141477222Y-83532209D01*
X141531521Y-83721570D01*
X141621566Y-83896779D01*
X141625389Y-83901603D01*
X141625392Y-83901607D01*
X141653045Y-83936496D01*
X141743927Y-84051160D01*
X141748620Y-84055154D01*
X141748621Y-84055155D01*
X141759189Y-84064149D01*
X141798102Y-84123532D01*
X141798733Y-84194526D01*
X141766621Y-84249198D01*
X141707224Y-84308595D01*
X141644912Y-84342621D01*
X141618129Y-84345500D01*
X137655500Y-84345500D01*
X137587379Y-84325498D01*
X137540886Y-84271842D01*
X137529500Y-84219500D01*
X137529500Y-83502244D01*
X137529131Y-83498847D01*
X137523651Y-83448403D01*
X137523651Y-83448402D01*
X137522798Y-83440552D01*
X137472071Y-83305236D01*
X137466691Y-83298057D01*
X137466689Y-83298054D01*
X137390785Y-83196776D01*
X137385404Y-83189596D01*
X137327582Y-83146261D01*
X137276946Y-83108311D01*
X137276943Y-83108309D01*
X137269764Y-83102929D01*
X137151502Y-83058595D01*
X137141843Y-83054974D01*
X137141841Y-83054974D01*
X137134448Y-83052202D01*
X137126598Y-83051349D01*
X137126597Y-83051349D01*
X137076153Y-83045869D01*
X137076152Y-83045869D01*
X137072756Y-83045500D01*
X135727244Y-83045500D01*
X135723848Y-83045869D01*
X135723847Y-83045869D01*
X135673403Y-83051349D01*
X135673402Y-83051349D01*
X135665552Y-83052202D01*
X135658159Y-83054974D01*
X135658157Y-83054974D01*
X135648498Y-83058595D01*
X135530236Y-83102929D01*
X135523057Y-83108309D01*
X135523054Y-83108311D01*
X135472418Y-83146261D01*
X135414596Y-83189596D01*
X135409215Y-83196776D01*
X135333311Y-83298054D01*
X135333309Y-83298057D01*
X135327929Y-83305236D01*
X135277202Y-83440552D01*
X135276349Y-83448402D01*
X135276349Y-83448403D01*
X135270869Y-83498847D01*
X135270500Y-83502244D01*
X135270500Y-84397756D01*
X135270869Y-84401152D01*
X135270869Y-84401153D01*
X135272711Y-84418104D01*
X135277202Y-84459448D01*
X135327929Y-84594764D01*
X135333309Y-84601943D01*
X135333311Y-84601946D01*
X135385438Y-84671498D01*
X135414596Y-84710404D01*
X135435023Y-84725713D01*
X135523054Y-84791689D01*
X135523057Y-84791691D01*
X135530236Y-84797071D01*
X135594713Y-84821242D01*
X135658157Y-84845026D01*
X135658159Y-84845026D01*
X135665552Y-84847798D01*
X135673402Y-84848651D01*
X135673403Y-84848651D01*
X135715544Y-84853229D01*
X135727244Y-84854500D01*
X136118129Y-84854500D01*
X136186250Y-84874502D01*
X136207224Y-84891405D01*
X136597232Y-85281413D01*
X136600885Y-85285221D01*
X136643226Y-85331266D01*
X136641443Y-85332906D01*
X136674095Y-85381254D01*
X136675714Y-85452232D01*
X136638702Y-85512818D01*
X136574811Y-85543776D01*
X136554040Y-85545500D01*
X135696211Y-85545500D01*
X135628090Y-85525498D01*
X135607116Y-85508595D01*
X134991405Y-84892884D01*
X134957379Y-84830572D01*
X134954500Y-84803789D01*
X134954500Y-81580500D01*
X134974502Y-81512379D01*
X135028158Y-81465886D01*
X135080500Y-81454500D01*
X135234726Y-81454500D01*
X135302847Y-81474502D01*
X135335551Y-81504934D01*
X135414596Y-81610404D01*
X135421776Y-81615785D01*
X135523054Y-81691689D01*
X135523057Y-81691691D01*
X135530236Y-81697071D01*
X135595932Y-81721699D01*
X135658157Y-81745026D01*
X135658159Y-81745026D01*
X135665552Y-81747798D01*
X135673402Y-81748651D01*
X135673403Y-81748651D01*
X135723847Y-81754131D01*
X135727244Y-81754500D01*
X137072756Y-81754500D01*
X137076153Y-81754131D01*
X137126597Y-81748651D01*
X137126598Y-81748651D01*
X137134448Y-81747798D01*
X137141841Y-81745026D01*
X137141843Y-81745026D01*
X137204068Y-81721699D01*
X137269764Y-81697071D01*
X137276943Y-81691691D01*
X137276946Y-81691689D01*
X137378224Y-81615785D01*
X137385404Y-81610404D01*
X137431685Y-81548651D01*
X137466689Y-81501946D01*
X137466691Y-81501943D01*
X137472071Y-81494764D01*
X137522798Y-81359448D01*
X137529500Y-81297756D01*
X137529500Y-80652677D01*
X137791524Y-80652677D01*
X137792105Y-80657697D01*
X137792105Y-80657701D01*
X137802243Y-80745319D01*
X137819351Y-80893176D01*
X137820730Y-80898050D01*
X137820731Y-80898054D01*
X137860162Y-81037401D01*
X137885271Y-81126133D01*
X137887406Y-81130712D01*
X137887407Y-81130714D01*
X137941849Y-81247465D01*
X137987589Y-81345553D01*
X137990430Y-81349734D01*
X137990431Y-81349735D01*
X138025172Y-81400854D01*
X138024556Y-81401272D01*
X138025720Y-81402420D01*
X138025905Y-81402281D01*
X138025935Y-81402321D01*
X138026597Y-81403203D01*
X138026797Y-81403482D01*
X138026834Y-81403519D01*
X138028393Y-81405595D01*
X138029809Y-81407679D01*
X138029898Y-81407820D01*
X138030035Y-81408011D01*
X138123671Y-81545793D01*
X138127148Y-81549470D01*
X138127153Y-81549476D01*
X138172137Y-81597044D01*
X138171584Y-81597567D01*
X138173601Y-81598994D01*
X138174083Y-81599636D01*
X138177809Y-81603197D01*
X138178140Y-81603570D01*
X138181516Y-81606963D01*
X138223972Y-81651858D01*
X138290018Y-81721699D01*
X138294035Y-81724770D01*
X138294038Y-81724773D01*
X138348578Y-81766472D01*
X138349084Y-81766870D01*
X138352468Y-81770104D01*
X138356740Y-81773018D01*
X138357645Y-81773636D01*
X138363166Y-81777626D01*
X138478327Y-81865674D01*
X138478338Y-81865681D01*
X138482348Y-81868747D01*
X138546786Y-81903298D01*
X138549421Y-81904754D01*
X138552029Y-81906236D01*
X138556300Y-81909149D01*
X138560986Y-81911324D01*
X138560989Y-81911326D01*
X138563427Y-81912458D01*
X138569912Y-81915699D01*
X138695715Y-81983153D01*
X138700500Y-81984801D01*
X138700501Y-81984801D01*
X138767084Y-82007727D01*
X138770543Y-82009121D01*
X138770561Y-82009071D01*
X138775403Y-82010853D01*
X138780104Y-82013035D01*
X138788723Y-82015425D01*
X138796036Y-82017697D01*
X138924629Y-82061975D01*
X138929618Y-82062837D01*
X138929619Y-82062837D01*
X139003145Y-82075537D01*
X139008988Y-82076848D01*
X139012888Y-82077592D01*
X139017871Y-82078974D01*
X139027403Y-82079993D01*
X139035428Y-82081113D01*
X139163200Y-82103183D01*
X139167161Y-82103363D01*
X139167162Y-82103363D01*
X139190784Y-82104436D01*
X139190803Y-82104436D01*
X139192203Y-82104500D01*
X139360841Y-82104500D01*
X139363349Y-82104298D01*
X139363354Y-82104298D01*
X139536283Y-82090385D01*
X139536288Y-82090384D01*
X139541324Y-82089979D01*
X139546232Y-82088774D01*
X139546235Y-82088773D01*
X139771525Y-82033436D01*
X139776439Y-82032229D01*
X139781091Y-82030254D01*
X139781095Y-82030253D01*
X139994642Y-81939607D01*
X139994643Y-81939607D01*
X139999297Y-81937631D01*
X140204163Y-81808620D01*
X140385768Y-81648514D01*
X140539439Y-81461432D01*
X140639011Y-81290351D01*
X140658680Y-81256556D01*
X140658681Y-81256554D01*
X140661222Y-81252188D01*
X140699835Y-81151597D01*
X140746169Y-81030894D01*
X140746170Y-81030891D01*
X140747984Y-81026165D01*
X140797493Y-80789177D01*
X140798762Y-80761250D01*
X140802728Y-80673888D01*
X140808476Y-80547323D01*
X140780649Y-80306824D01*
X140768455Y-80263729D01*
X140716107Y-80078736D01*
X140716106Y-80078734D01*
X140714729Y-80073867D01*
X140704966Y-80052929D01*
X140614548Y-79859030D01*
X140612411Y-79854447D01*
X140588946Y-79819919D01*
X140574828Y-79799146D01*
X140575444Y-79798728D01*
X140574280Y-79797580D01*
X140574095Y-79797719D01*
X140573991Y-79797580D01*
X140573403Y-79796797D01*
X140573203Y-79796518D01*
X140573166Y-79796481D01*
X140571607Y-79794405D01*
X140570191Y-79792321D01*
X140570102Y-79792180D01*
X140569965Y-79791989D01*
X140476329Y-79654207D01*
X140472852Y-79650530D01*
X140472847Y-79650524D01*
X140427863Y-79602956D01*
X140428416Y-79602433D01*
X140426399Y-79601006D01*
X140425917Y-79600364D01*
X140422191Y-79596803D01*
X140421860Y-79596430D01*
X140418484Y-79593037D01*
X140313458Y-79481977D01*
X140313457Y-79481976D01*
X140309982Y-79478301D01*
X140305965Y-79475230D01*
X140305962Y-79475227D01*
X140251422Y-79433528D01*
X140250916Y-79433130D01*
X140247532Y-79429896D01*
X140243260Y-79426982D01*
X140242355Y-79426364D01*
X140236834Y-79422374D01*
X140121673Y-79334326D01*
X140121662Y-79334319D01*
X140117652Y-79331253D01*
X140053214Y-79296702D01*
X140050579Y-79295246D01*
X140047971Y-79293764D01*
X140043700Y-79290851D01*
X140039014Y-79288676D01*
X140039011Y-79288674D01*
X140036573Y-79287542D01*
X140030081Y-79284298D01*
X139997528Y-79266843D01*
X139904285Y-79216847D01*
X139832913Y-79192272D01*
X139829457Y-79190879D01*
X139829439Y-79190929D01*
X139824597Y-79189147D01*
X139819896Y-79186965D01*
X139811277Y-79184575D01*
X139803964Y-79182303D01*
X139675371Y-79138025D01*
X139670382Y-79137163D01*
X139670381Y-79137163D01*
X139596855Y-79124463D01*
X139591012Y-79123152D01*
X139587112Y-79122408D01*
X139582129Y-79121026D01*
X139572597Y-79120007D01*
X139564572Y-79118887D01*
X139436800Y-79096817D01*
X139432839Y-79096637D01*
X139432838Y-79096637D01*
X139409216Y-79095564D01*
X139409197Y-79095564D01*
X139407797Y-79095500D01*
X139239159Y-79095500D01*
X139236651Y-79095702D01*
X139236646Y-79095702D01*
X139063717Y-79109615D01*
X139063712Y-79109616D01*
X139058676Y-79110021D01*
X139053768Y-79111226D01*
X139053765Y-79111227D01*
X138828475Y-79166564D01*
X138823561Y-79167771D01*
X138818909Y-79169746D01*
X138818905Y-79169747D01*
X138702308Y-79219240D01*
X138600703Y-79262369D01*
X138395837Y-79391380D01*
X138214232Y-79551486D01*
X138060561Y-79738568D01*
X138029494Y-79791947D01*
X137946507Y-79934533D01*
X137938778Y-79947812D01*
X137936965Y-79952535D01*
X137867225Y-80134215D01*
X137852016Y-80173835D01*
X137802507Y-80410823D01*
X137791524Y-80652677D01*
X137529500Y-80652677D01*
X137529500Y-80402244D01*
X137528230Y-80390552D01*
X137523651Y-80348403D01*
X137523651Y-80348402D01*
X137522798Y-80340552D01*
X137472071Y-80205236D01*
X137466691Y-80198057D01*
X137466689Y-80198054D01*
X137390785Y-80096776D01*
X137385404Y-80089596D01*
X137358304Y-80069286D01*
X137276946Y-80008311D01*
X137276943Y-80008309D01*
X137269764Y-80002929D01*
X137180046Y-79969296D01*
X137141843Y-79954974D01*
X137141841Y-79954974D01*
X137134448Y-79952202D01*
X137126598Y-79951349D01*
X137126597Y-79951349D01*
X137118286Y-79950446D01*
X137072756Y-79945500D01*
X137072766Y-79945412D01*
X137006739Y-79922073D01*
X136963220Y-79865978D01*
X136954500Y-79819919D01*
X136954500Y-79780081D01*
X136974502Y-79711960D01*
X137028158Y-79665467D01*
X137072726Y-79654500D01*
X137072756Y-79654500D01*
X137118286Y-79649554D01*
X137126597Y-79648651D01*
X137126598Y-79648651D01*
X137134448Y-79647798D01*
X137141841Y-79645026D01*
X137141843Y-79645026D01*
X137208816Y-79619919D01*
X137269764Y-79597071D01*
X137276943Y-79591691D01*
X137276946Y-79591689D01*
X137378224Y-79515785D01*
X137385404Y-79510404D01*
X137427302Y-79454500D01*
X137466689Y-79401946D01*
X137466691Y-79401943D01*
X137472071Y-79394764D01*
X137522798Y-79259448D01*
X137529500Y-79197756D01*
X137529500Y-78302244D01*
X137529131Y-78298847D01*
X137523651Y-78248403D01*
X137523651Y-78248402D01*
X137522798Y-78240552D01*
X137472071Y-78105236D01*
X137466691Y-78098057D01*
X137466689Y-78098054D01*
X137390785Y-77996776D01*
X137385404Y-77989596D01*
X137284056Y-77913640D01*
X137276946Y-77908311D01*
X137276943Y-77908309D01*
X137269764Y-77902929D01*
X137180046Y-77869296D01*
X137141843Y-77854974D01*
X137141841Y-77854974D01*
X137134448Y-77852202D01*
X137126598Y-77851349D01*
X137126597Y-77851349D01*
X137076153Y-77845869D01*
X137076152Y-77845869D01*
X137072756Y-77845500D01*
X135727244Y-77845500D01*
X135723848Y-77845869D01*
X135723847Y-77845869D01*
X135673403Y-77851349D01*
X135673402Y-77851349D01*
X135665552Y-77852202D01*
X135658159Y-77854974D01*
X135658157Y-77854974D01*
X135619954Y-77869296D01*
X135530236Y-77902929D01*
X135523057Y-77908309D01*
X135523054Y-77908311D01*
X135515944Y-77913640D01*
X135414596Y-77989596D01*
X135409215Y-77996776D01*
X135333311Y-78098054D01*
X135333309Y-78098057D01*
X135327929Y-78105236D01*
X135277202Y-78240552D01*
X135276349Y-78248402D01*
X135276349Y-78248403D01*
X135270869Y-78298847D01*
X135270500Y-78302244D01*
X135270500Y-79197756D01*
X135277202Y-79259448D01*
X135327929Y-79394764D01*
X135333309Y-79401943D01*
X135333311Y-79401946D01*
X135372698Y-79454500D01*
X135414596Y-79510404D01*
X135421776Y-79515785D01*
X135523054Y-79591689D01*
X135523057Y-79591691D01*
X135530236Y-79597071D01*
X135591184Y-79619919D01*
X135658157Y-79645026D01*
X135658159Y-79645026D01*
X135665552Y-79647798D01*
X135673402Y-79648651D01*
X135673403Y-79648651D01*
X135681714Y-79649554D01*
X135727244Y-79654500D01*
X135727234Y-79654588D01*
X135793261Y-79677927D01*
X135836780Y-79734022D01*
X135845500Y-79780081D01*
X135845500Y-79819919D01*
X135825498Y-79888040D01*
X135771842Y-79934533D01*
X135727274Y-79945500D01*
X135727244Y-79945500D01*
X135681714Y-79950446D01*
X135673403Y-79951349D01*
X135673402Y-79951349D01*
X135665552Y-79952202D01*
X135658159Y-79954974D01*
X135658157Y-79954974D01*
X135619954Y-79969296D01*
X135530236Y-80002929D01*
X135523057Y-80008309D01*
X135523054Y-80008311D01*
X135441696Y-80069286D01*
X135414596Y-80089596D01*
X135409215Y-80096776D01*
X135333311Y-80198054D01*
X135333309Y-80198057D01*
X135327929Y-80205236D01*
X135317980Y-80231776D01*
X135306001Y-80263729D01*
X135263360Y-80320494D01*
X135196798Y-80345194D01*
X135188019Y-80345500D01*
X134515074Y-80345500D01*
X134509798Y-80345390D01*
X134447326Y-80342772D01*
X134438961Y-80344734D01*
X134436771Y-80344941D01*
X134424911Y-80345500D01*
X133993237Y-80345500D01*
X133925116Y-80325498D01*
X133878623Y-80271842D01*
X133875256Y-80263731D01*
X133875223Y-80263642D01*
X133875221Y-80263638D01*
X133872071Y-80255236D01*
X133866691Y-80248057D01*
X133866689Y-80248054D01*
X133790785Y-80146776D01*
X133785404Y-80139596D01*
X133711509Y-80084215D01*
X133676946Y-80058311D01*
X133676943Y-80058309D01*
X133669764Y-80052929D01*
X133550744Y-80008311D01*
X133541843Y-80004974D01*
X133541841Y-80004974D01*
X133534448Y-80002202D01*
X133526598Y-80001349D01*
X133526597Y-80001349D01*
X133512144Y-79999779D01*
X133472756Y-79995500D01*
X133472766Y-79995412D01*
X133406739Y-79972073D01*
X133363220Y-79915978D01*
X133354500Y-79869919D01*
X133354500Y-79780081D01*
X133374502Y-79711960D01*
X133428158Y-79665467D01*
X133472726Y-79654500D01*
X133472756Y-79654500D01*
X133518286Y-79649554D01*
X133526597Y-79648651D01*
X133526598Y-79648651D01*
X133534448Y-79647798D01*
X133541841Y-79645026D01*
X133541843Y-79645026D01*
X133608816Y-79619919D01*
X133669764Y-79597071D01*
X133676943Y-79591691D01*
X133676946Y-79591689D01*
X133778224Y-79515785D01*
X133785404Y-79510404D01*
X133827302Y-79454500D01*
X133866689Y-79401946D01*
X133866691Y-79401943D01*
X133872071Y-79394764D01*
X133922798Y-79259448D01*
X133929500Y-79197756D01*
X133929500Y-78302244D01*
X133929131Y-78298847D01*
X133923651Y-78248403D01*
X133923651Y-78248402D01*
X133922798Y-78240552D01*
X133872071Y-78105236D01*
X133866691Y-78098057D01*
X133866689Y-78098054D01*
X133790785Y-77996776D01*
X133785404Y-77989596D01*
X133684056Y-77913640D01*
X133676946Y-77908311D01*
X133676943Y-77908309D01*
X133669764Y-77902929D01*
X133580046Y-77869296D01*
X133541843Y-77854974D01*
X133541841Y-77854974D01*
X133534448Y-77852202D01*
X133526598Y-77851349D01*
X133526597Y-77851349D01*
X133476153Y-77845869D01*
X133476152Y-77845869D01*
X133472756Y-77845500D01*
X132127244Y-77845500D01*
X132123848Y-77845869D01*
X132123847Y-77845869D01*
X132073403Y-77851349D01*
X132073402Y-77851349D01*
X132065552Y-77852202D01*
X132058159Y-77854974D01*
X132058157Y-77854974D01*
X132019954Y-77869296D01*
X131930236Y-77902929D01*
X131923057Y-77908309D01*
X131923054Y-77908311D01*
X131915944Y-77913640D01*
X131814596Y-77989596D01*
X131809215Y-77996776D01*
X131733311Y-78098054D01*
X131733309Y-78098057D01*
X131727929Y-78105236D01*
X131677202Y-78240552D01*
X131676349Y-78248402D01*
X131676349Y-78248403D01*
X131670869Y-78298847D01*
X131670500Y-78302244D01*
X131670500Y-79197756D01*
X131677202Y-79259448D01*
X131727929Y-79394764D01*
X131733309Y-79401943D01*
X131733311Y-79401946D01*
X131772698Y-79454500D01*
X131814596Y-79510404D01*
X131821776Y-79515785D01*
X131923054Y-79591689D01*
X131923057Y-79591691D01*
X131930236Y-79597071D01*
X131991184Y-79619919D01*
X132058157Y-79645026D01*
X132058159Y-79645026D01*
X132065552Y-79647798D01*
X132073402Y-79648651D01*
X132073403Y-79648651D01*
X132081714Y-79649554D01*
X132127244Y-79654500D01*
X132127234Y-79654588D01*
X132193261Y-79677927D01*
X132236780Y-79734022D01*
X132245500Y-79780081D01*
X132245500Y-79869919D01*
X132225498Y-79938040D01*
X132171842Y-79984533D01*
X132127274Y-79995500D01*
X132127244Y-79995500D01*
X132087856Y-79999779D01*
X132073403Y-80001349D01*
X132073402Y-80001349D01*
X132065552Y-80002202D01*
X132058159Y-80004974D01*
X132058157Y-80004974D01*
X132049256Y-80008311D01*
X131930236Y-80052929D01*
X131923057Y-80058309D01*
X131923054Y-80058311D01*
X131888491Y-80084215D01*
X131814596Y-80139596D01*
X131809215Y-80146776D01*
X131733311Y-80248054D01*
X131733309Y-80248057D01*
X131727929Y-80255236D01*
X131677202Y-80390552D01*
X131670500Y-80452244D01*
X131670500Y-81347756D01*
X131670869Y-81351152D01*
X131670869Y-81351153D01*
X131672574Y-81366843D01*
X131677202Y-81409448D01*
X131727929Y-81544764D01*
X131733309Y-81551943D01*
X131733311Y-81551946D01*
X131767502Y-81597567D01*
X131814596Y-81660404D01*
X131821776Y-81665785D01*
X131923054Y-81741689D01*
X131923057Y-81741691D01*
X131930236Y-81747071D01*
X131999451Y-81773018D01*
X132058157Y-81795026D01*
X132058159Y-81795026D01*
X132065552Y-81797798D01*
X132073402Y-81798651D01*
X132073403Y-81798651D01*
X132123847Y-81804131D01*
X132127244Y-81804500D01*
X133472756Y-81804500D01*
X133476153Y-81804131D01*
X133526597Y-81798651D01*
X133526598Y-81798651D01*
X133534448Y-81797798D01*
X133541841Y-81795026D01*
X133541843Y-81795026D01*
X133669764Y-81747071D01*
X133670488Y-81749004D01*
X133728349Y-81736349D01*
X133794897Y-81761086D01*
X133837507Y-81817874D01*
X133845500Y-81862038D01*
X133845500Y-83037962D01*
X133825498Y-83106083D01*
X133771842Y-83152576D01*
X133701568Y-83162680D01*
X133670049Y-83152169D01*
X133669764Y-83152929D01*
X133541843Y-83104974D01*
X133541841Y-83104974D01*
X133534448Y-83102202D01*
X133526598Y-83101349D01*
X133526597Y-83101349D01*
X133476153Y-83095869D01*
X133476152Y-83095869D01*
X133472756Y-83095500D01*
X132731871Y-83095500D01*
X132663750Y-83075498D01*
X132642776Y-83058595D01*
X132552768Y-82968587D01*
X132549115Y-82964779D01*
X132512584Y-82925052D01*
X132512583Y-82925051D01*
X132506774Y-82918734D01*
X132481284Y-82902929D01*
X132469494Y-82895619D01*
X132459712Y-82888896D01*
X132431605Y-82867562D01*
X132431606Y-82867562D01*
X132424765Y-82862370D01*
X132415053Y-82858525D01*
X132410604Y-82856763D01*
X132390598Y-82846700D01*
X132384963Y-82843206D01*
X132384954Y-82843202D01*
X132377656Y-82838677D01*
X132335521Y-82826435D01*
X132324298Y-82822593D01*
X132283510Y-82806444D01*
X132269902Y-82805013D01*
X132268367Y-82804852D01*
X132246394Y-82800541D01*
X132231765Y-82796291D01*
X132220993Y-82795500D01*
X132185995Y-82795500D01*
X132172824Y-82794810D01*
X132162607Y-82793736D01*
X132158773Y-82793333D01*
X132140963Y-82791461D01*
X132132419Y-82790563D01*
X132113654Y-82793737D01*
X132092652Y-82795500D01*
X130173866Y-82795500D01*
X130105745Y-82775498D01*
X130076223Y-82749135D01*
X130071037Y-82742776D01*
X129986212Y-82638770D01*
X129890740Y-82559789D01*
X129839177Y-82517132D01*
X129839174Y-82517130D01*
X129834427Y-82513203D01*
X129661143Y-82419508D01*
X129472960Y-82361256D01*
X129466835Y-82360612D01*
X129466834Y-82360612D01*
X129283176Y-82341309D01*
X129283174Y-82341309D01*
X129277047Y-82340665D01*
X129195018Y-82348130D01*
X129087004Y-82357960D01*
X129087001Y-82357961D01*
X129080865Y-82358519D01*
X129074959Y-82360257D01*
X129074955Y-82360258D01*
X128934775Y-82401516D01*
X128891887Y-82414138D01*
X128886427Y-82416992D01*
X128886428Y-82416992D01*
X128722772Y-82502549D01*
X128722768Y-82502552D01*
X128717312Y-82505404D01*
X128563788Y-82628840D01*
X128437163Y-82779745D01*
X128428881Y-82794810D01*
X128357281Y-82925052D01*
X128342262Y-82952371D01*
X128340398Y-82958246D01*
X128340397Y-82958249D01*
X128330453Y-82989596D01*
X128282697Y-83140142D01*
X128260738Y-83335907D01*
X128261254Y-83342051D01*
X128274993Y-83505661D01*
X128277222Y-83532209D01*
X128331521Y-83721570D01*
X128421566Y-83896779D01*
X128425389Y-83901603D01*
X128425392Y-83901607D01*
X128453045Y-83936496D01*
X128543927Y-84051160D01*
X128548620Y-84055154D01*
X128548621Y-84055155D01*
X128624711Y-84119912D01*
X128693945Y-84178835D01*
X128699323Y-84181841D01*
X128699325Y-84181842D01*
X128860361Y-84271842D01*
X128865904Y-84274940D01*
X129053255Y-84335814D01*
X129248862Y-84359139D01*
X129254997Y-84358667D01*
X129254999Y-84358667D01*
X129314801Y-84354065D01*
X129445274Y-84344026D01*
X129635009Y-84291050D01*
X129640513Y-84288270D01*
X129805341Y-84205010D01*
X129805343Y-84205009D01*
X129810842Y-84202231D01*
X129966074Y-84080950D01*
X129970100Y-84076286D01*
X129970103Y-84076283D01*
X130080688Y-83948169D01*
X130140341Y-83909672D01*
X130176069Y-83904500D01*
X131544500Y-83904500D01*
X131612621Y-83924502D01*
X131659114Y-83978158D01*
X131670500Y-84030500D01*
X131670500Y-84447756D01*
X131670869Y-84451152D01*
X131670869Y-84451153D01*
X131672574Y-84466843D01*
X131677202Y-84509448D01*
X131679974Y-84516841D01*
X131679974Y-84516843D01*
X131693460Y-84552816D01*
X131727929Y-84644764D01*
X131733309Y-84651943D01*
X131733311Y-84651946D01*
X131762884Y-84691405D01*
X131814596Y-84760404D01*
X131821776Y-84765785D01*
X131923054Y-84841689D01*
X131923057Y-84841691D01*
X131930236Y-84847071D01*
X131982664Y-84866725D01*
X132058157Y-84895026D01*
X132058159Y-84895026D01*
X132065552Y-84897798D01*
X132073402Y-84898651D01*
X132073403Y-84898651D01*
X132123847Y-84904131D01*
X132127244Y-84904500D01*
X133472756Y-84904500D01*
X133476153Y-84904131D01*
X133526597Y-84898651D01*
X133526598Y-84898651D01*
X133534448Y-84897798D01*
X133541841Y-84895026D01*
X133541843Y-84895026D01*
X133603510Y-84871908D01*
X133674317Y-84866725D01*
X133736686Y-84900646D01*
X133770815Y-84962902D01*
X133765868Y-85033726D01*
X133736834Y-85078985D01*
X133337225Y-85478594D01*
X133274913Y-85512620D01*
X133248130Y-85515499D01*
X129745066Y-85515499D01*
X129739790Y-85515388D01*
X129736487Y-85515250D01*
X129677327Y-85512770D01*
X129668965Y-85514731D01*
X129668959Y-85514732D01*
X129634614Y-85522788D01*
X129622961Y-85524949D01*
X129579483Y-85530904D01*
X129571596Y-85534317D01*
X129571593Y-85534318D01*
X129565506Y-85536952D01*
X129544243Y-85543985D01*
X129529418Y-85547462D01*
X129490964Y-85568602D01*
X129480318Y-85573817D01*
X129447938Y-85587829D01*
X129447934Y-85587831D01*
X129440055Y-85591241D01*
X129433382Y-85596645D01*
X129433380Y-85596646D01*
X129428226Y-85600820D01*
X129409638Y-85613311D01*
X129396286Y-85620651D01*
X129391282Y-85624971D01*
X129389861Y-85626197D01*
X129389854Y-85626203D01*
X129388110Y-85627709D01*
X129363367Y-85652452D01*
X129353566Y-85661278D01*
X129328663Y-85681443D01*
X129328660Y-85681446D01*
X129321988Y-85686849D01*
X129310963Y-85702363D01*
X129297356Y-85718463D01*
X125007224Y-90008595D01*
X124944912Y-90042621D01*
X124918129Y-90045500D01*
X118981872Y-90045500D01*
X118913751Y-90025498D01*
X118892782Y-90008600D01*
X118006307Y-89122126D01*
X117972283Y-89059815D01*
X117977421Y-88988804D01*
X117997798Y-88934448D01*
X118004500Y-88872756D01*
X118004500Y-87527244D01*
X117997798Y-87465552D01*
X117947071Y-87330236D01*
X117941691Y-87323057D01*
X117941689Y-87323054D01*
X117865785Y-87221776D01*
X117860404Y-87214596D01*
X117801880Y-87170735D01*
X117751946Y-87133311D01*
X117751943Y-87133309D01*
X117744764Y-87127929D01*
X117622519Y-87082102D01*
X117616843Y-87079974D01*
X117616841Y-87079974D01*
X117609448Y-87077202D01*
X117601598Y-87076349D01*
X117601597Y-87076349D01*
X117551153Y-87070869D01*
X117551152Y-87070869D01*
X117547756Y-87070500D01*
X116652244Y-87070500D01*
X116648848Y-87070869D01*
X116648847Y-87070869D01*
X116598403Y-87076349D01*
X116598402Y-87076349D01*
X116590552Y-87077202D01*
X116583159Y-87079974D01*
X116583157Y-87079974D01*
X116577481Y-87082102D01*
X116455236Y-87127929D01*
X116448057Y-87133309D01*
X116448054Y-87133311D01*
X116398120Y-87170735D01*
X116339596Y-87214596D01*
X116334215Y-87221776D01*
X116258311Y-87323054D01*
X116258309Y-87323057D01*
X116252929Y-87330236D01*
X116202202Y-87465552D01*
X116195500Y-87527244D01*
X116195412Y-87527234D01*
X116172073Y-87593261D01*
X116115978Y-87636780D01*
X116069919Y-87645500D01*
X115930081Y-87645500D01*
X115861960Y-87625498D01*
X115815467Y-87571842D01*
X115804500Y-87527274D01*
X115804500Y-87527244D01*
X115797798Y-87465552D01*
X115747071Y-87330236D01*
X115741691Y-87323057D01*
X115741689Y-87323054D01*
X115665785Y-87221776D01*
X115660404Y-87214596D01*
X115601880Y-87170735D01*
X115551946Y-87133311D01*
X115551943Y-87133309D01*
X115544764Y-87127929D01*
X115422519Y-87082102D01*
X115416843Y-87079974D01*
X115416841Y-87079974D01*
X115409448Y-87077202D01*
X115401598Y-87076349D01*
X115401597Y-87076349D01*
X115351153Y-87070869D01*
X115351152Y-87070869D01*
X115347756Y-87070500D01*
X114452244Y-87070500D01*
X114448848Y-87070869D01*
X114448847Y-87070869D01*
X114398403Y-87076349D01*
X114398402Y-87076349D01*
X114390552Y-87077202D01*
X114383159Y-87079974D01*
X114383157Y-87079974D01*
X114377481Y-87082102D01*
X114255236Y-87127929D01*
X114248057Y-87133309D01*
X114248054Y-87133311D01*
X114198120Y-87170735D01*
X114139596Y-87214596D01*
X114134215Y-87221776D01*
X114058311Y-87323054D01*
X114058309Y-87323057D01*
X114052929Y-87330236D01*
X114002202Y-87465552D01*
X113995500Y-87527244D01*
X113995500Y-88872756D01*
X114002202Y-88934448D01*
X114052929Y-89069764D01*
X114058309Y-89076943D01*
X114058311Y-89076946D01*
X114059659Y-89078744D01*
X114112989Y-89149902D01*
X114137836Y-89216406D01*
X114122783Y-89285789D01*
X114101258Y-89314560D01*
X113407224Y-90008595D01*
X113344911Y-90042620D01*
X113318128Y-90045500D01*
X108181871Y-90045500D01*
X108113750Y-90025498D01*
X108092776Y-90008595D01*
X106956937Y-88872756D01*
X110895500Y-88872756D01*
X110902202Y-88934448D01*
X110952929Y-89069764D01*
X110958309Y-89076943D01*
X110958311Y-89076946D01*
X110979787Y-89105601D01*
X111039596Y-89185404D01*
X111046776Y-89190785D01*
X111148054Y-89266689D01*
X111148057Y-89266691D01*
X111155236Y-89272071D01*
X111242931Y-89304946D01*
X111283157Y-89320026D01*
X111283159Y-89320026D01*
X111290552Y-89322798D01*
X111298402Y-89323651D01*
X111298403Y-89323651D01*
X111348083Y-89329048D01*
X111352244Y-89329500D01*
X112247756Y-89329500D01*
X112251917Y-89329048D01*
X112301597Y-89323651D01*
X112301598Y-89323651D01*
X112309448Y-89322798D01*
X112316841Y-89320026D01*
X112316843Y-89320026D01*
X112357069Y-89304946D01*
X112444764Y-89272071D01*
X112451943Y-89266691D01*
X112451946Y-89266689D01*
X112553224Y-89190785D01*
X112560404Y-89185404D01*
X112620213Y-89105601D01*
X112641689Y-89076946D01*
X112641691Y-89076943D01*
X112647071Y-89069764D01*
X112697798Y-88934448D01*
X112704500Y-88872756D01*
X112704500Y-87527244D01*
X112697798Y-87465552D01*
X112647071Y-87330236D01*
X112641691Y-87323057D01*
X112641689Y-87323054D01*
X112565785Y-87221776D01*
X112560404Y-87214596D01*
X112501880Y-87170735D01*
X112451946Y-87133311D01*
X112451943Y-87133309D01*
X112444764Y-87127929D01*
X112436362Y-87124779D01*
X112436358Y-87124777D01*
X112436269Y-87124744D01*
X112436194Y-87124687D01*
X112428485Y-87120467D01*
X112429094Y-87119354D01*
X112379505Y-87082102D01*
X112354806Y-87015540D01*
X112354500Y-87006763D01*
X112354500Y-86881871D01*
X112374502Y-86813750D01*
X112391405Y-86792776D01*
X113292776Y-85891405D01*
X113355088Y-85857379D01*
X113381871Y-85854500D01*
X116684925Y-85854500D01*
X116690201Y-85854610D01*
X116752674Y-85857228D01*
X116795376Y-85847212D01*
X116807051Y-85845049D01*
X116822754Y-85842898D01*
X116850518Y-85839095D01*
X116864493Y-85833047D01*
X116885763Y-85826013D01*
X116892222Y-85824498D01*
X116900583Y-85822537D01*
X116939037Y-85801397D01*
X116949683Y-85796182D01*
X116982063Y-85782170D01*
X116982067Y-85782168D01*
X116989946Y-85778758D01*
X117001775Y-85769179D01*
X117020363Y-85756688D01*
X117033715Y-85749348D01*
X117039245Y-85744574D01*
X117040140Y-85743802D01*
X117040147Y-85743796D01*
X117041891Y-85742290D01*
X117066634Y-85717547D01*
X117076435Y-85708721D01*
X117101338Y-85688556D01*
X117101341Y-85688553D01*
X117108013Y-85683150D01*
X117119032Y-85667645D01*
X117132642Y-85651539D01*
X117851437Y-84932745D01*
X117855245Y-84929093D01*
X117881989Y-84904500D01*
X117901266Y-84886774D01*
X117924380Y-84849495D01*
X117931094Y-84839725D01*
X117952440Y-84811604D01*
X117952441Y-84811602D01*
X117957630Y-84804766D01*
X117963236Y-84790606D01*
X117973299Y-84770597D01*
X117981323Y-84757656D01*
X117993564Y-84715524D01*
X117997409Y-84704295D01*
X118010394Y-84671498D01*
X118010396Y-84671490D01*
X118013555Y-84663511D01*
X118015145Y-84648381D01*
X118019459Y-84626392D01*
X118023709Y-84611765D01*
X118024500Y-84600993D01*
X118024500Y-84565987D01*
X118025190Y-84552816D01*
X118028538Y-84520961D01*
X118029436Y-84512420D01*
X118026264Y-84493665D01*
X118024500Y-84472653D01*
X118024500Y-84253014D01*
X118044502Y-84184893D01*
X118072926Y-84153725D01*
X118166074Y-84080950D01*
X118170100Y-84076286D01*
X118290764Y-83936496D01*
X118290765Y-83936494D01*
X118294793Y-83931828D01*
X118310318Y-83904500D01*
X118389049Y-83765907D01*
X118392096Y-83760544D01*
X118454277Y-83573622D01*
X118478966Y-83378183D01*
X118479360Y-83350000D01*
X118460137Y-83153948D01*
X118403200Y-82965363D01*
X118366116Y-82895619D01*
X118313611Y-82796871D01*
X118313609Y-82796868D01*
X118310717Y-82791429D01*
X118186212Y-82638770D01*
X118090740Y-82559789D01*
X118039177Y-82517132D01*
X118039174Y-82517130D01*
X118034427Y-82513203D01*
X117861143Y-82419508D01*
X117672960Y-82361256D01*
X117666835Y-82360612D01*
X117666834Y-82360612D01*
X117483176Y-82341309D01*
X117483174Y-82341309D01*
X117477047Y-82340665D01*
X117395018Y-82348130D01*
X117287004Y-82357960D01*
X117287001Y-82357961D01*
X117280865Y-82358519D01*
X117274959Y-82360257D01*
X117274955Y-82360258D01*
X117134775Y-82401516D01*
X117091887Y-82414138D01*
X117086427Y-82416992D01*
X117086428Y-82416992D01*
X116922772Y-82502549D01*
X116922768Y-82502552D01*
X116917312Y-82505404D01*
X116763788Y-82628840D01*
X116637163Y-82779745D01*
X116628881Y-82794810D01*
X116557281Y-82925052D01*
X116542262Y-82952371D01*
X116540398Y-82958246D01*
X116540397Y-82958249D01*
X116530453Y-82989596D01*
X116482697Y-83140142D01*
X116460738Y-83335907D01*
X116461254Y-83342051D01*
X116474993Y-83505661D01*
X116477222Y-83532209D01*
X116531521Y-83721570D01*
X116621566Y-83896779D01*
X116625389Y-83901603D01*
X116625392Y-83901607D01*
X116653045Y-83936496D01*
X116743927Y-84051160D01*
X116748620Y-84055154D01*
X116748621Y-84055155D01*
X116867235Y-84156103D01*
X116906148Y-84215486D01*
X116906779Y-84286480D01*
X116874667Y-84341152D01*
X116507224Y-84708595D01*
X116444912Y-84742621D01*
X116418129Y-84745500D01*
X113115098Y-84745500D01*
X113109822Y-84745390D01*
X113047326Y-84742771D01*
X113038964Y-84744732D01*
X113038957Y-84744733D01*
X113004613Y-84752789D01*
X112992960Y-84754950D01*
X112949482Y-84760905D01*
X112941595Y-84764318D01*
X112941592Y-84764319D01*
X112935505Y-84766953D01*
X112914242Y-84773986D01*
X112899417Y-84777463D01*
X112860963Y-84798603D01*
X112850317Y-84803818D01*
X112817937Y-84817830D01*
X112817933Y-84817832D01*
X112810054Y-84821242D01*
X112803381Y-84826646D01*
X112803379Y-84826647D01*
X112798225Y-84830821D01*
X112779637Y-84843312D01*
X112766285Y-84850652D01*
X112758109Y-84857709D01*
X112733361Y-84882457D01*
X112723560Y-84891283D01*
X112698661Y-84911445D01*
X112698659Y-84911447D01*
X112691987Y-84916850D01*
X112687013Y-84923849D01*
X112687012Y-84923850D01*
X112680966Y-84932358D01*
X112667355Y-84948463D01*
X111418586Y-86197233D01*
X111414778Y-86200886D01*
X111386469Y-86226918D01*
X111368734Y-86243226D01*
X111364211Y-86250521D01*
X111364210Y-86250522D01*
X111345619Y-86280506D01*
X111338896Y-86290288D01*
X111312370Y-86325235D01*
X111309209Y-86333219D01*
X111306763Y-86339396D01*
X111296700Y-86359402D01*
X111293206Y-86365037D01*
X111293202Y-86365046D01*
X111288677Y-86372344D01*
X111286281Y-86380591D01*
X111276435Y-86414480D01*
X111272593Y-86425702D01*
X111256444Y-86466490D01*
X111255013Y-86480098D01*
X111254852Y-86481633D01*
X111250541Y-86503605D01*
X111246291Y-86518235D01*
X111245500Y-86529007D01*
X111245500Y-86564005D01*
X111244810Y-86577175D01*
X111240563Y-86617581D01*
X111243737Y-86636346D01*
X111245500Y-86657348D01*
X111245500Y-87006763D01*
X111225498Y-87074884D01*
X111171842Y-87121377D01*
X111163731Y-87124744D01*
X111163642Y-87124777D01*
X111163638Y-87124779D01*
X111155236Y-87127929D01*
X111148057Y-87133309D01*
X111148054Y-87133311D01*
X111098120Y-87170735D01*
X111039596Y-87214596D01*
X111034215Y-87221776D01*
X110958311Y-87323054D01*
X110958309Y-87323057D01*
X110952929Y-87330236D01*
X110902202Y-87465552D01*
X110895500Y-87527244D01*
X110895500Y-88872756D01*
X106956937Y-88872756D01*
X103753776Y-85669595D01*
X103719750Y-85607283D01*
X103724815Y-85536468D01*
X103767362Y-85479632D01*
X103833882Y-85454821D01*
X103842871Y-85454500D01*
X104104925Y-85454500D01*
X104110201Y-85454610D01*
X104172674Y-85457228D01*
X104215376Y-85447212D01*
X104227051Y-85445049D01*
X104242754Y-85442898D01*
X104270518Y-85439095D01*
X104284493Y-85433047D01*
X104305763Y-85426013D01*
X104312222Y-85424498D01*
X104320583Y-85422537D01*
X104359037Y-85401397D01*
X104369683Y-85396182D01*
X104402063Y-85382170D01*
X104402067Y-85382168D01*
X104409946Y-85378758D01*
X104421775Y-85369179D01*
X104440363Y-85356688D01*
X104453715Y-85349348D01*
X104459245Y-85344574D01*
X104460140Y-85343802D01*
X104460147Y-85343796D01*
X104461891Y-85342290D01*
X104486634Y-85317547D01*
X104496435Y-85308721D01*
X104521338Y-85288556D01*
X104521341Y-85288553D01*
X104528013Y-85283150D01*
X104539038Y-85267636D01*
X104552645Y-85251536D01*
X105423494Y-84380687D01*
X105485806Y-84346661D01*
X105527507Y-84344668D01*
X105648862Y-84359139D01*
X105654997Y-84358667D01*
X105654999Y-84358667D01*
X105714801Y-84354065D01*
X105845274Y-84344026D01*
X106035009Y-84291050D01*
X106040513Y-84288270D01*
X106205341Y-84205010D01*
X106205343Y-84205009D01*
X106210842Y-84202231D01*
X106366074Y-84080950D01*
X106370100Y-84076286D01*
X106370103Y-84076283D01*
X106490764Y-83936496D01*
X106490765Y-83936494D01*
X106494793Y-83931828D01*
X106510318Y-83904500D01*
X106589049Y-83765907D01*
X106592096Y-83760544D01*
X106654277Y-83573622D01*
X106678966Y-83378183D01*
X106679360Y-83350000D01*
X106660137Y-83153948D01*
X106603200Y-82965363D01*
X106566116Y-82895619D01*
X106513611Y-82796871D01*
X106513609Y-82796868D01*
X106510717Y-82791429D01*
X106386212Y-82638770D01*
X106290740Y-82559789D01*
X106239177Y-82517132D01*
X106239174Y-82517130D01*
X106234427Y-82513203D01*
X106061143Y-82419508D01*
X105872960Y-82361256D01*
X105866835Y-82360612D01*
X105866834Y-82360612D01*
X105683176Y-82341309D01*
X105683174Y-82341309D01*
X105677047Y-82340665D01*
X105595018Y-82348130D01*
X105487004Y-82357960D01*
X105487001Y-82357961D01*
X105480865Y-82358519D01*
X105474959Y-82360257D01*
X105474955Y-82360258D01*
X105334775Y-82401516D01*
X105291887Y-82414138D01*
X105286427Y-82416992D01*
X105286428Y-82416992D01*
X105122772Y-82502549D01*
X105122768Y-82502552D01*
X105117312Y-82505404D01*
X104963788Y-82628840D01*
X104837163Y-82779745D01*
X104828881Y-82794810D01*
X104757281Y-82925052D01*
X104742262Y-82952371D01*
X104740398Y-82958246D01*
X104740397Y-82958249D01*
X104730453Y-82989596D01*
X104682697Y-83140142D01*
X104660738Y-83335907D01*
X104661254Y-83342051D01*
X104674372Y-83498272D01*
X104660140Y-83567827D01*
X104637909Y-83597910D01*
X103927224Y-84308595D01*
X103864912Y-84342621D01*
X103838129Y-84345500D01*
X101081871Y-84345500D01*
X101013750Y-84325498D01*
X100992776Y-84308595D01*
X100866405Y-84182224D01*
X100832379Y-84119912D01*
X100829500Y-84093129D01*
X100829500Y-83302244D01*
X100822798Y-83240552D01*
X100772071Y-83105236D01*
X100766691Y-83098057D01*
X100766689Y-83098054D01*
X100690785Y-82996776D01*
X100685404Y-82989596D01*
X100590853Y-82918734D01*
X100576946Y-82908311D01*
X100576943Y-82908309D01*
X100569764Y-82902929D01*
X100475421Y-82867562D01*
X100441843Y-82854974D01*
X100441841Y-82854974D01*
X100434448Y-82852202D01*
X100426598Y-82851349D01*
X100426597Y-82851349D01*
X100376153Y-82845869D01*
X100376152Y-82845869D01*
X100372756Y-82845500D01*
X99027244Y-82845500D01*
X99023848Y-82845869D01*
X99023847Y-82845869D01*
X98973403Y-82851349D01*
X98973402Y-82851349D01*
X98965552Y-82852202D01*
X98958159Y-82854974D01*
X98958157Y-82854974D01*
X98924579Y-82867562D01*
X98830236Y-82902929D01*
X98823057Y-82908309D01*
X98823054Y-82908311D01*
X98809147Y-82918734D01*
X98714596Y-82989596D01*
X98709215Y-82996776D01*
X98681326Y-83033988D01*
X98624467Y-83076503D01*
X98553648Y-83081529D01*
X98491355Y-83047469D01*
X98457365Y-82985138D01*
X98454500Y-82958423D01*
X98454500Y-82565065D01*
X98454611Y-82559789D01*
X98456399Y-82517132D01*
X98457229Y-82497326D01*
X98455924Y-82491764D01*
X98469165Y-82423423D01*
X98492007Y-82392174D01*
X99292776Y-81591405D01*
X99355088Y-81557379D01*
X99381871Y-81554500D01*
X100372756Y-81554500D01*
X100396266Y-81551946D01*
X100426597Y-81548651D01*
X100426598Y-81548651D01*
X100434448Y-81547798D01*
X100441841Y-81545026D01*
X100441843Y-81545026D01*
X100528929Y-81512379D01*
X100569764Y-81497071D01*
X100576943Y-81491691D01*
X100576946Y-81491689D01*
X100678224Y-81415785D01*
X100685404Y-81410404D01*
X100737442Y-81340970D01*
X100766689Y-81301946D01*
X100766691Y-81301943D01*
X100772071Y-81294764D01*
X100822798Y-81159448D01*
X100828219Y-81109549D01*
X100855461Y-81043987D01*
X100913825Y-81003561D01*
X100984779Y-81001106D01*
X101045796Y-81037401D01*
X101074721Y-81088850D01*
X101085271Y-81126133D01*
X101087406Y-81130712D01*
X101087407Y-81130714D01*
X101141849Y-81247465D01*
X101187589Y-81345553D01*
X101190430Y-81349734D01*
X101190431Y-81349735D01*
X101225172Y-81400854D01*
X101224556Y-81401272D01*
X101225720Y-81402420D01*
X101225905Y-81402281D01*
X101225935Y-81402321D01*
X101226597Y-81403203D01*
X101226797Y-81403482D01*
X101226834Y-81403519D01*
X101228393Y-81405595D01*
X101229809Y-81407679D01*
X101229898Y-81407820D01*
X101230035Y-81408011D01*
X101323671Y-81545793D01*
X101327148Y-81549470D01*
X101327153Y-81549476D01*
X101372137Y-81597044D01*
X101371584Y-81597567D01*
X101373601Y-81598994D01*
X101374083Y-81599636D01*
X101377809Y-81603197D01*
X101378140Y-81603570D01*
X101381516Y-81606963D01*
X101423972Y-81651858D01*
X101490018Y-81721699D01*
X101494035Y-81724770D01*
X101494038Y-81724773D01*
X101548578Y-81766472D01*
X101549084Y-81766870D01*
X101552468Y-81770104D01*
X101556740Y-81773018D01*
X101557645Y-81773636D01*
X101563166Y-81777626D01*
X101678327Y-81865674D01*
X101678338Y-81865681D01*
X101682348Y-81868747D01*
X101746786Y-81903298D01*
X101749421Y-81904754D01*
X101752029Y-81906236D01*
X101756300Y-81909149D01*
X101760986Y-81911324D01*
X101760989Y-81911326D01*
X101763427Y-81912458D01*
X101769912Y-81915699D01*
X101895715Y-81983153D01*
X101900500Y-81984801D01*
X101900501Y-81984801D01*
X101967084Y-82007727D01*
X101970543Y-82009121D01*
X101970561Y-82009071D01*
X101975403Y-82010853D01*
X101980104Y-82013035D01*
X101988723Y-82015425D01*
X101996036Y-82017697D01*
X102124629Y-82061975D01*
X102129618Y-82062837D01*
X102129619Y-82062837D01*
X102203145Y-82075537D01*
X102208988Y-82076848D01*
X102212888Y-82077592D01*
X102217871Y-82078974D01*
X102227403Y-82079993D01*
X102235428Y-82081113D01*
X102363200Y-82103183D01*
X102367161Y-82103363D01*
X102367162Y-82103363D01*
X102390784Y-82104436D01*
X102390803Y-82104436D01*
X102392203Y-82104500D01*
X102560841Y-82104500D01*
X102563349Y-82104298D01*
X102563354Y-82104298D01*
X102736283Y-82090385D01*
X102736288Y-82090384D01*
X102741324Y-82089979D01*
X102746232Y-82088774D01*
X102746235Y-82088773D01*
X102971525Y-82033436D01*
X102976439Y-82032229D01*
X102981091Y-82030254D01*
X102981095Y-82030253D01*
X103194642Y-81939607D01*
X103194643Y-81939607D01*
X103199297Y-81937631D01*
X103404163Y-81808620D01*
X103585768Y-81648514D01*
X103739439Y-81461432D01*
X103839011Y-81290351D01*
X103858680Y-81256556D01*
X103858681Y-81256554D01*
X103861222Y-81252188D01*
X103899835Y-81151597D01*
X103946169Y-81030894D01*
X103946170Y-81030891D01*
X103947984Y-81026165D01*
X103997493Y-80789177D01*
X103998762Y-80761250D01*
X104002728Y-80673888D01*
X104003691Y-80652677D01*
X104791524Y-80652677D01*
X104792105Y-80657697D01*
X104792105Y-80657701D01*
X104802243Y-80745319D01*
X104819351Y-80893176D01*
X104820730Y-80898050D01*
X104820731Y-80898054D01*
X104860162Y-81037401D01*
X104885271Y-81126133D01*
X104887406Y-81130712D01*
X104887407Y-81130714D01*
X104941849Y-81247465D01*
X104987589Y-81345553D01*
X104990430Y-81349734D01*
X104990431Y-81349735D01*
X105025172Y-81400854D01*
X105024556Y-81401272D01*
X105025720Y-81402420D01*
X105025905Y-81402281D01*
X105025935Y-81402321D01*
X105026597Y-81403203D01*
X105026797Y-81403482D01*
X105026834Y-81403519D01*
X105028393Y-81405595D01*
X105029809Y-81407679D01*
X105029898Y-81407820D01*
X105030035Y-81408011D01*
X105123671Y-81545793D01*
X105127148Y-81549470D01*
X105127153Y-81549476D01*
X105172137Y-81597044D01*
X105171584Y-81597567D01*
X105173601Y-81598994D01*
X105174083Y-81599636D01*
X105177809Y-81603197D01*
X105178140Y-81603570D01*
X105181516Y-81606963D01*
X105223972Y-81651858D01*
X105290018Y-81721699D01*
X105294035Y-81724770D01*
X105294038Y-81724773D01*
X105348578Y-81766472D01*
X105349084Y-81766870D01*
X105352468Y-81770104D01*
X105356740Y-81773018D01*
X105357645Y-81773636D01*
X105363166Y-81777626D01*
X105478327Y-81865674D01*
X105478338Y-81865681D01*
X105482348Y-81868747D01*
X105546786Y-81903298D01*
X105549421Y-81904754D01*
X105552029Y-81906236D01*
X105556300Y-81909149D01*
X105560986Y-81911324D01*
X105560989Y-81911326D01*
X105563427Y-81912458D01*
X105569912Y-81915699D01*
X105695715Y-81983153D01*
X105700500Y-81984801D01*
X105700501Y-81984801D01*
X105767084Y-82007727D01*
X105770543Y-82009121D01*
X105770561Y-82009071D01*
X105775403Y-82010853D01*
X105780104Y-82013035D01*
X105788723Y-82015425D01*
X105796036Y-82017697D01*
X105924629Y-82061975D01*
X105929618Y-82062837D01*
X105929619Y-82062837D01*
X106003145Y-82075537D01*
X106008988Y-82076848D01*
X106012888Y-82077592D01*
X106017871Y-82078974D01*
X106027403Y-82079993D01*
X106035428Y-82081113D01*
X106163200Y-82103183D01*
X106167161Y-82103363D01*
X106167162Y-82103363D01*
X106190784Y-82104436D01*
X106190803Y-82104436D01*
X106192203Y-82104500D01*
X106360841Y-82104500D01*
X106363349Y-82104298D01*
X106363354Y-82104298D01*
X106536283Y-82090385D01*
X106536288Y-82090384D01*
X106541324Y-82089979D01*
X106546232Y-82088774D01*
X106546235Y-82088773D01*
X106771525Y-82033436D01*
X106776439Y-82032229D01*
X106781091Y-82030254D01*
X106781095Y-82030253D01*
X106994642Y-81939607D01*
X106994643Y-81939607D01*
X106999297Y-81937631D01*
X107204163Y-81808620D01*
X107385768Y-81648514D01*
X107539439Y-81461432D01*
X107639011Y-81290351D01*
X107658680Y-81256556D01*
X107658681Y-81256554D01*
X107661222Y-81252188D01*
X107699835Y-81151597D01*
X107746169Y-81030894D01*
X107746170Y-81030891D01*
X107747984Y-81026165D01*
X107797493Y-80789177D01*
X107798762Y-80761250D01*
X107802728Y-80673888D01*
X107803691Y-80652677D01*
X112791524Y-80652677D01*
X112792105Y-80657697D01*
X112792105Y-80657701D01*
X112802243Y-80745319D01*
X112819351Y-80893176D01*
X112820730Y-80898050D01*
X112820731Y-80898054D01*
X112860162Y-81037401D01*
X112885271Y-81126133D01*
X112887406Y-81130712D01*
X112887407Y-81130714D01*
X112941849Y-81247465D01*
X112987589Y-81345553D01*
X112990430Y-81349734D01*
X112990431Y-81349735D01*
X113025172Y-81400854D01*
X113024556Y-81401272D01*
X113025720Y-81402420D01*
X113025905Y-81402281D01*
X113025935Y-81402321D01*
X113026597Y-81403203D01*
X113026797Y-81403482D01*
X113026834Y-81403519D01*
X113028393Y-81405595D01*
X113029809Y-81407679D01*
X113029898Y-81407820D01*
X113030035Y-81408011D01*
X113123671Y-81545793D01*
X113127148Y-81549470D01*
X113127153Y-81549476D01*
X113172137Y-81597044D01*
X113171584Y-81597567D01*
X113173601Y-81598994D01*
X113174083Y-81599636D01*
X113177809Y-81603197D01*
X113178140Y-81603570D01*
X113181516Y-81606963D01*
X113223972Y-81651858D01*
X113290018Y-81721699D01*
X113294035Y-81724770D01*
X113294038Y-81724773D01*
X113348578Y-81766472D01*
X113349084Y-81766870D01*
X113352468Y-81770104D01*
X113356740Y-81773018D01*
X113357645Y-81773636D01*
X113363166Y-81777626D01*
X113478327Y-81865674D01*
X113478338Y-81865681D01*
X113482348Y-81868747D01*
X113546786Y-81903298D01*
X113549421Y-81904754D01*
X113552029Y-81906236D01*
X113556300Y-81909149D01*
X113560986Y-81911324D01*
X113560989Y-81911326D01*
X113563427Y-81912458D01*
X113569912Y-81915699D01*
X113695715Y-81983153D01*
X113700500Y-81984801D01*
X113700501Y-81984801D01*
X113767084Y-82007727D01*
X113770543Y-82009121D01*
X113770561Y-82009071D01*
X113775403Y-82010853D01*
X113780104Y-82013035D01*
X113788723Y-82015425D01*
X113796036Y-82017697D01*
X113924629Y-82061975D01*
X113929618Y-82062837D01*
X113929619Y-82062837D01*
X114003145Y-82075537D01*
X114008988Y-82076848D01*
X114012888Y-82077592D01*
X114017871Y-82078974D01*
X114027403Y-82079993D01*
X114035428Y-82081113D01*
X114163200Y-82103183D01*
X114167161Y-82103363D01*
X114167162Y-82103363D01*
X114190784Y-82104436D01*
X114190803Y-82104436D01*
X114192203Y-82104500D01*
X114360841Y-82104500D01*
X114363349Y-82104298D01*
X114363354Y-82104298D01*
X114536283Y-82090385D01*
X114536288Y-82090384D01*
X114541324Y-82089979D01*
X114546232Y-82088774D01*
X114546235Y-82088773D01*
X114771525Y-82033436D01*
X114776439Y-82032229D01*
X114781091Y-82030254D01*
X114781095Y-82030253D01*
X114994642Y-81939607D01*
X114994643Y-81939607D01*
X114999297Y-81937631D01*
X115204163Y-81808620D01*
X115385768Y-81648514D01*
X115539439Y-81461432D01*
X115639011Y-81290351D01*
X115658680Y-81256556D01*
X115658681Y-81256554D01*
X115661222Y-81252188D01*
X115699835Y-81151597D01*
X115746169Y-81030894D01*
X115746170Y-81030891D01*
X115747984Y-81026165D01*
X115797493Y-80789177D01*
X115798762Y-80761250D01*
X115802728Y-80673888D01*
X115808476Y-80547323D01*
X115780649Y-80306824D01*
X115768455Y-80263729D01*
X115716107Y-80078736D01*
X115716106Y-80078734D01*
X115714729Y-80073867D01*
X115704966Y-80052929D01*
X115614548Y-79859030D01*
X115612411Y-79854447D01*
X115588946Y-79819919D01*
X115574828Y-79799146D01*
X115575444Y-79798728D01*
X115574280Y-79797580D01*
X115574095Y-79797719D01*
X115573991Y-79797580D01*
X115573403Y-79796797D01*
X115573203Y-79796518D01*
X115573166Y-79796481D01*
X115571607Y-79794405D01*
X115570191Y-79792321D01*
X115570102Y-79792180D01*
X115569965Y-79791989D01*
X115476329Y-79654207D01*
X115472852Y-79650530D01*
X115472847Y-79650524D01*
X115427863Y-79602956D01*
X115428416Y-79602433D01*
X115426399Y-79601006D01*
X115425917Y-79600364D01*
X115422191Y-79596803D01*
X115421860Y-79596430D01*
X115418484Y-79593037D01*
X115313458Y-79481977D01*
X115313457Y-79481976D01*
X115309982Y-79478301D01*
X115305965Y-79475230D01*
X115305962Y-79475227D01*
X115251422Y-79433528D01*
X115250916Y-79433130D01*
X115247532Y-79429896D01*
X115243260Y-79426982D01*
X115242355Y-79426364D01*
X115236834Y-79422374D01*
X115121673Y-79334326D01*
X115121662Y-79334319D01*
X115117652Y-79331253D01*
X115053214Y-79296702D01*
X115050579Y-79295246D01*
X115047971Y-79293764D01*
X115043700Y-79290851D01*
X115039014Y-79288676D01*
X115039011Y-79288674D01*
X115036573Y-79287542D01*
X115030081Y-79284298D01*
X114997528Y-79266843D01*
X114904285Y-79216847D01*
X114832913Y-79192272D01*
X114829457Y-79190879D01*
X114829439Y-79190929D01*
X114824597Y-79189147D01*
X114819896Y-79186965D01*
X114811277Y-79184575D01*
X114803964Y-79182303D01*
X114675371Y-79138025D01*
X114670382Y-79137163D01*
X114670381Y-79137163D01*
X114596855Y-79124463D01*
X114591012Y-79123152D01*
X114587112Y-79122408D01*
X114582129Y-79121026D01*
X114572597Y-79120007D01*
X114564572Y-79118887D01*
X114436800Y-79096817D01*
X114432839Y-79096637D01*
X114432838Y-79096637D01*
X114409216Y-79095564D01*
X114409197Y-79095564D01*
X114407797Y-79095500D01*
X114239159Y-79095500D01*
X114236651Y-79095702D01*
X114236646Y-79095702D01*
X114063717Y-79109615D01*
X114063712Y-79109616D01*
X114058676Y-79110021D01*
X114053768Y-79111226D01*
X114053765Y-79111227D01*
X113828475Y-79166564D01*
X113823561Y-79167771D01*
X113818909Y-79169746D01*
X113818905Y-79169747D01*
X113702308Y-79219240D01*
X113600703Y-79262369D01*
X113395837Y-79391380D01*
X113214232Y-79551486D01*
X113060561Y-79738568D01*
X113029494Y-79791947D01*
X112946507Y-79934533D01*
X112938778Y-79947812D01*
X112936965Y-79952535D01*
X112867225Y-80134215D01*
X112852016Y-80173835D01*
X112802507Y-80410823D01*
X112791524Y-80652677D01*
X107803691Y-80652677D01*
X107808476Y-80547323D01*
X107780649Y-80306824D01*
X107768455Y-80263729D01*
X107716107Y-80078736D01*
X107716106Y-80078734D01*
X107714729Y-80073867D01*
X107704966Y-80052929D01*
X107614548Y-79859030D01*
X107612411Y-79854447D01*
X107588946Y-79819919D01*
X107574828Y-79799146D01*
X107575444Y-79798728D01*
X107574280Y-79797580D01*
X107574095Y-79797719D01*
X107573991Y-79797580D01*
X107573403Y-79796797D01*
X107573203Y-79796518D01*
X107573166Y-79796481D01*
X107571607Y-79794405D01*
X107570191Y-79792321D01*
X107570102Y-79792180D01*
X107569965Y-79791989D01*
X107476329Y-79654207D01*
X107472852Y-79650530D01*
X107472847Y-79650524D01*
X107427863Y-79602956D01*
X107428416Y-79602433D01*
X107426399Y-79601006D01*
X107425917Y-79600364D01*
X107422191Y-79596803D01*
X107421860Y-79596430D01*
X107418484Y-79593037D01*
X107313458Y-79481977D01*
X107313457Y-79481976D01*
X107309982Y-79478301D01*
X107305965Y-79475230D01*
X107305962Y-79475227D01*
X107251422Y-79433528D01*
X107250916Y-79433130D01*
X107247532Y-79429896D01*
X107243260Y-79426982D01*
X107242355Y-79426364D01*
X107236834Y-79422374D01*
X107121673Y-79334326D01*
X107121662Y-79334319D01*
X107117652Y-79331253D01*
X107053214Y-79296702D01*
X107050579Y-79295246D01*
X107047971Y-79293764D01*
X107043700Y-79290851D01*
X107039014Y-79288676D01*
X107039011Y-79288674D01*
X107036573Y-79287542D01*
X107030081Y-79284298D01*
X106997528Y-79266843D01*
X106904285Y-79216847D01*
X106832913Y-79192272D01*
X106829457Y-79190879D01*
X106829439Y-79190929D01*
X106824597Y-79189147D01*
X106819896Y-79186965D01*
X106811277Y-79184575D01*
X106803964Y-79182303D01*
X106675371Y-79138025D01*
X106670382Y-79137163D01*
X106670381Y-79137163D01*
X106596855Y-79124463D01*
X106591012Y-79123152D01*
X106587112Y-79122408D01*
X106582129Y-79121026D01*
X106572597Y-79120007D01*
X106564572Y-79118887D01*
X106436800Y-79096817D01*
X106432839Y-79096637D01*
X106432838Y-79096637D01*
X106409216Y-79095564D01*
X106409197Y-79095564D01*
X106407797Y-79095500D01*
X106239159Y-79095500D01*
X106236651Y-79095702D01*
X106236646Y-79095702D01*
X106063717Y-79109615D01*
X106063712Y-79109616D01*
X106058676Y-79110021D01*
X106053768Y-79111226D01*
X106053765Y-79111227D01*
X105828475Y-79166564D01*
X105823561Y-79167771D01*
X105818909Y-79169746D01*
X105818905Y-79169747D01*
X105702308Y-79219240D01*
X105600703Y-79262369D01*
X105395837Y-79391380D01*
X105214232Y-79551486D01*
X105060561Y-79738568D01*
X105029494Y-79791947D01*
X104946507Y-79934533D01*
X104938778Y-79947812D01*
X104936965Y-79952535D01*
X104867225Y-80134215D01*
X104852016Y-80173835D01*
X104802507Y-80410823D01*
X104791524Y-80652677D01*
X104003691Y-80652677D01*
X104008476Y-80547323D01*
X103980649Y-80306824D01*
X103968455Y-80263729D01*
X103916107Y-80078736D01*
X103916106Y-80078734D01*
X103914729Y-80073867D01*
X103904966Y-80052929D01*
X103814548Y-79859030D01*
X103812411Y-79854447D01*
X103788946Y-79819919D01*
X103774828Y-79799146D01*
X103775444Y-79798728D01*
X103774280Y-79797580D01*
X103774095Y-79797719D01*
X103773991Y-79797580D01*
X103773403Y-79796797D01*
X103773203Y-79796518D01*
X103773166Y-79796481D01*
X103771607Y-79794405D01*
X103770191Y-79792321D01*
X103770102Y-79792180D01*
X103769965Y-79791989D01*
X103676329Y-79654207D01*
X103672852Y-79650530D01*
X103672847Y-79650524D01*
X103627863Y-79602956D01*
X103628416Y-79602433D01*
X103626399Y-79601006D01*
X103625917Y-79600364D01*
X103622191Y-79596803D01*
X103621860Y-79596430D01*
X103618484Y-79593037D01*
X103513458Y-79481977D01*
X103513457Y-79481976D01*
X103509982Y-79478301D01*
X103505965Y-79475230D01*
X103505962Y-79475227D01*
X103451422Y-79433528D01*
X103450916Y-79433130D01*
X103447532Y-79429896D01*
X103443260Y-79426982D01*
X103442355Y-79426364D01*
X103436834Y-79422374D01*
X103321673Y-79334326D01*
X103321662Y-79334319D01*
X103317652Y-79331253D01*
X103253214Y-79296702D01*
X103250579Y-79295246D01*
X103247971Y-79293764D01*
X103243700Y-79290851D01*
X103239014Y-79288676D01*
X103239011Y-79288674D01*
X103236573Y-79287542D01*
X103230081Y-79284298D01*
X103197528Y-79266843D01*
X103104285Y-79216847D01*
X103032913Y-79192272D01*
X103029457Y-79190879D01*
X103029439Y-79190929D01*
X103024597Y-79189147D01*
X103019896Y-79186965D01*
X103011277Y-79184575D01*
X103003964Y-79182303D01*
X102875371Y-79138025D01*
X102870382Y-79137163D01*
X102870381Y-79137163D01*
X102796855Y-79124463D01*
X102791012Y-79123152D01*
X102787112Y-79122408D01*
X102782129Y-79121026D01*
X102772597Y-79120007D01*
X102764572Y-79118887D01*
X102636800Y-79096817D01*
X102632839Y-79096637D01*
X102632838Y-79096637D01*
X102609216Y-79095564D01*
X102609197Y-79095564D01*
X102607797Y-79095500D01*
X102439159Y-79095500D01*
X102436651Y-79095702D01*
X102436646Y-79095702D01*
X102263717Y-79109615D01*
X102263712Y-79109616D01*
X102258676Y-79110021D01*
X102253768Y-79111226D01*
X102253765Y-79111227D01*
X102028475Y-79166564D01*
X102023561Y-79167771D01*
X102018909Y-79169746D01*
X102018905Y-79169747D01*
X101902308Y-79219240D01*
X101800703Y-79262369D01*
X101595837Y-79391380D01*
X101414232Y-79551486D01*
X101260561Y-79738568D01*
X101229494Y-79791947D01*
X101146507Y-79934533D01*
X101138778Y-79947812D01*
X101061779Y-80148403D01*
X101060716Y-80151171D01*
X101017630Y-80207599D01*
X100950877Y-80231776D01*
X100881650Y-80216025D01*
X100831928Y-80165347D01*
X100822901Y-80141499D01*
X100822798Y-80140552D01*
X100772071Y-80005236D01*
X100766691Y-79998057D01*
X100766689Y-79998054D01*
X100690785Y-79896776D01*
X100685404Y-79889596D01*
X100659149Y-79869919D01*
X100576946Y-79808311D01*
X100576943Y-79808309D01*
X100569764Y-79802929D01*
X100480046Y-79769296D01*
X100441843Y-79754974D01*
X100441841Y-79754974D01*
X100434448Y-79752202D01*
X100426598Y-79751349D01*
X100426597Y-79751349D01*
X100418286Y-79750446D01*
X100372756Y-79745500D01*
X100372766Y-79745412D01*
X100306739Y-79722073D01*
X100263220Y-79665978D01*
X100254500Y-79619919D01*
X100254500Y-79580081D01*
X100274502Y-79511960D01*
X100328158Y-79465467D01*
X100372726Y-79454500D01*
X100372756Y-79454500D01*
X100418286Y-79449554D01*
X100426597Y-79448651D01*
X100426598Y-79448651D01*
X100434448Y-79447798D01*
X100441841Y-79445026D01*
X100441843Y-79445026D01*
X100533325Y-79410731D01*
X100569764Y-79397071D01*
X100576943Y-79391691D01*
X100576946Y-79391689D01*
X100678224Y-79315785D01*
X100685404Y-79310404D01*
X100729477Y-79251597D01*
X100766689Y-79201946D01*
X100766691Y-79201943D01*
X100772071Y-79194764D01*
X100822798Y-79059448D01*
X100829500Y-78997756D01*
X100829500Y-78102244D01*
X100822798Y-78040552D01*
X100819671Y-78032209D01*
X100775221Y-77913640D01*
X100772071Y-77905236D01*
X100766691Y-77898057D01*
X100766689Y-77898054D01*
X100690785Y-77796776D01*
X100685404Y-77789596D01*
X100664977Y-77774287D01*
X100576946Y-77708311D01*
X100576943Y-77708309D01*
X100569764Y-77702929D01*
X100455466Y-77660081D01*
X100441843Y-77654974D01*
X100441841Y-77654974D01*
X100434448Y-77652202D01*
X100426598Y-77651349D01*
X100426597Y-77651349D01*
X100376153Y-77645869D01*
X100376152Y-77645869D01*
X100372756Y-77645500D01*
X99027244Y-77645500D01*
X99023848Y-77645869D01*
X99023847Y-77645869D01*
X98973403Y-77651349D01*
X98973402Y-77651349D01*
X98965552Y-77652202D01*
X98958159Y-77654974D01*
X98958157Y-77654974D01*
X98944534Y-77660081D01*
X98830236Y-77702929D01*
X98823057Y-77708309D01*
X98823054Y-77708311D01*
X98735023Y-77774287D01*
X98714596Y-77789596D01*
X98709215Y-77796776D01*
X98633311Y-77898054D01*
X98633309Y-77898057D01*
X98627929Y-77905236D01*
X98624779Y-77913640D01*
X98580330Y-78032209D01*
X98577202Y-78040552D01*
X98570500Y-78102244D01*
X98570500Y-78997756D01*
X98577202Y-79059448D01*
X98627929Y-79194764D01*
X98633309Y-79201943D01*
X98633311Y-79201946D01*
X98670523Y-79251597D01*
X98714596Y-79310404D01*
X98721776Y-79315785D01*
X98823054Y-79391689D01*
X98823057Y-79391691D01*
X98830236Y-79397071D01*
X98866675Y-79410731D01*
X98958157Y-79445026D01*
X98958159Y-79445026D01*
X98965552Y-79447798D01*
X98973402Y-79448651D01*
X98973403Y-79448651D01*
X98981714Y-79449554D01*
X99027244Y-79454500D01*
X99027234Y-79454588D01*
X99093261Y-79477927D01*
X99136780Y-79534022D01*
X99145500Y-79580081D01*
X99145500Y-79619919D01*
X99125498Y-79688040D01*
X99071842Y-79734533D01*
X99027274Y-79745500D01*
X99027244Y-79745500D01*
X98981714Y-79750446D01*
X98973403Y-79751349D01*
X98973402Y-79751349D01*
X98965552Y-79752202D01*
X98958159Y-79754974D01*
X98958157Y-79754974D01*
X98919954Y-79769296D01*
X98830236Y-79802929D01*
X98823057Y-79808309D01*
X98823054Y-79808311D01*
X98740851Y-79869919D01*
X98714596Y-79889596D01*
X98709215Y-79896776D01*
X98633311Y-79998054D01*
X98633309Y-79998057D01*
X98627929Y-80005236D01*
X98577202Y-80140552D01*
X98570500Y-80202244D01*
X98570500Y-80693129D01*
X98550498Y-80761250D01*
X98533595Y-80782224D01*
X97814095Y-81501724D01*
X97751783Y-81535750D01*
X97680968Y-81530685D01*
X97635905Y-81501724D01*
X97166405Y-81032224D01*
X97132379Y-80969912D01*
X97129500Y-80943129D01*
X97129500Y-80202244D01*
X97122798Y-80140552D01*
X97072071Y-80005236D01*
X97066691Y-79998057D01*
X97066689Y-79998054D01*
X96990785Y-79896776D01*
X96985404Y-79889596D01*
X96959149Y-79869919D01*
X96876946Y-79808311D01*
X96876943Y-79808309D01*
X96869764Y-79802929D01*
X96780046Y-79769296D01*
X96741843Y-79754974D01*
X96741841Y-79754974D01*
X96734448Y-79752202D01*
X96726598Y-79751349D01*
X96726597Y-79751349D01*
X96718286Y-79750446D01*
X96672756Y-79745500D01*
X96672766Y-79745412D01*
X96606739Y-79722073D01*
X96563220Y-79665978D01*
X96554500Y-79619919D01*
X96554500Y-79580081D01*
X96574502Y-79511960D01*
X96628158Y-79465467D01*
X96672726Y-79454500D01*
X96672756Y-79454500D01*
X96718286Y-79449554D01*
X96726597Y-79448651D01*
X96726598Y-79448651D01*
X96734448Y-79447798D01*
X96741841Y-79445026D01*
X96741843Y-79445026D01*
X96833325Y-79410731D01*
X96869764Y-79397071D01*
X96876943Y-79391691D01*
X96876946Y-79391689D01*
X96978224Y-79315785D01*
X96985404Y-79310404D01*
X97029477Y-79251597D01*
X97066689Y-79201946D01*
X97066691Y-79201943D01*
X97072071Y-79194764D01*
X97122798Y-79059448D01*
X97129500Y-78997756D01*
X97129500Y-78102244D01*
X97122798Y-78040552D01*
X97119671Y-78032209D01*
X97075221Y-77913640D01*
X97072071Y-77905236D01*
X97066691Y-77898057D01*
X97066689Y-77898054D01*
X96990785Y-77796776D01*
X96985404Y-77789596D01*
X96964977Y-77774287D01*
X96876946Y-77708311D01*
X96876943Y-77708309D01*
X96869764Y-77702929D01*
X96755466Y-77660081D01*
X96741843Y-77654974D01*
X96741841Y-77654974D01*
X96734448Y-77652202D01*
X96726598Y-77651349D01*
X96726597Y-77651349D01*
X96676153Y-77645869D01*
X96676152Y-77645869D01*
X96672756Y-77645500D01*
X95327244Y-77645500D01*
X95323848Y-77645869D01*
X95323847Y-77645869D01*
X95273403Y-77651349D01*
X95273402Y-77651349D01*
X95265552Y-77652202D01*
X95258159Y-77654974D01*
X95258157Y-77654974D01*
X95244534Y-77660081D01*
X95130236Y-77702929D01*
X95123057Y-77708309D01*
X95123054Y-77708311D01*
X95035023Y-77774287D01*
X95014596Y-77789596D01*
X95009215Y-77796776D01*
X94933311Y-77898054D01*
X94933309Y-77898057D01*
X94927929Y-77905236D01*
X94924779Y-77913640D01*
X94880330Y-78032209D01*
X94877202Y-78040552D01*
X94870500Y-78102244D01*
X94870500Y-78997756D01*
X94877202Y-79059448D01*
X94927929Y-79194764D01*
X94933309Y-79201943D01*
X94933311Y-79201946D01*
X94970523Y-79251597D01*
X95014596Y-79310404D01*
X95021776Y-79315785D01*
X95123054Y-79391689D01*
X95123057Y-79391691D01*
X95130236Y-79397071D01*
X95166675Y-79410731D01*
X95258157Y-79445026D01*
X95258159Y-79445026D01*
X95265552Y-79447798D01*
X95273402Y-79448651D01*
X95273403Y-79448651D01*
X95281714Y-79449554D01*
X95327244Y-79454500D01*
X95327234Y-79454588D01*
X95393261Y-79477927D01*
X95436780Y-79534022D01*
X95445500Y-79580081D01*
X95445500Y-79619919D01*
X95425498Y-79688040D01*
X95371842Y-79734533D01*
X95327274Y-79745500D01*
X95327244Y-79745500D01*
X95281714Y-79750446D01*
X95273403Y-79751349D01*
X95273402Y-79751349D01*
X95265552Y-79752202D01*
X95258159Y-79754974D01*
X95258157Y-79754974D01*
X95219954Y-79769296D01*
X95130236Y-79802929D01*
X95123057Y-79808309D01*
X95123054Y-79808311D01*
X95040851Y-79869919D01*
X95014596Y-79889596D01*
X95009215Y-79896776D01*
X94933311Y-79998054D01*
X94933309Y-79998057D01*
X94927929Y-80005236D01*
X94877202Y-80140552D01*
X94870500Y-80202244D01*
X94870500Y-81097756D01*
X94877202Y-81159448D01*
X94927929Y-81294764D01*
X94933309Y-81301943D01*
X94933311Y-81301946D01*
X94962558Y-81340970D01*
X95014596Y-81410404D01*
X95021776Y-81415785D01*
X95123054Y-81491689D01*
X95123057Y-81491691D01*
X95130236Y-81497071D01*
X95171071Y-81512379D01*
X95258157Y-81545026D01*
X95258159Y-81545026D01*
X95265552Y-81547798D01*
X95273402Y-81548651D01*
X95273403Y-81548651D01*
X95303734Y-81551946D01*
X95327244Y-81554500D01*
X96068129Y-81554500D01*
X96136250Y-81574502D01*
X96157224Y-81591405D01*
X97308595Y-82742776D01*
X97342621Y-82805088D01*
X97345500Y-82831871D01*
X97345500Y-83139558D01*
X97325498Y-83207679D01*
X97271842Y-83254172D01*
X97201568Y-83264276D01*
X97136988Y-83234782D01*
X97101518Y-83183787D01*
X97089950Y-83152929D01*
X97072071Y-83105236D01*
X97066691Y-83098057D01*
X97066689Y-83098054D01*
X96990785Y-82996776D01*
X96985404Y-82989596D01*
X96890853Y-82918734D01*
X96876946Y-82908311D01*
X96876943Y-82908309D01*
X96869764Y-82902929D01*
X96775421Y-82867562D01*
X96741843Y-82854974D01*
X96741841Y-82854974D01*
X96734448Y-82852202D01*
X96726598Y-82851349D01*
X96726597Y-82851349D01*
X96676153Y-82845869D01*
X96676152Y-82845869D01*
X96672756Y-82845500D01*
X95866897Y-82845500D01*
X95828071Y-82837246D01*
X95827655Y-82838677D01*
X95785521Y-82826435D01*
X95774298Y-82822593D01*
X95733510Y-82806444D01*
X95719902Y-82805013D01*
X95718367Y-82804852D01*
X95696394Y-82800541D01*
X95681765Y-82796291D01*
X95670993Y-82795500D01*
X95635995Y-82795500D01*
X95622824Y-82794810D01*
X95612607Y-82793736D01*
X95608773Y-82793333D01*
X95590963Y-82791461D01*
X95582419Y-82790563D01*
X95563654Y-82793737D01*
X95542652Y-82795500D01*
X93373866Y-82795500D01*
X93305745Y-82775498D01*
X93276223Y-82749135D01*
X93271037Y-82742776D01*
X93186212Y-82638770D01*
X93090740Y-82559789D01*
X93039177Y-82517132D01*
X93039174Y-82517130D01*
X93034427Y-82513203D01*
X92861143Y-82419508D01*
X92672960Y-82361256D01*
X92666835Y-82360612D01*
X92666834Y-82360612D01*
X92483176Y-82341309D01*
X92483174Y-82341309D01*
X92477047Y-82340665D01*
X92395018Y-82348130D01*
X92287004Y-82357960D01*
X92287001Y-82357961D01*
X92280865Y-82358519D01*
X92274959Y-82360257D01*
X92274955Y-82360258D01*
X92134775Y-82401516D01*
X92091887Y-82414138D01*
X92086427Y-82416992D01*
X92086428Y-82416992D01*
X91922772Y-82502549D01*
X91922768Y-82502552D01*
X91917312Y-82505404D01*
X91763788Y-82628840D01*
X91637163Y-82779745D01*
X91628881Y-82794810D01*
X91557281Y-82925052D01*
X91542262Y-82952371D01*
X91540398Y-82958246D01*
X91540397Y-82958249D01*
X91530453Y-82989596D01*
X91482697Y-83140142D01*
X91460738Y-83335907D01*
X85389830Y-83335907D01*
X85389830Y-80652677D01*
X87791524Y-80652677D01*
X87792105Y-80657697D01*
X87792105Y-80657701D01*
X87802243Y-80745319D01*
X87819351Y-80893176D01*
X87820730Y-80898050D01*
X87820731Y-80898054D01*
X87860162Y-81037401D01*
X87885271Y-81126133D01*
X87887406Y-81130712D01*
X87887407Y-81130714D01*
X87941849Y-81247465D01*
X87987589Y-81345553D01*
X87990430Y-81349734D01*
X87990431Y-81349735D01*
X88025172Y-81400854D01*
X88024556Y-81401272D01*
X88025720Y-81402420D01*
X88025905Y-81402281D01*
X88025935Y-81402321D01*
X88026597Y-81403203D01*
X88026797Y-81403482D01*
X88026834Y-81403519D01*
X88028393Y-81405595D01*
X88029809Y-81407679D01*
X88029898Y-81407820D01*
X88030035Y-81408011D01*
X88123671Y-81545793D01*
X88127148Y-81549470D01*
X88127153Y-81549476D01*
X88172137Y-81597044D01*
X88171584Y-81597567D01*
X88173601Y-81598994D01*
X88174083Y-81599636D01*
X88177809Y-81603197D01*
X88178140Y-81603570D01*
X88181516Y-81606963D01*
X88223972Y-81651858D01*
X88290018Y-81721699D01*
X88294035Y-81724770D01*
X88294038Y-81724773D01*
X88348578Y-81766472D01*
X88349084Y-81766870D01*
X88352468Y-81770104D01*
X88356740Y-81773018D01*
X88357645Y-81773636D01*
X88363166Y-81777626D01*
X88478327Y-81865674D01*
X88478338Y-81865681D01*
X88482348Y-81868747D01*
X88546786Y-81903298D01*
X88549421Y-81904754D01*
X88552029Y-81906236D01*
X88556300Y-81909149D01*
X88560986Y-81911324D01*
X88560989Y-81911326D01*
X88563427Y-81912458D01*
X88569912Y-81915699D01*
X88695715Y-81983153D01*
X88700500Y-81984801D01*
X88700501Y-81984801D01*
X88767084Y-82007727D01*
X88770543Y-82009121D01*
X88770561Y-82009071D01*
X88775403Y-82010853D01*
X88780104Y-82013035D01*
X88788723Y-82015425D01*
X88796036Y-82017697D01*
X88924629Y-82061975D01*
X88929618Y-82062837D01*
X88929619Y-82062837D01*
X89003145Y-82075537D01*
X89008988Y-82076848D01*
X89012888Y-82077592D01*
X89017871Y-82078974D01*
X89027403Y-82079993D01*
X89035428Y-82081113D01*
X89163200Y-82103183D01*
X89167161Y-82103363D01*
X89167162Y-82103363D01*
X89190784Y-82104436D01*
X89190803Y-82104436D01*
X89192203Y-82104500D01*
X89360841Y-82104500D01*
X89363349Y-82104298D01*
X89363354Y-82104298D01*
X89536283Y-82090385D01*
X89536288Y-82090384D01*
X89541324Y-82089979D01*
X89546232Y-82088774D01*
X89546235Y-82088773D01*
X89771525Y-82033436D01*
X89776439Y-82032229D01*
X89781091Y-82030254D01*
X89781095Y-82030253D01*
X89994642Y-81939607D01*
X89994643Y-81939607D01*
X89999297Y-81937631D01*
X90204163Y-81808620D01*
X90385768Y-81648514D01*
X90539439Y-81461432D01*
X90639011Y-81290351D01*
X90658680Y-81256556D01*
X90658681Y-81256554D01*
X90661222Y-81252188D01*
X90699835Y-81151597D01*
X90746169Y-81030894D01*
X90746170Y-81030891D01*
X90747984Y-81026165D01*
X90797493Y-80789177D01*
X90798762Y-80761250D01*
X90802728Y-80673888D01*
X90803691Y-80652677D01*
X91591524Y-80652677D01*
X91592105Y-80657697D01*
X91592105Y-80657701D01*
X91602243Y-80745319D01*
X91619351Y-80893176D01*
X91620730Y-80898050D01*
X91620731Y-80898054D01*
X91660162Y-81037401D01*
X91685271Y-81126133D01*
X91687406Y-81130712D01*
X91687407Y-81130714D01*
X91741849Y-81247465D01*
X91787589Y-81345553D01*
X91790430Y-81349734D01*
X91790431Y-81349735D01*
X91825172Y-81400854D01*
X91824556Y-81401272D01*
X91825720Y-81402420D01*
X91825905Y-81402281D01*
X91825935Y-81402321D01*
X91826597Y-81403203D01*
X91826797Y-81403482D01*
X91826834Y-81403519D01*
X91828393Y-81405595D01*
X91829809Y-81407679D01*
X91829898Y-81407820D01*
X91830035Y-81408011D01*
X91923671Y-81545793D01*
X91927148Y-81549470D01*
X91927153Y-81549476D01*
X91972137Y-81597044D01*
X91971584Y-81597567D01*
X91973601Y-81598994D01*
X91974083Y-81599636D01*
X91977809Y-81603197D01*
X91978140Y-81603570D01*
X91981516Y-81606963D01*
X92023972Y-81651858D01*
X92090018Y-81721699D01*
X92094035Y-81724770D01*
X92094038Y-81724773D01*
X92148578Y-81766472D01*
X92149084Y-81766870D01*
X92152468Y-81770104D01*
X92156740Y-81773018D01*
X92157645Y-81773636D01*
X92163166Y-81777626D01*
X92278327Y-81865674D01*
X92278338Y-81865681D01*
X92282348Y-81868747D01*
X92346786Y-81903298D01*
X92349421Y-81904754D01*
X92352029Y-81906236D01*
X92356300Y-81909149D01*
X92360986Y-81911324D01*
X92360989Y-81911326D01*
X92363427Y-81912458D01*
X92369912Y-81915699D01*
X92495715Y-81983153D01*
X92500500Y-81984801D01*
X92500501Y-81984801D01*
X92567084Y-82007727D01*
X92570543Y-82009121D01*
X92570561Y-82009071D01*
X92575403Y-82010853D01*
X92580104Y-82013035D01*
X92588723Y-82015425D01*
X92596036Y-82017697D01*
X92724629Y-82061975D01*
X92729618Y-82062837D01*
X92729619Y-82062837D01*
X92803145Y-82075537D01*
X92808988Y-82076848D01*
X92812888Y-82077592D01*
X92817871Y-82078974D01*
X92827403Y-82079993D01*
X92835428Y-82081113D01*
X92963200Y-82103183D01*
X92967161Y-82103363D01*
X92967162Y-82103363D01*
X92990784Y-82104436D01*
X92990803Y-82104436D01*
X92992203Y-82104500D01*
X93160841Y-82104500D01*
X93163349Y-82104298D01*
X93163354Y-82104298D01*
X93336283Y-82090385D01*
X93336288Y-82090384D01*
X93341324Y-82089979D01*
X93346232Y-82088774D01*
X93346235Y-82088773D01*
X93571525Y-82033436D01*
X93576439Y-82032229D01*
X93581091Y-82030254D01*
X93581095Y-82030253D01*
X93794642Y-81939607D01*
X93794643Y-81939607D01*
X93799297Y-81937631D01*
X94004163Y-81808620D01*
X94185768Y-81648514D01*
X94339439Y-81461432D01*
X94439011Y-81290351D01*
X94458680Y-81256556D01*
X94458681Y-81256554D01*
X94461222Y-81252188D01*
X94499835Y-81151597D01*
X94546169Y-81030894D01*
X94546170Y-81030891D01*
X94547984Y-81026165D01*
X94597493Y-80789177D01*
X94598762Y-80761250D01*
X94602728Y-80673888D01*
X94608476Y-80547323D01*
X94580649Y-80306824D01*
X94568455Y-80263729D01*
X94516107Y-80078736D01*
X94516106Y-80078734D01*
X94514729Y-80073867D01*
X94504966Y-80052929D01*
X94414548Y-79859030D01*
X94412411Y-79854447D01*
X94388946Y-79819919D01*
X94374828Y-79799146D01*
X94375444Y-79798728D01*
X94374280Y-79797580D01*
X94374095Y-79797719D01*
X94373991Y-79797580D01*
X94373403Y-79796797D01*
X94373203Y-79796518D01*
X94373166Y-79796481D01*
X94371607Y-79794405D01*
X94370191Y-79792321D01*
X94370102Y-79792180D01*
X94369965Y-79791989D01*
X94276329Y-79654207D01*
X94272852Y-79650530D01*
X94272847Y-79650524D01*
X94227863Y-79602956D01*
X94228416Y-79602433D01*
X94226399Y-79601006D01*
X94225917Y-79600364D01*
X94222191Y-79596803D01*
X94221860Y-79596430D01*
X94218484Y-79593037D01*
X94113458Y-79481977D01*
X94113457Y-79481976D01*
X94109982Y-79478301D01*
X94105965Y-79475230D01*
X94105962Y-79475227D01*
X94051422Y-79433528D01*
X94050916Y-79433130D01*
X94047532Y-79429896D01*
X94043260Y-79426982D01*
X94042355Y-79426364D01*
X94036834Y-79422374D01*
X93921673Y-79334326D01*
X93921662Y-79334319D01*
X93917652Y-79331253D01*
X93853214Y-79296702D01*
X93850579Y-79295246D01*
X93847971Y-79293764D01*
X93843700Y-79290851D01*
X93839014Y-79288676D01*
X93839011Y-79288674D01*
X93836573Y-79287542D01*
X93830081Y-79284298D01*
X93797528Y-79266843D01*
X93704285Y-79216847D01*
X93632913Y-79192272D01*
X93629457Y-79190879D01*
X93629439Y-79190929D01*
X93624597Y-79189147D01*
X93619896Y-79186965D01*
X93611277Y-79184575D01*
X93603964Y-79182303D01*
X93475371Y-79138025D01*
X93470382Y-79137163D01*
X93470381Y-79137163D01*
X93396855Y-79124463D01*
X93391012Y-79123152D01*
X93387112Y-79122408D01*
X93382129Y-79121026D01*
X93372597Y-79120007D01*
X93364572Y-79118887D01*
X93236800Y-79096817D01*
X93232839Y-79096637D01*
X93232838Y-79096637D01*
X93209216Y-79095564D01*
X93209197Y-79095564D01*
X93207797Y-79095500D01*
X93039159Y-79095500D01*
X93036651Y-79095702D01*
X93036646Y-79095702D01*
X92863717Y-79109615D01*
X92863712Y-79109616D01*
X92858676Y-79110021D01*
X92853768Y-79111226D01*
X92853765Y-79111227D01*
X92628475Y-79166564D01*
X92623561Y-79167771D01*
X92618909Y-79169746D01*
X92618905Y-79169747D01*
X92502308Y-79219240D01*
X92400703Y-79262369D01*
X92195837Y-79391380D01*
X92014232Y-79551486D01*
X91860561Y-79738568D01*
X91829494Y-79791947D01*
X91746507Y-79934533D01*
X91738778Y-79947812D01*
X91736965Y-79952535D01*
X91667225Y-80134215D01*
X91652016Y-80173835D01*
X91602507Y-80410823D01*
X91591524Y-80652677D01*
X90803691Y-80652677D01*
X90808476Y-80547323D01*
X90780649Y-80306824D01*
X90768455Y-80263729D01*
X90716107Y-80078736D01*
X90716106Y-80078734D01*
X90714729Y-80073867D01*
X90704966Y-80052929D01*
X90614548Y-79859030D01*
X90612411Y-79854447D01*
X90588946Y-79819919D01*
X90574828Y-79799146D01*
X90575444Y-79798728D01*
X90574280Y-79797580D01*
X90574095Y-79797719D01*
X90573991Y-79797580D01*
X90573403Y-79796797D01*
X90573203Y-79796518D01*
X90573166Y-79796481D01*
X90571607Y-79794405D01*
X90570191Y-79792321D01*
X90570102Y-79792180D01*
X90569965Y-79791989D01*
X90476329Y-79654207D01*
X90472852Y-79650530D01*
X90472847Y-79650524D01*
X90427863Y-79602956D01*
X90428416Y-79602433D01*
X90426399Y-79601006D01*
X90425917Y-79600364D01*
X90422191Y-79596803D01*
X90421860Y-79596430D01*
X90418484Y-79593037D01*
X90313458Y-79481977D01*
X90313457Y-79481976D01*
X90309982Y-79478301D01*
X90305965Y-79475230D01*
X90305962Y-79475227D01*
X90251422Y-79433528D01*
X90250916Y-79433130D01*
X90247532Y-79429896D01*
X90243260Y-79426982D01*
X90242355Y-79426364D01*
X90236834Y-79422374D01*
X90121673Y-79334326D01*
X90121662Y-79334319D01*
X90117652Y-79331253D01*
X90053214Y-79296702D01*
X90050579Y-79295246D01*
X90047971Y-79293764D01*
X90043700Y-79290851D01*
X90039014Y-79288676D01*
X90039011Y-79288674D01*
X90036573Y-79287542D01*
X90030081Y-79284298D01*
X89997528Y-79266843D01*
X89904285Y-79216847D01*
X89832913Y-79192272D01*
X89829457Y-79190879D01*
X89829439Y-79190929D01*
X89824597Y-79189147D01*
X89819896Y-79186965D01*
X89811277Y-79184575D01*
X89803964Y-79182303D01*
X89675371Y-79138025D01*
X89670382Y-79137163D01*
X89670381Y-79137163D01*
X89596855Y-79124463D01*
X89591012Y-79123152D01*
X89587112Y-79122408D01*
X89582129Y-79121026D01*
X89572597Y-79120007D01*
X89564572Y-79118887D01*
X89436800Y-79096817D01*
X89432839Y-79096637D01*
X89432838Y-79096637D01*
X89409216Y-79095564D01*
X89409197Y-79095564D01*
X89407797Y-79095500D01*
X89239159Y-79095500D01*
X89236651Y-79095702D01*
X89236646Y-79095702D01*
X89063717Y-79109615D01*
X89063712Y-79109616D01*
X89058676Y-79110021D01*
X89053768Y-79111226D01*
X89053765Y-79111227D01*
X88828475Y-79166564D01*
X88823561Y-79167771D01*
X88818909Y-79169746D01*
X88818905Y-79169747D01*
X88702308Y-79219240D01*
X88600703Y-79262369D01*
X88395837Y-79391380D01*
X88214232Y-79551486D01*
X88060561Y-79738568D01*
X88029494Y-79791947D01*
X87946507Y-79934533D01*
X87938778Y-79947812D01*
X87936965Y-79952535D01*
X87867225Y-80134215D01*
X87852016Y-80173835D01*
X87802507Y-80410823D01*
X87791524Y-80652677D01*
X85389830Y-80652677D01*
X85389830Y-77835907D01*
X91460738Y-77835907D01*
X91461254Y-77842051D01*
X91474247Y-77996776D01*
X91477222Y-78032209D01*
X91531521Y-78221570D01*
X91621566Y-78396779D01*
X91625389Y-78401603D01*
X91625392Y-78401607D01*
X91722055Y-78523565D01*
X91743927Y-78551160D01*
X91748620Y-78555154D01*
X91748621Y-78555155D01*
X91866837Y-78655764D01*
X91893945Y-78678835D01*
X91899323Y-78681841D01*
X91899325Y-78681842D01*
X92035585Y-78757995D01*
X92065904Y-78774940D01*
X92253255Y-78835814D01*
X92448862Y-78859139D01*
X92454997Y-78858667D01*
X92454999Y-78858667D01*
X92514801Y-78854065D01*
X92645274Y-78844026D01*
X92835009Y-78791050D01*
X92840513Y-78788270D01*
X93005341Y-78705010D01*
X93005343Y-78705009D01*
X93010842Y-78702231D01*
X93166074Y-78580950D01*
X93170100Y-78576286D01*
X93170103Y-78576283D01*
X93290764Y-78436496D01*
X93290765Y-78436494D01*
X93294793Y-78431828D01*
X93310318Y-78404500D01*
X93389049Y-78265907D01*
X93392096Y-78260544D01*
X93454277Y-78073622D01*
X93478966Y-77878183D01*
X93479071Y-77870640D01*
X93479311Y-77853522D01*
X93479311Y-77853518D01*
X93479360Y-77850000D01*
X93465064Y-77704202D01*
X93478323Y-77634456D01*
X93501368Y-77602813D01*
X94868290Y-76235891D01*
X94930602Y-76201865D01*
X95001417Y-76206930D01*
X95032948Y-76224158D01*
X95130236Y-76297071D01*
X95190432Y-76319637D01*
X95258157Y-76345026D01*
X95258159Y-76345026D01*
X95265552Y-76347798D01*
X95273402Y-76348651D01*
X95273403Y-76348651D01*
X95294713Y-76350966D01*
X95327244Y-76354500D01*
X96672756Y-76354500D01*
X96705287Y-76350966D01*
X96726597Y-76348651D01*
X96726598Y-76348651D01*
X96734448Y-76347798D01*
X96741841Y-76345026D01*
X96741843Y-76345026D01*
X96809568Y-76319637D01*
X96869764Y-76297071D01*
X96876943Y-76291691D01*
X96876946Y-76291689D01*
X96978224Y-76215785D01*
X96985404Y-76210404D01*
X97046923Y-76128319D01*
X97066689Y-76101946D01*
X97066691Y-76101943D01*
X97072071Y-76094764D01*
X97122798Y-75959448D01*
X97126094Y-75929113D01*
X97129131Y-75901153D01*
X97129131Y-75901152D01*
X97129500Y-75897756D01*
X98570500Y-75897756D01*
X98570869Y-75901152D01*
X98570869Y-75901153D01*
X98573907Y-75929113D01*
X98577202Y-75959448D01*
X98627929Y-76094764D01*
X98633309Y-76101943D01*
X98633311Y-76101946D01*
X98653077Y-76128319D01*
X98714596Y-76210404D01*
X98721776Y-76215785D01*
X98823054Y-76291689D01*
X98823057Y-76291691D01*
X98830236Y-76297071D01*
X98890432Y-76319637D01*
X98958157Y-76345026D01*
X98958159Y-76345026D01*
X98965552Y-76347798D01*
X98973402Y-76348651D01*
X98973403Y-76348651D01*
X98994713Y-76350966D01*
X99027244Y-76354500D01*
X100372756Y-76354500D01*
X100405287Y-76350966D01*
X100426597Y-76348651D01*
X100426598Y-76348651D01*
X100434448Y-76347798D01*
X100441841Y-76345026D01*
X100441843Y-76345026D01*
X100509568Y-76319637D01*
X100569764Y-76297071D01*
X100576943Y-76291691D01*
X100576946Y-76291689D01*
X100678224Y-76215785D01*
X100685404Y-76210404D01*
X100746923Y-76128319D01*
X100766689Y-76101946D01*
X100766691Y-76101943D01*
X100772071Y-76094764D01*
X100822798Y-75959448D01*
X100826094Y-75929113D01*
X100829131Y-75901153D01*
X100829131Y-75901152D01*
X100829500Y-75897756D01*
X100829500Y-75180500D01*
X100849502Y-75112379D01*
X100903158Y-75065886D01*
X100955500Y-75054500D01*
X101517744Y-75054500D01*
X101585865Y-75074502D01*
X101632358Y-75128158D01*
X101642462Y-75198432D01*
X101612968Y-75263012D01*
X101586830Y-75285871D01*
X101462732Y-75367234D01*
X101341736Y-75494960D01*
X101253368Y-75647096D01*
X101202370Y-75815480D01*
X101191476Y-75991080D01*
X101192716Y-75998296D01*
X101192716Y-75998298D01*
X101215058Y-76128319D01*
X101221271Y-76164477D01*
X101290156Y-76326368D01*
X101394437Y-76468071D01*
X101528520Y-76581982D01*
X101572034Y-76604201D01*
X101678695Y-76658666D01*
X101678700Y-76658668D01*
X101685212Y-76661993D01*
X101692318Y-76663732D01*
X101692321Y-76663733D01*
X101736822Y-76674622D01*
X101856108Y-76703811D01*
X101861710Y-76704159D01*
X101861713Y-76704159D01*
X101865275Y-76704380D01*
X101865284Y-76704380D01*
X101867214Y-76704500D01*
X101994053Y-76704500D01*
X102085950Y-76693786D01*
X102117482Y-76690110D01*
X102117484Y-76690110D01*
X102124754Y-76689262D01*
X102131631Y-76686766D01*
X102131634Y-76686765D01*
X102283255Y-76631729D01*
X102290134Y-76629232D01*
X102296251Y-76625222D01*
X102296254Y-76625220D01*
X102381366Y-76569417D01*
X102437268Y-76532766D01*
X102558264Y-76405040D01*
X102646632Y-76252904D01*
X102697630Y-76084520D01*
X102708524Y-75908920D01*
X102707190Y-75901153D01*
X102679969Y-75742738D01*
X102679968Y-75742736D01*
X102678729Y-75735523D01*
X102609844Y-75573632D01*
X102505563Y-75431929D01*
X102371480Y-75318018D01*
X102321931Y-75292717D01*
X102270358Y-75243924D01*
X102253352Y-75174994D01*
X102276312Y-75107812D01*
X102331948Y-75063709D01*
X102379232Y-75054500D01*
X105857129Y-75054500D01*
X105925250Y-75074502D01*
X105971743Y-75128158D01*
X105981847Y-75198432D01*
X105952353Y-75263012D01*
X105946224Y-75269595D01*
X105288587Y-75927232D01*
X105284779Y-75930885D01*
X105238734Y-75973226D01*
X105234211Y-75980521D01*
X105234210Y-75980522D01*
X105215619Y-76010506D01*
X105208896Y-76020288D01*
X105182370Y-76055235D01*
X105179209Y-76063219D01*
X105176763Y-76069396D01*
X105166700Y-76089402D01*
X105163206Y-76095037D01*
X105163202Y-76095046D01*
X105158677Y-76102344D01*
X105156281Y-76110591D01*
X105146435Y-76144480D01*
X105142593Y-76155702D01*
X105126444Y-76196490D01*
X105125299Y-76207379D01*
X105124852Y-76211633D01*
X105120541Y-76233605D01*
X105116291Y-76248235D01*
X105115500Y-76259007D01*
X105115500Y-76294005D01*
X105114810Y-76307175D01*
X105110563Y-76347581D01*
X105113737Y-76366346D01*
X105115500Y-76387348D01*
X105115500Y-76946491D01*
X105095498Y-77014612D01*
X105068452Y-77044688D01*
X105002414Y-77097784D01*
X104963788Y-77128840D01*
X104837163Y-77279745D01*
X104828881Y-77294810D01*
X104757281Y-77425052D01*
X104742262Y-77452371D01*
X104740398Y-77458246D01*
X104740397Y-77458249D01*
X104705719Y-77567569D01*
X104682697Y-77640142D01*
X104660738Y-77835907D01*
X104661254Y-77842051D01*
X104674247Y-77996776D01*
X104677222Y-78032209D01*
X104731521Y-78221570D01*
X104821566Y-78396779D01*
X104825389Y-78401603D01*
X104825392Y-78401607D01*
X104922055Y-78523565D01*
X104943927Y-78551160D01*
X104948620Y-78555154D01*
X104948621Y-78555155D01*
X105066837Y-78655764D01*
X105093945Y-78678835D01*
X105099323Y-78681841D01*
X105099325Y-78681842D01*
X105235585Y-78757995D01*
X105265904Y-78774940D01*
X105453255Y-78835814D01*
X105648862Y-78859139D01*
X105654997Y-78858667D01*
X105654999Y-78858667D01*
X105714801Y-78854065D01*
X105845274Y-78844026D01*
X106035009Y-78791050D01*
X106040513Y-78788270D01*
X106205341Y-78705010D01*
X106205343Y-78705009D01*
X106210842Y-78702231D01*
X106366074Y-78580950D01*
X106370100Y-78576286D01*
X106370103Y-78576283D01*
X106490764Y-78436496D01*
X106490765Y-78436494D01*
X106494793Y-78431828D01*
X106510318Y-78404500D01*
X106589049Y-78265907D01*
X106592096Y-78260544D01*
X106654277Y-78073622D01*
X106678966Y-77878183D01*
X106679071Y-77870640D01*
X106679311Y-77853522D01*
X106679311Y-77853518D01*
X106679360Y-77850000D01*
X106660137Y-77653948D01*
X106603200Y-77465363D01*
X106564605Y-77392777D01*
X106513611Y-77296871D01*
X106513609Y-77296868D01*
X106510717Y-77291429D01*
X106386212Y-77138770D01*
X106322838Y-77086343D01*
X106270185Y-77042784D01*
X106230446Y-76983950D01*
X106224500Y-76945699D01*
X106224500Y-76611871D01*
X106244502Y-76543750D01*
X106261405Y-76522776D01*
X107692776Y-75091405D01*
X107755088Y-75057379D01*
X107781871Y-75054500D01*
X110384925Y-75054500D01*
X110390201Y-75054610D01*
X110452674Y-75057228D01*
X110495376Y-75047212D01*
X110507051Y-75045049D01*
X110534544Y-75041283D01*
X110550518Y-75039095D01*
X110564493Y-75033047D01*
X110585763Y-75026013D01*
X110592222Y-75024498D01*
X110600583Y-75022537D01*
X110639037Y-75001397D01*
X110649683Y-74996182D01*
X110682063Y-74982170D01*
X110682067Y-74982168D01*
X110689946Y-74978758D01*
X110699228Y-74971242D01*
X110701775Y-74969179D01*
X110720363Y-74956688D01*
X110733715Y-74949348D01*
X110739245Y-74944574D01*
X110740140Y-74943802D01*
X110740147Y-74943796D01*
X110741891Y-74942290D01*
X110766634Y-74917547D01*
X110776435Y-74908721D01*
X110801338Y-74888556D01*
X110801341Y-74888553D01*
X110808013Y-74883150D01*
X110819038Y-74867636D01*
X110832645Y-74851536D01*
X111421413Y-74262768D01*
X111425221Y-74259115D01*
X111464948Y-74222584D01*
X111464949Y-74222583D01*
X111471266Y-74216774D01*
X111494381Y-74179494D01*
X111501104Y-74169712D01*
X111522438Y-74141605D01*
X111527630Y-74134765D01*
X111533237Y-74120604D01*
X111543300Y-74100598D01*
X111546794Y-74094963D01*
X111546798Y-74094954D01*
X111551323Y-74087656D01*
X111563565Y-74045520D01*
X111567409Y-74034293D01*
X111573927Y-74017830D01*
X111583556Y-73993510D01*
X111585148Y-73978367D01*
X111589459Y-73956394D01*
X111590113Y-73954144D01*
X111593709Y-73941765D01*
X111594500Y-73930993D01*
X111594500Y-73895995D01*
X111595190Y-73882824D01*
X111598539Y-73850963D01*
X111599437Y-73842419D01*
X111596263Y-73823654D01*
X111594500Y-73802652D01*
X111594500Y-73429313D01*
X111614502Y-73361192D01*
X111658937Y-73319377D01*
X111663234Y-73316971D01*
X111663236Y-73316969D01*
X111668276Y-73314147D01*
X111824345Y-73184345D01*
X111901643Y-73091405D01*
X111950453Y-73032718D01*
X111950455Y-73032715D01*
X111954147Y-73028276D01*
X112053334Y-72851165D01*
X112055190Y-72845698D01*
X112055192Y-72845693D01*
X112116728Y-72664414D01*
X112116729Y-72664409D01*
X112118584Y-72658945D01*
X112119412Y-72653236D01*
X112119413Y-72653231D01*
X112138132Y-72524125D01*
X112147712Y-72458053D01*
X112149232Y-72400000D01*
X112146564Y-72370964D01*
X112471148Y-72370964D01*
X112484424Y-72573522D01*
X112485845Y-72579118D01*
X112485846Y-72579123D01*
X112504973Y-72654433D01*
X112534392Y-72770269D01*
X112536809Y-72775512D01*
X112574010Y-72856208D01*
X112619377Y-72954616D01*
X112633431Y-72974502D01*
X112731638Y-73113462D01*
X112736533Y-73120389D01*
X112881938Y-73262035D01*
X112969503Y-73320544D01*
X113015029Y-73375019D01*
X113025500Y-73425308D01*
X113025500Y-73864925D01*
X113025390Y-73870201D01*
X113022772Y-73932674D01*
X113025780Y-73945500D01*
X113032788Y-73975378D01*
X113034951Y-73987051D01*
X113040905Y-74030518D01*
X113046407Y-74043233D01*
X113046953Y-74044494D01*
X113053987Y-74065763D01*
X113057463Y-74080583D01*
X113078603Y-74119037D01*
X113083818Y-74129683D01*
X113097830Y-74162063D01*
X113097832Y-74162067D01*
X113101242Y-74169946D01*
X113106646Y-74176619D01*
X113106647Y-74176621D01*
X113110821Y-74181775D01*
X113123312Y-74200363D01*
X113130652Y-74213715D01*
X113137710Y-74221891D01*
X113162453Y-74246634D01*
X113171279Y-74256435D01*
X113191444Y-74281338D01*
X113191447Y-74281341D01*
X113196850Y-74288013D01*
X113212364Y-74299038D01*
X113228464Y-74312645D01*
X113896224Y-74980405D01*
X113930250Y-75042717D01*
X113925185Y-75113532D01*
X113882638Y-75170368D01*
X113816118Y-75195179D01*
X113807129Y-75195500D01*
X113705947Y-75195500D01*
X113624720Y-75204970D01*
X113582518Y-75209890D01*
X113582516Y-75209890D01*
X113575246Y-75210738D01*
X113568369Y-75213234D01*
X113568366Y-75213235D01*
X113490955Y-75241334D01*
X113409866Y-75270768D01*
X113403749Y-75274778D01*
X113403746Y-75274780D01*
X113376388Y-75292717D01*
X113262732Y-75367234D01*
X113141736Y-75494960D01*
X113053368Y-75647096D01*
X113002370Y-75815480D01*
X112991476Y-75991080D01*
X112992716Y-75998296D01*
X112992716Y-75998298D01*
X113015058Y-76128319D01*
X113021271Y-76164477D01*
X113090156Y-76326368D01*
X113194437Y-76468071D01*
X113328520Y-76581982D01*
X113372034Y-76604201D01*
X113478695Y-76658666D01*
X113478700Y-76658668D01*
X113485212Y-76661993D01*
X113492318Y-76663732D01*
X113492321Y-76663733D01*
X113536822Y-76674622D01*
X113656108Y-76703811D01*
X113661710Y-76704159D01*
X113661713Y-76704159D01*
X113665275Y-76704380D01*
X113665284Y-76704380D01*
X113667214Y-76704500D01*
X113794053Y-76704500D01*
X113885950Y-76693786D01*
X113917482Y-76690110D01*
X113917484Y-76690110D01*
X113924754Y-76689262D01*
X113931631Y-76686766D01*
X113931634Y-76686765D01*
X114083255Y-76631729D01*
X114090134Y-76629232D01*
X114096251Y-76625222D01*
X114096254Y-76625220D01*
X114181366Y-76569417D01*
X114237268Y-76532766D01*
X114358264Y-76405040D01*
X114446632Y-76252904D01*
X114497630Y-76084520D01*
X114508524Y-75908920D01*
X114507359Y-75902139D01*
X114523607Y-75833215D01*
X114574670Y-75783888D01*
X114644295Y-75769999D01*
X114710376Y-75795957D01*
X114722228Y-75806409D01*
X116447672Y-77531853D01*
X116481698Y-77594165D01*
X116481804Y-77640042D01*
X116482697Y-77640142D01*
X116476008Y-77699779D01*
X116460738Y-77835907D01*
X116461254Y-77842051D01*
X116474247Y-77996776D01*
X116477222Y-78032209D01*
X116531521Y-78221570D01*
X116621566Y-78396779D01*
X116625389Y-78401603D01*
X116625392Y-78401607D01*
X116722055Y-78523565D01*
X116743927Y-78551160D01*
X116748620Y-78555154D01*
X116748621Y-78555155D01*
X116866837Y-78655764D01*
X116893945Y-78678835D01*
X116899323Y-78681841D01*
X116899325Y-78681842D01*
X117035585Y-78757995D01*
X117065904Y-78774940D01*
X117253255Y-78835814D01*
X117448862Y-78859139D01*
X117454997Y-78858667D01*
X117454999Y-78858667D01*
X117514801Y-78854065D01*
X117645274Y-78844026D01*
X117835009Y-78791050D01*
X117840513Y-78788270D01*
X118005341Y-78705010D01*
X118005343Y-78705009D01*
X118010842Y-78702231D01*
X118166074Y-78580950D01*
X118170100Y-78576286D01*
X118170103Y-78576283D01*
X118280688Y-78448169D01*
X118340341Y-78409672D01*
X118376069Y-78404500D01*
X118868128Y-78404500D01*
X118936249Y-78424502D01*
X118957224Y-78441405D01*
X119608596Y-79092778D01*
X119642621Y-79155090D01*
X119645500Y-79181873D01*
X119645500Y-79788688D01*
X119625498Y-79856809D01*
X119571842Y-79903302D01*
X119501568Y-79913406D01*
X119436988Y-79883912D01*
X119412680Y-79854264D01*
X119412411Y-79854447D01*
X119374828Y-79799146D01*
X119375444Y-79798728D01*
X119374280Y-79797580D01*
X119374095Y-79797719D01*
X119373991Y-79797580D01*
X119373403Y-79796797D01*
X119373203Y-79796518D01*
X119373166Y-79796481D01*
X119371607Y-79794405D01*
X119370191Y-79792321D01*
X119370102Y-79792180D01*
X119369965Y-79791989D01*
X119276329Y-79654207D01*
X119272852Y-79650530D01*
X119272847Y-79650524D01*
X119227863Y-79602956D01*
X119228416Y-79602433D01*
X119226399Y-79601006D01*
X119225917Y-79600364D01*
X119222191Y-79596803D01*
X119221860Y-79596430D01*
X119218484Y-79593037D01*
X119113458Y-79481977D01*
X119113457Y-79481976D01*
X119109982Y-79478301D01*
X119105965Y-79475230D01*
X119105962Y-79475227D01*
X119051422Y-79433528D01*
X119050916Y-79433130D01*
X119047532Y-79429896D01*
X119043260Y-79426982D01*
X119042355Y-79426364D01*
X119036834Y-79422374D01*
X118921673Y-79334326D01*
X118921662Y-79334319D01*
X118917652Y-79331253D01*
X118853214Y-79296702D01*
X118850579Y-79295246D01*
X118847971Y-79293764D01*
X118843700Y-79290851D01*
X118839014Y-79288676D01*
X118839011Y-79288674D01*
X118836573Y-79287542D01*
X118830081Y-79284298D01*
X118797528Y-79266843D01*
X118704285Y-79216847D01*
X118632913Y-79192272D01*
X118629457Y-79190879D01*
X118629439Y-79190929D01*
X118624597Y-79189147D01*
X118619896Y-79186965D01*
X118611277Y-79184575D01*
X118603964Y-79182303D01*
X118475371Y-79138025D01*
X118470382Y-79137163D01*
X118470381Y-79137163D01*
X118396855Y-79124463D01*
X118391012Y-79123152D01*
X118387112Y-79122408D01*
X118382129Y-79121026D01*
X118372597Y-79120007D01*
X118364572Y-79118887D01*
X118236800Y-79096817D01*
X118232839Y-79096637D01*
X118232838Y-79096637D01*
X118209216Y-79095564D01*
X118209197Y-79095564D01*
X118207797Y-79095500D01*
X118039159Y-79095500D01*
X118036651Y-79095702D01*
X118036646Y-79095702D01*
X117863717Y-79109615D01*
X117863712Y-79109616D01*
X117858676Y-79110021D01*
X117853768Y-79111226D01*
X117853765Y-79111227D01*
X117628475Y-79166564D01*
X117623561Y-79167771D01*
X117618909Y-79169746D01*
X117618905Y-79169747D01*
X117502308Y-79219240D01*
X117400703Y-79262369D01*
X117195837Y-79391380D01*
X117014232Y-79551486D01*
X116860561Y-79738568D01*
X116829494Y-79791947D01*
X116746507Y-79934533D01*
X116738778Y-79947812D01*
X116736965Y-79952535D01*
X116667225Y-80134215D01*
X116652016Y-80173835D01*
X116602507Y-80410823D01*
X116591524Y-80652677D01*
X116592105Y-80657697D01*
X116592105Y-80657701D01*
X116602243Y-80745319D01*
X116619351Y-80893176D01*
X116620730Y-80898050D01*
X116620731Y-80898054D01*
X116660162Y-81037401D01*
X116685271Y-81126133D01*
X116687406Y-81130712D01*
X116687407Y-81130714D01*
X116741849Y-81247465D01*
X116787589Y-81345553D01*
X116790430Y-81349734D01*
X116790431Y-81349735D01*
X116825172Y-81400854D01*
X116824556Y-81401272D01*
X116825720Y-81402420D01*
X116825905Y-81402281D01*
X116825935Y-81402321D01*
X116826597Y-81403203D01*
X116826797Y-81403482D01*
X116826834Y-81403519D01*
X116828393Y-81405595D01*
X116829809Y-81407679D01*
X116829898Y-81407820D01*
X116830035Y-81408011D01*
X116923671Y-81545793D01*
X116927148Y-81549470D01*
X116927153Y-81549476D01*
X116972137Y-81597044D01*
X116971584Y-81597567D01*
X116973601Y-81598994D01*
X116974083Y-81599636D01*
X116977809Y-81603197D01*
X116978140Y-81603570D01*
X116981516Y-81606963D01*
X117023972Y-81651858D01*
X117090018Y-81721699D01*
X117094035Y-81724770D01*
X117094038Y-81724773D01*
X117148578Y-81766472D01*
X117149084Y-81766870D01*
X117152468Y-81770104D01*
X117156740Y-81773018D01*
X117157645Y-81773636D01*
X117163166Y-81777626D01*
X117278327Y-81865674D01*
X117278338Y-81865681D01*
X117282348Y-81868747D01*
X117346786Y-81903298D01*
X117349421Y-81904754D01*
X117352029Y-81906236D01*
X117356300Y-81909149D01*
X117360986Y-81911324D01*
X117360989Y-81911326D01*
X117363427Y-81912458D01*
X117369912Y-81915699D01*
X117495715Y-81983153D01*
X117500500Y-81984801D01*
X117500501Y-81984801D01*
X117567084Y-82007727D01*
X117570543Y-82009121D01*
X117570561Y-82009071D01*
X117575403Y-82010853D01*
X117580104Y-82013035D01*
X117588723Y-82015425D01*
X117596036Y-82017697D01*
X117724629Y-82061975D01*
X117729618Y-82062837D01*
X117729619Y-82062837D01*
X117803145Y-82075537D01*
X117808988Y-82076848D01*
X117812888Y-82077592D01*
X117817871Y-82078974D01*
X117827403Y-82079993D01*
X117835428Y-82081113D01*
X117963200Y-82103183D01*
X117967161Y-82103363D01*
X117967162Y-82103363D01*
X117990784Y-82104436D01*
X117990803Y-82104436D01*
X117992203Y-82104500D01*
X118160841Y-82104500D01*
X118163349Y-82104298D01*
X118163354Y-82104298D01*
X118336283Y-82090385D01*
X118336288Y-82090384D01*
X118341324Y-82089979D01*
X118346232Y-82088774D01*
X118346235Y-82088773D01*
X118571525Y-82033436D01*
X118576439Y-82032229D01*
X118581091Y-82030254D01*
X118581095Y-82030253D01*
X118794642Y-81939607D01*
X118794643Y-81939607D01*
X118799297Y-81937631D01*
X119004163Y-81808620D01*
X119185768Y-81648514D01*
X119339439Y-81461432D01*
X119341984Y-81457060D01*
X119341987Y-81457055D01*
X119410602Y-81339164D01*
X119462155Y-81290351D01*
X119531915Y-81277158D01*
X119597733Y-81303775D01*
X119638713Y-81361751D01*
X119645500Y-81402545D01*
X119645500Y-87006763D01*
X119625498Y-87074884D01*
X119571842Y-87121377D01*
X119563731Y-87124744D01*
X119563642Y-87124777D01*
X119563638Y-87124779D01*
X119555236Y-87127929D01*
X119548057Y-87133309D01*
X119548054Y-87133311D01*
X119498120Y-87170735D01*
X119439596Y-87214596D01*
X119434215Y-87221776D01*
X119358311Y-87323054D01*
X119358309Y-87323057D01*
X119352929Y-87330236D01*
X119302202Y-87465552D01*
X119295500Y-87527244D01*
X119295500Y-88872756D01*
X119302202Y-88934448D01*
X119352929Y-89069764D01*
X119358309Y-89076943D01*
X119358311Y-89076946D01*
X119379787Y-89105601D01*
X119439596Y-89185404D01*
X119446776Y-89190785D01*
X119548054Y-89266689D01*
X119548057Y-89266691D01*
X119555236Y-89272071D01*
X119642931Y-89304946D01*
X119683157Y-89320026D01*
X119683159Y-89320026D01*
X119690552Y-89322798D01*
X119698402Y-89323651D01*
X119698403Y-89323651D01*
X119748083Y-89329048D01*
X119752244Y-89329500D01*
X120647756Y-89329500D01*
X120651917Y-89329048D01*
X120701597Y-89323651D01*
X120701598Y-89323651D01*
X120709448Y-89322798D01*
X120716841Y-89320026D01*
X120716843Y-89320026D01*
X120757069Y-89304946D01*
X120844764Y-89272071D01*
X120851943Y-89266691D01*
X120851946Y-89266689D01*
X120953224Y-89190785D01*
X120960404Y-89185404D01*
X121020213Y-89105601D01*
X121041689Y-89076946D01*
X121041691Y-89076943D01*
X121047071Y-89069764D01*
X121097798Y-88934448D01*
X121104500Y-88872756D01*
X121104500Y-87527244D01*
X121097798Y-87465552D01*
X121047071Y-87330236D01*
X121041691Y-87323057D01*
X121041689Y-87323054D01*
X120965785Y-87221776D01*
X120960404Y-87214596D01*
X120901880Y-87170735D01*
X120851946Y-87133311D01*
X120851943Y-87133309D01*
X120844764Y-87127929D01*
X120836362Y-87124779D01*
X120836358Y-87124777D01*
X120836269Y-87124744D01*
X120836194Y-87124687D01*
X120828485Y-87120467D01*
X120829094Y-87119354D01*
X120779505Y-87082102D01*
X120754806Y-87015540D01*
X120754500Y-87006763D01*
X120754500Y-80652677D01*
X124591524Y-80652677D01*
X124592105Y-80657697D01*
X124592105Y-80657701D01*
X124602243Y-80745319D01*
X124619351Y-80893176D01*
X124620730Y-80898050D01*
X124620731Y-80898054D01*
X124660162Y-81037401D01*
X124685271Y-81126133D01*
X124687406Y-81130712D01*
X124687407Y-81130714D01*
X124741849Y-81247465D01*
X124787589Y-81345553D01*
X124790430Y-81349734D01*
X124790431Y-81349735D01*
X124825172Y-81400854D01*
X124824556Y-81401272D01*
X124825720Y-81402420D01*
X124825905Y-81402281D01*
X124825935Y-81402321D01*
X124826597Y-81403203D01*
X124826797Y-81403482D01*
X124826834Y-81403519D01*
X124828393Y-81405595D01*
X124829809Y-81407679D01*
X124829898Y-81407820D01*
X124830035Y-81408011D01*
X124923671Y-81545793D01*
X124927148Y-81549470D01*
X124927153Y-81549476D01*
X124972137Y-81597044D01*
X124971584Y-81597567D01*
X124973601Y-81598994D01*
X124974083Y-81599636D01*
X124977809Y-81603197D01*
X124978140Y-81603570D01*
X124981516Y-81606963D01*
X125023972Y-81651858D01*
X125090018Y-81721699D01*
X125094035Y-81724770D01*
X125094038Y-81724773D01*
X125148578Y-81766472D01*
X125149084Y-81766870D01*
X125152468Y-81770104D01*
X125156740Y-81773018D01*
X125157645Y-81773636D01*
X125163166Y-81777626D01*
X125278327Y-81865674D01*
X125278338Y-81865681D01*
X125282348Y-81868747D01*
X125346786Y-81903298D01*
X125349421Y-81904754D01*
X125352029Y-81906236D01*
X125356300Y-81909149D01*
X125360986Y-81911324D01*
X125360989Y-81911326D01*
X125363427Y-81912458D01*
X125369912Y-81915699D01*
X125495715Y-81983153D01*
X125500500Y-81984801D01*
X125500501Y-81984801D01*
X125567084Y-82007727D01*
X125570543Y-82009121D01*
X125570561Y-82009071D01*
X125575403Y-82010853D01*
X125580104Y-82013035D01*
X125588723Y-82015425D01*
X125596036Y-82017697D01*
X125724629Y-82061975D01*
X125729618Y-82062837D01*
X125729619Y-82062837D01*
X125803145Y-82075537D01*
X125808988Y-82076848D01*
X125812888Y-82077592D01*
X125817871Y-82078974D01*
X125827403Y-82079993D01*
X125835428Y-82081113D01*
X125963200Y-82103183D01*
X125967161Y-82103363D01*
X125967162Y-82103363D01*
X125990784Y-82104436D01*
X125990803Y-82104436D01*
X125992203Y-82104500D01*
X126160841Y-82104500D01*
X126163349Y-82104298D01*
X126163354Y-82104298D01*
X126336283Y-82090385D01*
X126336288Y-82090384D01*
X126341324Y-82089979D01*
X126346232Y-82088774D01*
X126346235Y-82088773D01*
X126571525Y-82033436D01*
X126576439Y-82032229D01*
X126581091Y-82030254D01*
X126581095Y-82030253D01*
X126794642Y-81939607D01*
X126794643Y-81939607D01*
X126799297Y-81937631D01*
X127004163Y-81808620D01*
X127185768Y-81648514D01*
X127339439Y-81461432D01*
X127439011Y-81290351D01*
X127458680Y-81256556D01*
X127458681Y-81256554D01*
X127461222Y-81252188D01*
X127499835Y-81151597D01*
X127546169Y-81030894D01*
X127546170Y-81030891D01*
X127547984Y-81026165D01*
X127597493Y-80789177D01*
X127598762Y-80761250D01*
X127602728Y-80673888D01*
X127603691Y-80652677D01*
X128391524Y-80652677D01*
X128392105Y-80657697D01*
X128392105Y-80657701D01*
X128402243Y-80745319D01*
X128419351Y-80893176D01*
X128420730Y-80898050D01*
X128420731Y-80898054D01*
X128460162Y-81037401D01*
X128485271Y-81126133D01*
X128487406Y-81130712D01*
X128487407Y-81130714D01*
X128541849Y-81247465D01*
X128587589Y-81345553D01*
X128590430Y-81349734D01*
X128590431Y-81349735D01*
X128625172Y-81400854D01*
X128624556Y-81401272D01*
X128625720Y-81402420D01*
X128625905Y-81402281D01*
X128625935Y-81402321D01*
X128626597Y-81403203D01*
X128626797Y-81403482D01*
X128626834Y-81403519D01*
X128628393Y-81405595D01*
X128629809Y-81407679D01*
X128629898Y-81407820D01*
X128630035Y-81408011D01*
X128723671Y-81545793D01*
X128727148Y-81549470D01*
X128727153Y-81549476D01*
X128772137Y-81597044D01*
X128771584Y-81597567D01*
X128773601Y-81598994D01*
X128774083Y-81599636D01*
X128777809Y-81603197D01*
X128778140Y-81603570D01*
X128781516Y-81606963D01*
X128823972Y-81651858D01*
X128890018Y-81721699D01*
X128894035Y-81724770D01*
X128894038Y-81724773D01*
X128948578Y-81766472D01*
X128949084Y-81766870D01*
X128952468Y-81770104D01*
X128956740Y-81773018D01*
X128957645Y-81773636D01*
X128963166Y-81777626D01*
X129078327Y-81865674D01*
X129078338Y-81865681D01*
X129082348Y-81868747D01*
X129146786Y-81903298D01*
X129149421Y-81904754D01*
X129152029Y-81906236D01*
X129156300Y-81909149D01*
X129160986Y-81911324D01*
X129160989Y-81911326D01*
X129163427Y-81912458D01*
X129169912Y-81915699D01*
X129295715Y-81983153D01*
X129300500Y-81984801D01*
X129300501Y-81984801D01*
X129367084Y-82007727D01*
X129370543Y-82009121D01*
X129370561Y-82009071D01*
X129375403Y-82010853D01*
X129380104Y-82013035D01*
X129388723Y-82015425D01*
X129396036Y-82017697D01*
X129524629Y-82061975D01*
X129529618Y-82062837D01*
X129529619Y-82062837D01*
X129603145Y-82075537D01*
X129608988Y-82076848D01*
X129612888Y-82077592D01*
X129617871Y-82078974D01*
X129627403Y-82079993D01*
X129635428Y-82081113D01*
X129763200Y-82103183D01*
X129767161Y-82103363D01*
X129767162Y-82103363D01*
X129790784Y-82104436D01*
X129790803Y-82104436D01*
X129792203Y-82104500D01*
X129960841Y-82104500D01*
X129963349Y-82104298D01*
X129963354Y-82104298D01*
X130136283Y-82090385D01*
X130136288Y-82090384D01*
X130141324Y-82089979D01*
X130146232Y-82088774D01*
X130146235Y-82088773D01*
X130371525Y-82033436D01*
X130376439Y-82032229D01*
X130381091Y-82030254D01*
X130381095Y-82030253D01*
X130594642Y-81939607D01*
X130594643Y-81939607D01*
X130599297Y-81937631D01*
X130804163Y-81808620D01*
X130985768Y-81648514D01*
X131139439Y-81461432D01*
X131239011Y-81290351D01*
X131258680Y-81256556D01*
X131258681Y-81256554D01*
X131261222Y-81252188D01*
X131299835Y-81151597D01*
X131346169Y-81030894D01*
X131346170Y-81030891D01*
X131347984Y-81026165D01*
X131397493Y-80789177D01*
X131398762Y-80761250D01*
X131402728Y-80673888D01*
X131408476Y-80547323D01*
X131380649Y-80306824D01*
X131368455Y-80263729D01*
X131316107Y-80078736D01*
X131316106Y-80078734D01*
X131314729Y-80073867D01*
X131304966Y-80052929D01*
X131214548Y-79859030D01*
X131212411Y-79854447D01*
X131188946Y-79819919D01*
X131174828Y-79799146D01*
X131175444Y-79798728D01*
X131174280Y-79797580D01*
X131174095Y-79797719D01*
X131173991Y-79797580D01*
X131173403Y-79796797D01*
X131173203Y-79796518D01*
X131173166Y-79796481D01*
X131171607Y-79794405D01*
X131170191Y-79792321D01*
X131170102Y-79792180D01*
X131169965Y-79791989D01*
X131076329Y-79654207D01*
X131072852Y-79650530D01*
X131072847Y-79650524D01*
X131027863Y-79602956D01*
X131028416Y-79602433D01*
X131026399Y-79601006D01*
X131025917Y-79600364D01*
X131022191Y-79596803D01*
X131021860Y-79596430D01*
X131018484Y-79593037D01*
X130913458Y-79481977D01*
X130913457Y-79481976D01*
X130909982Y-79478301D01*
X130905965Y-79475230D01*
X130905962Y-79475227D01*
X130851422Y-79433528D01*
X130850916Y-79433130D01*
X130847532Y-79429896D01*
X130843260Y-79426982D01*
X130842355Y-79426364D01*
X130836834Y-79422374D01*
X130721673Y-79334326D01*
X130721662Y-79334319D01*
X130717652Y-79331253D01*
X130653214Y-79296702D01*
X130650579Y-79295246D01*
X130647971Y-79293764D01*
X130643700Y-79290851D01*
X130639014Y-79288676D01*
X130639011Y-79288674D01*
X130636573Y-79287542D01*
X130630081Y-79284298D01*
X130597528Y-79266843D01*
X130504285Y-79216847D01*
X130432913Y-79192272D01*
X130429457Y-79190879D01*
X130429439Y-79190929D01*
X130424597Y-79189147D01*
X130419896Y-79186965D01*
X130411277Y-79184575D01*
X130403964Y-79182303D01*
X130275371Y-79138025D01*
X130270382Y-79137163D01*
X130270381Y-79137163D01*
X130196855Y-79124463D01*
X130191012Y-79123152D01*
X130187112Y-79122408D01*
X130182129Y-79121026D01*
X130172597Y-79120007D01*
X130164572Y-79118887D01*
X130036800Y-79096817D01*
X130032839Y-79096637D01*
X130032838Y-79096637D01*
X130009216Y-79095564D01*
X130009197Y-79095564D01*
X130007797Y-79095500D01*
X129839159Y-79095500D01*
X129836651Y-79095702D01*
X129836646Y-79095702D01*
X129663717Y-79109615D01*
X129663712Y-79109616D01*
X129658676Y-79110021D01*
X129653768Y-79111226D01*
X129653765Y-79111227D01*
X129428475Y-79166564D01*
X129423561Y-79167771D01*
X129418909Y-79169746D01*
X129418905Y-79169747D01*
X129302308Y-79219240D01*
X129200703Y-79262369D01*
X128995837Y-79391380D01*
X128814232Y-79551486D01*
X128660561Y-79738568D01*
X128629494Y-79791947D01*
X128546507Y-79934533D01*
X128538778Y-79947812D01*
X128536965Y-79952535D01*
X128467225Y-80134215D01*
X128452016Y-80173835D01*
X128402507Y-80410823D01*
X128391524Y-80652677D01*
X127603691Y-80652677D01*
X127608476Y-80547323D01*
X127580649Y-80306824D01*
X127568455Y-80263729D01*
X127516107Y-80078736D01*
X127516106Y-80078734D01*
X127514729Y-80073867D01*
X127504966Y-80052929D01*
X127414548Y-79859030D01*
X127412411Y-79854447D01*
X127388946Y-79819919D01*
X127374828Y-79799146D01*
X127375444Y-79798728D01*
X127374280Y-79797580D01*
X127374095Y-79797719D01*
X127373991Y-79797580D01*
X127373403Y-79796797D01*
X127373203Y-79796518D01*
X127373166Y-79796481D01*
X127371607Y-79794405D01*
X127370191Y-79792321D01*
X127370102Y-79792180D01*
X127369965Y-79791989D01*
X127276329Y-79654207D01*
X127272852Y-79650530D01*
X127272847Y-79650524D01*
X127227863Y-79602956D01*
X127228416Y-79602433D01*
X127226399Y-79601006D01*
X127225917Y-79600364D01*
X127222191Y-79596803D01*
X127221860Y-79596430D01*
X127218484Y-79593037D01*
X127113458Y-79481977D01*
X127113457Y-79481976D01*
X127109982Y-79478301D01*
X127105965Y-79475230D01*
X127105962Y-79475227D01*
X127051422Y-79433528D01*
X127050916Y-79433130D01*
X127047532Y-79429896D01*
X127043260Y-79426982D01*
X127042355Y-79426364D01*
X127036834Y-79422374D01*
X126921673Y-79334326D01*
X126921662Y-79334319D01*
X126917652Y-79331253D01*
X126853214Y-79296702D01*
X126850579Y-79295246D01*
X126847971Y-79293764D01*
X126843700Y-79290851D01*
X126839014Y-79288676D01*
X126839011Y-79288674D01*
X126836573Y-79287542D01*
X126830081Y-79284298D01*
X126797528Y-79266843D01*
X126704285Y-79216847D01*
X126632913Y-79192272D01*
X126629457Y-79190879D01*
X126629439Y-79190929D01*
X126624597Y-79189147D01*
X126619896Y-79186965D01*
X126611277Y-79184575D01*
X126603964Y-79182303D01*
X126475371Y-79138025D01*
X126470382Y-79137163D01*
X126470381Y-79137163D01*
X126396855Y-79124463D01*
X126391012Y-79123152D01*
X126387112Y-79122408D01*
X126382129Y-79121026D01*
X126372597Y-79120007D01*
X126364572Y-79118887D01*
X126236800Y-79096817D01*
X126232839Y-79096637D01*
X126232838Y-79096637D01*
X126209216Y-79095564D01*
X126209197Y-79095564D01*
X126207797Y-79095500D01*
X126039159Y-79095500D01*
X126036651Y-79095702D01*
X126036646Y-79095702D01*
X125863717Y-79109615D01*
X125863712Y-79109616D01*
X125858676Y-79110021D01*
X125853768Y-79111226D01*
X125853765Y-79111227D01*
X125628475Y-79166564D01*
X125623561Y-79167771D01*
X125618909Y-79169746D01*
X125618905Y-79169747D01*
X125502308Y-79219240D01*
X125400703Y-79262369D01*
X125195837Y-79391380D01*
X125014232Y-79551486D01*
X124860561Y-79738568D01*
X124829494Y-79791947D01*
X124746507Y-79934533D01*
X124738778Y-79947812D01*
X124736965Y-79952535D01*
X124667225Y-80134215D01*
X124652016Y-80173835D01*
X124602507Y-80410823D01*
X124591524Y-80652677D01*
X120754500Y-80652677D01*
X120754500Y-78915074D01*
X120754610Y-78909798D01*
X120756733Y-78859139D01*
X120757228Y-78847326D01*
X120747212Y-78804622D01*
X120745049Y-78792949D01*
X120740261Y-78757995D01*
X120739095Y-78749482D01*
X120733047Y-78735506D01*
X120726013Y-78714237D01*
X120724498Y-78707778D01*
X120722537Y-78699417D01*
X120701397Y-78660963D01*
X120696182Y-78650317D01*
X120682170Y-78617937D01*
X120682168Y-78617933D01*
X120678758Y-78610054D01*
X120669179Y-78598225D01*
X120656688Y-78579637D01*
X120649348Y-78566285D01*
X120642290Y-78558109D01*
X120617547Y-78533366D01*
X120608721Y-78523565D01*
X120588556Y-78498662D01*
X120588553Y-78498659D01*
X120583150Y-78491987D01*
X120567636Y-78480962D01*
X120551536Y-78467355D01*
X119552768Y-77468587D01*
X119549115Y-77464779D01*
X119512584Y-77425052D01*
X119512583Y-77425051D01*
X119506774Y-77418734D01*
X119469494Y-77395619D01*
X119459712Y-77388896D01*
X119431605Y-77367562D01*
X119431606Y-77367562D01*
X119424765Y-77362370D01*
X119415053Y-77358525D01*
X119410604Y-77356763D01*
X119390598Y-77346700D01*
X119384963Y-77343206D01*
X119384954Y-77343202D01*
X119377656Y-77338677D01*
X119335521Y-77326435D01*
X119324298Y-77322593D01*
X119283510Y-77306444D01*
X119269902Y-77305013D01*
X119268367Y-77304852D01*
X119246394Y-77300541D01*
X119231765Y-77296291D01*
X119220993Y-77295500D01*
X119185995Y-77295500D01*
X119172824Y-77294810D01*
X119162607Y-77293736D01*
X119158773Y-77293333D01*
X119140963Y-77291461D01*
X119132419Y-77290563D01*
X119113654Y-77293737D01*
X119092652Y-77295500D01*
X118373866Y-77295500D01*
X118305745Y-77275498D01*
X118276223Y-77249135D01*
X118244162Y-77209824D01*
X118186212Y-77138770D01*
X118118641Y-77082871D01*
X118039177Y-77017132D01*
X118039174Y-77017130D01*
X118034427Y-77013203D01*
X117861143Y-76919508D01*
X117672960Y-76861256D01*
X117666835Y-76860612D01*
X117666834Y-76860612D01*
X117483176Y-76841309D01*
X117483174Y-76841309D01*
X117477047Y-76840665D01*
X117396322Y-76848012D01*
X117326670Y-76834267D01*
X117295808Y-76811626D01*
X114171405Y-73687224D01*
X114137379Y-73624912D01*
X114134500Y-73598129D01*
X114134500Y-73429313D01*
X114154502Y-73361192D01*
X114198937Y-73319377D01*
X114203234Y-73316971D01*
X114203236Y-73316969D01*
X114208276Y-73314147D01*
X114364345Y-73184345D01*
X114441643Y-73091405D01*
X114490453Y-73032718D01*
X114490455Y-73032715D01*
X114494147Y-73028276D01*
X114593334Y-72851165D01*
X114595190Y-72845698D01*
X114595192Y-72845693D01*
X114656728Y-72664414D01*
X114656729Y-72664409D01*
X114658584Y-72658945D01*
X114659412Y-72653236D01*
X114659413Y-72653231D01*
X114678132Y-72524125D01*
X114687712Y-72458053D01*
X114689232Y-72400000D01*
X114672702Y-72220100D01*
X114671187Y-72203613D01*
X114671186Y-72203610D01*
X114670658Y-72197859D01*
X114668059Y-72188642D01*
X114617125Y-72008046D01*
X114617124Y-72008044D01*
X114615557Y-72002487D01*
X114612704Y-71996700D01*
X114528331Y-71825609D01*
X114528330Y-71825608D01*
X114525776Y-71820428D01*
X114522320Y-71815799D01*
X114432233Y-71695159D01*
X114404320Y-71657779D01*
X114255258Y-71519987D01*
X114250375Y-71516906D01*
X114250371Y-71516903D01*
X114088464Y-71414748D01*
X114083581Y-71411667D01*
X113895039Y-71336446D01*
X113889379Y-71335320D01*
X113889375Y-71335319D01*
X113701613Y-71297971D01*
X113701610Y-71297971D01*
X113695946Y-71296844D01*
X113690171Y-71296768D01*
X113690167Y-71296768D01*
X113588793Y-71295441D01*
X113492971Y-71294187D01*
X113487274Y-71295166D01*
X113487273Y-71295166D01*
X113399397Y-71310266D01*
X113292910Y-71328564D01*
X113102463Y-71398824D01*
X112928010Y-71502612D01*
X112923670Y-71506418D01*
X112923666Y-71506421D01*
X112817075Y-71599900D01*
X112775392Y-71636455D01*
X112649720Y-71795869D01*
X112647031Y-71800980D01*
X112647029Y-71800983D01*
X112611868Y-71867814D01*
X112555203Y-71975515D01*
X112495007Y-72169378D01*
X112471148Y-72370964D01*
X112146564Y-72370964D01*
X112132702Y-72220100D01*
X112131187Y-72203613D01*
X112131186Y-72203610D01*
X112130658Y-72197859D01*
X112128059Y-72188642D01*
X112077125Y-72008046D01*
X112077124Y-72008044D01*
X112075557Y-72002487D01*
X112072704Y-71996700D01*
X111988331Y-71825609D01*
X111988330Y-71825608D01*
X111985776Y-71820428D01*
X111982320Y-71815799D01*
X111892233Y-71695159D01*
X111864320Y-71657779D01*
X111715258Y-71519987D01*
X111710375Y-71516906D01*
X111710371Y-71516903D01*
X111548464Y-71414748D01*
X111543581Y-71411667D01*
X111355039Y-71336446D01*
X111349379Y-71335320D01*
X111349375Y-71335319D01*
X111161613Y-71297971D01*
X111161610Y-71297971D01*
X111155946Y-71296844D01*
X111150171Y-71296768D01*
X111150167Y-71296768D01*
X111048793Y-71295441D01*
X110952971Y-71294187D01*
X110947274Y-71295166D01*
X110947273Y-71295166D01*
X110859397Y-71310266D01*
X110752910Y-71328564D01*
X110562463Y-71398824D01*
X110388010Y-71502612D01*
X110383670Y-71506418D01*
X110383666Y-71506421D01*
X110277075Y-71599900D01*
X110235392Y-71636455D01*
X110109720Y-71795869D01*
X110107031Y-71800980D01*
X110107029Y-71800983D01*
X110071868Y-71867814D01*
X110015203Y-71975515D01*
X109955007Y-72169378D01*
X109931148Y-72370964D01*
X109944424Y-72573522D01*
X109945845Y-72579118D01*
X109945846Y-72579123D01*
X109964973Y-72654433D01*
X109994392Y-72770269D01*
X109996809Y-72775512D01*
X110034010Y-72856208D01*
X110079377Y-72954616D01*
X110093431Y-72974502D01*
X110191638Y-73113462D01*
X110196533Y-73120389D01*
X110341938Y-73262035D01*
X110429503Y-73320544D01*
X110475029Y-73375019D01*
X110485500Y-73425308D01*
X110485500Y-73578127D01*
X110465498Y-73646248D01*
X110448596Y-73667222D01*
X110207224Y-73908595D01*
X110144911Y-73942620D01*
X110118128Y-73945500D01*
X107515065Y-73945500D01*
X107509789Y-73945389D01*
X107506486Y-73945251D01*
X107447326Y-73942771D01*
X107438964Y-73944732D01*
X107436756Y-73944941D01*
X107424901Y-73945500D01*
X100115074Y-73945500D01*
X100109798Y-73945390D01*
X100109774Y-73945389D01*
X100047326Y-73942772D01*
X100038961Y-73944734D01*
X100004622Y-73952788D01*
X99992948Y-73954951D01*
X99949482Y-73960905D01*
X99936767Y-73966407D01*
X99935506Y-73966953D01*
X99914237Y-73973987D01*
X99899417Y-73977463D01*
X99860963Y-73998603D01*
X99850317Y-74003818D01*
X99817937Y-74017830D01*
X99817933Y-74017832D01*
X99810054Y-74021242D01*
X99803381Y-74026646D01*
X99803379Y-74026647D01*
X99798225Y-74030821D01*
X99779637Y-74043312D01*
X99766285Y-74050652D01*
X99761281Y-74054972D01*
X99759860Y-74056198D01*
X99759853Y-74056204D01*
X99758109Y-74057710D01*
X99733366Y-74082453D01*
X99723565Y-74091279D01*
X99698662Y-74111444D01*
X99698659Y-74111447D01*
X99691987Y-74116850D01*
X99680962Y-74132364D01*
X99667355Y-74148464D01*
X99318587Y-74497232D01*
X99314779Y-74500885D01*
X99302422Y-74512248D01*
X99238740Y-74543634D01*
X99217135Y-74545500D01*
X99027244Y-74545500D01*
X99023848Y-74545869D01*
X99023847Y-74545869D01*
X98973403Y-74551349D01*
X98973402Y-74551349D01*
X98965552Y-74552202D01*
X98958159Y-74554974D01*
X98958157Y-74554974D01*
X98936716Y-74563012D01*
X98830236Y-74602929D01*
X98823057Y-74608309D01*
X98823054Y-74608311D01*
X98735023Y-74674287D01*
X98714596Y-74689596D01*
X98709215Y-74696776D01*
X98633311Y-74798054D01*
X98633309Y-74798057D01*
X98627929Y-74805236D01*
X98610572Y-74851536D01*
X98580558Y-74931601D01*
X98577202Y-74940552D01*
X98576349Y-74948402D01*
X98576349Y-74948403D01*
X98570955Y-74998054D01*
X98570500Y-75002244D01*
X98570500Y-75897756D01*
X97129500Y-75897756D01*
X97129500Y-75002244D01*
X97129045Y-74998054D01*
X97123651Y-74948403D01*
X97123651Y-74948402D01*
X97122798Y-74940552D01*
X97119443Y-74931601D01*
X97089428Y-74851536D01*
X97072071Y-74805236D01*
X97066691Y-74798057D01*
X97066689Y-74798054D01*
X96990785Y-74696776D01*
X96985404Y-74689596D01*
X96964977Y-74674287D01*
X96876946Y-74608311D01*
X96876943Y-74608309D01*
X96869764Y-74602929D01*
X96763284Y-74563012D01*
X96741843Y-74554974D01*
X96741841Y-74554974D01*
X96734448Y-74552202D01*
X96726598Y-74551349D01*
X96726597Y-74551349D01*
X96718286Y-74550446D01*
X96672756Y-74545500D01*
X96672766Y-74545412D01*
X96606739Y-74522073D01*
X96563220Y-74465978D01*
X96554500Y-74419919D01*
X96554500Y-74281871D01*
X96574502Y-74213750D01*
X96591405Y-74192776D01*
X97792776Y-72991405D01*
X97855088Y-72957379D01*
X97881871Y-72954500D01*
X107269501Y-72954500D01*
X107337622Y-72974502D01*
X107384115Y-73028158D01*
X107395501Y-73080500D01*
X107395501Y-73275066D01*
X107410266Y-73349301D01*
X107417161Y-73359620D01*
X107417162Y-73359622D01*
X107427312Y-73374812D01*
X107466516Y-73433484D01*
X107476832Y-73440377D01*
X107534686Y-73479034D01*
X107550699Y-73489734D01*
X107624933Y-73504500D01*
X108499858Y-73504500D01*
X109375066Y-73504499D01*
X109410818Y-73497388D01*
X109437126Y-73492156D01*
X109437128Y-73492155D01*
X109449301Y-73489734D01*
X109459621Y-73482839D01*
X109459622Y-73482838D01*
X109523168Y-73440377D01*
X109533484Y-73433484D01*
X109589734Y-73349301D01*
X109604500Y-73275067D01*
X109604499Y-71524934D01*
X109589734Y-71450699D01*
X109563654Y-71411667D01*
X109540377Y-71376832D01*
X109533484Y-71366516D01*
X109449301Y-71310266D01*
X109375067Y-71295500D01*
X108500142Y-71295500D01*
X107624934Y-71295501D01*
X107589182Y-71302612D01*
X107562874Y-71307844D01*
X107562872Y-71307845D01*
X107550699Y-71310266D01*
X107540379Y-71317161D01*
X107540378Y-71317162D01*
X107501829Y-71342920D01*
X107466516Y-71366516D01*
X107410266Y-71450699D01*
X107395500Y-71524933D01*
X107395500Y-71719500D01*
X107375498Y-71787621D01*
X107321842Y-71834114D01*
X107269500Y-71845500D01*
X97615098Y-71845500D01*
X97609822Y-71845390D01*
X97547326Y-71842771D01*
X97538964Y-71844732D01*
X97538957Y-71844733D01*
X97504613Y-71852789D01*
X97492960Y-71854950D01*
X97449482Y-71860905D01*
X97441595Y-71864318D01*
X97441592Y-71864319D01*
X97435505Y-71866953D01*
X97414242Y-71873986D01*
X97399417Y-71877463D01*
X97360963Y-71898603D01*
X97350317Y-71903818D01*
X97317937Y-71917830D01*
X97317933Y-71917832D01*
X97310054Y-71921242D01*
X97303381Y-71926646D01*
X97303379Y-71926647D01*
X97298225Y-71930821D01*
X97279637Y-71943312D01*
X97266285Y-71950652D01*
X97258109Y-71957709D01*
X97233361Y-71982457D01*
X97223560Y-71991283D01*
X97198661Y-72011445D01*
X97198659Y-72011447D01*
X97191987Y-72016850D01*
X97187013Y-72023849D01*
X97187012Y-72023850D01*
X97180966Y-72032358D01*
X97167355Y-72048463D01*
X95618586Y-73597233D01*
X95614778Y-73600886D01*
X95568734Y-73643226D01*
X95564211Y-73650521D01*
X95564210Y-73650522D01*
X95545619Y-73680506D01*
X95538896Y-73690288D01*
X95512370Y-73725235D01*
X95509209Y-73733219D01*
X95506763Y-73739396D01*
X95496700Y-73759402D01*
X95493206Y-73765037D01*
X95493202Y-73765046D01*
X95488677Y-73772344D01*
X95486281Y-73780591D01*
X95476435Y-73814480D01*
X95472593Y-73825702D01*
X95456444Y-73866490D01*
X95455546Y-73875035D01*
X95454852Y-73881633D01*
X95450541Y-73903605D01*
X95446291Y-73918235D01*
X95445500Y-73929007D01*
X95445500Y-73964005D01*
X95444810Y-73977176D01*
X95442559Y-73998596D01*
X95440563Y-74017581D01*
X95443737Y-74036346D01*
X95445500Y-74057348D01*
X95445500Y-74419919D01*
X95425498Y-74488040D01*
X95371842Y-74534533D01*
X95327274Y-74545500D01*
X95327244Y-74545500D01*
X95281714Y-74550446D01*
X95273403Y-74551349D01*
X95273402Y-74551349D01*
X95265552Y-74552202D01*
X95258159Y-74554974D01*
X95258157Y-74554974D01*
X95236716Y-74563012D01*
X95130236Y-74602929D01*
X95123057Y-74608309D01*
X95123054Y-74608311D01*
X95035023Y-74674287D01*
X95014596Y-74689596D01*
X95009215Y-74696776D01*
X94933311Y-74798054D01*
X94933309Y-74798057D01*
X94927929Y-74805236D01*
X94924779Y-74813638D01*
X94920467Y-74821515D01*
X94919044Y-74820736D01*
X94882538Y-74869332D01*
X94821247Y-74892935D01*
X94817327Y-74892771D01*
X94808972Y-74894731D01*
X94808968Y-74894731D01*
X94774621Y-74902787D01*
X94762951Y-74904950D01*
X94719482Y-74910905D01*
X94711602Y-74914315D01*
X94705506Y-74916953D01*
X94684237Y-74923987D01*
X94669417Y-74927463D01*
X94661892Y-74931600D01*
X94661889Y-74931601D01*
X94630969Y-74948600D01*
X94620308Y-74953822D01*
X94580054Y-74971242D01*
X94568220Y-74980825D01*
X94549633Y-74993314D01*
X94536286Y-75000652D01*
X94528109Y-75007709D01*
X94503361Y-75032457D01*
X94493560Y-75041283D01*
X94468661Y-75061445D01*
X94468659Y-75061447D01*
X94461987Y-75066850D01*
X94457013Y-75073849D01*
X94457012Y-75073850D01*
X94450966Y-75082358D01*
X94437355Y-75098463D01*
X93562593Y-75973226D01*
X92716907Y-76818912D01*
X92654595Y-76852937D01*
X92614644Y-76855127D01*
X92477047Y-76840665D01*
X92396317Y-76848012D01*
X92287004Y-76857960D01*
X92287001Y-76857961D01*
X92280865Y-76858519D01*
X92274959Y-76860257D01*
X92274955Y-76860258D01*
X92145945Y-76898228D01*
X92091887Y-76914138D01*
X92086427Y-76916992D01*
X92086428Y-76916992D01*
X91922772Y-77002549D01*
X91922768Y-77002552D01*
X91917312Y-77005404D01*
X91912512Y-77009264D01*
X91912511Y-77009264D01*
X91802414Y-77097784D01*
X91763788Y-77128840D01*
X91637163Y-77279745D01*
X91628881Y-77294810D01*
X91557281Y-77425052D01*
X91542262Y-77452371D01*
X91540398Y-77458246D01*
X91540397Y-77458249D01*
X91505719Y-77567569D01*
X91482697Y-77640142D01*
X91460738Y-77835907D01*
X85389830Y-77835907D01*
X85389830Y-75991080D01*
X87991476Y-75991080D01*
X87992716Y-75998296D01*
X87992716Y-75998298D01*
X88015058Y-76128319D01*
X88021271Y-76164477D01*
X88090156Y-76326368D01*
X88194437Y-76468071D01*
X88328520Y-76581982D01*
X88372034Y-76604201D01*
X88478695Y-76658666D01*
X88478700Y-76658668D01*
X88485212Y-76661993D01*
X88492318Y-76663732D01*
X88492321Y-76663733D01*
X88536822Y-76674622D01*
X88656108Y-76703811D01*
X88661710Y-76704159D01*
X88661713Y-76704159D01*
X88665275Y-76704380D01*
X88665284Y-76704380D01*
X88667214Y-76704500D01*
X88794053Y-76704500D01*
X88885950Y-76693786D01*
X88917482Y-76690110D01*
X88917484Y-76690110D01*
X88924754Y-76689262D01*
X88931631Y-76686766D01*
X88931634Y-76686765D01*
X89083255Y-76631729D01*
X89090134Y-76629232D01*
X89096251Y-76625222D01*
X89096254Y-76625220D01*
X89181366Y-76569417D01*
X89237268Y-76532766D01*
X89358264Y-76405040D01*
X89446632Y-76252904D01*
X89497630Y-76084520D01*
X89508524Y-75908920D01*
X89507190Y-75901153D01*
X89479969Y-75742738D01*
X89479968Y-75742736D01*
X89478729Y-75735523D01*
X89409844Y-75573632D01*
X89305563Y-75431929D01*
X89171480Y-75318018D01*
X89121931Y-75292717D01*
X89021305Y-75241334D01*
X89021300Y-75241332D01*
X89014788Y-75238007D01*
X89007682Y-75236268D01*
X89007679Y-75236267D01*
X88913553Y-75213235D01*
X88843892Y-75196189D01*
X88838290Y-75195841D01*
X88838287Y-75195841D01*
X88834725Y-75195620D01*
X88834716Y-75195620D01*
X88832786Y-75195500D01*
X88705947Y-75195500D01*
X88624720Y-75204970D01*
X88582518Y-75209890D01*
X88582516Y-75209890D01*
X88575246Y-75210738D01*
X88568369Y-75213234D01*
X88568366Y-75213235D01*
X88490955Y-75241334D01*
X88409866Y-75270768D01*
X88403749Y-75274778D01*
X88403746Y-75274780D01*
X88376388Y-75292717D01*
X88262732Y-75367234D01*
X88141736Y-75494960D01*
X88053368Y-75647096D01*
X88002370Y-75815480D01*
X87991476Y-75991080D01*
X85389830Y-75991080D01*
X85389830Y-71952186D01*
X85951018Y-71952186D01*
X85976579Y-72220100D01*
X85977664Y-72224534D01*
X85977665Y-72224540D01*
X86013495Y-72370964D01*
X86040547Y-72481518D01*
X86141583Y-72730963D01*
X86277569Y-72963210D01*
X86445658Y-73173395D01*
X86642327Y-73357113D01*
X86792564Y-73461336D01*
X86854784Y-73504499D01*
X86863457Y-73510516D01*
X87104416Y-73630391D01*
X87108750Y-73631812D01*
X87108753Y-73631813D01*
X87355823Y-73712807D01*
X87355829Y-73712808D01*
X87360156Y-73714227D01*
X87364647Y-73715007D01*
X87364648Y-73715007D01*
X87621538Y-73759611D01*
X87621546Y-73759612D01*
X87625319Y-73760267D01*
X87629156Y-73760458D01*
X87708777Y-73764422D01*
X87708785Y-73764422D01*
X87710348Y-73764500D01*
X87878374Y-73764500D01*
X87880642Y-73764335D01*
X87880654Y-73764335D01*
X88011457Y-73754844D01*
X88078425Y-73749985D01*
X88082880Y-73749001D01*
X88082883Y-73749001D01*
X88336770Y-73692947D01*
X88336772Y-73692946D01*
X88341226Y-73691963D01*
X88592900Y-73596613D01*
X88690344Y-73542488D01*
X88824179Y-73468149D01*
X88824180Y-73468148D01*
X88828172Y-73465931D01*
X88892317Y-73416977D01*
X89038491Y-73305421D01*
X89038495Y-73305417D01*
X89042116Y-73302654D01*
X89047937Y-73296700D01*
X89154167Y-73188031D01*
X89230249Y-73110203D01*
X89293557Y-73023227D01*
X89385942Y-72896304D01*
X89385947Y-72896297D01*
X89388630Y-72892610D01*
X89513941Y-72654433D01*
X89603557Y-72400662D01*
X89628688Y-72273156D01*
X89654720Y-72141083D01*
X89654721Y-72141077D01*
X89655601Y-72136611D01*
X89655828Y-72132055D01*
X89668755Y-71872383D01*
X89668755Y-71872377D01*
X89668982Y-71867814D01*
X89666276Y-71839455D01*
X91794825Y-71839455D01*
X91795512Y-71846462D01*
X91795512Y-71846465D01*
X91802844Y-71921242D01*
X91811255Y-72007025D01*
X91864402Y-72166791D01*
X91951624Y-72310812D01*
X91956513Y-72315875D01*
X91956514Y-72315876D01*
X92004174Y-72365229D01*
X92068586Y-72431929D01*
X92074483Y-72435788D01*
X92203577Y-72520266D01*
X92203581Y-72520268D01*
X92209475Y-72524125D01*
X92367289Y-72582815D01*
X92374270Y-72583746D01*
X92374272Y-72583747D01*
X92419812Y-72589823D01*
X92534183Y-72605083D01*
X92541194Y-72604445D01*
X92541198Y-72604445D01*
X92694843Y-72590462D01*
X92701864Y-72589823D01*
X92708566Y-72587645D01*
X92708568Y-72587645D01*
X92855298Y-72539970D01*
X92855301Y-72539969D01*
X92861997Y-72537793D01*
X93006623Y-72451578D01*
X93011717Y-72446727D01*
X93011721Y-72446724D01*
X93123454Y-72340322D01*
X93123455Y-72340320D01*
X93128554Y-72335465D01*
X93144934Y-72310812D01*
X93202253Y-72224540D01*
X93221731Y-72195223D01*
X93231549Y-72169378D01*
X93269779Y-72068734D01*
X93281521Y-72037823D01*
X93301089Y-71898596D01*
X93304404Y-71875010D01*
X93304404Y-71875006D01*
X93304955Y-71871088D01*
X93305249Y-71850000D01*
X93299177Y-71795869D01*
X93287266Y-71689672D01*
X93287265Y-71689669D01*
X93286481Y-71682676D01*
X93231108Y-71523668D01*
X93141884Y-71380879D01*
X93133723Y-71372661D01*
X93028205Y-71266403D01*
X93028201Y-71266400D01*
X93023242Y-71261406D01*
X92881079Y-71171187D01*
X92722462Y-71114706D01*
X92715474Y-71113873D01*
X92715471Y-71113872D01*
X92622300Y-71102762D01*
X92555273Y-71094769D01*
X92548270Y-71095505D01*
X92548269Y-71095505D01*
X92502712Y-71100293D01*
X92387821Y-71112369D01*
X92381155Y-71114638D01*
X92381152Y-71114639D01*
X92235098Y-71164360D01*
X92235095Y-71164361D01*
X92228431Y-71166630D01*
X92222436Y-71170318D01*
X92222432Y-71170320D01*
X92091021Y-71251165D01*
X92091019Y-71251167D01*
X92085022Y-71254856D01*
X91964724Y-71372661D01*
X91873515Y-71514190D01*
X91871105Y-71520810D01*
X91871104Y-71520813D01*
X91851236Y-71575399D01*
X91815927Y-71672409D01*
X91794825Y-71839455D01*
X89666276Y-71839455D01*
X89643421Y-71599900D01*
X89624768Y-71523668D01*
X89580539Y-71342920D01*
X89579453Y-71338482D01*
X89478417Y-71089037D01*
X89342431Y-70856790D01*
X89174342Y-70646605D01*
X88977673Y-70462887D01*
X88756543Y-70309484D01*
X88515584Y-70189609D01*
X88511250Y-70188188D01*
X88511247Y-70188187D01*
X88264177Y-70107193D01*
X88264171Y-70107192D01*
X88259844Y-70105773D01*
X88255352Y-70104993D01*
X87998462Y-70060389D01*
X87998454Y-70060388D01*
X87994681Y-70059733D01*
X87984718Y-70059237D01*
X87911223Y-70055578D01*
X87911215Y-70055578D01*
X87909652Y-70055500D01*
X87741626Y-70055500D01*
X87739358Y-70055665D01*
X87739346Y-70055665D01*
X87608543Y-70065156D01*
X87541575Y-70070015D01*
X87537120Y-70070999D01*
X87537117Y-70070999D01*
X87283230Y-70127053D01*
X87283228Y-70127054D01*
X87278774Y-70128037D01*
X87027100Y-70223387D01*
X86791828Y-70354069D01*
X86788196Y-70356841D01*
X86581509Y-70514579D01*
X86581505Y-70514583D01*
X86577884Y-70517346D01*
X86389751Y-70709797D01*
X86387066Y-70713486D01*
X86234058Y-70923696D01*
X86234053Y-70923703D01*
X86231370Y-70927390D01*
X86106059Y-71165567D01*
X86016443Y-71419338D01*
X85995880Y-71523668D01*
X85967869Y-71665786D01*
X85964399Y-71683389D01*
X85964172Y-71687942D01*
X85964172Y-71687945D01*
X85951253Y-71947472D01*
X85951018Y-71952186D01*
X85389830Y-71952186D01*
X85389830Y-69437153D01*
X85392251Y-69412570D01*
X85392395Y-69411845D01*
X85394816Y-69399675D01*
X85392396Y-69387506D01*
X85392396Y-69375094D01*
X85393246Y-69375094D01*
X85392612Y-69364338D01*
X85404390Y-69214728D01*
X85407483Y-69195201D01*
X85448480Y-69024448D01*
X85454590Y-69005644D01*
X85521794Y-68843407D01*
X85530771Y-68825790D01*
X85622527Y-68676065D01*
X85634147Y-68660073D01*
X85748199Y-68526541D01*
X85762174Y-68512565D01*
X85895721Y-68398510D01*
X85911703Y-68386900D01*
X86061433Y-68295150D01*
X86079049Y-68286174D01*
X86241293Y-68218974D01*
X86260097Y-68212865D01*
X86345471Y-68192370D01*
X86430849Y-68171874D01*
X86450370Y-68168783D01*
X86592315Y-68157614D01*
X86600208Y-68156993D01*
X86610745Y-68157614D01*
X86610745Y-68156734D01*
X86623152Y-68156734D01*
X86635325Y-68159156D01*
X86648224Y-68156591D01*
X86672799Y-68154171D01*
X115992902Y-68154500D01*
G37*
%TD.AperFunction*%
%TD*%
M02*
