%TF.GenerationSoftware,KiCad,Pcbnew,6.0.9-8da3e8f707~117~ubuntu22.04.1*%
%TF.CreationDate,2022-12-15T12:38:23+05:30*%
%TF.ProjectId,lsa,6c73612e-6b69-4636-9164-5f7063625858,rev?*%
%TF.SameCoordinates,Original*%
%TF.FileFunction,Legend,Top*%
%TF.FilePolarity,Positive*%
%FSLAX46Y46*%
G04 Gerber Fmt 4.6, Leading zero omitted, Abs format (unit mm)*
G04 Created by KiCad (PCBNEW 6.0.9-8da3e8f707~117~ubuntu22.04.1) date 2022-12-15 12:38:23*
%MOMM*%
%LPD*%
G01*
G04 APERTURE LIST*
%ADD10C,0.150000*%
%ADD11C,0.120000*%
%ADD12C,0.127000*%
G04 APERTURE END LIST*
D10*
%TO.C,J1*%
X105622380Y-72733333D02*
X106336666Y-72733333D01*
X106479523Y-72780952D01*
X106574761Y-72876190D01*
X106622380Y-73019047D01*
X106622380Y-73114285D01*
X106622380Y-71733333D02*
X106622380Y-72304761D01*
X106622380Y-72019047D02*
X105622380Y-72019047D01*
X105765238Y-72114285D01*
X105860476Y-72209523D01*
X105908095Y-72304761D01*
%TO.C,U5*%
X94650121Y-81365048D02*
X95462985Y-81365048D01*
X95558616Y-81317232D01*
X95606431Y-81269417D01*
X95654247Y-81173786D01*
X95654247Y-80982524D01*
X95606431Y-80886893D01*
X95558616Y-80839077D01*
X95462985Y-80791262D01*
X94650121Y-80791262D01*
X94650121Y-79834951D02*
X94650121Y-80313106D01*
X95128276Y-80360922D01*
X95080461Y-80313106D01*
X95032645Y-80217475D01*
X95032645Y-79978398D01*
X95080461Y-79882767D01*
X95128276Y-79834951D01*
X95223907Y-79787136D01*
X95462985Y-79787136D01*
X95558616Y-79834951D01*
X95606431Y-79882767D01*
X95654247Y-79978398D01*
X95654247Y-80217475D01*
X95606431Y-80313106D01*
X95558616Y-80360922D01*
%TO.C,U3*%
X120034951Y-75450121D02*
X120034951Y-76262985D01*
X120082767Y-76358616D01*
X120130582Y-76406431D01*
X120226213Y-76454247D01*
X120417475Y-76454247D01*
X120513106Y-76406431D01*
X120560922Y-76358616D01*
X120608737Y-76262985D01*
X120608737Y-75450121D01*
X120991262Y-75450121D02*
X121612863Y-75450121D01*
X121278155Y-75832645D01*
X121421601Y-75832645D01*
X121517232Y-75880461D01*
X121565048Y-75928276D01*
X121612863Y-76023907D01*
X121612863Y-76262985D01*
X121565048Y-76358616D01*
X121517232Y-76406431D01*
X121421601Y-76454247D01*
X121134708Y-76454247D01*
X121039077Y-76406431D01*
X120991262Y-76358616D01*
%TO.C,U4*%
X99650121Y-81365048D02*
X100462985Y-81365048D01*
X100558616Y-81317232D01*
X100606431Y-81269417D01*
X100654247Y-81173786D01*
X100654247Y-80982524D01*
X100606431Y-80886893D01*
X100558616Y-80839077D01*
X100462985Y-80791262D01*
X99650121Y-80791262D01*
X99984830Y-79882767D02*
X100654247Y-79882767D01*
X99602305Y-80121844D02*
X100319538Y-80360922D01*
X100319538Y-79739320D01*
%TO.C,U2*%
X131650121Y-81365048D02*
X132462985Y-81365048D01*
X132558616Y-81317232D01*
X132606431Y-81269417D01*
X132654247Y-81173786D01*
X132654247Y-80982524D01*
X132606431Y-80886893D01*
X132558616Y-80839077D01*
X132462985Y-80791262D01*
X131650121Y-80791262D01*
X131745752Y-80360922D02*
X131697937Y-80313106D01*
X131650121Y-80217475D01*
X131650121Y-79978398D01*
X131697937Y-79882767D01*
X131745752Y-79834951D01*
X131841383Y-79787136D01*
X131937014Y-79787136D01*
X132080461Y-79834951D01*
X132654247Y-80408737D01*
X132654247Y-79787136D01*
%TO.C,U1*%
X136650121Y-81365048D02*
X137462985Y-81365048D01*
X137558616Y-81317232D01*
X137606431Y-81269417D01*
X137654247Y-81173786D01*
X137654247Y-80982524D01*
X137606431Y-80886893D01*
X137558616Y-80839077D01*
X137462985Y-80791262D01*
X136650121Y-80791262D01*
X137654247Y-79787136D02*
X137654247Y-80360922D01*
X137654247Y-80074029D02*
X136650121Y-80074029D01*
X136793568Y-80169660D01*
X136889199Y-80265291D01*
X136937014Y-80360922D01*
%TO.C,kibuzzard-63708D75*%
G36*
X103760231Y-89092628D02*
G01*
X103653652Y-89076819D01*
X103549137Y-89050639D01*
X103447691Y-89014341D01*
X103350291Y-88968275D01*
X103257876Y-88912883D01*
X103171335Y-88848700D01*
X103091502Y-88776343D01*
X103019145Y-88696510D01*
X102954962Y-88609969D01*
X102899570Y-88517554D01*
X102853504Y-88420154D01*
X102817206Y-88318708D01*
X102791026Y-88214193D01*
X102775217Y-88107614D01*
X102769930Y-88000000D01*
X102775217Y-87892386D01*
X102791026Y-87785807D01*
X102800838Y-87746635D01*
X104264720Y-87746635D01*
X104324727Y-87864745D01*
X104439980Y-87931420D01*
X104573330Y-87872365D01*
X104598095Y-87849505D01*
X104598095Y-88529590D01*
X104600952Y-88599123D01*
X104619050Y-88651510D01*
X104670009Y-88688657D01*
X104765735Y-88701040D01*
X104863842Y-88688181D01*
X104914325Y-88649605D01*
X104932422Y-88599123D01*
X104935280Y-88533400D01*
X104935280Y-87472315D01*
X104925755Y-87371350D01*
X104899085Y-87330393D01*
X104849555Y-87308485D01*
X104759067Y-87298960D01*
X104651435Y-87348490D01*
X104645720Y-87352300D01*
X104333300Y-87634240D01*
X104264720Y-87746635D01*
X102800838Y-87746635D01*
X102817206Y-87681292D01*
X102853504Y-87579846D01*
X102899570Y-87482446D01*
X102954962Y-87390031D01*
X103019145Y-87303490D01*
X103091502Y-87223657D01*
X103171335Y-87151300D01*
X103257876Y-87087117D01*
X103350291Y-87031725D01*
X103447691Y-86985659D01*
X103549137Y-86949361D01*
X103653652Y-86923181D01*
X103760231Y-86907372D01*
X103867845Y-86902085D01*
X105332155Y-86902085D01*
X105439769Y-86907372D01*
X105546348Y-86923181D01*
X105650863Y-86949361D01*
X105752309Y-86985659D01*
X105849709Y-87031725D01*
X105942124Y-87087117D01*
X106028665Y-87151300D01*
X106108498Y-87223657D01*
X106180855Y-87303490D01*
X106245038Y-87390031D01*
X106300430Y-87482446D01*
X106346496Y-87579846D01*
X106382794Y-87681292D01*
X106408974Y-87785807D01*
X106424783Y-87892386D01*
X106430070Y-88000000D01*
X106424783Y-88107614D01*
X106408974Y-88214193D01*
X106382794Y-88318708D01*
X106346496Y-88420154D01*
X106300430Y-88517554D01*
X106245038Y-88609969D01*
X106180855Y-88696510D01*
X106108498Y-88776343D01*
X106028665Y-88848700D01*
X105942124Y-88912883D01*
X105849709Y-88968275D01*
X105752309Y-89014341D01*
X105650863Y-89050639D01*
X105546348Y-89076819D01*
X105439769Y-89092628D01*
X105332155Y-89097915D01*
X103867845Y-89097915D01*
X103760231Y-89092628D01*
G37*
%TO.C,kibuzzard-63708D58*%
G36*
X90161962Y-88913482D02*
G01*
X90053349Y-88897371D01*
X89946839Y-88870692D01*
X89843457Y-88833701D01*
X89744198Y-88786755D01*
X89650019Y-88730306D01*
X89561826Y-88664898D01*
X89480469Y-88591161D01*
X89406732Y-88509804D01*
X89341324Y-88421611D01*
X89284875Y-88327432D01*
X89237929Y-88228173D01*
X89200938Y-88124791D01*
X89174259Y-88018281D01*
X89158148Y-87909668D01*
X89152760Y-87800000D01*
X89152854Y-87798095D01*
X90668505Y-87798095D01*
X90674643Y-87931657D01*
X90693058Y-88055482D01*
X90723750Y-88169570D01*
X90764946Y-88265296D01*
X90816143Y-88346735D01*
X90883294Y-88415077D01*
X90972353Y-88471513D01*
X91079747Y-88509374D01*
X91201905Y-88521995D01*
X91323587Y-88509613D01*
X91429553Y-88472465D01*
X91516944Y-88416268D01*
X91582905Y-88346735D01*
X91647913Y-88236840D01*
X91694348Y-88109086D01*
X91722208Y-87963473D01*
X91731495Y-87800000D01*
X91725145Y-87674058D01*
X91706095Y-87552773D01*
X91674345Y-87436145D01*
X91634578Y-87339943D01*
X91583858Y-87257075D01*
X91517183Y-87187066D01*
X91429553Y-87129440D01*
X91323111Y-87090864D01*
X91200000Y-87078005D01*
X91076413Y-87091102D01*
X90968543Y-87130392D01*
X90879722Y-87188971D01*
X90813285Y-87259933D01*
X90760659Y-87351611D01*
X90713273Y-87472340D01*
X90688402Y-87568648D01*
X90673479Y-87677233D01*
X90668505Y-87798095D01*
X89152854Y-87798095D01*
X89158148Y-87690332D01*
X89174259Y-87581719D01*
X89200938Y-87475209D01*
X89237929Y-87371827D01*
X89284875Y-87272568D01*
X89341324Y-87178389D01*
X89406732Y-87090196D01*
X89480469Y-87008839D01*
X89561826Y-86935102D01*
X89650019Y-86869694D01*
X89744198Y-86813245D01*
X89843457Y-86766299D01*
X89946839Y-86729308D01*
X90053349Y-86702629D01*
X90161962Y-86686518D01*
X90271630Y-86681130D01*
X92128370Y-86681130D01*
X92238038Y-86686518D01*
X92346651Y-86702629D01*
X92453161Y-86729308D01*
X92556543Y-86766299D01*
X92655802Y-86813245D01*
X92749981Y-86869694D01*
X92838174Y-86935102D01*
X92919531Y-87008839D01*
X92993268Y-87090196D01*
X93058676Y-87178389D01*
X93115125Y-87272568D01*
X93162071Y-87371827D01*
X93199062Y-87475209D01*
X93225741Y-87581719D01*
X93241852Y-87690332D01*
X93247240Y-87800000D01*
X93241852Y-87909668D01*
X93225741Y-88018281D01*
X93199062Y-88124791D01*
X93162071Y-88228173D01*
X93115125Y-88327432D01*
X93058676Y-88421611D01*
X92993268Y-88509804D01*
X92919531Y-88591161D01*
X92838174Y-88664898D01*
X92749981Y-88730306D01*
X92655802Y-88786755D01*
X92556543Y-88833701D01*
X92453161Y-88870692D01*
X92346651Y-88897371D01*
X92238038Y-88913482D01*
X92128370Y-88918870D01*
X90271630Y-88918870D01*
X90161962Y-88913482D01*
G37*
G36*
X91285011Y-87439122D02*
G01*
X91345733Y-87510916D01*
X91382166Y-87630574D01*
X91394310Y-87798095D01*
X91394310Y-87809525D01*
X91382047Y-87972879D01*
X91345256Y-88089560D01*
X91283939Y-88159569D01*
X91198095Y-88182905D01*
X91113918Y-88158914D01*
X91053791Y-88086941D01*
X91017715Y-87966985D01*
X91005690Y-87799048D01*
X91017834Y-87631110D01*
X91054268Y-87511154D01*
X91114989Y-87439181D01*
X91200000Y-87415190D01*
X91285011Y-87439122D01*
G37*
D11*
%TO.C,J1*%
X108500000Y-73730000D02*
X107170000Y-73730000D01*
X107170000Y-73730000D02*
X107170000Y-72400000D01*
X109770000Y-73730000D02*
X125070000Y-73730000D01*
X125070000Y-73730000D02*
X125070000Y-71070000D01*
X109770000Y-73730000D02*
X109770000Y-71070000D01*
X109770000Y-71070000D02*
X125070000Y-71070000D01*
D12*
%TO.C,U5*%
X94150000Y-75450000D02*
X94150000Y-79430000D01*
X88250000Y-84200000D02*
X89800000Y-85750000D01*
X89400000Y-75450000D02*
X94150000Y-75450000D01*
X89800000Y-85750000D02*
X92600000Y-85750000D01*
X88250000Y-81770000D02*
X88250000Y-84200000D01*
X88250000Y-76600000D02*
X88250000Y-79430000D01*
X94150000Y-84200000D02*
X92600000Y-85750000D01*
X94150000Y-84200000D02*
X94150000Y-81770000D01*
%TO.C,U3*%
X119150000Y-75450000D02*
X119150000Y-79430000D01*
X119150000Y-84200000D02*
X119150000Y-81770000D01*
X113250000Y-81770000D02*
X113250000Y-84200000D01*
X114800000Y-85750000D02*
X117600000Y-85750000D01*
X119150000Y-84200000D02*
X117600000Y-85750000D01*
X113250000Y-84200000D02*
X114800000Y-85750000D01*
X113250000Y-76600000D02*
X113250000Y-79430000D01*
X114400000Y-75450000D02*
X119150000Y-75450000D01*
%TO.C,U4*%
X107350000Y-75450000D02*
X107350000Y-79430000D01*
X102600000Y-75450000D02*
X107350000Y-75450000D01*
X103000000Y-85750000D02*
X105800000Y-85750000D01*
X101450000Y-84200000D02*
X103000000Y-85750000D01*
X101450000Y-81770000D02*
X101450000Y-84200000D01*
X107350000Y-84200000D02*
X105800000Y-85750000D01*
X107350000Y-84200000D02*
X107350000Y-81770000D01*
X101450000Y-76600000D02*
X101450000Y-79430000D01*
%TO.C,G\u002A\u002A\u002A*%
G36*
X135259475Y-74474460D02*
G01*
X135247925Y-74462636D01*
X135222511Y-74440218D01*
X135201907Y-74423801D01*
X135183234Y-74412469D01*
X135163615Y-74405309D01*
X135140173Y-74401403D01*
X135110031Y-74399836D01*
X135070312Y-74399693D01*
X135050549Y-74399834D01*
X134997697Y-74401042D01*
X134950412Y-74404161D01*
X134905130Y-74409755D01*
X134858285Y-74418392D01*
X134806311Y-74430637D01*
X134745644Y-74447055D01*
X134736268Y-74449715D01*
X134676206Y-74466361D01*
X134616944Y-74481916D01*
X134561125Y-74495740D01*
X134511390Y-74507192D01*
X134470381Y-74515631D01*
X134450346Y-74519092D01*
X134418322Y-74523239D01*
X134394286Y-74524096D01*
X134372985Y-74521629D01*
X134359263Y-74518522D01*
X134310182Y-74499598D01*
X134265458Y-74468713D01*
X134224149Y-74425186D01*
X134217076Y-74416054D01*
X134200564Y-74395089D01*
X134183303Y-74374541D01*
X134180819Y-74371732D01*
X134167426Y-74355404D01*
X134150350Y-74332783D01*
X134134404Y-74310362D01*
X134119326Y-74288923D01*
X134106313Y-74271295D01*
X134098071Y-74261137D01*
X134097828Y-74260886D01*
X134088597Y-74247155D01*
X134085061Y-74238725D01*
X134079290Y-74227737D01*
X134075213Y-74225127D01*
X134069083Y-74219504D01*
X134061704Y-74205848D01*
X134061208Y-74204671D01*
X134053963Y-74190626D01*
X134047856Y-74184250D01*
X134047538Y-74184215D01*
X134041298Y-74178687D01*
X134038324Y-74172282D01*
X134032050Y-74158268D01*
X134022376Y-74140710D01*
X134021882Y-74139893D01*
X134011907Y-74123152D01*
X133998326Y-74099967D01*
X133985908Y-74078523D01*
X133971836Y-74054144D01*
X133958675Y-74031457D01*
X133950319Y-74017154D01*
X133942801Y-74003306D01*
X133930790Y-73979977D01*
X133915679Y-73949988D01*
X133898862Y-73916162D01*
X133881730Y-73881319D01*
X133865678Y-73848281D01*
X133852099Y-73819869D01*
X133842385Y-73798904D01*
X133840893Y-73795544D01*
X133822555Y-73750792D01*
X133802748Y-73697575D01*
X133783118Y-73640704D01*
X133765307Y-73584991D01*
X133750960Y-73535249D01*
X133747723Y-73522792D01*
X133737172Y-73470285D01*
X133730623Y-73414731D01*
X133729561Y-73389825D01*
X134177372Y-73389825D01*
X134180902Y-73433822D01*
X134191623Y-73485757D01*
X134208732Y-73542525D01*
X134231423Y-73601018D01*
X134232990Y-73604617D01*
X134243245Y-73625856D01*
X134257301Y-73652180D01*
X134273159Y-73680157D01*
X134288821Y-73706353D01*
X134302288Y-73727334D01*
X134311563Y-73739669D01*
X134311665Y-73739776D01*
X134319090Y-73750354D01*
X134320322Y-73754631D01*
X134324564Y-73764005D01*
X134329070Y-73769486D01*
X134338455Y-73780678D01*
X134350995Y-73797388D01*
X134354527Y-73802362D01*
X134370997Y-73823811D01*
X134389427Y-73845051D01*
X134391806Y-73847559D01*
X134409881Y-73867511D01*
X134428254Y-73889546D01*
X134431430Y-73893601D01*
X134447433Y-73911562D01*
X134471559Y-73935250D01*
X134501014Y-73962210D01*
X134533008Y-73989991D01*
X134564747Y-74016140D01*
X134593442Y-74038204D01*
X134606711Y-74047574D01*
X134660328Y-74080886D01*
X134713989Y-74108871D01*
X134764776Y-74130196D01*
X134809774Y-74143528D01*
X134821503Y-74145737D01*
X134839586Y-74147053D01*
X134867025Y-74147258D01*
X134900151Y-74146518D01*
X134935294Y-74145002D01*
X134968784Y-74142877D01*
X134996952Y-74140312D01*
X135016128Y-74137474D01*
X135019248Y-74136694D01*
X135076994Y-74119019D01*
X135124326Y-74102827D01*
X135164166Y-74086729D01*
X135199431Y-74069340D01*
X135233043Y-74049273D01*
X135267919Y-74025142D01*
X135291845Y-74007236D01*
X135306138Y-73994863D01*
X135327280Y-73974752D01*
X135352961Y-73949268D01*
X135380872Y-73920777D01*
X135408701Y-73891643D01*
X135434140Y-73864232D01*
X135454877Y-73840909D01*
X135458759Y-73836346D01*
X135485089Y-73806278D01*
X135514294Y-73774908D01*
X135543415Y-73745255D01*
X135569496Y-73720338D01*
X135588116Y-73704307D01*
X135617573Y-73685999D01*
X135655060Y-73669489D01*
X135694976Y-73656997D01*
X135719936Y-73652032D01*
X135762487Y-73649007D01*
X135808560Y-73650815D01*
X135853940Y-73656888D01*
X135894415Y-73666661D01*
X135925770Y-73679566D01*
X135926147Y-73679780D01*
X135955441Y-73696756D01*
X135980534Y-73712348D01*
X136003180Y-73728093D01*
X136025134Y-73745525D01*
X136048152Y-73766180D01*
X136073988Y-73791593D01*
X136104396Y-73823299D01*
X136141134Y-73862835D01*
X136164596Y-73888389D01*
X136207541Y-73934736D01*
X136243354Y-73972063D01*
X136273604Y-74001851D01*
X136299860Y-74025581D01*
X136323692Y-74044732D01*
X136346670Y-74060786D01*
X136348912Y-74062234D01*
X136370478Y-74076292D01*
X136388064Y-74088164D01*
X136397943Y-74095333D01*
X136398061Y-74095432D01*
X136409661Y-74101729D01*
X136413496Y-74102389D01*
X136425271Y-74105262D01*
X136432535Y-74108412D01*
X136468980Y-74124534D01*
X136506681Y-74135737D01*
X136548996Y-74142651D01*
X136599283Y-74145903D01*
X136635302Y-74146358D01*
X136674851Y-74145931D01*
X136704416Y-74144505D01*
X136727637Y-74141641D01*
X136748154Y-74136900D01*
X136768268Y-74130327D01*
X136791522Y-74121482D01*
X136809787Y-74113599D01*
X136819068Y-74108414D01*
X136831040Y-74103152D01*
X136837820Y-74102389D01*
X136848137Y-74099252D01*
X136850093Y-74095570D01*
X136855323Y-74088998D01*
X136857220Y-74088752D01*
X136869938Y-74084306D01*
X136890498Y-74072013D01*
X136916878Y-74053438D01*
X136947051Y-74030148D01*
X136978994Y-74003707D01*
X137010681Y-73975683D01*
X137040089Y-73947640D01*
X137041493Y-73946236D01*
X137069012Y-73917901D01*
X137097099Y-73887698D01*
X137124167Y-73857479D01*
X137148633Y-73829094D01*
X137168910Y-73804396D01*
X137183414Y-73785237D01*
X137190560Y-73773466D01*
X137191033Y-73771566D01*
X137194591Y-73763963D01*
X137203680Y-73749214D01*
X137210668Y-73738778D01*
X137226415Y-73714390D01*
X137244034Y-73684695D01*
X137262168Y-73652284D01*
X137279460Y-73619747D01*
X137294553Y-73589677D01*
X137306089Y-73564664D01*
X137312713Y-73547299D01*
X137313771Y-73541889D01*
X137316752Y-73529695D01*
X137318648Y-73527007D01*
X137324488Y-73515457D01*
X137330865Y-73493680D01*
X137337030Y-73465027D01*
X137342231Y-73432849D01*
X137344916Y-73409808D01*
X137344573Y-73348761D01*
X137332111Y-73291651D01*
X137308308Y-73239956D01*
X137273944Y-73195152D01*
X137229797Y-73158715D01*
X137205020Y-73144460D01*
X137158393Y-73124877D01*
X137102090Y-73107548D01*
X137039476Y-73092997D01*
X136973918Y-73081747D01*
X136908781Y-73074323D01*
X136847431Y-73071247D01*
X136793234Y-73073045D01*
X136767379Y-73076355D01*
X136702910Y-73091675D01*
X136631359Y-73116087D01*
X136554908Y-73148675D01*
X136475740Y-73188523D01*
X136408693Y-73226961D01*
X136385347Y-73240644D01*
X136366144Y-73251036D01*
X136354253Y-73256451D01*
X136352438Y-73256859D01*
X136345715Y-73261180D01*
X136345503Y-73262583D01*
X136339996Y-73269271D01*
X136328200Y-73276191D01*
X136312186Y-73284614D01*
X136302629Y-73291062D01*
X136290231Y-73300215D01*
X136271533Y-73312583D01*
X136249978Y-73326067D01*
X136229007Y-73338573D01*
X136212062Y-73348002D01*
X136202585Y-73352258D01*
X136202078Y-73352322D01*
X136195642Y-73357034D01*
X136195489Y-73358314D01*
X136189858Y-73364765D01*
X136176185Y-73372292D01*
X136175033Y-73372778D01*
X136160981Y-73380120D01*
X136154610Y-73386451D01*
X136154577Y-73386784D01*
X136148965Y-73393035D01*
X136140979Y-73396631D01*
X136125210Y-73404148D01*
X136118555Y-73409024D01*
X136110307Y-73415653D01*
X136098165Y-73423473D01*
X136079718Y-73433880D01*
X136052552Y-73448274D01*
X136036558Y-73456571D01*
X135994255Y-73473803D01*
X135956949Y-73479451D01*
X135925388Y-73473500D01*
X135903549Y-73459228D01*
X135881674Y-73431424D01*
X135860712Y-73391325D01*
X135841238Y-73340269D01*
X135823828Y-73279595D01*
X135820801Y-73267087D01*
X135814725Y-73241510D01*
X135808820Y-73217014D01*
X135806889Y-73209127D01*
X135803103Y-73189277D01*
X135798625Y-73158541D01*
X135793784Y-73119635D01*
X135788908Y-73075273D01*
X135784325Y-73028169D01*
X135782500Y-73007447D01*
X135778879Y-72975264D01*
X135774174Y-72955111D01*
X135767735Y-72945387D01*
X135758917Y-72944491D01*
X135757256Y-72945055D01*
X135749945Y-72954572D01*
X135744569Y-72975532D01*
X135743274Y-72985256D01*
X135733667Y-73060375D01*
X135721538Y-73134138D01*
X135707561Y-73203053D01*
X135692411Y-73263628D01*
X135684338Y-73290531D01*
X135660868Y-73352466D01*
X135634512Y-73401324D01*
X135605054Y-73437403D01*
X135572281Y-73460999D01*
X135556171Y-73467698D01*
X135533414Y-73472548D01*
X135509303Y-73471455D01*
X135480688Y-73463852D01*
X135444418Y-73449173D01*
X135438604Y-73446545D01*
X135421297Y-73437507D01*
X135398409Y-73424076D01*
X135373498Y-73408524D01*
X135350122Y-73393127D01*
X135331839Y-73380159D01*
X135322684Y-73372450D01*
X135315370Y-73366559D01*
X135301165Y-73356315D01*
X135295409Y-73352322D01*
X135279837Y-73341285D01*
X135269619Y-73333410D01*
X135268134Y-73332018D01*
X135261221Y-73326008D01*
X135246969Y-73314614D01*
X135234040Y-73304591D01*
X135216665Y-73291006D01*
X135204072Y-73280661D01*
X135199946Y-73276826D01*
X135193376Y-73271791D01*
X135177411Y-73260613D01*
X135154041Y-73244653D01*
X135125256Y-73225275D01*
X135104483Y-73211425D01*
X135055389Y-73180256D01*
X135004383Y-73150445D01*
X134954151Y-73123387D01*
X134907376Y-73100478D01*
X134866745Y-73083114D01*
X134840255Y-73074092D01*
X134813578Y-73066503D01*
X134786030Y-73058556D01*
X134782480Y-73057521D01*
X134761598Y-73053789D01*
X134730278Y-73051125D01*
X134691677Y-73049519D01*
X134648950Y-73048964D01*
X134605256Y-73049452D01*
X134563751Y-73050975D01*
X134527591Y-73053525D01*
X134499934Y-73057093D01*
X134494201Y-73058260D01*
X134446127Y-73070835D01*
X134400762Y-73085608D01*
X134360806Y-73101504D01*
X134328962Y-73117451D01*
X134308141Y-73132177D01*
X134296095Y-73141511D01*
X134280265Y-73151747D01*
X134264527Y-73164832D01*
X134248716Y-73183616D01*
X134244809Y-73189489D01*
X134233988Y-73205313D01*
X134225512Y-73214767D01*
X134223249Y-73215946D01*
X134218487Y-73221416D01*
X134218040Y-73225127D01*
X134215156Y-73237013D01*
X134208077Y-73254211D01*
X134206718Y-73257003D01*
X134196801Y-73282777D01*
X134187780Y-73316402D01*
X134180930Y-73352099D01*
X134177529Y-73384087D01*
X134177372Y-73389825D01*
X133729561Y-73389825D01*
X133728307Y-73360393D01*
X133730454Y-73311537D01*
X133734760Y-73282765D01*
X133742489Y-73251784D01*
X133752587Y-73222709D01*
X133766063Y-73194138D01*
X133783926Y-73164669D01*
X133807186Y-73132899D01*
X133836852Y-73097425D01*
X133873933Y-73056846D01*
X133919439Y-73009759D01*
X133961985Y-72967060D01*
X134007358Y-72921714D01*
X134043486Y-72885068D01*
X134071013Y-72856434D01*
X134090583Y-72835120D01*
X134102839Y-72820438D01*
X134108426Y-72811696D01*
X134108939Y-72809635D01*
X134112418Y-72801686D01*
X134120836Y-72788105D01*
X134121306Y-72787415D01*
X134137871Y-72754211D01*
X134150592Y-72709520D01*
X134159142Y-72655031D01*
X134163194Y-72592435D01*
X134163489Y-72569109D01*
X134163030Y-72524331D01*
X134161386Y-72492684D01*
X134158161Y-72473682D01*
X134152957Y-72466840D01*
X134145376Y-72471673D01*
X134135021Y-72487698D01*
X134121494Y-72514428D01*
X134120451Y-72516618D01*
X134095591Y-72563668D01*
X134066790Y-72609403D01*
X134035651Y-72651923D01*
X134003780Y-72689326D01*
X133972782Y-72719709D01*
X133944260Y-72741170D01*
X133922618Y-72751128D01*
X133900596Y-72755599D01*
X133886818Y-72752643D01*
X133877809Y-72740140D01*
X133871105Y-72719701D01*
X133864003Y-72694438D01*
X133855368Y-72664446D01*
X133850130Y-72646577D01*
X133841849Y-72617451D01*
X133833773Y-72587229D01*
X133829856Y-72571570D01*
X133823661Y-72546004D01*
X133817618Y-72521515D01*
X133815630Y-72513611D01*
X133802143Y-72454776D01*
X133789825Y-72388659D01*
X133778357Y-72313326D01*
X133767426Y-72226841D01*
X133764371Y-72199946D01*
X133759308Y-72138408D01*
X133756640Y-72069299D01*
X133756265Y-71995841D01*
X133758078Y-71921253D01*
X133761975Y-71848756D01*
X133767853Y-71781570D01*
X133775607Y-71722915D01*
X133780655Y-71695356D01*
X133785730Y-71670662D01*
X133791751Y-71641019D01*
X133795148Y-71624148D01*
X133800953Y-71600117D01*
X133810271Y-71566976D01*
X133821928Y-71528421D01*
X133834750Y-71488149D01*
X133847564Y-71449857D01*
X133859195Y-71417241D01*
X133867636Y-71395899D01*
X133876271Y-71376718D01*
X133888338Y-71350979D01*
X133902601Y-71321198D01*
X133917823Y-71289891D01*
X133932770Y-71259575D01*
X133946204Y-71232765D01*
X133956889Y-71211976D01*
X133963590Y-71199726D01*
X133965066Y-71197584D01*
X133970844Y-71189609D01*
X133978840Y-71175423D01*
X133987260Y-71162266D01*
X133994092Y-71156673D01*
X133994172Y-71156671D01*
X133999449Y-71151264D01*
X133999847Y-71148148D01*
X134004001Y-71137765D01*
X134014246Y-71122994D01*
X134016894Y-71119812D01*
X134027878Y-71106063D01*
X134033667Y-71096909D01*
X134033932Y-71095876D01*
X134038071Y-71088514D01*
X134048153Y-71076101D01*
X134049345Y-71074776D01*
X134062548Y-71059459D01*
X134079221Y-71039117D01*
X134088553Y-71027352D01*
X134125655Y-70982655D01*
X134169679Y-70934053D01*
X134216607Y-70885788D01*
X134262423Y-70842102D01*
X134272798Y-70832778D01*
X134288998Y-70819166D01*
X134313096Y-70799828D01*
X134342261Y-70776944D01*
X134373665Y-70752688D01*
X134404478Y-70729238D01*
X134431871Y-70708771D01*
X134453014Y-70693462D01*
X134460962Y-70688025D01*
X134512446Y-70654725D01*
X134556206Y-70627495D01*
X134595528Y-70604350D01*
X134633695Y-70583312D01*
X134640805Y-70579538D01*
X134670440Y-70563803D01*
X134698158Y-70548926D01*
X134720120Y-70536977D01*
X134729449Y-70531782D01*
X134751374Y-70520536D01*
X134776847Y-70509082D01*
X134784000Y-70506176D01*
X134807440Y-70496835D01*
X134829301Y-70487907D01*
X134835140Y-70485461D01*
X134853053Y-70477914D01*
X134877078Y-70467846D01*
X134893100Y-70461154D01*
X134917615Y-70450897D01*
X134940282Y-70441355D01*
X134951060Y-70436782D01*
X134985441Y-70423569D01*
X135030581Y-70408445D01*
X135083863Y-70392157D01*
X135142671Y-70375450D01*
X135204385Y-70359067D01*
X135266391Y-70343755D01*
X135322684Y-70330986D01*
X135363965Y-70322299D01*
X135399531Y-70315430D01*
X135433078Y-70309828D01*
X135468301Y-70304941D01*
X135508896Y-70300217D01*
X135558559Y-70295105D01*
X135571383Y-70293842D01*
X135629238Y-70288998D01*
X135674201Y-70287090D01*
X135706704Y-70288129D01*
X135727175Y-70292124D01*
X135735417Y-70297820D01*
X135732972Y-70306602D01*
X135720343Y-70324089D01*
X135697687Y-70350094D01*
X135665159Y-70384430D01*
X135649986Y-70399883D01*
X135625507Y-70425092D01*
X135599034Y-70453088D01*
X135578828Y-70475032D01*
X135563702Y-70491570D01*
X135541264Y-70515828D01*
X135513563Y-70545604D01*
X135482645Y-70578699D01*
X135450559Y-70612912D01*
X135445862Y-70617909D01*
X135413152Y-70652726D01*
X135380703Y-70687320D01*
X135350730Y-70719326D01*
X135325447Y-70746380D01*
X135307068Y-70766117D01*
X135305637Y-70767659D01*
X135283482Y-70791388D01*
X135261543Y-70814597D01*
X135243867Y-70833013D01*
X135240859Y-70836091D01*
X135228099Y-70849393D01*
X135208287Y-70870423D01*
X135183590Y-70896865D01*
X135156178Y-70926398D01*
X135138577Y-70945455D01*
X135111244Y-70975024D01*
X135085922Y-71002266D01*
X135064574Y-71025082D01*
X135049163Y-71041369D01*
X135043114Y-71047607D01*
X135033013Y-71058066D01*
X135015500Y-71076549D01*
X134992434Y-71101081D01*
X134965676Y-71129683D01*
X134940832Y-71156348D01*
X134910162Y-71189212D01*
X134879439Y-71221925D01*
X134851167Y-71251836D01*
X134827852Y-71276291D01*
X134815566Y-71289004D01*
X134795633Y-71311095D01*
X134785626Y-71326076D01*
X134785620Y-71333435D01*
X134795687Y-71332655D01*
X134810242Y-71326239D01*
X134824283Y-71318434D01*
X134831731Y-71313290D01*
X134838517Y-71308681D01*
X134854871Y-71298471D01*
X134878618Y-71283992D01*
X134907585Y-71266578D01*
X134920375Y-71258953D01*
X134950844Y-71240727D01*
X134976979Y-71224894D01*
X134996607Y-71212788D01*
X135007551Y-71205740D01*
X135009020Y-71204626D01*
X135018986Y-71197183D01*
X135035585Y-71187149D01*
X135053125Y-71177774D01*
X135065275Y-71172502D01*
X135075354Y-71166497D01*
X135077208Y-71162695D01*
X135082500Y-71156934D01*
X135084678Y-71156671D01*
X135095053Y-71153011D01*
X135109778Y-71144171D01*
X135110249Y-71143839D01*
X135127772Y-71132214D01*
X135149518Y-71118790D01*
X135156194Y-71114859D01*
X135182618Y-71099382D01*
X135212100Y-71081866D01*
X135242260Y-71063757D01*
X135270720Y-71046499D01*
X135295101Y-71031535D01*
X135313023Y-71020311D01*
X135322109Y-71014270D01*
X135322684Y-71013781D01*
X135330207Y-71008652D01*
X135345668Y-70999640D01*
X135356778Y-70993529D01*
X135374977Y-70983342D01*
X135387661Y-70975540D01*
X135390872Y-70973072D01*
X135399036Y-70966969D01*
X135407919Y-70961695D01*
X135434935Y-70946697D01*
X135451394Y-70936983D01*
X135458876Y-70931616D01*
X135459060Y-70931427D01*
X135465845Y-70926822D01*
X135482199Y-70916615D01*
X135505947Y-70902139D01*
X135534913Y-70884726D01*
X135547704Y-70877101D01*
X135578173Y-70858874D01*
X135604308Y-70843042D01*
X135623935Y-70830935D01*
X135634880Y-70823888D01*
X135636348Y-70822774D01*
X135643870Y-70817692D01*
X135659328Y-70808711D01*
X135670442Y-70802602D01*
X135688642Y-70792415D01*
X135701325Y-70784614D01*
X135704536Y-70782146D01*
X135712575Y-70776137D01*
X135723288Y-70769705D01*
X135742230Y-70759181D01*
X135753973Y-70752658D01*
X135766883Y-70744705D01*
X135772724Y-70740041D01*
X135780843Y-70734006D01*
X135791476Y-70727868D01*
X135803696Y-70723277D01*
X135805885Y-70727523D01*
X135798169Y-70740341D01*
X135780671Y-70761466D01*
X135770327Y-70772869D01*
X135748853Y-70796387D01*
X135727483Y-70820284D01*
X135710805Y-70839426D01*
X135710662Y-70839593D01*
X135691238Y-70861540D01*
X135670231Y-70883972D01*
X135663589Y-70890734D01*
X135644164Y-70911117D01*
X135624947Y-70932760D01*
X135620175Y-70938470D01*
X135607933Y-70952804D01*
X135588984Y-70974240D01*
X135565906Y-70999888D01*
X135541279Y-71026862D01*
X135541047Y-71027114D01*
X135516399Y-71054082D01*
X135493251Y-71079741D01*
X135474188Y-71101205D01*
X135461796Y-71115586D01*
X135461722Y-71115676D01*
X135444986Y-71134894D01*
X135424681Y-71156914D01*
X135414738Y-71167245D01*
X135394125Y-71188982D01*
X135373091Y-71212277D01*
X135364800Y-71221879D01*
X135346735Y-71242732D01*
X135325417Y-71266588D01*
X135313659Y-71279426D01*
X135297637Y-71296887D01*
X135275558Y-71321201D01*
X135250435Y-71349040D01*
X135227236Y-71374889D01*
X135204304Y-71400415D01*
X135183909Y-71422927D01*
X135168178Y-71440088D01*
X135159240Y-71449564D01*
X135158923Y-71449879D01*
X135150340Y-71458993D01*
X135135073Y-71475810D01*
X135115422Y-71497774D01*
X135097539Y-71517964D01*
X135075100Y-71543209D01*
X135054231Y-71566328D01*
X135037604Y-71584380D01*
X135029381Y-71592971D01*
X135017367Y-71605665D01*
X134999463Y-71625387D01*
X134978662Y-71648819D01*
X134968011Y-71661003D01*
X134947146Y-71684833D01*
X134927950Y-71706445D01*
X134913298Y-71722619D01*
X134908442Y-71727796D01*
X134897222Y-71741890D01*
X134892801Y-71752618D01*
X134896302Y-71756725D01*
X134903741Y-71753697D01*
X134918222Y-71746180D01*
X134922643Y-71743728D01*
X134942691Y-71732462D01*
X134960651Y-71722360D01*
X134962059Y-71721567D01*
X134975307Y-71713441D01*
X134981744Y-71708485D01*
X134989271Y-71703236D01*
X135004739Y-71694146D01*
X135015838Y-71688028D01*
X135034025Y-71677941D01*
X135046708Y-71670377D01*
X135049932Y-71668080D01*
X135057952Y-71662471D01*
X135068684Y-71656148D01*
X135087626Y-71645624D01*
X135099369Y-71639101D01*
X135112256Y-71631405D01*
X135118120Y-71627168D01*
X135126140Y-71621559D01*
X135136872Y-71615235D01*
X135155814Y-71604711D01*
X135167557Y-71598188D01*
X135180444Y-71590493D01*
X135186308Y-71586255D01*
X135194451Y-71580570D01*
X135203355Y-71575387D01*
X135229724Y-71560751D01*
X135245870Y-71551216D01*
X135253700Y-71545642D01*
X135254496Y-71544834D01*
X135262022Y-71539585D01*
X135277491Y-71530495D01*
X135288590Y-71524377D01*
X135306559Y-71513988D01*
X135318715Y-71505636D01*
X135321548Y-71502725D01*
X135329359Y-71497687D01*
X135330547Y-71497611D01*
X135339690Y-71494045D01*
X135355536Y-71484951D01*
X135365778Y-71478290D01*
X135390477Y-71462509D01*
X135417441Y-71446632D01*
X135424966Y-71442491D01*
X135443160Y-71432434D01*
X135455843Y-71424892D01*
X135459060Y-71422604D01*
X135467001Y-71417046D01*
X135484956Y-71406551D01*
X135510201Y-71392560D01*
X135522427Y-71385258D01*
X135527248Y-71381691D01*
X135537641Y-71374124D01*
X135554527Y-71364034D01*
X135572070Y-71354729D01*
X135583503Y-71349791D01*
X135593582Y-71343786D01*
X135595436Y-71339983D01*
X135600728Y-71334222D01*
X135602907Y-71333960D01*
X135613280Y-71330298D01*
X135628003Y-71321455D01*
X135628477Y-71321120D01*
X135646619Y-71309162D01*
X135668170Y-71296119D01*
X135672147Y-71293845D01*
X135696065Y-71280342D01*
X135720689Y-71266441D01*
X135723288Y-71264973D01*
X135744486Y-71252361D01*
X135764003Y-71239754D01*
X135766958Y-71237698D01*
X135781715Y-71228742D01*
X135792328Y-71224863D01*
X135792529Y-71224859D01*
X135799680Y-71221214D01*
X135800000Y-71219733D01*
X135805538Y-71213991D01*
X135819770Y-71204718D01*
X135832389Y-71197739D01*
X135851152Y-71187655D01*
X135864420Y-71179943D01*
X135868187Y-71177294D01*
X135875417Y-71172057D01*
X135891787Y-71162379D01*
X135918783Y-71147381D01*
X135919328Y-71147083D01*
X135931572Y-71139567D01*
X135936375Y-71135706D01*
X135943902Y-71130458D01*
X135959370Y-71121368D01*
X135970469Y-71115250D01*
X135988656Y-71105162D01*
X136001339Y-71097598D01*
X136004563Y-71095302D01*
X136012080Y-71090351D01*
X136027530Y-71081455D01*
X136038657Y-71075354D01*
X136056857Y-71065167D01*
X136069540Y-71057366D01*
X136072751Y-71054898D01*
X136080790Y-71048889D01*
X136091503Y-71042456D01*
X136110445Y-71031933D01*
X136122187Y-71025409D01*
X136135092Y-71017523D01*
X136140939Y-71012968D01*
X136148465Y-71007719D01*
X136163934Y-70998629D01*
X136175033Y-70992512D01*
X136193220Y-70982424D01*
X136205903Y-70974860D01*
X136209127Y-70972564D01*
X136219520Y-70964997D01*
X136236406Y-70954906D01*
X136253949Y-70945602D01*
X136265382Y-70940664D01*
X136275461Y-70934658D01*
X136277315Y-70930856D01*
X136282607Y-70925095D01*
X136284786Y-70924832D01*
X136295159Y-70921171D01*
X136309882Y-70912327D01*
X136310356Y-70911993D01*
X136326320Y-70901455D01*
X136345614Y-70889762D01*
X136364251Y-70879197D01*
X136378247Y-70872042D01*
X136383214Y-70870282D01*
X136387157Y-70874729D01*
X136382629Y-70886537D01*
X136370783Y-70903409D01*
X136360845Y-70914792D01*
X136342451Y-70935166D01*
X136320833Y-70960064D01*
X136304590Y-70979380D01*
X136284941Y-71002651D01*
X136264839Y-71025594D01*
X136251103Y-71040599D01*
X136232524Y-71061267D01*
X136214386Y-71083105D01*
X136210213Y-71088483D01*
X136194233Y-71108230D01*
X136177882Y-71126504D01*
X136175055Y-71129396D01*
X136161113Y-71144409D01*
X136143541Y-71164754D01*
X136132098Y-71178663D01*
X136116775Y-71197471D01*
X136103943Y-71212763D01*
X136097907Y-71219576D01*
X136089826Y-71228621D01*
X136075627Y-71245043D01*
X136057958Y-71265771D01*
X136052198Y-71272581D01*
X136033686Y-71294297D01*
X136017497Y-71312905D01*
X136006431Y-71325198D01*
X136004563Y-71327141D01*
X135995533Y-71336972D01*
X135980557Y-71354059D01*
X135962436Y-71375196D01*
X135956928Y-71381700D01*
X135938722Y-71403139D01*
X135923166Y-71421222D01*
X135912908Y-71432879D01*
X135911219Y-71434706D01*
X135902594Y-71444554D01*
X135888879Y-71461028D01*
X135877029Y-71475619D01*
X135859682Y-71496496D01*
X135842794Y-71515682D01*
X135834093Y-71524886D01*
X135820314Y-71539742D01*
X135802737Y-71560096D01*
X135790354Y-71575134D01*
X135773527Y-71595557D01*
X135757879Y-71613708D01*
X135749442Y-71622888D01*
X135737824Y-71635636D01*
X135721337Y-71654750D01*
X135704536Y-71674899D01*
X135686599Y-71696360D01*
X135669810Y-71715717D01*
X135658510Y-71728032D01*
X135645624Y-71744432D01*
X135644032Y-71754254D01*
X135652826Y-71756166D01*
X135671097Y-71748833D01*
X135672240Y-71748201D01*
X135685088Y-71740428D01*
X135690899Y-71736106D01*
X135698220Y-71731411D01*
X135714354Y-71722352D01*
X135735980Y-71710786D01*
X135738630Y-71709399D01*
X135760678Y-71697610D01*
X135777604Y-71688035D01*
X135786084Y-71682561D01*
X135786362Y-71682286D01*
X135793979Y-71676898D01*
X135809221Y-71667942D01*
X135817046Y-71663648D01*
X135865705Y-71636970D01*
X135912817Y-71609895D01*
X135928152Y-71600845D01*
X135947692Y-71589592D01*
X135962237Y-71581838D01*
X135968012Y-71579436D01*
X135975658Y-71575923D01*
X135989046Y-71567412D01*
X135989873Y-71566839D01*
X136005407Y-71556925D01*
X136027773Y-71543694D01*
X136048885Y-71531810D01*
X136077614Y-71516058D01*
X136108517Y-71499115D01*
X136127302Y-71488816D01*
X136150435Y-71475775D01*
X136171174Y-71463482D01*
X136181852Y-71456698D01*
X136197184Y-71447101D01*
X136219047Y-71434341D01*
X136236402Y-71424649D01*
X136262057Y-71410558D01*
X136287717Y-71396352D01*
X136301181Y-71388833D01*
X136325784Y-71375174D01*
X136351456Y-71361154D01*
X136355731Y-71358849D01*
X136372867Y-71349317D01*
X136384331Y-71342345D01*
X136386416Y-71340778D01*
X136390623Y-71337756D01*
X136400536Y-71331921D01*
X136417933Y-71322278D01*
X136444590Y-71307835D01*
X136464832Y-71296955D01*
X136477080Y-71289752D01*
X136481879Y-71286228D01*
X136489519Y-71281244D01*
X136504803Y-71272658D01*
X136512563Y-71268526D01*
X136539202Y-71254273D01*
X136564954Y-71239996D01*
X136586317Y-71227679D01*
X136599788Y-71219307D01*
X136601208Y-71218296D01*
X136610499Y-71212497D01*
X136627760Y-71202586D01*
X136645530Y-71192751D01*
X136670750Y-71178909D01*
X136695557Y-71165133D01*
X136708604Y-71157792D01*
X136725630Y-71149904D01*
X136733752Y-71149887D01*
X136731805Y-71157271D01*
X136725651Y-71164708D01*
X136717459Y-71173909D01*
X136703165Y-71190460D01*
X136685435Y-71211265D01*
X136679704Y-71218040D01*
X136661176Y-71239758D01*
X136644958Y-71258366D01*
X136633854Y-71270656D01*
X136631973Y-71272600D01*
X136622908Y-71282436D01*
X136607920Y-71299537D01*
X136589813Y-71320690D01*
X136584357Y-71327150D01*
X136565853Y-71348882D01*
X136549630Y-71367496D01*
X136538502Y-71379778D01*
X136536625Y-71381700D01*
X136527505Y-71391538D01*
X136512473Y-71408644D01*
X136494342Y-71429801D01*
X136488893Y-71436251D01*
X136470373Y-71457985D01*
X136454111Y-71476598D01*
X136442929Y-71488875D01*
X136441038Y-71490792D01*
X136431499Y-71501147D01*
X136416686Y-71518402D01*
X136400053Y-71538523D01*
X136383205Y-71558901D01*
X136368441Y-71576090D01*
X136359068Y-71586255D01*
X136349889Y-71596091D01*
X136334810Y-71613197D01*
X136316655Y-71634356D01*
X136311213Y-71640796D01*
X136292725Y-71662525D01*
X136276539Y-71681138D01*
X136265460Y-71693421D01*
X136263597Y-71695347D01*
X136254530Y-71705177D01*
X136239530Y-71722268D01*
X136221402Y-71743412D01*
X136215908Y-71749906D01*
X136198475Y-71770483D01*
X136184451Y-71786865D01*
X136176111Y-71796399D01*
X136174945Y-71797638D01*
X136169216Y-71803955D01*
X136156687Y-71818207D01*
X136139459Y-71837996D01*
X136127171Y-71852188D01*
X136108064Y-71874229D01*
X136092336Y-71892240D01*
X136082087Y-71903823D01*
X136079391Y-71906738D01*
X136073619Y-71913194D01*
X136061352Y-71927436D01*
X136044870Y-71946809D01*
X136038479Y-71954370D01*
X136018810Y-71977308D01*
X136000274Y-71998304D01*
X135986278Y-72013512D01*
X135984107Y-72015739D01*
X135970324Y-72030655D01*
X135952742Y-72051050D01*
X135940368Y-72066087D01*
X135923540Y-72086510D01*
X135907892Y-72104661D01*
X135899455Y-72113841D01*
X135887843Y-72126596D01*
X135871375Y-72145726D01*
X135854616Y-72165875D01*
X135836352Y-72187670D01*
X135818850Y-72207625D01*
X135806885Y-72220403D01*
X135793067Y-72235261D01*
X135775463Y-72255618D01*
X135763079Y-72270651D01*
X135746242Y-72291123D01*
X135730589Y-72309379D01*
X135722166Y-72318642D01*
X135711085Y-72330787D01*
X135694415Y-72349771D01*
X135675323Y-72371976D01*
X135670638Y-72377494D01*
X135652087Y-72399148D01*
X135635806Y-72417694D01*
X135624634Y-72429913D01*
X135622783Y-72431785D01*
X135613241Y-72442134D01*
X135598416Y-72459380D01*
X135581741Y-72479517D01*
X135563516Y-72501340D01*
X135546024Y-72521314D01*
X135534067Y-72534067D01*
X135520773Y-72548273D01*
X135503019Y-72568535D01*
X135486269Y-72588512D01*
X135464310Y-72614473D01*
X135439600Y-72642436D01*
X135423331Y-72660109D01*
X135402604Y-72684089D01*
X135392001Y-72700877D01*
X135391310Y-72709839D01*
X135400323Y-72710339D01*
X135418829Y-72701743D01*
X135433966Y-72692247D01*
X135453715Y-72679511D01*
X135480174Y-72663110D01*
X135508239Y-72646196D01*
X135513610Y-72643021D01*
X135537038Y-72629017D01*
X135555680Y-72617486D01*
X135566609Y-72610253D01*
X135568161Y-72608980D01*
X135574997Y-72604189D01*
X135591240Y-72593882D01*
X135614556Y-72579479D01*
X135642608Y-72562402D01*
X135673062Y-72544070D01*
X135703583Y-72525904D01*
X135731836Y-72509325D01*
X135734651Y-72507691D01*
X135755764Y-72495000D01*
X135774859Y-72482809D01*
X135779543Y-72479623D01*
X135791690Y-72471660D01*
X135812719Y-72458403D01*
X135839833Y-72441597D01*
X135870233Y-72422989D01*
X135875006Y-72420087D01*
X135914103Y-72396278D01*
X135958641Y-72369047D01*
X136002469Y-72342161D01*
X136031838Y-72324077D01*
X136070235Y-72300459D01*
X136114453Y-72273381D01*
X136158634Y-72246426D01*
X136192080Y-72226106D01*
X136221843Y-72207965D01*
X136247269Y-72192264D01*
X136266148Y-72180383D01*
X136276274Y-72173700D01*
X136277315Y-72172874D01*
X136284878Y-72167304D01*
X136299863Y-72157652D01*
X136318403Y-72146256D01*
X136336634Y-72135454D01*
X136350690Y-72127584D01*
X136356558Y-72124940D01*
X136363429Y-72121386D01*
X136378391Y-72112033D01*
X136398321Y-72098839D01*
X136400053Y-72097664D01*
X136420894Y-72084157D01*
X136437758Y-72074402D01*
X136447166Y-72070402D01*
X136447411Y-72070389D01*
X136454332Y-72065423D01*
X136454604Y-72063570D01*
X136459807Y-72056966D01*
X136461527Y-72056752D01*
X136470493Y-72053309D01*
X136487074Y-72044323D01*
X136505849Y-72032886D01*
X136533543Y-72015211D01*
X136564121Y-71995691D01*
X136581209Y-71984781D01*
X136605118Y-71969786D01*
X136628053Y-71955845D01*
X136641644Y-71947918D01*
X136661592Y-71936708D01*
X136679469Y-71926652D01*
X136680394Y-71926131D01*
X136693633Y-71918110D01*
X136700080Y-71913347D01*
X136707135Y-71908450D01*
X136723047Y-71898481D01*
X136744898Y-71885251D01*
X136754630Y-71879463D01*
X136778039Y-71865438D01*
X136796672Y-71853950D01*
X136807613Y-71846811D01*
X136809181Y-71845580D01*
X136817208Y-71839805D01*
X136827932Y-71833436D01*
X136846875Y-71822913D01*
X136858617Y-71816389D01*
X136871511Y-71808615D01*
X136877369Y-71804246D01*
X136884424Y-71799349D01*
X136900335Y-71789380D01*
X136922187Y-71776150D01*
X136931919Y-71770362D01*
X136955327Y-71756337D01*
X136973960Y-71744849D01*
X136984901Y-71737710D01*
X136986469Y-71736479D01*
X136996457Y-71729030D01*
X137013071Y-71718994D01*
X137030611Y-71709623D01*
X137042724Y-71704368D01*
X137052803Y-71698363D01*
X137054657Y-71694560D01*
X137059917Y-71688759D01*
X137061850Y-71688537D01*
X137070719Y-71684933D01*
X137087244Y-71675458D01*
X137107949Y-71662114D01*
X137109208Y-71661262D01*
X137129539Y-71647824D01*
X137145312Y-71638083D01*
X137153328Y-71634009D01*
X137153530Y-71633987D01*
X137160885Y-71630470D01*
X137176207Y-71621242D01*
X137196199Y-71608290D01*
X137196521Y-71608075D01*
X137217103Y-71594796D01*
X137245919Y-71576811D01*
X137279431Y-71556301D01*
X137314102Y-71535446D01*
X137320590Y-71531588D01*
X137351068Y-71513398D01*
X137377208Y-71497597D01*
X137396835Y-71485516D01*
X137407773Y-71478486D01*
X137409234Y-71477378D01*
X137417128Y-71471632D01*
X137429691Y-71463983D01*
X137443296Y-71455929D01*
X137464578Y-71443042D01*
X137489634Y-71427691D01*
X137497879Y-71422604D01*
X137523319Y-71406963D01*
X137546246Y-71393023D01*
X137562754Y-71383151D01*
X137566067Y-71381225D01*
X137579594Y-71372765D01*
X137586523Y-71367268D01*
X137595068Y-71362172D01*
X137605855Y-71358101D01*
X137620305Y-71357900D01*
X137636167Y-71366855D01*
X137654691Y-71386036D01*
X137677124Y-71416512D01*
X137681225Y-71422604D01*
X137699922Y-71451871D01*
X137713139Y-71476267D01*
X137723841Y-71501627D01*
X137729718Y-71518067D01*
X137736780Y-71538084D01*
X137742911Y-71554595D01*
X137743293Y-71555570D01*
X137753915Y-71589688D01*
X137763839Y-71635995D01*
X137770695Y-71678309D01*
X137775301Y-71707885D01*
X137780185Y-71735492D01*
X137784378Y-71755708D01*
X137784823Y-71757516D01*
X137786786Y-71772416D01*
X137788368Y-71798611D01*
X137789570Y-71833764D01*
X137790395Y-71875537D01*
X137790842Y-71921594D01*
X137790912Y-71969596D01*
X137790607Y-72017207D01*
X137789927Y-72062089D01*
X137788873Y-72101906D01*
X137787446Y-72134319D01*
X137785646Y-72156992D01*
X137784671Y-72163627D01*
X137780950Y-72185579D01*
X137776551Y-72215791D01*
X137772230Y-72248962D01*
X137770757Y-72261315D01*
X137766618Y-72294425D01*
X137762053Y-72326801D01*
X137757840Y-72353041D01*
X137756512Y-72360188D01*
X137751019Y-72388093D01*
X137744927Y-72419246D01*
X137742489Y-72431785D01*
X137737658Y-72455572D01*
X137731792Y-72482079D01*
X137724233Y-72514120D01*
X137714322Y-72554509D01*
X137705363Y-72590322D01*
X137696654Y-72618651D01*
X137684030Y-72651856D01*
X137669099Y-72686429D01*
X137653469Y-72718861D01*
X137638747Y-72745642D01*
X137626542Y-72763266D01*
X137625697Y-72764201D01*
X137612999Y-72775071D01*
X137600567Y-72778966D01*
X137587603Y-72775038D01*
X137573308Y-72762441D01*
X137556884Y-72740329D01*
X137537534Y-72707855D01*
X137514457Y-72664173D01*
X137495487Y-72626121D01*
X137475238Y-72584346D01*
X137458531Y-72548865D01*
X137446061Y-72521213D01*
X137438523Y-72502921D01*
X137436510Y-72495986D01*
X137432919Y-72488195D01*
X137424108Y-72474463D01*
X137422408Y-72472046D01*
X137407582Y-72457316D01*
X137393019Y-72452697D01*
X137381727Y-72458751D01*
X137378942Y-72463906D01*
X137377820Y-72473994D01*
X137377248Y-72495499D01*
X137377221Y-72526212D01*
X137377737Y-72563925D01*
X137378792Y-72606428D01*
X137379188Y-72619033D01*
X137383910Y-72762497D01*
X137411821Y-72796591D01*
X137426766Y-72814690D01*
X137438237Y-72828291D01*
X137443413Y-72834094D01*
X137449234Y-72840548D01*
X137461545Y-72854784D01*
X137478056Y-72874147D01*
X137484420Y-72881661D01*
X137502607Y-72903081D01*
X137518121Y-72921177D01*
X137528311Y-72932863D01*
X137529950Y-72934676D01*
X137538525Y-72944616D01*
X137552209Y-72961154D01*
X137564044Y-72975753D01*
X137578351Y-72993397D01*
X137589172Y-73006444D01*
X137593518Y-73011383D01*
X137599342Y-73018288D01*
X137610607Y-73032527D01*
X137620617Y-73045476D01*
X137634110Y-73062838D01*
X137644245Y-73075429D01*
X137647892Y-73079570D01*
X137653823Y-73086473D01*
X137665180Y-73100705D01*
X137675245Y-73113664D01*
X137689848Y-73132288D01*
X137702135Y-73147321D01*
X137707307Y-73153208D01*
X137717421Y-73167928D01*
X137729860Y-73191973D01*
X137743042Y-73221603D01*
X137755385Y-73253077D01*
X137765307Y-73282653D01*
X137770454Y-73302510D01*
X137776203Y-73337955D01*
X137778239Y-73372957D01*
X137776232Y-73409712D01*
X137769854Y-73450417D01*
X137758775Y-73497265D01*
X137742665Y-73552452D01*
X137724613Y-73608027D01*
X137709877Y-73651604D01*
X137695848Y-73692411D01*
X137683350Y-73728107D01*
X137673204Y-73756352D01*
X137666235Y-73774804D01*
X137664707Y-73778497D01*
X137655507Y-73800016D01*
X137647567Y-73819253D01*
X137646151Y-73822819D01*
X137638665Y-73840611D01*
X137633459Y-73851706D01*
X137628337Y-73865096D01*
X137627436Y-73870532D01*
X137624567Y-73879585D01*
X137616642Y-73898696D01*
X137604683Y-73925714D01*
X137589712Y-73958487D01*
X137572753Y-73994867D01*
X137554827Y-74032701D01*
X137536956Y-74069840D01*
X137520164Y-74104133D01*
X137505472Y-74133428D01*
X137493903Y-74155577D01*
X137486479Y-74168428D01*
X137484795Y-74170577D01*
X137479294Y-74178533D01*
X137471337Y-74193234D01*
X137470737Y-74194443D01*
X137463250Y-74207703D01*
X137450297Y-74228779D01*
X137433681Y-74254923D01*
X137415204Y-74283384D01*
X137396669Y-74311411D01*
X137379878Y-74336256D01*
X137366635Y-74355168D01*
X137358741Y-74365397D01*
X137358535Y-74365615D01*
X137350586Y-74374701D01*
X137337296Y-74390679D01*
X137324419Y-74406527D01*
X137294451Y-74439856D01*
X137258841Y-74473420D01*
X137222095Y-74503250D01*
X137191033Y-74524057D01*
X137174948Y-74532532D01*
X137159693Y-74537779D01*
X137141264Y-74540525D01*
X137115658Y-74541498D01*
X137094811Y-74541531D01*
X137063874Y-74540650D01*
X137036039Y-74538546D01*
X137015554Y-74535592D01*
X137009576Y-74533983D01*
X136990396Y-74527523D01*
X136966493Y-74520217D01*
X136959194Y-74518126D01*
X136940279Y-74512516D01*
X136912388Y-74503869D01*
X136879492Y-74493429D01*
X136850093Y-74483923D01*
X136813111Y-74472003D01*
X136774820Y-74459914D01*
X136740424Y-74449285D01*
X136720536Y-74443319D01*
X136694144Y-74435366D01*
X136671495Y-74428174D01*
X136656952Y-74423133D01*
X136655758Y-74422656D01*
X136641129Y-74417952D01*
X136619500Y-74412438D01*
X136608026Y-74409904D01*
X136579708Y-74403930D01*
X136550196Y-74397593D01*
X136541933Y-74395792D01*
X136481739Y-74388427D01*
X136421569Y-74391894D01*
X136364052Y-74405524D01*
X136311821Y-74428652D01*
X136267508Y-74460608D01*
X136260714Y-74467108D01*
X136236753Y-74496679D01*
X136213488Y-74535326D01*
X136193207Y-74578577D01*
X136178200Y-74621965D01*
X136175088Y-74634255D01*
X136169102Y-74659290D01*
X136163239Y-74682008D01*
X136160546Y-74691528D01*
X136157052Y-74710048D01*
X136154903Y-74734827D01*
X136154577Y-74747783D01*
X136156330Y-74771990D01*
X136161922Y-74783306D01*
X136171848Y-74782062D01*
X136186302Y-74768926D01*
X136204972Y-74750112D01*
X136229470Y-74728311D01*
X136257432Y-74705303D01*
X136286495Y-74682869D01*
X136314293Y-74662790D01*
X136338463Y-74646848D01*
X136356640Y-74636822D01*
X136365080Y-74634255D01*
X136372393Y-74629561D01*
X136372778Y-74627436D01*
X136378201Y-74621172D01*
X136381725Y-74620617D01*
X136392897Y-74617809D01*
X136410781Y-74610712D01*
X136419648Y-74606618D01*
X136451371Y-74595732D01*
X136489383Y-74589424D01*
X136529855Y-74587646D01*
X136568957Y-74590348D01*
X136602859Y-74597482D01*
X136627733Y-74609000D01*
X136628091Y-74609260D01*
X136635245Y-74615567D01*
X136636043Y-74622320D01*
X136629733Y-74633380D01*
X136621100Y-74645198D01*
X136608767Y-74661414D01*
X136599804Y-74672627D01*
X136597508Y-74675168D01*
X136591593Y-74682483D01*
X136581334Y-74696690D01*
X136577342Y-74702443D01*
X136566268Y-74718020D01*
X136558310Y-74728236D01*
X136556885Y-74729718D01*
X136550784Y-74737041D01*
X136540415Y-74751261D01*
X136536429Y-74756993D01*
X136525326Y-74772574D01*
X136517302Y-74782790D01*
X136515851Y-74784268D01*
X136508367Y-74792986D01*
X136497312Y-74808570D01*
X136485302Y-74826956D01*
X136474954Y-74844079D01*
X136468885Y-74855874D01*
X136468241Y-74858231D01*
X136463625Y-74866733D01*
X136462654Y-74867230D01*
X136455877Y-74874085D01*
X136444076Y-74889777D01*
X136429183Y-74911414D01*
X136413132Y-74936107D01*
X136397858Y-74960963D01*
X136385873Y-74982013D01*
X136375678Y-75000220D01*
X136367827Y-75012904D01*
X136365320Y-75016107D01*
X136359403Y-75024890D01*
X136349579Y-75043377D01*
X136337175Y-75068678D01*
X136323515Y-75097903D01*
X136309924Y-75128162D01*
X136297726Y-75156563D01*
X136288247Y-75180217D01*
X136282885Y-75195957D01*
X136276354Y-75215617D01*
X136269630Y-75228975D01*
X136266475Y-75232066D01*
X136256733Y-75233370D01*
X136236697Y-75234556D01*
X136209712Y-75235556D01*
X136179123Y-75236304D01*
X136148274Y-75236732D01*
X136120509Y-75236772D01*
X136099173Y-75236359D01*
X136088789Y-75235630D01*
X136075295Y-75229123D01*
X136070268Y-75221993D01*
X136051447Y-75166353D01*
X136036220Y-75122555D01*
X136024121Y-75089421D01*
X136014682Y-75065774D01*
X136007434Y-75050437D01*
X136001910Y-75042233D01*
X135997909Y-75039973D01*
X135989118Y-75045813D01*
X135981814Y-75059916D01*
X135981656Y-75060429D01*
X135975340Y-75079913D01*
X135970044Y-75094523D01*
X135964487Y-75109241D01*
X135956227Y-75131954D01*
X135946704Y-75158599D01*
X135937360Y-75185108D01*
X135929638Y-75207415D01*
X135924980Y-75221456D01*
X135924700Y-75222376D01*
X135922576Y-75226227D01*
X135917684Y-75229153D01*
X135908357Y-75231279D01*
X135892925Y-75232730D01*
X135869722Y-75233633D01*
X135837079Y-75234111D01*
X135793328Y-75234291D01*
X135765861Y-75234309D01*
X135610575Y-75234309D01*
X135596187Y-75203698D01*
X135587829Y-75184874D01*
X135582639Y-75171173D01*
X135581798Y-75167511D01*
X135579300Y-75157240D01*
X135572768Y-75139121D01*
X135563651Y-75116494D01*
X135553394Y-75092699D01*
X135543444Y-75071074D01*
X135535248Y-75054960D01*
X135530253Y-75047695D01*
X135529841Y-75047577D01*
X135524871Y-75050294D01*
X135519437Y-75058572D01*
X135512340Y-75074804D01*
X135502378Y-75101381D01*
X135501159Y-75104752D01*
X135492801Y-75127801D01*
X135485647Y-75147326D01*
X135482455Y-75155893D01*
X135476987Y-75170515D01*
X135469290Y-75191333D01*
X135466026Y-75200215D01*
X135454771Y-75230899D01*
X135356106Y-75232778D01*
X135257441Y-75234656D01*
X135228694Y-75186661D01*
X135215355Y-75163619D01*
X135205305Y-75144786D01*
X135200240Y-75133390D01*
X135199946Y-75131937D01*
X135194754Y-75125403D01*
X135193127Y-75125208D01*
X135186505Y-75120137D01*
X135186308Y-75118550D01*
X135182983Y-75110401D01*
X135173933Y-75093154D01*
X135160545Y-75069347D01*
X135144396Y-75041839D01*
X135120318Y-75001488D01*
X135101887Y-74970301D01*
X135087667Y-74945790D01*
X135076224Y-74925464D01*
X135066124Y-74906833D01*
X135060815Y-74896778D01*
X135051481Y-74879600D01*
X135044638Y-74868138D01*
X135043114Y-74866094D01*
X135037530Y-74858144D01*
X135030540Y-74846408D01*
X135012125Y-74813853D01*
X134996935Y-74787413D01*
X134981608Y-74761257D01*
X134975878Y-74751579D01*
X134964562Y-74731507D01*
X134956803Y-74715847D01*
X134954469Y-74708962D01*
X134949271Y-74702630D01*
X134947651Y-74702443D01*
X134941028Y-74697474D01*
X134940832Y-74695924D01*
X134937592Y-74686913D01*
X134929208Y-74670328D01*
X134920462Y-74654858D01*
X134900092Y-74620311D01*
X134921107Y-74607532D01*
X134952953Y-74594759D01*
X134992543Y-74588903D01*
X135035781Y-74590117D01*
X135078569Y-74598552D01*
X135087436Y-74601365D01*
X135124790Y-74617388D01*
X135167963Y-74641232D01*
X135213523Y-74670703D01*
X135258033Y-74703604D01*
X135291762Y-74731983D01*
X135314781Y-74751483D01*
X135338702Y-74769734D01*
X135360959Y-74785018D01*
X135378982Y-74795612D01*
X135390205Y-74799797D01*
X135392219Y-74799287D01*
X135394464Y-74789115D01*
X135392354Y-74770538D01*
X135390701Y-74763193D01*
X135384559Y-74738214D01*
X135378800Y-74714015D01*
X135377703Y-74709262D01*
X135366403Y-74671114D01*
X135349500Y-74628314D01*
X135328675Y-74584055D01*
X135305610Y-74541531D01*
X135296492Y-74527022D01*
X135461345Y-74527022D01*
X135461901Y-74529541D01*
X135468570Y-74537577D01*
X135479645Y-74536135D01*
X135496226Y-74524670D01*
X135519411Y-74502638D01*
X135522375Y-74499584D01*
X135543452Y-74477635D01*
X135563545Y-74456537D01*
X135578577Y-74440572D01*
X135579524Y-74439554D01*
X135604286Y-74417105D01*
X135636422Y-74393798D01*
X135670485Y-74373426D01*
X135684512Y-74366446D01*
X135731431Y-74351998D01*
X135779667Y-74351055D01*
X135800509Y-74354807D01*
X135831890Y-74363968D01*
X135859937Y-74376373D01*
X135887674Y-74393910D01*
X135918128Y-74418467D01*
X135951131Y-74448871D01*
X135973264Y-74469588D01*
X135993498Y-74487704D01*
X136008576Y-74500335D01*
X136012500Y-74503250D01*
X136025712Y-74513368D01*
X136032656Y-74520316D01*
X136042016Y-74524287D01*
X136049702Y-74523853D01*
X136058491Y-74518369D01*
X136060931Y-74506060D01*
X136056774Y-74485792D01*
X136045775Y-74456432D01*
X136027685Y-74416847D01*
X136025344Y-74412008D01*
X136011707Y-74383374D01*
X136000624Y-74359010D01*
X135993303Y-74341642D01*
X135990926Y-74334207D01*
X135988062Y-74322640D01*
X135984902Y-74315384D01*
X135969566Y-74280965D01*
X135954007Y-74237237D01*
X135937809Y-74182892D01*
X135920558Y-74116619D01*
X135916260Y-74098980D01*
X135907683Y-74063498D01*
X135899663Y-74030533D01*
X135893044Y-74003540D01*
X135888671Y-73985972D01*
X135888363Y-73984765D01*
X135881986Y-73959428D01*
X135875724Y-73933980D01*
X135875638Y-73933624D01*
X135861969Y-73880548D01*
X135849149Y-73838790D01*
X135836289Y-73806143D01*
X135822498Y-73780400D01*
X135806887Y-73759353D01*
X135804217Y-73756336D01*
X135783525Y-73739399D01*
X135764002Y-73735847D01*
X135745422Y-73745752D01*
X135727557Y-73769187D01*
X135720233Y-73783041D01*
X135700698Y-73824557D01*
X135686819Y-73856657D01*
X135678969Y-73878430D01*
X135677261Y-73887202D01*
X135674841Y-73901227D01*
X135671070Y-73912847D01*
X135663767Y-73934225D01*
X135654434Y-73965913D01*
X135643890Y-74004884D01*
X135632955Y-74048112D01*
X135622539Y-74092161D01*
X135603888Y-74166635D01*
X135582888Y-74234563D01*
X135557608Y-74301499D01*
X135526120Y-74373000D01*
X135521923Y-74381960D01*
X135500416Y-74427905D01*
X135484295Y-74463121D01*
X135472944Y-74489125D01*
X135465747Y-74507432D01*
X135462086Y-74519559D01*
X135461345Y-74527022D01*
X135296492Y-74527022D01*
X135281983Y-74503935D01*
X135259475Y-74474460D01*
G37*
G36*
X137890230Y-74286935D02*
G01*
X137888446Y-74294813D01*
X137880939Y-74310941D01*
X137869498Y-74332187D01*
X137855913Y-74355421D01*
X137841973Y-74377509D01*
X137829468Y-74395321D01*
X137825374Y-74400424D01*
X137819123Y-74409936D01*
X137818362Y-74412618D01*
X137814782Y-74419557D01*
X137805092Y-74435265D01*
X137790871Y-74457242D01*
X137777449Y-74477423D01*
X137760759Y-74502590D01*
X137747355Y-74523463D01*
X137738811Y-74537544D01*
X137736536Y-74542225D01*
X137732372Y-74549534D01*
X137722899Y-74560819D01*
X137712960Y-74574323D01*
X137709261Y-74584400D01*
X137705399Y-74592620D01*
X137702902Y-74593342D01*
X137695972Y-74598969D01*
X137692227Y-74606939D01*
X137684548Y-74622559D01*
X137679460Y-74629101D01*
X137671733Y-74638672D01*
X137659028Y-74656151D01*
X137643864Y-74678055D01*
X137641210Y-74681987D01*
X137626636Y-74703374D01*
X137614892Y-74720072D01*
X137608104Y-74729074D01*
X137607491Y-74729718D01*
X137602024Y-74736613D01*
X137591059Y-74751822D01*
X137576737Y-74772361D01*
X137573245Y-74777450D01*
X137558436Y-74798786D01*
X137546466Y-74815466D01*
X137539487Y-74824504D01*
X137538823Y-74825181D01*
X137532688Y-74832493D01*
X137522264Y-74846693D01*
X137518231Y-74852456D01*
X137505721Y-74869718D01*
X137495043Y-74883081D01*
X137492989Y-74885333D01*
X137485533Y-74895261D01*
X137484241Y-74899040D01*
X137480069Y-74906794D01*
X137469904Y-74919390D01*
X137468705Y-74920714D01*
X137454305Y-74937906D01*
X137438980Y-74958232D01*
X137436644Y-74961557D01*
X137425537Y-74977111D01*
X137417616Y-74987330D01*
X137416206Y-74988832D01*
X137410197Y-74995746D01*
X137398808Y-75010001D01*
X137388795Y-75022926D01*
X137373732Y-75041937D01*
X137360416Y-75057630D01*
X137354554Y-75063839D01*
X137343814Y-75075997D01*
X137330606Y-75093373D01*
X137327409Y-75097933D01*
X137314366Y-75115644D01*
X137302516Y-75129741D01*
X137300261Y-75132027D01*
X137290978Y-75141865D01*
X137275810Y-75158965D01*
X137257599Y-75180109D01*
X137252206Y-75186477D01*
X137232534Y-75209420D01*
X137213981Y-75230419D01*
X137199957Y-75245626D01*
X137197786Y-75247846D01*
X137184486Y-75262110D01*
X137166705Y-75282374D01*
X137150054Y-75302133D01*
X137132242Y-75322459D01*
X137106528Y-75350098D01*
X137074942Y-75383015D01*
X137039512Y-75419180D01*
X137002271Y-75456558D01*
X136965246Y-75493117D01*
X136930469Y-75526824D01*
X136899969Y-75555647D01*
X136875776Y-75577551D01*
X136870527Y-75582067D01*
X136849959Y-75599614D01*
X136833584Y-75613832D01*
X136824055Y-75622410D01*
X136822818Y-75623664D01*
X136815469Y-75630118D01*
X136804413Y-75635045D01*
X136787940Y-75638634D01*
X136764341Y-75641076D01*
X136731907Y-75642562D01*
X136688928Y-75643283D01*
X136645491Y-75643436D01*
X136596841Y-75643480D01*
X136559902Y-75643849D01*
X136532745Y-75644895D01*
X136513443Y-75646973D01*
X136500068Y-75650435D01*
X136490693Y-75655636D01*
X136483391Y-75662930D01*
X136476233Y-75672669D01*
X136474781Y-75674754D01*
X136464116Y-75688883D01*
X136448001Y-75709008D01*
X136429881Y-75730956D01*
X136413200Y-75750557D01*
X136401402Y-75763640D01*
X136401271Y-75763774D01*
X136397289Y-75765706D01*
X136388790Y-75767360D01*
X136374853Y-75768757D01*
X136354558Y-75769915D01*
X136326985Y-75770855D01*
X136291213Y-75771596D01*
X136246322Y-75772157D01*
X136191392Y-75772557D01*
X136125502Y-75772817D01*
X136047733Y-75772956D01*
X135965899Y-75772993D01*
X135539538Y-75772993D01*
X135519755Y-75751816D01*
X135507397Y-75736488D01*
X135500495Y-75723857D01*
X135499973Y-75721131D01*
X135496499Y-75712523D01*
X135493949Y-75711624D01*
X135487068Y-75706065D01*
X135484073Y-75699691D01*
X135478957Y-75689332D01*
X135468052Y-75670426D01*
X135453051Y-75645827D01*
X135438604Y-75622980D01*
X135421478Y-75595814D01*
X135407034Y-75571956D01*
X135396966Y-75554259D01*
X135393134Y-75546268D01*
X135387075Y-75536193D01*
X135383258Y-75534336D01*
X135377374Y-75529155D01*
X135377234Y-75527747D01*
X135373812Y-75519507D01*
X135364944Y-75503348D01*
X135352726Y-75482713D01*
X135339255Y-75461042D01*
X135326628Y-75441780D01*
X135316942Y-75428367D01*
X135316004Y-75427227D01*
X135309621Y-75413327D01*
X135309046Y-75408476D01*
X135310141Y-75406443D01*
X135314031Y-75404688D01*
X135321626Y-75403188D01*
X135333835Y-75401925D01*
X135351567Y-75400880D01*
X135375733Y-75400032D01*
X135407241Y-75399361D01*
X135447001Y-75398848D01*
X135495922Y-75398473D01*
X135554914Y-75398217D01*
X135624886Y-75398059D01*
X135706748Y-75397980D01*
X135793555Y-75397960D01*
X136278063Y-75397960D01*
X136316897Y-75423714D01*
X136341424Y-75439653D01*
X136362865Y-75452247D01*
X136383268Y-75461889D01*
X136404682Y-75468973D01*
X136429158Y-75473892D01*
X136458743Y-75477039D01*
X136495489Y-75478808D01*
X136541443Y-75479592D01*
X136598655Y-75479783D01*
X136609044Y-75479785D01*
X136662416Y-75479717D01*
X136703816Y-75479439D01*
X136734911Y-75478838D01*
X136757364Y-75477801D01*
X136772843Y-75476217D01*
X136783013Y-75473973D01*
X136789539Y-75470956D01*
X136793838Y-75467316D01*
X136816437Y-75441980D01*
X136837960Y-75415049D01*
X136843423Y-75407555D01*
X136857159Y-75389433D01*
X136877320Y-75364436D01*
X136901170Y-75335793D01*
X136925974Y-75306731D01*
X136948998Y-75280479D01*
X136967507Y-75260266D01*
X136972862Y-75254765D01*
X136981396Y-75245656D01*
X136996626Y-75228843D01*
X137016256Y-75206877D01*
X137034231Y-75186577D01*
X137056689Y-75161325D01*
X137077582Y-75138215D01*
X137094239Y-75120179D01*
X137102524Y-75111570D01*
X137115107Y-75098240D01*
X137132986Y-75078259D01*
X137152744Y-75055462D01*
X137157074Y-75050366D01*
X137175346Y-75028879D01*
X137191011Y-75010645D01*
X137201386Y-74998783D01*
X137203069Y-74996930D01*
X137212371Y-74985853D01*
X137225391Y-74969159D01*
X137230269Y-74962671D01*
X137244109Y-74944940D01*
X137256404Y-74930618D01*
X137259469Y-74927463D01*
X137270143Y-74915332D01*
X137283369Y-74897992D01*
X137286634Y-74893369D01*
X137300266Y-74874723D01*
X137313051Y-74858809D01*
X137315291Y-74856285D01*
X137324518Y-74843058D01*
X137327409Y-74834124D01*
X137330667Y-74825896D01*
X137332758Y-74825181D01*
X137339478Y-74819894D01*
X137348840Y-74806966D01*
X137350043Y-74804973D01*
X137360784Y-74788370D01*
X137370210Y-74776224D01*
X137370430Y-74775993D01*
X137378602Y-74765642D01*
X137390861Y-74748094D01*
X137400696Y-74733127D01*
X137413702Y-74713242D01*
X137424555Y-74697411D01*
X137429511Y-74690798D01*
X137435738Y-74681580D01*
X137436510Y-74679095D01*
X137439890Y-74672202D01*
X137448614Y-74657303D01*
X137460557Y-74637799D01*
X137473593Y-74617095D01*
X137485598Y-74598594D01*
X137494447Y-74585699D01*
X137496494Y-74583032D01*
X137500924Y-74576602D01*
X137508594Y-74563834D01*
X137520246Y-74543419D01*
X137536624Y-74514048D01*
X137558470Y-74474412D01*
X137567107Y-74458671D01*
X137580269Y-74435201D01*
X137592564Y-74414165D01*
X137599856Y-74402416D01*
X137609690Y-74386149D01*
X137621840Y-74364271D01*
X137627598Y-74353330D01*
X137636653Y-74336622D01*
X137645010Y-74326516D01*
X137656593Y-74320604D01*
X137675325Y-74316480D01*
X137692017Y-74313801D01*
X137722228Y-74308875D01*
X137752509Y-74303612D01*
X137772855Y-74299814D01*
X137797956Y-74295819D01*
X137821785Y-74293528D01*
X137828666Y-74293315D01*
X137850515Y-74291289D01*
X137868818Y-74286757D01*
X137884623Y-74283738D01*
X137890230Y-74286935D01*
G37*
G36*
X136009050Y-69800739D02*
G01*
X136073878Y-69801633D01*
X136132145Y-69803022D01*
X136182029Y-69804919D01*
X136221705Y-69807338D01*
X136246622Y-69809894D01*
X136312367Y-69819351D01*
X136370014Y-69828471D01*
X136425038Y-69838216D01*
X136482917Y-69849550D01*
X136539838Y-69861448D01*
X136560194Y-69866229D01*
X136587838Y-69873279D01*
X136616949Y-69881112D01*
X136618255Y-69881474D01*
X136649521Y-69890111D01*
X136681677Y-69898917D01*
X136706899Y-69905752D01*
X136730283Y-69912481D01*
X136749949Y-69918915D01*
X136758040Y-69922081D01*
X136773439Y-69928006D01*
X136794258Y-69934738D01*
X136798953Y-69936107D01*
X136819906Y-69942514D01*
X136837221Y-69948529D01*
X136839865Y-69949586D01*
X136854984Y-69955615D01*
X136875474Y-69963447D01*
X136880778Y-69965429D01*
X136910656Y-69977504D01*
X136949505Y-69994631D01*
X136994315Y-70015347D01*
X137042075Y-70038190D01*
X137089774Y-70061698D01*
X137134402Y-70084408D01*
X137172948Y-70104860D01*
X137202402Y-70121589D01*
X137202843Y-70121855D01*
X137224576Y-70134424D01*
X137242093Y-70143565D01*
X137251886Y-70147459D01*
X137252279Y-70147490D01*
X137259003Y-70152271D01*
X137259221Y-70153849D01*
X137264847Y-70160779D01*
X137272818Y-70164524D01*
X137288438Y-70172203D01*
X137294979Y-70177291D01*
X137304551Y-70185018D01*
X137322030Y-70197723D01*
X137343933Y-70212887D01*
X137347865Y-70215541D01*
X137369260Y-70230159D01*
X137385961Y-70242010D01*
X137394957Y-70248944D01*
X137395597Y-70249589D01*
X137402924Y-70255807D01*
X137417153Y-70266247D01*
X137422872Y-70270228D01*
X137438451Y-70281318D01*
X137448667Y-70289312D01*
X137450147Y-70290751D01*
X137457759Y-70297247D01*
X137470604Y-70306545D01*
X137496313Y-70326296D01*
X137528964Y-70354720D01*
X137566780Y-70390002D01*
X137607987Y-70430328D01*
X137650809Y-70473882D01*
X137693472Y-70518849D01*
X137734200Y-70563413D01*
X137771218Y-70605760D01*
X137802751Y-70644075D01*
X137810876Y-70654512D01*
X137828559Y-70677318D01*
X137843861Y-70696564D01*
X137854354Y-70709214D01*
X137856699Y-70711785D01*
X137865972Y-70725518D01*
X137869516Y-70733946D01*
X137875286Y-70744934D01*
X137879363Y-70747544D01*
X137885493Y-70753167D01*
X137892872Y-70766823D01*
X137893369Y-70768000D01*
X137900710Y-70782052D01*
X137907042Y-70788423D01*
X137907374Y-70788456D01*
X137913626Y-70794068D01*
X137917222Y-70802054D01*
X137924801Y-70817668D01*
X137929787Y-70824215D01*
X137941541Y-70839597D01*
X137957838Y-70865431D01*
X137977660Y-70899714D01*
X137999990Y-70940446D01*
X138023810Y-70985625D01*
X138048100Y-71033250D01*
X138071843Y-71081321D01*
X138094022Y-71127835D01*
X138113617Y-71170793D01*
X138129611Y-71208192D01*
X138140986Y-71238031D01*
X138142288Y-71241906D01*
X138150682Y-71266210D01*
X138159107Y-71288637D01*
X138162321Y-71296456D01*
X138169840Y-71316213D01*
X138177771Y-71340483D01*
X138179858Y-71347597D01*
X138187893Y-71374775D01*
X138196819Y-71403310D01*
X138198664Y-71408966D01*
X138206230Y-71433667D01*
X138212703Y-71457692D01*
X138214070Y-71463517D01*
X138218928Y-71484158D01*
X138225466Y-71510370D01*
X138229224Y-71524886D01*
X138236466Y-71554107D01*
X138243964Y-71586937D01*
X138247438Y-71603302D01*
X138253077Y-71630083D01*
X138258687Y-71655353D01*
X138261695Y-71668080D01*
X138265581Y-71686924D01*
X138270138Y-71713607D01*
X138274393Y-71742431D01*
X138274481Y-71743087D01*
X138278810Y-71775297D01*
X138283949Y-71813538D01*
X138288893Y-71850329D01*
X138289601Y-71855597D01*
X138292371Y-71884749D01*
X138294563Y-71924979D01*
X138296177Y-71973737D01*
X138297214Y-72028477D01*
X138297673Y-72086651D01*
X138297556Y-72145710D01*
X138296861Y-72203106D01*
X138295590Y-72256292D01*
X138293742Y-72302720D01*
X138291318Y-72339841D01*
X138289562Y-72356778D01*
X138278001Y-72441398D01*
X138265843Y-72519638D01*
X138253433Y-72589507D01*
X138241116Y-72649016D01*
X138233461Y-72680671D01*
X138227049Y-72705366D01*
X138220806Y-72729487D01*
X138220205Y-72731812D01*
X138214831Y-72751182D01*
X138207129Y-72777255D01*
X138200309Y-72799429D01*
X138193847Y-72821948D01*
X138190126Y-72838884D01*
X138189948Y-72846557D01*
X138196028Y-72844436D01*
X138206126Y-72834796D01*
X138216919Y-72821612D01*
X138225080Y-72808857D01*
X138227481Y-72801705D01*
X138231513Y-72793780D01*
X138233849Y-72793181D01*
X138240778Y-72787555D01*
X138244524Y-72779584D01*
X138252018Y-72763975D01*
X138256916Y-72757423D01*
X138266136Y-72745994D01*
X138279390Y-72727588D01*
X138294690Y-72705222D01*
X138310049Y-72681912D01*
X138323477Y-72660678D01*
X138332987Y-72644536D01*
X138336590Y-72636509D01*
X138340460Y-72629601D01*
X138341704Y-72629347D01*
X138348004Y-72623937D01*
X138358125Y-72610438D01*
X138363531Y-72602072D01*
X138374245Y-72586051D01*
X138382347Y-72576329D01*
X138384504Y-72574980D01*
X138394724Y-72580792D01*
X138408722Y-72596453D01*
X138424855Y-72619299D01*
X138441477Y-72646665D01*
X138456943Y-72675887D01*
X138469610Y-72704300D01*
X138476380Y-72723811D01*
X138484114Y-72750544D01*
X138491658Y-72776546D01*
X138495175Y-72788631D01*
X138498317Y-72806313D01*
X138500802Y-72833496D01*
X138502328Y-72866050D01*
X138502663Y-72890913D01*
X138502514Y-72916777D01*
X138501793Y-72937888D01*
X138499940Y-72956840D01*
X138496394Y-72976229D01*
X138490593Y-72998649D01*
X138481977Y-73026694D01*
X138469985Y-73062961D01*
X138457451Y-73100027D01*
X138430915Y-73178233D01*
X138408448Y-73244298D01*
X138389778Y-73299008D01*
X138374634Y-73343149D01*
X138362746Y-73377508D01*
X138353842Y-73402872D01*
X138347651Y-73420028D01*
X138343902Y-73429762D01*
X138343486Y-73430738D01*
X138337765Y-73446131D01*
X138331141Y-73466942D01*
X138329771Y-73471651D01*
X138323272Y-73492613D01*
X138317033Y-73509930D01*
X138315919Y-73512564D01*
X138311336Y-73524445D01*
X138303672Y-73545972D01*
X138294091Y-73573829D01*
X138286040Y-73597799D01*
X138273276Y-73635677D01*
X138258147Y-73679780D01*
X138242929Y-73723510D01*
X138234348Y-73747812D01*
X138221548Y-73784179D01*
X138206193Y-73828392D01*
X138190042Y-73875358D01*
X138174852Y-73919986D01*
X138171974Y-73928510D01*
X138156292Y-73975100D01*
X138144091Y-74010446D01*
X138134291Y-74036156D01*
X138125813Y-74053841D01*
X138117578Y-74065108D01*
X138108507Y-74071566D01*
X138097521Y-74074825D01*
X138083541Y-74076493D01*
X138072042Y-74077514D01*
X138039413Y-74080998D01*
X138002807Y-74085485D01*
X137978604Y-74088798D01*
X137924148Y-74096379D01*
X137866992Y-74103717D01*
X137813054Y-74110076D01*
X137779154Y-74113671D01*
X137753810Y-74115472D01*
X137740500Y-74113308D01*
X137737777Y-74105296D01*
X137744196Y-74089553D01*
X137751039Y-74077026D01*
X137771303Y-74039387D01*
X137794287Y-73994029D01*
X137818589Y-73943975D01*
X137842806Y-73892252D01*
X137865533Y-73841884D01*
X137885370Y-73795896D01*
X137900911Y-73757313D01*
X137906895Y-73740993D01*
X137917810Y-73710514D01*
X137927315Y-73686318D01*
X137933070Y-73672805D01*
X137940761Y-73653096D01*
X137951378Y-73623034D01*
X137964044Y-73585363D01*
X137977884Y-73542826D01*
X137992020Y-73498167D01*
X138005578Y-73454130D01*
X138017681Y-73413458D01*
X138027452Y-73378897D01*
X138030205Y-73368579D01*
X138043201Y-73313332D01*
X138050346Y-73268553D01*
X138051706Y-73232423D01*
X138047346Y-73203124D01*
X138037332Y-73178837D01*
X138037105Y-73178443D01*
X138023194Y-73155440D01*
X138008866Y-73133409D01*
X137996565Y-73115976D01*
X137988832Y-73106846D01*
X137982730Y-73099523D01*
X137972361Y-73085303D01*
X137968375Y-73079570D01*
X137957302Y-73063994D01*
X137949344Y-73053777D01*
X137947919Y-73052295D01*
X137941818Y-73044972D01*
X137931448Y-73030752D01*
X137927463Y-73025020D01*
X137916426Y-73009448D01*
X137908551Y-72999231D01*
X137907159Y-72997745D01*
X137893526Y-72982704D01*
X137878476Y-72961587D01*
X137865267Y-72939475D01*
X137857160Y-72921444D01*
X137856419Y-72918687D01*
X137856467Y-72900620D01*
X137861379Y-72873447D01*
X137870205Y-72840401D01*
X137881995Y-72804712D01*
X137895800Y-72769610D01*
X137907802Y-72743837D01*
X137913070Y-72726975D01*
X137913825Y-72719403D01*
X137916145Y-72706279D01*
X137918581Y-72702054D01*
X137923025Y-72692590D01*
X137930067Y-72671089D01*
X137939336Y-72638824D01*
X137950460Y-72597068D01*
X137958681Y-72564752D01*
X137965481Y-72537686D01*
X137972055Y-72511676D01*
X137975468Y-72498268D01*
X137981949Y-72472920D01*
X137988446Y-72447466D01*
X137988532Y-72447127D01*
X137995776Y-72416134D01*
X138002964Y-72379746D01*
X138010421Y-72336038D01*
X138018471Y-72283085D01*
X138027436Y-72218959D01*
X138029829Y-72201175D01*
X138032952Y-72168160D01*
X138035196Y-72124422D01*
X138036583Y-72072845D01*
X138037133Y-72016316D01*
X138036864Y-71957718D01*
X138035798Y-71899936D01*
X138033954Y-71845856D01*
X138031353Y-71798362D01*
X138028014Y-71760340D01*
X138026689Y-71749906D01*
X138018233Y-71691785D01*
X138011009Y-71645710D01*
X138004759Y-71610167D01*
X137999224Y-71583648D01*
X137996462Y-71572617D01*
X137991072Y-71552603D01*
X137984014Y-71526313D01*
X137979065Y-71507839D01*
X137972175Y-71482897D01*
X137965744Y-71460943D01*
X137962218Y-71449879D01*
X137956642Y-71432634D01*
X137949776Y-71409964D01*
X137947501Y-71402148D01*
X137931900Y-71355810D01*
X137909817Y-71301377D01*
X137882728Y-71241826D01*
X137852111Y-71180136D01*
X137819440Y-71119286D01*
X137786193Y-71062255D01*
X137754959Y-71013650D01*
X137742327Y-70996109D01*
X137732281Y-70983912D01*
X137728410Y-70980519D01*
X137723128Y-70972681D01*
X137722891Y-70970291D01*
X137718721Y-70960407D01*
X137708385Y-70945814D01*
X137705081Y-70941879D01*
X137688784Y-70922337D01*
X137671802Y-70900818D01*
X137669329Y-70897557D01*
X137657603Y-70882215D01*
X137649434Y-70871977D01*
X137647931Y-70870282D01*
X137642215Y-70863838D01*
X137629973Y-70849619D01*
X137613476Y-70830271D01*
X137606979Y-70822613D01*
X137536130Y-70745416D01*
X137453765Y-70667239D01*
X137436570Y-70652080D01*
X137413783Y-70632174D01*
X137394181Y-70614953D01*
X137380522Y-70602846D01*
X137376420Y-70599132D01*
X137365354Y-70589823D01*
X137348676Y-70576774D01*
X137342161Y-70571857D01*
X137324923Y-70558618D01*
X137311430Y-70547617D01*
X137308409Y-70544923D01*
X137296529Y-70535741D01*
X137279963Y-70525018D01*
X137279429Y-70524702D01*
X137265837Y-70515273D01*
X137259319Y-70508001D01*
X137259221Y-70507416D01*
X137254016Y-70502192D01*
X137252593Y-70502067D01*
X137245152Y-70498625D01*
X137229059Y-70489445D01*
X137207085Y-70476242D01*
X137181996Y-70460733D01*
X137156562Y-70444635D01*
X137133552Y-70429664D01*
X137115733Y-70417537D01*
X137112412Y-70415150D01*
X137100530Y-70407803D01*
X137079385Y-70396046D01*
X137051118Y-70380961D01*
X137017869Y-70363629D01*
X136981780Y-70345132D01*
X136944991Y-70326550D01*
X136909642Y-70308966D01*
X136877875Y-70293461D01*
X136851830Y-70281117D01*
X136833647Y-70273015D01*
X136825571Y-70270231D01*
X136814571Y-70267476D01*
X136798507Y-70260845D01*
X136798295Y-70260744D01*
X136755287Y-70241259D01*
X136713734Y-70225199D01*
X136686442Y-70215918D01*
X136662040Y-70207550D01*
X136641651Y-70199897D01*
X136630280Y-70194899D01*
X136613771Y-70189585D01*
X136602437Y-70188403D01*
X136587982Y-70186564D01*
X136581678Y-70183647D01*
X136572213Y-70179102D01*
X136551684Y-70172230D01*
X136522345Y-70163633D01*
X136486451Y-70153915D01*
X136446256Y-70143677D01*
X136404015Y-70133521D01*
X136361983Y-70124051D01*
X136345503Y-70120541D01*
X136319097Y-70114883D01*
X136289828Y-70108413D01*
X136280724Y-70106354D01*
X136232862Y-70096928D01*
X136173268Y-70087684D01*
X136103849Y-70078869D01*
X136026510Y-70070731D01*
X135964526Y-70065227D01*
X135919339Y-70062802D01*
X135863528Y-70061862D01*
X135800018Y-70062316D01*
X135731732Y-70064079D01*
X135661593Y-70067061D01*
X135592524Y-70071174D01*
X135527450Y-70076329D01*
X135496563Y-70079351D01*
X135463576Y-70082816D01*
X135429363Y-70086398D01*
X135401288Y-70089325D01*
X135401100Y-70089345D01*
X135370598Y-70093295D01*
X135329962Y-70099683D01*
X135282356Y-70107913D01*
X135230941Y-70117387D01*
X135178881Y-70127509D01*
X135129338Y-70137684D01*
X135085475Y-70147313D01*
X135055046Y-70154617D01*
X135007075Y-70167018D01*
X134972302Y-70176435D01*
X134954469Y-70181666D01*
X134939696Y-70186134D01*
X134916517Y-70192992D01*
X134889632Y-70200851D01*
X134886281Y-70201824D01*
X134857210Y-70210600D01*
X134829342Y-70219580D01*
X134808520Y-70226879D01*
X134807865Y-70227129D01*
X134785341Y-70235342D01*
X134757690Y-70244856D01*
X134741990Y-70250024D01*
X134712638Y-70260433D01*
X134680656Y-70273174D01*
X134665077Y-70279978D01*
X134644553Y-70289163D01*
X134629524Y-70295508D01*
X134623786Y-70297503D01*
X134615623Y-70300497D01*
X134597811Y-70308665D01*
X134572748Y-70320785D01*
X134542829Y-70335635D01*
X134510452Y-70351995D01*
X134478013Y-70368643D01*
X134447909Y-70384357D01*
X134422536Y-70397917D01*
X134404292Y-70408100D01*
X134395573Y-70413686D01*
X134395328Y-70413931D01*
X134387802Y-70419180D01*
X134372333Y-70428270D01*
X134361234Y-70434388D01*
X134341705Y-70445569D01*
X134326528Y-70455415D01*
X134321986Y-70459003D01*
X134308267Y-70467909D01*
X134299825Y-70471395D01*
X134288832Y-70477322D01*
X134286228Y-70481611D01*
X134280609Y-70488164D01*
X134272630Y-70491826D01*
X134257015Y-70499431D01*
X134250469Y-70504443D01*
X134239602Y-70513517D01*
X134223101Y-70525874D01*
X134218040Y-70529470D01*
X134205686Y-70538172D01*
X134195167Y-70545814D01*
X134184250Y-70554164D01*
X134170704Y-70564990D01*
X134152299Y-70580060D01*
X134126802Y-70601141D01*
X134109818Y-70615218D01*
X134073159Y-70646654D01*
X134034939Y-70681254D01*
X133997446Y-70716783D01*
X133962970Y-70751009D01*
X133933799Y-70781696D01*
X133912223Y-70806612D01*
X133907738Y-70812407D01*
X133893565Y-70830662D01*
X133881040Y-70845531D01*
X133876982Y-70849825D01*
X133865412Y-70862913D01*
X133849044Y-70883819D01*
X133829401Y-70910338D01*
X133808006Y-70940261D01*
X133786383Y-70971382D01*
X133766054Y-71001493D01*
X133748543Y-71028387D01*
X133735372Y-71049857D01*
X133728065Y-71063696D01*
X133727087Y-71067055D01*
X133722457Y-71075513D01*
X133721537Y-71075982D01*
X133716345Y-71082873D01*
X133706600Y-71099970D01*
X133693374Y-71125056D01*
X133677737Y-71155913D01*
X133660760Y-71190322D01*
X133643514Y-71226067D01*
X133627069Y-71260929D01*
X133612497Y-71292690D01*
X133600868Y-71319133D01*
X133593253Y-71338040D01*
X133590711Y-71346958D01*
X133588197Y-71356402D01*
X133581762Y-71373685D01*
X133576563Y-71386240D01*
X133560364Y-71430037D01*
X133544677Y-71484101D01*
X133534847Y-71524886D01*
X133528864Y-71551262D01*
X133522704Y-71577789D01*
X133521507Y-71582846D01*
X133513661Y-71618244D01*
X133506086Y-71657933D01*
X133498195Y-71705175D01*
X133490859Y-71753315D01*
X133485922Y-71797659D01*
X133482363Y-71852330D01*
X133480174Y-71914108D01*
X133479348Y-71979772D01*
X133479880Y-72046101D01*
X133481761Y-72109875D01*
X133484986Y-72167873D01*
X133489548Y-72216876D01*
X133491867Y-72234040D01*
X133499432Y-72283399D01*
X133505431Y-72321664D01*
X133510269Y-72351234D01*
X133514353Y-72374509D01*
X133518089Y-72393890D01*
X133521883Y-72411775D01*
X133522161Y-72413034D01*
X133528142Y-72440136D01*
X133534194Y-72467740D01*
X133535646Y-72474403D01*
X133542401Y-72502744D01*
X133551205Y-72535957D01*
X133560957Y-72570258D01*
X133570553Y-72601863D01*
X133578890Y-72626988D01*
X133583856Y-72639758D01*
X133589528Y-72654111D01*
X133597050Y-72675353D01*
X133601089Y-72687490D01*
X133609421Y-72711808D01*
X133617813Y-72734243D01*
X133621017Y-72742040D01*
X133628337Y-72758909D01*
X133638752Y-72782877D01*
X133649165Y-72806819D01*
X133663730Y-72849742D01*
X133666787Y-72887154D01*
X133658007Y-72921354D01*
X133637061Y-72954638D01*
X133626275Y-72967060D01*
X133609212Y-72987060D01*
X133592545Y-73008923D01*
X133590821Y-73011383D01*
X133579646Y-73026950D01*
X133571550Y-73037168D01*
X133570071Y-73038658D01*
X133562188Y-73047940D01*
X133549505Y-73065980D01*
X133533987Y-73089692D01*
X133517596Y-73115989D01*
X133502294Y-73141787D01*
X133490044Y-73163999D01*
X133488773Y-73166473D01*
X133474868Y-73201471D01*
X133468066Y-73235873D01*
X133468840Y-73265925D01*
X133474222Y-73282522D01*
X133478730Y-73293685D01*
X133486052Y-73314654D01*
X133495084Y-73342174D01*
X133502563Y-73365960D01*
X133512603Y-73398459D01*
X133522080Y-73429068D01*
X133529707Y-73453637D01*
X133533200Y-73464832D01*
X133542510Y-73492076D01*
X133555236Y-73526127D01*
X133569217Y-73561349D01*
X133580284Y-73587570D01*
X133586188Y-73601720D01*
X133595734Y-73625352D01*
X133607629Y-73655237D01*
X133620578Y-73688144D01*
X133621246Y-73689852D01*
X133634299Y-73723038D01*
X133646446Y-73753573D01*
X133656362Y-73778148D01*
X133662723Y-73793455D01*
X133662889Y-73793839D01*
X133683036Y-73840522D01*
X133700502Y-73881772D01*
X133702221Y-73885893D01*
X133712384Y-73910286D01*
X133725532Y-73941828D01*
X133739399Y-73975081D01*
X133751718Y-74004608D01*
X133752686Y-74006926D01*
X133761483Y-74027062D01*
X133772994Y-74052239D01*
X133779721Y-74066510D01*
X133790267Y-74090610D01*
X133793568Y-74106655D01*
X133788203Y-74116192D01*
X133772750Y-74120770D01*
X133745788Y-74121938D01*
X133729005Y-74121754D01*
X133698455Y-74120988D01*
X133670218Y-74119915D01*
X133649244Y-74118734D01*
X133645261Y-74118403D01*
X133621429Y-74115256D01*
X133593843Y-74110327D01*
X133567126Y-74104586D01*
X133545903Y-74099005D01*
X133536501Y-74095572D01*
X133522882Y-74089073D01*
X133505476Y-74081024D01*
X133477206Y-74062817D01*
X133447491Y-74034459D01*
X133418856Y-73998846D01*
X133393829Y-73958871D01*
X133386561Y-73944740D01*
X133374400Y-73918794D01*
X133364958Y-73896986D01*
X133359597Y-73882541D01*
X133358872Y-73879103D01*
X133354577Y-73871161D01*
X133352053Y-73870550D01*
X133345734Y-73865157D01*
X133345234Y-73861925D01*
X133342410Y-73851691D01*
X133335030Y-73833392D01*
X133325403Y-73812489D01*
X133311046Y-73782546D01*
X133296708Y-73751966D01*
X133283583Y-73723376D01*
X133272865Y-73699408D01*
X133265749Y-73682688D01*
X133263409Y-73675970D01*
X133262698Y-73672918D01*
X133260026Y-73665917D01*
X133254587Y-73653088D01*
X133245575Y-73632553D01*
X133232183Y-73602432D01*
X133223297Y-73582531D01*
X133215046Y-73562806D01*
X133209820Y-73547893D01*
X133208859Y-73543248D01*
X133206260Y-73533239D01*
X133199696Y-73516035D01*
X133195967Y-73507375D01*
X133182638Y-73475966D01*
X133167462Y-73437886D01*
X133152596Y-73398735D01*
X133140197Y-73364113D01*
X133136261Y-73352322D01*
X133128935Y-73330700D01*
X133122247Y-73312648D01*
X133120322Y-73308000D01*
X133114191Y-73292047D01*
X133107492Y-73271845D01*
X133107081Y-73270497D01*
X133100522Y-73249326D01*
X133092310Y-73223481D01*
X133088774Y-73212537D01*
X133062140Y-73122337D01*
X133043957Y-73041036D01*
X133033927Y-72967072D01*
X133031570Y-72913304D01*
X133032149Y-72872633D01*
X133034505Y-72839763D01*
X133039570Y-72810655D01*
X133048274Y-72781269D01*
X133061547Y-72747565D01*
X133078561Y-72709345D01*
X133088832Y-72686063D01*
X133096362Y-72667405D01*
X133099706Y-72656983D01*
X133099758Y-72656407D01*
X133102713Y-72645287D01*
X133106079Y-72637961D01*
X133113564Y-72621317D01*
X133116093Y-72614188D01*
X133124667Y-72603847D01*
X133139206Y-72603926D01*
X133157539Y-72613903D01*
X133172711Y-72627825D01*
X133188208Y-72646574D01*
X133208704Y-72674207D01*
X133232264Y-72707865D01*
X133256951Y-72744689D01*
X133280830Y-72781820D01*
X133301966Y-72816400D01*
X133311140Y-72832265D01*
X133325236Y-72856011D01*
X133335380Y-72869880D01*
X133341598Y-72873402D01*
X133343916Y-72866106D01*
X133342359Y-72847519D01*
X133336955Y-72817171D01*
X133327730Y-72774590D01*
X133316897Y-72728403D01*
X133310412Y-72698568D01*
X133302771Y-72659010D01*
X133294642Y-72613519D01*
X133286690Y-72565888D01*
X133279583Y-72519908D01*
X133276727Y-72499973D01*
X133262110Y-72382566D01*
X133252242Y-72273537D01*
X133246861Y-72168581D01*
X133245705Y-72063392D01*
X133246730Y-72005611D01*
X133248191Y-71960712D01*
X133250058Y-71917618D01*
X133252167Y-71879274D01*
X133254356Y-71848620D01*
X133256464Y-71828599D01*
X133256505Y-71828322D01*
X133260151Y-71802277D01*
X133264521Y-71768684D01*
X133268840Y-71733553D01*
X133270124Y-71722631D01*
X133274197Y-71689526D01*
X133278579Y-71657154D01*
X133282525Y-71630914D01*
X133283741Y-71623758D01*
X133290060Y-71589723D01*
X133297304Y-71552657D01*
X133304845Y-71515572D01*
X133312052Y-71481480D01*
X133318296Y-71453392D01*
X133322948Y-71434320D01*
X133324373Y-71429423D01*
X133329708Y-71412140D01*
X133336260Y-71389427D01*
X133338402Y-71381691D01*
X133344639Y-71359936D01*
X133350316Y-71341840D01*
X133351886Y-71337369D01*
X133357141Y-71322042D01*
X133363721Y-71301307D01*
X133365197Y-71296456D01*
X133371928Y-71275546D01*
X133378212Y-71258243D01*
X133379332Y-71255544D01*
X133384474Y-71242183D01*
X133392090Y-71220678D01*
X133399899Y-71197584D01*
X133408076Y-71173437D01*
X133415873Y-71152212D01*
X133424835Y-71130087D01*
X133436511Y-71103244D01*
X133452373Y-71068027D01*
X133463011Y-71044535D01*
X133472439Y-71023602D01*
X133476965Y-71013476D01*
X133486606Y-70994841D01*
X133496707Y-70978330D01*
X133505349Y-70962422D01*
X133508885Y-70949918D01*
X133511763Y-70939373D01*
X133514000Y-70937333D01*
X133519903Y-70930371D01*
X133529825Y-70914676D01*
X133541741Y-70893739D01*
X133553628Y-70871052D01*
X133559743Y-70858402D01*
X133566985Y-70846711D01*
X133571959Y-70843060D01*
X133576864Y-70837696D01*
X133577073Y-70835598D01*
X133580715Y-70827369D01*
X133590306Y-70811076D01*
X133603849Y-70789736D01*
X133619345Y-70766368D01*
X133634795Y-70743988D01*
X133648200Y-70725615D01*
X133657174Y-70714667D01*
X133664485Y-70704682D01*
X133665718Y-70700960D01*
X133669833Y-70693152D01*
X133679861Y-70680418D01*
X133681060Y-70679059D01*
X133694220Y-70663569D01*
X133710813Y-70643092D01*
X133720002Y-70631397D01*
X133759687Y-70583541D01*
X133808020Y-70530701D01*
X133862331Y-70475503D01*
X133919951Y-70420575D01*
X133978212Y-70368541D01*
X134033932Y-70322436D01*
X134045954Y-70313454D01*
X134063156Y-70301145D01*
X134068026Y-70297735D01*
X134083565Y-70286591D01*
X134093786Y-70278668D01*
X134095302Y-70277257D01*
X134103138Y-70271107D01*
X134120022Y-70259350D01*
X134143445Y-70243622D01*
X134170898Y-70225559D01*
X134199874Y-70206795D01*
X134227863Y-70188966D01*
X134252358Y-70173708D01*
X134270849Y-70162656D01*
X134272590Y-70161666D01*
X134293542Y-70150225D01*
X134321277Y-70135634D01*
X134353560Y-70119010D01*
X134388154Y-70101467D01*
X134422824Y-70084120D01*
X134455334Y-70068085D01*
X134483447Y-70054478D01*
X134504928Y-70044413D01*
X134517541Y-70039006D01*
X134519727Y-70038389D01*
X134528921Y-70035636D01*
X134545389Y-70028681D01*
X134553771Y-70024752D01*
X134571850Y-70016563D01*
X134584779Y-70011698D01*
X134587610Y-70011114D01*
X134596710Y-70008478D01*
X134613264Y-70001809D01*
X134622128Y-69997863D01*
X134642672Y-69989392D01*
X134672408Y-69978303D01*
X134707575Y-69965877D01*
X134744410Y-69953392D01*
X134779152Y-69942128D01*
X134808039Y-69933364D01*
X134824912Y-69928897D01*
X134841041Y-69924954D01*
X134866632Y-69918385D01*
X134897988Y-69910148D01*
X134927194Y-69902343D01*
X134981851Y-69888215D01*
X135034552Y-69875994D01*
X135090635Y-69864511D01*
X135148805Y-69853771D01*
X135173170Y-69849326D01*
X135193692Y-69845381D01*
X135203355Y-69843360D01*
X135216428Y-69841079D01*
X135238699Y-69837880D01*
X135265812Y-69834383D01*
X135271543Y-69833688D01*
X135302631Y-69829759D01*
X135341113Y-69824594D01*
X135380902Y-69819021D01*
X135401100Y-69816087D01*
X135431244Y-69812766D01*
X135473062Y-69809805D01*
X135524731Y-69807220D01*
X135584426Y-69805023D01*
X135650324Y-69803227D01*
X135720603Y-69801847D01*
X135793438Y-69800894D01*
X135867007Y-69800383D01*
X135939485Y-69800327D01*
X136009050Y-69800739D01*
G37*
%TO.C,kibuzzard-63708D29*%
G36*
X121935245Y-90879375D02*
G01*
X121766335Y-90879375D01*
X121850155Y-90705385D01*
X121935245Y-90879375D01*
G37*
G36*
X118179855Y-90587910D02*
G01*
X118216685Y-90672365D01*
X118179855Y-90756185D01*
X118106195Y-90784125D01*
X117943635Y-90784125D01*
X117943635Y-90559335D01*
X118103655Y-90559335D01*
X118179855Y-90587910D01*
G37*
G36*
X119360955Y-90879375D02*
G01*
X119192045Y-90879375D01*
X119275865Y-90705385D01*
X119360955Y-90879375D01*
G37*
G36*
X120274085Y-90587910D02*
G01*
X120310915Y-90672365D01*
X120274085Y-90756185D01*
X120200425Y-90784125D01*
X120037865Y-90784125D01*
X120037865Y-90559335D01*
X120197885Y-90559335D01*
X120274085Y-90587910D01*
G37*
G36*
X117261169Y-90565367D02*
G01*
X117338480Y-90617755D01*
X117379049Y-90669402D01*
X117403391Y-90731208D01*
X117411505Y-90803175D01*
X117403462Y-90875001D01*
X117379332Y-90936384D01*
X117339115Y-90987325D01*
X117262280Y-91038760D01*
X117176555Y-91055905D01*
X117090671Y-91038284D01*
X117013360Y-90985420D01*
X116972791Y-90933703D01*
X116948449Y-90872531D01*
X116940335Y-90801905D01*
X116948378Y-90731279D01*
X116972508Y-90670107D01*
X117012725Y-90618390D01*
X117089560Y-90565526D01*
X117175285Y-90547905D01*
X117261169Y-90565367D01*
G37*
G36*
X110073632Y-91541690D02*
G01*
X110001285Y-91530958D01*
X109930339Y-91513187D01*
X109861476Y-91488547D01*
X109795360Y-91457277D01*
X109732627Y-91419676D01*
X109673882Y-91376108D01*
X109619690Y-91326991D01*
X109570574Y-91272800D01*
X109527005Y-91214054D01*
X109490066Y-91152425D01*
X110411265Y-91152425D01*
X110418885Y-91217195D01*
X110452540Y-91253390D01*
X110523025Y-91265455D01*
X110980225Y-91265455D01*
X111046265Y-91252755D01*
X111067855Y-91224815D01*
X111074205Y-91170840D01*
X111072039Y-91152425D01*
X111156755Y-91152425D01*
X111164375Y-91217195D01*
X111198030Y-91253390D01*
X111268515Y-91265455D01*
X111333920Y-91256883D01*
X111367575Y-91231165D01*
X111379640Y-91198145D01*
X111381545Y-91153695D01*
X111381545Y-91152425D01*
X111483145Y-91152425D01*
X111485050Y-91196875D01*
X111497115Y-91231165D01*
X111530135Y-91256883D01*
X111593635Y-91265455D01*
X111659040Y-91256883D01*
X111692695Y-91231165D01*
X111704760Y-91198145D01*
X111706665Y-91153695D01*
X111706665Y-90735865D01*
X111742154Y-90782149D01*
X111788509Y-90843109D01*
X111845730Y-90918745D01*
X111913816Y-91009056D01*
X111992768Y-91114043D01*
X112082585Y-91233705D01*
X112114335Y-91257835D01*
X112182915Y-91265455D01*
X112248320Y-91256883D01*
X112281975Y-91231165D01*
X112294040Y-91198145D01*
X112295945Y-91153695D01*
X112295945Y-91152425D01*
X112397545Y-91152425D01*
X112405165Y-91217195D01*
X112438820Y-91253390D01*
X112509305Y-91265455D01*
X113012225Y-91265455D01*
X113078265Y-91257835D01*
X113113507Y-91224180D01*
X113125255Y-91153695D01*
X113116682Y-91088290D01*
X113096302Y-91061620D01*
X113510065Y-91061620D01*
X113543085Y-91134645D01*
X113554515Y-91148615D01*
X113591345Y-91187350D01*
X113648495Y-91227355D01*
X113734855Y-91263550D01*
X113789782Y-91274504D01*
X113847885Y-91278155D01*
X113924226Y-91270676D01*
X113997463Y-91248239D01*
X114067595Y-91210845D01*
X114115855Y-91169411D01*
X114127469Y-91152425D01*
X114269525Y-91152425D01*
X114277145Y-91217195D01*
X114310800Y-91253390D01*
X114381285Y-91265455D01*
X114884205Y-91265455D01*
X114950245Y-91257835D01*
X114985487Y-91224180D01*
X114997235Y-91153695D01*
X114997069Y-91152425D01*
X115079785Y-91152425D01*
X115081690Y-91196875D01*
X115093755Y-91231165D01*
X115126775Y-91256883D01*
X115190275Y-91265455D01*
X115255680Y-91256883D01*
X115289335Y-91231165D01*
X115301400Y-91198145D01*
X115303305Y-91153695D01*
X115303305Y-90735865D01*
X115338794Y-90782149D01*
X115385149Y-90843109D01*
X115442370Y-90918745D01*
X115510456Y-91009056D01*
X115589408Y-91114043D01*
X115679225Y-91233705D01*
X115710975Y-91257835D01*
X115779555Y-91265455D01*
X115844960Y-91256883D01*
X115878615Y-91231165D01*
X115890680Y-91198145D01*
X115892585Y-91153695D01*
X115892585Y-91061620D01*
X115975135Y-91061620D01*
X116008155Y-91134645D01*
X116019585Y-91148615D01*
X116056415Y-91187350D01*
X116113565Y-91227355D01*
X116199925Y-91263550D01*
X116254852Y-91274504D01*
X116312955Y-91278155D01*
X116389296Y-91270676D01*
X116462533Y-91248239D01*
X116532665Y-91210845D01*
X116580925Y-91169411D01*
X116619025Y-91113690D01*
X116643790Y-91045904D01*
X116652045Y-90968275D01*
X116643949Y-90892234D01*
X116619660Y-90829210D01*
X116603823Y-90808255D01*
X116715545Y-90808255D01*
X116723998Y-90901441D01*
X116749359Y-90987960D01*
X116791626Y-91067811D01*
X116850800Y-91140995D01*
X116922039Y-91202114D01*
X117000501Y-91245770D01*
X117086187Y-91271964D01*
X117179095Y-91280695D01*
X117271805Y-91271845D01*
X117356895Y-91245294D01*
X117434365Y-91201042D01*
X117490612Y-91151155D01*
X117718845Y-91151155D01*
X117726465Y-91217195D01*
X117760120Y-91252437D01*
X117830605Y-91264185D01*
X117896010Y-91255613D01*
X117929665Y-91229895D01*
X117941730Y-91196240D01*
X117943635Y-91152425D01*
X117943635Y-91008915D01*
X118103655Y-91008915D01*
X118143025Y-91006375D01*
X118192414Y-91123356D01*
X118225434Y-91199979D01*
X118242085Y-91236245D01*
X118265580Y-91261010D01*
X118306220Y-91273075D01*
X118371625Y-91255295D01*
X118430680Y-91218465D01*
X118450365Y-91174015D01*
X118809775Y-91174015D01*
X118828190Y-91217195D01*
X118883435Y-91255295D01*
X118951380Y-91276885D01*
X118992020Y-91264820D01*
X119014880Y-91241325D01*
X119034565Y-91204495D01*
X119100605Y-91067335D01*
X119452395Y-91067335D01*
X119518435Y-91204495D01*
X119538120Y-91242595D01*
X119560980Y-91266725D01*
X119601620Y-91278155D01*
X119669565Y-91256565D01*
X119724810Y-91217513D01*
X119743225Y-91174015D01*
X119735605Y-91151155D01*
X119813075Y-91151155D01*
X119820695Y-91217195D01*
X119854350Y-91252437D01*
X119924835Y-91264185D01*
X119990240Y-91255613D01*
X120023895Y-91229895D01*
X120035960Y-91196240D01*
X120037865Y-91152425D01*
X120037865Y-91008915D01*
X120197885Y-91008915D01*
X120237255Y-91006375D01*
X120286644Y-91123356D01*
X120319664Y-91199979D01*
X120336315Y-91236245D01*
X120359810Y-91261010D01*
X120400450Y-91273075D01*
X120465855Y-91255295D01*
X120524910Y-91218465D01*
X120544595Y-91174015D01*
X120538001Y-91151155D01*
X120614445Y-91151155D01*
X120622065Y-91217195D01*
X120655720Y-91252437D01*
X120726205Y-91264185D01*
X120791610Y-91255613D01*
X120825265Y-91229895D01*
X120837330Y-91196240D01*
X120839235Y-91152425D01*
X120839235Y-91008915D01*
X120999255Y-91008915D01*
X121038625Y-91006375D01*
X121088014Y-91123356D01*
X121121034Y-91199979D01*
X121137685Y-91236245D01*
X121161180Y-91261010D01*
X121201820Y-91273075D01*
X121267225Y-91255295D01*
X121326280Y-91218465D01*
X121345965Y-91174015D01*
X121384065Y-91174015D01*
X121402480Y-91217195D01*
X121457725Y-91255295D01*
X121525670Y-91276885D01*
X121566310Y-91264820D01*
X121589170Y-91241325D01*
X121608855Y-91204495D01*
X121674895Y-91067335D01*
X122026685Y-91067335D01*
X122092725Y-91204495D01*
X122112410Y-91242595D01*
X122135270Y-91266725D01*
X122175910Y-91278155D01*
X122243855Y-91256565D01*
X122299100Y-91217513D01*
X122317515Y-91174015D01*
X122295925Y-91109245D01*
X121970231Y-90436145D01*
X122355615Y-90436145D01*
X122384825Y-90503455D01*
X122659145Y-90913665D01*
X122659145Y-91153695D01*
X122661050Y-91198780D01*
X122673115Y-91233070D01*
X122707405Y-91260375D01*
X122772175Y-91267995D01*
X122836945Y-91260375D01*
X122871235Y-91233705D01*
X122883300Y-91200050D01*
X122885205Y-91156235D01*
X122885205Y-90913665D01*
X123159525Y-90503455D01*
X123188735Y-90436145D01*
X123173177Y-90394870D01*
X123126505Y-90352325D01*
X123052210Y-90320575D01*
X123010935Y-90332640D01*
X122969025Y-90382805D01*
X122772175Y-90697765D01*
X122575325Y-90382805D01*
X122529605Y-90330735D01*
X122491505Y-90320575D01*
X122411495Y-90358040D01*
X122369585Y-90396299D01*
X122355615Y-90436145D01*
X121970231Y-90436145D01*
X121953025Y-90400585D01*
X121911115Y-90351055D01*
X121851425Y-90334545D01*
X121791100Y-90352325D01*
X121748555Y-90399315D01*
X121405655Y-91109245D01*
X121384065Y-91174015D01*
X121345965Y-91174015D01*
X121326915Y-91107975D01*
X121291355Y-91027118D01*
X121262568Y-90960655D01*
X121240555Y-90908585D01*
X121293472Y-90841134D01*
X121325222Y-90762394D01*
X121335805Y-90672365D01*
X121327550Y-90593625D01*
X121302785Y-90522505D01*
X121265320Y-90462180D01*
X121218965Y-90415825D01*
X121147986Y-90370669D01*
X121075596Y-90343576D01*
X121001795Y-90334545D01*
X120727475Y-90334545D01*
X120662070Y-90343117D01*
X120628415Y-90368835D01*
X120616350Y-90402490D01*
X120614445Y-90446305D01*
X120614445Y-91151155D01*
X120538001Y-91151155D01*
X120525545Y-91107975D01*
X120489985Y-91027118D01*
X120461198Y-90960655D01*
X120439185Y-90908585D01*
X120492102Y-90841134D01*
X120523852Y-90762394D01*
X120534435Y-90672365D01*
X120526180Y-90593625D01*
X120501415Y-90522505D01*
X120463950Y-90462180D01*
X120417595Y-90415825D01*
X120346616Y-90370669D01*
X120274226Y-90343576D01*
X120200425Y-90334545D01*
X119926105Y-90334545D01*
X119860700Y-90343117D01*
X119827045Y-90368835D01*
X119814980Y-90402490D01*
X119813075Y-90446305D01*
X119813075Y-91151155D01*
X119735605Y-91151155D01*
X119721635Y-91109245D01*
X119378735Y-90400585D01*
X119336825Y-90351055D01*
X119277135Y-90334545D01*
X119216810Y-90352325D01*
X119174265Y-90399315D01*
X118831365Y-91109245D01*
X118809775Y-91174015D01*
X118450365Y-91174015D01*
X118431315Y-91107975D01*
X118395755Y-91027118D01*
X118366968Y-90960655D01*
X118344955Y-90908585D01*
X118397872Y-90841134D01*
X118429622Y-90762394D01*
X118440205Y-90672365D01*
X118431950Y-90593625D01*
X118407185Y-90522505D01*
X118369720Y-90462180D01*
X118323365Y-90415825D01*
X118252386Y-90370669D01*
X118179996Y-90343576D01*
X118106195Y-90334545D01*
X117831875Y-90334545D01*
X117766470Y-90343117D01*
X117732815Y-90368835D01*
X117720750Y-90402490D01*
X117718845Y-90446305D01*
X117718845Y-91151155D01*
X117490612Y-91151155D01*
X117504215Y-91139090D01*
X117562000Y-91064557D01*
X117603275Y-90982562D01*
X117628040Y-90893107D01*
X117636295Y-90796190D01*
X117627643Y-90699630D01*
X117601687Y-90611246D01*
X117558428Y-90531038D01*
X117497865Y-90459005D01*
X117425554Y-90399553D01*
X117347052Y-90357087D01*
X117262359Y-90331608D01*
X117171475Y-90323115D01*
X117085115Y-90332005D01*
X117001295Y-90358675D01*
X116923507Y-90400902D01*
X116855245Y-90456465D01*
X116798095Y-90526156D01*
X116753645Y-90610770D01*
X116725070Y-90706179D01*
X116715545Y-90808255D01*
X116603823Y-90808255D01*
X116583306Y-90781109D01*
X116539015Y-90749835D01*
X116488532Y-90728721D01*
X116433605Y-90711100D01*
X116378677Y-90697289D01*
X116328195Y-90687605D01*
X116247550Y-90658395D01*
X116215165Y-90601880D01*
X116242470Y-90547270D01*
X116311050Y-90527585D01*
X116378995Y-90544095D01*
X116398680Y-90560605D01*
X116413285Y-90573305D01*
X116479325Y-90598705D01*
X116524410Y-90582830D01*
X116568225Y-90535205D01*
X116598705Y-90465355D01*
X116559335Y-90403125D01*
X116527585Y-90378995D01*
X116440590Y-90338990D01*
X116374391Y-90324226D01*
X116301525Y-90319305D01*
X116212554Y-90328548D01*
X116136989Y-90356276D01*
X116074830Y-90402490D01*
X116028616Y-90461122D01*
X116000888Y-90526103D01*
X115991645Y-90597435D01*
X115999741Y-90672841D01*
X116024030Y-90736500D01*
X116060384Y-90786506D01*
X116104675Y-90820955D01*
X116154840Y-90845879D01*
X116208815Y-90867310D01*
X116262790Y-90884296D01*
X116312955Y-90895885D01*
X116393600Y-90924460D01*
X116425985Y-90973355D01*
X116412862Y-91026977D01*
X116373492Y-91059151D01*
X116307875Y-91069875D01*
X116246915Y-91050190D01*
X116196115Y-91008915D01*
X116139600Y-90961290D01*
X116097055Y-90945415D01*
X116029745Y-90975895D01*
X115988787Y-91023996D01*
X115975135Y-91061620D01*
X115892585Y-91061620D01*
X115892585Y-90448845D01*
X115884965Y-90384075D01*
X115869090Y-90357405D01*
X115836070Y-90342165D01*
X115777650Y-90335815D01*
X115717325Y-90343435D01*
X115681130Y-90373280D01*
X115669065Y-90443765D01*
X115669065Y-90873025D01*
X115634069Y-90827199D01*
X115589196Y-90767615D01*
X115534445Y-90694272D01*
X115469816Y-90607172D01*
X115395309Y-90506312D01*
X115310925Y-90391695D01*
X115281715Y-90358675D01*
X115250600Y-90342800D01*
X115190275Y-90335815D01*
X115128045Y-90343435D01*
X115091850Y-90373280D01*
X115079785Y-90443765D01*
X115079785Y-91152425D01*
X114997069Y-91152425D01*
X114988662Y-91088290D01*
X114962945Y-91054635D01*
X114929290Y-91042570D01*
X114885475Y-91040665D01*
X114494315Y-91040665D01*
X114494315Y-90912395D01*
X114743235Y-90912395D01*
X114809275Y-90904775D01*
X114845470Y-90871120D01*
X114857535Y-90800635D01*
X114848962Y-90735230D01*
X114823245Y-90701575D01*
X114789590Y-90689510D01*
X114745775Y-90687605D01*
X114494315Y-90687605D01*
X114494315Y-90559335D01*
X114884205Y-90559335D01*
X114950245Y-90551715D01*
X114985487Y-90518060D01*
X114997235Y-90447575D01*
X114988662Y-90382170D01*
X114962945Y-90348515D01*
X114929290Y-90336450D01*
X114885475Y-90334545D01*
X114385095Y-90334545D01*
X114293655Y-90358040D01*
X114269525Y-90446305D01*
X114269525Y-91152425D01*
X114127469Y-91152425D01*
X114153955Y-91113690D01*
X114178720Y-91045904D01*
X114186975Y-90968275D01*
X114178879Y-90892234D01*
X114154590Y-90829210D01*
X114118236Y-90781109D01*
X114073945Y-90749835D01*
X114023462Y-90728721D01*
X113968535Y-90711100D01*
X113913607Y-90697289D01*
X113863125Y-90687605D01*
X113782480Y-90658395D01*
X113750095Y-90601880D01*
X113777400Y-90547270D01*
X113845980Y-90527585D01*
X113913925Y-90544095D01*
X113933610Y-90560605D01*
X113948215Y-90573305D01*
X114014255Y-90598705D01*
X114059340Y-90582830D01*
X114103155Y-90535205D01*
X114133635Y-90465355D01*
X114094265Y-90403125D01*
X114062515Y-90378995D01*
X113975520Y-90338990D01*
X113909321Y-90324226D01*
X113836455Y-90319305D01*
X113747484Y-90328548D01*
X113671919Y-90356276D01*
X113609760Y-90402490D01*
X113563546Y-90461122D01*
X113535818Y-90526103D01*
X113526575Y-90597435D01*
X113534671Y-90672841D01*
X113558960Y-90736500D01*
X113595314Y-90786506D01*
X113639605Y-90820955D01*
X113689770Y-90845879D01*
X113743745Y-90867310D01*
X113797720Y-90884296D01*
X113847885Y-90895885D01*
X113928530Y-90924460D01*
X113960915Y-90973355D01*
X113947792Y-91026977D01*
X113908422Y-91059151D01*
X113842805Y-91069875D01*
X113781845Y-91050190D01*
X113731045Y-91008915D01*
X113674530Y-90961290D01*
X113631985Y-90945415D01*
X113564675Y-90975895D01*
X113523717Y-91023996D01*
X113510065Y-91061620D01*
X113096302Y-91061620D01*
X113090965Y-91054635D01*
X113057310Y-91042570D01*
X113013495Y-91040665D01*
X112622335Y-91040665D01*
X112622335Y-90912395D01*
X112871255Y-90912395D01*
X112937295Y-90904775D01*
X112973490Y-90871120D01*
X112985555Y-90800635D01*
X112976982Y-90735230D01*
X112951265Y-90701575D01*
X112917610Y-90689510D01*
X112873795Y-90687605D01*
X112622335Y-90687605D01*
X112622335Y-90559335D01*
X113012225Y-90559335D01*
X113078265Y-90551715D01*
X113113507Y-90518060D01*
X113125255Y-90447575D01*
X113116682Y-90382170D01*
X113090965Y-90348515D01*
X113057310Y-90336450D01*
X113013495Y-90334545D01*
X112513115Y-90334545D01*
X112421675Y-90358040D01*
X112397545Y-90446305D01*
X112397545Y-91152425D01*
X112295945Y-91152425D01*
X112295945Y-90448845D01*
X112288325Y-90384075D01*
X112272450Y-90357405D01*
X112239430Y-90342165D01*
X112181010Y-90335815D01*
X112120685Y-90343435D01*
X112084490Y-90373280D01*
X112072425Y-90443765D01*
X112072425Y-90873025D01*
X112037429Y-90827199D01*
X111992556Y-90767615D01*
X111937805Y-90694272D01*
X111873176Y-90607172D01*
X111798669Y-90506312D01*
X111714285Y-90391695D01*
X111685075Y-90358675D01*
X111653960Y-90342800D01*
X111593635Y-90335815D01*
X111531405Y-90343435D01*
X111495210Y-90373280D01*
X111483145Y-90443765D01*
X111483145Y-91152425D01*
X111381545Y-91152425D01*
X111381545Y-90447575D01*
X111375195Y-90381535D01*
X111340587Y-90346292D01*
X111269785Y-90334545D01*
X111204380Y-90343117D01*
X111170725Y-90368835D01*
X111158660Y-90402490D01*
X111156755Y-90446305D01*
X111156755Y-91152425D01*
X111072039Y-91152425D01*
X111067855Y-91116865D01*
X111042455Y-91087020D01*
X110981495Y-91077495D01*
X110636055Y-91077495D01*
X110636055Y-90447575D01*
X110629705Y-90381535D01*
X110595097Y-90346292D01*
X110524295Y-90334545D01*
X110458890Y-90343117D01*
X110425235Y-90368835D01*
X110413170Y-90402490D01*
X110411265Y-90446305D01*
X110411265Y-91152425D01*
X109490066Y-91152425D01*
X109489405Y-91151322D01*
X109458134Y-91085206D01*
X109433495Y-91016343D01*
X109415724Y-90945397D01*
X109404992Y-90873050D01*
X109401403Y-90800000D01*
X109404992Y-90726950D01*
X109415724Y-90654603D01*
X109433495Y-90583657D01*
X109458134Y-90514794D01*
X109489405Y-90448678D01*
X109527005Y-90385946D01*
X109570574Y-90327200D01*
X109619690Y-90273009D01*
X109673882Y-90223892D01*
X109732627Y-90180324D01*
X109795360Y-90142723D01*
X109861476Y-90111453D01*
X109930339Y-90086813D01*
X110001285Y-90069042D01*
X110073632Y-90058310D01*
X110146682Y-90054722D01*
X123453318Y-90054722D01*
X123526368Y-90058310D01*
X123598715Y-90069042D01*
X123669661Y-90086813D01*
X123738524Y-90111453D01*
X123804640Y-90142723D01*
X123867373Y-90180324D01*
X123926118Y-90223892D01*
X123980310Y-90273009D01*
X124029426Y-90327200D01*
X124072995Y-90385946D01*
X124110595Y-90448678D01*
X124141866Y-90514794D01*
X124166505Y-90583657D01*
X124184276Y-90654603D01*
X124195008Y-90726950D01*
X124198597Y-90800000D01*
X124195008Y-90873050D01*
X124184276Y-90945397D01*
X124166505Y-91016343D01*
X124141866Y-91085206D01*
X124110595Y-91151322D01*
X124072995Y-91214054D01*
X124029426Y-91272800D01*
X123980310Y-91326991D01*
X123926118Y-91376108D01*
X123867373Y-91419676D01*
X123804640Y-91457277D01*
X123738524Y-91488547D01*
X123669661Y-91513187D01*
X123598715Y-91530958D01*
X123526368Y-91541690D01*
X123453318Y-91545278D01*
X110146682Y-91545278D01*
X110073632Y-91541690D01*
G37*
G36*
X121075455Y-90587910D02*
G01*
X121112285Y-90672365D01*
X121075455Y-90756185D01*
X121001795Y-90784125D01*
X120839235Y-90784125D01*
X120839235Y-90559335D01*
X120999255Y-90559335D01*
X121075455Y-90587910D01*
G37*
%TO.C,kibuzzard-63708DAF*%
G36*
X126962055Y-89112534D02*
G01*
X126853535Y-89096437D01*
X126747116Y-89069780D01*
X126643822Y-89032821D01*
X126544647Y-88985915D01*
X126450548Y-88929514D01*
X126362431Y-88864162D01*
X126281143Y-88790487D01*
X126207468Y-88709199D01*
X126142116Y-88621082D01*
X126085715Y-88526983D01*
X126038809Y-88427809D01*
X126001850Y-88324514D01*
X125990947Y-88280988D01*
X127468505Y-88280988D01*
X127489460Y-88383858D01*
X127493270Y-88402907D01*
X127514225Y-88452438D01*
X127561374Y-88528161D01*
X127615190Y-88587693D01*
X127725257Y-88661776D01*
X127852257Y-88706226D01*
X127996190Y-88721043D01*
X128141182Y-88706332D01*
X128268817Y-88662199D01*
X128379095Y-88588645D01*
X128463762Y-88492442D01*
X128514562Y-88380365D01*
X128531495Y-88252413D01*
X128515779Y-88155258D01*
X128468630Y-88069532D01*
X128408623Y-88007620D01*
X128352425Y-87966663D01*
X128352425Y-87953328D01*
X128434975Y-87893532D01*
X128484505Y-87813204D01*
X128501015Y-87712345D01*
X128485987Y-87604924D01*
X128440902Y-87504912D01*
X128365760Y-87412307D01*
X128264583Y-87338224D01*
X128141393Y-87293774D01*
X127996190Y-87278957D01*
X127901654Y-87285625D01*
X127816168Y-87305627D01*
X127690438Y-87364682D01*
X127611380Y-87439930D01*
X127569470Y-87499937D01*
X127525655Y-87629478D01*
X127549468Y-87697581D01*
X127620905Y-87757112D01*
X127725680Y-87791402D01*
X127798070Y-87767590D01*
X127851410Y-87696153D01*
X127862840Y-87673292D01*
X127912370Y-87627572D01*
X128020003Y-87604712D01*
X128125730Y-87640907D01*
X128163830Y-87717107D01*
X128127635Y-87772829D01*
X128019050Y-87791402D01*
X127919990Y-87800928D01*
X127867126Y-87852839D01*
X127849505Y-87959042D01*
X127862364Y-88056674D01*
X127900940Y-88105727D01*
X127950470Y-88124778D01*
X128037148Y-88128587D01*
X128147638Y-88167640D01*
X128194310Y-88258128D01*
X128146685Y-88350520D01*
X128085725Y-88381238D01*
X127998095Y-88391478D01*
X127918085Y-88380047D01*
X127813310Y-88288608D01*
X127756160Y-88189548D01*
X127655195Y-88170497D01*
X127515178Y-88198120D01*
X127468505Y-88280988D01*
X125990947Y-88280988D01*
X125975193Y-88218095D01*
X125959096Y-88109575D01*
X125953713Y-88000000D01*
X125959096Y-87890425D01*
X125975193Y-87781905D01*
X126001850Y-87675486D01*
X126038809Y-87572191D01*
X126085715Y-87473017D01*
X126142116Y-87378918D01*
X126207468Y-87290801D01*
X126281143Y-87209513D01*
X126362431Y-87135838D01*
X126450548Y-87070486D01*
X126544647Y-87014085D01*
X126643822Y-86967179D01*
X126747116Y-86930220D01*
X126853535Y-86903563D01*
X126962055Y-86887466D01*
X127071630Y-86882082D01*
X128928370Y-86882082D01*
X128928370Y-86882083D01*
X129037945Y-86887466D01*
X129146465Y-86903563D01*
X129252884Y-86930220D01*
X129356179Y-86967179D01*
X129455353Y-87014085D01*
X129549452Y-87070486D01*
X129637569Y-87135838D01*
X129718857Y-87209513D01*
X129792532Y-87290801D01*
X129857884Y-87378918D01*
X129914285Y-87473017D01*
X129961191Y-87572192D01*
X129998150Y-87675486D01*
X130024807Y-87781905D01*
X130040904Y-87890425D01*
X130046287Y-88000000D01*
X130040904Y-88109575D01*
X130024807Y-88218095D01*
X129998150Y-88324514D01*
X129961191Y-88427808D01*
X129914285Y-88526983D01*
X129857884Y-88621082D01*
X129792532Y-88709199D01*
X129718857Y-88790487D01*
X129637569Y-88864162D01*
X129549452Y-88929514D01*
X129455353Y-88985915D01*
X129356179Y-89032821D01*
X129252884Y-89069780D01*
X129146465Y-89096437D01*
X129037945Y-89112534D01*
X128928370Y-89117917D01*
X128928370Y-89117918D01*
X127071630Y-89117918D01*
X126962055Y-89112534D01*
G37*
%TO.C,G\u002A\u002A\u002A*%
G36*
X97733115Y-71752018D02*
G01*
X97751206Y-71752018D01*
X97761602Y-71752549D01*
X97769491Y-71753950D01*
X97772744Y-71755464D01*
X97774633Y-71760074D01*
X97775885Y-71768344D01*
X97776190Y-71775428D01*
X97776190Y-71791947D01*
X97812086Y-71793657D01*
X97812086Y-71954471D01*
X97773318Y-71956169D01*
X97773318Y-72001854D01*
X97760837Y-72001854D01*
X97752070Y-72002058D01*
X97739845Y-72002602D01*
X97726428Y-72003378D01*
X97722787Y-72003622D01*
X97711168Y-72004173D01*
X97701782Y-72004147D01*
X97696058Y-72003568D01*
X97695065Y-72003143D01*
X97694482Y-71999771D01*
X97693959Y-71991446D01*
X97693518Y-71978957D01*
X97693182Y-71963095D01*
X97692973Y-71944648D01*
X97692911Y-71927158D01*
X97692835Y-71905066D01*
X97692620Y-71882996D01*
X97692289Y-71862189D01*
X97691864Y-71843886D01*
X97691367Y-71829329D01*
X97691039Y-71822820D01*
X97689167Y-71792221D01*
X97655580Y-71792221D01*
X97655580Y-71718417D01*
X97681866Y-71716552D01*
X97695332Y-71715695D01*
X97708210Y-71715046D01*
X97718295Y-71714710D01*
X97720634Y-71714686D01*
X97733115Y-71714686D01*
X97733115Y-71752018D01*
G37*
G36*
X98223194Y-72826423D02*
G01*
X98223406Y-72804196D01*
X98223576Y-72778632D01*
X98223703Y-72750315D01*
X98223791Y-72719829D01*
X98223838Y-72687758D01*
X98223845Y-72654688D01*
X98223814Y-72621202D01*
X98223745Y-72587884D01*
X98223639Y-72555319D01*
X98223496Y-72524092D01*
X98223318Y-72494785D01*
X98223104Y-72467985D01*
X98222857Y-72444275D01*
X98222575Y-72424239D01*
X98222261Y-72408461D01*
X98221915Y-72397527D01*
X98221714Y-72393838D01*
X98219864Y-72367993D01*
X98184650Y-72366301D01*
X98180512Y-72283527D01*
X98161421Y-72282685D01*
X98142329Y-72281842D01*
X98141483Y-72262587D01*
X98140637Y-72243331D01*
X98121381Y-72242485D01*
X98102126Y-72241639D01*
X98102126Y-72164104D01*
X98121381Y-72163257D01*
X98140637Y-72162411D01*
X98141483Y-72143156D01*
X98142329Y-72123900D01*
X98161373Y-72123059D01*
X98180417Y-72122217D01*
X98182480Y-72083703D01*
X98184543Y-72045188D01*
X98202204Y-72044341D01*
X98219864Y-72043493D01*
X98221733Y-72019084D01*
X98222114Y-72011114D01*
X98222459Y-71998008D01*
X98222767Y-71980375D01*
X98223039Y-71958822D01*
X98223273Y-71933957D01*
X98223468Y-71906387D01*
X98223624Y-71876721D01*
X98223739Y-71845566D01*
X98223814Y-71813530D01*
X98223847Y-71781220D01*
X98223838Y-71749245D01*
X98223786Y-71718213D01*
X98223689Y-71688730D01*
X98223548Y-71661406D01*
X98223361Y-71636847D01*
X98223128Y-71615661D01*
X98222848Y-71598457D01*
X98222521Y-71585841D01*
X98222284Y-71580435D01*
X98220423Y-71548128D01*
X98184683Y-71548128D01*
X98182172Y-71508643D01*
X98179661Y-71469157D01*
X98160405Y-71468311D01*
X98141150Y-71467465D01*
X98140304Y-71448209D01*
X98139457Y-71428954D01*
X98101535Y-71426421D01*
X98063612Y-71423888D01*
X98061922Y-71388750D01*
X98021001Y-71386269D01*
X97980079Y-71383788D01*
X97980079Y-71347145D01*
X97752499Y-71346410D01*
X97524918Y-71345675D01*
X97524067Y-71327861D01*
X97523215Y-71310046D01*
X97505401Y-71309195D01*
X97487586Y-71308343D01*
X97486151Y-71286806D01*
X97484715Y-71265268D01*
X97467107Y-71264422D01*
X97449500Y-71263576D01*
X97447431Y-71222189D01*
X97445362Y-71180803D01*
X97426271Y-71179960D01*
X97407179Y-71179118D01*
X97405744Y-71159016D01*
X97404308Y-71138914D01*
X97369170Y-71137224D01*
X97366637Y-71099301D01*
X97364104Y-71061379D01*
X97344720Y-71060530D01*
X97325337Y-71059681D01*
X97325337Y-71020002D01*
X97286569Y-71018304D01*
X97285723Y-70999048D01*
X97284876Y-70979793D01*
X97265621Y-70978946D01*
X97246365Y-70978100D01*
X97245519Y-70958845D01*
X97244673Y-70939589D01*
X97225417Y-70938743D01*
X97206162Y-70937897D01*
X97205315Y-70918631D01*
X97204469Y-70899366D01*
X97182342Y-70898530D01*
X97160215Y-70897693D01*
X97159379Y-70875566D01*
X97158542Y-70853439D01*
X97139277Y-70852593D01*
X97120011Y-70851746D01*
X97119165Y-70832491D01*
X97118319Y-70813235D01*
X97099064Y-70812389D01*
X97079808Y-70811543D01*
X97078962Y-70792287D01*
X97078116Y-70773032D01*
X97058860Y-70772185D01*
X97039604Y-70771339D01*
X97038755Y-70751955D01*
X97037906Y-70732572D01*
X96998228Y-70732572D01*
X96997378Y-70713188D01*
X96996529Y-70693804D01*
X96976428Y-70692368D01*
X96956326Y-70690932D01*
X96954632Y-70655668D01*
X96916711Y-70653199D01*
X96878790Y-70650729D01*
X96877944Y-70631468D01*
X96877098Y-70612208D01*
X96856407Y-70611366D01*
X96835715Y-70610525D01*
X96834021Y-70575213D01*
X96792634Y-70573144D01*
X96751248Y-70571076D01*
X96750406Y-70552033D01*
X96749565Y-70532990D01*
X96710199Y-70532192D01*
X96670832Y-70531394D01*
X96669995Y-70509218D01*
X96669158Y-70487043D01*
X96628954Y-70485607D01*
X96588751Y-70484171D01*
X96587903Y-70466511D01*
X96587056Y-70448850D01*
X96549136Y-70446899D01*
X96532699Y-70446212D01*
X96516210Y-70445795D01*
X96501616Y-70445682D01*
X96491114Y-70445894D01*
X96471012Y-70446840D01*
X96470169Y-70464346D01*
X96469325Y-70481853D01*
X96497449Y-70483715D01*
X96511426Y-70484547D01*
X96524934Y-70485191D01*
X96535817Y-70485550D01*
X96539214Y-70485592D01*
X96552855Y-70485607D01*
X96552855Y-70528104D01*
X96589469Y-70530021D01*
X96603616Y-70530834D01*
X96615815Y-70531670D01*
X96624846Y-70532437D01*
X96629488Y-70533041D01*
X96629672Y-70533091D01*
X96631992Y-70536774D01*
X96633144Y-70545724D01*
X96633262Y-70551136D01*
X96633262Y-70568026D01*
X96659548Y-70569892D01*
X96672991Y-70570748D01*
X96685824Y-70571397D01*
X96695852Y-70571733D01*
X96698185Y-70571758D01*
X96710535Y-70571758D01*
X96711384Y-70591141D01*
X96712233Y-70610525D01*
X96788075Y-70615465D01*
X96788922Y-70633097D01*
X96789768Y-70650729D01*
X96812742Y-70652165D01*
X96835715Y-70653600D01*
X96836562Y-70672861D01*
X96837408Y-70692122D01*
X96878790Y-70693804D01*
X96879639Y-70711513D01*
X96880488Y-70729221D01*
X96898305Y-70730865D01*
X96911400Y-70732060D01*
X96926237Y-70733396D01*
X96935506Y-70734221D01*
X96954890Y-70735933D01*
X96954890Y-70752344D01*
X96955461Y-70761938D01*
X96956934Y-70769371D01*
X96958336Y-70772201D01*
X96962946Y-70774090D01*
X96971217Y-70775341D01*
X96978301Y-70775647D01*
X96994819Y-70775647D01*
X96996529Y-70811543D01*
X97016631Y-70812979D01*
X97036733Y-70814414D01*
X97038425Y-70852926D01*
X97057681Y-70853772D01*
X97076936Y-70854618D01*
X97078372Y-70877591D01*
X97079808Y-70900565D01*
X97115704Y-70902275D01*
X97115704Y-70917697D01*
X97115968Y-70929552D01*
X97117421Y-70936799D01*
X97121052Y-70940568D01*
X97127854Y-70941992D01*
X97137162Y-70942204D01*
X97155134Y-70942204D01*
X97157674Y-70980254D01*
X97160215Y-71018304D01*
X97182470Y-71019142D01*
X97204726Y-71019981D01*
X97204726Y-71059681D01*
X97243494Y-71061379D01*
X97245963Y-71099300D01*
X97248433Y-71137221D01*
X97266065Y-71138067D01*
X97283697Y-71138914D01*
X97285385Y-71180554D01*
X97321599Y-71180554D01*
X97323453Y-71208552D01*
X97324287Y-71222730D01*
X97324930Y-71236660D01*
X97325284Y-71248069D01*
X97325322Y-71251496D01*
X97325337Y-71266441D01*
X97344720Y-71267291D01*
X97364104Y-71268140D01*
X97364903Y-71307625D01*
X97365702Y-71347111D01*
X96926701Y-71347111D01*
X96876386Y-71347123D01*
X96827301Y-71347159D01*
X96779787Y-71347217D01*
X96734184Y-71347295D01*
X96690833Y-71347394D01*
X96650074Y-71347510D01*
X96612248Y-71347643D01*
X96577695Y-71347791D01*
X96546756Y-71347954D01*
X96519771Y-71348129D01*
X96497081Y-71348315D01*
X96479027Y-71348511D01*
X96465948Y-71348716D01*
X96458185Y-71348928D01*
X96457100Y-71348983D01*
X96426501Y-71350855D01*
X96426501Y-71714686D01*
X97485899Y-71714686D01*
X97486743Y-71735505D01*
X97487586Y-71756325D01*
X97505083Y-71757168D01*
X97522579Y-71758012D01*
X97524459Y-71816038D01*
X97525317Y-71847291D01*
X97525899Y-71878912D01*
X97526205Y-71909917D01*
X97526234Y-71939320D01*
X97525988Y-71966135D01*
X97525465Y-71989376D01*
X97524665Y-72008058D01*
X97524477Y-72011082D01*
X97522630Y-72038977D01*
X96976240Y-72039799D01*
X96920649Y-72039890D01*
X96866600Y-72039993D01*
X96814372Y-72040108D01*
X96764245Y-72040232D01*
X96716498Y-72040365D01*
X96671412Y-72040505D01*
X96629266Y-72040652D01*
X96590339Y-72040804D01*
X96554913Y-72040960D01*
X96523265Y-72041119D01*
X96495676Y-72041280D01*
X96472426Y-72041441D01*
X96453794Y-72041602D01*
X96440060Y-72041760D01*
X96431504Y-72041916D01*
X96428405Y-72042068D01*
X96428400Y-72042072D01*
X96428225Y-72045062D01*
X96428044Y-72053472D01*
X96427862Y-72066975D01*
X96427678Y-72085247D01*
X96427496Y-72107964D01*
X96427316Y-72134800D01*
X96427140Y-72165431D01*
X96426971Y-72199533D01*
X96426810Y-72236779D01*
X96426659Y-72276846D01*
X96426519Y-72319410D01*
X96426392Y-72364144D01*
X96426280Y-72410724D01*
X96426201Y-72449850D01*
X96425451Y-72856178D01*
X96445949Y-72857019D01*
X96466448Y-72857860D01*
X96468140Y-72896382D01*
X96669638Y-72896382D01*
X96703160Y-72896348D01*
X96735004Y-72896252D01*
X96764705Y-72896099D01*
X96791795Y-72895893D01*
X96815809Y-72895641D01*
X96836280Y-72895348D01*
X96852743Y-72895020D01*
X96864730Y-72894661D01*
X96871776Y-72894278D01*
X96873527Y-72893990D01*
X96873908Y-72890819D01*
X96874303Y-72882329D01*
X96874706Y-72868944D01*
X96875111Y-72851091D01*
X96875511Y-72829192D01*
X96875899Y-72803673D01*
X96876268Y-72774958D01*
X96876613Y-72743473D01*
X96876926Y-72709641D01*
X96877200Y-72673887D01*
X96877355Y-72649898D01*
X96878790Y-72408196D01*
X97105653Y-72407303D01*
X97143550Y-72407184D01*
X97181483Y-72407121D01*
X97218805Y-72407111D01*
X97254870Y-72407153D01*
X97289031Y-72407245D01*
X97320642Y-72407384D01*
X97349057Y-72407568D01*
X97373628Y-72407794D01*
X97393709Y-72408061D01*
X97407897Y-72408347D01*
X97483279Y-72410283D01*
X97483279Y-72452707D01*
X97448819Y-72452707D01*
X97448430Y-72466348D01*
X97448183Y-72473996D01*
X97447762Y-72486004D01*
X97447216Y-72500993D01*
X97446595Y-72517583D01*
X97446276Y-72525935D01*
X97444511Y-72571882D01*
X97426957Y-72572727D01*
X97409403Y-72573571D01*
X97402069Y-72691057D01*
X97365694Y-72691057D01*
X97364104Y-72775771D01*
X97326772Y-72778643D01*
X97324261Y-72818128D01*
X97321750Y-72857614D01*
X97285385Y-72857614D01*
X97284541Y-72878434D01*
X97283697Y-72899253D01*
X97248433Y-72900947D01*
X97245963Y-72938868D01*
X97243494Y-72976789D01*
X97204726Y-72978487D01*
X97204726Y-73018186D01*
X97182470Y-73019025D01*
X97160215Y-73019864D01*
X97157627Y-73060785D01*
X97155040Y-73101707D01*
X97138818Y-73101707D01*
X97129275Y-73102285D01*
X97121895Y-73103773D01*
X97119150Y-73105153D01*
X97117261Y-73109763D01*
X97116009Y-73118033D01*
X97115704Y-73125117D01*
X97115704Y-73141636D01*
X97079808Y-73143346D01*
X97076936Y-73183550D01*
X97057681Y-73184396D01*
X97038425Y-73185242D01*
X97037579Y-73204498D01*
X97036733Y-73223753D01*
X96997965Y-73225451D01*
X96997965Y-73262521D01*
X96979874Y-73262521D01*
X96969478Y-73263052D01*
X96961589Y-73264453D01*
X96958336Y-73265967D01*
X96956441Y-73270583D01*
X96955190Y-73278848D01*
X96954890Y-73285823D01*
X96954890Y-73302234D01*
X96936224Y-73303915D01*
X96922365Y-73305164D01*
X96907191Y-73306533D01*
X96899023Y-73307271D01*
X96880488Y-73308946D01*
X96878790Y-73344364D01*
X96858689Y-73345799D01*
X96838587Y-73347235D01*
X96837740Y-73366505D01*
X96836894Y-73385775D01*
X96789768Y-73387439D01*
X96788922Y-73405071D01*
X96788075Y-73422703D01*
X96750154Y-73425172D01*
X96712233Y-73427642D01*
X96710797Y-73449180D01*
X96709361Y-73470717D01*
X96671440Y-73473187D01*
X96633520Y-73475657D01*
X96631826Y-73510921D01*
X96610288Y-73512357D01*
X96588751Y-73513793D01*
X96587908Y-73531275D01*
X96587065Y-73548758D01*
X96536218Y-73552112D01*
X96519302Y-73553204D01*
X96504030Y-73554145D01*
X96491471Y-73554873D01*
X96482691Y-73555326D01*
X96479046Y-73555449D01*
X96475553Y-73555973D01*
X96473532Y-73558435D01*
X96472461Y-73564140D01*
X96471867Y-73573380D01*
X96471012Y-73591328D01*
X96427219Y-73592121D01*
X96383426Y-73592913D01*
X96383426Y-73630096D01*
X96368350Y-73630485D01*
X96360161Y-73630733D01*
X96347663Y-73631156D01*
X96332282Y-73631705D01*
X96315447Y-73632329D01*
X96307326Y-73632638D01*
X96261379Y-73634403D01*
X96260536Y-73651922D01*
X96259692Y-73669442D01*
X96229218Y-73671306D01*
X96213849Y-73672049D01*
X96195208Y-73672654D01*
X96175764Y-73673054D01*
X96159706Y-73673184D01*
X96141363Y-73673346D01*
X96121346Y-73673775D01*
X96102237Y-73674403D01*
X96088361Y-73675058D01*
X96056054Y-73676920D01*
X96056054Y-73709625D01*
X96023748Y-73711487D01*
X96015631Y-73711788D01*
X96002302Y-73712074D01*
X95984288Y-73712341D01*
X95962121Y-73712585D01*
X95936331Y-73712802D01*
X95907447Y-73712988D01*
X95876000Y-73713140D01*
X95842519Y-73713253D01*
X95807535Y-73713324D01*
X95771758Y-73713348D01*
X95735804Y-73713324D01*
X95700826Y-73713253D01*
X95667354Y-73713139D01*
X95635918Y-73712987D01*
X95607048Y-73712801D01*
X95581275Y-73712584D01*
X95559128Y-73712339D01*
X95541136Y-73712072D01*
X95527831Y-73711786D01*
X95519768Y-73711487D01*
X95487462Y-73709625D01*
X95487462Y-73676909D01*
X95459463Y-73675055D01*
X95445876Y-73674362D01*
X95428600Y-73673785D01*
X95409691Y-73673376D01*
X95391204Y-73673191D01*
X95388118Y-73673186D01*
X95369596Y-73673043D01*
X95349976Y-73672663D01*
X95331432Y-73672102D01*
X95316137Y-73671414D01*
X95314298Y-73671306D01*
X95283825Y-73669442D01*
X95282981Y-73651922D01*
X95282137Y-73634403D01*
X95236190Y-73632638D01*
X95219165Y-73631996D01*
X95202914Y-73631405D01*
X95188863Y-73630916D01*
X95178442Y-73630578D01*
X95175167Y-73630485D01*
X95160091Y-73630096D01*
X95160091Y-73592921D01*
X95119169Y-73592125D01*
X95078248Y-73591328D01*
X95077404Y-73573795D01*
X95076559Y-73556262D01*
X95050123Y-73554434D01*
X95035630Y-73553474D01*
X95018074Y-73552372D01*
X95000127Y-73551295D01*
X94990069Y-73550717D01*
X94956453Y-73548828D01*
X94955609Y-73531310D01*
X94954766Y-73513793D01*
X94911690Y-73510921D01*
X94910844Y-73493289D01*
X94909997Y-73475657D01*
X94834155Y-73470717D01*
X94832719Y-73449180D01*
X94831283Y-73427642D01*
X94793362Y-73425172D01*
X94755442Y-73422703D01*
X94753748Y-73387439D01*
X94733057Y-73386598D01*
X94712365Y-73385756D01*
X94711519Y-73366496D01*
X94710673Y-73347235D01*
X94690571Y-73345799D01*
X94670469Y-73344364D01*
X94669621Y-73326655D01*
X94668772Y-73308946D01*
X94649519Y-73307215D01*
X94635923Y-73306034D01*
X94620464Y-73304752D01*
X94609446Y-73303877D01*
X94588627Y-73302270D01*
X94588627Y-73285842D01*
X94588056Y-73276243D01*
X94586584Y-73268804D01*
X94585180Y-73265967D01*
X94580512Y-73264088D01*
X94571922Y-73262852D01*
X94563643Y-73262521D01*
X94545551Y-73262521D01*
X94545551Y-73225451D01*
X94526167Y-73224602D01*
X94506784Y-73223753D01*
X94505937Y-73204498D01*
X94505091Y-73185242D01*
X94485836Y-73184396D01*
X94466580Y-73183550D01*
X94463708Y-73143346D01*
X94427812Y-73141636D01*
X94427812Y-73125117D01*
X94427245Y-73115495D01*
X94425781Y-73108031D01*
X94424366Y-73105153D01*
X94419741Y-73103248D01*
X94411484Y-73101997D01*
X94404699Y-73101707D01*
X94388477Y-73101707D01*
X94385889Y-73060785D01*
X94383301Y-73019864D01*
X94363918Y-73019015D01*
X94344534Y-73018166D01*
X94344534Y-72978487D01*
X94305766Y-72976789D01*
X94303296Y-72938868D01*
X94300827Y-72900947D01*
X94265563Y-72899253D01*
X94264719Y-72878434D01*
X94263875Y-72857614D01*
X94221586Y-72857614D01*
X94219521Y-72817533D01*
X94217456Y-72777453D01*
X94179412Y-72775771D01*
X94178618Y-72733414D01*
X94177823Y-72691057D01*
X94141490Y-72691057D01*
X94139604Y-72660186D01*
X94138561Y-72643299D01*
X94137388Y-72624620D01*
X94136284Y-72607277D01*
X94135899Y-72601317D01*
X94134080Y-72573318D01*
X94117568Y-72573318D01*
X94107301Y-72572862D01*
X94101555Y-72571301D01*
X94099312Y-72568775D01*
X94098573Y-72564090D01*
X94097986Y-72555130D01*
X94097628Y-72543365D01*
X94097555Y-72535033D01*
X94097334Y-72518251D01*
X94096762Y-72499476D01*
X94095948Y-72482090D01*
X94095686Y-72477834D01*
X94093873Y-72450450D01*
X94218118Y-72450450D01*
X94219616Y-72692492D01*
X94240094Y-72693329D01*
X94260573Y-72694166D01*
X94262648Y-72735687D01*
X94264724Y-72777207D01*
X94304068Y-72777207D01*
X94305766Y-72815975D01*
X94343687Y-72818444D01*
X94381608Y-72820914D01*
X94382455Y-72838546D01*
X94383301Y-72856178D01*
X94419197Y-72856881D01*
X94436977Y-72857242D01*
X94449818Y-72857750D01*
X94458524Y-72858745D01*
X94463895Y-72860568D01*
X94466734Y-72863560D01*
X94467843Y-72868063D01*
X94468024Y-72874417D01*
X94468016Y-72877639D01*
X94468016Y-72894683D01*
X94487400Y-72895688D01*
X94493194Y-72895847D01*
X94504271Y-72896011D01*
X94520172Y-72896178D01*
X94540437Y-72896345D01*
X94564606Y-72896509D01*
X94592218Y-72896668D01*
X94622815Y-72896818D01*
X94655936Y-72896958D01*
X94691121Y-72897083D01*
X94727911Y-72897193D01*
X94753030Y-72897255D01*
X94999277Y-72897817D01*
X94999479Y-72856896D01*
X94999701Y-72806006D01*
X94999846Y-72759756D01*
X94999912Y-72718267D01*
X94999901Y-72681658D01*
X94999813Y-72650050D01*
X94999648Y-72623561D01*
X94999408Y-72602313D01*
X94999093Y-72586424D01*
X94998703Y-72576015D01*
X94998239Y-72571205D01*
X94998138Y-72570927D01*
X94995928Y-72570046D01*
X94990258Y-72569316D01*
X94980788Y-72568727D01*
X94967179Y-72568270D01*
X94949093Y-72567936D01*
X94926190Y-72567715D01*
X94898131Y-72567599D01*
X94874189Y-72567574D01*
X94752312Y-72567574D01*
X94752312Y-72533829D01*
X94712827Y-72531318D01*
X94673341Y-72528807D01*
X94670877Y-72490988D01*
X94668414Y-72453170D01*
X94649340Y-72451243D01*
X94641609Y-72450750D01*
X94628782Y-72450275D01*
X94611503Y-72449824D01*
X94590419Y-72449402D01*
X94566176Y-72449012D01*
X94539421Y-72448660D01*
X94510799Y-72448349D01*
X94480956Y-72448085D01*
X94450539Y-72447872D01*
X94420193Y-72447715D01*
X94390566Y-72447618D01*
X94362302Y-72447586D01*
X94336048Y-72447623D01*
X94312451Y-72447734D01*
X94292156Y-72447924D01*
X94275809Y-72448196D01*
X94264814Y-72448524D01*
X94218118Y-72450450D01*
X94093873Y-72450450D01*
X94093832Y-72449836D01*
X94061110Y-72449836D01*
X94059238Y-72419236D01*
X94058408Y-72403209D01*
X94057766Y-72386155D01*
X94057409Y-72370822D01*
X94057366Y-72365121D01*
X94057170Y-72351496D01*
X94056647Y-72334890D01*
X94055892Y-72318051D01*
X94055494Y-72311006D01*
X94053621Y-72280407D01*
X94020946Y-72280407D01*
X94019062Y-72222255D01*
X94018859Y-72213069D01*
X94018667Y-72198624D01*
X94018488Y-72179245D01*
X94018321Y-72155253D01*
X94018165Y-72126973D01*
X94018021Y-72094728D01*
X94017890Y-72058842D01*
X94017770Y-72019637D01*
X94017662Y-71977438D01*
X94017565Y-71932567D01*
X94017481Y-71885348D01*
X94017409Y-71836105D01*
X94017393Y-71822742D01*
X94218237Y-71822742D01*
X94218256Y-71858509D01*
X94218306Y-71893646D01*
X94218387Y-71927627D01*
X94218499Y-71959922D01*
X94218641Y-71990002D01*
X94218815Y-72017340D01*
X94219019Y-72041407D01*
X94219255Y-72061675D01*
X94219521Y-72077615D01*
X94219818Y-72088699D01*
X94220037Y-72093189D01*
X94221895Y-72119358D01*
X94262691Y-72121028D01*
X94263532Y-72141720D01*
X94264373Y-72162411D01*
X94283634Y-72163257D01*
X94302894Y-72164104D01*
X94303741Y-72183364D01*
X94304587Y-72202625D01*
X94325278Y-72203466D01*
X94345970Y-72204307D01*
X94346825Y-72222255D01*
X94347583Y-72232331D01*
X94348896Y-72237847D01*
X94351142Y-72239985D01*
X94352568Y-72240160D01*
X94356886Y-72240322D01*
X94365939Y-72240800D01*
X94378733Y-72241536D01*
X94394272Y-72242473D01*
X94411300Y-72243537D01*
X94465144Y-72246958D01*
X94465144Y-72283308D01*
X95000712Y-72281842D01*
X95000662Y-72119593D01*
X95000611Y-71957343D01*
X94883313Y-71955877D01*
X95280654Y-71955877D01*
X95281395Y-72118860D01*
X95282137Y-72281842D01*
X95566433Y-72284714D01*
X95568131Y-72323482D01*
X95607258Y-72323482D01*
X95608696Y-72375960D01*
X95609113Y-72397731D01*
X95609288Y-72422222D01*
X95609222Y-72446960D01*
X95608915Y-72469473D01*
X95608713Y-72477684D01*
X95607291Y-72526930D01*
X95587580Y-72528586D01*
X95573465Y-72529769D01*
X95557767Y-72531081D01*
X95547767Y-72531914D01*
X95527666Y-72533586D01*
X95527666Y-72567574D01*
X95434783Y-72567574D01*
X95410527Y-72567634D01*
X95386614Y-72567804D01*
X95364052Y-72568068D01*
X95343846Y-72568411D01*
X95327006Y-72568818D01*
X95314537Y-72569273D01*
X95311300Y-72569447D01*
X95280701Y-72571319D01*
X95280701Y-72732654D01*
X95280734Y-72762568D01*
X95280830Y-72790750D01*
X95280981Y-72816679D01*
X95281183Y-72839833D01*
X95281428Y-72859692D01*
X95281711Y-72875733D01*
X95282026Y-72887437D01*
X95282366Y-72894282D01*
X95282616Y-72895903D01*
X95285739Y-72896224D01*
X95294102Y-72896515D01*
X95307198Y-72896775D01*
X95324524Y-72897005D01*
X95345574Y-72897205D01*
X95369844Y-72897374D01*
X95396830Y-72897513D01*
X95426026Y-72897621D01*
X95456929Y-72897699D01*
X95489033Y-72897746D01*
X95521833Y-72897762D01*
X95554826Y-72897748D01*
X95587506Y-72897703D01*
X95619369Y-72897628D01*
X95649910Y-72897521D01*
X95678625Y-72897384D01*
X95705008Y-72897215D01*
X95728556Y-72897016D01*
X95748763Y-72896786D01*
X95765125Y-72896525D01*
X95777137Y-72896233D01*
X95783837Y-72895942D01*
X95811710Y-72894096D01*
X95813398Y-72859050D01*
X95895240Y-72857456D01*
X95895240Y-72820997D01*
X95974212Y-72815975D01*
X95975058Y-72796719D01*
X95975904Y-72777464D01*
X95995160Y-72776617D01*
X96014415Y-72775771D01*
X96019479Y-72694183D01*
X96037049Y-72693338D01*
X96054619Y-72692492D01*
X96056773Y-72662340D01*
X96057097Y-72654622D01*
X96057360Y-72641754D01*
X96057567Y-72624282D01*
X96057718Y-72602753D01*
X96057817Y-72577714D01*
X96057867Y-72549712D01*
X96057869Y-72519294D01*
X96057827Y-72487006D01*
X96057742Y-72453396D01*
X96057618Y-72419009D01*
X96057457Y-72384394D01*
X96057261Y-72350097D01*
X96057032Y-72316664D01*
X96056775Y-72284642D01*
X96056490Y-72254580D01*
X96056181Y-72227022D01*
X96055850Y-72202516D01*
X96055499Y-72181609D01*
X96055132Y-72164848D01*
X96054750Y-72152780D01*
X96054388Y-72146284D01*
X96052549Y-72125593D01*
X96034918Y-72124747D01*
X96017287Y-72123900D01*
X96016446Y-72103209D01*
X96015604Y-72082517D01*
X95996344Y-72081671D01*
X95977083Y-72080825D01*
X95975385Y-72042057D01*
X95935706Y-72042057D01*
X95934857Y-72022673D01*
X95934008Y-72003290D01*
X95889497Y-72001516D01*
X95872863Y-72000863D01*
X95857139Y-72000265D01*
X95843739Y-71999774D01*
X95834073Y-71999441D01*
X95831471Y-71999362D01*
X95817957Y-71998982D01*
X95817113Y-71978162D01*
X95816269Y-71957343D01*
X95548461Y-71956610D01*
X95280654Y-71955877D01*
X94883313Y-71955877D01*
X94859949Y-71955585D01*
X94831991Y-71955229D01*
X94805736Y-71954881D01*
X94781754Y-71954549D01*
X94760612Y-71954243D01*
X94742879Y-71953971D01*
X94729122Y-71953741D01*
X94719911Y-71953561D01*
X94715812Y-71953441D01*
X94715698Y-71953431D01*
X94713485Y-71950684D01*
X94712327Y-71942828D01*
X94712109Y-71934500D01*
X94712109Y-71915966D01*
X94692725Y-71915117D01*
X94673341Y-71914267D01*
X94671563Y-71892730D01*
X94670992Y-71882845D01*
X94670497Y-71868596D01*
X94670110Y-71851360D01*
X94669862Y-71832516D01*
X94669784Y-71815195D01*
X94669879Y-71796084D01*
X94670141Y-71777331D01*
X94670539Y-71760316D01*
X94671043Y-71746416D01*
X94671563Y-71737659D01*
X94673341Y-71716122D01*
X94713545Y-71713250D01*
X94714399Y-71695302D01*
X94715188Y-71685114D01*
X94716577Y-71679472D01*
X94718940Y-71677179D01*
X94720143Y-71676940D01*
X94723923Y-71676821D01*
X94732865Y-71676642D01*
X94746388Y-71676412D01*
X94763908Y-71676139D01*
X94784847Y-71675831D01*
X94808621Y-71675499D01*
X94834650Y-71675149D01*
X94862351Y-71674792D01*
X94862872Y-71674786D01*
X94886954Y-71674482D01*
X95280654Y-71674482D01*
X95394827Y-71674497D01*
X95421197Y-71674548D01*
X95446875Y-71674686D01*
X95471037Y-71674900D01*
X95492857Y-71675180D01*
X95511511Y-71675514D01*
X95526175Y-71675893D01*
X95536023Y-71676305D01*
X95536872Y-71676358D01*
X95564745Y-71678204D01*
X95566433Y-71713250D01*
X95606637Y-71716122D01*
X95611661Y-71795128D01*
X95834576Y-71794392D01*
X96057490Y-71793657D01*
X96057490Y-71688841D01*
X96057421Y-71662961D01*
X96057223Y-71637266D01*
X96056914Y-71612723D01*
X96056511Y-71590301D01*
X96056030Y-71570967D01*
X96055487Y-71555689D01*
X96055055Y-71547540D01*
X96052619Y-71511056D01*
X96034953Y-71510208D01*
X96017287Y-71509361D01*
X96015599Y-71467721D01*
X95975647Y-71467721D01*
X95975647Y-71427770D01*
X95954828Y-71426926D01*
X95934008Y-71426082D01*
X95933163Y-71408528D01*
X95932319Y-71390974D01*
X95873703Y-71387314D01*
X95815087Y-71383655D01*
X95814242Y-71366101D01*
X95813398Y-71348547D01*
X95282137Y-71348547D01*
X95281395Y-71511515D01*
X95280654Y-71674482D01*
X94886954Y-71674482D01*
X95000712Y-71673046D01*
X95000390Y-71611305D01*
X95000297Y-71592767D01*
X95000189Y-71569782D01*
X95000071Y-71543648D01*
X94999949Y-71515661D01*
X94999828Y-71487120D01*
X94999715Y-71459321D01*
X94999672Y-71448338D01*
X94999277Y-71347111D01*
X94465144Y-71347111D01*
X94465144Y-71383597D01*
X94434274Y-71385483D01*
X94417410Y-71386525D01*
X94398779Y-71387694D01*
X94381493Y-71388795D01*
X94375531Y-71389180D01*
X94347659Y-71390990D01*
X94346814Y-71408536D01*
X94345970Y-71426082D01*
X94325278Y-71426923D01*
X94304587Y-71427764D01*
X94303741Y-71447025D01*
X94302894Y-71466286D01*
X94283634Y-71467132D01*
X94264373Y-71467978D01*
X94263532Y-71488669D01*
X94262691Y-71509361D01*
X94242297Y-71510196D01*
X94221902Y-71511031D01*
X94220056Y-71538913D01*
X94219737Y-71546725D01*
X94219449Y-71559720D01*
X94219192Y-71577370D01*
X94218965Y-71599147D01*
X94218769Y-71624522D01*
X94218603Y-71652967D01*
X94218469Y-71683952D01*
X94218365Y-71716951D01*
X94218291Y-71751435D01*
X94218249Y-71786874D01*
X94218237Y-71822742D01*
X94017393Y-71822742D01*
X94017348Y-71785160D01*
X94017300Y-71732838D01*
X94017263Y-71679462D01*
X94017238Y-71625354D01*
X94017226Y-71570839D01*
X94017225Y-71516240D01*
X94017236Y-71461880D01*
X94017259Y-71408083D01*
X94017294Y-71355171D01*
X94017340Y-71303470D01*
X94017399Y-71253301D01*
X94017470Y-71204988D01*
X94017553Y-71158855D01*
X94017647Y-71115225D01*
X94017754Y-71074422D01*
X94017873Y-71036769D01*
X94018003Y-71002588D01*
X94018146Y-70972205D01*
X94018301Y-70945942D01*
X94018467Y-70924122D01*
X94018646Y-70907069D01*
X94018836Y-70895106D01*
X94019039Y-70888557D01*
X94019043Y-70888486D01*
X94020897Y-70856305D01*
X94038414Y-70855462D01*
X94055930Y-70854618D01*
X94056633Y-70818722D01*
X94056995Y-70800943D01*
X94057504Y-70788102D01*
X94058496Y-70779398D01*
X94060311Y-70774027D01*
X94063286Y-70771188D01*
X94067758Y-70770078D01*
X94074067Y-70769896D01*
X94077199Y-70769903D01*
X94094050Y-70769903D01*
X94096528Y-70731854D01*
X94099005Y-70693804D01*
X94118266Y-70692958D01*
X94137526Y-70692111D01*
X94138368Y-70671420D01*
X94139209Y-70650729D01*
X94175105Y-70649019D01*
X94175105Y-70632095D01*
X94175557Y-70622728D01*
X94176728Y-70615862D01*
X94177976Y-70613397D01*
X94179459Y-70609809D01*
X94180496Y-70602195D01*
X94180848Y-70593126D01*
X94180848Y-70574629D01*
X94196407Y-70574629D01*
X94208301Y-70574373D01*
X94215583Y-70572935D01*
X94219383Y-70569316D01*
X94220829Y-70562516D01*
X94221052Y-70552784D01*
X94221052Y-70534426D01*
X94242420Y-70534426D01*
X94252977Y-70534065D01*
X94261152Y-70533113D01*
X94265375Y-70531765D01*
X94265563Y-70531554D01*
X94269151Y-70530072D01*
X94276765Y-70529035D01*
X94285834Y-70528682D01*
X94304330Y-70528682D01*
X94304330Y-70485607D01*
X94344534Y-70485607D01*
X94344534Y-70448810D01*
X94384737Y-70446739D01*
X94424941Y-70444668D01*
X94424941Y-70423311D01*
X96383426Y-70423311D01*
X96383718Y-70433095D01*
X96384478Y-70440460D01*
X96385416Y-70443565D01*
X96388862Y-70444228D01*
X96396955Y-70444684D01*
X96408603Y-70444899D01*
X96422711Y-70444845D01*
X96427773Y-70444761D01*
X96468140Y-70443968D01*
X96468140Y-70406636D01*
X96425783Y-70405841D01*
X96383426Y-70405047D01*
X96383426Y-70423311D01*
X94424941Y-70423311D01*
X94424941Y-70408718D01*
X94465144Y-70406959D01*
X94484808Y-70406099D01*
X94507218Y-70405118D01*
X94508842Y-70405047D01*
X94529383Y-70404149D01*
X94545551Y-70403441D01*
X94585755Y-70401683D01*
X94585755Y-70368759D01*
X94655393Y-70366796D01*
X94665421Y-70366598D01*
X94680869Y-70366413D01*
X94701425Y-70366238D01*
X94726774Y-70366075D01*
X94756603Y-70365924D01*
X94790599Y-70365783D01*
X94828449Y-70365655D01*
X94869839Y-70365538D01*
X94914455Y-70365432D01*
X94961984Y-70365337D01*
X95012113Y-70365254D01*
X95064528Y-70365182D01*
X95118916Y-70365121D01*
X95174964Y-70365072D01*
X95232357Y-70365034D01*
X95290783Y-70365007D01*
X95349929Y-70364991D01*
X95409480Y-70364986D01*
X95469123Y-70364993D01*
X95528545Y-70365010D01*
X95587433Y-70365039D01*
X95645472Y-70365079D01*
X95702351Y-70365130D01*
X95757754Y-70365192D01*
X95811369Y-70365264D01*
X95862883Y-70365348D01*
X95911981Y-70365443D01*
X95958351Y-70365549D01*
X96001679Y-70365665D01*
X96041652Y-70365793D01*
X96077956Y-70365931D01*
X96110278Y-70366081D01*
X96138304Y-70366241D01*
X96161721Y-70366411D01*
X96180215Y-70366593D01*
X96193474Y-70366785D01*
X96198920Y-70366910D01*
X96262815Y-70368764D01*
X96262815Y-70402329D01*
X96343222Y-70402329D01*
X96343222Y-70368746D01*
X96375529Y-70366884D01*
X96380441Y-70366767D01*
X96390910Y-70366653D01*
X96406752Y-70366544D01*
X96427780Y-70366438D01*
X96453809Y-70366336D01*
X96484652Y-70366238D01*
X96520125Y-70366144D01*
X96560041Y-70366054D01*
X96604216Y-70365968D01*
X96652463Y-70365886D01*
X96704596Y-70365807D01*
X96760430Y-70365733D01*
X96819780Y-70365662D01*
X96882459Y-70365595D01*
X96948282Y-70365532D01*
X97017063Y-70365473D01*
X97088617Y-70365418D01*
X97162757Y-70365367D01*
X97239299Y-70365320D01*
X97318056Y-70365276D01*
X97398843Y-70365237D01*
X97481474Y-70365201D01*
X97565764Y-70365169D01*
X97651526Y-70365141D01*
X97738576Y-70365117D01*
X97826727Y-70365097D01*
X97915794Y-70365081D01*
X98005591Y-70365069D01*
X98095932Y-70365060D01*
X98186632Y-70365055D01*
X98277506Y-70365055D01*
X98368366Y-70365058D01*
X98459028Y-70365065D01*
X98549307Y-70365076D01*
X98639015Y-70365090D01*
X98727969Y-70365109D01*
X98815981Y-70365132D01*
X98902867Y-70365158D01*
X98988440Y-70365188D01*
X99072516Y-70365223D01*
X99154907Y-70365261D01*
X99235430Y-70365302D01*
X99313897Y-70365348D01*
X99390123Y-70365398D01*
X99463923Y-70365451D01*
X99535111Y-70365509D01*
X99603502Y-70365570D01*
X99668909Y-70365635D01*
X99731146Y-70365704D01*
X99790029Y-70365777D01*
X99845372Y-70365854D01*
X99896988Y-70365934D01*
X99944693Y-70366019D01*
X99988300Y-70366107D01*
X100027624Y-70366199D01*
X100062479Y-70366295D01*
X100092679Y-70366395D01*
X100118040Y-70366499D01*
X100138374Y-70366607D01*
X100153497Y-70366718D01*
X100163223Y-70366834D01*
X100166145Y-70366897D01*
X100228604Y-70368783D01*
X100228604Y-70401462D01*
X100256603Y-70403316D01*
X100272254Y-70404181D01*
X100289076Y-70404839D01*
X100304054Y-70405177D01*
X100307575Y-70405200D01*
X100321470Y-70405428D01*
X100338074Y-70406005D01*
X100354368Y-70406822D01*
X100358547Y-70407084D01*
X100386546Y-70408938D01*
X100386546Y-70444668D01*
X100426750Y-70446739D01*
X100466953Y-70448810D01*
X100466953Y-70485375D01*
X100490645Y-70486209D01*
X100514336Y-70487043D01*
X100516014Y-70528203D01*
X100534559Y-70529879D01*
X100548373Y-70531126D01*
X100563564Y-70532496D01*
X100571770Y-70533235D01*
X100590435Y-70534916D01*
X100590435Y-70551327D01*
X100591007Y-70560920D01*
X100592480Y-70568354D01*
X100593881Y-70571183D01*
X100598485Y-70573065D01*
X100606761Y-70574317D01*
X100613983Y-70574629D01*
X100630639Y-70574629D01*
X100630639Y-70591285D01*
X100631202Y-70600944D01*
X100632655Y-70608447D01*
X100634085Y-70611387D01*
X100638708Y-70613289D01*
X100646967Y-70614540D01*
X100653800Y-70614833D01*
X100670069Y-70614833D01*
X100672609Y-70652883D01*
X100675150Y-70690932D01*
X100694534Y-70691781D01*
X100713918Y-70692631D01*
X100713918Y-70704981D01*
X100714127Y-70713608D01*
X100714684Y-70725758D01*
X100715483Y-70739224D01*
X100715775Y-70743491D01*
X100717631Y-70769651D01*
X100752685Y-70771339D01*
X100754121Y-70811543D01*
X100755557Y-70851746D01*
X100773073Y-70852590D01*
X100790590Y-70853434D01*
X100792444Y-70885614D01*
X100792577Y-70890756D01*
X100792705Y-70901346D01*
X100792827Y-70917166D01*
X100792945Y-70937998D01*
X100793058Y-70963623D01*
X100793167Y-70993824D01*
X100793270Y-71028381D01*
X100793368Y-71067076D01*
X100793461Y-71109690D01*
X100793549Y-71156006D01*
X100793633Y-71205805D01*
X100793711Y-71258868D01*
X100793784Y-71314977D01*
X100793852Y-71373913D01*
X100793916Y-71435459D01*
X100793974Y-71499395D01*
X100794027Y-71565503D01*
X100794075Y-71633566D01*
X100794118Y-71703363D01*
X100794156Y-71774678D01*
X100794189Y-71847291D01*
X100794216Y-71920985D01*
X100794239Y-71995540D01*
X100794256Y-72070738D01*
X100794269Y-72146361D01*
X100794276Y-72222190D01*
X100794278Y-72298008D01*
X100794274Y-72373595D01*
X100794266Y-72448733D01*
X100794252Y-72523204D01*
X100794233Y-72596789D01*
X100794209Y-72669270D01*
X100794180Y-72740429D01*
X100794146Y-72810046D01*
X100794106Y-72877904D01*
X100794061Y-72943784D01*
X100794010Y-73007468D01*
X100793955Y-73068737D01*
X100793894Y-73127373D01*
X100793827Y-73183157D01*
X100793756Y-73235872D01*
X100793679Y-73285298D01*
X100793597Y-73331217D01*
X100793509Y-73373411D01*
X100793416Y-73411661D01*
X100793318Y-73445749D01*
X100793214Y-73475457D01*
X100793105Y-73500566D01*
X100792990Y-73520857D01*
X100792870Y-73536112D01*
X100792745Y-73546113D01*
X100792614Y-73550642D01*
X100792582Y-73550890D01*
X100789919Y-73553631D01*
X100783835Y-73555050D01*
X100773916Y-73555432D01*
X100756993Y-73555432D01*
X100756613Y-73569072D01*
X100756363Y-73576800D01*
X100755931Y-73588850D01*
X100755371Y-73603806D01*
X100754735Y-73620252D01*
X100754459Y-73627224D01*
X100752685Y-73671735D01*
X100733641Y-73672576D01*
X100714597Y-73673418D01*
X100712534Y-73711932D01*
X100710471Y-73750447D01*
X100692811Y-73751294D01*
X100675150Y-73752142D01*
X100673714Y-73772244D01*
X100672278Y-73792345D01*
X100652894Y-73793195D01*
X100633511Y-73794044D01*
X100633511Y-73839728D01*
X100593307Y-73839728D01*
X100593307Y-73879932D01*
X100553366Y-73879932D01*
X100552517Y-73899316D01*
X100551668Y-73918699D01*
X100511464Y-73921571D01*
X100509770Y-73956883D01*
X100426750Y-73961033D01*
X100426750Y-73996825D01*
X100395879Y-73998711D01*
X100378992Y-73999754D01*
X100360313Y-74000927D01*
X100342970Y-74002031D01*
X100337010Y-74002416D01*
X100309011Y-74004235D01*
X100309011Y-74020747D01*
X100308555Y-74031014D01*
X100306994Y-74036760D01*
X100304469Y-74039003D01*
X100301375Y-74039098D01*
X100292716Y-74039189D01*
X100278668Y-74039278D01*
X100259408Y-74039363D01*
X100235114Y-74039445D01*
X100205962Y-74039524D01*
X100172131Y-74039600D01*
X100133796Y-74039673D01*
X100091136Y-74039742D01*
X100044326Y-74039809D01*
X99993545Y-74039872D01*
X99938970Y-74039932D01*
X99880777Y-74039989D01*
X99819143Y-74040043D01*
X99754247Y-74040094D01*
X99686265Y-74040142D01*
X99615374Y-74040186D01*
X99541751Y-74040228D01*
X99465573Y-74040266D01*
X99387018Y-74040302D01*
X99306263Y-74040334D01*
X99223484Y-74040363D01*
X99138860Y-74040390D01*
X99052566Y-74040413D01*
X98964781Y-74040433D01*
X98875681Y-74040450D01*
X98785443Y-74040464D01*
X98694245Y-74040475D01*
X98602264Y-74040483D01*
X98509677Y-74040488D01*
X98416660Y-74040490D01*
X98323392Y-74040490D01*
X98230049Y-74040486D01*
X98136808Y-74040479D01*
X98043847Y-74040469D01*
X97951343Y-74040456D01*
X97859472Y-74040440D01*
X97768412Y-74040422D01*
X97678341Y-74040400D01*
X97589434Y-74040375D01*
X97501870Y-74040348D01*
X97415825Y-74040318D01*
X97331477Y-74040284D01*
X97249002Y-74040248D01*
X97168579Y-74040209D01*
X97090383Y-74040167D01*
X97014592Y-74040122D01*
X96941384Y-74040074D01*
X96870935Y-74040024D01*
X96803422Y-74039970D01*
X96739024Y-74039914D01*
X96677915Y-74039855D01*
X96620275Y-74039793D01*
X96566280Y-74039728D01*
X96516107Y-74039660D01*
X96469933Y-74039589D01*
X96427936Y-74039516D01*
X96390292Y-74039440D01*
X96357179Y-74039361D01*
X96328774Y-74039279D01*
X96305254Y-74039195D01*
X96286795Y-74039107D01*
X96273576Y-74039017D01*
X96265774Y-74038925D01*
X96263533Y-74038844D01*
X96261238Y-74034983D01*
X96260069Y-74026087D01*
X96259944Y-74020707D01*
X96259944Y-74004019D01*
X96305173Y-74002230D01*
X96324700Y-74001439D01*
X96345979Y-74000546D01*
X96366652Y-73999652D01*
X96384363Y-73998858D01*
X96387015Y-73998735D01*
X96423629Y-73997030D01*
X96423629Y-73964238D01*
X96480345Y-73960830D01*
X96498188Y-73959777D01*
X96514385Y-73958859D01*
X96527940Y-73958129D01*
X96537857Y-73957640D01*
X96543141Y-73957445D01*
X96543385Y-73957444D01*
X96546878Y-73956924D01*
X96548899Y-73954465D01*
X96549970Y-73948764D01*
X96550564Y-73939519D01*
X96551419Y-73921571D01*
X96591623Y-73920135D01*
X96631826Y-73918699D01*
X96633518Y-73883503D01*
X96672875Y-73880999D01*
X96712233Y-73878496D01*
X96713921Y-73843442D01*
X96740081Y-73841585D01*
X96753504Y-73840731D01*
X96766324Y-73840084D01*
X96776334Y-73839751D01*
X96778602Y-73839728D01*
X96790963Y-73839728D01*
X96791801Y-73817504D01*
X96792515Y-73805647D01*
X96793704Y-73798553D01*
X96795588Y-73795244D01*
X96796948Y-73794691D01*
X96801345Y-73794326D01*
X96810226Y-73793753D01*
X96822338Y-73793051D01*
X96836428Y-73792293D01*
X96837739Y-73792225D01*
X96874223Y-73790346D01*
X96875919Y-73755014D01*
X96896610Y-73754173D01*
X96917301Y-73753331D01*
X96918148Y-73734071D01*
X96918994Y-73714810D01*
X96939096Y-73713374D01*
X96959197Y-73711938D01*
X96960907Y-73676042D01*
X96979267Y-73676042D01*
X96989032Y-73675625D01*
X96996340Y-73674535D01*
X96999401Y-73673171D01*
X97003019Y-73671629D01*
X97010565Y-73670586D01*
X97018099Y-73670299D01*
X97035023Y-73670299D01*
X97036733Y-73634403D01*
X97056835Y-73632967D01*
X97076936Y-73631531D01*
X97077782Y-73612276D01*
X97078629Y-73593020D01*
X97097884Y-73592174D01*
X97117140Y-73591328D01*
X97117986Y-73572072D01*
X97118832Y-73552817D01*
X97138088Y-73551971D01*
X97157343Y-73551124D01*
X97158190Y-73531859D01*
X97159036Y-73512594D01*
X97181163Y-73511757D01*
X97203290Y-73510921D01*
X97204136Y-73491665D01*
X97204983Y-73472410D01*
X97224238Y-73471564D01*
X97243494Y-73470717D01*
X97245166Y-73426463D01*
X97264432Y-73425617D01*
X97283697Y-73424771D01*
X97286569Y-73384567D01*
X97322465Y-73382857D01*
X97322465Y-73365934D01*
X97322917Y-73356567D01*
X97324088Y-73349700D01*
X97325337Y-73347235D01*
X97326824Y-73343645D01*
X97327861Y-73336036D01*
X97328208Y-73327101D01*
X97328208Y-73308742D01*
X97364104Y-73307032D01*
X97366976Y-73266828D01*
X97386236Y-73265982D01*
X97405497Y-73265136D01*
X97406338Y-73244444D01*
X97407179Y-73223753D01*
X97424811Y-73222906D01*
X97442443Y-73222060D01*
X97447383Y-73146218D01*
X97466474Y-73145375D01*
X97485566Y-73144533D01*
X97487635Y-73103146D01*
X97489704Y-73061760D01*
X97507311Y-73060913D01*
X97524918Y-73060067D01*
X97527422Y-73020701D01*
X97529926Y-72981334D01*
X97550396Y-72980497D01*
X97570865Y-72979660D01*
X97572301Y-72939457D01*
X97573737Y-72899253D01*
X97592403Y-72897817D01*
X97611069Y-72896382D01*
X97612833Y-72850435D01*
X97613473Y-72833578D01*
X97614062Y-72817655D01*
X97614551Y-72804042D01*
X97614890Y-72794113D01*
X97614987Y-72790984D01*
X97615376Y-72777481D01*
X97651272Y-72775771D01*
X97653031Y-72705415D01*
X97653541Y-72685139D01*
X97654027Y-72666120D01*
X97654463Y-72649325D01*
X97654823Y-72635721D01*
X97655083Y-72626273D01*
X97655185Y-72622854D01*
X97655580Y-72610650D01*
X97672810Y-72610650D01*
X97682360Y-72610511D01*
X97687551Y-72609680D01*
X97689767Y-72607537D01*
X97690392Y-72603463D01*
X97690429Y-72602752D01*
X97690579Y-72598006D01*
X97690819Y-72588277D01*
X97691133Y-72574325D01*
X97691504Y-72556909D01*
X97691917Y-72536788D01*
X97692355Y-72514723D01*
X97692583Y-72502962D01*
X97694347Y-72411068D01*
X97771883Y-72411068D01*
X97772729Y-72430323D01*
X97773575Y-72449579D01*
X97792831Y-72450425D01*
X97812086Y-72451271D01*
X97813522Y-72673827D01*
X97814958Y-72896382D01*
X98017691Y-72897119D01*
X98220425Y-72897856D01*
X98222299Y-72867237D01*
X98222641Y-72858528D01*
X98222666Y-72857352D01*
X98551543Y-72857352D01*
X98570927Y-72858356D01*
X98576864Y-72858523D01*
X98588057Y-72858696D01*
X98604020Y-72858871D01*
X98624266Y-72859046D01*
X98648309Y-72859217D01*
X98675661Y-72859381D01*
X98705835Y-72859536D01*
X98738345Y-72859677D01*
X98772705Y-72859802D01*
X98808427Y-72859908D01*
X98814446Y-72859923D01*
X98857997Y-72860012D01*
X98896097Y-72860042D01*
X98929040Y-72860011D01*
X98957116Y-72859914D01*
X98980619Y-72859748D01*
X98999841Y-72859509D01*
X99015074Y-72859193D01*
X99026612Y-72858797D01*
X99034745Y-72858317D01*
X99039767Y-72857749D01*
X99041969Y-72857090D01*
X99042026Y-72857040D01*
X99043905Y-72852371D01*
X99045141Y-72843781D01*
X99045472Y-72835502D01*
X99045472Y-72817410D01*
X99082111Y-72817410D01*
X99084181Y-72778772D01*
X99086250Y-72740134D01*
X99103911Y-72739287D01*
X99121572Y-72738439D01*
X99123240Y-72691057D01*
X99159625Y-72691057D01*
X99164647Y-72612085D01*
X99183313Y-72610650D01*
X99201979Y-72609214D01*
X99204490Y-72569728D01*
X99207001Y-72530243D01*
X99242925Y-72530243D01*
X99244995Y-72491605D01*
X99247064Y-72452966D01*
X99264725Y-72452119D01*
X99282386Y-72451271D01*
X99283822Y-72429734D01*
X99285257Y-72408196D01*
X99302924Y-72407349D01*
X99320590Y-72406501D01*
X99322469Y-72370017D01*
X99323227Y-72355811D01*
X99323937Y-72343472D01*
X99324522Y-72334251D01*
X99324908Y-72329403D01*
X99324930Y-72329225D01*
X99327099Y-72326554D01*
X99333316Y-72324717D01*
X99344153Y-72323482D01*
X99362793Y-72322046D01*
X99365304Y-72282560D01*
X99367815Y-72243075D01*
X99409483Y-72243075D01*
X99411552Y-72204437D01*
X99413622Y-72165799D01*
X99431282Y-72164951D01*
X99448943Y-72164104D01*
X99451815Y-72121028D01*
X99469447Y-72120182D01*
X99487079Y-72119335D01*
X99489548Y-72081414D01*
X99492018Y-72043493D01*
X99529350Y-72040621D01*
X99532222Y-71957343D01*
X99551606Y-71956494D01*
X99570989Y-71955644D01*
X99570989Y-71943294D01*
X99571199Y-71934667D01*
X99571756Y-71922517D01*
X99572554Y-71909051D01*
X99572846Y-71904784D01*
X99574703Y-71878624D01*
X99609757Y-71876936D01*
X99612629Y-71836732D01*
X99649961Y-71836732D01*
X99651396Y-71875500D01*
X99652832Y-71914267D01*
X99690164Y-71917139D01*
X99692696Y-71957933D01*
X99695228Y-71998728D01*
X99730368Y-72000418D01*
X99731803Y-72021955D01*
X99733239Y-72043493D01*
X99774303Y-72045169D01*
X99776366Y-72083693D01*
X99778430Y-72122217D01*
X99797474Y-72123059D01*
X99816518Y-72123900D01*
X99817954Y-72162668D01*
X99819390Y-72201435D01*
X99838056Y-72202871D01*
X99856721Y-72204307D01*
X99861661Y-72280149D01*
X99879293Y-72280996D01*
X99896925Y-72281842D01*
X99899797Y-72324918D01*
X99935011Y-72326610D01*
X99939161Y-72409632D01*
X99975182Y-72409632D01*
X99977693Y-72449118D01*
X99980204Y-72488603D01*
X99998870Y-72490039D01*
X100017535Y-72491475D01*
X100022475Y-72567317D01*
X100040107Y-72568164D01*
X100057739Y-72569010D01*
X100059175Y-72590548D01*
X100060611Y-72612085D01*
X100078271Y-72612933D01*
X100095932Y-72613780D01*
X100098002Y-72652419D01*
X100100071Y-72691057D01*
X100141635Y-72691057D01*
X100146761Y-72775771D01*
X100184093Y-72778643D01*
X100185529Y-72817410D01*
X100186965Y-72856178D01*
X100208502Y-72857957D01*
X100214810Y-72858246D01*
X100226365Y-72858531D01*
X100242671Y-72858806D01*
X100263233Y-72859068D01*
X100287555Y-72859311D01*
X100315140Y-72859532D01*
X100345493Y-72859726D01*
X100378118Y-72859889D01*
X100412519Y-72860017D01*
X100448200Y-72860104D01*
X100451822Y-72860110D01*
X100673605Y-72860486D01*
X100675305Y-72853712D01*
X100675783Y-72848239D01*
X100675804Y-72838465D01*
X100675390Y-72825812D01*
X100674642Y-72812790D01*
X100672278Y-72778643D01*
X100634946Y-72775771D01*
X100633511Y-72734132D01*
X100632075Y-72692492D01*
X100593307Y-72690794D01*
X100593307Y-72647981D01*
X100556690Y-72647981D01*
X100554179Y-72608496D01*
X100551668Y-72569010D01*
X100516530Y-72567320D01*
X100513997Y-72529397D01*
X100511464Y-72491475D01*
X100489927Y-72490039D01*
X100468389Y-72488603D01*
X100466953Y-72449836D01*
X100465517Y-72411068D01*
X100446475Y-72410227D01*
X100427432Y-72409385D01*
X100425363Y-72367999D01*
X100423294Y-72326612D01*
X100387982Y-72324918D01*
X100385110Y-72281842D01*
X100367583Y-72280998D01*
X100350057Y-72280154D01*
X100348200Y-72253994D01*
X100347345Y-72240550D01*
X100346698Y-72227688D01*
X100346366Y-72217626D01*
X100346343Y-72215353D01*
X100346343Y-72202871D01*
X100309725Y-72202871D01*
X100307214Y-72163386D01*
X100304703Y-72123900D01*
X100286037Y-72122464D01*
X100267372Y-72121028D01*
X100264902Y-72083107D01*
X100262432Y-72045187D01*
X100227168Y-72043493D01*
X100225732Y-72021955D01*
X100224296Y-72000418D01*
X100189082Y-71998726D01*
X100187007Y-71957214D01*
X100184932Y-71915703D01*
X100148911Y-71915703D01*
X100146400Y-71876218D01*
X100143889Y-71836732D01*
X100122352Y-71835296D01*
X100100814Y-71833860D01*
X100098344Y-71795940D01*
X100095875Y-71758019D01*
X100060611Y-71756325D01*
X100059175Y-71734788D01*
X100057739Y-71713250D01*
X100040078Y-71712402D01*
X100022418Y-71711555D01*
X100020348Y-71672917D01*
X100018279Y-71634279D01*
X99982458Y-71634279D01*
X99979895Y-71591922D01*
X99977332Y-71549564D01*
X99958666Y-71548128D01*
X99940000Y-71546693D01*
X99937128Y-71469157D01*
X99918084Y-71468316D01*
X99899040Y-71467474D01*
X99896977Y-71428960D01*
X99894915Y-71390445D01*
X99877254Y-71389598D01*
X99859593Y-71388750D01*
X99858749Y-71367931D01*
X99857906Y-71347111D01*
X99410438Y-71347111D01*
X99408740Y-71385879D01*
X99386846Y-71386711D01*
X99364953Y-71387543D01*
X99362887Y-71427632D01*
X99360822Y-71467721D01*
X99324718Y-71467721D01*
X99322648Y-71506359D01*
X99320579Y-71544998D01*
X99302918Y-71545845D01*
X99285257Y-71546693D01*
X99283822Y-71568230D01*
X99282386Y-71589768D01*
X99247246Y-71591458D01*
X99242182Y-71673046D01*
X99204850Y-71675918D01*
X99202339Y-71715404D01*
X99199828Y-71754889D01*
X99163904Y-71754889D01*
X99161834Y-71793527D01*
X99159765Y-71832165D01*
X99142104Y-71833013D01*
X99124443Y-71833860D01*
X99123008Y-71855398D01*
X99121572Y-71876936D01*
X99103940Y-71877782D01*
X99086308Y-71878629D01*
X99081368Y-71954471D01*
X99063276Y-71955330D01*
X99052723Y-71956352D01*
X99045957Y-71958104D01*
X99044083Y-71959637D01*
X99043546Y-71963646D01*
X99042843Y-71972234D01*
X99042055Y-71984240D01*
X99041264Y-71998507D01*
X99041061Y-72002572D01*
X99039140Y-72042057D01*
X98997346Y-72042057D01*
X98995277Y-72080695D01*
X98993207Y-72119333D01*
X98975547Y-72120181D01*
X98957886Y-72121028D01*
X98955014Y-72164104D01*
X98937382Y-72164950D01*
X98919750Y-72165797D01*
X98917281Y-72203718D01*
X98914811Y-72241639D01*
X98877479Y-72244511D01*
X98874968Y-72283996D01*
X98872457Y-72323482D01*
X98835840Y-72323482D01*
X98835825Y-72337122D01*
X98835621Y-72346200D01*
X98835091Y-72358831D01*
X98834330Y-72372838D01*
X98833964Y-72378636D01*
X98832118Y-72406508D01*
X98797072Y-72408196D01*
X98795636Y-72429734D01*
X98794200Y-72451271D01*
X98759146Y-72452959D01*
X98757290Y-72479120D01*
X98756436Y-72492541D01*
X98755789Y-72505357D01*
X98755456Y-72515363D01*
X98755433Y-72517630D01*
X98755433Y-72529980D01*
X98716665Y-72531678D01*
X98713793Y-72609214D01*
X98694409Y-72610063D01*
X98675026Y-72610912D01*
X98675026Y-72623262D01*
X98674816Y-72631889D01*
X98674259Y-72644038D01*
X98673461Y-72657506D01*
X98673168Y-72661781D01*
X98671311Y-72687950D01*
X98650913Y-72688786D01*
X98630515Y-72689621D01*
X98627643Y-72738439D01*
X98592589Y-72740127D01*
X98590732Y-72766288D01*
X98589878Y-72779732D01*
X98589231Y-72792593D01*
X98588898Y-72802656D01*
X98588875Y-72804929D01*
X98588875Y-72817410D01*
X98551543Y-72817410D01*
X98551543Y-72857352D01*
X98222666Y-72857352D01*
X98222940Y-72844729D01*
X98223194Y-72826423D01*
G37*
%TO.C,kibuzzard-63708DBF*%
G36*
X140384018Y-89292628D02*
G01*
X140277440Y-89276819D01*
X140172925Y-89250639D01*
X140071479Y-89214341D01*
X139974079Y-89168275D01*
X139881664Y-89112883D01*
X139795123Y-89048700D01*
X139715289Y-88976343D01*
X139642933Y-88896510D01*
X139578750Y-88809969D01*
X139523358Y-88717554D01*
X139477291Y-88620154D01*
X139440993Y-88518708D01*
X139414814Y-88414193D01*
X139404517Y-88344780D01*
X140888507Y-88344780D01*
X140898032Y-88426695D01*
X140949944Y-88480987D01*
X141056147Y-88499085D01*
X141572402Y-88499085D01*
X141572402Y-88731495D01*
X141583832Y-88830555D01*
X141608597Y-88868655D01*
X141658127Y-88891515D01*
X141745757Y-88901040D01*
X141838150Y-88889610D01*
X141893395Y-88842937D01*
X141911492Y-88733400D01*
X141911492Y-87674220D01*
X141908635Y-87607545D01*
X141890537Y-87557063D01*
X141839102Y-87517057D01*
X141742900Y-87504675D01*
X141645745Y-87515152D01*
X141593357Y-87552300D01*
X141575260Y-87599925D01*
X141572402Y-87664695D01*
X141572402Y-88184760D01*
X141261887Y-88184760D01*
X141378092Y-87719940D01*
X141379997Y-87714225D01*
X141393332Y-87634215D01*
X141359995Y-87560872D01*
X141259982Y-87512295D01*
X141172352Y-87498960D01*
X141106630Y-87519915D01*
X141072340Y-87563730D01*
X141052337Y-87630405D01*
X140894222Y-88268580D01*
X140888507Y-88344780D01*
X139404517Y-88344780D01*
X139399004Y-88307614D01*
X139393718Y-88200000D01*
X139399004Y-88092386D01*
X139414814Y-87985807D01*
X139440993Y-87881292D01*
X139477291Y-87779846D01*
X139523358Y-87682446D01*
X139578750Y-87590031D01*
X139642933Y-87503490D01*
X139715289Y-87423657D01*
X139795123Y-87351300D01*
X139881664Y-87287117D01*
X139974079Y-87231725D01*
X140071479Y-87185659D01*
X140172925Y-87149361D01*
X140277440Y-87123181D01*
X140384018Y-87107372D01*
X140491632Y-87102085D01*
X142308367Y-87102085D01*
X142415982Y-87107372D01*
X142522560Y-87123181D01*
X142627075Y-87149361D01*
X142728521Y-87185659D01*
X142825921Y-87231725D01*
X142918336Y-87287117D01*
X143004877Y-87351300D01*
X143084711Y-87423657D01*
X143157067Y-87503490D01*
X143221250Y-87590031D01*
X143276642Y-87682446D01*
X143322709Y-87779846D01*
X143359007Y-87881292D01*
X143385186Y-87985807D01*
X143400996Y-88092386D01*
X143406282Y-88200000D01*
X143400996Y-88307614D01*
X143385186Y-88414193D01*
X143359007Y-88518708D01*
X143322709Y-88620154D01*
X143276642Y-88717554D01*
X143221250Y-88809969D01*
X143157067Y-88896510D01*
X143084711Y-88976343D01*
X143004877Y-89048700D01*
X142918336Y-89112883D01*
X142825921Y-89168275D01*
X142728521Y-89214341D01*
X142627075Y-89250639D01*
X142522560Y-89276819D01*
X142415982Y-89292628D01*
X142308367Y-89297915D01*
X140491632Y-89297915D01*
X140384018Y-89292628D01*
G37*
%TO.C,kibuzzard-63708D85*%
G36*
X115352604Y-88902107D02*
G01*
X115245102Y-88886161D01*
X115139680Y-88859754D01*
X115037354Y-88823141D01*
X114939109Y-88776675D01*
X114845892Y-88720803D01*
X114758600Y-88656063D01*
X114678074Y-88583078D01*
X114605090Y-88502552D01*
X114540350Y-88415261D01*
X114494710Y-88339115D01*
X115858027Y-88339115D01*
X115907557Y-88459130D01*
X116025667Y-88510565D01*
X116770522Y-88510565D01*
X116888632Y-88487705D01*
X116929590Y-88438175D01*
X116941972Y-88341973D01*
X116930542Y-88244817D01*
X116885775Y-88189573D01*
X116774332Y-88171475D01*
X116425717Y-88171475D01*
X116425717Y-88161950D01*
X116473342Y-88142900D01*
X116591452Y-88078606D01*
X116724802Y-87973355D01*
X116786715Y-87904775D01*
X116839102Y-87817145D01*
X116874821Y-87717132D01*
X116886727Y-87611405D01*
X116870852Y-87480489D01*
X116823227Y-87359522D01*
X116743852Y-87248502D01*
X116638972Y-87160132D01*
X116514829Y-87107109D01*
X116371425Y-87089435D01*
X116228127Y-87106897D01*
X116104302Y-87159285D01*
X115999950Y-87246597D01*
X115921104Y-87355923D01*
X115873797Y-87474351D01*
X115858027Y-87601880D01*
X115867552Y-87699035D01*
X115919464Y-87753328D01*
X116025667Y-87771425D01*
X116122822Y-87759995D01*
X116174257Y-87725705D01*
X116192355Y-87678080D01*
X116195212Y-87615215D01*
X116195212Y-87603785D01*
X116202832Y-87559970D01*
X116253315Y-87471387D01*
X116359042Y-87426620D01*
X116454292Y-87443765D01*
X116504775Y-87480913D01*
X116534302Y-87532347D01*
X116547637Y-87580925D01*
X116529778Y-87664269D01*
X116476200Y-87742850D01*
X116397381Y-87815002D01*
X116303797Y-87879057D01*
X116202832Y-87939541D01*
X116101867Y-88000978D01*
X116008284Y-88069081D01*
X115929465Y-88149568D01*
X115875887Y-88240293D01*
X115858027Y-88339115D01*
X114494710Y-88339115D01*
X114484478Y-88322044D01*
X114438011Y-88223799D01*
X114401399Y-88121473D01*
X114374992Y-88016051D01*
X114359045Y-87908548D01*
X114353713Y-87800000D01*
X114359045Y-87691452D01*
X114374992Y-87583949D01*
X114401399Y-87478527D01*
X114438011Y-87376201D01*
X114484478Y-87277956D01*
X114540350Y-87184739D01*
X114605090Y-87097448D01*
X114678074Y-87016922D01*
X114758600Y-86943937D01*
X114845892Y-86879197D01*
X114939109Y-86823325D01*
X115037354Y-86776859D01*
X115139680Y-86740246D01*
X115245102Y-86713839D01*
X115352604Y-86697893D01*
X115461152Y-86692560D01*
X117338847Y-86692560D01*
X117447396Y-86697893D01*
X117554898Y-86713839D01*
X117660320Y-86740246D01*
X117762646Y-86776859D01*
X117860891Y-86823325D01*
X117954108Y-86879197D01*
X118041400Y-86943937D01*
X118121926Y-87016922D01*
X118194910Y-87097448D01*
X118259650Y-87184739D01*
X118315522Y-87277956D01*
X118361989Y-87376201D01*
X118398601Y-87478527D01*
X118425008Y-87583949D01*
X118440955Y-87691452D01*
X118446287Y-87800000D01*
X118440955Y-87908548D01*
X118425008Y-88016051D01*
X118398601Y-88121473D01*
X118361989Y-88223799D01*
X118315522Y-88322044D01*
X118259650Y-88415261D01*
X118194910Y-88502552D01*
X118121926Y-88583078D01*
X118041400Y-88656063D01*
X117954108Y-88720803D01*
X117860891Y-88776675D01*
X117762646Y-88823141D01*
X117660320Y-88859754D01*
X117554898Y-88886161D01*
X117447396Y-88902107D01*
X117338847Y-88907440D01*
X115461152Y-88907440D01*
X115352604Y-88902107D01*
G37*
%TO.C,kibuzzard-63708C00*%
G36*
X115751030Y-74034875D02*
G01*
X115764365Y-74063450D01*
X115767540Y-74100280D01*
X115741505Y-74147270D01*
X115665940Y-74170765D01*
X115594185Y-74145365D01*
X115571960Y-74090755D01*
X115596408Y-74026937D01*
X115669750Y-74005665D01*
X115751030Y-74034875D01*
G37*
G36*
X106956271Y-75298411D02*
G01*
X106868637Y-75285412D01*
X106782700Y-75263886D01*
X106699286Y-75234040D01*
X106619199Y-75196162D01*
X106543211Y-75150616D01*
X106472053Y-75097842D01*
X106406410Y-75038347D01*
X106346915Y-74972704D01*
X106312585Y-74926415D01*
X109195290Y-74926415D01*
X109205450Y-75003885D01*
X109232120Y-75030555D01*
X109282285Y-75038175D01*
X109332450Y-75030555D01*
X109360072Y-74997535D01*
X109369280Y-74928955D01*
X109369280Y-74926415D01*
X111558760Y-74926415D01*
X111568920Y-75003885D01*
X111595590Y-75030555D01*
X111645755Y-75038175D01*
X111695920Y-75030555D01*
X111723542Y-74997535D01*
X111732750Y-74928955D01*
X111732750Y-74926415D01*
X114000970Y-74926415D01*
X114011130Y-75003885D01*
X114037800Y-75030555D01*
X114087965Y-75038175D01*
X114138130Y-75030555D01*
X114165752Y-74997535D01*
X114174960Y-74928955D01*
X114174960Y-74926415D01*
X116402540Y-74926415D01*
X116412700Y-75003885D01*
X116439370Y-75030555D01*
X116489535Y-75038175D01*
X116539700Y-75030555D01*
X116567323Y-74997535D01*
X116576530Y-74928955D01*
X116576530Y-74926415D01*
X118804110Y-74926415D01*
X118814270Y-75003885D01*
X118840940Y-75030555D01*
X118891105Y-75038175D01*
X118941270Y-75030555D01*
X118968893Y-74997535D01*
X118978100Y-74928955D01*
X118978100Y-74926415D01*
X122437580Y-74926415D01*
X122447740Y-75003885D01*
X122474410Y-75030555D01*
X122524575Y-75038175D01*
X122574740Y-75030555D01*
X122602363Y-74997535D01*
X122611570Y-74928955D01*
X122611570Y-74466675D01*
X123015430Y-74466675D01*
X123029400Y-74535255D01*
X123031940Y-74547955D01*
X123045910Y-74580975D01*
X123077343Y-74631458D01*
X123113220Y-74671145D01*
X123186598Y-74720534D01*
X123271264Y-74750167D01*
X123367220Y-74760045D01*
X123463881Y-74750238D01*
X123548971Y-74720816D01*
X123622490Y-74671780D01*
X123678934Y-74607645D01*
X123712801Y-74532927D01*
X123724090Y-74447625D01*
X123713613Y-74382855D01*
X123682180Y-74325705D01*
X123642175Y-74284430D01*
X123604710Y-74257125D01*
X123604710Y-74248235D01*
X123659743Y-74208371D01*
X123692763Y-74154819D01*
X123703770Y-74087580D01*
X123693751Y-74015966D01*
X123663694Y-73949291D01*
X123630088Y-73907875D01*
X123774890Y-73907875D01*
X123793940Y-73968835D01*
X124144460Y-74680035D01*
X124187005Y-74725120D01*
X124247330Y-74742265D01*
X124260030Y-74742265D01*
X124319085Y-74725120D01*
X124361630Y-74680035D01*
X124466786Y-74466675D01*
X124782000Y-74466675D01*
X124795970Y-74535255D01*
X124798510Y-74547955D01*
X124812480Y-74580975D01*
X124843913Y-74631458D01*
X124879790Y-74671145D01*
X124953168Y-74720534D01*
X125037834Y-74750167D01*
X125133790Y-74760045D01*
X125230451Y-74750238D01*
X125315541Y-74720816D01*
X125389060Y-74671780D01*
X125445504Y-74607645D01*
X125479371Y-74532927D01*
X125490660Y-74447625D01*
X125480183Y-74382855D01*
X125448750Y-74325705D01*
X125408745Y-74284430D01*
X125371280Y-74257125D01*
X125371280Y-74248235D01*
X125426313Y-74208371D01*
X125459333Y-74154819D01*
X125470340Y-74087580D01*
X125460321Y-74015966D01*
X125430264Y-73949291D01*
X125380170Y-73887555D01*
X125312719Y-73838166D01*
X125230592Y-73808533D01*
X125133790Y-73798655D01*
X125070766Y-73803100D01*
X125013775Y-73816435D01*
X124929955Y-73855805D01*
X124877250Y-73905970D01*
X124849310Y-73945975D01*
X124820100Y-74032335D01*
X124835975Y-74077737D01*
X124883600Y-74117425D01*
X124953450Y-74140285D01*
X125001710Y-74124410D01*
X125037270Y-74076785D01*
X125044890Y-74061545D01*
X125077910Y-74031065D01*
X125149665Y-74015825D01*
X125220150Y-74039955D01*
X125245550Y-74090755D01*
X125221420Y-74127902D01*
X125149030Y-74140285D01*
X125082990Y-74146635D01*
X125047748Y-74181243D01*
X125036000Y-74252045D01*
X125044573Y-74317133D01*
X125070290Y-74349835D01*
X125103310Y-74362535D01*
X125161095Y-74365075D01*
X125234755Y-74391110D01*
X125265870Y-74451435D01*
X125234120Y-74513030D01*
X125193480Y-74533509D01*
X125135060Y-74540335D01*
X125081720Y-74532715D01*
X125011870Y-74471755D01*
X124973770Y-74405715D01*
X124906460Y-74393015D01*
X124813115Y-74411430D01*
X124782000Y-74466675D01*
X124466786Y-74466675D01*
X124712150Y-73968835D01*
X124731200Y-73907875D01*
X124712468Y-73865330D01*
X124656270Y-73826595D01*
X124581340Y-73805005D01*
X124525460Y-73839295D01*
X124507680Y-73877395D01*
X124253680Y-74433655D01*
X124239869Y-74404286D01*
X124208595Y-74336500D01*
X124167320Y-74246806D01*
X124123505Y-74151715D01*
X124079849Y-74056624D01*
X124039050Y-73966930D01*
X124007141Y-73897080D01*
X123990155Y-73861520D01*
X123969200Y-73827865D01*
X123947610Y-73810085D01*
X123913955Y-73805005D01*
X123849820Y-73826595D01*
X123793623Y-73865330D01*
X123774890Y-73907875D01*
X123630088Y-73907875D01*
X123613600Y-73887555D01*
X123546149Y-73838166D01*
X123464022Y-73808533D01*
X123367220Y-73798655D01*
X123304196Y-73803100D01*
X123247205Y-73816435D01*
X123163385Y-73855805D01*
X123110680Y-73905970D01*
X123082740Y-73945975D01*
X123053530Y-74032335D01*
X123069405Y-74077737D01*
X123117030Y-74117425D01*
X123186880Y-74140285D01*
X123235140Y-74124410D01*
X123270700Y-74076785D01*
X123278320Y-74061545D01*
X123311340Y-74031065D01*
X123383095Y-74015825D01*
X123453580Y-74039955D01*
X123478980Y-74090755D01*
X123454850Y-74127902D01*
X123382460Y-74140285D01*
X123316420Y-74146635D01*
X123281178Y-74181243D01*
X123269430Y-74252045D01*
X123278003Y-74317133D01*
X123303720Y-74349835D01*
X123336740Y-74362535D01*
X123394525Y-74365075D01*
X123468185Y-74391110D01*
X123499300Y-74451435D01*
X123467550Y-74513030D01*
X123426910Y-74533509D01*
X123368490Y-74540335D01*
X123315150Y-74532715D01*
X123245300Y-74471755D01*
X123207200Y-74405715D01*
X123139890Y-74393015D01*
X123046545Y-74411430D01*
X123015430Y-74466675D01*
X122611570Y-74466675D01*
X122611570Y-73872315D01*
X122601410Y-73796115D01*
X122574740Y-73769445D01*
X122524575Y-73761825D01*
X122474410Y-73769445D01*
X122446788Y-73802465D01*
X122437580Y-73871045D01*
X122437580Y-74926415D01*
X118978100Y-74926415D01*
X118978100Y-74268555D01*
X119381960Y-74268555D01*
X119390691Y-74365829D01*
X119416885Y-74455721D01*
X119460541Y-74538232D01*
X119521660Y-74613360D01*
X119594606Y-74675868D01*
X119673743Y-74720516D01*
X119759071Y-74747305D01*
X119850590Y-74756235D01*
X119950603Y-74749329D01*
X120037280Y-74728612D01*
X120110623Y-74694084D01*
X120170630Y-74645745D01*
X120177625Y-74630505D01*
X120307790Y-74630505D01*
X120309695Y-74674955D01*
X120321760Y-74709245D01*
X120354780Y-74734963D01*
X120418280Y-74743535D01*
X120483685Y-74734963D01*
X120517340Y-74709245D01*
X120529405Y-74676225D01*
X120531310Y-74631775D01*
X120531310Y-74213945D01*
X120566799Y-74260229D01*
X120613154Y-74321189D01*
X120670375Y-74396825D01*
X120738461Y-74487136D01*
X120817413Y-74592123D01*
X120907230Y-74711785D01*
X120938980Y-74735915D01*
X121007560Y-74743535D01*
X121072965Y-74734963D01*
X121106620Y-74709245D01*
X121118685Y-74676225D01*
X121120590Y-74631775D01*
X121120590Y-74629235D01*
X121222190Y-74629235D01*
X121237430Y-74710515D01*
X121271085Y-74734328D01*
X121333950Y-74742265D01*
X121566360Y-74742265D01*
X121659903Y-74733613D01*
X121746224Y-74707658D01*
X121825321Y-74664398D01*
X121897195Y-74603835D01*
X121956925Y-74531167D01*
X121999589Y-74451594D01*
X122025187Y-74365115D01*
X122033720Y-74271730D01*
X122024989Y-74178703D01*
X121998795Y-74093295D01*
X121955139Y-74015507D01*
X121894020Y-73945340D01*
X121821392Y-73887277D01*
X121743208Y-73845804D01*
X121659467Y-73820920D01*
X121570170Y-73812625D01*
X121335220Y-73811355D01*
X121269815Y-73819927D01*
X121236160Y-73845645D01*
X121224095Y-73878665D01*
X121222190Y-73923115D01*
X121222190Y-74629235D01*
X121120590Y-74629235D01*
X121120590Y-73926925D01*
X121112970Y-73862155D01*
X121097095Y-73835485D01*
X121064075Y-73820245D01*
X121005655Y-73813895D01*
X120945330Y-73821515D01*
X120909135Y-73851360D01*
X120897070Y-73921845D01*
X120897070Y-74351105D01*
X120862074Y-74305279D01*
X120817201Y-74245695D01*
X120762450Y-74172353D01*
X120697821Y-74085252D01*
X120623314Y-73984393D01*
X120538930Y-73869775D01*
X120509720Y-73836755D01*
X120478605Y-73820880D01*
X120418280Y-73813895D01*
X120356050Y-73821515D01*
X120319855Y-73851360D01*
X120307790Y-73921845D01*
X120307790Y-74630505D01*
X120177625Y-74630505D01*
X120206190Y-74568275D01*
X120206190Y-74288875D01*
X120193490Y-74217755D01*
X120109670Y-74182195D01*
X119886150Y-74182195D01*
X119825190Y-74193625D01*
X119804235Y-74221565D01*
X119798520Y-74275540D01*
X119803600Y-74328880D01*
X119825190Y-74358725D01*
X119881070Y-74368885D01*
X119981400Y-74368885D01*
X119981400Y-74507315D01*
X119922028Y-74524460D01*
X119855670Y-74530175D01*
X119764230Y-74510966D01*
X119682950Y-74453340D01*
X119640617Y-74398448D01*
X119615217Y-74336218D01*
X119606750Y-74266650D01*
X119625483Y-74167273D01*
X119681680Y-74088850D01*
X119762008Y-74037891D01*
X119853130Y-74020905D01*
X119921710Y-74029636D01*
X119980130Y-74055830D01*
X120057600Y-74090755D01*
X120100463Y-74073928D01*
X120147770Y-74023445D01*
X120176980Y-73951690D01*
X120142690Y-73895175D01*
X120051956Y-73840142D01*
X119957552Y-73807122D01*
X119859480Y-73796115D01*
X119766135Y-73804568D01*
X119679140Y-73829929D01*
X119598495Y-73872196D01*
X119524200Y-73931370D01*
X119461970Y-74003165D01*
X119417520Y-74083294D01*
X119390850Y-74171757D01*
X119381960Y-74268555D01*
X118978100Y-74268555D01*
X118978100Y-73872315D01*
X118967940Y-73796115D01*
X118941270Y-73769445D01*
X118891105Y-73761825D01*
X118840940Y-73769445D01*
X118813318Y-73802465D01*
X118804110Y-73871045D01*
X118804110Y-74926415D01*
X116576530Y-74926415D01*
X116576530Y-74466675D01*
X116980390Y-74466675D01*
X116994360Y-74535255D01*
X116996900Y-74547955D01*
X117010870Y-74580975D01*
X117042303Y-74631458D01*
X117078180Y-74671145D01*
X117151558Y-74720534D01*
X117236224Y-74750167D01*
X117332180Y-74760045D01*
X117428841Y-74750238D01*
X117513931Y-74720816D01*
X117587450Y-74671780D01*
X117643894Y-74607645D01*
X117677761Y-74532927D01*
X117689050Y-74447625D01*
X117678573Y-74382855D01*
X117677176Y-74380315D01*
X117752550Y-74380315D01*
X117761863Y-74485231D01*
X117789803Y-74576459D01*
X117836370Y-74654000D01*
X117901281Y-74712914D01*
X117984254Y-74748262D01*
X118085290Y-74760045D01*
X118168193Y-74750449D01*
X118242488Y-74721663D01*
X118308175Y-74673685D01*
X118359328Y-74611455D01*
X118390019Y-74539912D01*
X118400250Y-74459055D01*
X118390302Y-74391957D01*
X118360457Y-74329515D01*
X118310715Y-74271730D01*
X118247003Y-74225516D01*
X118175248Y-74197788D01*
X118095450Y-74188545D01*
X118001470Y-74210135D01*
X118007820Y-74192355D01*
X118031315Y-74147905D01*
X118076400Y-74098375D01*
X118153235Y-74055195D01*
X118254200Y-74037415D01*
X118327860Y-74029795D01*
X118353260Y-74013285D01*
X118368500Y-73980265D01*
X118374850Y-73921845D01*
X118367230Y-73860885D01*
X118337385Y-73824690D01*
X118266900Y-73812625D01*
X118175435Y-73819127D01*
X118092046Y-73838635D01*
X118016735Y-73871147D01*
X117949502Y-73916663D01*
X117890345Y-73975185D01*
X117840739Y-74043409D01*
X117802156Y-74118035D01*
X117774597Y-74199061D01*
X117758062Y-74286487D01*
X117752550Y-74380315D01*
X117677176Y-74380315D01*
X117647140Y-74325705D01*
X117607135Y-74284430D01*
X117569670Y-74257125D01*
X117569670Y-74248235D01*
X117624703Y-74208371D01*
X117657723Y-74154819D01*
X117668730Y-74087580D01*
X117658711Y-74015966D01*
X117628654Y-73949291D01*
X117578560Y-73887555D01*
X117511109Y-73838166D01*
X117428982Y-73808533D01*
X117332180Y-73798655D01*
X117269156Y-73803100D01*
X117212165Y-73816435D01*
X117128345Y-73855805D01*
X117075640Y-73905970D01*
X117047700Y-73945975D01*
X117018490Y-74032335D01*
X117034365Y-74077737D01*
X117081990Y-74117425D01*
X117151840Y-74140285D01*
X117200100Y-74124410D01*
X117235660Y-74076785D01*
X117243280Y-74061545D01*
X117276300Y-74031065D01*
X117348055Y-74015825D01*
X117418540Y-74039955D01*
X117443940Y-74090755D01*
X117419810Y-74127902D01*
X117347420Y-74140285D01*
X117281380Y-74146635D01*
X117246138Y-74181243D01*
X117234390Y-74252045D01*
X117242963Y-74317133D01*
X117268680Y-74349835D01*
X117301700Y-74362535D01*
X117359485Y-74365075D01*
X117433145Y-74391110D01*
X117464260Y-74451435D01*
X117432510Y-74513030D01*
X117391870Y-74533509D01*
X117333450Y-74540335D01*
X117280110Y-74532715D01*
X117210260Y-74471755D01*
X117172160Y-74405715D01*
X117104850Y-74393015D01*
X117011505Y-74411430D01*
X116980390Y-74466675D01*
X116576530Y-74466675D01*
X116576530Y-73872315D01*
X116566370Y-73796115D01*
X116539700Y-73769445D01*
X116489535Y-73761825D01*
X116439370Y-73769445D01*
X116411748Y-73802465D01*
X116402540Y-73871045D01*
X116402540Y-74926415D01*
X114174960Y-74926415D01*
X114174960Y-74466675D01*
X114578820Y-74466675D01*
X114592790Y-74535255D01*
X114595330Y-74547955D01*
X114609300Y-74580975D01*
X114640733Y-74631458D01*
X114676610Y-74671145D01*
X114749988Y-74720534D01*
X114834654Y-74750167D01*
X114930610Y-74760045D01*
X115027271Y-74750238D01*
X115112361Y-74720816D01*
X115185880Y-74671780D01*
X115242324Y-74607645D01*
X115276191Y-74532927D01*
X115287480Y-74447625D01*
X115277002Y-74382855D01*
X115245570Y-74325705D01*
X115205565Y-74284430D01*
X115168100Y-74257125D01*
X115168100Y-74248235D01*
X115223133Y-74208371D01*
X115256153Y-74154819D01*
X115265393Y-74098375D01*
X115350980Y-74098375D01*
X115360928Y-74165473D01*
X115390773Y-74227915D01*
X115440515Y-74285700D01*
X115504086Y-74331914D01*
X115575417Y-74359642D01*
X115654510Y-74368885D01*
X115749760Y-74347295D01*
X115743410Y-74365075D01*
X115718328Y-74409525D01*
X115673560Y-74459055D01*
X115597995Y-74502235D01*
X115497030Y-74520015D01*
X115423370Y-74527635D01*
X115387175Y-74561290D01*
X115375110Y-74631775D01*
X115384000Y-74696228D01*
X115410670Y-74732105D01*
X115479250Y-74744805D01*
X115486870Y-74744805D01*
X115577853Y-74738303D01*
X115660809Y-74718795D01*
X115735739Y-74686283D01*
X115802643Y-74640767D01*
X115861520Y-74582245D01*
X115910898Y-74514021D01*
X115949302Y-74439395D01*
X115976734Y-74358369D01*
X115993194Y-74270943D01*
X115998680Y-74177115D01*
X115989367Y-74072199D01*
X115961427Y-73980971D01*
X115914860Y-73903430D01*
X115849808Y-73844516D01*
X115766411Y-73809168D01*
X115664670Y-73797385D01*
X115581838Y-73806981D01*
X115507754Y-73835767D01*
X115442420Y-73883745D01*
X115391620Y-73945975D01*
X115361140Y-74017518D01*
X115350980Y-74098375D01*
X115265393Y-74098375D01*
X115267160Y-74087580D01*
X115257141Y-74015966D01*
X115227084Y-73949291D01*
X115176990Y-73887555D01*
X115109539Y-73838166D01*
X115027412Y-73808533D01*
X114930610Y-73798655D01*
X114867586Y-73803100D01*
X114810595Y-73816435D01*
X114726775Y-73855805D01*
X114674070Y-73905970D01*
X114646130Y-73945975D01*
X114616920Y-74032335D01*
X114632795Y-74077737D01*
X114680420Y-74117425D01*
X114750270Y-74140285D01*
X114798530Y-74124410D01*
X114834090Y-74076785D01*
X114841710Y-74061545D01*
X114874730Y-74031065D01*
X114946485Y-74015825D01*
X115016970Y-74039955D01*
X115042370Y-74090755D01*
X115018240Y-74127902D01*
X114945850Y-74140285D01*
X114879810Y-74146635D01*
X114844568Y-74181243D01*
X114832820Y-74252045D01*
X114841393Y-74317133D01*
X114867110Y-74349835D01*
X114900130Y-74362535D01*
X114957915Y-74365075D01*
X115031575Y-74391110D01*
X115062690Y-74451435D01*
X115030940Y-74513030D01*
X114990300Y-74533509D01*
X114931880Y-74540335D01*
X114878540Y-74532715D01*
X114808690Y-74471755D01*
X114770590Y-74405715D01*
X114703280Y-74393015D01*
X114609935Y-74411430D01*
X114578820Y-74466675D01*
X114174960Y-74466675D01*
X114174960Y-73872315D01*
X114164800Y-73796115D01*
X114138130Y-73769445D01*
X114087965Y-73761825D01*
X114037800Y-73769445D01*
X114010177Y-73802465D01*
X114000970Y-73871045D01*
X114000970Y-74926415D01*
X111732750Y-74926415D01*
X111732750Y-74466675D01*
X112136610Y-74466675D01*
X112150580Y-74535255D01*
X112153120Y-74547955D01*
X112167090Y-74580975D01*
X112198522Y-74631458D01*
X112234400Y-74671145D01*
X112307778Y-74720534D01*
X112392444Y-74750167D01*
X112488400Y-74760045D01*
X112585061Y-74750238D01*
X112670151Y-74720816D01*
X112743670Y-74671780D01*
X112800114Y-74607645D01*
X112833981Y-74532927D01*
X112845270Y-74447625D01*
X112834793Y-74382855D01*
X112828506Y-74371425D01*
X112896070Y-74371425D01*
X112902420Y-74426035D01*
X112937027Y-74462230D01*
X113007830Y-74474295D01*
X113352000Y-74474295D01*
X113352000Y-74629235D01*
X113359620Y-74695275D01*
X113376130Y-74720675D01*
X113409150Y-74735915D01*
X113467570Y-74742265D01*
X113529165Y-74734645D01*
X113565995Y-74703530D01*
X113578060Y-74630505D01*
X113578060Y-73924385D01*
X113576155Y-73879935D01*
X113564090Y-73846280D01*
X113529800Y-73819610D01*
X113465665Y-73811355D01*
X113400895Y-73818340D01*
X113365970Y-73843105D01*
X113353905Y-73874855D01*
X113352000Y-73918035D01*
X113352000Y-74264745D01*
X113144990Y-74264745D01*
X113222460Y-73954865D01*
X113223730Y-73951055D01*
X113232620Y-73897715D01*
X113210395Y-73848820D01*
X113143720Y-73816435D01*
X113085300Y-73807545D01*
X113041485Y-73821515D01*
X113018625Y-73850725D01*
X113005290Y-73895175D01*
X112899880Y-74320625D01*
X112896070Y-74371425D01*
X112828506Y-74371425D01*
X112803360Y-74325705D01*
X112763355Y-74284430D01*
X112725890Y-74257125D01*
X112725890Y-74248235D01*
X112780923Y-74208371D01*
X112813943Y-74154819D01*
X112824950Y-74087580D01*
X112814931Y-74015966D01*
X112784874Y-73949291D01*
X112734780Y-73887555D01*
X112667329Y-73838166D01*
X112585202Y-73808533D01*
X112488400Y-73798655D01*
X112425376Y-73803100D01*
X112368385Y-73816435D01*
X112284565Y-73855805D01*
X112231860Y-73905970D01*
X112203920Y-73945975D01*
X112174710Y-74032335D01*
X112190585Y-74077737D01*
X112238210Y-74117425D01*
X112308060Y-74140285D01*
X112356320Y-74124410D01*
X112391880Y-74076785D01*
X112399500Y-74061545D01*
X112432520Y-74031065D01*
X112504275Y-74015825D01*
X112574760Y-74039955D01*
X112600160Y-74090755D01*
X112576030Y-74127902D01*
X112503640Y-74140285D01*
X112437600Y-74146635D01*
X112402358Y-74181243D01*
X112390610Y-74252045D01*
X112399182Y-74317133D01*
X112424900Y-74349835D01*
X112457920Y-74362535D01*
X112515705Y-74365075D01*
X112589365Y-74391110D01*
X112620480Y-74451435D01*
X112588730Y-74513030D01*
X112548090Y-74533509D01*
X112489670Y-74540335D01*
X112436330Y-74532715D01*
X112366480Y-74471755D01*
X112328380Y-74405715D01*
X112261070Y-74393015D01*
X112167725Y-74411430D01*
X112136610Y-74466675D01*
X111732750Y-74466675D01*
X111732750Y-73872315D01*
X111722590Y-73796115D01*
X111695920Y-73769445D01*
X111645755Y-73761825D01*
X111595590Y-73769445D01*
X111567968Y-73802465D01*
X111558760Y-73871045D01*
X111558760Y-74926415D01*
X109369280Y-74926415D01*
X109369280Y-74466675D01*
X109773140Y-74466675D01*
X109787110Y-74535255D01*
X109789650Y-74547955D01*
X109803620Y-74580975D01*
X109835052Y-74631458D01*
X109870930Y-74671145D01*
X109944308Y-74720534D01*
X110028974Y-74750167D01*
X110124930Y-74760045D01*
X110221591Y-74750238D01*
X110306681Y-74720816D01*
X110380200Y-74671780D01*
X110436644Y-74607645D01*
X110443552Y-74592405D01*
X110532600Y-74592405D01*
X110580860Y-74668605D01*
X110591020Y-74677495D01*
X110622770Y-74701625D01*
X110688810Y-74734786D01*
X110759930Y-74754683D01*
X110836130Y-74761315D01*
X110921784Y-74750802D01*
X110997561Y-74719264D01*
X111063460Y-74666700D01*
X111114260Y-74599531D01*
X111144740Y-74524178D01*
X111154900Y-74440640D01*
X111144176Y-74357526D01*
X111112002Y-74283442D01*
X111058380Y-74218390D01*
X110991352Y-74167943D01*
X110918962Y-74137674D01*
X110841210Y-74127585D01*
X110796760Y-74130125D01*
X110809460Y-74033605D01*
X111031710Y-74033605D01*
X111072985Y-74031700D01*
X111104100Y-74019635D01*
X111127912Y-73988202D01*
X111135850Y-73926925D01*
X111127277Y-73859615D01*
X111101560Y-73825325D01*
X111068540Y-73813260D01*
X111024090Y-73811355D01*
X110904710Y-73811355D01*
X110711670Y-73810085D01*
X110660235Y-73822150D01*
X110627215Y-73849455D01*
X110608800Y-73883745D01*
X110599910Y-73910415D01*
X110592607Y-73963120D01*
X110573240Y-74105995D01*
X110554190Y-74251092D01*
X110547840Y-74310465D01*
X110561810Y-74341580D01*
X110620865Y-74380315D01*
X110700875Y-74404445D01*
X110770090Y-74375235D01*
X110831050Y-74352375D01*
X110898995Y-74377140D01*
X110928840Y-74444450D01*
X110901535Y-74511125D01*
X110817715Y-74535255D01*
X110738340Y-74508585D01*
X110653250Y-74467945D01*
X110579590Y-74509855D01*
X110532600Y-74592405D01*
X110443552Y-74592405D01*
X110470511Y-74532927D01*
X110481800Y-74447625D01*
X110471323Y-74382855D01*
X110439890Y-74325705D01*
X110399885Y-74284430D01*
X110362420Y-74257125D01*
X110362420Y-74248235D01*
X110417453Y-74208371D01*
X110450473Y-74154819D01*
X110461480Y-74087580D01*
X110451461Y-74015966D01*
X110421404Y-73949291D01*
X110371310Y-73887555D01*
X110303859Y-73838166D01*
X110221732Y-73808533D01*
X110124930Y-73798655D01*
X110061906Y-73803100D01*
X110004915Y-73816435D01*
X109921095Y-73855805D01*
X109868390Y-73905970D01*
X109840450Y-73945975D01*
X109811240Y-74032335D01*
X109827115Y-74077737D01*
X109874740Y-74117425D01*
X109944590Y-74140285D01*
X109992850Y-74124410D01*
X110028410Y-74076785D01*
X110036030Y-74061545D01*
X110069050Y-74031065D01*
X110140805Y-74015825D01*
X110211290Y-74039955D01*
X110236690Y-74090755D01*
X110212560Y-74127902D01*
X110140170Y-74140285D01*
X110074130Y-74146635D01*
X110038887Y-74181243D01*
X110027140Y-74252045D01*
X110035712Y-74317133D01*
X110061430Y-74349835D01*
X110094450Y-74362535D01*
X110152235Y-74365075D01*
X110225895Y-74391110D01*
X110257010Y-74451435D01*
X110225260Y-74513030D01*
X110184620Y-74533509D01*
X110126200Y-74540335D01*
X110072860Y-74532715D01*
X110003010Y-74471755D01*
X109964910Y-74405715D01*
X109897600Y-74393015D01*
X109804255Y-74411430D01*
X109773140Y-74466675D01*
X109369280Y-74466675D01*
X109369280Y-73872315D01*
X109359120Y-73796115D01*
X109332450Y-73769445D01*
X109282285Y-73761825D01*
X109232120Y-73769445D01*
X109204497Y-73802465D01*
X109195290Y-73871045D01*
X109195290Y-74926415D01*
X106312585Y-74926415D01*
X106294141Y-74901546D01*
X106248595Y-74825557D01*
X106210717Y-74745471D01*
X106180871Y-74662057D01*
X106159345Y-74576119D01*
X106146345Y-74488486D01*
X106145274Y-74466675D01*
X107309340Y-74466675D01*
X107323310Y-74535255D01*
X107325850Y-74547955D01*
X107339820Y-74580975D01*
X107371252Y-74631458D01*
X107407130Y-74671145D01*
X107480508Y-74720534D01*
X107565174Y-74750167D01*
X107661130Y-74760045D01*
X107757791Y-74750238D01*
X107842881Y-74720816D01*
X107916400Y-74671780D01*
X107951608Y-74631775D01*
X108081500Y-74631775D01*
X108114520Y-74711785D01*
X108193260Y-74746075D01*
X108689830Y-74746075D01*
X108768570Y-74730835D01*
X108795875Y-74697815D01*
X108804130Y-74633680D01*
X108796510Y-74568910D01*
X108766665Y-74532080D01*
X108692370Y-74520015D01*
X108459960Y-74520015D01*
X108459960Y-74513665D01*
X108491710Y-74500965D01*
X108570450Y-74458103D01*
X108659350Y-74387935D01*
X108700625Y-74342215D01*
X108735550Y-74283795D01*
X108759363Y-74217120D01*
X108767300Y-74146635D01*
X108756717Y-74059358D01*
X108724967Y-73978713D01*
X108672050Y-73904700D01*
X108602129Y-73845786D01*
X108519368Y-73810438D01*
X108423765Y-73798655D01*
X108328233Y-73810297D01*
X108245683Y-73845222D01*
X108176115Y-73903430D01*
X108123551Y-73976314D01*
X108092013Y-74055266D01*
X108081500Y-74140285D01*
X108087850Y-74205055D01*
X108122458Y-74241250D01*
X108193260Y-74253315D01*
X108258030Y-74245695D01*
X108292320Y-74222835D01*
X108304385Y-74191085D01*
X108306290Y-74149175D01*
X108306290Y-74141555D01*
X108311370Y-74112345D01*
X108345025Y-74053290D01*
X108415510Y-74023445D01*
X108479010Y-74034875D01*
X108512665Y-74059640D01*
X108532350Y-74093930D01*
X108541240Y-74126315D01*
X108529334Y-74181878D01*
X108493615Y-74234265D01*
X108441069Y-74282366D01*
X108378680Y-74325070D01*
X108311370Y-74365392D01*
X108244060Y-74406350D01*
X108181671Y-74451753D01*
X108129125Y-74505410D01*
X108093406Y-74565894D01*
X108081500Y-74631775D01*
X107951608Y-74631775D01*
X107972844Y-74607645D01*
X108006711Y-74532927D01*
X108018000Y-74447625D01*
X108007522Y-74382855D01*
X107976090Y-74325705D01*
X107936085Y-74284430D01*
X107898620Y-74257125D01*
X107898620Y-74248235D01*
X107953653Y-74208371D01*
X107986673Y-74154819D01*
X107997680Y-74087580D01*
X107987661Y-74015966D01*
X107957604Y-73949291D01*
X107907510Y-73887555D01*
X107840059Y-73838166D01*
X107757932Y-73808533D01*
X107661130Y-73798655D01*
X107598106Y-73803100D01*
X107541115Y-73816435D01*
X107457295Y-73855805D01*
X107404590Y-73905970D01*
X107376650Y-73945975D01*
X107347440Y-74032335D01*
X107363315Y-74077737D01*
X107410940Y-74117425D01*
X107480790Y-74140285D01*
X107529050Y-74124410D01*
X107564610Y-74076785D01*
X107572230Y-74061545D01*
X107605250Y-74031065D01*
X107677005Y-74015825D01*
X107747490Y-74039955D01*
X107772890Y-74090755D01*
X107748760Y-74127902D01*
X107676370Y-74140285D01*
X107610330Y-74146635D01*
X107575087Y-74181243D01*
X107563340Y-74252045D01*
X107571913Y-74317133D01*
X107597630Y-74349835D01*
X107630650Y-74362535D01*
X107688435Y-74365075D01*
X107762095Y-74391110D01*
X107793210Y-74451435D01*
X107761460Y-74513030D01*
X107720820Y-74533509D01*
X107662400Y-74540335D01*
X107609060Y-74532715D01*
X107539210Y-74471755D01*
X107501110Y-74405715D01*
X107433800Y-74393015D01*
X107340455Y-74411430D01*
X107309340Y-74466675D01*
X106145274Y-74466675D01*
X106141998Y-74400000D01*
X106146345Y-74311514D01*
X106159345Y-74223881D01*
X106180871Y-74137943D01*
X106210717Y-74054529D01*
X106248595Y-73974443D01*
X106294141Y-73898454D01*
X106346915Y-73827296D01*
X106406410Y-73761653D01*
X106472053Y-73702158D01*
X106543211Y-73649384D01*
X106619199Y-73603838D01*
X106699286Y-73565960D01*
X106782700Y-73536114D01*
X106868637Y-73514588D01*
X106956271Y-73501589D01*
X107044757Y-73497242D01*
X125755243Y-73497242D01*
X125843729Y-73501589D01*
X125931363Y-73514588D01*
X126017300Y-73536114D01*
X126100714Y-73565960D01*
X126180801Y-73603838D01*
X126256789Y-73649384D01*
X126327947Y-73702158D01*
X126393590Y-73761653D01*
X126453085Y-73827296D01*
X126505859Y-73898454D01*
X126551405Y-73974443D01*
X126589283Y-74054529D01*
X126619129Y-74137943D01*
X126640655Y-74223881D01*
X126653655Y-74311514D01*
X126658002Y-74400000D01*
X126653655Y-74488486D01*
X126640655Y-74576119D01*
X126619129Y-74662057D01*
X126589283Y-74745471D01*
X126551405Y-74825557D01*
X126505859Y-74901546D01*
X126453085Y-74972704D01*
X126393590Y-75038347D01*
X126327947Y-75097842D01*
X126256789Y-75150616D01*
X126180801Y-75196162D01*
X126100714Y-75234040D01*
X126017300Y-75263886D01*
X125931363Y-75285412D01*
X125843729Y-75298411D01*
X125755243Y-75302758D01*
X107044757Y-75302758D01*
X106956271Y-75298411D01*
G37*
G36*
X121659229Y-74054719D02*
G01*
X121737175Y-74106630D01*
X121790991Y-74184259D01*
X121808930Y-74278715D01*
X121790515Y-74372854D01*
X121735270Y-74449530D01*
X121657165Y-74500489D01*
X121570170Y-74517475D01*
X121446980Y-74517475D01*
X121446980Y-74037415D01*
X121568900Y-74037415D01*
X121659229Y-74054719D01*
G37*
G36*
X118155775Y-74412065D02*
G01*
X118178000Y-74466675D01*
X118153553Y-74530493D01*
X118080210Y-74551765D01*
X117998930Y-74522555D01*
X117986865Y-74494615D01*
X117983690Y-74457785D01*
X118009725Y-74410160D01*
X118084655Y-74386665D01*
X118155775Y-74412065D01*
G37*
%TO.C,U2*%
X130950000Y-84200000D02*
X130950000Y-81770000D01*
X126200000Y-75450000D02*
X130950000Y-75450000D01*
X125050000Y-81770000D02*
X125050000Y-84200000D01*
X125050000Y-76600000D02*
X125050000Y-79430000D01*
X125050000Y-84200000D02*
X126600000Y-85750000D01*
X126600000Y-85750000D02*
X129400000Y-85750000D01*
X130950000Y-84200000D02*
X129400000Y-85750000D01*
X130950000Y-75450000D02*
X130950000Y-79430000D01*
%TO.C,U1*%
X138250000Y-84200000D02*
X139800000Y-85750000D01*
X138250000Y-81770000D02*
X138250000Y-84200000D01*
X139800000Y-85750000D02*
X142600000Y-85750000D01*
X139400000Y-75450000D02*
X144150000Y-75450000D01*
X144150000Y-84200000D02*
X144150000Y-81770000D01*
X138250000Y-76600000D02*
X138250000Y-79430000D01*
X144150000Y-84200000D02*
X142600000Y-85750000D01*
X144150000Y-75450000D02*
X144150000Y-79430000D01*
%TD*%
M02*
