%TF.GenerationSoftware,KiCad,Pcbnew,9.0.7-9.0.7~ubuntu22.04.1*%
%TF.CreationDate,2026-03-06T21:13:12+05:30*%
%TF.ProjectId,sra_dev_board_2026,7372615f-6465-4765-9f62-6f6172645f32,rev?*%
%TF.SameCoordinates,Original*%
%TF.FileFunction,Paste,Top*%
%TF.FilePolarity,Positive*%
%FSLAX46Y46*%
G04 Gerber Fmt 4.6, Leading zero omitted, Abs format (unit mm)*
G04 Created by KiCad (PCBNEW 9.0.7-9.0.7~ubuntu22.04.1) date 2026-03-06 21:13:12*
%MOMM*%
%LPD*%
G01*
G04 APERTURE LIST*
G04 Aperture macros list*
%AMRoundRect*
0 Rectangle with rounded corners*
0 $1 Rounding radius*
0 $2 $3 $4 $5 $6 $7 $8 $9 X,Y pos of 4 corners*
0 Add a 4 corners polygon primitive as box body*
4,1,4,$2,$3,$4,$5,$6,$7,$8,$9,$2,$3,0*
0 Add four circle primitives for the rounded corners*
1,1,$1+$1,$2,$3*
1,1,$1+$1,$4,$5*
1,1,$1+$1,$6,$7*
1,1,$1+$1,$8,$9*
0 Add four rect primitives between the rounded corners*
20,1,$1+$1,$2,$3,$4,$5,0*
20,1,$1+$1,$4,$5,$6,$7,0*
20,1,$1+$1,$6,$7,$8,$9,0*
20,1,$1+$1,$8,$9,$2,$3,0*%
G04 Aperture macros list end*
%ADD10RoundRect,0.237500X-0.008839X-0.344715X0.344715X0.008839X0.008839X0.344715X-0.344715X-0.008839X0*%
%ADD11RoundRect,0.237500X-0.035355X-0.371231X0.371231X0.035355X0.035355X0.371231X-0.371231X-0.035355X0*%
%ADD12RoundRect,0.250000X-0.450000X0.350000X-0.450000X-0.350000X0.450000X-0.350000X0.450000X0.350000X0*%
%ADD13RoundRect,0.237500X0.237500X-0.287500X0.237500X0.287500X-0.237500X0.287500X-0.237500X-0.287500X0*%
%ADD14RoundRect,0.150000X-0.150000X0.587500X-0.150000X-0.587500X0.150000X-0.587500X0.150000X0.587500X0*%
%ADD15RoundRect,0.250000X0.475000X-0.250000X0.475000X0.250000X-0.475000X0.250000X-0.475000X-0.250000X0*%
%ADD16RoundRect,0.175000X0.175000X0.325000X-0.175000X0.325000X-0.175000X-0.325000X0.175000X-0.325000X0*%
%ADD17RoundRect,0.150000X0.200000X0.150000X-0.200000X0.150000X-0.200000X-0.150000X0.200000X-0.150000X0*%
%ADD18RoundRect,0.200000X-0.200000X-0.800000X0.200000X-0.800000X0.200000X0.800000X-0.200000X0.800000X0*%
%ADD19RoundRect,0.237500X0.237500X-0.250000X0.237500X0.250000X-0.237500X0.250000X-0.237500X-0.250000X0*%
%ADD20RoundRect,0.250000X0.450000X-0.350000X0.450000X0.350000X-0.450000X0.350000X-0.450000X-0.350000X0*%
%ADD21R,1.500000X0.900000*%
%ADD22R,0.600000X1.450000*%
%ADD23R,0.300000X1.450000*%
%ADD24RoundRect,0.237500X0.250000X0.237500X-0.250000X0.237500X-0.250000X-0.237500X0.250000X-0.237500X0*%
%ADD25RoundRect,0.250000X-0.250000X-0.475000X0.250000X-0.475000X0.250000X0.475000X-0.250000X0.475000X0*%
%ADD26RoundRect,0.242500X0.242500X0.422500X-0.242500X0.422500X-0.242500X-0.422500X0.242500X-0.422500X0*%
%ADD27RoundRect,0.150000X0.825000X0.150000X-0.825000X0.150000X-0.825000X-0.150000X0.825000X-0.150000X0*%
%ADD28RoundRect,0.250000X0.350000X0.450000X-0.350000X0.450000X-0.350000X-0.450000X0.350000X-0.450000X0*%
%ADD29RoundRect,0.250000X-0.445000X0.545000X-0.445000X-0.545000X0.445000X-0.545000X0.445000X0.545000X0*%
%ADD30RoundRect,0.250000X-0.350000X-0.450000X0.350000X-0.450000X0.350000X0.450000X-0.350000X0.450000X0*%
%ADD31RoundRect,0.237500X-0.287500X-0.237500X0.287500X-0.237500X0.287500X0.237500X-0.287500X0.237500X0*%
%ADD32RoundRect,0.250000X0.250000X0.475000X-0.250000X0.475000X-0.250000X-0.475000X0.250000X-0.475000X0*%
%ADD33RoundRect,0.250000X0.925000X1.500000X-0.925000X1.500000X-0.925000X-1.500000X0.925000X-1.500000X0*%
%ADD34RoundRect,0.250000X-0.475000X0.250000X-0.475000X-0.250000X0.475000X-0.250000X0.475000X0.250000X0*%
%ADD35RoundRect,0.250000X0.900000X-1.000000X0.900000X1.000000X-0.900000X1.000000X-0.900000X-1.000000X0*%
%ADD36RoundRect,0.150000X0.150000X-0.825000X0.150000X0.825000X-0.150000X0.825000X-0.150000X-0.825000X0*%
%ADD37RoundRect,0.375000X-0.375000X0.625000X-0.375000X-0.625000X0.375000X-0.625000X0.375000X0.625000X0*%
%ADD38RoundRect,0.500000X-1.400000X0.500000X-1.400000X-0.500000X1.400000X-0.500000X1.400000X0.500000X0*%
%ADD39RoundRect,0.250000X-1.500000X-0.650000X1.500000X-0.650000X1.500000X0.650000X-1.500000X0.650000X0*%
%ADD40R,0.900000X1.500000*%
%ADD41R,0.900000X0.900000*%
%ADD42RoundRect,0.250000X0.445000X-0.545000X0.445000X0.545000X-0.445000X0.545000X-0.445000X-0.545000X0*%
%ADD43RoundRect,0.250000X0.650000X-1.000000X0.650000X1.000000X-0.650000X1.000000X-0.650000X-1.000000X0*%
%ADD44RoundRect,0.150000X-0.150000X0.825000X-0.150000X-0.825000X0.150000X-0.825000X0.150000X0.825000X0*%
%ADD45RoundRect,0.237500X0.287500X0.237500X-0.287500X0.237500X-0.287500X-0.237500X0.287500X-0.237500X0*%
%ADD46RoundRect,0.200000X0.200000X0.800000X-0.200000X0.800000X-0.200000X-0.800000X0.200000X-0.800000X0*%
%ADD47RoundRect,0.250000X-0.650000X1.000000X-0.650000X-1.000000X0.650000X-1.000000X0.650000X1.000000X0*%
G04 APERTURE END LIST*
D10*
%TO.C,R39*%
X184352023Y-123452493D03*
X185642493Y-122162023D03*
%TD*%
D11*
%TO.C,D27*%
X181914587Y-114889929D03*
X183152023Y-113652493D03*
%TD*%
D10*
%TO.C,R41*%
X161752023Y-128852493D03*
X163042493Y-127562023D03*
%TD*%
D12*
%TO.C,R2*%
X170197258Y-64607258D03*
X170197258Y-66607258D03*
%TD*%
D10*
%TO.C,R36*%
X167106788Y-123297728D03*
X168397258Y-122007258D03*
%TD*%
D11*
%TO.C,D31*%
X170552023Y-120252493D03*
X171789459Y-119015057D03*
%TD*%
D13*
%TO.C,D8*%
X128307258Y-73462258D03*
X128307258Y-71712258D03*
%TD*%
D11*
%TO.C,D26*%
X176314587Y-114889929D03*
X177552023Y-113652493D03*
%TD*%
%TO.C,D44*%
X176352023Y-131452493D03*
X177589459Y-130215057D03*
%TD*%
D14*
%TO.C,Q2*%
X180697258Y-80807258D03*
X178797258Y-80807258D03*
X179747258Y-82682258D03*
%TD*%
D10*
%TO.C,R27*%
X184352023Y-112452493D03*
X185642493Y-111162023D03*
%TD*%
D11*
%TO.C,D42*%
X164752023Y-131452493D03*
X165989459Y-130215057D03*
%TD*%
D12*
%TO.C,R14*%
X117897258Y-77707258D03*
X117897258Y-79707258D03*
%TD*%
D10*
%TO.C,R23*%
X161752023Y-112252493D03*
X163042493Y-110962023D03*
%TD*%
D11*
%TO.C,D20*%
X176314587Y-109089929D03*
X177552023Y-107852493D03*
%TD*%
D15*
%TO.C,C10*%
X132372258Y-99317258D03*
X132372258Y-97417258D03*
%TD*%
D16*
%TO.C,D2*%
X177797258Y-66407258D03*
D17*
X177797258Y-64707258D03*
X175797258Y-64707258D03*
X175797258Y-66607258D03*
%TD*%
D18*
%TO.C,SW3*%
X178207258Y-86319758D03*
X182407258Y-86319758D03*
%TD*%
D19*
%TO.C,R49*%
X180079758Y-67329758D03*
X180079758Y-65504758D03*
%TD*%
D20*
%TO.C,R10*%
X124197258Y-87807258D03*
X124197258Y-85807258D03*
%TD*%
%TO.C,R15*%
X115397258Y-79807258D03*
X115397258Y-77807258D03*
%TD*%
D21*
%TO.C,*%
X157847258Y-75247258D03*
%TD*%
D10*
%TO.C,R29*%
X161752023Y-117697728D03*
X163042493Y-116407258D03*
%TD*%
D21*
%TO.C,*%
X140297258Y-76537258D03*
%TD*%
D22*
%TO.C,J1*%
X178847258Y-61762258D03*
X178047258Y-61762258D03*
D23*
X176847258Y-61762258D03*
X175847258Y-61762258D03*
X175347258Y-61762258D03*
X174347258Y-61762258D03*
D22*
X173147258Y-61762258D03*
X172347258Y-61762258D03*
X172347258Y-61762258D03*
X173147258Y-61762258D03*
D23*
X173847258Y-61762258D03*
X174847258Y-61762258D03*
X176347258Y-61762258D03*
X177347258Y-61762258D03*
D22*
X178047258Y-61762258D03*
X178847258Y-61762258D03*
%TD*%
D11*
%TO.C,D17*%
X159295869Y-109108647D03*
X160533305Y-107871211D03*
%TD*%
D24*
%TO.C,R48*%
X140034758Y-110007258D03*
X138209758Y-110007258D03*
%TD*%
D11*
%TO.C,D43*%
X170552023Y-131452493D03*
X171789459Y-130215057D03*
%TD*%
D10*
%TO.C,R19*%
X172952023Y-106652493D03*
X174242493Y-105362023D03*
%TD*%
D25*
%TO.C,C7*%
X121547258Y-79207258D03*
X123447258Y-79207258D03*
%TD*%
D20*
%TO.C,R1*%
X128672258Y-61782258D03*
X128672258Y-59782258D03*
%TD*%
D21*
%TO.C,*%
X157847258Y-72707258D03*
%TD*%
D11*
%TO.C,D40*%
X153552023Y-131252493D03*
X154789459Y-130015057D03*
%TD*%
D10*
%TO.C,R40*%
X155952023Y-128852493D03*
X157242493Y-127562023D03*
%TD*%
D14*
%TO.C,Q1*%
X176559758Y-80807258D03*
X174659758Y-80807258D03*
X175609758Y-82682258D03*
%TD*%
D10*
%TO.C,R42*%
X167152023Y-129052493D03*
X168442493Y-127762023D03*
%TD*%
D11*
%TO.C,D22*%
X153514587Y-114689929D03*
X154752023Y-113452493D03*
%TD*%
%TO.C,D18*%
X164714587Y-109089929D03*
X165952023Y-107852493D03*
%TD*%
D25*
%TO.C,C5*%
X107047258Y-87107258D03*
X108947258Y-87107258D03*
%TD*%
D10*
%TO.C,R35*%
X161706788Y-123297728D03*
X162997258Y-122007258D03*
%TD*%
D20*
%TO.C,R46*%
X127897258Y-69207258D03*
X127897258Y-67207258D03*
%TD*%
D26*
%TO.C,U4*%
X115472258Y-84527258D03*
X115472258Y-82877258D03*
X114272258Y-84527258D03*
X114272258Y-82877258D03*
D27*
X117347258Y-85607258D03*
X117347258Y-84337258D03*
X117347258Y-83067258D03*
X117347258Y-81797258D03*
X112397258Y-81797258D03*
X112397258Y-83067258D03*
X112397258Y-84337258D03*
X112397258Y-85607258D03*
%TD*%
%TO.C,U7*%
X147872258Y-134252258D03*
X147872258Y-132982258D03*
X147872258Y-131712258D03*
X147872258Y-130442258D03*
X147872258Y-129172258D03*
X147872258Y-127902258D03*
X147872258Y-126632258D03*
X147872258Y-125362258D03*
X142922258Y-125362258D03*
X142922258Y-126632258D03*
X142922258Y-127902258D03*
X142922258Y-129172258D03*
X142922258Y-130442258D03*
X142922258Y-131712258D03*
X142922258Y-132982258D03*
X142922258Y-134252258D03*
%TD*%
D10*
%TO.C,R25*%
X172952023Y-112252493D03*
X174242493Y-110962023D03*
%TD*%
D11*
%TO.C,D37*%
X170552023Y-125852493D03*
X171789459Y-124615057D03*
%TD*%
D15*
%TO.C,C4*%
X108597258Y-83607258D03*
X108597258Y-81707258D03*
%TD*%
D28*
%TO.C,R61*%
X134407258Y-112707258D03*
X132407258Y-112707258D03*
%TD*%
D12*
%TO.C,R11*%
X120897258Y-85807258D03*
X120897258Y-87807258D03*
%TD*%
D10*
%TO.C,R37*%
X172952023Y-123452493D03*
X174242493Y-122162023D03*
%TD*%
D29*
%TO.C,C11*%
X147197258Y-96967258D03*
X147197258Y-99847258D03*
%TD*%
D21*
%TO.C,*%
X140297258Y-77807258D03*
%TD*%
D11*
%TO.C,D35*%
X159352023Y-125852493D03*
X160589459Y-124615057D03*
%TD*%
D30*
%TO.C,R51*%
X185282258Y-86244758D03*
X187282258Y-86244758D03*
%TD*%
D11*
%TO.C,D39*%
X181952023Y-125852493D03*
X183189459Y-124615057D03*
%TD*%
D28*
%TO.C,R60*%
X136527258Y-118997258D03*
X134527258Y-118997258D03*
%TD*%
D10*
%TO.C,R24*%
X167152023Y-112252493D03*
X168442493Y-110962023D03*
%TD*%
D11*
%TO.C,D28*%
X153533305Y-120225976D03*
X154770741Y-118988540D03*
%TD*%
D10*
%TO.C,R22*%
X155952023Y-112252493D03*
X157242493Y-110962023D03*
%TD*%
%TO.C,R16*%
X155952023Y-106852493D03*
X157242493Y-105562023D03*
%TD*%
D30*
%TO.C,R47*%
X124222258Y-64432258D03*
X126222258Y-64432258D03*
%TD*%
D31*
%TO.C,D7*%
X180172258Y-63847258D03*
X181922258Y-63847258D03*
%TD*%
D21*
%TO.C,*%
X157847258Y-77787258D03*
%TD*%
D32*
%TO.C,C26*%
X106387258Y-113947258D03*
X104487258Y-113947258D03*
%TD*%
D11*
%TO.C,D36*%
X164752023Y-125852493D03*
X165989459Y-124615057D03*
%TD*%
D10*
%TO.C,R26*%
X178752023Y-112452493D03*
X180042493Y-111162023D03*
%TD*%
D21*
%TO.C,*%
X157847258Y-73977258D03*
%TD*%
D11*
%TO.C,D29*%
X159352023Y-120252493D03*
X160589459Y-119015057D03*
%TD*%
D33*
%TO.C,L1*%
X117822258Y-90807258D03*
X111772258Y-90807258D03*
%TD*%
D32*
%TO.C,C14*%
X175107258Y-89219758D03*
X173207258Y-89219758D03*
%TD*%
D34*
%TO.C,C6*%
X120997258Y-81657258D03*
X120997258Y-83557258D03*
%TD*%
D35*
%TO.C,D3*%
X106597258Y-77157258D03*
X106597258Y-72857258D03*
%TD*%
D36*
%TO.C,U9*%
X168527258Y-100807258D03*
X169797258Y-100807258D03*
X171067258Y-100807258D03*
X172337258Y-100807258D03*
X173607258Y-100807258D03*
X174877258Y-100807258D03*
X176147258Y-100807258D03*
X177417258Y-100807258D03*
X177417258Y-95857258D03*
X176147258Y-95857258D03*
X174877258Y-95857258D03*
X173607258Y-95857258D03*
X172337258Y-95857258D03*
X171067258Y-95857258D03*
X169797258Y-95857258D03*
X168527258Y-95857258D03*
%TD*%
D12*
%TO.C,R3*%
X173597258Y-64607258D03*
X173597258Y-66607258D03*
%TD*%
D20*
%TO.C,R13*%
X124297258Y-83707258D03*
X124297258Y-81707258D03*
%TD*%
D10*
%TO.C,R21*%
X184352023Y-106652493D03*
X185642493Y-105362023D03*
%TD*%
D25*
%TO.C,C8*%
X111147258Y-96107258D03*
X113047258Y-96107258D03*
%TD*%
D15*
%TO.C,C2*%
X183847258Y-73169758D03*
X183847258Y-71269758D03*
%TD*%
D37*
%TO.C,U5*%
X143297258Y-99857258D03*
X140997258Y-99857258D03*
D38*
X140997258Y-106157258D03*
D37*
X138697258Y-99857258D03*
%TD*%
D28*
%TO.C,R6*%
X114783758Y-121693758D03*
X112783758Y-121693758D03*
%TD*%
D11*
%TO.C,D34*%
X153552023Y-125852493D03*
X154789459Y-124615057D03*
%TD*%
D28*
%TO.C,R8*%
X107383758Y-116600000D03*
X105383758Y-116600000D03*
%TD*%
D11*
%TO.C,D19*%
X170514587Y-109089929D03*
X171752023Y-107852493D03*
%TD*%
D39*
%TO.C,D5*%
X121797258Y-90807258D03*
X126797258Y-90807258D03*
%TD*%
D11*
%TO.C,D30*%
X164752023Y-120252493D03*
X165989459Y-119015057D03*
%TD*%
D10*
%TO.C,R30*%
X167152023Y-117697728D03*
X168442493Y-116407258D03*
%TD*%
D21*
%TO.C,U1*%
X140342258Y-54947258D03*
X140342258Y-56217258D03*
X140342258Y-57487258D03*
X140342258Y-58757258D03*
X140342258Y-60027258D03*
X140342258Y-61297258D03*
X140342258Y-62567258D03*
X140342258Y-63837258D03*
X140342258Y-65107258D03*
X140342258Y-66377258D03*
X140342258Y-67647258D03*
X140342258Y-68917258D03*
X140342258Y-70187258D03*
X140342258Y-71457258D03*
D40*
X143377258Y-72707258D03*
X144647258Y-72707258D03*
X145917258Y-72707258D03*
X147187258Y-72707258D03*
X148457258Y-72707258D03*
X149727258Y-72707258D03*
X150997258Y-72707258D03*
X152267258Y-72707258D03*
X153537258Y-72707258D03*
X154807258Y-72707258D03*
D21*
X157842258Y-71457258D03*
X157842258Y-70187258D03*
X157842258Y-68917258D03*
X157842258Y-67647258D03*
X157842258Y-66377258D03*
X157842258Y-65107258D03*
X157842258Y-63837258D03*
X157842258Y-62567258D03*
X157842258Y-61297258D03*
X157842258Y-60027258D03*
X157842258Y-58757258D03*
X157842258Y-57487258D03*
X157842258Y-56217258D03*
X157842258Y-54947258D03*
D41*
X146192258Y-61267258D03*
X146192258Y-62667258D03*
X146192258Y-64067258D03*
X147592258Y-61267258D03*
X147592258Y-62667258D03*
X147592258Y-64067258D03*
X148992258Y-61267258D03*
X148992258Y-62667258D03*
X148992258Y-64067258D03*
%TD*%
D21*
%TO.C,*%
X140297258Y-75267258D03*
%TD*%
D10*
%TO.C,R34*%
X155952023Y-123252493D03*
X157242493Y-121962023D03*
%TD*%
D32*
%TO.C,C25*%
X111387258Y-113927258D03*
X109487258Y-113927258D03*
%TD*%
D11*
%TO.C,D24*%
X164714587Y-114689929D03*
X165952023Y-113452493D03*
%TD*%
D21*
%TO.C,*%
X157847258Y-76517258D03*
%TD*%
D28*
%TO.C,R7*%
X114658758Y-116600000D03*
X112658758Y-116600000D03*
%TD*%
D30*
%TO.C,R5*%
X178722258Y-78294758D03*
X180722258Y-78294758D03*
%TD*%
D28*
%TO.C,R9*%
X107308758Y-121690000D03*
X105308758Y-121690000D03*
%TD*%
D42*
%TO.C,C9*%
X134747258Y-99757258D03*
X134747258Y-96877258D03*
%TD*%
D11*
%TO.C,D33*%
X181952023Y-120452493D03*
X183189459Y-119215057D03*
%TD*%
D34*
%TO.C,C12*%
X149597258Y-97507258D03*
X149597258Y-99407258D03*
%TD*%
D21*
%TO.C,*%
X140297258Y-72727258D03*
%TD*%
D11*
%TO.C,D25*%
X170533305Y-114671211D03*
X171770741Y-113433775D03*
%TD*%
D27*
%TO.C,U6*%
X147872258Y-122252258D03*
X147872258Y-120982258D03*
X147872258Y-119712258D03*
X147872258Y-118442258D03*
X147872258Y-117172258D03*
X147872258Y-115902258D03*
X147872258Y-114632258D03*
X147872258Y-113362258D03*
X142922258Y-113362258D03*
X142922258Y-114632258D03*
X142922258Y-115902258D03*
X142922258Y-117172258D03*
X142922258Y-118442258D03*
X142922258Y-119712258D03*
X142922258Y-120982258D03*
X142922258Y-122252258D03*
%TD*%
D11*
%TO.C,D32*%
X176352023Y-120452493D03*
X177589459Y-119215057D03*
%TD*%
D28*
%TO.C,R4*%
X176597258Y-78319758D03*
X174597258Y-78319758D03*
%TD*%
D10*
%TO.C,R20*%
X178752023Y-106652493D03*
X180042493Y-105362023D03*
%TD*%
D11*
%TO.C,D45*%
X181952023Y-131452493D03*
X183189459Y-130215057D03*
%TD*%
D30*
%TO.C,R12*%
X110797258Y-79707258D03*
X112797258Y-79707258D03*
%TD*%
D20*
%TO.C,R50*%
X128507258Y-77387258D03*
X128507258Y-75387258D03*
%TD*%
D25*
%TO.C,C13*%
X179407258Y-89169758D03*
X181307258Y-89169758D03*
%TD*%
D10*
%TO.C,R18*%
X167152023Y-106652493D03*
X168442493Y-105362023D03*
%TD*%
D11*
%TO.C,D21*%
X181914587Y-109089929D03*
X183152023Y-107852493D03*
%TD*%
D43*
%TO.C,D1*%
X185157258Y-67214758D03*
X185157258Y-63214758D03*
%TD*%
D10*
%TO.C,R28*%
X155906788Y-117697728D03*
X157197258Y-116407258D03*
%TD*%
D44*
%TO.C,U2*%
X181657258Y-69719758D03*
X180387258Y-69719758D03*
X179117258Y-69719758D03*
X177847258Y-69719758D03*
X176577258Y-69719758D03*
X175307258Y-69719758D03*
X174037258Y-69719758D03*
X172767258Y-69719758D03*
X172767258Y-74669758D03*
X174037258Y-74669758D03*
X175307258Y-74669758D03*
X176577258Y-74669758D03*
X177847258Y-74669758D03*
X179117258Y-74669758D03*
X180387258Y-74669758D03*
X181657258Y-74669758D03*
%TD*%
D10*
%TO.C,R44*%
X178752023Y-129052493D03*
X180042493Y-127762023D03*
%TD*%
D11*
%TO.C,D38*%
X176352023Y-125852493D03*
X177589459Y-124615057D03*
%TD*%
%TO.C,D41*%
X159352023Y-131252493D03*
X160589459Y-130015057D03*
%TD*%
D10*
%TO.C,R43*%
X172952023Y-129052493D03*
X174242493Y-127762023D03*
%TD*%
%TO.C,R17*%
X161752023Y-106652493D03*
X163042493Y-105362023D03*
%TD*%
D45*
%TO.C,D6*%
X143597258Y-109982258D03*
X141847258Y-109982258D03*
%TD*%
D10*
%TO.C,R31*%
X172952023Y-117652493D03*
X174242493Y-116362023D03*
%TD*%
D36*
%TO.C,U8*%
X155447258Y-100807258D03*
X156717258Y-100807258D03*
X157987258Y-100807258D03*
X159257258Y-100807258D03*
X160527258Y-100807258D03*
X161797258Y-100807258D03*
X163067258Y-100807258D03*
X164337258Y-100807258D03*
X164337258Y-95857258D03*
X163067258Y-95857258D03*
X161797258Y-95857258D03*
X160527258Y-95857258D03*
X159257258Y-95857258D03*
X157987258Y-95857258D03*
X156717258Y-95857258D03*
X155447258Y-95857258D03*
%TD*%
D46*
%TO.C,SW4*%
X176207258Y-86294758D03*
X172007258Y-86294758D03*
%TD*%
D10*
%TO.C,R33*%
X184352023Y-117852493D03*
X185642493Y-116562023D03*
%TD*%
D21*
%TO.C,*%
X140297258Y-73997258D03*
%TD*%
D10*
%TO.C,R45*%
X184352023Y-129052493D03*
X185642493Y-127762023D03*
%TD*%
%TO.C,R32*%
X178706788Y-117897728D03*
X179997258Y-116607258D03*
%TD*%
D11*
%TO.C,D16*%
X153514587Y-109289929D03*
X154752023Y-108052493D03*
%TD*%
%TO.C,D23*%
X159314587Y-114689929D03*
X160552023Y-113452493D03*
%TD*%
D15*
%TO.C,C3*%
X170197258Y-71957258D03*
X170197258Y-70057258D03*
%TD*%
D10*
%TO.C,R38*%
X178752023Y-123452493D03*
X180042493Y-122162023D03*
%TD*%
D15*
%TO.C,C1*%
X128622258Y-57407258D03*
X128622258Y-55507258D03*
%TD*%
D28*
%TO.C,R52*%
X169532258Y-86394758D03*
X167532258Y-86394758D03*
%TD*%
D47*
%TO.C,D4*%
X107017258Y-91547258D03*
X107017258Y-95547258D03*
%TD*%
M02*
