%TF.GenerationSoftware,KiCad,Pcbnew,6.0.9-8da3e8f707~116~ubuntu22.04.1*%
%TF.CreationDate,2022-11-22T16:03:36+05:30*%
%TF.ProjectId,mpu,6d70752e-6b69-4636-9164-5f7063625858,rev?*%
%TF.SameCoordinates,Original*%
%TF.FileFunction,Legend,Top*%
%TF.FilePolarity,Positive*%
%FSLAX46Y46*%
G04 Gerber Fmt 4.6, Leading zero omitted, Abs format (unit mm)*
G04 Created by KiCad (PCBNEW 6.0.9-8da3e8f707~116~ubuntu22.04.1) date 2022-11-22 16:03:36*
%MOMM*%
%LPD*%
G01*
G04 APERTURE LIST*
%ADD10C,0.225000*%
%ADD11C,0.150000*%
%ADD12C,0.152400*%
%ADD13C,0.120000*%
G04 APERTURE END LIST*
D10*
X160075714Y-73777142D02*
X160075714Y-72877142D01*
X160504285Y-73777142D02*
X160504285Y-72877142D01*
X161018571Y-73777142D01*
X161018571Y-72877142D01*
X161318571Y-72877142D02*
X161832857Y-72877142D01*
X161575714Y-73777142D02*
X161575714Y-72877142D01*
X149907142Y-73644285D02*
X150035714Y-73687142D01*
X150250000Y-73687142D01*
X150335714Y-73644285D01*
X150378571Y-73601428D01*
X150421428Y-73515714D01*
X150421428Y-73430000D01*
X150378571Y-73344285D01*
X150335714Y-73301428D01*
X150250000Y-73258571D01*
X150078571Y-73215714D01*
X149992857Y-73172857D01*
X149950000Y-73130000D01*
X149907142Y-73044285D01*
X149907142Y-72958571D01*
X149950000Y-72872857D01*
X149992857Y-72830000D01*
X150078571Y-72787142D01*
X150292857Y-72787142D01*
X150421428Y-72830000D01*
X150807142Y-73687142D02*
X150807142Y-72787142D01*
X151021428Y-72787142D01*
X151150000Y-72830000D01*
X151235714Y-72915714D01*
X151278571Y-73001428D01*
X151321428Y-73172857D01*
X151321428Y-73301428D01*
X151278571Y-73472857D01*
X151235714Y-73558571D01*
X151150000Y-73644285D01*
X151021428Y-73687142D01*
X150807142Y-73687142D01*
X151664285Y-73430000D02*
X152092857Y-73430000D01*
X151578571Y-73687142D02*
X151878571Y-72787142D01*
X152178571Y-73687142D01*
X155112857Y-73707142D02*
X155112857Y-72807142D01*
X155627142Y-73707142D01*
X155627142Y-72807142D01*
X156570000Y-73621428D02*
X156527142Y-73664285D01*
X156398571Y-73707142D01*
X156312857Y-73707142D01*
X156184285Y-73664285D01*
X156098571Y-73578571D01*
X156055714Y-73492857D01*
X156012857Y-73321428D01*
X156012857Y-73192857D01*
X156055714Y-73021428D01*
X156098571Y-72935714D01*
X156184285Y-72850000D01*
X156312857Y-72807142D01*
X156398571Y-72807142D01*
X156527142Y-72850000D01*
X156570000Y-72892857D01*
X141775714Y-72747142D02*
X142332857Y-72747142D01*
X142032857Y-73090000D01*
X142161428Y-73090000D01*
X142247142Y-73132857D01*
X142290000Y-73175714D01*
X142332857Y-73261428D01*
X142332857Y-73475714D01*
X142290000Y-73561428D01*
X142247142Y-73604285D01*
X142161428Y-73647142D01*
X141904285Y-73647142D01*
X141818571Y-73604285D01*
X141775714Y-73561428D01*
X142590000Y-72747142D02*
X142890000Y-73647142D01*
X143190000Y-72747142D01*
X143404285Y-72747142D02*
X143961428Y-72747142D01*
X143661428Y-73090000D01*
X143790000Y-73090000D01*
X143875714Y-73132857D01*
X143918571Y-73175714D01*
X143961428Y-73261428D01*
X143961428Y-73475714D01*
X143918571Y-73561428D01*
X143875714Y-73604285D01*
X143790000Y-73647142D01*
X143532857Y-73647142D01*
X143447142Y-73604285D01*
X143404285Y-73561428D01*
X157682857Y-73757142D02*
X157682857Y-72857142D01*
X158197142Y-73757142D01*
X158197142Y-72857142D01*
X159140000Y-73671428D02*
X159097142Y-73714285D01*
X158968571Y-73757142D01*
X158882857Y-73757142D01*
X158754285Y-73714285D01*
X158668571Y-73628571D01*
X158625714Y-73542857D01*
X158582857Y-73371428D01*
X158582857Y-73242857D01*
X158625714Y-73071428D01*
X158668571Y-72985714D01*
X158754285Y-72900000D01*
X158882857Y-72857142D01*
X158968571Y-72857142D01*
X159097142Y-72900000D01*
X159140000Y-72942857D01*
X147228571Y-73614285D02*
X147357142Y-73657142D01*
X147571428Y-73657142D01*
X147657142Y-73614285D01*
X147700000Y-73571428D01*
X147742857Y-73485714D01*
X147742857Y-73400000D01*
X147700000Y-73314285D01*
X147657142Y-73271428D01*
X147571428Y-73228571D01*
X147400000Y-73185714D01*
X147314285Y-73142857D01*
X147271428Y-73100000D01*
X147228571Y-73014285D01*
X147228571Y-72928571D01*
X147271428Y-72842857D01*
X147314285Y-72800000D01*
X147400000Y-72757142D01*
X147614285Y-72757142D01*
X147742857Y-72800000D01*
X148642857Y-73571428D02*
X148600000Y-73614285D01*
X148471428Y-73657142D01*
X148385714Y-73657142D01*
X148257142Y-73614285D01*
X148171428Y-73528571D01*
X148128571Y-73442857D01*
X148085714Y-73271428D01*
X148085714Y-73142857D01*
X148128571Y-72971428D01*
X148171428Y-72885714D01*
X148257142Y-72800000D01*
X148385714Y-72757142D01*
X148471428Y-72757142D01*
X148600000Y-72800000D01*
X148642857Y-72842857D01*
X149457142Y-73657142D02*
X149028571Y-73657142D01*
X149028571Y-72757142D01*
X152812857Y-73697142D02*
X152812857Y-72797142D01*
X153327142Y-73697142D01*
X153327142Y-72797142D01*
X154270000Y-73611428D02*
X154227142Y-73654285D01*
X154098571Y-73697142D01*
X154012857Y-73697142D01*
X153884285Y-73654285D01*
X153798571Y-73568571D01*
X153755714Y-73482857D01*
X153712857Y-73311428D01*
X153712857Y-73182857D01*
X153755714Y-73011428D01*
X153798571Y-72925714D01*
X153884285Y-72840000D01*
X154012857Y-72797142D01*
X154098571Y-72797142D01*
X154227142Y-72840000D01*
X154270000Y-72882857D01*
X144944285Y-72740000D02*
X144858571Y-72697142D01*
X144730000Y-72697142D01*
X144601428Y-72740000D01*
X144515714Y-72825714D01*
X144472857Y-72911428D01*
X144430000Y-73082857D01*
X144430000Y-73211428D01*
X144472857Y-73382857D01*
X144515714Y-73468571D01*
X144601428Y-73554285D01*
X144730000Y-73597142D01*
X144815714Y-73597142D01*
X144944285Y-73554285D01*
X144987142Y-73511428D01*
X144987142Y-73211428D01*
X144815714Y-73211428D01*
X145372857Y-73597142D02*
X145372857Y-72697142D01*
X145887142Y-73597142D01*
X145887142Y-72697142D01*
X146315714Y-73597142D02*
X146315714Y-72697142D01*
X146530000Y-72697142D01*
X146658571Y-72740000D01*
X146744285Y-72825714D01*
X146787142Y-72911428D01*
X146830000Y-73082857D01*
X146830000Y-73211428D01*
X146787142Y-73382857D01*
X146744285Y-73468571D01*
X146658571Y-73554285D01*
X146530000Y-73597142D01*
X146315714Y-73597142D01*
D11*
%TO.C,J2*%
X141281904Y-69213452D02*
X141853333Y-69213452D01*
X141967619Y-69251547D01*
X142043809Y-69327738D01*
X142081904Y-69442023D01*
X142081904Y-69518214D01*
X141358095Y-68870595D02*
X141320000Y-68832500D01*
X141281904Y-68756309D01*
X141281904Y-68565833D01*
X141320000Y-68489642D01*
X141358095Y-68451547D01*
X141434285Y-68413452D01*
X141510476Y-68413452D01*
X141624761Y-68451547D01*
X142081904Y-68908690D01*
X142081904Y-68413452D01*
%TO.C,J1*%
X160308333Y-76711904D02*
X160308333Y-77283333D01*
X160270238Y-77397619D01*
X160194047Y-77473809D01*
X160079761Y-77511904D01*
X160003571Y-77511904D01*
X161108333Y-77511904D02*
X160651190Y-77511904D01*
X160879761Y-77511904D02*
X160879761Y-76711904D01*
X160803571Y-76826190D01*
X160727380Y-76902380D01*
X160651190Y-76940476D01*
%TO.C,kibuzzard-637B8032*%
G36*
X151720332Y-74741039D02*
G01*
X151778791Y-74779972D01*
X151819154Y-74838194D01*
X151832608Y-74909036D01*
X151818796Y-74979640D01*
X151777363Y-75037147D01*
X151718784Y-75075367D01*
X151653538Y-75088106D01*
X151561145Y-75088106D01*
X151561145Y-74728061D01*
X151652585Y-74728061D01*
X151720332Y-74741039D01*
G37*
G36*
X148998920Y-74968091D02*
G01*
X148872238Y-74968091D01*
X148935103Y-74837599D01*
X148998920Y-74968091D01*
G37*
G36*
X148266567Y-74741039D02*
G01*
X148325026Y-74779972D01*
X148365389Y-74838194D01*
X148378843Y-74909036D01*
X148365031Y-74979640D01*
X148323598Y-75037147D01*
X148265019Y-75075367D01*
X148199773Y-75088106D01*
X148107380Y-75088106D01*
X148107380Y-74728061D01*
X148198820Y-74728061D01*
X148266567Y-74741039D01*
G37*
G36*
X144864589Y-75555319D02*
G01*
X144810422Y-75547284D01*
X144757303Y-75533979D01*
X144705743Y-75515531D01*
X144656241Y-75492118D01*
X144609272Y-75463965D01*
X144565288Y-75431345D01*
X144524979Y-75394811D01*
X146935805Y-75394811D01*
X146943425Y-75452914D01*
X146963428Y-75472916D01*
X147001051Y-75478631D01*
X147038675Y-75472916D01*
X147059392Y-75448151D01*
X147066298Y-75396716D01*
X147066298Y-75394811D01*
X149578993Y-75394811D01*
X149586613Y-75452914D01*
X149606615Y-75472916D01*
X149644239Y-75478631D01*
X149681863Y-75472916D01*
X149702579Y-75448151D01*
X149709485Y-75396716D01*
X149709485Y-75394811D01*
X152304095Y-75394811D01*
X152311715Y-75452914D01*
X152331718Y-75472916D01*
X152369341Y-75478631D01*
X152406965Y-75472916D01*
X152427682Y-75448151D01*
X152434588Y-75396716D01*
X152434588Y-75394811D01*
X154619623Y-75394811D01*
X154627243Y-75452914D01*
X154647245Y-75472916D01*
X154684869Y-75478631D01*
X154722493Y-75472916D01*
X154743209Y-75448151D01*
X154750115Y-75396716D01*
X154750115Y-75394811D01*
X157212328Y-75394811D01*
X157219948Y-75452914D01*
X157239950Y-75472916D01*
X157277574Y-75478631D01*
X157315198Y-75472916D01*
X157335914Y-75448151D01*
X157342820Y-75396716D01*
X157342820Y-75172879D01*
X157660003Y-75172879D01*
X157661431Y-75206216D01*
X157670480Y-75231934D01*
X157695245Y-75251222D01*
X157742870Y-75257651D01*
X157791924Y-75251222D01*
X157817165Y-75231934D01*
X157826214Y-75207169D01*
X157827643Y-75173831D01*
X157827643Y-74860459D01*
X157854260Y-74895172D01*
X157889026Y-74940892D01*
X157931941Y-74997619D01*
X157983006Y-75065352D01*
X158042220Y-75144092D01*
X158109583Y-75233839D01*
X158133395Y-75251936D01*
X158184830Y-75257651D01*
X158233884Y-75251222D01*
X158259125Y-75231934D01*
X158268174Y-75207169D01*
X158269603Y-75173831D01*
X158269603Y-74905226D01*
X158331515Y-74905226D01*
X158337825Y-74976783D01*
X158356756Y-75042862D01*
X158385450Y-75100489D01*
X158421050Y-75146685D01*
X158462603Y-75184071D01*
X158509156Y-75215265D01*
X158557496Y-75239316D01*
X158604406Y-75255270D01*
X158650364Y-75264200D01*
X158695846Y-75267176D01*
X158741924Y-75263366D01*
X158789668Y-75251936D01*
X158853961Y-75227171D01*
X158886823Y-75207169D01*
X158916826Y-75183356D01*
X158929685Y-75150019D01*
X158908730Y-75096679D01*
X158875631Y-75056674D01*
X158844913Y-75043339D01*
X158799193Y-75062389D01*
X158782048Y-75074771D01*
X158744424Y-75090011D01*
X158688703Y-75097631D01*
X158627028Y-75087154D01*
X158567735Y-75055721D01*
X158519158Y-74995714D01*
X158504870Y-74955113D01*
X158500108Y-74909512D01*
X158504870Y-74863912D01*
X158519158Y-74823311D01*
X158566783Y-74764256D01*
X158627266Y-74732109D01*
X158688703Y-74721394D01*
X158748710Y-74729490D01*
X158795383Y-74753779D01*
X158843960Y-74774734D01*
X158875393Y-74761875D01*
X158910635Y-74723299D01*
X158930638Y-74670435D01*
X158905873Y-74625191D01*
X158879203Y-74608046D01*
X158856343Y-74594711D01*
X158786334Y-74566612D01*
X158740495Y-74556254D01*
X158695370Y-74552801D01*
X158632611Y-74558516D01*
X158570063Y-74575661D01*
X158507728Y-74604236D01*
X158460936Y-74634121D01*
X158419621Y-74670435D01*
X158384498Y-74715202D01*
X158356280Y-74770447D01*
X158337706Y-74834384D01*
X158331515Y-74905226D01*
X158269603Y-74905226D01*
X158269603Y-74645194D01*
X158263888Y-74596616D01*
X158251981Y-74576614D01*
X158227216Y-74565184D01*
X158183401Y-74560421D01*
X158138158Y-74566136D01*
X158111011Y-74588520D01*
X158101963Y-74641384D01*
X158101963Y-74963329D01*
X158075716Y-74928959D01*
X158042061Y-74884271D01*
X158000998Y-74829264D01*
X157952526Y-74763939D01*
X157896646Y-74688294D01*
X157833358Y-74602331D01*
X157811450Y-74577566D01*
X157788114Y-74565660D01*
X157742870Y-74560421D01*
X157696198Y-74566136D01*
X157669051Y-74588520D01*
X157660003Y-74641384D01*
X157660003Y-75172879D01*
X157342820Y-75172879D01*
X157342820Y-74604236D01*
X157335200Y-74547086D01*
X157315198Y-74527084D01*
X157277574Y-74521369D01*
X157239950Y-74527084D01*
X157219233Y-74551849D01*
X157212328Y-74603284D01*
X157212328Y-75394811D01*
X154750115Y-75394811D01*
X154750115Y-75050006D01*
X155053010Y-75050006D01*
X155063488Y-75101441D01*
X155065393Y-75110966D01*
X155075870Y-75135731D01*
X155099444Y-75173593D01*
X155126353Y-75203359D01*
X155181386Y-75240400D01*
X155244886Y-75262625D01*
X155316853Y-75270034D01*
X155389348Y-75262678D01*
X155453166Y-75240612D01*
X155508305Y-75203835D01*
X155550638Y-75155734D01*
X155576038Y-75099695D01*
X155584505Y-75035719D01*
X155576647Y-74987141D01*
X155553073Y-74944279D01*
X155523069Y-74913322D01*
X155494970Y-74892844D01*
X155494970Y-74886176D01*
X155536245Y-74856278D01*
X155561010Y-74816115D01*
X155569265Y-74765685D01*
X155561751Y-74711975D01*
X155539208Y-74661968D01*
X155514004Y-74630906D01*
X155622605Y-74630906D01*
X155636893Y-74676626D01*
X155899783Y-75210026D01*
X155931691Y-75243840D01*
X155976935Y-75256699D01*
X155986460Y-75256699D01*
X156030751Y-75243840D01*
X156062660Y-75210026D01*
X156141527Y-75050006D01*
X156377938Y-75050006D01*
X156388415Y-75101441D01*
X156390320Y-75110966D01*
X156400798Y-75135731D01*
X156424372Y-75173593D01*
X156451280Y-75203359D01*
X156506313Y-75240400D01*
X156569813Y-75262625D01*
X156641780Y-75270034D01*
X156714276Y-75262678D01*
X156778093Y-75240612D01*
X156833233Y-75203835D01*
X156875566Y-75155734D01*
X156900966Y-75099695D01*
X156909433Y-75035719D01*
X156901574Y-74987141D01*
X156878000Y-74944279D01*
X156847996Y-74913322D01*
X156819898Y-74892844D01*
X156819898Y-74886176D01*
X156861173Y-74856278D01*
X156885938Y-74816115D01*
X156894193Y-74765685D01*
X156886678Y-74711975D01*
X156864136Y-74661968D01*
X156826565Y-74615666D01*
X156775977Y-74578625D01*
X156714382Y-74556400D01*
X156641780Y-74548991D01*
X156594512Y-74552325D01*
X156551769Y-74562326D01*
X156488904Y-74591854D01*
X156449375Y-74629477D01*
X156428420Y-74659481D01*
X156406513Y-74724251D01*
X156418419Y-74758303D01*
X156454138Y-74788069D01*
X156506525Y-74805214D01*
X156542720Y-74793307D01*
X156569390Y-74757589D01*
X156575105Y-74746159D01*
X156599870Y-74723299D01*
X156653686Y-74711869D01*
X156706550Y-74729966D01*
X156725600Y-74768066D01*
X156707503Y-74795927D01*
X156653210Y-74805214D01*
X156603680Y-74809976D01*
X156577248Y-74835932D01*
X156568438Y-74889034D01*
X156574867Y-74937849D01*
X156594155Y-74962376D01*
X156618920Y-74971901D01*
X156662259Y-74973806D01*
X156717504Y-74993332D01*
X156740840Y-75038576D01*
X156717028Y-75084772D01*
X156686548Y-75100132D01*
X156642733Y-75105251D01*
X156602728Y-75099536D01*
X156550340Y-75053816D01*
X156521765Y-75004286D01*
X156471283Y-74994761D01*
X156401274Y-75008572D01*
X156377938Y-75050006D01*
X156141527Y-75050006D01*
X156325550Y-74676626D01*
X156339838Y-74630906D01*
X156325788Y-74598997D01*
X156283640Y-74569946D01*
X156227443Y-74553754D01*
X156185533Y-74579471D01*
X156172198Y-74608046D01*
X155981698Y-75025241D01*
X155971339Y-75003215D01*
X155947884Y-74952375D01*
X155916928Y-74885105D01*
X155884066Y-74813786D01*
X155851324Y-74742468D01*
X155820725Y-74675197D01*
X155796794Y-74622810D01*
X155784054Y-74596140D01*
X155768338Y-74570899D01*
X155752145Y-74557564D01*
X155726904Y-74553754D01*
X155678803Y-74569946D01*
X155636654Y-74598997D01*
X155622605Y-74630906D01*
X155514004Y-74630906D01*
X155501638Y-74615666D01*
X155451049Y-74578625D01*
X155389454Y-74556400D01*
X155316853Y-74548991D01*
X155269585Y-74552325D01*
X155226841Y-74562326D01*
X155163976Y-74591854D01*
X155124448Y-74629477D01*
X155103493Y-74659481D01*
X155081585Y-74724251D01*
X155093491Y-74758303D01*
X155129210Y-74788069D01*
X155181598Y-74805214D01*
X155217793Y-74793307D01*
X155244463Y-74757589D01*
X155250178Y-74746159D01*
X155274943Y-74723299D01*
X155328759Y-74711869D01*
X155381623Y-74729966D01*
X155400673Y-74768066D01*
X155382575Y-74795927D01*
X155328283Y-74805214D01*
X155278753Y-74809976D01*
X155252321Y-74835932D01*
X155243510Y-74889034D01*
X155249939Y-74937849D01*
X155269228Y-74962376D01*
X155293993Y-74971901D01*
X155337331Y-74973806D01*
X155392576Y-74993332D01*
X155415913Y-75038576D01*
X155392100Y-75084772D01*
X155361620Y-75100132D01*
X155317805Y-75105251D01*
X155277800Y-75099536D01*
X155225413Y-75053816D01*
X155196838Y-75004286D01*
X155146355Y-74994761D01*
X155076346Y-75008572D01*
X155053010Y-75050006D01*
X154750115Y-75050006D01*
X154750115Y-74604236D01*
X154742495Y-74547086D01*
X154722493Y-74527084D01*
X154684869Y-74521369D01*
X154647245Y-74527084D01*
X154626528Y-74551849D01*
X154619623Y-74603284D01*
X154619623Y-75394811D01*
X152434588Y-75394811D01*
X152434588Y-75172879D01*
X152751770Y-75172879D01*
X152757485Y-75221456D01*
X152782726Y-75248602D01*
X152835590Y-75257651D01*
X152884644Y-75251222D01*
X152909885Y-75231934D01*
X152918934Y-75207169D01*
X152920363Y-75173831D01*
X152920363Y-75172879D01*
X152996563Y-75172879D01*
X152997991Y-75206216D01*
X153007040Y-75231934D01*
X153031805Y-75251222D01*
X153079430Y-75257651D01*
X153128484Y-75251222D01*
X153153725Y-75231934D01*
X153162774Y-75207169D01*
X153164203Y-75173831D01*
X153164203Y-74860459D01*
X153190820Y-74895172D01*
X153225586Y-74940892D01*
X153268501Y-74997619D01*
X153319566Y-75065352D01*
X153378780Y-75144092D01*
X153446143Y-75233839D01*
X153469955Y-75251936D01*
X153521390Y-75257651D01*
X153570444Y-75251222D01*
X153595685Y-75231934D01*
X153604734Y-75207169D01*
X153606163Y-75173831D01*
X153606163Y-74645194D01*
X153604034Y-74627096D01*
X153658550Y-74627096D01*
X153663313Y-74667101D01*
X153682363Y-74689485D01*
X153727130Y-74696629D01*
X153910010Y-74696629D01*
X153910010Y-75174784D01*
X153911439Y-75207645D01*
X153920011Y-75232410D01*
X153944776Y-75251936D01*
X153991925Y-75257651D01*
X154039550Y-75251936D01*
X154064791Y-75232410D01*
X154073364Y-75208121D01*
X154074793Y-75175736D01*
X154074793Y-74696629D01*
X154256720Y-74696629D01*
X154305298Y-74688056D01*
X154321490Y-74667577D01*
X154326253Y-74628049D01*
X154321490Y-74588044D01*
X154302440Y-74565660D01*
X154257673Y-74558516D01*
X153728083Y-74558516D01*
X153679505Y-74567089D01*
X153663313Y-74587567D01*
X153658550Y-74627096D01*
X153604034Y-74627096D01*
X153600448Y-74596616D01*
X153588541Y-74576614D01*
X153563776Y-74565184D01*
X153519961Y-74560421D01*
X153474718Y-74566136D01*
X153447571Y-74588520D01*
X153438523Y-74641384D01*
X153438523Y-74963329D01*
X153412276Y-74928959D01*
X153378621Y-74884271D01*
X153337558Y-74829264D01*
X153289086Y-74763939D01*
X153233206Y-74688294D01*
X153169918Y-74602331D01*
X153148010Y-74577566D01*
X153124674Y-74565660D01*
X153079430Y-74560421D01*
X153032758Y-74566136D01*
X153005611Y-74588520D01*
X152996563Y-74641384D01*
X152996563Y-75172879D01*
X152920363Y-75172879D01*
X152920363Y-74644241D01*
X152915600Y-74594711D01*
X152889644Y-74568279D01*
X152836543Y-74559469D01*
X152787489Y-74565898D01*
X152762248Y-74585186D01*
X152753199Y-74610427D01*
X152751770Y-74643289D01*
X152751770Y-75172879D01*
X152434588Y-75172879D01*
X152434588Y-74604236D01*
X152426968Y-74547086D01*
X152406965Y-74527084D01*
X152369341Y-74521369D01*
X152331718Y-74527084D01*
X152311001Y-74551849D01*
X152304095Y-74603284D01*
X152304095Y-75394811D01*
X149709485Y-75394811D01*
X149709485Y-74901416D01*
X150012380Y-74901416D01*
X150018929Y-74974372D01*
X150038574Y-75041791D01*
X150071316Y-75103674D01*
X150117155Y-75160020D01*
X150171864Y-75206901D01*
X150231217Y-75240387D01*
X150295213Y-75260479D01*
X150363853Y-75267176D01*
X150438862Y-75261997D01*
X150503870Y-75246459D01*
X150558877Y-75220563D01*
X150603883Y-75184309D01*
X150609130Y-75172879D01*
X150706753Y-75172879D01*
X150708181Y-75206216D01*
X150717230Y-75231934D01*
X150741995Y-75251222D01*
X150789620Y-75257651D01*
X150838674Y-75251222D01*
X150863915Y-75231934D01*
X150872964Y-75207169D01*
X150874393Y-75173831D01*
X150874393Y-74860459D01*
X150901010Y-74895172D01*
X150935776Y-74940892D01*
X150978691Y-74997619D01*
X151029756Y-75065352D01*
X151088970Y-75144092D01*
X151156333Y-75233839D01*
X151180145Y-75251936D01*
X151231580Y-75257651D01*
X151280634Y-75251222D01*
X151305875Y-75231934D01*
X151314924Y-75207169D01*
X151316353Y-75173831D01*
X151316353Y-75171926D01*
X151392553Y-75171926D01*
X151403983Y-75232886D01*
X151429224Y-75250746D01*
X151476373Y-75256699D01*
X151650680Y-75256699D01*
X151720838Y-75250210D01*
X151785578Y-75230743D01*
X151844901Y-75198299D01*
X151898806Y-75152876D01*
X151943604Y-75098375D01*
X151975602Y-75038695D01*
X151994800Y-74973836D01*
X152001200Y-74903797D01*
X151994652Y-74834027D01*
X151975006Y-74769971D01*
X151942264Y-74711631D01*
X151896425Y-74659005D01*
X151841954Y-74615458D01*
X151783316Y-74584353D01*
X151720510Y-74565690D01*
X151653538Y-74559469D01*
X151477325Y-74558516D01*
X151428271Y-74564946D01*
X151403030Y-74584234D01*
X151393981Y-74608999D01*
X151392553Y-74642336D01*
X151392553Y-75171926D01*
X151316353Y-75171926D01*
X151316353Y-74645194D01*
X151310638Y-74596616D01*
X151298731Y-74576614D01*
X151273966Y-74565184D01*
X151230151Y-74560421D01*
X151184908Y-74566136D01*
X151157761Y-74588520D01*
X151148713Y-74641384D01*
X151148713Y-74963329D01*
X151122466Y-74928959D01*
X151088811Y-74884271D01*
X151047748Y-74829264D01*
X150999276Y-74763939D01*
X150943396Y-74688294D01*
X150880108Y-74602331D01*
X150858200Y-74577566D01*
X150834864Y-74565660D01*
X150789620Y-74560421D01*
X150742948Y-74566136D01*
X150715801Y-74588520D01*
X150706753Y-74641384D01*
X150706753Y-75172879D01*
X150609130Y-75172879D01*
X150630553Y-75126206D01*
X150630553Y-74916656D01*
X150621028Y-74863316D01*
X150558163Y-74836646D01*
X150390523Y-74836646D01*
X150344803Y-74845219D01*
X150329086Y-74866174D01*
X150324800Y-74906655D01*
X150328610Y-74946660D01*
X150344803Y-74969044D01*
X150386713Y-74976664D01*
X150461960Y-74976664D01*
X150461960Y-75080486D01*
X150417431Y-75093345D01*
X150367663Y-75097631D01*
X150299083Y-75083225D01*
X150238123Y-75040005D01*
X150206373Y-74998836D01*
X150187323Y-74952163D01*
X150180973Y-74899987D01*
X150195022Y-74825454D01*
X150237170Y-74766637D01*
X150297416Y-74728418D01*
X150365758Y-74715679D01*
X150417193Y-74722227D01*
X150461008Y-74741872D01*
X150519110Y-74768066D01*
X150551257Y-74755446D01*
X150586738Y-74717584D01*
X150608645Y-74663767D01*
X150582928Y-74621381D01*
X150514877Y-74580106D01*
X150444074Y-74555341D01*
X150370520Y-74547086D01*
X150300511Y-74553426D01*
X150235265Y-74572447D01*
X150174781Y-74604147D01*
X150119060Y-74648527D01*
X150072388Y-74702374D01*
X150039050Y-74762470D01*
X150019048Y-74828818D01*
X150012380Y-74901416D01*
X149709485Y-74901416D01*
X149709485Y-74604236D01*
X149701865Y-74547086D01*
X149681863Y-74527084D01*
X149644239Y-74521369D01*
X149606615Y-74527084D01*
X149585898Y-74551849D01*
X149578993Y-74603284D01*
X149578993Y-75394811D01*
X147066298Y-75394811D01*
X147066298Y-75104775D01*
X147369193Y-75104775D01*
X147393958Y-75159544D01*
X147402530Y-75170021D01*
X147430153Y-75199072D01*
X147473015Y-75229076D01*
X147537785Y-75256222D01*
X147578981Y-75264438D01*
X147622558Y-75267176D01*
X147679813Y-75261567D01*
X147734741Y-75244740D01*
X147787340Y-75216694D01*
X147823535Y-75185618D01*
X147832897Y-75171926D01*
X147938788Y-75171926D01*
X147950218Y-75232886D01*
X147975459Y-75250746D01*
X148022608Y-75256699D01*
X148196915Y-75256699D01*
X148267073Y-75250210D01*
X148331813Y-75230743D01*
X148391136Y-75198299D01*
X148402087Y-75189071D01*
X148585535Y-75189071D01*
X148599346Y-75221456D01*
X148640780Y-75250031D01*
X148691739Y-75266224D01*
X148722219Y-75257175D01*
X148739364Y-75239554D01*
X148754128Y-75211931D01*
X148803658Y-75109061D01*
X149067500Y-75109061D01*
X149117030Y-75211931D01*
X149131794Y-75240506D01*
X149148939Y-75258604D01*
X149179419Y-75267176D01*
X149230378Y-75250984D01*
X149271811Y-75221694D01*
X149285623Y-75189071D01*
X149269430Y-75140494D01*
X149012255Y-74608999D01*
X148980823Y-74571851D01*
X148936055Y-74559469D01*
X148890811Y-74572804D01*
X148858903Y-74608046D01*
X148601728Y-75140494D01*
X148585535Y-75189071D01*
X148402087Y-75189071D01*
X148445041Y-75152876D01*
X148489839Y-75098375D01*
X148521837Y-75038695D01*
X148541035Y-74973836D01*
X148547435Y-74903797D01*
X148540887Y-74834027D01*
X148521241Y-74769971D01*
X148488499Y-74711631D01*
X148442660Y-74659005D01*
X148388189Y-74615458D01*
X148329551Y-74584353D01*
X148266745Y-74565690D01*
X148199773Y-74559469D01*
X148023560Y-74558516D01*
X147974506Y-74564946D01*
X147949265Y-74584234D01*
X147940216Y-74608999D01*
X147938788Y-74642336D01*
X147938788Y-75171926D01*
X147832897Y-75171926D01*
X147852110Y-75143827D01*
X147870684Y-75092988D01*
X147876875Y-75034766D01*
X147870803Y-74977735D01*
X147852586Y-74930467D01*
X147825321Y-74894392D01*
X147792103Y-74870936D01*
X147754241Y-74855101D01*
X147713045Y-74841885D01*
X147671849Y-74831527D01*
X147633988Y-74824264D01*
X147573504Y-74802356D01*
X147549215Y-74759970D01*
X147569694Y-74719012D01*
X147621129Y-74704249D01*
X147672088Y-74716631D01*
X147686851Y-74729014D01*
X147697805Y-74738539D01*
X147747335Y-74757589D01*
X147781149Y-74745682D01*
X147814010Y-74709964D01*
X147836870Y-74657576D01*
X147807343Y-74610904D01*
X147783530Y-74592806D01*
X147718284Y-74562802D01*
X147668635Y-74551730D01*
X147613985Y-74548039D01*
X147547257Y-74554971D01*
X147490583Y-74575767D01*
X147443964Y-74610427D01*
X147409303Y-74654401D01*
X147388507Y-74703137D01*
X147381575Y-74756636D01*
X147387647Y-74813191D01*
X147405864Y-74860935D01*
X147433129Y-74898440D01*
X147466348Y-74924276D01*
X147503971Y-74942969D01*
X147544453Y-74959042D01*
X147584934Y-74971782D01*
X147622558Y-74980474D01*
X147683041Y-75001905D01*
X147707330Y-75038576D01*
X147697488Y-75078793D01*
X147667960Y-75102923D01*
X147618748Y-75110966D01*
X147573028Y-75096202D01*
X147534928Y-75065246D01*
X147492541Y-75029527D01*
X147460633Y-75017621D01*
X147410150Y-75040481D01*
X147379432Y-75076557D01*
X147369193Y-75104775D01*
X147066298Y-75104775D01*
X147066298Y-74604236D01*
X147058678Y-74547086D01*
X147038675Y-74527084D01*
X147001051Y-74521369D01*
X146963428Y-74527084D01*
X146942711Y-74551849D01*
X146935805Y-74603284D01*
X146935805Y-75394811D01*
X144524979Y-75394811D01*
X144524713Y-75394570D01*
X144487939Y-75353995D01*
X144455318Y-75310012D01*
X144427166Y-75263042D01*
X144403753Y-75213540D01*
X144385305Y-75161981D01*
X144371999Y-75108862D01*
X144371393Y-75104775D01*
X144919363Y-75104775D01*
X144944128Y-75159544D01*
X144952700Y-75170021D01*
X144980323Y-75199072D01*
X145023185Y-75229076D01*
X145087955Y-75256222D01*
X145129151Y-75264438D01*
X145172728Y-75267176D01*
X145229983Y-75261567D01*
X145284911Y-75244740D01*
X145337510Y-75216694D01*
X145373705Y-75185618D01*
X145402280Y-75143827D01*
X145420854Y-75092988D01*
X145427045Y-75034766D01*
X145420973Y-74977735D01*
X145402756Y-74930467D01*
X145383679Y-74905226D01*
X145474670Y-74905226D01*
X145480980Y-74976783D01*
X145499911Y-75042862D01*
X145528605Y-75100489D01*
X145564205Y-75146685D01*
X145605758Y-75184071D01*
X145652311Y-75215265D01*
X145700651Y-75239316D01*
X145747561Y-75255270D01*
X145793519Y-75264200D01*
X145839001Y-75267176D01*
X145885079Y-75263366D01*
X145932823Y-75251936D01*
X145997116Y-75227171D01*
X146029978Y-75207169D01*
X146059981Y-75183356D01*
X146064022Y-75172879D01*
X146135705Y-75172879D01*
X146141420Y-75221456D01*
X146166661Y-75248602D01*
X146219525Y-75257651D01*
X146562425Y-75257651D01*
X146611955Y-75248126D01*
X146628148Y-75227171D01*
X146632910Y-75186690D01*
X146628148Y-75146209D01*
X146609098Y-75123825D01*
X146563378Y-75116681D01*
X146304298Y-75116681D01*
X146304298Y-74644241D01*
X146299535Y-74594711D01*
X146273579Y-74568279D01*
X146220478Y-74559469D01*
X146171424Y-74565898D01*
X146146183Y-74585186D01*
X146137134Y-74610427D01*
X146135705Y-74643289D01*
X146135705Y-75172879D01*
X146064022Y-75172879D01*
X146072840Y-75150019D01*
X146051885Y-75096679D01*
X146018786Y-75056674D01*
X145988068Y-75043339D01*
X145942348Y-75062389D01*
X145925203Y-75074771D01*
X145887579Y-75090011D01*
X145831858Y-75097631D01*
X145770183Y-75087154D01*
X145710890Y-75055721D01*
X145662313Y-74995714D01*
X145648025Y-74955113D01*
X145643263Y-74909512D01*
X145648025Y-74863912D01*
X145662313Y-74823311D01*
X145709938Y-74764256D01*
X145770421Y-74732109D01*
X145831858Y-74721394D01*
X145891865Y-74729490D01*
X145938538Y-74753779D01*
X145987115Y-74774734D01*
X146018548Y-74761875D01*
X146053790Y-74723299D01*
X146073793Y-74670435D01*
X146049028Y-74625191D01*
X146022358Y-74608046D01*
X145999498Y-74594711D01*
X145929489Y-74566612D01*
X145883650Y-74556254D01*
X145838525Y-74552801D01*
X145775766Y-74558516D01*
X145713218Y-74575661D01*
X145650883Y-74604236D01*
X145604091Y-74634121D01*
X145562776Y-74670435D01*
X145527653Y-74715202D01*
X145499435Y-74770447D01*
X145480861Y-74834384D01*
X145474670Y-74905226D01*
X145383679Y-74905226D01*
X145375491Y-74894392D01*
X145342273Y-74870936D01*
X145304411Y-74855101D01*
X145263215Y-74841885D01*
X145222019Y-74831527D01*
X145184158Y-74824264D01*
X145123674Y-74802356D01*
X145099385Y-74759970D01*
X145119864Y-74719012D01*
X145171299Y-74704249D01*
X145222258Y-74716631D01*
X145237021Y-74729014D01*
X145247975Y-74738539D01*
X145297505Y-74757589D01*
X145331319Y-74745682D01*
X145364180Y-74709964D01*
X145387040Y-74657576D01*
X145357513Y-74610904D01*
X145333700Y-74592806D01*
X145268454Y-74562802D01*
X145218805Y-74551730D01*
X145164155Y-74548039D01*
X145097427Y-74554971D01*
X145040753Y-74575767D01*
X144994134Y-74610427D01*
X144959473Y-74654401D01*
X144938677Y-74703137D01*
X144931745Y-74756636D01*
X144937817Y-74813191D01*
X144956034Y-74860935D01*
X144983299Y-74898440D01*
X145016518Y-74924276D01*
X145054141Y-74942969D01*
X145094623Y-74959042D01*
X145135104Y-74971782D01*
X145172728Y-74980474D01*
X145233211Y-75001905D01*
X145257500Y-75038576D01*
X145247658Y-75078793D01*
X145218130Y-75102923D01*
X145168918Y-75110966D01*
X145123198Y-75096202D01*
X145085098Y-75065246D01*
X145042711Y-75029527D01*
X145010803Y-75017621D01*
X144960320Y-75040481D01*
X144929602Y-75076557D01*
X144919363Y-75104775D01*
X144371393Y-75104775D01*
X144363964Y-75054694D01*
X144361277Y-75000000D01*
X144363964Y-74945306D01*
X144371999Y-74891138D01*
X144385305Y-74838019D01*
X144403753Y-74786460D01*
X144427166Y-74736958D01*
X144455318Y-74689988D01*
X144487939Y-74646005D01*
X144524713Y-74605430D01*
X144565288Y-74568655D01*
X144609272Y-74536035D01*
X144656241Y-74507882D01*
X144705743Y-74484469D01*
X144757303Y-74466021D01*
X144810422Y-74452716D01*
X144864589Y-74444681D01*
X144919283Y-74441994D01*
X158930717Y-74441994D01*
X158985411Y-74444681D01*
X159039579Y-74452716D01*
X159092698Y-74466021D01*
X159144257Y-74484470D01*
X159193759Y-74507882D01*
X159240729Y-74536035D01*
X159284712Y-74568655D01*
X159325287Y-74605430D01*
X159362061Y-74646005D01*
X159394682Y-74689988D01*
X159422834Y-74736958D01*
X159446247Y-74786460D01*
X159464695Y-74838019D01*
X159478001Y-74891138D01*
X159486036Y-74945306D01*
X159488723Y-75000000D01*
X159486036Y-75054694D01*
X159478001Y-75108862D01*
X159464695Y-75161981D01*
X159446247Y-75213540D01*
X159422834Y-75263042D01*
X159394682Y-75310012D01*
X159362061Y-75353995D01*
X159325287Y-75394570D01*
X159284712Y-75431345D01*
X159240729Y-75463965D01*
X159193759Y-75492118D01*
X159144257Y-75515530D01*
X159092698Y-75533979D01*
X159039579Y-75547284D01*
X158985411Y-75555319D01*
X158930717Y-75558006D01*
X144919283Y-75558006D01*
X144864589Y-75555319D01*
G37*
D12*
%TO.C,J2*%
X145075000Y-69330000D02*
X146345000Y-69330000D01*
X148885000Y-69330000D02*
X149520000Y-69965000D01*
X146980000Y-69965000D02*
X147615000Y-69330000D01*
X141900000Y-71235000D02*
X142535000Y-71870000D01*
X152060000Y-71235000D02*
X151425000Y-71870000D01*
X155235000Y-69330000D02*
X156505000Y-69330000D01*
X149520000Y-69965000D02*
X149520000Y-71235000D01*
X157775000Y-69330000D02*
X159045000Y-69330000D01*
X157775000Y-69330000D02*
X157140000Y-69965000D01*
X148885000Y-71870000D02*
X147615000Y-71870000D01*
X161585000Y-69330000D02*
X162220000Y-69965000D01*
X147615000Y-69330000D02*
X148885000Y-69330000D01*
X156505000Y-71870000D02*
X155235000Y-71870000D01*
X146980000Y-71235000D02*
X146345000Y-71870000D01*
X159045000Y-69330000D02*
X159680000Y-69965000D01*
X162220000Y-69965000D02*
X162220000Y-71235000D01*
X149520000Y-71235000D02*
X150155000Y-71870000D01*
X146980000Y-69965000D02*
X146980000Y-71235000D01*
X156505000Y-69330000D02*
X157140000Y-69965000D01*
X161585000Y-71870000D02*
X160315000Y-71870000D01*
X155235000Y-71870000D02*
X154600000Y-71235000D01*
X151425000Y-71870000D02*
X150155000Y-71870000D01*
X154600000Y-69965000D02*
X154600000Y-71235000D01*
X141900000Y-69965000D02*
X141900000Y-71235000D01*
X149520000Y-71235000D02*
X148885000Y-71870000D01*
X159680000Y-71235000D02*
X159045000Y-71870000D01*
X157140000Y-71235000D02*
X156505000Y-71870000D01*
X157140000Y-69965000D02*
X157140000Y-71235000D01*
X154600000Y-71235000D02*
X153965000Y-71870000D01*
X151425000Y-69330000D02*
X152060000Y-69965000D01*
X153965000Y-69330000D02*
X154600000Y-69965000D01*
X162220000Y-71235000D02*
X161585000Y-71870000D01*
X144440000Y-69965000D02*
X144440000Y-71235000D01*
X159680000Y-69965000D02*
X159680000Y-71235000D01*
X152060000Y-69965000D02*
X152060000Y-71235000D01*
X150155000Y-69330000D02*
X151425000Y-69330000D01*
X153965000Y-71870000D02*
X152695000Y-71870000D01*
X159045000Y-71870000D02*
X157775000Y-71870000D01*
X152060000Y-69965000D02*
X152695000Y-69330000D01*
X143805000Y-69330000D02*
X144440000Y-69965000D01*
X159680000Y-71235000D02*
X160315000Y-71870000D01*
X160315000Y-69330000D02*
X159680000Y-69965000D01*
X144440000Y-71235000D02*
X143805000Y-71870000D01*
X142535000Y-69330000D02*
X143805000Y-69330000D01*
X157140000Y-71235000D02*
X157775000Y-71870000D01*
X145075000Y-71870000D02*
X144440000Y-71235000D01*
X143805000Y-71870000D02*
X142535000Y-71870000D01*
X152695000Y-71870000D02*
X152060000Y-71235000D01*
X146345000Y-69330000D02*
X146980000Y-69965000D01*
X154600000Y-69965000D02*
X155235000Y-69330000D01*
X152695000Y-69330000D02*
X153965000Y-69330000D01*
X147615000Y-71870000D02*
X146980000Y-71235000D01*
X160315000Y-69330000D02*
X161585000Y-69330000D01*
X146345000Y-71870000D02*
X145075000Y-71870000D01*
X150155000Y-69330000D02*
X149520000Y-69965000D01*
X144440000Y-69965000D02*
X145075000Y-69330000D01*
X142535000Y-69330000D02*
X141900000Y-69965000D01*
D13*
%TO.C,J1*%
X157140000Y-78420000D02*
X144380000Y-78420000D01*
X159740000Y-75760000D02*
X159740000Y-77090000D01*
X157140000Y-75760000D02*
X157140000Y-78420000D01*
X157140000Y-75760000D02*
X144380000Y-75760000D01*
X158410000Y-75760000D02*
X159740000Y-75760000D01*
X144380000Y-75760000D02*
X144380000Y-78420000D01*
%TO.C,G\u002A\u002A\u002A*%
G36*
X142311508Y-78145922D02*
G01*
X142321750Y-78145975D01*
X142330535Y-78146056D01*
X142337641Y-78146163D01*
X142342842Y-78146295D01*
X142345916Y-78146448D01*
X142346693Y-78146585D01*
X142346765Y-78150250D01*
X142346827Y-78156168D01*
X142346880Y-78164090D01*
X142346924Y-78173770D01*
X142346959Y-78184960D01*
X142346985Y-78197413D01*
X142347003Y-78210883D01*
X142347012Y-78225121D01*
X142347014Y-78239882D01*
X142347007Y-78254917D01*
X142346993Y-78269979D01*
X142346971Y-78284823D01*
X142346942Y-78299199D01*
X142346906Y-78312861D01*
X142346863Y-78325563D01*
X142346813Y-78337056D01*
X142346756Y-78347094D01*
X142346694Y-78355430D01*
X142346625Y-78361816D01*
X142346549Y-78366005D01*
X142346522Y-78366890D01*
X142346247Y-78374351D01*
X142345993Y-78381334D01*
X142345779Y-78387268D01*
X142345626Y-78391581D01*
X142345574Y-78393123D01*
X142345399Y-78398496D01*
X142330491Y-78398496D01*
X142329575Y-78416828D01*
X142328658Y-78435160D01*
X142312529Y-78435160D01*
X142312529Y-78442642D01*
X142312433Y-78448059D01*
X142311876Y-78451432D01*
X142310451Y-78453244D01*
X142307754Y-78453980D01*
X142303381Y-78454123D01*
X142294829Y-78454123D01*
X142294829Y-78470448D01*
X142285664Y-78470819D01*
X142276498Y-78471191D01*
X142276129Y-78480989D01*
X142275759Y-78490786D01*
X142005317Y-78490786D01*
X142005317Y-78471823D01*
X141997352Y-78471823D01*
X141992775Y-78471589D01*
X141989302Y-78470972D01*
X141987870Y-78470306D01*
X141987038Y-78468276D01*
X141986487Y-78464635D01*
X141986353Y-78461516D01*
X141986353Y-78454244D01*
X141978451Y-78453868D01*
X141970550Y-78453491D01*
X141969918Y-78444641D01*
X141969286Y-78435792D01*
X141960902Y-78435421D01*
X141952519Y-78435051D01*
X141951605Y-78416774D01*
X141950691Y-78398496D01*
X141936086Y-78398496D01*
X141935110Y-78383641D01*
X141935017Y-78380992D01*
X141934926Y-78376042D01*
X141934838Y-78369022D01*
X141934753Y-78360159D01*
X141934672Y-78349684D01*
X141934596Y-78337824D01*
X141934524Y-78324808D01*
X141934458Y-78310866D01*
X141934399Y-78296226D01*
X141934346Y-78281117D01*
X141934301Y-78265767D01*
X141934264Y-78250407D01*
X141934236Y-78235263D01*
X141934217Y-78220566D01*
X141934208Y-78206544D01*
X141934209Y-78193425D01*
X141934222Y-78181439D01*
X141934247Y-78170815D01*
X141934284Y-78161781D01*
X141934335Y-78154567D01*
X141934399Y-78149400D01*
X141934473Y-78146585D01*
X141935709Y-78146415D01*
X141939249Y-78146265D01*
X141944869Y-78146139D01*
X141952347Y-78146037D01*
X141961457Y-78145961D01*
X141971977Y-78145915D01*
X141983681Y-78145899D01*
X141996347Y-78145915D01*
X142006897Y-78145953D01*
X142079275Y-78146279D01*
X142079605Y-78200898D01*
X142079934Y-78255516D01*
X142087822Y-78255892D01*
X142095710Y-78256269D01*
X142097926Y-78289415D01*
X142109339Y-78290225D01*
X142117408Y-78290639D01*
X142127231Y-78290896D01*
X142138036Y-78290997D01*
X142149054Y-78290942D01*
X142159515Y-78290730D01*
X142168647Y-78290362D01*
X142171196Y-78290210D01*
X142183469Y-78289397D01*
X142183838Y-78281050D01*
X142184208Y-78272704D01*
X142192730Y-78272330D01*
X142201252Y-78271957D01*
X142201579Y-78209118D01*
X142201907Y-78146279D01*
X142274285Y-78145953D01*
X142287552Y-78145909D01*
X142300035Y-78145899D01*
X142311508Y-78145922D01*
G37*
G36*
X142095078Y-77680404D02*
G01*
X142114042Y-77680404D01*
X142114042Y-77662704D01*
X142130477Y-77662704D01*
X142130477Y-77671479D01*
X142130647Y-77675964D01*
X142131093Y-77679385D01*
X142131720Y-77681021D01*
X142131741Y-77681036D01*
X142131912Y-77682370D01*
X142132069Y-77685994D01*
X142132212Y-77691669D01*
X142132340Y-77699157D01*
X142132452Y-77708218D01*
X142132550Y-77718614D01*
X142132631Y-77730107D01*
X142132696Y-77742457D01*
X142132744Y-77755426D01*
X142132775Y-77768776D01*
X142132788Y-77782267D01*
X142132783Y-77795661D01*
X142132760Y-77808720D01*
X142132718Y-77821204D01*
X142132656Y-77832874D01*
X142132575Y-77843493D01*
X142132474Y-77852822D01*
X142132352Y-77860622D01*
X142132210Y-77866653D01*
X142132072Y-77870207D01*
X142131633Y-77878591D01*
X142097853Y-77880401D01*
X142096945Y-77897345D01*
X142096038Y-77914290D01*
X142079934Y-77914290D01*
X142079605Y-77968336D01*
X142079275Y-78022383D01*
X142007060Y-78022709D01*
X141934844Y-78023035D01*
X141934096Y-78005642D01*
X141933949Y-78000845D01*
X141933822Y-77993908D01*
X141933713Y-77985090D01*
X141933624Y-77974648D01*
X141933553Y-77962843D01*
X141933500Y-77949933D01*
X141933465Y-77936176D01*
X141933448Y-77921833D01*
X141933448Y-77907161D01*
X141933464Y-77892419D01*
X141933498Y-77877867D01*
X141933548Y-77863763D01*
X141933614Y-77850366D01*
X141933696Y-77837935D01*
X141933793Y-77826729D01*
X141933905Y-77817007D01*
X141934032Y-77809027D01*
X141934174Y-77803049D01*
X141934330Y-77799331D01*
X141934336Y-77799243D01*
X141935151Y-77787233D01*
X141942864Y-77786861D01*
X141950577Y-77786490D01*
X141951397Y-77773074D01*
X141951769Y-77765645D01*
X141952053Y-77757397D01*
X141952205Y-77749733D01*
X141952218Y-77747270D01*
X141952218Y-77734882D01*
X141969286Y-77734134D01*
X141969918Y-77725284D01*
X141970550Y-77716435D01*
X141978393Y-77716060D01*
X141986235Y-77715685D01*
X141986610Y-77707842D01*
X141986985Y-77700000D01*
X141995835Y-77699367D01*
X142004685Y-77698735D01*
X142005317Y-77690518D01*
X142005949Y-77682300D01*
X142015431Y-77681517D01*
X142019608Y-77681272D01*
X142025764Y-77681041D01*
X142033348Y-77680840D01*
X142041810Y-77680682D01*
X142050600Y-77680581D01*
X142052410Y-77680569D01*
X142079907Y-77680404D01*
X142079907Y-77662704D01*
X142095078Y-77662704D01*
X142095078Y-77680404D01*
G37*
G36*
X142363099Y-77680404D02*
G01*
X142385855Y-77680404D01*
X142385855Y-77662704D01*
X142401026Y-77662704D01*
X142401026Y-77680404D01*
X142473088Y-77680404D01*
X142473088Y-77662704D01*
X142489524Y-77662704D01*
X142489524Y-77680404D01*
X142507781Y-77680404D01*
X142514981Y-77680489D01*
X142520776Y-77680729D01*
X142524810Y-77681101D01*
X142526730Y-77681580D01*
X142526819Y-77681668D01*
X142528389Y-77682301D01*
X142531762Y-77682754D01*
X142536216Y-77682932D01*
X142545030Y-77682932D01*
X142545406Y-77690834D01*
X142545783Y-77698735D01*
X142554892Y-77699106D01*
X142564001Y-77699476D01*
X142564374Y-77707955D01*
X142564746Y-77716435D01*
X142573280Y-77716809D01*
X142581814Y-77717182D01*
X142581814Y-77724607D01*
X142581916Y-77730009D01*
X142582477Y-77733369D01*
X142583877Y-77735169D01*
X142586497Y-77735895D01*
X142590719Y-77736031D01*
X142590799Y-77736031D01*
X142595036Y-77736146D01*
X142597305Y-77736602D01*
X142598159Y-77737564D01*
X142598230Y-77738243D01*
X142598301Y-77740164D01*
X142598512Y-77744168D01*
X142598836Y-77749816D01*
X142599249Y-77756669D01*
X142599717Y-77764160D01*
X142601223Y-77787865D01*
X142617213Y-77787865D01*
X142617213Y-78023015D01*
X142548505Y-78023015D01*
X142535133Y-78023000D01*
X142522186Y-78022956D01*
X142509949Y-78022887D01*
X142498705Y-78022795D01*
X142488739Y-78022683D01*
X142480334Y-78022554D01*
X142473775Y-78022412D01*
X142469346Y-78022258D01*
X142468226Y-78022193D01*
X142456653Y-78021372D01*
X142456661Y-77973204D01*
X142456621Y-77961246D01*
X142456505Y-77949083D01*
X142456323Y-77937187D01*
X142456084Y-77926031D01*
X142455798Y-77916085D01*
X142455476Y-77907821D01*
X142455199Y-77902773D01*
X142453731Y-77880510D01*
X142441601Y-77879707D01*
X142432307Y-77879260D01*
X142421323Y-77879001D01*
X142409480Y-77878930D01*
X142397610Y-77879047D01*
X142386545Y-77879352D01*
X142379099Y-77879715D01*
X142365627Y-77880539D01*
X142365627Y-77887197D01*
X142365508Y-77892377D01*
X142364850Y-77895532D01*
X142363200Y-77897162D01*
X142360105Y-77897769D01*
X142356010Y-77897854D01*
X142347928Y-77897854D01*
X142347708Y-77907020D01*
X142347664Y-77910722D01*
X142347649Y-77916518D01*
X142347663Y-77923975D01*
X142347704Y-77932658D01*
X142347771Y-77942134D01*
X142347861Y-77951968D01*
X142347864Y-77952217D01*
X142347930Y-77962635D01*
X142347922Y-77973234D01*
X142347845Y-77983455D01*
X142347706Y-77992742D01*
X142347509Y-78000538D01*
X142347299Y-78005631D01*
X142346359Y-78023015D01*
X142202921Y-78023015D01*
X142202104Y-78010688D01*
X142201944Y-78006900D01*
X142201801Y-78000836D01*
X142201676Y-77992751D01*
X142201570Y-77982896D01*
X142201481Y-77971526D01*
X142201411Y-77958893D01*
X142201358Y-77945251D01*
X142201324Y-77930853D01*
X142201308Y-77915952D01*
X142201310Y-77900802D01*
X142201330Y-77885655D01*
X142201368Y-77870764D01*
X142201424Y-77856384D01*
X142201498Y-77842766D01*
X142201590Y-77830165D01*
X142201700Y-77818833D01*
X142201828Y-77809024D01*
X142201974Y-77800991D01*
X142202111Y-77795766D01*
X142202941Y-77770165D01*
X142221219Y-77770165D01*
X142222135Y-77752466D01*
X142223052Y-77734766D01*
X142239203Y-77734766D01*
X142239203Y-77727284D01*
X142239298Y-77721867D01*
X142239856Y-77718494D01*
X142241280Y-77716682D01*
X142243977Y-77715946D01*
X142248351Y-77715803D01*
X142256902Y-77715803D01*
X142256902Y-77707720D01*
X142257016Y-77703183D01*
X142257682Y-77700358D01*
X142259383Y-77698839D01*
X142262602Y-77698223D01*
X142267824Y-77698103D01*
X142275866Y-77698103D01*
X142275866Y-77682052D01*
X142289337Y-77681228D01*
X142295408Y-77680941D01*
X142303190Y-77680697D01*
X142311865Y-77680516D01*
X142320615Y-77680417D01*
X142324736Y-77680404D01*
X142346664Y-77680404D01*
X142346664Y-77662704D01*
X142363099Y-77662704D01*
X142363099Y-77680404D01*
G37*
G36*
X141309981Y-75438893D02*
G01*
X143310020Y-75438893D01*
X143310020Y-78741107D01*
X141309981Y-78741107D01*
X141309981Y-78308735D01*
X141503410Y-78308735D01*
X141518276Y-78308735D01*
X141519039Y-78326750D01*
X141519395Y-78335172D01*
X141519804Y-78344934D01*
X141520218Y-78354847D01*
X141520586Y-78363724D01*
X141520599Y-78364046D01*
X141521396Y-78383325D01*
X141536026Y-78383325D01*
X141536870Y-78399445D01*
X141537228Y-78405673D01*
X141537596Y-78411044D01*
X141537934Y-78415019D01*
X141538200Y-78417063D01*
X141538222Y-78417144D01*
X141539845Y-78418164D01*
X141543803Y-78418671D01*
X141546247Y-78418724D01*
X141553765Y-78418724D01*
X141554524Y-78427258D01*
X141555071Y-78433481D01*
X141555662Y-78440334D01*
X141556000Y-78444325D01*
X141556716Y-78452859D01*
X141575473Y-78452859D01*
X141575473Y-78470443D01*
X141584006Y-78470817D01*
X141592540Y-78471191D01*
X141593804Y-78491419D01*
X141602279Y-78491791D01*
X141610754Y-78492164D01*
X141611504Y-78507854D01*
X141619981Y-78508226D01*
X141628458Y-78508599D01*
X141628830Y-78517076D01*
X141629203Y-78525553D01*
X141638053Y-78526185D01*
X141646903Y-78526818D01*
X141647649Y-78542368D01*
X141681669Y-78544190D01*
X141681669Y-78560320D01*
X141688307Y-78560495D01*
X141691874Y-78560603D01*
X141697356Y-78560785D01*
X141704139Y-78561021D01*
X141711612Y-78561289D01*
X141715804Y-78561443D01*
X141736664Y-78562216D01*
X141737035Y-78569925D01*
X141737407Y-78577634D01*
X141766113Y-78578508D01*
X141770535Y-78578601D01*
X141777325Y-78578687D01*
X141786321Y-78578766D01*
X141797362Y-78578838D01*
X141810286Y-78578902D01*
X141824934Y-78578960D01*
X141841143Y-78579011D01*
X141858753Y-78579054D01*
X141877602Y-78579091D01*
X141897530Y-78579122D01*
X141918375Y-78579145D01*
X141939975Y-78579162D01*
X141962171Y-78579172D01*
X141984800Y-78579175D01*
X142007702Y-78579172D01*
X142030715Y-78579163D01*
X142053679Y-78579147D01*
X142076432Y-78579124D01*
X142098813Y-78579096D01*
X142120661Y-78579061D01*
X142141815Y-78579020D01*
X142162113Y-78578973D01*
X142181395Y-78578920D01*
X142199500Y-78578861D01*
X142216265Y-78578795D01*
X142231531Y-78578724D01*
X142245136Y-78578647D01*
X142256919Y-78578565D01*
X142266718Y-78578476D01*
X142274373Y-78578382D01*
X142277446Y-78578331D01*
X142312529Y-78577671D01*
X142312529Y-78563230D01*
X142324855Y-78562414D01*
X142330854Y-78562107D01*
X142338470Y-78561851D01*
X142346791Y-78561670D01*
X142354908Y-78561588D01*
X142356145Y-78561585D01*
X142364395Y-78561519D01*
X142373241Y-78561347D01*
X142381678Y-78561096D01*
X142388700Y-78560789D01*
X142389332Y-78560753D01*
X142403555Y-78559934D01*
X142403555Y-78545528D01*
X142415127Y-78544706D01*
X142421863Y-78544313D01*
X142429118Y-78544022D01*
X142435495Y-78543888D01*
X142436423Y-78543885D01*
X142442101Y-78543800D01*
X142449146Y-78543572D01*
X142456400Y-78543243D01*
X142459617Y-78543061D01*
X142473088Y-78542236D01*
X142473088Y-78526185D01*
X142489420Y-78526185D01*
X142495741Y-78526128D01*
X142501252Y-78525972D01*
X142505401Y-78525740D01*
X142507639Y-78525454D01*
X142507752Y-78525418D01*
X142508974Y-78524219D01*
X142509597Y-78521482D01*
X142509752Y-78517381D01*
X142509752Y-78510112D01*
X142522078Y-78509325D01*
X142528927Y-78508895D01*
X142537006Y-78508398D01*
X142545019Y-78507914D01*
X142548627Y-78507700D01*
X142562850Y-78506862D01*
X142562850Y-78490893D01*
X142572648Y-78490524D01*
X142582446Y-78490154D01*
X142583184Y-78472034D01*
X142591665Y-78471277D01*
X142597854Y-78470732D01*
X142604684Y-78470142D01*
X142608679Y-78469803D01*
X142617213Y-78469087D01*
X142617213Y-78453164D01*
X142651347Y-78451336D01*
X142651347Y-78444133D01*
X142651600Y-78439915D01*
X142652250Y-78436648D01*
X142652864Y-78435412D01*
X142654920Y-78434585D01*
X142658702Y-78434041D01*
X142662346Y-78433895D01*
X142670311Y-78433895D01*
X142670311Y-78417576D01*
X142678845Y-78417202D01*
X142687378Y-78416828D01*
X142688010Y-78408610D01*
X142688643Y-78400393D01*
X142706604Y-78399303D01*
X142724565Y-78398214D01*
X142724935Y-78389822D01*
X142725306Y-78381429D01*
X142733783Y-78381056D01*
X142742260Y-78380684D01*
X142742633Y-78372207D01*
X142743005Y-78363730D01*
X142751482Y-78363357D01*
X142759960Y-78362984D01*
X142760332Y-78354507D01*
X142760705Y-78346030D01*
X142769238Y-78345656D01*
X142777772Y-78345282D01*
X142777772Y-78337197D01*
X142777956Y-78332897D01*
X142778436Y-78329679D01*
X142779036Y-78328331D01*
X142779669Y-78326761D01*
X142780123Y-78323387D01*
X142780300Y-78318934D01*
X142780301Y-78318834D01*
X142780301Y-78310120D01*
X142788202Y-78309743D01*
X142796104Y-78309367D01*
X142796474Y-78300258D01*
X142796844Y-78291148D01*
X142805324Y-78290776D01*
X142813803Y-78290403D01*
X142814177Y-78281870D01*
X142814551Y-78273336D01*
X142830870Y-78273336D01*
X142830870Y-78264561D01*
X142831040Y-78260076D01*
X142831486Y-78256656D01*
X142832113Y-78255019D01*
X142832135Y-78255004D01*
X142832814Y-78253412D01*
X142833272Y-78250089D01*
X142833399Y-78246772D01*
X142833399Y-78239322D01*
X142841300Y-78238945D01*
X142849202Y-78238569D01*
X142850466Y-78219605D01*
X142859505Y-78219236D01*
X142868545Y-78218868D01*
X142869456Y-78201853D01*
X142870367Y-78184839D01*
X142886238Y-78184839D01*
X142887084Y-78167455D01*
X142887428Y-78160987D01*
X142887784Y-78155371D01*
X142888114Y-78151118D01*
X142888382Y-78148743D01*
X142888438Y-78148491D01*
X142890061Y-78147471D01*
X142894011Y-78146964D01*
X142896430Y-78146911D01*
X142903913Y-78146911D01*
X142904829Y-78129212D01*
X142905745Y-78111512D01*
X142921451Y-78111512D01*
X142922957Y-78087808D01*
X142923432Y-78080199D01*
X142923844Y-78073362D01*
X142924166Y-78067737D01*
X142924375Y-78063763D01*
X142924444Y-78061890D01*
X142924824Y-78060628D01*
X142926363Y-78059953D01*
X142929615Y-78059699D01*
X142931817Y-78059678D01*
X142939209Y-78059678D01*
X142940029Y-78045455D01*
X142940391Y-78037857D01*
X142940672Y-78029428D01*
X142940832Y-78021519D01*
X142940854Y-78018274D01*
X142940860Y-78005315D01*
X142956893Y-78005315D01*
X142957723Y-77977818D01*
X142957983Y-77968381D01*
X142958210Y-77958549D01*
X142958390Y-77949044D01*
X142958510Y-77940589D01*
X142958556Y-77933907D01*
X142958556Y-77933673D01*
X142958614Y-77927292D01*
X142958768Y-77921721D01*
X142958997Y-77917504D01*
X142959279Y-77915184D01*
X142959327Y-77915025D01*
X142960502Y-77913816D01*
X142963187Y-77913192D01*
X142967524Y-77913025D01*
X142974955Y-77913025D01*
X142975312Y-77877942D01*
X142975422Y-77867503D01*
X142975542Y-77856748D01*
X142975666Y-77846278D01*
X142975785Y-77836692D01*
X142975893Y-77828591D01*
X142975962Y-77823896D01*
X142976006Y-77818327D01*
X142976007Y-77810637D01*
X142975965Y-77801235D01*
X142975886Y-77790528D01*
X142975771Y-77778923D01*
X142975625Y-77766829D01*
X142975449Y-77754652D01*
X142975419Y-77752782D01*
X142974583Y-77700632D01*
X142967339Y-77700632D01*
X142962826Y-77700429D01*
X142960303Y-77699737D01*
X142959327Y-77698632D01*
X142959054Y-77696702D01*
X142958823Y-77692751D01*
X142958654Y-77687287D01*
X142958565Y-77680818D01*
X142958556Y-77678088D01*
X142958509Y-77670579D01*
X142958380Y-77661386D01*
X142958186Y-77651352D01*
X142957941Y-77641321D01*
X142957723Y-77633943D01*
X142956894Y-77608342D01*
X142940860Y-77608342D01*
X142940854Y-77595383D01*
X142940767Y-77588211D01*
X142940540Y-77579866D01*
X142940212Y-77571697D01*
X142940029Y-77568202D01*
X142939209Y-77553979D01*
X142924803Y-77553979D01*
X142924019Y-77542917D01*
X142923627Y-77537049D01*
X142923169Y-77529678D01*
X142922709Y-77521827D01*
X142922372Y-77515735D01*
X142921511Y-77499616D01*
X142905745Y-77499616D01*
X142904832Y-77481974D01*
X142903918Y-77464331D01*
X142888394Y-77463585D01*
X142887288Y-77446202D01*
X142886183Y-77428818D01*
X142870367Y-77428818D01*
X142869456Y-77411804D01*
X142868545Y-77394789D01*
X142859505Y-77394420D01*
X142850466Y-77394052D01*
X142849202Y-77375088D01*
X142841300Y-77374712D01*
X142833399Y-77374335D01*
X142833399Y-77366885D01*
X142833200Y-77362761D01*
X142832684Y-77359738D01*
X142832135Y-77358653D01*
X142831541Y-77357103D01*
X142831097Y-77353689D01*
X142830880Y-77349076D01*
X142830870Y-77347832D01*
X142830870Y-77337793D01*
X142814551Y-77337793D01*
X142813803Y-77320725D01*
X142805324Y-77320353D01*
X142796844Y-77319980D01*
X142796104Y-77301762D01*
X142788202Y-77301385D01*
X142780301Y-77301009D01*
X142780301Y-77293558D01*
X142780101Y-77289434D01*
X142779586Y-77286411D01*
X142779036Y-77285326D01*
X142778382Y-77283746D01*
X142777925Y-77280396D01*
X142777772Y-77276460D01*
X142777772Y-77268374D01*
X142769238Y-77268001D01*
X142760705Y-77267627D01*
X142760332Y-77259150D01*
X142759960Y-77250672D01*
X142751482Y-77250300D01*
X142743005Y-77249927D01*
X142742633Y-77241450D01*
X142742260Y-77232973D01*
X142733783Y-77232600D01*
X142725306Y-77232228D01*
X142724935Y-77223835D01*
X142724565Y-77215443D01*
X142706604Y-77214353D01*
X142688643Y-77213264D01*
X142688010Y-77205047D01*
X142687378Y-77196829D01*
X142678845Y-77196455D01*
X142670311Y-77196081D01*
X142670311Y-77177233D01*
X142662829Y-77177233D01*
X142657412Y-77177136D01*
X142654038Y-77176579D01*
X142652226Y-77175163D01*
X142651490Y-77172487D01*
X142651348Y-77168152D01*
X142651347Y-77167746D01*
X142651347Y-77159793D01*
X142634334Y-77158881D01*
X142617321Y-77157970D01*
X142616951Y-77149586D01*
X142616580Y-77141202D01*
X142599886Y-77140115D01*
X142583191Y-77139027D01*
X142582819Y-77131265D01*
X142582446Y-77123503D01*
X142572964Y-77122870D01*
X142563482Y-77122238D01*
X142563109Y-77114455D01*
X142562735Y-77106671D01*
X142524923Y-77104847D01*
X142524923Y-77088736D01*
X142513228Y-77088730D01*
X142506704Y-77088645D01*
X142498897Y-77088422D01*
X142491048Y-77088101D01*
X142487311Y-77087905D01*
X142473088Y-77087085D01*
X142473088Y-77071303D01*
X142453176Y-77070476D01*
X142444708Y-77070151D01*
X142435589Y-77069847D01*
X142426811Y-77069592D01*
X142419365Y-77069418D01*
X142418094Y-77069395D01*
X142402923Y-77069140D01*
X142402600Y-77193843D01*
X142402278Y-77318546D01*
X142418404Y-77319259D01*
X142422527Y-77319385D01*
X142428911Y-77319503D01*
X142437286Y-77319613D01*
X142447385Y-77319711D01*
X142458938Y-77319797D01*
X142471676Y-77319868D01*
X142485332Y-77319923D01*
X142499638Y-77319958D01*
X142514323Y-77319973D01*
X142516705Y-77319974D01*
X142531179Y-77319975D01*
X142545123Y-77319978D01*
X142558297Y-77319982D01*
X142570456Y-77319988D01*
X142581360Y-77319995D01*
X142590765Y-77320003D01*
X142598429Y-77320012D01*
X142604110Y-77320021D01*
X142607566Y-77320032D01*
X142608054Y-77320034D01*
X142617228Y-77320093D01*
X142616904Y-77419653D01*
X142616580Y-77519212D01*
X142239835Y-77519212D01*
X142239464Y-77510105D01*
X142239094Y-77500998D01*
X142231247Y-77500623D01*
X142223399Y-77500248D01*
X142223080Y-77268094D01*
X142222761Y-77035939D01*
X142210438Y-77035386D01*
X142205655Y-77035254D01*
X142198869Y-77035180D01*
X142190607Y-77035165D01*
X142181392Y-77035209D01*
X142171750Y-77035310D01*
X142165616Y-77035405D01*
X142133118Y-77035976D01*
X142132374Y-77051440D01*
X142114990Y-77051792D01*
X142112778Y-77051837D01*
X142097607Y-77052144D01*
X142097607Y-77270625D01*
X142097602Y-77294194D01*
X142097588Y-77317233D01*
X142097565Y-77339599D01*
X142097534Y-77361151D01*
X142097496Y-77381749D01*
X142097450Y-77401252D01*
X142097397Y-77419517D01*
X142097338Y-77436405D01*
X142097274Y-77451774D01*
X142097204Y-77465483D01*
X142097130Y-77477390D01*
X142097051Y-77487356D01*
X142096968Y-77495237D01*
X142096883Y-77500895D01*
X142096794Y-77504187D01*
X142096780Y-77504475D01*
X142095954Y-77519844D01*
X141934519Y-77519844D01*
X141934453Y-77509414D01*
X141934444Y-77506978D01*
X141934432Y-77502159D01*
X141934418Y-77495103D01*
X141934401Y-77485956D01*
X141934382Y-77474862D01*
X141934361Y-77461969D01*
X141934338Y-77447421D01*
X141934313Y-77431364D01*
X141934288Y-77413945D01*
X141934261Y-77395308D01*
X141934234Y-77375599D01*
X141934205Y-77354964D01*
X141934177Y-77333549D01*
X141934148Y-77311499D01*
X141934137Y-77302815D01*
X141934104Y-77280739D01*
X141934061Y-77259351D01*
X141934009Y-77238788D01*
X141933950Y-77219187D01*
X141933883Y-77200684D01*
X141933811Y-77183415D01*
X141933732Y-77167519D01*
X141933649Y-77153130D01*
X141933562Y-77140386D01*
X141933471Y-77129424D01*
X141933378Y-77120380D01*
X141933283Y-77113390D01*
X141933187Y-77108593D01*
X141933091Y-77106123D01*
X141933046Y-77105805D01*
X141931531Y-77105554D01*
X141928005Y-77105476D01*
X141922976Y-77105570D01*
X141916957Y-77105834D01*
X141916351Y-77105868D01*
X141900496Y-77106771D01*
X141900124Y-77114505D01*
X141899752Y-77122238D01*
X141891534Y-77122562D01*
X141885465Y-77122842D01*
X141881482Y-77123301D01*
X141879146Y-77124226D01*
X141878018Y-77125905D01*
X141877658Y-77128624D01*
X141877628Y-77131636D01*
X141877628Y-77139090D01*
X141869094Y-77139850D01*
X141862871Y-77140396D01*
X141856018Y-77140987D01*
X141852027Y-77141325D01*
X141843493Y-77142042D01*
X141843493Y-77157964D01*
X141826426Y-77158879D01*
X141809358Y-77159793D01*
X141809358Y-77167746D01*
X141809241Y-77172222D01*
X141808567Y-77175009D01*
X141806853Y-77176507D01*
X141803615Y-77177115D01*
X141798369Y-77177233D01*
X141790395Y-77177233D01*
X141790395Y-77196081D01*
X141773327Y-77196829D01*
X141772955Y-77205308D01*
X141772582Y-77213788D01*
X141754364Y-77214528D01*
X141753987Y-77222430D01*
X141753611Y-77230332D01*
X141746160Y-77230332D01*
X141742036Y-77230531D01*
X141739013Y-77231046D01*
X141737928Y-77231596D01*
X141736368Y-77232209D01*
X141732974Y-77232658D01*
X141728439Y-77232857D01*
X141727798Y-77232860D01*
X141718448Y-77232860D01*
X141718074Y-77241394D01*
X141717700Y-77249927D01*
X141709167Y-77250301D01*
X141700633Y-77250675D01*
X141700633Y-77258760D01*
X141700449Y-77263060D01*
X141699969Y-77266278D01*
X141699369Y-77267627D01*
X141698690Y-77269220D01*
X141698231Y-77272542D01*
X141698105Y-77275859D01*
X141698105Y-77283309D01*
X141690203Y-77283686D01*
X141682301Y-77284062D01*
X141681037Y-77301762D01*
X141672504Y-77302135D01*
X141663970Y-77302509D01*
X141663970Y-77319978D01*
X141655436Y-77320351D01*
X141646903Y-77320725D01*
X141646270Y-77329575D01*
X141645638Y-77338425D01*
X141637737Y-77338801D01*
X141629835Y-77339177D01*
X141629835Y-77348524D01*
X141629675Y-77353157D01*
X141629254Y-77356739D01*
X141628657Y-77358578D01*
X141628571Y-77358653D01*
X141627894Y-77360244D01*
X141627436Y-77363569D01*
X141627307Y-77366945D01*
X141627307Y-77374456D01*
X141619856Y-77374456D01*
X141615616Y-77374585D01*
X141612975Y-77375293D01*
X141611556Y-77377065D01*
X141610981Y-77380382D01*
X141610871Y-77385729D01*
X141610871Y-77393419D01*
X141594721Y-77393419D01*
X141593804Y-77411119D01*
X141592888Y-77428818D01*
X141576972Y-77428818D01*
X141576060Y-77446518D01*
X141575148Y-77464217D01*
X141556744Y-77464217D01*
X141555835Y-77481863D01*
X141554926Y-77499508D01*
X141546552Y-77499878D01*
X141538177Y-77500248D01*
X141537545Y-77527430D01*
X141536913Y-77554611D01*
X141528379Y-77554985D01*
X141519846Y-77555359D01*
X141519846Y-77580482D01*
X141519808Y-77588304D01*
X141519704Y-77595337D01*
X141519545Y-77601161D01*
X141519344Y-77605355D01*
X141519111Y-77607498D01*
X141519078Y-77607606D01*
X141517906Y-77608813D01*
X141515228Y-77609438D01*
X141510861Y-77609606D01*
X141503410Y-77609606D01*
X141503410Y-78308735D01*
X141309981Y-78308735D01*
X141309981Y-77537544D01*
X141503410Y-77537544D01*
X141518516Y-77537544D01*
X141518864Y-77518264D01*
X141519213Y-77498984D01*
X141527558Y-77498615D01*
X141535903Y-77498245D01*
X141536724Y-77484827D01*
X141537096Y-77477388D01*
X141537380Y-77469118D01*
X141537532Y-77461427D01*
X141537545Y-77458964D01*
X141537545Y-77446518D01*
X141553641Y-77446518D01*
X141554759Y-77428502D01*
X141555877Y-77410487D01*
X141573955Y-77409749D01*
X141574866Y-77392735D01*
X141575777Y-77375720D01*
X141591667Y-77375720D01*
X141592579Y-77356810D01*
X141593491Y-77337901D01*
X141601865Y-77337531D01*
X141610239Y-77337160D01*
X141610611Y-77327995D01*
X141610982Y-77318829D01*
X141626966Y-77318829D01*
X141628085Y-77302078D01*
X141629203Y-77285326D01*
X141637421Y-77284694D01*
X141645638Y-77284062D01*
X141646012Y-77275528D01*
X141646386Y-77266995D01*
X141662706Y-77266995D01*
X141662706Y-77259030D01*
X141662940Y-77254453D01*
X141663556Y-77250980D01*
X141664223Y-77249548D01*
X141666249Y-77248720D01*
X141669893Y-77248169D01*
X141673072Y-77248031D01*
X141680405Y-77248031D01*
X141680405Y-77240698D01*
X141680653Y-77236446D01*
X141681293Y-77233143D01*
X141681922Y-77231849D01*
X141683952Y-77231017D01*
X141687593Y-77230466D01*
X141690714Y-77230332D01*
X141697989Y-77230332D01*
X141698737Y-77213264D01*
X141707214Y-77212892D01*
X141715691Y-77212519D01*
X141716064Y-77204042D01*
X141716436Y-77195565D01*
X141726182Y-77195196D01*
X141735927Y-77194828D01*
X141736296Y-77185082D01*
X141736664Y-77175337D01*
X141745141Y-77174964D01*
X141753618Y-77174592D01*
X141753991Y-77166114D01*
X141754364Y-77157637D01*
X141762897Y-77157263D01*
X141771431Y-77156890D01*
X141771431Y-77148865D01*
X141771560Y-77144251D01*
X141772277Y-77141427D01*
X141774081Y-77139953D01*
X141777468Y-77139392D01*
X141782280Y-77139306D01*
X141789130Y-77139306D01*
X141789130Y-77131973D01*
X141789378Y-77127721D01*
X141790018Y-77124417D01*
X141790647Y-77123123D01*
X141792703Y-77122296D01*
X141796485Y-77121752D01*
X141800129Y-77121606D01*
X141808094Y-77121606D01*
X141808094Y-77105171D01*
X141825678Y-77105171D01*
X141826052Y-77096637D01*
X141826426Y-77088104D01*
X141859816Y-77085874D01*
X141860560Y-77070404D01*
X141878260Y-77069140D01*
X141878636Y-77061238D01*
X141879013Y-77053337D01*
X141888360Y-77053337D01*
X141892992Y-77053177D01*
X141896574Y-77052756D01*
X141898413Y-77052159D01*
X141898488Y-77052073D01*
X141900057Y-77051442D01*
X141903432Y-77050989D01*
X141907894Y-77050809D01*
X141908044Y-77050808D01*
X141916819Y-77050808D01*
X141916819Y-77034373D01*
X141932898Y-77034373D01*
X141933801Y-77017763D01*
X141933960Y-77013467D01*
X141934102Y-77006923D01*
X141934223Y-76998414D01*
X141934324Y-76988221D01*
X141934394Y-76977482D01*
X142097607Y-76977482D01*
X142112778Y-76977482D01*
X142112778Y-76969857D01*
X142113047Y-76964869D01*
X142113835Y-76962134D01*
X142114358Y-76961679D01*
X142115936Y-76961541D01*
X142119759Y-76961385D01*
X142125545Y-76961217D01*
X142133012Y-76961043D01*
X142141876Y-76960870D01*
X142151855Y-76960705D01*
X142162666Y-76960553D01*
X142165244Y-76960521D01*
X142176332Y-76960384D01*
X142186760Y-76960255D01*
X142196226Y-76960137D01*
X142204428Y-76960034D01*
X142211066Y-76959950D01*
X142215835Y-76959888D01*
X142218436Y-76959852D01*
X142218659Y-76959849D01*
X142220377Y-76959787D01*
X142221587Y-76959426D01*
X142222345Y-76958402D01*
X142222710Y-76956353D01*
X142222738Y-76952918D01*
X142222488Y-76947733D01*
X142222017Y-76940437D01*
X142221938Y-76939239D01*
X142221122Y-76926912D01*
X142212716Y-76926912D01*
X142207905Y-76926687D01*
X142204313Y-76926084D01*
X142202792Y-76925395D01*
X142201964Y-76923368D01*
X142201413Y-76919725D01*
X142201275Y-76916545D01*
X142201275Y-76909213D01*
X142131741Y-76909213D01*
X142131741Y-76925648D01*
X142114042Y-76925648D01*
X142114042Y-76943347D01*
X142097607Y-76943347D01*
X142097607Y-76977482D01*
X141934394Y-76977482D01*
X141934400Y-76976625D01*
X141934452Y-76963907D01*
X141934476Y-76950349D01*
X141934471Y-76936232D01*
X141934440Y-76923260D01*
X141934408Y-76908994D01*
X141934409Y-76895123D01*
X141934441Y-76881914D01*
X141934502Y-76869637D01*
X141934589Y-76858561D01*
X141934701Y-76848954D01*
X141934835Y-76841085D01*
X141934990Y-76835222D01*
X141935152Y-76831777D01*
X141936128Y-76818187D01*
X141943517Y-76818187D01*
X141946688Y-76818168D01*
X141948971Y-76817871D01*
X141950521Y-76816940D01*
X141951493Y-76815014D01*
X141952042Y-76811735D01*
X141952324Y-76806745D01*
X141952493Y-76799685D01*
X141952540Y-76797327D01*
X141952850Y-76782156D01*
X141961068Y-76781524D01*
X141969286Y-76780891D01*
X141969658Y-76772414D01*
X141970031Y-76763937D01*
X141978508Y-76763565D01*
X141986985Y-76763192D01*
X141987356Y-76754808D01*
X141987726Y-76746424D01*
X142004739Y-76745513D01*
X142021752Y-76744601D01*
X142021752Y-76736649D01*
X142021918Y-76731940D01*
X142022494Y-76729227D01*
X142023599Y-76727994D01*
X142023752Y-76727928D01*
X142025713Y-76727643D01*
X142029664Y-76727406D01*
X142035066Y-76727239D01*
X142041380Y-76727163D01*
X142042655Y-76727161D01*
X142059559Y-76727161D01*
X142059935Y-76719259D01*
X142060311Y-76711358D01*
X142125420Y-76711262D01*
X142138627Y-76711255D01*
X142151559Y-76711272D01*
X142163899Y-76711309D01*
X142175330Y-76711366D01*
X142185537Y-76711441D01*
X142194201Y-76711531D01*
X142201007Y-76711634D01*
X142205638Y-76711749D01*
X142206016Y-76711763D01*
X142221503Y-76712359D01*
X142221503Y-76726779D01*
X142239519Y-76727918D01*
X142257534Y-76729057D01*
X142257911Y-76736959D01*
X142258287Y-76744860D01*
X142265709Y-76744860D01*
X142271109Y-76744958D01*
X142274466Y-76745522D01*
X142276265Y-76746958D01*
X142276992Y-76749671D01*
X142277130Y-76754069D01*
X142277130Y-76762444D01*
X142285664Y-76762818D01*
X142294197Y-76763192D01*
X142294571Y-76771726D01*
X142294945Y-76780259D01*
X142327700Y-76780259D01*
X142327700Y-76772927D01*
X142327948Y-76768674D01*
X142328588Y-76765371D01*
X142329217Y-76764077D01*
X142331247Y-76763245D01*
X142334888Y-76762694D01*
X142338006Y-76762560D01*
X142345279Y-76762560D01*
X142345655Y-76754658D01*
X142346031Y-76746757D01*
X142363731Y-76745493D01*
X142364105Y-76737685D01*
X142364479Y-76729878D01*
X142374219Y-76729168D01*
X142380807Y-76728682D01*
X142388162Y-76728132D01*
X142393757Y-76727709D01*
X142403555Y-76726961D01*
X142403555Y-76712294D01*
X142419042Y-76711638D01*
X142423049Y-76711525D01*
X142429318Y-76711425D01*
X142437583Y-76711338D01*
X142447579Y-76711265D01*
X142459040Y-76711208D01*
X142471698Y-76711168D01*
X142485289Y-76711147D01*
X142499546Y-76711145D01*
X142514203Y-76711164D01*
X142516705Y-76711170D01*
X142598881Y-76711358D01*
X142599257Y-76719259D01*
X142599634Y-76727161D01*
X142617213Y-76727161D01*
X142617213Y-76907564D01*
X142603741Y-76908388D01*
X142600136Y-76908531D01*
X142594256Y-76908666D01*
X142586354Y-76908791D01*
X142576684Y-76908903D01*
X142565500Y-76909002D01*
X142553054Y-76909084D01*
X142539601Y-76909148D01*
X142525394Y-76909191D01*
X142510686Y-76909211D01*
X142505820Y-76909213D01*
X142421370Y-76909213D01*
X142420996Y-76917746D01*
X142420622Y-76926280D01*
X142412088Y-76926654D01*
X142403555Y-76927028D01*
X142403555Y-76931833D01*
X142403464Y-76935321D01*
X142403221Y-76940407D01*
X142402874Y-76946166D01*
X142402745Y-76948048D01*
X142401935Y-76959458D01*
X142454895Y-76960568D01*
X142507855Y-76961679D01*
X142508227Y-76969392D01*
X142508598Y-76977105D01*
X142522014Y-76977925D01*
X142529179Y-76978292D01*
X142536912Y-76978575D01*
X142543939Y-76978730D01*
X142546417Y-76978746D01*
X142553213Y-76978850D01*
X142560980Y-76979124D01*
X142568172Y-76979512D01*
X142568977Y-76979568D01*
X142580549Y-76980389D01*
X142580549Y-76994821D01*
X142599197Y-76995949D01*
X142617845Y-76997078D01*
X142618221Y-77004979D01*
X142618597Y-77012881D01*
X142625174Y-77013044D01*
X142628836Y-77013156D01*
X142634361Y-77013352D01*
X142641086Y-77013606D01*
X142648349Y-77013895D01*
X142650715Y-77013992D01*
X142669679Y-77014777D01*
X142670943Y-77033741D01*
X142689535Y-77034866D01*
X142708127Y-77035992D01*
X142708871Y-77051440D01*
X142718036Y-77051812D01*
X142727202Y-77052183D01*
X142727202Y-77068249D01*
X142761228Y-77070071D01*
X142761599Y-77078455D01*
X142761969Y-77086839D01*
X142771135Y-77087211D01*
X142780301Y-77087582D01*
X142780301Y-77103566D01*
X142797052Y-77104685D01*
X142813803Y-77105803D01*
X142814177Y-77114337D01*
X142814551Y-77122870D01*
X142832019Y-77122870D01*
X142832767Y-77139938D01*
X142841244Y-77140310D01*
X142849721Y-77140683D01*
X142850094Y-77149160D01*
X142850466Y-77157637D01*
X142860208Y-77158006D01*
X142869949Y-77158374D01*
X142870322Y-77166855D01*
X142870694Y-77175337D01*
X142879176Y-77175709D01*
X142887657Y-77176082D01*
X142888025Y-77185823D01*
X142888394Y-77195565D01*
X142896871Y-77195937D01*
X142905348Y-77196310D01*
X142905721Y-77204787D01*
X142906093Y-77213264D01*
X142914570Y-77213637D01*
X142923048Y-77214009D01*
X142923420Y-77222486D01*
X142923793Y-77230964D01*
X142932270Y-77231336D01*
X142940747Y-77231709D01*
X142941120Y-77240186D01*
X142941492Y-77248663D01*
X142950026Y-77249037D01*
X142958559Y-77249411D01*
X142958559Y-77266995D01*
X142974995Y-77266995D01*
X142974995Y-77275138D01*
X142975177Y-77279453D01*
X142975654Y-77282689D01*
X142976259Y-77284062D01*
X142976911Y-77285642D01*
X142977368Y-77288994D01*
X142977523Y-77292986D01*
X142977523Y-77301129D01*
X142985606Y-77301129D01*
X142990143Y-77301244D01*
X142992968Y-77301909D01*
X142994486Y-77303610D01*
X142995103Y-77306829D01*
X142995222Y-77312051D01*
X142995223Y-77312611D01*
X142995223Y-77320093D01*
X143011395Y-77320093D01*
X143012309Y-77338372D01*
X143013223Y-77356652D01*
X143022238Y-77357020D01*
X143031254Y-77357388D01*
X143031581Y-77364342D01*
X143031905Y-77370077D01*
X143032442Y-77373747D01*
X143033523Y-77375812D01*
X143035478Y-77376735D01*
X143038634Y-77376976D01*
X143040620Y-77376984D01*
X143048042Y-77376984D01*
X143048904Y-77392471D01*
X143049321Y-77399960D01*
X143049721Y-77405292D01*
X143050277Y-77408834D01*
X143051160Y-77410948D01*
X143052544Y-77412002D01*
X143054601Y-77412359D01*
X143057504Y-77412386D01*
X143058317Y-77412383D01*
X143065614Y-77412383D01*
X143067099Y-77433559D01*
X143067598Y-77440936D01*
X143068023Y-77447713D01*
X143068345Y-77453365D01*
X143068531Y-77457366D01*
X143068566Y-77458844D01*
X143068549Y-77462953D01*
X143076060Y-77462953D01*
X143080186Y-77463132D01*
X143083198Y-77463596D01*
X143084280Y-77464101D01*
X143084529Y-77465657D01*
X143084821Y-77469350D01*
X143085134Y-77474790D01*
X143085447Y-77481588D01*
X143085737Y-77489352D01*
X143085818Y-77491859D01*
X143086647Y-77518470D01*
X143094349Y-77518841D01*
X143102052Y-77519212D01*
X143102829Y-77539440D01*
X143103112Y-77547004D01*
X143103373Y-77554293D01*
X143103589Y-77560656D01*
X143103737Y-77565444D01*
X143103777Y-77566937D01*
X143103948Y-77574207D01*
X143119008Y-77574207D01*
X143119444Y-77565041D01*
X143119483Y-77562960D01*
X143119521Y-77558431D01*
X143119558Y-77551534D01*
X143119594Y-77542350D01*
X143119628Y-77530957D01*
X143119661Y-77517437D01*
X143119694Y-77501869D01*
X143119725Y-77484335D01*
X143119755Y-77464914D01*
X143119784Y-77443686D01*
X143119811Y-77420731D01*
X143119838Y-77396131D01*
X143119863Y-77369964D01*
X143119887Y-77342311D01*
X143119910Y-77313253D01*
X143119932Y-77282869D01*
X143119953Y-77251240D01*
X143119972Y-77218446D01*
X143119991Y-77184567D01*
X143120008Y-77149684D01*
X143120024Y-77113876D01*
X143120038Y-77077224D01*
X143120052Y-77039808D01*
X143120064Y-77001708D01*
X143120075Y-76963004D01*
X143120085Y-76923777D01*
X143120094Y-76884107D01*
X143120101Y-76844074D01*
X143120107Y-76803758D01*
X143120112Y-76763239D01*
X143120116Y-76722598D01*
X143120118Y-76681915D01*
X143120119Y-76641269D01*
X143120119Y-76600742D01*
X143120118Y-76560414D01*
X143120115Y-76520364D01*
X143120111Y-76480673D01*
X143120106Y-76441420D01*
X143120099Y-76402687D01*
X143120091Y-76364554D01*
X143120082Y-76327100D01*
X143120072Y-76290406D01*
X143120060Y-76254552D01*
X143120047Y-76219618D01*
X143120033Y-76185685D01*
X143120017Y-76152832D01*
X143120000Y-76121140D01*
X143119982Y-76090690D01*
X143119962Y-76061560D01*
X143119941Y-76033832D01*
X143119919Y-76007586D01*
X143119896Y-75982901D01*
X143119871Y-75959859D01*
X143119844Y-75938538D01*
X143119816Y-75919021D01*
X143119787Y-75901386D01*
X143119757Y-75885713D01*
X143119725Y-75872084D01*
X143119692Y-75860579D01*
X143119657Y-75851276D01*
X143119621Y-75844258D01*
X143119584Y-75839603D01*
X143119549Y-75837502D01*
X143118721Y-75811956D01*
X143111018Y-75811585D01*
X143103316Y-75811214D01*
X143102052Y-75774550D01*
X143094286Y-75774177D01*
X143086521Y-75773805D01*
X143085662Y-75758374D01*
X143085247Y-75750897D01*
X143084847Y-75745576D01*
X143084286Y-75742045D01*
X143083388Y-75739939D01*
X143081975Y-75738893D01*
X143079870Y-75738540D01*
X143076897Y-75738517D01*
X143076049Y-75738519D01*
X143068549Y-75738519D01*
X143068549Y-75729744D01*
X143068379Y-75725260D01*
X143067933Y-75721839D01*
X143067306Y-75720202D01*
X143067285Y-75720188D01*
X143066630Y-75718607D01*
X143066173Y-75715257D01*
X143066021Y-75711324D01*
X143066021Y-75703241D01*
X143058119Y-75702865D01*
X143050217Y-75702488D01*
X143049585Y-75693638D01*
X143048953Y-75684789D01*
X143040103Y-75684157D01*
X143031254Y-75683525D01*
X143030877Y-75675623D01*
X143030501Y-75667721D01*
X143021964Y-75667721D01*
X143017085Y-75667499D01*
X143013459Y-75666900D01*
X143011911Y-75666204D01*
X143011082Y-75664178D01*
X143010531Y-75660534D01*
X143010394Y-75657355D01*
X143010394Y-75650022D01*
X143002251Y-75650022D01*
X142997935Y-75649839D01*
X142994700Y-75649363D01*
X142993326Y-75648758D01*
X142991746Y-75648103D01*
X142988396Y-75647646D01*
X142984462Y-75647493D01*
X142976380Y-75647493D01*
X142976003Y-75639592D01*
X142975627Y-75631690D01*
X142966461Y-75631319D01*
X142957295Y-75630947D01*
X142957295Y-75614623D01*
X142945601Y-75614617D01*
X142939076Y-75614532D01*
X142931270Y-75614309D01*
X142923420Y-75613988D01*
X142919684Y-75613792D01*
X142905461Y-75612972D01*
X142905461Y-75597326D01*
X142878708Y-75596492D01*
X142875389Y-75596429D01*
X142869677Y-75596367D01*
X142861672Y-75596309D01*
X142851476Y-75596253D01*
X142839189Y-75596199D01*
X142824911Y-75596149D01*
X142808742Y-75596100D01*
X142790784Y-75596055D01*
X142771136Y-75596012D01*
X142749900Y-75595971D01*
X142727175Y-75595933D01*
X142703063Y-75595898D01*
X142677663Y-75595866D01*
X142651076Y-75595835D01*
X142623403Y-75595808D01*
X142594745Y-75595783D01*
X142565201Y-75595761D01*
X142534872Y-75595741D01*
X142503859Y-75595724D01*
X142472262Y-75595710D01*
X142440182Y-75595698D01*
X142407719Y-75595689D01*
X142374974Y-75595682D01*
X142342047Y-75595678D01*
X142309038Y-75595676D01*
X142276049Y-75595677D01*
X142243179Y-75595681D01*
X142210530Y-75595688D01*
X142178201Y-75595697D01*
X142146294Y-75595708D01*
X142114908Y-75595722D01*
X142084145Y-75595739D01*
X142054104Y-75595758D01*
X142024886Y-75595780D01*
X141996592Y-75595805D01*
X141969322Y-75595832D01*
X141943177Y-75595862D01*
X141918257Y-75595895D01*
X141894663Y-75595930D01*
X141872495Y-75595967D01*
X141851854Y-75596008D01*
X141832839Y-75596050D01*
X141815553Y-75596096D01*
X141800095Y-75596144D01*
X141786565Y-75596195D01*
X141775065Y-75596248D01*
X141765694Y-75596304D01*
X141758553Y-75596363D01*
X141753743Y-75596424D01*
X141751401Y-75596486D01*
X141736032Y-75597312D01*
X141736032Y-75611717D01*
X141708851Y-75613359D01*
X141681669Y-75615000D01*
X141681669Y-75630774D01*
X141663970Y-75631690D01*
X141646270Y-75632607D01*
X141646270Y-75648758D01*
X141628686Y-75648758D01*
X141628313Y-75657291D01*
X141627939Y-75665825D01*
X141610239Y-75667089D01*
X141609863Y-75674991D01*
X141609487Y-75682892D01*
X141602214Y-75682892D01*
X141597978Y-75683142D01*
X141594692Y-75683787D01*
X141593425Y-75684409D01*
X141592598Y-75686465D01*
X141592054Y-75690247D01*
X141591908Y-75693891D01*
X141591908Y-75701856D01*
X141575473Y-75701856D01*
X141575473Y-75719449D01*
X141565675Y-75719818D01*
X141555877Y-75720188D01*
X141555509Y-75730618D01*
X141555142Y-75741048D01*
X141539226Y-75741048D01*
X141537746Y-75763488D01*
X141537265Y-75770950D01*
X141536850Y-75777693D01*
X141536528Y-75783246D01*
X141536328Y-75787139D01*
X141536273Y-75788773D01*
X141536065Y-75790365D01*
X141535035Y-75791218D01*
X141532589Y-75791560D01*
X141528837Y-75791618D01*
X141521394Y-75791618D01*
X141520641Y-75809001D01*
X141520285Y-75817279D01*
X141519874Y-75826879D01*
X141519460Y-75836595D01*
X141519104Y-75845032D01*
X141518319Y-75863680D01*
X141503410Y-75863680D01*
X141503410Y-77537544D01*
X141309981Y-77537544D01*
X141309981Y-75438893D01*
G37*
G36*
X142489524Y-78145623D02*
G01*
X142616580Y-78146279D01*
X142617226Y-78382061D01*
X142601162Y-78382061D01*
X142600337Y-78395532D01*
X142599965Y-78402965D01*
X142599680Y-78411211D01*
X142599527Y-78418874D01*
X142599513Y-78421392D01*
X142599513Y-78433780D01*
X142590979Y-78434154D01*
X142582446Y-78434527D01*
X142582074Y-78443693D01*
X142581703Y-78452859D01*
X142565494Y-78452859D01*
X142565120Y-78461393D01*
X142564746Y-78469926D01*
X142555897Y-78470558D01*
X142547047Y-78471191D01*
X142546415Y-78480672D01*
X142545783Y-78490154D01*
X142482254Y-78490482D01*
X142418726Y-78490810D01*
X142418726Y-78470558D01*
X142403555Y-78470558D01*
X142403555Y-78309999D01*
X142411005Y-78309999D01*
X142415268Y-78309867D01*
X142417913Y-78309147D01*
X142419325Y-78307352D01*
X142419888Y-78303997D01*
X142419990Y-78298670D01*
X142419990Y-78291340D01*
X142453754Y-78289532D01*
X142455362Y-78264683D01*
X142455886Y-78254332D01*
X142456269Y-78241844D01*
X142456505Y-78227606D01*
X142456589Y-78212004D01*
X142456513Y-78195426D01*
X142456496Y-78193688D01*
X142456021Y-78147543D01*
X142464871Y-78146911D01*
X142473720Y-78146279D01*
X142474097Y-78138377D01*
X142474473Y-78130476D01*
X142489524Y-78130476D01*
X142489524Y-78145623D01*
G37*
G36*
X142596538Y-75648120D02*
G01*
X142601093Y-75648291D01*
X142615948Y-75649037D01*
X142616225Y-75738659D01*
X142616272Y-75753736D01*
X142616317Y-75768257D01*
X142616360Y-75781995D01*
X142616401Y-75794724D01*
X142616437Y-75806215D01*
X142616470Y-75816241D01*
X142616498Y-75824575D01*
X142616519Y-75830989D01*
X142616535Y-75835257D01*
X142616541Y-75836815D01*
X142616580Y-75845348D01*
X142608363Y-75845980D01*
X142600145Y-75846612D01*
X142599775Y-75854997D01*
X142599404Y-75863381D01*
X142565378Y-75865203D01*
X142565378Y-75872584D01*
X142565224Y-75876651D01*
X142564825Y-75879577D01*
X142564402Y-75880569D01*
X142562850Y-75880846D01*
X142559253Y-75881196D01*
X142554091Y-75881579D01*
X142547847Y-75881958D01*
X142545439Y-75882085D01*
X142527451Y-75882998D01*
X142527451Y-75901496D01*
X142518285Y-75901868D01*
X142509119Y-75902239D01*
X142507855Y-75918675D01*
X142490472Y-75919780D01*
X142473088Y-75920885D01*
X142473088Y-75936701D01*
X142439068Y-75938523D01*
X142438695Y-75946298D01*
X142438322Y-75954074D01*
X142419358Y-75955338D01*
X142418985Y-75963100D01*
X142418612Y-75970863D01*
X142401918Y-75971950D01*
X142385223Y-75973037D01*
X142384845Y-75981002D01*
X142384395Y-75985648D01*
X142383624Y-75988627D01*
X142382949Y-75989452D01*
X142381184Y-75989688D01*
X142377403Y-75989998D01*
X142372117Y-75990345D01*
X142365836Y-75990693D01*
X142364047Y-75990782D01*
X142346664Y-75991628D01*
X142346664Y-76007499D01*
X142329653Y-76008410D01*
X142312643Y-76009321D01*
X142311897Y-76024871D01*
X142294513Y-76025977D01*
X142277130Y-76027082D01*
X142277130Y-76043092D01*
X142267964Y-76043464D01*
X142258798Y-76043835D01*
X142258060Y-76061963D01*
X142248947Y-76062710D01*
X142242690Y-76063226D01*
X142235884Y-76063793D01*
X142231301Y-76064179D01*
X142222767Y-76064903D01*
X142222767Y-76080807D01*
X142203804Y-76081721D01*
X142184840Y-76082636D01*
X142184840Y-76098525D01*
X142167773Y-76099439D01*
X142150705Y-76100353D01*
X142150705Y-76115265D01*
X142158848Y-76115265D01*
X142163164Y-76115448D01*
X142166399Y-76115924D01*
X142167773Y-76116529D01*
X142169365Y-76117208D01*
X142172687Y-76117667D01*
X142176004Y-76117794D01*
X142183455Y-76117794D01*
X142183831Y-76125695D01*
X142184208Y-76133597D01*
X142203804Y-76134335D01*
X142203804Y-76150358D01*
X142222135Y-76151275D01*
X142240467Y-76152191D01*
X142240467Y-76168079D01*
X142258166Y-76168996D01*
X142275866Y-76169912D01*
X142275866Y-76185748D01*
X142293249Y-76186854D01*
X142310633Y-76187959D01*
X142311897Y-76204395D01*
X142321063Y-76204766D01*
X142330228Y-76205137D01*
X142330228Y-76223676D01*
X142347612Y-76224781D01*
X142364995Y-76225887D01*
X142365368Y-76233638D01*
X142365740Y-76241390D01*
X142384015Y-76242303D01*
X142402290Y-76243217D01*
X142402290Y-76259026D01*
X142419674Y-76260156D01*
X142437057Y-76261286D01*
X142437689Y-76269503D01*
X142438322Y-76277721D01*
X142455016Y-76278808D01*
X142471711Y-76279896D01*
X142472083Y-76287658D01*
X142472456Y-76295420D01*
X142481938Y-76296053D01*
X142491420Y-76296685D01*
X142492166Y-76312235D01*
X142509176Y-76313146D01*
X142526187Y-76314057D01*
X142526187Y-76329827D01*
X142544834Y-76330955D01*
X142563482Y-76332084D01*
X142564114Y-76340301D01*
X142564746Y-76348519D01*
X142581498Y-76349610D01*
X142598249Y-76350700D01*
X142598249Y-76357890D01*
X142598502Y-76362105D01*
X142599153Y-76365367D01*
X142599766Y-76366598D01*
X142601793Y-76367426D01*
X142605436Y-76367977D01*
X142608616Y-76368115D01*
X142615948Y-76368115D01*
X142615955Y-76435436D01*
X142615964Y-76448699D01*
X142615988Y-76461555D01*
X142616025Y-76473716D01*
X142616074Y-76484890D01*
X142616133Y-76494787D01*
X142616201Y-76503117D01*
X142616275Y-76509588D01*
X142616355Y-76513911D01*
X142616381Y-76514767D01*
X142616487Y-76519746D01*
X142616539Y-76526654D01*
X142616538Y-76534894D01*
X142616484Y-76543867D01*
X142616377Y-76552974D01*
X142616350Y-76554720D01*
X142615901Y-76582661D01*
X142604352Y-76583481D01*
X142598428Y-76583858D01*
X142592762Y-76584143D01*
X142588326Y-76584291D01*
X142587309Y-76584301D01*
X142581814Y-76584301D01*
X142581814Y-76568150D01*
X142564114Y-76567234D01*
X142546415Y-76566317D01*
X142546415Y-76550359D01*
X142536617Y-76549660D01*
X142530316Y-76549187D01*
X142523564Y-76548644D01*
X142518338Y-76548194D01*
X142509858Y-76547427D01*
X142509489Y-76538366D01*
X142509119Y-76529306D01*
X142499638Y-76528674D01*
X142490156Y-76528042D01*
X142489783Y-76520267D01*
X142489409Y-76512492D01*
X142455389Y-76510670D01*
X142455389Y-76494824D01*
X142437689Y-76493907D01*
X142419990Y-76492991D01*
X142419990Y-76477047D01*
X142410824Y-76476299D01*
X142404579Y-76475785D01*
X142397805Y-76475220D01*
X142393182Y-76474830D01*
X142384706Y-76474108D01*
X142384333Y-76466308D01*
X142383959Y-76458508D01*
X142363099Y-76457774D01*
X142363099Y-76441756D01*
X142345715Y-76440650D01*
X142328332Y-76439545D01*
X142327959Y-76431770D01*
X142327586Y-76423994D01*
X142310575Y-76423083D01*
X142293565Y-76422172D01*
X142293565Y-76406357D01*
X142276182Y-76405251D01*
X142258798Y-76404146D01*
X142257534Y-76387710D01*
X142248368Y-76387339D01*
X142239203Y-76386968D01*
X142239203Y-76368374D01*
X142221819Y-76367528D01*
X142215351Y-76367183D01*
X142209735Y-76366828D01*
X142205482Y-76366498D01*
X142203107Y-76366230D01*
X142202855Y-76366174D01*
X142201835Y-76364551D01*
X142201328Y-76360598D01*
X142201275Y-76358170D01*
X142201275Y-76350674D01*
X142184208Y-76349760D01*
X142167140Y-76348846D01*
X142167140Y-76333030D01*
X142149757Y-76331925D01*
X142132374Y-76330819D01*
X142131741Y-76322602D01*
X142131109Y-76314384D01*
X142121944Y-76314013D01*
X142112778Y-76313641D01*
X142112778Y-76297631D01*
X142095394Y-76296526D01*
X142078011Y-76295420D01*
X142077639Y-76287706D01*
X142077268Y-76279991D01*
X142064997Y-76279179D01*
X142058862Y-76278814D01*
X142052929Y-76278533D01*
X142048155Y-76278377D01*
X142046721Y-76278360D01*
X142040716Y-76278353D01*
X142040716Y-76262202D01*
X142023071Y-76261289D01*
X142005426Y-76260375D01*
X142005055Y-76251981D01*
X142004685Y-76243586D01*
X141971295Y-76241412D01*
X141970923Y-76233649D01*
X141970550Y-76225887D01*
X141951586Y-76224623D01*
X141951215Y-76215457D01*
X141950843Y-76206291D01*
X141942681Y-76206291D01*
X141938480Y-76206156D01*
X141935475Y-76205805D01*
X141934352Y-76205343D01*
X141934263Y-76203598D01*
X141934181Y-76199576D01*
X141934105Y-76193526D01*
X141934036Y-76185700D01*
X141933975Y-76176347D01*
X141933922Y-76165719D01*
X141933876Y-76154067D01*
X141933839Y-76141640D01*
X141933810Y-76128690D01*
X141933790Y-76115467D01*
X141933780Y-76102221D01*
X141933779Y-76089204D01*
X141933789Y-76076665D01*
X141933808Y-76064856D01*
X141933838Y-76054028D01*
X141933879Y-76044430D01*
X141933931Y-76036313D01*
X141933995Y-76029928D01*
X141934070Y-76025526D01*
X141934120Y-76023977D01*
X141934837Y-76007912D01*
X141943212Y-76007542D01*
X141951586Y-76007172D01*
X141952218Y-75998954D01*
X141952850Y-75990737D01*
X141970234Y-75989631D01*
X141987617Y-75988526D01*
X141987617Y-75972710D01*
X142004628Y-75971799D01*
X142021638Y-75970888D01*
X142022384Y-75955338D01*
X142041348Y-75954074D01*
X142042092Y-75938604D01*
X142060051Y-75937489D01*
X142078011Y-75936374D01*
X142078643Y-75928156D01*
X142079275Y-75919939D01*
X142096659Y-75918809D01*
X142114042Y-75917679D01*
X142114042Y-75901912D01*
X142131057Y-75901001D01*
X142148071Y-75900090D01*
X142148440Y-75891050D01*
X142148809Y-75882011D01*
X142155762Y-75881684D01*
X142161497Y-75881360D01*
X142165167Y-75880823D01*
X142167233Y-75879742D01*
X142168156Y-75877788D01*
X142168396Y-75874632D01*
X142168405Y-75872648D01*
X142168405Y-75865229D01*
X142185156Y-75864138D01*
X142201907Y-75863048D01*
X142202285Y-75855083D01*
X142202736Y-75850437D01*
X142203507Y-75847458D01*
X142204182Y-75846633D01*
X142205947Y-75846397D01*
X142209727Y-75846087D01*
X142215013Y-75845740D01*
X142221294Y-75845392D01*
X142223083Y-75845303D01*
X142240467Y-75844457D01*
X142240467Y-75828586D01*
X142274487Y-75826764D01*
X142274860Y-75818989D01*
X142275234Y-75811214D01*
X142292617Y-75810108D01*
X142310000Y-75809003D01*
X142310000Y-75792988D01*
X142329596Y-75792250D01*
X142329970Y-75784454D01*
X142330344Y-75776657D01*
X142338820Y-75775900D01*
X142345006Y-75775356D01*
X142351834Y-75774766D01*
X142355829Y-75774427D01*
X142364363Y-75773711D01*
X142364363Y-75757807D01*
X142383327Y-75756892D01*
X142402290Y-75755978D01*
X142402290Y-75740088D01*
X142436320Y-75738266D01*
X142436688Y-75729227D01*
X142437057Y-75720188D01*
X142446539Y-75719556D01*
X142456021Y-75718923D01*
X142456395Y-75711127D01*
X142456768Y-75703331D01*
X142465244Y-75702574D01*
X142471431Y-75702029D01*
X142478259Y-75701440D01*
X142482254Y-75701101D01*
X142490788Y-75700384D01*
X142490788Y-75684441D01*
X142508487Y-75683525D01*
X142526187Y-75682608D01*
X142526187Y-75666457D01*
X142532192Y-75666451D01*
X142536189Y-75666361D01*
X142541749Y-75666127D01*
X142547916Y-75665793D01*
X142550468Y-75665631D01*
X142562739Y-75664819D01*
X142563111Y-75657104D01*
X142563482Y-75649390D01*
X142574860Y-75648467D01*
X142581096Y-75648147D01*
X142588705Y-75648028D01*
X142596538Y-75648120D01*
G37*
%TO.C,kibuzzard-61F9996D*%
G36*
X162380508Y-76671347D02*
G01*
X162401780Y-76744690D01*
X162372570Y-76825970D01*
X162344630Y-76838035D01*
X162307800Y-76841210D01*
X162260175Y-76815175D01*
X162236680Y-76740245D01*
X162262080Y-76669125D01*
X162316690Y-76646900D01*
X162380508Y-76671347D01*
G37*
G36*
X162245253Y-74440196D02*
G01*
X162323040Y-74464722D01*
X162369713Y-74505601D01*
X162385270Y-74562830D01*
X162369276Y-74618948D01*
X162321294Y-74659032D01*
X162241323Y-74683083D01*
X162129365Y-74691100D01*
X162017407Y-74683004D01*
X161937436Y-74658715D01*
X161889454Y-74618234D01*
X161873460Y-74561560D01*
X161889414Y-74504886D01*
X161937277Y-74464405D01*
X162017049Y-74440116D01*
X162128730Y-74432020D01*
X162136350Y-74432020D01*
X162245253Y-74440196D01*
G37*
G36*
X162084280Y-78868130D02*
G01*
X162112220Y-78943060D01*
X162112220Y-79103080D01*
X161887430Y-79103080D01*
X161887430Y-78944330D01*
X161916005Y-78868130D01*
X162000460Y-78831300D01*
X162084280Y-78868130D01*
G37*
G36*
X162130000Y-73762871D02*
G01*
X162717163Y-74154313D01*
X162717163Y-80485687D01*
X162130000Y-80877129D01*
X161542837Y-80485687D01*
X161542837Y-80319740D01*
X161663910Y-80319740D01*
X161672165Y-80384510D01*
X161696930Y-80418800D01*
X161730585Y-80430865D01*
X161774400Y-80432770D01*
X162479250Y-80432770D01*
X162524970Y-80430865D01*
X162557990Y-80418800D01*
X162583708Y-80385145D01*
X162592280Y-80322280D01*
X162583708Y-80257510D01*
X162557990Y-80223220D01*
X162525605Y-80211155D01*
X162481790Y-80209250D01*
X162053800Y-80209250D01*
X162085391Y-80185755D01*
X162164925Y-80127970D01*
X162250491Y-80065423D01*
X162300180Y-80027640D01*
X162314150Y-80017480D01*
X162340185Y-79983825D01*
X162353520Y-79931755D01*
X162338915Y-79878415D01*
X162316055Y-79847300D01*
X162286210Y-79824440D01*
X162248586Y-79796818D01*
X162178895Y-79746970D01*
X162104759Y-79693313D01*
X162053800Y-79654260D01*
X162479250Y-79654260D01*
X162545290Y-79647910D01*
X162570690Y-79630130D01*
X162585930Y-79597110D01*
X162592280Y-79538690D01*
X162584660Y-79477730D01*
X162551323Y-79441535D01*
X162481790Y-79429470D01*
X161776940Y-79429470D01*
X161732490Y-79431375D01*
X161698200Y-79443440D01*
X161672482Y-79476936D01*
X161663910Y-79541865D01*
X161672482Y-79607746D01*
X161698200Y-79644100D01*
X161742548Y-79678796D01*
X161802442Y-79724974D01*
X161877880Y-79782632D01*
X161968862Y-79851770D01*
X162075390Y-79932390D01*
X161696930Y-80220680D01*
X161689310Y-80228300D01*
X161672165Y-80260685D01*
X161663910Y-80319740D01*
X161542837Y-80319740D01*
X161542837Y-79214840D01*
X161662640Y-79214840D01*
X161671212Y-79280245D01*
X161696930Y-79313900D01*
X161730585Y-79325965D01*
X161774400Y-79327870D01*
X162479250Y-79327870D01*
X162545290Y-79320250D01*
X162580533Y-79286595D01*
X162592280Y-79216110D01*
X162583708Y-79150705D01*
X162557990Y-79117050D01*
X162524335Y-79104985D01*
X162480520Y-79103080D01*
X162337010Y-79103080D01*
X162337010Y-78944330D01*
X162327979Y-78869823D01*
X162300886Y-78797010D01*
X162255730Y-78725890D01*
X162209534Y-78678583D01*
X162149685Y-78640800D01*
X162079041Y-78616035D01*
X162000460Y-78607780D01*
X161921720Y-78616035D01*
X161850600Y-78640800D01*
X161790275Y-78678583D01*
X161743920Y-78725890D01*
X161698764Y-78796869D01*
X161671671Y-78869259D01*
X161662640Y-78943060D01*
X161662640Y-79214840D01*
X161542837Y-79214840D01*
X161542837Y-78412200D01*
X161661370Y-78412200D01*
X161668990Y-78476970D01*
X161695660Y-78511260D01*
X161729315Y-78523325D01*
X161774400Y-78525230D01*
X162156670Y-78525230D01*
X162239538Y-78518801D01*
X162317960Y-78499513D01*
X162391938Y-78467366D01*
X162461470Y-78422360D01*
X162521160Y-78365369D01*
X162568150Y-78293455D01*
X162598630Y-78209635D01*
X162608790Y-78116925D01*
X162598789Y-78024056D01*
X162568785Y-77939760D01*
X162522589Y-77867053D01*
X162464010Y-77808950D01*
X162393525Y-77763389D01*
X162319230Y-77730845D01*
X162241125Y-77711319D01*
X162159210Y-77704810D01*
X161775670Y-77704810D01*
X161709630Y-77712430D01*
X161682960Y-77728940D01*
X161667720Y-77761960D01*
X161661370Y-77819745D01*
X161668990Y-77880070D01*
X161696930Y-77916900D01*
X161766780Y-77929600D01*
X162155400Y-77929600D01*
X162240173Y-77941030D01*
X162314150Y-77975320D01*
X162365585Y-78032788D01*
X162382730Y-78113750D01*
X162361140Y-78203920D01*
X162303990Y-78261070D01*
X162232235Y-78289645D01*
X162156670Y-78299170D01*
X161775670Y-78299170D01*
X161695660Y-78314410D01*
X161668990Y-78347430D01*
X161661370Y-78412200D01*
X161542837Y-78412200D01*
X161542837Y-77529550D01*
X162216360Y-77529550D01*
X162227790Y-77590510D01*
X162258270Y-77614640D01*
X162315420Y-77622260D01*
X162373840Y-77615910D01*
X162406225Y-77587653D01*
X162417020Y-77530820D01*
X162417020Y-77228560D01*
X162405590Y-77165060D01*
X162374475Y-77142835D01*
X162316690Y-77135850D01*
X162258270Y-77143470D01*
X162226838Y-77170775D01*
X162216360Y-77227290D01*
X162216360Y-77529550D01*
X161542837Y-77529550D01*
X161542837Y-76558000D01*
X161662640Y-76558000D01*
X161669142Y-76649465D01*
X161688650Y-76732854D01*
X161721162Y-76808165D01*
X161766678Y-76875398D01*
X161825200Y-76934555D01*
X161893424Y-76984161D01*
X161968050Y-77022744D01*
X162049076Y-77050303D01*
X162136502Y-77066838D01*
X162230330Y-77072350D01*
X162335246Y-77063037D01*
X162426474Y-77035097D01*
X162504015Y-76988530D01*
X162562929Y-76923619D01*
X162598277Y-76840646D01*
X162610060Y-76739610D01*
X162600464Y-76656707D01*
X162571678Y-76582412D01*
X162523700Y-76516725D01*
X162461470Y-76465572D01*
X162389927Y-76434881D01*
X162309070Y-76424650D01*
X162241972Y-76434598D01*
X162179530Y-76464443D01*
X162121745Y-76514185D01*
X162075531Y-76577897D01*
X162047803Y-76649652D01*
X162038560Y-76729450D01*
X162060150Y-76823430D01*
X162042370Y-76817080D01*
X161997920Y-76793585D01*
X161948390Y-76748500D01*
X161905210Y-76671665D01*
X161887430Y-76570700D01*
X161879810Y-76497040D01*
X161863300Y-76471640D01*
X161830280Y-76456400D01*
X161771860Y-76450050D01*
X161710900Y-76457670D01*
X161674705Y-76487515D01*
X161662640Y-76558000D01*
X161542837Y-76558000D01*
X161542837Y-76006820D01*
X161648670Y-76006820D01*
X161657401Y-76089211D01*
X161683595Y-76161125D01*
X161722647Y-76220339D01*
X161769955Y-76264630D01*
X161831074Y-76299714D01*
X161911560Y-76331305D01*
X161975766Y-76347886D01*
X162048156Y-76357834D01*
X162128730Y-76361150D01*
X162217771Y-76357058D01*
X162300321Y-76344781D01*
X162376380Y-76324320D01*
X162440198Y-76296856D01*
X162494490Y-76262725D01*
X162540051Y-76217957D01*
X162577675Y-76158585D01*
X162602916Y-76086989D01*
X162611330Y-76005550D01*
X162603075Y-75924429D01*
X162578310Y-75853785D01*
X162540845Y-75795524D01*
X162494490Y-75751550D01*
X162421227Y-75708211D01*
X162336058Y-75677255D01*
X162238982Y-75658681D01*
X162130000Y-75652490D01*
X162046039Y-75656723D01*
X161965182Y-75669423D01*
X161887430Y-75690590D01*
X161823295Y-75717101D01*
X161768050Y-75750915D01*
X161721377Y-75795365D01*
X161682960Y-75853785D01*
X161657242Y-75924746D01*
X161648670Y-76006820D01*
X161542837Y-76006820D01*
X161542837Y-75422620D01*
X161660100Y-75422620D01*
X161672165Y-75474055D01*
X161699470Y-75507075D01*
X161733760Y-75525490D01*
X161760430Y-75534380D01*
X161813135Y-75541682D01*
X161956010Y-75561050D01*
X162101107Y-75580100D01*
X162160480Y-75586450D01*
X162191595Y-75572480D01*
X162230330Y-75513425D01*
X162254460Y-75433415D01*
X162225250Y-75364200D01*
X162202390Y-75303240D01*
X162227155Y-75235295D01*
X162294465Y-75205450D01*
X162361140Y-75232755D01*
X162385270Y-75316575D01*
X162358600Y-75395950D01*
X162317960Y-75481040D01*
X162359870Y-75554700D01*
X162442420Y-75601690D01*
X162518620Y-75553430D01*
X162527510Y-75543270D01*
X162551640Y-75511520D01*
X162584801Y-75445480D01*
X162604698Y-75374360D01*
X162611330Y-75298160D01*
X162600817Y-75212506D01*
X162569279Y-75136729D01*
X162516715Y-75070830D01*
X162449546Y-75020030D01*
X162374193Y-74989550D01*
X162290655Y-74979390D01*
X162207541Y-74990114D01*
X162133457Y-75022288D01*
X162068405Y-75075910D01*
X162017958Y-75142938D01*
X161987689Y-75215328D01*
X161977600Y-75293080D01*
X161980140Y-75337530D01*
X161883620Y-75324830D01*
X161883620Y-75102580D01*
X161881715Y-75061305D01*
X161869650Y-75030190D01*
X161838217Y-75006377D01*
X161776940Y-74998440D01*
X161709630Y-75007012D01*
X161675340Y-75032730D01*
X161663275Y-75065750D01*
X161661370Y-75110200D01*
X161661370Y-75229580D01*
X161660100Y-75422620D01*
X161542837Y-75422620D01*
X161542837Y-74561560D01*
X161648670Y-74561560D01*
X161657401Y-74643951D01*
X161683595Y-74715865D01*
X161722647Y-74775079D01*
X161769955Y-74819370D01*
X161831074Y-74854454D01*
X161911560Y-74886045D01*
X161975766Y-74902626D01*
X162048156Y-74912574D01*
X162128730Y-74915890D01*
X162217771Y-74911798D01*
X162300321Y-74899521D01*
X162376380Y-74879060D01*
X162440198Y-74851596D01*
X162494490Y-74817465D01*
X162540051Y-74772697D01*
X162577675Y-74713325D01*
X162602916Y-74641729D01*
X162611330Y-74560290D01*
X162603075Y-74479169D01*
X162578310Y-74408525D01*
X162540845Y-74350264D01*
X162494490Y-74306290D01*
X162421227Y-74262951D01*
X162336058Y-74231995D01*
X162238982Y-74213421D01*
X162130000Y-74207230D01*
X162046039Y-74211463D01*
X161965182Y-74224163D01*
X161887430Y-74245330D01*
X161823295Y-74271841D01*
X161768050Y-74305655D01*
X161721377Y-74350105D01*
X161682960Y-74408525D01*
X161657242Y-74479486D01*
X161648670Y-74561560D01*
X161542837Y-74561560D01*
X161542837Y-74154313D01*
X162130000Y-73762871D01*
G37*
G36*
X162245253Y-75885456D02*
G01*
X162323040Y-75909982D01*
X162369713Y-75950861D01*
X162385270Y-76008090D01*
X162369276Y-76064208D01*
X162321294Y-76104292D01*
X162241323Y-76128343D01*
X162129365Y-76136360D01*
X162017407Y-76128264D01*
X161937436Y-76103975D01*
X161889454Y-76063494D01*
X161873460Y-76006820D01*
X161889414Y-75950146D01*
X161937277Y-75909665D01*
X162017049Y-75885376D01*
X162128730Y-75877280D01*
X162136350Y-75877280D01*
X162245253Y-75885456D01*
G37*
%TD*%
M02*
