%TF.GenerationSoftware,KiCad,Pcbnew,6.0.1-79c1e3a40b~116~ubuntu20.04.1*%
%TF.CreationDate,2022-02-17T01:53:57+05:30*%
%TF.ProjectId,lsa,6c73612e-6b69-4636-9164-5f7063625858,rev?*%
%TF.SameCoordinates,Original*%
%TF.FileFunction,Copper,L2,Bot*%
%TF.FilePolarity,Positive*%
%FSLAX46Y46*%
G04 Gerber Fmt 4.6, Leading zero omitted, Abs format (unit mm)*
G04 Created by KiCad (PCBNEW 6.0.1-79c1e3a40b~116~ubuntu20.04.1) date 2022-02-17 01:53:57*
%MOMM*%
%LPD*%
G01*
G04 APERTURE LIST*
G04 Aperture macros list*
%AMRoundRect*
0 Rectangle with rounded corners*
0 $1 Rounding radius*
0 $2 $3 $4 $5 $6 $7 $8 $9 X,Y pos of 4 corners*
0 Add a 4 corners polygon primitive as box body*
4,1,4,$2,$3,$4,$5,$6,$7,$8,$9,$2,$3,0*
0 Add four circle primitives for the rounded corners*
1,1,$1+$1,$2,$3*
1,1,$1+$1,$4,$5*
1,1,$1+$1,$6,$7*
1,1,$1+$1,$8,$9*
0 Add four rect primitives between the rounded corners*
20,1,$1+$1,$2,$3,$4,$5,0*
20,1,$1+$1,$4,$5,$6,$7,0*
20,1,$1+$1,$6,$7,$8,$9,0*
20,1,$1+$1,$8,$9,$2,$3,0*%
G04 Aperture macros list end*
%TA.AperFunction,ComponentPad*%
%ADD10R,1.700000X1.700000*%
%TD*%
%TA.AperFunction,ComponentPad*%
%ADD11O,1.700000X1.700000*%
%TD*%
%TA.AperFunction,ComponentPad*%
%ADD12R,1.800000X1.800000*%
%TD*%
%TA.AperFunction,ComponentPad*%
%ADD13C,1.800000*%
%TD*%
%TA.AperFunction,SMDPad,CuDef*%
%ADD14RoundRect,0.250000X0.625000X-0.400000X0.625000X0.400000X-0.625000X0.400000X-0.625000X-0.400000X0*%
%TD*%
%TA.AperFunction,SMDPad,CuDef*%
%ADD15RoundRect,0.150000X0.825000X0.150000X-0.825000X0.150000X-0.825000X-0.150000X0.825000X-0.150000X0*%
%TD*%
%TA.AperFunction,SMDPad,CuDef*%
%ADD16C,0.500000*%
%TD*%
%TA.AperFunction,Conductor*%
%ADD17C,0.300000*%
%TD*%
%TA.AperFunction,Conductor*%
%ADD18C,0.600000*%
%TD*%
%TA.AperFunction,Conductor*%
%ADD19C,0.250000*%
%TD*%
G04 APERTURE END LIST*
D10*
%TO.P,J1,1,Pin_1*%
%TO.N,/A3_35*%
X109845000Y-73585000D03*
D11*
%TO.P,J1,2,Pin_2*%
%TO.N,/A2_34*%
X112385000Y-73585000D03*
%TO.P,J1,3,Pin_3*%
%TO.N,/A1_39*%
X114925000Y-73585000D03*
%TO.P,J1,4,Pin_4*%
%TO.N,/A0_36*%
X117465000Y-73585000D03*
%TO.P,J1,5,Pin_5*%
%TO.N,GND*%
X120005000Y-73585000D03*
%TO.P,J1,6,Pin_6*%
%TO.N,+3V3*%
X122545000Y-73585000D03*
%TD*%
D12*
%TO.P,D3,1,K*%
%TO.N,Net-(D3-Pad1)*%
X126325000Y-88220000D03*
D13*
%TO.P,D3,2,A*%
%TO.N,+3V3*%
X123785000Y-88220000D03*
%TD*%
%TO.P,D1,2,A*%
%TO.N,+3V3*%
X88285000Y-88220000D03*
D12*
%TO.P,D1,1,K*%
%TO.N,Net-(D1-Pad1)*%
X90825000Y-88220000D03*
%TD*%
%TO.P,D5,1,K*%
%TO.N,+3V3*%
X89540000Y-78445000D03*
D13*
%TO.P,D5,2,A*%
%TO.N,/LSA_A2*%
X89540000Y-80985000D03*
%TD*%
D12*
%TO.P,D7,1,K*%
%TO.N,+3V3*%
X125040000Y-78445000D03*
D13*
%TO.P,D7,2,A*%
%TO.N,/LSA_A0*%
X125040000Y-80985000D03*
%TD*%
%TO.P,D2,2,A*%
%TO.N,+3V3*%
X106035000Y-88220000D03*
D12*
%TO.P,D2,1,K*%
%TO.N,Net-(D2-Pad1)*%
X108575000Y-88220000D03*
%TD*%
D13*
%TO.P,D4,2,A*%
%TO.N,+3V3*%
X141535000Y-88220000D03*
D12*
%TO.P,D4,1,K*%
%TO.N,Net-(D4-Pad1)*%
X144075000Y-88220000D03*
%TD*%
%TO.P,D6,1,K*%
%TO.N,+3V3*%
X107290000Y-78445000D03*
D13*
%TO.P,D6,2,A*%
%TO.N,/LSA_A3*%
X107290000Y-80985000D03*
%TD*%
D12*
%TO.P,D8,1,K*%
%TO.N,+3V3*%
X142790000Y-78445000D03*
D13*
%TO.P,D8,2,A*%
%TO.N,/LSA_A1*%
X142790000Y-80985000D03*
%TD*%
D14*
%TO.P,R4,1*%
%TO.N,Net-(D4-Pad1)*%
X138380000Y-89760000D03*
%TO.P,R4,2*%
%TO.N,GND*%
X138380000Y-86660000D03*
%TD*%
%TO.P,R3,1*%
%TO.N,Net-(D3-Pad1)*%
X129450000Y-89760000D03*
%TO.P,R3,2*%
%TO.N,GND*%
X129450000Y-86660000D03*
%TD*%
%TO.P,R5,1*%
%TO.N,/LSA_A2*%
X93890000Y-81230000D03*
%TO.P,R5,2*%
%TO.N,GND*%
X93890000Y-78130000D03*
%TD*%
D15*
%TO.P,U1,14*%
%TO.N,/A3_35*%
X113700000Y-80270000D03*
%TO.P,U1,13,-*%
X113700000Y-81540000D03*
%TO.P,U1,12,+*%
%TO.N,/LSA_A3*%
X113700000Y-82810000D03*
%TO.P,U1,11,V-*%
%TO.N,GND*%
X113700000Y-84080000D03*
%TO.P,U1,10,+*%
%TO.N,/LSA_A2*%
X113700000Y-85350000D03*
%TO.P,U1,9,-*%
%TO.N,/A2_34*%
X113700000Y-86620000D03*
%TO.P,U1,8*%
X113700000Y-87890000D03*
%TO.P,U1,7*%
%TO.N,/A1_39*%
X118650000Y-87890000D03*
%TO.P,U1,6,-*%
X118650000Y-86620000D03*
%TO.P,U1,5,+*%
%TO.N,/LSA_A1*%
X118650000Y-85350000D03*
%TO.P,U1,4,V+*%
%TO.N,+3V3*%
X118650000Y-84080000D03*
%TO.P,U1,3,+*%
%TO.N,/LSA_A0*%
X118650000Y-82810000D03*
%TO.P,U1,2,-*%
%TO.N,/A0_36*%
X118650000Y-81540000D03*
%TO.P,U1,1*%
X118650000Y-80270000D03*
%TD*%
D16*
%TO.P,REF\u002A\u002A,*%
%TO.N,*%
X145440000Y-90610000D03*
%TD*%
D14*
%TO.P,R6,2*%
%TO.N,GND*%
X102915713Y-78130000D03*
%TO.P,R6,1*%
%TO.N,/LSA_A3*%
X102915713Y-81230000D03*
%TD*%
%TO.P,R8,1*%
%TO.N,/LSA_A1*%
X138360000Y-81250000D03*
%TO.P,R8,2*%
%TO.N,GND*%
X138360000Y-78150000D03*
%TD*%
%TO.P,R7,2*%
%TO.N,GND*%
X129400000Y-78150000D03*
%TO.P,R7,1*%
%TO.N,/LSA_A0*%
X129400000Y-81250000D03*
%TD*%
D16*
%TO.P,REF\u002A\u002A,*%
%TO.N,*%
X92550000Y-71850000D03*
%TD*%
D14*
%TO.P,R1,2*%
%TO.N,GND*%
X93940000Y-86640000D03*
%TO.P,R1,1*%
%TO.N,Net-(D1-Pad1)*%
X93940000Y-89740000D03*
%TD*%
%TO.P,R2,1*%
%TO.N,Net-(D2-Pad1)*%
X102920000Y-89750000D03*
%TO.P,R2,2*%
%TO.N,GND*%
X102920000Y-86650000D03*
%TD*%
D17*
%TO.N,/LSA_A2*%
X89540000Y-80985000D02*
X89785000Y-81230000D01*
X89785000Y-81230000D02*
X93890000Y-81230000D01*
D18*
%TO.N,GND*%
X93890000Y-78130000D02*
X92870000Y-79150000D01*
X92870000Y-79150000D02*
X92840000Y-79150000D01*
X92840000Y-79150000D02*
X92270000Y-79720000D01*
X92270000Y-79720000D02*
X91110000Y-79720000D01*
X93890000Y-78130000D02*
X93590000Y-78130000D01*
X93890000Y-78130000D02*
X93730000Y-78130000D01*
D17*
%TO.N,/LSA_A2*%
X93890000Y-81230000D02*
X93890000Y-81520000D01*
X93890000Y-81520000D02*
X96980000Y-84610000D01*
%TO.N,/LSA_A3*%
X107290000Y-80985000D02*
X107015000Y-81260000D01*
X102945713Y-81260000D02*
X102915713Y-81230000D01*
X107015000Y-81260000D02*
X102945713Y-81260000D01*
%TO.N,/LSA_A1*%
X118650000Y-85350000D02*
X120260000Y-85350000D01*
X120260000Y-85350000D02*
X120640000Y-84970000D01*
X120640000Y-84970000D02*
X132990000Y-84970000D01*
X132990000Y-84970000D02*
X136710000Y-81250000D01*
X136710000Y-81250000D02*
X138360000Y-81250000D01*
D18*
%TO.N,+3V3*%
X118650000Y-84080000D02*
X132130000Y-84080000D01*
X132130000Y-84080000D02*
X136580000Y-79630000D01*
X136580000Y-79630000D02*
X141605000Y-79630000D01*
X141605000Y-79630000D02*
X142790000Y-78445000D01*
D17*
%TO.N,/LSA_A0*%
X125040000Y-80985000D02*
X125325000Y-81270000D01*
X125325000Y-81270000D02*
X129380000Y-81270000D01*
X129380000Y-81270000D02*
X129400000Y-81250000D01*
D18*
%TO.N,GND*%
X129400000Y-78150000D02*
X129400000Y-78290000D01*
X129400000Y-78290000D02*
X127954511Y-79735489D01*
X127954511Y-79735489D02*
X127385489Y-79735489D01*
D17*
%TO.N,/LSA_A1*%
X138360000Y-81250000D02*
X142525000Y-81250000D01*
X142525000Y-81250000D02*
X142790000Y-80985000D01*
D18*
%TO.N,+3V3*%
X123785000Y-88220000D02*
X123785000Y-90365000D01*
X123785000Y-90365000D02*
X123050000Y-91100000D01*
X123050000Y-91100000D02*
X106830000Y-91100000D01*
X106830000Y-91100000D02*
X106035000Y-90305000D01*
D17*
%TO.N,/LSA_A2*%
X111420000Y-84610000D02*
X112160000Y-85350000D01*
X96980000Y-84610000D02*
X111420000Y-84610000D01*
X112160000Y-85350000D02*
X113700000Y-85350000D01*
%TO.N,Net-(D4-Pad1)*%
X138380000Y-89760000D02*
X142535000Y-89760000D01*
X142535000Y-89760000D02*
X144075000Y-88220000D01*
D18*
%TO.N,+3V3*%
X142790000Y-78445000D02*
X144675000Y-78445000D01*
X144675000Y-78445000D02*
X145720000Y-79490000D01*
X141535000Y-86815000D02*
X141535000Y-88220000D01*
X145720000Y-79490000D02*
X145720000Y-82630000D01*
X145720000Y-82630000D02*
X141535000Y-86815000D01*
%TO.N,GND*%
X88780000Y-85440000D02*
X92740000Y-85440000D01*
X92740000Y-85440000D02*
X93940000Y-86640000D01*
%TO.N,+3V3*%
X106035000Y-88220000D02*
X106035000Y-90305000D01*
X90010000Y-91080000D02*
X105260000Y-91080000D01*
X105260000Y-91080000D02*
X106035000Y-90305000D01*
D17*
%TO.N,/LSA_A1*%
X142790000Y-80985000D02*
X142455000Y-81320000D01*
%TO.N,Net-(D3-Pad1)*%
X126325000Y-88220000D02*
X127910000Y-88220000D01*
X127910000Y-88220000D02*
X129450000Y-89760000D01*
%TO.N,Net-(D2-Pad1)*%
X108575000Y-88220000D02*
X108575000Y-86685000D01*
X108575000Y-86685000D02*
X107930000Y-86040000D01*
X107930000Y-86040000D02*
X105110000Y-86040000D01*
X105110000Y-86040000D02*
X104380000Y-86770000D01*
X104380000Y-86770000D02*
X104380000Y-88290000D01*
X104380000Y-88290000D02*
X102920000Y-89750000D01*
%TO.N,Net-(D1-Pad1)*%
X90825000Y-88220000D02*
X92420000Y-88220000D01*
X92420000Y-88220000D02*
X93940000Y-89740000D01*
D18*
%TO.N,+3V3*%
X121300000Y-70680000D02*
X108670000Y-70680000D01*
X88285000Y-88220000D02*
X86340000Y-86275000D01*
X142790000Y-75970000D02*
X141070000Y-74250000D01*
X122545000Y-73585000D02*
X122545000Y-71925000D01*
X141070000Y-74250000D02*
X126870000Y-74250000D01*
X88285000Y-88220000D02*
X88285000Y-89355000D01*
X86340000Y-86275000D02*
X86340000Y-79650000D01*
X86340000Y-79650000D02*
X87545000Y-78445000D01*
X125040000Y-76080000D02*
X122545000Y-73585000D01*
X107290000Y-75910000D02*
X107290000Y-78445000D01*
X142790000Y-78445000D02*
X142790000Y-75970000D01*
X108670000Y-70680000D02*
X107290000Y-72060000D01*
X122545000Y-71925000D02*
X121300000Y-70680000D01*
X88285000Y-89355000D02*
X90010000Y-91080000D01*
X90790000Y-74150000D02*
X105530000Y-74150000D01*
X87545000Y-78445000D02*
X89540000Y-78445000D01*
X125040000Y-78445000D02*
X125040000Y-76080000D01*
X107290000Y-72060000D02*
X107290000Y-75910000D01*
X89540000Y-75400000D02*
X90790000Y-74150000D01*
X89540000Y-78445000D02*
X89540000Y-75400000D01*
X105530000Y-74150000D02*
X107290000Y-75910000D01*
X126870000Y-74250000D02*
X125040000Y-76080000D01*
D17*
%TO.N,/LSA_A0*%
X123215000Y-82810000D02*
X125040000Y-80985000D01*
X118650000Y-82810000D02*
X123215000Y-82810000D01*
%TO.N,/LSA_A3*%
X109115000Y-82810000D02*
X107290000Y-80985000D01*
X113700000Y-82810000D02*
X109115000Y-82810000D01*
%TO.N,/A3_35*%
X109845000Y-76415000D02*
X113700000Y-80270000D01*
D19*
X113700000Y-80270000D02*
X113700000Y-81540000D01*
D17*
X109845000Y-73585000D02*
X109845000Y-76415000D01*
%TO.N,/A2_34*%
X116510000Y-84940000D02*
X114830000Y-86620000D01*
X116510000Y-79120000D02*
X116510000Y-84940000D01*
X112385000Y-74995000D02*
X116510000Y-79120000D01*
X114830000Y-86620000D02*
X113700000Y-86620000D01*
X113700000Y-86620000D02*
X113700000Y-87890000D01*
X112385000Y-73585000D02*
X112385000Y-74995000D01*
%TO.N,/A1_39*%
X117770000Y-86620000D02*
X118650000Y-86620000D01*
X114925000Y-76348584D02*
X117009511Y-78433096D01*
X117009511Y-85859511D02*
X117770000Y-86620000D01*
X117009511Y-78433096D02*
X117009511Y-85859511D01*
X118650000Y-86620000D02*
X118650000Y-87890000D01*
X114925000Y-73585000D02*
X114925000Y-76348584D01*
%TO.N,/A0_36*%
X117465000Y-75575000D02*
X118650000Y-76760000D01*
X118650000Y-80270000D02*
X118650000Y-81540000D01*
X117465000Y-73585000D02*
X117465000Y-75575000D01*
X118650000Y-76760000D02*
X118650000Y-80270000D01*
%TO.N,GND*%
X111540000Y-75810000D02*
X111120000Y-75390000D01*
D18*
X122645489Y-79735489D02*
X122805489Y-79735489D01*
X111990000Y-71650000D02*
X111910000Y-71730000D01*
X87740000Y-80020000D02*
X88040000Y-79720000D01*
X120005000Y-73585000D02*
X120005000Y-77095000D01*
X113700000Y-84080000D02*
X115080000Y-84080000D01*
X87740000Y-84400000D02*
X87740000Y-80020000D01*
X118640000Y-71650000D02*
X111990000Y-71650000D01*
D17*
X88340000Y-79720000D02*
X91110000Y-79720000D01*
D18*
X115830000Y-83330000D02*
X115830000Y-80100000D01*
D17*
X111120000Y-75390000D02*
X111120000Y-72520000D01*
D18*
X120005000Y-77095000D02*
X122645489Y-79735489D01*
X120005000Y-73585000D02*
X120005000Y-73015000D01*
D17*
X111120000Y-72520000D02*
X111910000Y-71730000D01*
D18*
X115080000Y-84080000D02*
X115830000Y-83330000D01*
D17*
X127385489Y-79735489D02*
X122805489Y-79735489D01*
D18*
X115830000Y-80100000D02*
X111540000Y-75810000D01*
X88040000Y-79720000D02*
X88140489Y-79720000D01*
X120005000Y-73015000D02*
X118640000Y-71650000D01*
X88780000Y-85440000D02*
X87740000Y-84400000D01*
%TD*%
%TA.AperFunction,Conductor*%
%TO.N,GND*%
G36*
X116173485Y-69664330D02*
G01*
X145501908Y-69664659D01*
X145526488Y-69667080D01*
X145527168Y-69667215D01*
X145527170Y-69667215D01*
X145539340Y-69669636D01*
X145551510Y-69667216D01*
X145563921Y-69667216D01*
X145563921Y-69668071D01*
X145574636Y-69667438D01*
X145681465Y-69675845D01*
X145724370Y-69679222D01*
X145743899Y-69682315D01*
X145914736Y-69723330D01*
X145933538Y-69729440D01*
X146060242Y-69781922D01*
X146094255Y-69796010D01*
X146095848Y-69796670D01*
X146113466Y-69805647D01*
X146263269Y-69897447D01*
X146279257Y-69909062D01*
X146412082Y-70022505D01*
X146412855Y-70023165D01*
X146426833Y-70037143D01*
X146540938Y-70170743D01*
X146552553Y-70186731D01*
X146644353Y-70336534D01*
X146653330Y-70354152D01*
X146720560Y-70516462D01*
X146726670Y-70535264D01*
X146767685Y-70706101D01*
X146770778Y-70725630D01*
X146780820Y-70853223D01*
X146782562Y-70875362D01*
X146781929Y-70886079D01*
X146782784Y-70886079D01*
X146782784Y-70898490D01*
X146780364Y-70910660D01*
X146782919Y-70923504D01*
X146785340Y-70948085D01*
X146785340Y-90541915D01*
X146782919Y-90566493D01*
X146780364Y-90579340D01*
X146782784Y-90591510D01*
X146782784Y-90603921D01*
X146781929Y-90603921D01*
X146782562Y-90614636D01*
X146781723Y-90625298D01*
X146770778Y-90764370D01*
X146767685Y-90783899D01*
X146726670Y-90954736D01*
X146720560Y-90973538D01*
X146653330Y-91135848D01*
X146644353Y-91153466D01*
X146552553Y-91303269D01*
X146540938Y-91319257D01*
X146426835Y-91452855D01*
X146412857Y-91466833D01*
X146279257Y-91580938D01*
X146263269Y-91592553D01*
X146113466Y-91684353D01*
X146095850Y-91693329D01*
X146070112Y-91703990D01*
X145933538Y-91760560D01*
X145914736Y-91766670D01*
X145743899Y-91807685D01*
X145724370Y-91810778D01*
X145681465Y-91814155D01*
X145574636Y-91822562D01*
X145563921Y-91821929D01*
X145563921Y-91822784D01*
X145551510Y-91822784D01*
X145539340Y-91820364D01*
X145526460Y-91822926D01*
X145501905Y-91825346D01*
X126114759Y-91828866D01*
X123369285Y-91829364D01*
X123301161Y-91809374D01*
X123254658Y-91755727D01*
X123244541Y-91685455D01*
X123274023Y-91620869D01*
X123319221Y-91587727D01*
X123332063Y-91582170D01*
X123332067Y-91582168D01*
X123339946Y-91578758D01*
X123346767Y-91573235D01*
X123351775Y-91569179D01*
X123370363Y-91556688D01*
X123383715Y-91549348D01*
X123389245Y-91544574D01*
X123390140Y-91543802D01*
X123390147Y-91543796D01*
X123391891Y-91542290D01*
X123416634Y-91517547D01*
X123426435Y-91508721D01*
X123451338Y-91488556D01*
X123451341Y-91488553D01*
X123458013Y-91483150D01*
X123469038Y-91467636D01*
X123482645Y-91451536D01*
X124166413Y-90767768D01*
X124170221Y-90764115D01*
X124209948Y-90727584D01*
X124209949Y-90727583D01*
X124216266Y-90721774D01*
X124239381Y-90684494D01*
X124246104Y-90674712D01*
X124267438Y-90646605D01*
X124272630Y-90639765D01*
X124276475Y-90630053D01*
X124278237Y-90625604D01*
X124288300Y-90605598D01*
X124291794Y-90599963D01*
X124291798Y-90599954D01*
X124296323Y-90592656D01*
X124308565Y-90550520D01*
X124312409Y-90539293D01*
X124317870Y-90525500D01*
X124328556Y-90498510D01*
X124330148Y-90483367D01*
X124334459Y-90461394D01*
X124336867Y-90453104D01*
X124338709Y-90446765D01*
X124339500Y-90435993D01*
X124339500Y-90400995D01*
X124340190Y-90387824D01*
X124343539Y-90355963D01*
X124344437Y-90347419D01*
X124341263Y-90328654D01*
X124339500Y-90307652D01*
X124339500Y-89306624D01*
X124359502Y-89238503D01*
X124403935Y-89196689D01*
X124436679Y-89178352D01*
X124436684Y-89178349D01*
X124441717Y-89175530D01*
X124447632Y-89170611D01*
X124561680Y-89075758D01*
X124604852Y-89039852D01*
X124740530Y-88876717D01*
X124743354Y-88871674D01*
X124743357Y-88871670D01*
X124841383Y-88696632D01*
X124841384Y-88696630D01*
X124844207Y-88691589D01*
X124896432Y-88537737D01*
X124910554Y-88496136D01*
X124910555Y-88496131D01*
X124912410Y-88490667D01*
X124917201Y-88457622D01*
X124919805Y-88439667D01*
X124949376Y-88375121D01*
X125009148Y-88336809D01*
X125080144Y-88336895D01*
X125139824Y-88375350D01*
X125169240Y-88439966D01*
X125170501Y-88457743D01*
X125170501Y-89145066D01*
X125177612Y-89180818D01*
X125181563Y-89200682D01*
X125185266Y-89219301D01*
X125192161Y-89229620D01*
X125192162Y-89229622D01*
X125207992Y-89253313D01*
X125241516Y-89303484D01*
X125325699Y-89359734D01*
X125399933Y-89374500D01*
X126324850Y-89374500D01*
X127250066Y-89374499D01*
X127285818Y-89367388D01*
X127312126Y-89362156D01*
X127312128Y-89362155D01*
X127324301Y-89359734D01*
X127334621Y-89352839D01*
X127334622Y-89352838D01*
X127398168Y-89310377D01*
X127408484Y-89303484D01*
X127464734Y-89219301D01*
X127479500Y-89145067D01*
X127479500Y-88750500D01*
X127499502Y-88682379D01*
X127553158Y-88635886D01*
X127605500Y-88624500D01*
X127690260Y-88624500D01*
X127758381Y-88644502D01*
X127779355Y-88661405D01*
X128288561Y-89170611D01*
X128322587Y-89232923D01*
X128324729Y-89273313D01*
X128320869Y-89308845D01*
X128320500Y-89312244D01*
X128320500Y-90207756D01*
X128320869Y-90211152D01*
X128320869Y-90211153D01*
X128326323Y-90261353D01*
X128327202Y-90269448D01*
X128377929Y-90404764D01*
X128383309Y-90411943D01*
X128383311Y-90411946D01*
X128428461Y-90472189D01*
X128464596Y-90520404D01*
X128471776Y-90525785D01*
X128573054Y-90601689D01*
X128573057Y-90601691D01*
X128580236Y-90607071D01*
X128646151Y-90631781D01*
X128708157Y-90655026D01*
X128708159Y-90655026D01*
X128715552Y-90657798D01*
X128723402Y-90658651D01*
X128723403Y-90658651D01*
X128773847Y-90664131D01*
X128777244Y-90664500D01*
X130122756Y-90664500D01*
X130126153Y-90664131D01*
X130176597Y-90658651D01*
X130176598Y-90658651D01*
X130184448Y-90657798D01*
X130191841Y-90655026D01*
X130191843Y-90655026D01*
X130253849Y-90631781D01*
X130319764Y-90607071D01*
X130326943Y-90601691D01*
X130326946Y-90601689D01*
X130428224Y-90525785D01*
X130435404Y-90520404D01*
X130471539Y-90472189D01*
X130516689Y-90411946D01*
X130516691Y-90411943D01*
X130522071Y-90404764D01*
X130572798Y-90269448D01*
X130573678Y-90261353D01*
X130579131Y-90211153D01*
X130579131Y-90211152D01*
X130579500Y-90207756D01*
X130579500Y-89312244D01*
X130579131Y-89308845D01*
X130573651Y-89258403D01*
X130573651Y-89258402D01*
X130572798Y-89250552D01*
X130566777Y-89234489D01*
X130535529Y-89151137D01*
X130522071Y-89115236D01*
X130516691Y-89108057D01*
X130516689Y-89108054D01*
X130440785Y-89006776D01*
X130435404Y-88999596D01*
X130382738Y-88960125D01*
X130326946Y-88918311D01*
X130326943Y-88918309D01*
X130319764Y-88912929D01*
X130223167Y-88876717D01*
X130191843Y-88864974D01*
X130191841Y-88864974D01*
X130184448Y-88862202D01*
X130176598Y-88861349D01*
X130176597Y-88861349D01*
X130126153Y-88855869D01*
X130126152Y-88855869D01*
X130122756Y-88855500D01*
X129169740Y-88855500D01*
X129101619Y-88835498D01*
X129080645Y-88818595D01*
X128524236Y-88262186D01*
X132041018Y-88262186D01*
X132066579Y-88530100D01*
X132067664Y-88534534D01*
X132067665Y-88534540D01*
X132098709Y-88661405D01*
X132130547Y-88791518D01*
X132231583Y-89040963D01*
X132367569Y-89273210D01*
X132535658Y-89483395D01*
X132732327Y-89667113D01*
X132953457Y-89820516D01*
X133194416Y-89940391D01*
X133198750Y-89941812D01*
X133198753Y-89941813D01*
X133445823Y-90022807D01*
X133445829Y-90022808D01*
X133450156Y-90024227D01*
X133454647Y-90025007D01*
X133454648Y-90025007D01*
X133711538Y-90069611D01*
X133711546Y-90069612D01*
X133715319Y-90070267D01*
X133719156Y-90070458D01*
X133798777Y-90074422D01*
X133798785Y-90074422D01*
X133800348Y-90074500D01*
X133968374Y-90074500D01*
X133970642Y-90074335D01*
X133970654Y-90074335D01*
X134101457Y-90064844D01*
X134168425Y-90059985D01*
X134172880Y-90059001D01*
X134172883Y-90059001D01*
X134426770Y-90002947D01*
X134426772Y-90002946D01*
X134431226Y-90001963D01*
X134682900Y-89906613D01*
X134740344Y-89874706D01*
X134914179Y-89778149D01*
X134914180Y-89778148D01*
X134918172Y-89775931D01*
X134989318Y-89721634D01*
X135128491Y-89615421D01*
X135128495Y-89615417D01*
X135132116Y-89612654D01*
X135320249Y-89420203D01*
X135369282Y-89352839D01*
X135475942Y-89206304D01*
X135475947Y-89206297D01*
X135478630Y-89202610D01*
X135603941Y-88964433D01*
X135693557Y-88710662D01*
X135727640Y-88537737D01*
X135744720Y-88451083D01*
X135744721Y-88451077D01*
X135745601Y-88446611D01*
X135749125Y-88375826D01*
X135758755Y-88182383D01*
X135758755Y-88182377D01*
X135758982Y-88177814D01*
X135733421Y-87909900D01*
X135732071Y-87904380D01*
X135670539Y-87652920D01*
X135669453Y-87648482D01*
X135568417Y-87399037D01*
X135436945Y-87174500D01*
X135434741Y-87170735D01*
X135434740Y-87170734D01*
X135432431Y-87166790D01*
X135264342Y-86956605D01*
X135067673Y-86772887D01*
X134860952Y-86629480D01*
X134850291Y-86622084D01*
X134850290Y-86622084D01*
X134846543Y-86619484D01*
X134605584Y-86499609D01*
X134601250Y-86498188D01*
X134601247Y-86498187D01*
X134354177Y-86417193D01*
X134354171Y-86417192D01*
X134349844Y-86415773D01*
X134345352Y-86414993D01*
X134088462Y-86370389D01*
X134088454Y-86370388D01*
X134084681Y-86369733D01*
X134074718Y-86369237D01*
X134001223Y-86365578D01*
X134001215Y-86365578D01*
X133999652Y-86365500D01*
X133831626Y-86365500D01*
X133829358Y-86365665D01*
X133829346Y-86365665D01*
X133698543Y-86375156D01*
X133631575Y-86380015D01*
X133627120Y-86380999D01*
X133627117Y-86380999D01*
X133373230Y-86437053D01*
X133373228Y-86437054D01*
X133368774Y-86438037D01*
X133117100Y-86533387D01*
X133113114Y-86535601D01*
X133113112Y-86535602D01*
X132918958Y-86643445D01*
X132881828Y-86664069D01*
X132839333Y-86696500D01*
X132671509Y-86824579D01*
X132671505Y-86824583D01*
X132667884Y-86827346D01*
X132664699Y-86830604D01*
X132664698Y-86830605D01*
X132618175Y-86878196D01*
X132479751Y-87019797D01*
X132477066Y-87023486D01*
X132324058Y-87233696D01*
X132324053Y-87233703D01*
X132321370Y-87237390D01*
X132196059Y-87475567D01*
X132106443Y-87729338D01*
X132086504Y-87830502D01*
X132056117Y-87984675D01*
X132054399Y-87993389D01*
X132054172Y-87997942D01*
X132054172Y-87997945D01*
X132044991Y-88182383D01*
X132041018Y-88262186D01*
X128524236Y-88262186D01*
X128173515Y-87911465D01*
X128173511Y-87911462D01*
X128150723Y-87888674D01*
X128130844Y-87878545D01*
X128113989Y-87868216D01*
X128103953Y-87860925D01*
X128095929Y-87855095D01*
X128074704Y-87848199D01*
X128056438Y-87840633D01*
X128036555Y-87830502D01*
X128014513Y-87827011D01*
X127995287Y-87822395D01*
X127983500Y-87818565D01*
X127983498Y-87818565D01*
X127974066Y-87815500D01*
X127605499Y-87815500D01*
X127537378Y-87795498D01*
X127490885Y-87741842D01*
X127479499Y-87689500D01*
X127479499Y-87294934D01*
X127468920Y-87241746D01*
X127467156Y-87232874D01*
X127467155Y-87232872D01*
X127464734Y-87220699D01*
X127455199Y-87206428D01*
X127415377Y-87146832D01*
X127408484Y-87136516D01*
X127324301Y-87080266D01*
X127250067Y-87065500D01*
X126325150Y-87065500D01*
X125399934Y-87065501D01*
X125364182Y-87072612D01*
X125337874Y-87077844D01*
X125337872Y-87077845D01*
X125325699Y-87080266D01*
X125315379Y-87087161D01*
X125315378Y-87087162D01*
X125281687Y-87109674D01*
X125241516Y-87136516D01*
X125185266Y-87220699D01*
X125170500Y-87294933D01*
X125170500Y-87968125D01*
X125150498Y-88036246D01*
X125096842Y-88082739D01*
X125026568Y-88092843D01*
X124961988Y-88063349D01*
X124923231Y-88002326D01*
X124921996Y-87997945D01*
X124895912Y-87905460D01*
X124869005Y-87810053D01*
X124869003Y-87810047D01*
X124867436Y-87804492D01*
X124836541Y-87741842D01*
X124776145Y-87619372D01*
X124773590Y-87614191D01*
X124673292Y-87479875D01*
X124650089Y-87448803D01*
X124650088Y-87448802D01*
X124646636Y-87444179D01*
X124622524Y-87421890D01*
X124495066Y-87304069D01*
X124495063Y-87304067D01*
X124490826Y-87300150D01*
X124311377Y-87186926D01*
X124114300Y-87108300D01*
X124108643Y-87107175D01*
X124108637Y-87107173D01*
X123911863Y-87068033D01*
X123911859Y-87068033D01*
X123906195Y-87066906D01*
X123900420Y-87066830D01*
X123900416Y-87066830D01*
X123793804Y-87065434D01*
X123694031Y-87064128D01*
X123688334Y-87065107D01*
X123688333Y-87065107D01*
X123490610Y-87099082D01*
X123484913Y-87100061D01*
X123285846Y-87173501D01*
X123280885Y-87176453D01*
X123280884Y-87176453D01*
X123108463Y-87279032D01*
X123108460Y-87279034D01*
X123103495Y-87281988D01*
X123099155Y-87285794D01*
X123099151Y-87285797D01*
X123025370Y-87350502D01*
X122943968Y-87421890D01*
X122812607Y-87588520D01*
X122713812Y-87776299D01*
X122690297Y-87852030D01*
X122654249Y-87968125D01*
X122650891Y-87978938D01*
X122625951Y-88189649D01*
X122639829Y-88401377D01*
X122692058Y-88607031D01*
X122694477Y-88612278D01*
X122775062Y-88787080D01*
X122780890Y-88799723D01*
X122903350Y-88973000D01*
X122920386Y-88989596D01*
X123049360Y-89115236D01*
X123055337Y-89121059D01*
X123060131Y-89124262D01*
X123060136Y-89124266D01*
X123099565Y-89150611D01*
X123174503Y-89200683D01*
X123220029Y-89255158D01*
X123230500Y-89305447D01*
X123230500Y-90083129D01*
X123210498Y-90151250D01*
X123193595Y-90172224D01*
X122857224Y-90508595D01*
X122794912Y-90542621D01*
X122768129Y-90545500D01*
X107111871Y-90545500D01*
X107043750Y-90525498D01*
X107022776Y-90508595D01*
X106626405Y-90112224D01*
X106592379Y-90049912D01*
X106589500Y-90023129D01*
X106589500Y-89306624D01*
X106609502Y-89238503D01*
X106653935Y-89196689D01*
X106686679Y-89178352D01*
X106686684Y-89178349D01*
X106691717Y-89175530D01*
X106697632Y-89170611D01*
X106811680Y-89075758D01*
X106854852Y-89039852D01*
X106990530Y-88876717D01*
X106993354Y-88871674D01*
X106993357Y-88871670D01*
X107091383Y-88696632D01*
X107091384Y-88696630D01*
X107094207Y-88691589D01*
X107146432Y-88537737D01*
X107160554Y-88496136D01*
X107160555Y-88496131D01*
X107162410Y-88490667D01*
X107167201Y-88457622D01*
X107169805Y-88439667D01*
X107199376Y-88375121D01*
X107259148Y-88336809D01*
X107330144Y-88336895D01*
X107389824Y-88375350D01*
X107419240Y-88439966D01*
X107420501Y-88457743D01*
X107420501Y-89145066D01*
X107427612Y-89180818D01*
X107431563Y-89200682D01*
X107435266Y-89219301D01*
X107442161Y-89229620D01*
X107442162Y-89229622D01*
X107457992Y-89253313D01*
X107491516Y-89303484D01*
X107575699Y-89359734D01*
X107649933Y-89374500D01*
X108574850Y-89374500D01*
X109500066Y-89374499D01*
X109535818Y-89367388D01*
X109562126Y-89362156D01*
X109562128Y-89362155D01*
X109574301Y-89359734D01*
X109584621Y-89352839D01*
X109584622Y-89352838D01*
X109648168Y-89310377D01*
X109658484Y-89303484D01*
X109714734Y-89219301D01*
X109729500Y-89145067D01*
X109729499Y-87294934D01*
X109718920Y-87241746D01*
X109717156Y-87232874D01*
X109717155Y-87232872D01*
X109714734Y-87220699D01*
X109705199Y-87206428D01*
X109665377Y-87146832D01*
X109658484Y-87136516D01*
X109574301Y-87080266D01*
X109500067Y-87065500D01*
X109105500Y-87065500D01*
X109037379Y-87045498D01*
X108990886Y-86991842D01*
X108979500Y-86939500D01*
X108979500Y-86620934D01*
X108972605Y-86599713D01*
X108967989Y-86580487D01*
X108966049Y-86568238D01*
X108964498Y-86558445D01*
X108954366Y-86538561D01*
X108946801Y-86520295D01*
X108942969Y-86508502D01*
X108939905Y-86499071D01*
X108926784Y-86481013D01*
X108916455Y-86464157D01*
X108910826Y-86453109D01*
X108906326Y-86444277D01*
X108815723Y-86353674D01*
X108193515Y-85731465D01*
X108193511Y-85731462D01*
X108170723Y-85708674D01*
X108150844Y-85698545D01*
X108133989Y-85688216D01*
X108123953Y-85680925D01*
X108115929Y-85675095D01*
X108094704Y-85668199D01*
X108076438Y-85660633D01*
X108072334Y-85658542D01*
X108056555Y-85650502D01*
X108034513Y-85647011D01*
X108015287Y-85642395D01*
X108003500Y-85638565D01*
X108003498Y-85638565D01*
X107994066Y-85635500D01*
X105045934Y-85635500D01*
X105036502Y-85638565D01*
X105036500Y-85638565D01*
X105024713Y-85642395D01*
X105005487Y-85647011D01*
X104983445Y-85650502D01*
X104967666Y-85658542D01*
X104963562Y-85660633D01*
X104945296Y-85668199D01*
X104924071Y-85675095D01*
X104916047Y-85680925D01*
X104906011Y-85688216D01*
X104889156Y-85698545D01*
X104869277Y-85708674D01*
X104846489Y-85731462D01*
X104846485Y-85731465D01*
X104071465Y-86506485D01*
X104071462Y-86506489D01*
X104048674Y-86529277D01*
X104039022Y-86548219D01*
X104038546Y-86549154D01*
X104028216Y-86566011D01*
X104015095Y-86584071D01*
X104012030Y-86593504D01*
X104008199Y-86605295D01*
X104000634Y-86623561D01*
X103990502Y-86643445D01*
X103988951Y-86653238D01*
X103987011Y-86665487D01*
X103982395Y-86684713D01*
X103979367Y-86694034D01*
X103975500Y-86705934D01*
X103975500Y-88070260D01*
X103955498Y-88138381D01*
X103938595Y-88159355D01*
X103289355Y-88808595D01*
X103227043Y-88842621D01*
X103200260Y-88845500D01*
X102247244Y-88845500D01*
X102243848Y-88845869D01*
X102243847Y-88845869D01*
X102193403Y-88851349D01*
X102193402Y-88851349D01*
X102185552Y-88852202D01*
X102178159Y-88854974D01*
X102178157Y-88854974D01*
X102151482Y-88864974D01*
X102050236Y-88902929D01*
X102043057Y-88908309D01*
X102043054Y-88908311D01*
X101973919Y-88960125D01*
X101934596Y-88989596D01*
X101921720Y-89006776D01*
X101853311Y-89098054D01*
X101853309Y-89098057D01*
X101847929Y-89105236D01*
X101820199Y-89179207D01*
X101805169Y-89219301D01*
X101797202Y-89240552D01*
X101790500Y-89302244D01*
X101790500Y-90197756D01*
X101797202Y-90259448D01*
X101799974Y-90266841D01*
X101799974Y-90266843D01*
X101833124Y-90355271D01*
X101838307Y-90426078D01*
X101804386Y-90488447D01*
X101742130Y-90522576D01*
X101715142Y-90525500D01*
X95141109Y-90525500D01*
X95072988Y-90505498D01*
X95026495Y-90451842D01*
X95016391Y-90381568D01*
X95023127Y-90355271D01*
X95029245Y-90338953D01*
X95053523Y-90274190D01*
X95060026Y-90256843D01*
X95060026Y-90256841D01*
X95062798Y-90249448D01*
X95067699Y-90204339D01*
X95069131Y-90191153D01*
X95069131Y-90191152D01*
X95069500Y-90187756D01*
X95069500Y-89292244D01*
X95062798Y-89230552D01*
X95012071Y-89095236D01*
X95006691Y-89088057D01*
X95006689Y-89088054D01*
X94936360Y-88994215D01*
X94925404Y-88979596D01*
X94899424Y-88960125D01*
X94816946Y-88898311D01*
X94816943Y-88898309D01*
X94809764Y-88892929D01*
X94708518Y-88854974D01*
X94681843Y-88844974D01*
X94681841Y-88844974D01*
X94674448Y-88842202D01*
X94666598Y-88841349D01*
X94666597Y-88841349D01*
X94616153Y-88835869D01*
X94616152Y-88835869D01*
X94612756Y-88835500D01*
X93659740Y-88835500D01*
X93591619Y-88815498D01*
X93570644Y-88798595D01*
X93143376Y-88371326D01*
X93034236Y-88262186D01*
X96601018Y-88262186D01*
X96626579Y-88530100D01*
X96627664Y-88534534D01*
X96627665Y-88534540D01*
X96658709Y-88661405D01*
X96690547Y-88791518D01*
X96791583Y-89040963D01*
X96927569Y-89273210D01*
X97095658Y-89483395D01*
X97292327Y-89667113D01*
X97513457Y-89820516D01*
X97754416Y-89940391D01*
X97758750Y-89941812D01*
X97758753Y-89941813D01*
X98005823Y-90022807D01*
X98005829Y-90022808D01*
X98010156Y-90024227D01*
X98014647Y-90025007D01*
X98014648Y-90025007D01*
X98271538Y-90069611D01*
X98271546Y-90069612D01*
X98275319Y-90070267D01*
X98279156Y-90070458D01*
X98358777Y-90074422D01*
X98358785Y-90074422D01*
X98360348Y-90074500D01*
X98528374Y-90074500D01*
X98530642Y-90074335D01*
X98530654Y-90074335D01*
X98661457Y-90064844D01*
X98728425Y-90059985D01*
X98732880Y-90059001D01*
X98732883Y-90059001D01*
X98986770Y-90002947D01*
X98986772Y-90002946D01*
X98991226Y-90001963D01*
X99242900Y-89906613D01*
X99300344Y-89874706D01*
X99474179Y-89778149D01*
X99474180Y-89778148D01*
X99478172Y-89775931D01*
X99549318Y-89721634D01*
X99688491Y-89615421D01*
X99688495Y-89615417D01*
X99692116Y-89612654D01*
X99880249Y-89420203D01*
X99929282Y-89352839D01*
X100035942Y-89206304D01*
X100035947Y-89206297D01*
X100038630Y-89202610D01*
X100163941Y-88964433D01*
X100253557Y-88710662D01*
X100287640Y-88537737D01*
X100304720Y-88451083D01*
X100304721Y-88451077D01*
X100305601Y-88446611D01*
X100309125Y-88375826D01*
X100318755Y-88182383D01*
X100318755Y-88182377D01*
X100318982Y-88177814D01*
X100293421Y-87909900D01*
X100292071Y-87904380D01*
X100230539Y-87652920D01*
X100229453Y-87648482D01*
X100128417Y-87399037D01*
X99996945Y-87174500D01*
X99994741Y-87170735D01*
X99994740Y-87170734D01*
X99992431Y-87166790D01*
X99824342Y-86956605D01*
X99627673Y-86772887D01*
X99420952Y-86629480D01*
X99410291Y-86622084D01*
X99410290Y-86622084D01*
X99406543Y-86619484D01*
X99165584Y-86499609D01*
X99161250Y-86498188D01*
X99161247Y-86498187D01*
X98914177Y-86417193D01*
X98914171Y-86417192D01*
X98909844Y-86415773D01*
X98905352Y-86414993D01*
X98648462Y-86370389D01*
X98648454Y-86370388D01*
X98644681Y-86369733D01*
X98634718Y-86369237D01*
X98561223Y-86365578D01*
X98561215Y-86365578D01*
X98559652Y-86365500D01*
X98391626Y-86365500D01*
X98389358Y-86365665D01*
X98389346Y-86365665D01*
X98258543Y-86375156D01*
X98191575Y-86380015D01*
X98187120Y-86380999D01*
X98187117Y-86380999D01*
X97933230Y-86437053D01*
X97933228Y-86437054D01*
X97928774Y-86438037D01*
X97677100Y-86533387D01*
X97673114Y-86535601D01*
X97673112Y-86535602D01*
X97478958Y-86643445D01*
X97441828Y-86664069D01*
X97399333Y-86696500D01*
X97231509Y-86824579D01*
X97231505Y-86824583D01*
X97227884Y-86827346D01*
X97224699Y-86830604D01*
X97224698Y-86830605D01*
X97178175Y-86878196D01*
X97039751Y-87019797D01*
X97037066Y-87023486D01*
X96884058Y-87233696D01*
X96884053Y-87233703D01*
X96881370Y-87237390D01*
X96756059Y-87475567D01*
X96666443Y-87729338D01*
X96646504Y-87830502D01*
X96616117Y-87984675D01*
X96614399Y-87993389D01*
X96614172Y-87997942D01*
X96614172Y-87997945D01*
X96604991Y-88182383D01*
X96601018Y-88262186D01*
X93034236Y-88262186D01*
X92683515Y-87911465D01*
X92683501Y-87911452D01*
X92660723Y-87888674D01*
X92640844Y-87878545D01*
X92623989Y-87868216D01*
X92613953Y-87860925D01*
X92605929Y-87855095D01*
X92584704Y-87848199D01*
X92566438Y-87840633D01*
X92546555Y-87830502D01*
X92524513Y-87827011D01*
X92505287Y-87822395D01*
X92493500Y-87818565D01*
X92493498Y-87818565D01*
X92484066Y-87815500D01*
X92105499Y-87815500D01*
X92037378Y-87795498D01*
X91990885Y-87741842D01*
X91979499Y-87689500D01*
X91979499Y-87294934D01*
X91968920Y-87241746D01*
X91967156Y-87232874D01*
X91967155Y-87232872D01*
X91964734Y-87220699D01*
X91955199Y-87206428D01*
X91915377Y-87146832D01*
X91908484Y-87136516D01*
X91824301Y-87080266D01*
X91750067Y-87065500D01*
X90825150Y-87065500D01*
X89899934Y-87065501D01*
X89864182Y-87072612D01*
X89837874Y-87077844D01*
X89837872Y-87077845D01*
X89825699Y-87080266D01*
X89815379Y-87087161D01*
X89815378Y-87087162D01*
X89781687Y-87109674D01*
X89741516Y-87136516D01*
X89685266Y-87220699D01*
X89670500Y-87294933D01*
X89670500Y-87968125D01*
X89650498Y-88036246D01*
X89596842Y-88082739D01*
X89526568Y-88092843D01*
X89461988Y-88063349D01*
X89423231Y-88002326D01*
X89421996Y-87997945D01*
X89395912Y-87905460D01*
X89369005Y-87810053D01*
X89369003Y-87810047D01*
X89367436Y-87804492D01*
X89336541Y-87741842D01*
X89276145Y-87619372D01*
X89273590Y-87614191D01*
X89173292Y-87479875D01*
X89150089Y-87448803D01*
X89150088Y-87448802D01*
X89146636Y-87444179D01*
X89122524Y-87421890D01*
X88995066Y-87304069D01*
X88995063Y-87304067D01*
X88990826Y-87300150D01*
X88811377Y-87186926D01*
X88614300Y-87108300D01*
X88608643Y-87107175D01*
X88608637Y-87107173D01*
X88411863Y-87068033D01*
X88411859Y-87068033D01*
X88406195Y-87066906D01*
X88400420Y-87066830D01*
X88400416Y-87066830D01*
X88293804Y-87065434D01*
X88194031Y-87064128D01*
X88188334Y-87065107D01*
X88188333Y-87065107D01*
X88018772Y-87094243D01*
X87948248Y-87086066D01*
X87908339Y-87059158D01*
X86931405Y-86082224D01*
X86897379Y-86019912D01*
X86894500Y-85993129D01*
X86894500Y-79931872D01*
X86914502Y-79863751D01*
X86931405Y-79842776D01*
X87737778Y-79036404D01*
X87800090Y-79002379D01*
X87826873Y-78999500D01*
X88259501Y-78999500D01*
X88327622Y-79019502D01*
X88374115Y-79073158D01*
X88385501Y-79125500D01*
X88385501Y-79370066D01*
X88389346Y-79389396D01*
X88394446Y-79415037D01*
X88400266Y-79444301D01*
X88456516Y-79528484D01*
X88540699Y-79584734D01*
X88614933Y-79599500D01*
X89308089Y-79599500D01*
X89376210Y-79619502D01*
X89422703Y-79673158D01*
X89432807Y-79743432D01*
X89403313Y-79808012D01*
X89343587Y-79846396D01*
X89329432Y-79849679D01*
X89262858Y-79861118D01*
X89247537Y-79863751D01*
X89239913Y-79865061D01*
X89040846Y-79938501D01*
X89035885Y-79941453D01*
X89035884Y-79941453D01*
X88863463Y-80044032D01*
X88863460Y-80044034D01*
X88858495Y-80046988D01*
X88854155Y-80050794D01*
X88854151Y-80050797D01*
X88788060Y-80108758D01*
X88698968Y-80186890D01*
X88695393Y-80191425D01*
X88695392Y-80191426D01*
X88573639Y-80345869D01*
X88567607Y-80353520D01*
X88468812Y-80541299D01*
X88467100Y-80546813D01*
X88413153Y-80720552D01*
X88405891Y-80743938D01*
X88380951Y-80954649D01*
X88394829Y-81166377D01*
X88447058Y-81372031D01*
X88535890Y-81564723D01*
X88658350Y-81738000D01*
X88810337Y-81886059D01*
X88815133Y-81889264D01*
X88815136Y-81889266D01*
X88917696Y-81957794D01*
X88986760Y-82003941D01*
X88992063Y-82006219D01*
X88992066Y-82006221D01*
X89176404Y-82085419D01*
X89181711Y-82087699D01*
X89237051Y-82100221D01*
X89383025Y-82133252D01*
X89383030Y-82133253D01*
X89388662Y-82134527D01*
X89394433Y-82134754D01*
X89394435Y-82134754D01*
X89459911Y-82137326D01*
X89600681Y-82142857D01*
X89705674Y-82127634D01*
X89804953Y-82113239D01*
X89804958Y-82113238D01*
X89810667Y-82112410D01*
X89816131Y-82110555D01*
X89816136Y-82110554D01*
X89929524Y-82072064D01*
X90011589Y-82044207D01*
X90021569Y-82038618D01*
X90191670Y-81943357D01*
X90191674Y-81943354D01*
X90196717Y-81940530D01*
X90359852Y-81804852D01*
X90420778Y-81731597D01*
X90463748Y-81679931D01*
X90522686Y-81640347D01*
X90560622Y-81634500D01*
X92643709Y-81634500D01*
X92711830Y-81654502D01*
X92758323Y-81708158D01*
X92766291Y-81731353D01*
X92766349Y-81731597D01*
X92767202Y-81739448D01*
X92769974Y-81746841D01*
X92769974Y-81746843D01*
X92774730Y-81759529D01*
X92817929Y-81874764D01*
X92823309Y-81881943D01*
X92823311Y-81881946D01*
X92869336Y-81943357D01*
X92904596Y-81990404D01*
X92911776Y-81995785D01*
X93013054Y-82071689D01*
X93013057Y-82071691D01*
X93020236Y-82077071D01*
X93109553Y-82110554D01*
X93148157Y-82125026D01*
X93148159Y-82125026D01*
X93155552Y-82127798D01*
X93163402Y-82128651D01*
X93163403Y-82128651D01*
X93205756Y-82133252D01*
X93217244Y-82134500D01*
X93880260Y-82134500D01*
X93948381Y-82154502D01*
X93969355Y-82171405D01*
X96716485Y-84918535D01*
X96716489Y-84918538D01*
X96739277Y-84941326D01*
X96759154Y-84951454D01*
X96776011Y-84961784D01*
X96794071Y-84974905D01*
X96803504Y-84977970D01*
X96815295Y-84981801D01*
X96833561Y-84989366D01*
X96853445Y-84999498D01*
X96863238Y-85001049D01*
X96875487Y-85002989D01*
X96894713Y-85007605D01*
X96906500Y-85011435D01*
X96906502Y-85011435D01*
X96915934Y-85014500D01*
X111200260Y-85014500D01*
X111268381Y-85034502D01*
X111289355Y-85051405D01*
X111896485Y-85658535D01*
X111896489Y-85658538D01*
X111919277Y-85681326D01*
X111932799Y-85688216D01*
X111939154Y-85691454D01*
X111956011Y-85701784D01*
X111974071Y-85714905D01*
X111993535Y-85721229D01*
X111995295Y-85721801D01*
X112013561Y-85729366D01*
X112033445Y-85739498D01*
X112043238Y-85741049D01*
X112055487Y-85742989D01*
X112074713Y-85747605D01*
X112086500Y-85751435D01*
X112086502Y-85751435D01*
X112095934Y-85754500D01*
X112505261Y-85754500D01*
X112573382Y-85774502D01*
X112594356Y-85791405D01*
X112634277Y-85831326D01*
X112709687Y-85869750D01*
X112715542Y-85872733D01*
X112767157Y-85921482D01*
X112784223Y-85990397D01*
X112761322Y-86057598D01*
X112715542Y-86097267D01*
X112634277Y-86138674D01*
X112543674Y-86229277D01*
X112485502Y-86343445D01*
X112470500Y-86438166D01*
X112470500Y-86801834D01*
X112485502Y-86896555D01*
X112543674Y-87010723D01*
X112634277Y-87101326D01*
X112703341Y-87136516D01*
X112715542Y-87142733D01*
X112767157Y-87191482D01*
X112784223Y-87260397D01*
X112761322Y-87327598D01*
X112715542Y-87367267D01*
X112634277Y-87408674D01*
X112543674Y-87499277D01*
X112485502Y-87613445D01*
X112470500Y-87708166D01*
X112470500Y-88071834D01*
X112485502Y-88166555D01*
X112543674Y-88280723D01*
X112634277Y-88371326D01*
X112748445Y-88429498D01*
X112843166Y-88444500D01*
X114556834Y-88444500D01*
X114651555Y-88429498D01*
X114765723Y-88371326D01*
X114856326Y-88280723D01*
X114914498Y-88166555D01*
X114929500Y-88071834D01*
X114929500Y-87708166D01*
X114914498Y-87613445D01*
X114856326Y-87499277D01*
X114765723Y-87408674D01*
X114684458Y-87367267D01*
X114632843Y-87318518D01*
X114615777Y-87249603D01*
X114638678Y-87182402D01*
X114684458Y-87142733D01*
X114696659Y-87136516D01*
X114765723Y-87101326D01*
X114805771Y-87061278D01*
X114868083Y-87027252D01*
X114875156Y-87025924D01*
X114884147Y-87024500D01*
X114894066Y-87024500D01*
X114915286Y-87017605D01*
X114934513Y-87012989D01*
X114946762Y-87011049D01*
X114956555Y-87009498D01*
X114976439Y-86999366D01*
X114994705Y-86991801D01*
X115006496Y-86987970D01*
X115015929Y-86984905D01*
X115033989Y-86971784D01*
X115050846Y-86961454D01*
X115053364Y-86960171D01*
X115070723Y-86951326D01*
X115093511Y-86928538D01*
X115093515Y-86928535D01*
X116389916Y-85632134D01*
X116452228Y-85598108D01*
X116523043Y-85603173D01*
X116579879Y-85645720D01*
X116604690Y-85712240D01*
X116605011Y-85721229D01*
X116605011Y-85923577D01*
X116608076Y-85933009D01*
X116608076Y-85933011D01*
X116611906Y-85944798D01*
X116616522Y-85964024D01*
X116620013Y-85986066D01*
X116624514Y-85994899D01*
X116630144Y-86005949D01*
X116637710Y-86024215D01*
X116644606Y-86045440D01*
X116650436Y-86053464D01*
X116657727Y-86063500D01*
X116668056Y-86080355D01*
X116678185Y-86100234D01*
X116700973Y-86123022D01*
X116700976Y-86123026D01*
X117399212Y-86821262D01*
X117428222Y-86878196D01*
X117430886Y-86877330D01*
X117433951Y-86886762D01*
X117435502Y-86896555D01*
X117493674Y-87010723D01*
X117584277Y-87101326D01*
X117653341Y-87136516D01*
X117665542Y-87142733D01*
X117717157Y-87191482D01*
X117734223Y-87260397D01*
X117711322Y-87327598D01*
X117665542Y-87367267D01*
X117584277Y-87408674D01*
X117493674Y-87499277D01*
X117435502Y-87613445D01*
X117420500Y-87708166D01*
X117420500Y-88071834D01*
X117435502Y-88166555D01*
X117493674Y-88280723D01*
X117584277Y-88371326D01*
X117698445Y-88429498D01*
X117793166Y-88444500D01*
X119506834Y-88444500D01*
X119601555Y-88429498D01*
X119715723Y-88371326D01*
X119806326Y-88280723D01*
X119864498Y-88166555D01*
X119879500Y-88071834D01*
X119879500Y-87708166D01*
X119864498Y-87613445D01*
X119806326Y-87499277D01*
X119715723Y-87408674D01*
X119634458Y-87367267D01*
X119582843Y-87318518D01*
X119565777Y-87249603D01*
X119588678Y-87182402D01*
X119634458Y-87142733D01*
X119646659Y-87136516D01*
X119715723Y-87101326D01*
X119806326Y-87010723D01*
X119864498Y-86896555D01*
X119879500Y-86801834D01*
X119879500Y-86438166D01*
X119864498Y-86343445D01*
X119806326Y-86229277D01*
X119715723Y-86138674D01*
X119634458Y-86097267D01*
X119582843Y-86048518D01*
X119565777Y-85979603D01*
X119588678Y-85912402D01*
X119634458Y-85872733D01*
X119640313Y-85869750D01*
X119715723Y-85831326D01*
X119755644Y-85791405D01*
X119817956Y-85757379D01*
X119844739Y-85754500D01*
X120324066Y-85754500D01*
X120333498Y-85751435D01*
X120333500Y-85751435D01*
X120345287Y-85747605D01*
X120364513Y-85742989D01*
X120376762Y-85741049D01*
X120386555Y-85739498D01*
X120406439Y-85729366D01*
X120424705Y-85721801D01*
X120426466Y-85721229D01*
X120445929Y-85714905D01*
X120463989Y-85701784D01*
X120480846Y-85691454D01*
X120487201Y-85688216D01*
X120500723Y-85681326D01*
X120523511Y-85658538D01*
X120523515Y-85658535D01*
X120770645Y-85411405D01*
X120832957Y-85377379D01*
X120859740Y-85374500D01*
X133054066Y-85374500D01*
X133063498Y-85371435D01*
X133063500Y-85371435D01*
X133075287Y-85367605D01*
X133094513Y-85362989D01*
X133106762Y-85361049D01*
X133116555Y-85359498D01*
X133136439Y-85349366D01*
X133154705Y-85341801D01*
X133166496Y-85337970D01*
X133175929Y-85334905D01*
X133193989Y-85321784D01*
X133210846Y-85311454D01*
X133230723Y-85301326D01*
X133253511Y-85278538D01*
X133253515Y-85278535D01*
X136840644Y-81691405D01*
X136902956Y-81657379D01*
X136929739Y-81654500D01*
X137113709Y-81654500D01*
X137181830Y-81674502D01*
X137228323Y-81728158D01*
X137236291Y-81751353D01*
X137236349Y-81751597D01*
X137237202Y-81759448D01*
X137287929Y-81894764D01*
X137293309Y-81901943D01*
X137293311Y-81901946D01*
X137324347Y-81943357D01*
X137374596Y-82010404D01*
X137381776Y-82015785D01*
X137483054Y-82091689D01*
X137483057Y-82091691D01*
X137490236Y-82097071D01*
X137533365Y-82113239D01*
X137618157Y-82145026D01*
X137618159Y-82145026D01*
X137625552Y-82147798D01*
X137633402Y-82148651D01*
X137633403Y-82148651D01*
X137683847Y-82154131D01*
X137687244Y-82154500D01*
X139032756Y-82154500D01*
X139036153Y-82154131D01*
X139086597Y-82148651D01*
X139086598Y-82148651D01*
X139094448Y-82147798D01*
X139101841Y-82145026D01*
X139101843Y-82145026D01*
X139186635Y-82113239D01*
X139229764Y-82097071D01*
X139236943Y-82091691D01*
X139236946Y-82091689D01*
X139338224Y-82015785D01*
X139345404Y-82010404D01*
X139395653Y-81943357D01*
X139426689Y-81901946D01*
X139426691Y-81901943D01*
X139432071Y-81894764D01*
X139482798Y-81759448D01*
X139483651Y-81751597D01*
X139483709Y-81751353D01*
X139518927Y-81689707D01*
X139581882Y-81656887D01*
X139606291Y-81654500D01*
X141784096Y-81654500D01*
X141852217Y-81674502D01*
X141886993Y-81707781D01*
X141905014Y-81733281D01*
X141905019Y-81733287D01*
X141908350Y-81738000D01*
X142060337Y-81886059D01*
X142065133Y-81889264D01*
X142065136Y-81889266D01*
X142167696Y-81957794D01*
X142236760Y-82003941D01*
X142242063Y-82006219D01*
X142242066Y-82006221D01*
X142426404Y-82085419D01*
X142431711Y-82087699D01*
X142487051Y-82100221D01*
X142633025Y-82133252D01*
X142633030Y-82133253D01*
X142638662Y-82134527D01*
X142644433Y-82134754D01*
X142644435Y-82134754D01*
X142709911Y-82137326D01*
X142850681Y-82142857D01*
X142955674Y-82127634D01*
X143054953Y-82113239D01*
X143054958Y-82113238D01*
X143060667Y-82112410D01*
X143066131Y-82110555D01*
X143066136Y-82110554D01*
X143179524Y-82072064D01*
X143261589Y-82044207D01*
X143271569Y-82038618D01*
X143441670Y-81943357D01*
X143441674Y-81943354D01*
X143446717Y-81940530D01*
X143609852Y-81804852D01*
X143745530Y-81641717D01*
X143748354Y-81636674D01*
X143748357Y-81636670D01*
X143846383Y-81461632D01*
X143846384Y-81461630D01*
X143849207Y-81456589D01*
X143917410Y-81255667D01*
X143929545Y-81171979D01*
X143936669Y-81122840D01*
X143947857Y-81045681D01*
X143949446Y-80985000D01*
X143936259Y-80841482D01*
X143930560Y-80779462D01*
X143930559Y-80779459D01*
X143930031Y-80773708D01*
X143924847Y-80755325D01*
X143874004Y-80575051D01*
X143874003Y-80575049D01*
X143872436Y-80569492D01*
X143856296Y-80536762D01*
X143781145Y-80384372D01*
X143778590Y-80379191D01*
X143757800Y-80351349D01*
X143655089Y-80213803D01*
X143655088Y-80213802D01*
X143651636Y-80209179D01*
X143647400Y-80205263D01*
X143500066Y-80069069D01*
X143500063Y-80069067D01*
X143495826Y-80065150D01*
X143316377Y-79951926D01*
X143119300Y-79873300D01*
X142997528Y-79849078D01*
X142934620Y-79816172D01*
X142899487Y-79754477D01*
X142903287Y-79683582D01*
X142944812Y-79625996D01*
X143010879Y-79600002D01*
X143022110Y-79599500D01*
X143701893Y-79599499D01*
X143715066Y-79599499D01*
X143750818Y-79592388D01*
X143777126Y-79587156D01*
X143777128Y-79587155D01*
X143789301Y-79584734D01*
X143799621Y-79577839D01*
X143799622Y-79577838D01*
X143863168Y-79535377D01*
X143873484Y-79528484D01*
X143929734Y-79444301D01*
X143944500Y-79370067D01*
X143944500Y-79125500D01*
X143964502Y-79057379D01*
X144018158Y-79010886D01*
X144070500Y-78999500D01*
X144393129Y-78999500D01*
X144461250Y-79019502D01*
X144482224Y-79036405D01*
X145128595Y-79682776D01*
X145162621Y-79745088D01*
X145165500Y-79771871D01*
X145165500Y-82348128D01*
X145145498Y-82416249D01*
X145128595Y-82437223D01*
X141153586Y-86412233D01*
X141149778Y-86415886D01*
X141120162Y-86443120D01*
X141103734Y-86458226D01*
X141099211Y-86465521D01*
X141099210Y-86465522D01*
X141080619Y-86495506D01*
X141073896Y-86505288D01*
X141067266Y-86514023D01*
X141047370Y-86540235D01*
X141044209Y-86548219D01*
X141041763Y-86554396D01*
X141031700Y-86574402D01*
X141028206Y-86580037D01*
X141028202Y-86580046D01*
X141023677Y-86587344D01*
X141021281Y-86595591D01*
X141011435Y-86629480D01*
X141007593Y-86640702D01*
X140991444Y-86681490D01*
X140990546Y-86690035D01*
X140989852Y-86696633D01*
X140985541Y-86718605D01*
X140981291Y-86733235D01*
X140980500Y-86744007D01*
X140980500Y-86779005D01*
X140979810Y-86792175D01*
X140975563Y-86832581D01*
X140978737Y-86851346D01*
X140980500Y-86872348D01*
X140980500Y-87134777D01*
X140960498Y-87202898D01*
X140918923Y-87243062D01*
X140858463Y-87279032D01*
X140858460Y-87279034D01*
X140853495Y-87281988D01*
X140849155Y-87285794D01*
X140849151Y-87285797D01*
X140775370Y-87350502D01*
X140693968Y-87421890D01*
X140562607Y-87588520D01*
X140463812Y-87776299D01*
X140440297Y-87852030D01*
X140404249Y-87968125D01*
X140400891Y-87978938D01*
X140375951Y-88189649D01*
X140389829Y-88401377D01*
X140442058Y-88607031D01*
X140444477Y-88612278D01*
X140525062Y-88787080D01*
X140530890Y-88799723D01*
X140653350Y-88973000D01*
X140670386Y-88989596D01*
X140799360Y-89115236D01*
X140805337Y-89121059D01*
X140810836Y-89124733D01*
X140811092Y-89125040D01*
X140814628Y-89127903D01*
X140814066Y-89128597D01*
X140856365Y-89179207D01*
X140865215Y-89249650D01*
X140834577Y-89313695D01*
X140774177Y-89351009D01*
X140740837Y-89355500D01*
X139626291Y-89355500D01*
X139558170Y-89335498D01*
X139511677Y-89281842D01*
X139503709Y-89258647D01*
X139503651Y-89258402D01*
X139502798Y-89250552D01*
X139496777Y-89234489D01*
X139465529Y-89151137D01*
X139452071Y-89115236D01*
X139446691Y-89108057D01*
X139446689Y-89108054D01*
X139370785Y-89006776D01*
X139365404Y-88999596D01*
X139312738Y-88960125D01*
X139256946Y-88918311D01*
X139256943Y-88918309D01*
X139249764Y-88912929D01*
X139153167Y-88876717D01*
X139121843Y-88864974D01*
X139121841Y-88864974D01*
X139114448Y-88862202D01*
X139106598Y-88861349D01*
X139106597Y-88861349D01*
X139056153Y-88855869D01*
X139056152Y-88855869D01*
X139052756Y-88855500D01*
X137707244Y-88855500D01*
X137703848Y-88855869D01*
X137703847Y-88855869D01*
X137653403Y-88861349D01*
X137653402Y-88861349D01*
X137645552Y-88862202D01*
X137638159Y-88864974D01*
X137638157Y-88864974D01*
X137606833Y-88876717D01*
X137510236Y-88912929D01*
X137503057Y-88918309D01*
X137503054Y-88918311D01*
X137447262Y-88960125D01*
X137394596Y-88999596D01*
X137389215Y-89006776D01*
X137313311Y-89108054D01*
X137313309Y-89108057D01*
X137307929Y-89115236D01*
X137294471Y-89151137D01*
X137263224Y-89234489D01*
X137257202Y-89250552D01*
X137256349Y-89258402D01*
X137256349Y-89258403D01*
X137250869Y-89308845D01*
X137250500Y-89312244D01*
X137250500Y-90207756D01*
X137250869Y-90211152D01*
X137250869Y-90211153D01*
X137256323Y-90261353D01*
X137257202Y-90269448D01*
X137307929Y-90404764D01*
X137313309Y-90411943D01*
X137313311Y-90411946D01*
X137358461Y-90472189D01*
X137394596Y-90520404D01*
X137401776Y-90525785D01*
X137503054Y-90601689D01*
X137503057Y-90601691D01*
X137510236Y-90607071D01*
X137576151Y-90631781D01*
X137638157Y-90655026D01*
X137638159Y-90655026D01*
X137645552Y-90657798D01*
X137653402Y-90658651D01*
X137653403Y-90658651D01*
X137703847Y-90664131D01*
X137707244Y-90664500D01*
X139052756Y-90664500D01*
X139056153Y-90664131D01*
X139106597Y-90658651D01*
X139106598Y-90658651D01*
X139114448Y-90657798D01*
X139121841Y-90655026D01*
X139121843Y-90655026D01*
X139183849Y-90631781D01*
X139249764Y-90607071D01*
X139256943Y-90601691D01*
X139256946Y-90601689D01*
X139259927Y-90599455D01*
X144684825Y-90599455D01*
X144685512Y-90606462D01*
X144685512Y-90606465D01*
X144692204Y-90674712D01*
X144701255Y-90767025D01*
X144754402Y-90926791D01*
X144758049Y-90932813D01*
X144758050Y-90932815D01*
X144783620Y-90975035D01*
X144841624Y-91070812D01*
X144846513Y-91075875D01*
X144846514Y-91075876D01*
X144904429Y-91135848D01*
X144958586Y-91191929D01*
X144964483Y-91195788D01*
X145093577Y-91280266D01*
X145093581Y-91280268D01*
X145099475Y-91284125D01*
X145257289Y-91342815D01*
X145264270Y-91343746D01*
X145264272Y-91343747D01*
X145309812Y-91349823D01*
X145424183Y-91365083D01*
X145431194Y-91364445D01*
X145431198Y-91364445D01*
X145584843Y-91350462D01*
X145591864Y-91349823D01*
X145598566Y-91347645D01*
X145598568Y-91347645D01*
X145745298Y-91299970D01*
X145745301Y-91299969D01*
X145751997Y-91297793D01*
X145896623Y-91211578D01*
X145901717Y-91206727D01*
X145901721Y-91206724D01*
X146013454Y-91100322D01*
X146013455Y-91100320D01*
X146018554Y-91095465D01*
X146025228Y-91085421D01*
X146107836Y-90961085D01*
X146111731Y-90955223D01*
X146171521Y-90797823D01*
X146192774Y-90646605D01*
X146194404Y-90635010D01*
X146194404Y-90635006D01*
X146194955Y-90631088D01*
X146195249Y-90610000D01*
X146193821Y-90597265D01*
X146177266Y-90449672D01*
X146177265Y-90449669D01*
X146176481Y-90442676D01*
X146121108Y-90283668D01*
X146039451Y-90152989D01*
X146035617Y-90146853D01*
X146031884Y-90140879D01*
X146019065Y-90127970D01*
X145918205Y-90026403D01*
X145918201Y-90026400D01*
X145913242Y-90021406D01*
X145771079Y-89931187D01*
X145612462Y-89874706D01*
X145605474Y-89873873D01*
X145605471Y-89873872D01*
X145512300Y-89862762D01*
X145445273Y-89854769D01*
X145438270Y-89855505D01*
X145438269Y-89855505D01*
X145392712Y-89860293D01*
X145277821Y-89872369D01*
X145271155Y-89874638D01*
X145271152Y-89874639D01*
X145125098Y-89924360D01*
X145125095Y-89924361D01*
X145118431Y-89926630D01*
X145112436Y-89930318D01*
X145112432Y-89930320D01*
X144981021Y-90011165D01*
X144981019Y-90011167D01*
X144975022Y-90014856D01*
X144966903Y-90022807D01*
X144868598Y-90119075D01*
X144854724Y-90132661D01*
X144763515Y-90274190D01*
X144761105Y-90280810D01*
X144761104Y-90280813D01*
X144747485Y-90318230D01*
X144705927Y-90432409D01*
X144684825Y-90599455D01*
X139259927Y-90599455D01*
X139358224Y-90525785D01*
X139365404Y-90520404D01*
X139401539Y-90472189D01*
X139446689Y-90411946D01*
X139446691Y-90411943D01*
X139452071Y-90404764D01*
X139502798Y-90269448D01*
X139503651Y-90261597D01*
X139503709Y-90261353D01*
X139538927Y-90199707D01*
X139601882Y-90166887D01*
X139626291Y-90164500D01*
X142599066Y-90164500D01*
X142608498Y-90161435D01*
X142608500Y-90161435D01*
X142620287Y-90157605D01*
X142639513Y-90152989D01*
X142651762Y-90151049D01*
X142661555Y-90149498D01*
X142681439Y-90139366D01*
X142699705Y-90131801D01*
X142711496Y-90127970D01*
X142720929Y-90124905D01*
X142738989Y-90111784D01*
X142755846Y-90101454D01*
X142775723Y-90091326D01*
X142798511Y-90068538D01*
X142798515Y-90068535D01*
X143455645Y-89411405D01*
X143517957Y-89377379D01*
X143544740Y-89374500D01*
X144840248Y-89374499D01*
X145000066Y-89374499D01*
X145035818Y-89367388D01*
X145062126Y-89362156D01*
X145062128Y-89362155D01*
X145074301Y-89359734D01*
X145084621Y-89352839D01*
X145084622Y-89352838D01*
X145148168Y-89310377D01*
X145158484Y-89303484D01*
X145214734Y-89219301D01*
X145229500Y-89145067D01*
X145229499Y-87294934D01*
X145218920Y-87241746D01*
X145217156Y-87232874D01*
X145217155Y-87232872D01*
X145214734Y-87220699D01*
X145205199Y-87206428D01*
X145165377Y-87146832D01*
X145158484Y-87136516D01*
X145074301Y-87080266D01*
X145000067Y-87065500D01*
X144075150Y-87065500D01*
X143149934Y-87065501D01*
X143114182Y-87072612D01*
X143087874Y-87077844D01*
X143087872Y-87077845D01*
X143075699Y-87080266D01*
X143065379Y-87087161D01*
X143065378Y-87087162D01*
X143031687Y-87109674D01*
X142991516Y-87136516D01*
X142935266Y-87220699D01*
X142920500Y-87294933D01*
X142920500Y-87968125D01*
X142900498Y-88036246D01*
X142846842Y-88082739D01*
X142776568Y-88092843D01*
X142711988Y-88063349D01*
X142673231Y-88002326D01*
X142671996Y-87997945D01*
X142645912Y-87905460D01*
X142619005Y-87810053D01*
X142619003Y-87810047D01*
X142617436Y-87804492D01*
X142586541Y-87741842D01*
X142526145Y-87619372D01*
X142523590Y-87614191D01*
X142423292Y-87479875D01*
X142400089Y-87448803D01*
X142400088Y-87448802D01*
X142396636Y-87444179D01*
X142372524Y-87421890D01*
X142245067Y-87304070D01*
X142245065Y-87304068D01*
X142240826Y-87300150D01*
X142235948Y-87297072D01*
X142235936Y-87297063D01*
X142148264Y-87241746D01*
X142101326Y-87188480D01*
X142089500Y-87135185D01*
X142089500Y-87096871D01*
X142109502Y-87028750D01*
X142126405Y-87007776D01*
X146101413Y-83032768D01*
X146105221Y-83029115D01*
X146144948Y-82992584D01*
X146144949Y-82992583D01*
X146151266Y-82986774D01*
X146174381Y-82949494D01*
X146181104Y-82939712D01*
X146202438Y-82911605D01*
X146207630Y-82904765D01*
X146213237Y-82890604D01*
X146223300Y-82870598D01*
X146226794Y-82864963D01*
X146226798Y-82864954D01*
X146231323Y-82857656D01*
X146243565Y-82815520D01*
X146247409Y-82804293D01*
X146263556Y-82763510D01*
X146265148Y-82748367D01*
X146269459Y-82726394D01*
X146271867Y-82718104D01*
X146273709Y-82711765D01*
X146274500Y-82700993D01*
X146274500Y-82665995D01*
X146275190Y-82652824D01*
X146278539Y-82620963D01*
X146279437Y-82612419D01*
X146276263Y-82593654D01*
X146274500Y-82572652D01*
X146274500Y-79505074D01*
X146274610Y-79499798D01*
X146276868Y-79445909D01*
X146277228Y-79437326D01*
X146267212Y-79394622D01*
X146265049Y-79382949D01*
X146260261Y-79347995D01*
X146259095Y-79339482D01*
X146253047Y-79325506D01*
X146246013Y-79304237D01*
X146244498Y-79297778D01*
X146242537Y-79289417D01*
X146221397Y-79250963D01*
X146216182Y-79240317D01*
X146202170Y-79207937D01*
X146202168Y-79207933D01*
X146198758Y-79200054D01*
X146190093Y-79189353D01*
X146189179Y-79188225D01*
X146176688Y-79169637D01*
X146169348Y-79156285D01*
X146162290Y-79148109D01*
X146137547Y-79123366D01*
X146128721Y-79113565D01*
X146108556Y-79088662D01*
X146108553Y-79088659D01*
X146103150Y-79081987D01*
X146087636Y-79070962D01*
X146071536Y-79057355D01*
X145077768Y-78063587D01*
X145074115Y-78059779D01*
X145037584Y-78020052D01*
X145037583Y-78020051D01*
X145031774Y-78013734D01*
X145016645Y-78004353D01*
X144994494Y-77990619D01*
X144984712Y-77983896D01*
X144956605Y-77962562D01*
X144956606Y-77962562D01*
X144949765Y-77957370D01*
X144940053Y-77953525D01*
X144935604Y-77951763D01*
X144915598Y-77941700D01*
X144909963Y-77938206D01*
X144909954Y-77938202D01*
X144902656Y-77933677D01*
X144860521Y-77921435D01*
X144849298Y-77917593D01*
X144808510Y-77901444D01*
X144794308Y-77899951D01*
X144793367Y-77899852D01*
X144771394Y-77895541D01*
X144756765Y-77891291D01*
X144745993Y-77890500D01*
X144710995Y-77890500D01*
X144697824Y-77889810D01*
X144687607Y-77888736D01*
X144678435Y-77887772D01*
X144665963Y-77886461D01*
X144657419Y-77885563D01*
X144638654Y-77888737D01*
X144617652Y-77890500D01*
X144070499Y-77890500D01*
X144002378Y-77870498D01*
X143955885Y-77816842D01*
X143944499Y-77764500D01*
X143944499Y-77519934D01*
X143929734Y-77445699D01*
X143873484Y-77361516D01*
X143789301Y-77305266D01*
X143715067Y-77290500D01*
X143470500Y-77290500D01*
X143402379Y-77270498D01*
X143355886Y-77216842D01*
X143344500Y-77164500D01*
X143344500Y-75985074D01*
X143344610Y-75979798D01*
X143346868Y-75925909D01*
X143347228Y-75917326D01*
X143337212Y-75874622D01*
X143335049Y-75862949D01*
X143331702Y-75838515D01*
X143329095Y-75819482D01*
X143323047Y-75805506D01*
X143316013Y-75784237D01*
X143314498Y-75777778D01*
X143312537Y-75769417D01*
X143291397Y-75730963D01*
X143286182Y-75720317D01*
X143272170Y-75687937D01*
X143272168Y-75687933D01*
X143268758Y-75680054D01*
X143259179Y-75668225D01*
X143246688Y-75649637D01*
X143239348Y-75636285D01*
X143232290Y-75628109D01*
X143207547Y-75603366D01*
X143198721Y-75593565D01*
X143178556Y-75568662D01*
X143178553Y-75568659D01*
X143173150Y-75561987D01*
X143157636Y-75550962D01*
X143141536Y-75537355D01*
X141472768Y-73868587D01*
X141469115Y-73864779D01*
X141432584Y-73825052D01*
X141432583Y-73825051D01*
X141426774Y-73818734D01*
X141411645Y-73809353D01*
X141389494Y-73795619D01*
X141379712Y-73788896D01*
X141356453Y-73771242D01*
X141344765Y-73762370D01*
X141335046Y-73758522D01*
X141330604Y-73756763D01*
X141310598Y-73746700D01*
X141304963Y-73743206D01*
X141304954Y-73743202D01*
X141297656Y-73738677D01*
X141255521Y-73726435D01*
X141244298Y-73722593D01*
X141203510Y-73706444D01*
X141189508Y-73704972D01*
X141188367Y-73704852D01*
X141166394Y-73700541D01*
X141151765Y-73696291D01*
X141140993Y-73695500D01*
X141105995Y-73695500D01*
X141092824Y-73694810D01*
X141092092Y-73694733D01*
X141070733Y-73692488D01*
X141060963Y-73691461D01*
X141052419Y-73690563D01*
X141033654Y-73693737D01*
X141012652Y-73695500D01*
X126885065Y-73695500D01*
X126879789Y-73695389D01*
X126876486Y-73695251D01*
X126817326Y-73692771D01*
X126808964Y-73694732D01*
X126808958Y-73694733D01*
X126774613Y-73702789D01*
X126762960Y-73704950D01*
X126719482Y-73710905D01*
X126711595Y-73714318D01*
X126711592Y-73714319D01*
X126705505Y-73716953D01*
X126684242Y-73723986D01*
X126669417Y-73727463D01*
X126630963Y-73748603D01*
X126620317Y-73753818D01*
X126587937Y-73767830D01*
X126587933Y-73767832D01*
X126580054Y-73771242D01*
X126573381Y-73776646D01*
X126573379Y-73776647D01*
X126568225Y-73780821D01*
X126549637Y-73793312D01*
X126536285Y-73800652D01*
X126531281Y-73804972D01*
X126529860Y-73806198D01*
X126529853Y-73806204D01*
X126528109Y-73807710D01*
X126503366Y-73832453D01*
X126493565Y-73841279D01*
X126468662Y-73861444D01*
X126468659Y-73861447D01*
X126461987Y-73866850D01*
X126450962Y-73882364D01*
X126437355Y-73898464D01*
X125129095Y-75206724D01*
X125066783Y-75240750D01*
X124995968Y-75235685D01*
X124950905Y-75206724D01*
X123663758Y-73919577D01*
X123629732Y-73857265D01*
X123628157Y-73812405D01*
X123652712Y-73643053D01*
X123654232Y-73585000D01*
X123635658Y-73382859D01*
X123634090Y-73377299D01*
X123582125Y-73193046D01*
X123582124Y-73193044D01*
X123580557Y-73187487D01*
X123571850Y-73169829D01*
X123493331Y-73010609D01*
X123490776Y-73005428D01*
X123369320Y-72842779D01*
X123220258Y-72704987D01*
X123215377Y-72701907D01*
X123215374Y-72701905D01*
X123158265Y-72665872D01*
X123111327Y-72612606D01*
X123099500Y-72559310D01*
X123099500Y-71952186D01*
X142681018Y-71952186D01*
X142706579Y-72220100D01*
X142707664Y-72224534D01*
X142707665Y-72224540D01*
X142719707Y-72273750D01*
X142770547Y-72481518D01*
X142871583Y-72730963D01*
X143007569Y-72963210D01*
X143041332Y-73005428D01*
X143165358Y-73160515D01*
X143175658Y-73173395D01*
X143372327Y-73357113D01*
X143593457Y-73510516D01*
X143834416Y-73630391D01*
X143838750Y-73631812D01*
X143838753Y-73631813D01*
X144085823Y-73712807D01*
X144085829Y-73712808D01*
X144090156Y-73714227D01*
X144094647Y-73715007D01*
X144094648Y-73715007D01*
X144351538Y-73759611D01*
X144351546Y-73759612D01*
X144355319Y-73760267D01*
X144359156Y-73760458D01*
X144438777Y-73764422D01*
X144438785Y-73764422D01*
X144440348Y-73764500D01*
X144608374Y-73764500D01*
X144610642Y-73764335D01*
X144610654Y-73764335D01*
X144755597Y-73753818D01*
X144808425Y-73749985D01*
X144812880Y-73749001D01*
X144812883Y-73749001D01*
X145066770Y-73692947D01*
X145066772Y-73692946D01*
X145071226Y-73691963D01*
X145322900Y-73596613D01*
X145332176Y-73591461D01*
X145554179Y-73468149D01*
X145554180Y-73468148D01*
X145558172Y-73465931D01*
X145659483Y-73388613D01*
X145768491Y-73305421D01*
X145768495Y-73305417D01*
X145772116Y-73302654D01*
X145960249Y-73110203D01*
X146032741Y-73010609D01*
X146115942Y-72896304D01*
X146115947Y-72896297D01*
X146118630Y-72892610D01*
X146243941Y-72654433D01*
X146333557Y-72400662D01*
X146362705Y-72252776D01*
X146384720Y-72141083D01*
X146384721Y-72141077D01*
X146385601Y-72136611D01*
X146393064Y-71986699D01*
X146398755Y-71872383D01*
X146398755Y-71872377D01*
X146398982Y-71867814D01*
X146373421Y-71599900D01*
X146370089Y-71586281D01*
X146310539Y-71342920D01*
X146309453Y-71338482D01*
X146208417Y-71089037D01*
X146072431Y-70856790D01*
X145904342Y-70646605D01*
X145707673Y-70462887D01*
X145486543Y-70309484D01*
X145245584Y-70189609D01*
X145241250Y-70188188D01*
X145241247Y-70188187D01*
X144994177Y-70107193D01*
X144994171Y-70107192D01*
X144989844Y-70105773D01*
X144985352Y-70104993D01*
X144728462Y-70060389D01*
X144728454Y-70060388D01*
X144724681Y-70059733D01*
X144714718Y-70059237D01*
X144641223Y-70055578D01*
X144641215Y-70055578D01*
X144639652Y-70055500D01*
X144471626Y-70055500D01*
X144469358Y-70055665D01*
X144469346Y-70055665D01*
X144338543Y-70065156D01*
X144271575Y-70070015D01*
X144267120Y-70070999D01*
X144267117Y-70070999D01*
X144013230Y-70127053D01*
X144013228Y-70127054D01*
X144008774Y-70128037D01*
X143757100Y-70223387D01*
X143753114Y-70225601D01*
X143753112Y-70225602D01*
X143621714Y-70298587D01*
X143521828Y-70354069D01*
X143518196Y-70356841D01*
X143311509Y-70514579D01*
X143311505Y-70514583D01*
X143307884Y-70517346D01*
X143119751Y-70709797D01*
X143115423Y-70715743D01*
X142964058Y-70923696D01*
X142964053Y-70923703D01*
X142961370Y-70927390D01*
X142836059Y-71165567D01*
X142746443Y-71419338D01*
X142725881Y-71523662D01*
X142697869Y-71665786D01*
X142694399Y-71683389D01*
X142694172Y-71687942D01*
X142694172Y-71687945D01*
X142681872Y-71935035D01*
X142681018Y-71952186D01*
X123099500Y-71952186D01*
X123099500Y-71940065D01*
X123099611Y-71934789D01*
X123101869Y-71880910D01*
X123102229Y-71872326D01*
X123100268Y-71863964D01*
X123100267Y-71863958D01*
X123092211Y-71829613D01*
X123090050Y-71817960D01*
X123084095Y-71774482D01*
X123080682Y-71766595D01*
X123080681Y-71766592D01*
X123078047Y-71760505D01*
X123071013Y-71739239D01*
X123069498Y-71732780D01*
X123067537Y-71724417D01*
X123046397Y-71685963D01*
X123041182Y-71675317D01*
X123027170Y-71642937D01*
X123027168Y-71642933D01*
X123023758Y-71635054D01*
X123014179Y-71623225D01*
X123001688Y-71604637D01*
X122994348Y-71591285D01*
X122987290Y-71583109D01*
X122962547Y-71558366D01*
X122953721Y-71548565D01*
X122933556Y-71523662D01*
X122933553Y-71523659D01*
X122928150Y-71516987D01*
X122912636Y-71505962D01*
X122896536Y-71492355D01*
X121702768Y-70298587D01*
X121699115Y-70294779D01*
X121662584Y-70255052D01*
X121662583Y-70255051D01*
X121656774Y-70248734D01*
X121641653Y-70239358D01*
X121619494Y-70225619D01*
X121609712Y-70218896D01*
X121581605Y-70197562D01*
X121581606Y-70197562D01*
X121574765Y-70192370D01*
X121564200Y-70188187D01*
X121560604Y-70186763D01*
X121540598Y-70176700D01*
X121534963Y-70173206D01*
X121534954Y-70173202D01*
X121527656Y-70168677D01*
X121485521Y-70156435D01*
X121474298Y-70152593D01*
X121433510Y-70136444D01*
X121419902Y-70135013D01*
X121418367Y-70134852D01*
X121396394Y-70130541D01*
X121381765Y-70126291D01*
X121370993Y-70125500D01*
X121335995Y-70125500D01*
X121322824Y-70124810D01*
X121322092Y-70124733D01*
X121303426Y-70122771D01*
X121290963Y-70121461D01*
X121282419Y-70120563D01*
X121263654Y-70123737D01*
X121242652Y-70125500D01*
X108685065Y-70125500D01*
X108679789Y-70125389D01*
X108676486Y-70125251D01*
X108617326Y-70122771D01*
X108608964Y-70124732D01*
X108608958Y-70124733D01*
X108574613Y-70132789D01*
X108562960Y-70134950D01*
X108519482Y-70140905D01*
X108511595Y-70144318D01*
X108511592Y-70144319D01*
X108505505Y-70146953D01*
X108484242Y-70153986D01*
X108469417Y-70157463D01*
X108430963Y-70178603D01*
X108420317Y-70183818D01*
X108387937Y-70197830D01*
X108387933Y-70197832D01*
X108380054Y-70201242D01*
X108373381Y-70206646D01*
X108373379Y-70206647D01*
X108368225Y-70210821D01*
X108349637Y-70223312D01*
X108336285Y-70230652D01*
X108328109Y-70237709D01*
X108303361Y-70262457D01*
X108293560Y-70271283D01*
X108268661Y-70291445D01*
X108268659Y-70291447D01*
X108261987Y-70296850D01*
X108257013Y-70303849D01*
X108257012Y-70303850D01*
X108250966Y-70312358D01*
X108237355Y-70328463D01*
X106908586Y-71657233D01*
X106904778Y-71660886D01*
X106885170Y-71678917D01*
X106858734Y-71703226D01*
X106854211Y-71710521D01*
X106854210Y-71710522D01*
X106835619Y-71740506D01*
X106828896Y-71750288D01*
X106802370Y-71785235D01*
X106799209Y-71793219D01*
X106796763Y-71799396D01*
X106786700Y-71819402D01*
X106783206Y-71825037D01*
X106783202Y-71825046D01*
X106778677Y-71832344D01*
X106776281Y-71840591D01*
X106766435Y-71874480D01*
X106762593Y-71885702D01*
X106746444Y-71926490D01*
X106745546Y-71935035D01*
X106744852Y-71941633D01*
X106740541Y-71963605D01*
X106736291Y-71978235D01*
X106735500Y-71989007D01*
X106735500Y-72024005D01*
X106734810Y-72037175D01*
X106730563Y-72077581D01*
X106733737Y-72096346D01*
X106735500Y-72117348D01*
X106735500Y-74267129D01*
X106715498Y-74335250D01*
X106661842Y-74381743D01*
X106591568Y-74391847D01*
X106526988Y-74362353D01*
X106520405Y-74356224D01*
X105932768Y-73768587D01*
X105929115Y-73764779D01*
X105892584Y-73725052D01*
X105892583Y-73725051D01*
X105886774Y-73718734D01*
X105874148Y-73710905D01*
X105849494Y-73695619D01*
X105839712Y-73688896D01*
X105811605Y-73667562D01*
X105811606Y-73667562D01*
X105804765Y-73662370D01*
X105795053Y-73658525D01*
X105790604Y-73656763D01*
X105770598Y-73646700D01*
X105764963Y-73643206D01*
X105764954Y-73643202D01*
X105757656Y-73638677D01*
X105715521Y-73626435D01*
X105704298Y-73622593D01*
X105663510Y-73606444D01*
X105649308Y-73604951D01*
X105648367Y-73604852D01*
X105626394Y-73600541D01*
X105611765Y-73596291D01*
X105600993Y-73595500D01*
X105565995Y-73595500D01*
X105552824Y-73594810D01*
X105548905Y-73594398D01*
X105533435Y-73592772D01*
X105520963Y-73591461D01*
X105512419Y-73590563D01*
X105493654Y-73593737D01*
X105472652Y-73595500D01*
X90805075Y-73595500D01*
X90799799Y-73595390D01*
X90737326Y-73592772D01*
X90728961Y-73594734D01*
X90694622Y-73602788D01*
X90682949Y-73604951D01*
X90672050Y-73606444D01*
X90639482Y-73610905D01*
X90626767Y-73616407D01*
X90625506Y-73616953D01*
X90604237Y-73623987D01*
X90589417Y-73627463D01*
X90550963Y-73648603D01*
X90540317Y-73653818D01*
X90507937Y-73667830D01*
X90507933Y-73667832D01*
X90500054Y-73671242D01*
X90493381Y-73676646D01*
X90493379Y-73676647D01*
X90488225Y-73680821D01*
X90469637Y-73693312D01*
X90456285Y-73700652D01*
X90451281Y-73704972D01*
X90449860Y-73706198D01*
X90449853Y-73706204D01*
X90448109Y-73707710D01*
X90423366Y-73732453D01*
X90413565Y-73741279D01*
X90388662Y-73761444D01*
X90388659Y-73761447D01*
X90381987Y-73766850D01*
X90370962Y-73782364D01*
X90357355Y-73798464D01*
X89158587Y-74997232D01*
X89154779Y-75000885D01*
X89108734Y-75043226D01*
X89104211Y-75050521D01*
X89104210Y-75050522D01*
X89085619Y-75080506D01*
X89078896Y-75090288D01*
X89052370Y-75125235D01*
X89049209Y-75133219D01*
X89046763Y-75139396D01*
X89036700Y-75159402D01*
X89033206Y-75165037D01*
X89033202Y-75165046D01*
X89028677Y-75172344D01*
X89026281Y-75180591D01*
X89016435Y-75214480D01*
X89012593Y-75225702D01*
X88996444Y-75266490D01*
X88995546Y-75275035D01*
X88994852Y-75281633D01*
X88990541Y-75303605D01*
X88986291Y-75318235D01*
X88985500Y-75329007D01*
X88985500Y-75364005D01*
X88984810Y-75377175D01*
X88980563Y-75417581D01*
X88983737Y-75436346D01*
X88985500Y-75457348D01*
X88985500Y-77164501D01*
X88965498Y-77232622D01*
X88911842Y-77279115D01*
X88859500Y-77290501D01*
X88614934Y-77290501D01*
X88579182Y-77297612D01*
X88552874Y-77302844D01*
X88552872Y-77302845D01*
X88540699Y-77305266D01*
X88530379Y-77312161D01*
X88530378Y-77312162D01*
X88469985Y-77352516D01*
X88456516Y-77361516D01*
X88400266Y-77445699D01*
X88385500Y-77519933D01*
X88385500Y-77764500D01*
X88365498Y-77832621D01*
X88311842Y-77879114D01*
X88259500Y-77890500D01*
X87560074Y-77890500D01*
X87554798Y-77890390D01*
X87492326Y-77887772D01*
X87483961Y-77889734D01*
X87449622Y-77897788D01*
X87437949Y-77899951D01*
X87427050Y-77901444D01*
X87394482Y-77905905D01*
X87381767Y-77911407D01*
X87380506Y-77911953D01*
X87359237Y-77918987D01*
X87344417Y-77922463D01*
X87305963Y-77943603D01*
X87295317Y-77948818D01*
X87262937Y-77962830D01*
X87262933Y-77962832D01*
X87255054Y-77966242D01*
X87248381Y-77971646D01*
X87248379Y-77971647D01*
X87243225Y-77975821D01*
X87224637Y-77988312D01*
X87211285Y-77995652D01*
X87206281Y-77999972D01*
X87204860Y-78001198D01*
X87204853Y-78001204D01*
X87203109Y-78002710D01*
X87178366Y-78027453D01*
X87168565Y-78036279D01*
X87143662Y-78056444D01*
X87143659Y-78056447D01*
X87136987Y-78061850D01*
X87125962Y-78077364D01*
X87112355Y-78093464D01*
X85958587Y-79247232D01*
X85954779Y-79250885D01*
X85908734Y-79293226D01*
X85904211Y-79300521D01*
X85904210Y-79300522D01*
X85885619Y-79330506D01*
X85878896Y-79340288D01*
X85852370Y-79375235D01*
X85849209Y-79383219D01*
X85846763Y-79389396D01*
X85836700Y-79409402D01*
X85833206Y-79415037D01*
X85833202Y-79415046D01*
X85828677Y-79422344D01*
X85826281Y-79430591D01*
X85816435Y-79464480D01*
X85812591Y-79475705D01*
X85807153Y-79489441D01*
X85763480Y-79545416D01*
X85696478Y-79568894D01*
X85627419Y-79552421D01*
X85578229Y-79501227D01*
X85564000Y-79443061D01*
X85564000Y-71952186D01*
X85951018Y-71952186D01*
X85976579Y-72220100D01*
X85977664Y-72224534D01*
X85977665Y-72224540D01*
X85989707Y-72273750D01*
X86040547Y-72481518D01*
X86141583Y-72730963D01*
X86277569Y-72963210D01*
X86311332Y-73005428D01*
X86435358Y-73160515D01*
X86445658Y-73173395D01*
X86642327Y-73357113D01*
X86863457Y-73510516D01*
X87104416Y-73630391D01*
X87108750Y-73631812D01*
X87108753Y-73631813D01*
X87355823Y-73712807D01*
X87355829Y-73712808D01*
X87360156Y-73714227D01*
X87364647Y-73715007D01*
X87364648Y-73715007D01*
X87621538Y-73759611D01*
X87621546Y-73759612D01*
X87625319Y-73760267D01*
X87629156Y-73760458D01*
X87708777Y-73764422D01*
X87708785Y-73764422D01*
X87710348Y-73764500D01*
X87878374Y-73764500D01*
X87880642Y-73764335D01*
X87880654Y-73764335D01*
X88025597Y-73753818D01*
X88078425Y-73749985D01*
X88082880Y-73749001D01*
X88082883Y-73749001D01*
X88336770Y-73692947D01*
X88336772Y-73692946D01*
X88341226Y-73691963D01*
X88592900Y-73596613D01*
X88602176Y-73591461D01*
X88824179Y-73468149D01*
X88824180Y-73468148D01*
X88828172Y-73465931D01*
X88929483Y-73388613D01*
X89038491Y-73305421D01*
X89038495Y-73305417D01*
X89042116Y-73302654D01*
X89230249Y-73110203D01*
X89302741Y-73010609D01*
X89385942Y-72896304D01*
X89385947Y-72896297D01*
X89388630Y-72892610D01*
X89513941Y-72654433D01*
X89603557Y-72400662D01*
X89632705Y-72252776D01*
X89654720Y-72141083D01*
X89654721Y-72141077D01*
X89655601Y-72136611D01*
X89663064Y-71986699D01*
X89668755Y-71872383D01*
X89668755Y-71872377D01*
X89668982Y-71867814D01*
X89666276Y-71839455D01*
X91794825Y-71839455D01*
X91795512Y-71846462D01*
X91795512Y-71846465D01*
X91799360Y-71885707D01*
X91811255Y-72007025D01*
X91864402Y-72166791D01*
X91868049Y-72172813D01*
X91868050Y-72172815D01*
X91938827Y-72289681D01*
X91951624Y-72310812D01*
X91956513Y-72315875D01*
X91956514Y-72315876D01*
X92027825Y-72389720D01*
X92068586Y-72431929D01*
X92074483Y-72435788D01*
X92203577Y-72520266D01*
X92203581Y-72520268D01*
X92209475Y-72524125D01*
X92367289Y-72582815D01*
X92374270Y-72583746D01*
X92374272Y-72583747D01*
X92419812Y-72589823D01*
X92534183Y-72605083D01*
X92541194Y-72604445D01*
X92541198Y-72604445D01*
X92694843Y-72590462D01*
X92701864Y-72589823D01*
X92708566Y-72587645D01*
X92708568Y-72587645D01*
X92855298Y-72539970D01*
X92855301Y-72539969D01*
X92861997Y-72537793D01*
X93006623Y-72451578D01*
X93011717Y-72446727D01*
X93011721Y-72446724D01*
X93123454Y-72340322D01*
X93123455Y-72340320D01*
X93128554Y-72335465D01*
X93144934Y-72310812D01*
X93202253Y-72224540D01*
X93221731Y-72195223D01*
X93281521Y-72037823D01*
X93298291Y-71918506D01*
X93304404Y-71875010D01*
X93304404Y-71875006D01*
X93304955Y-71871088D01*
X93305249Y-71850000D01*
X93297733Y-71782991D01*
X93287266Y-71689672D01*
X93287265Y-71689669D01*
X93286481Y-71682676D01*
X93231108Y-71523668D01*
X93141884Y-71380879D01*
X93133723Y-71372661D01*
X93028205Y-71266403D01*
X93028201Y-71266400D01*
X93023242Y-71261406D01*
X92985382Y-71237379D01*
X92967953Y-71226319D01*
X92881079Y-71171187D01*
X92722462Y-71114706D01*
X92715474Y-71113873D01*
X92715471Y-71113872D01*
X92622300Y-71102762D01*
X92555273Y-71094769D01*
X92548270Y-71095505D01*
X92548269Y-71095505D01*
X92502712Y-71100293D01*
X92387821Y-71112369D01*
X92381155Y-71114638D01*
X92381152Y-71114639D01*
X92235098Y-71164360D01*
X92235095Y-71164361D01*
X92228431Y-71166630D01*
X92222436Y-71170318D01*
X92222432Y-71170320D01*
X92091021Y-71251165D01*
X92091019Y-71251167D01*
X92085022Y-71254856D01*
X91964724Y-71372661D01*
X91873515Y-71514190D01*
X91871105Y-71520810D01*
X91871104Y-71520813D01*
X91857436Y-71558366D01*
X91815927Y-71672409D01*
X91794825Y-71839455D01*
X89666276Y-71839455D01*
X89643421Y-71599900D01*
X89640089Y-71586281D01*
X89580539Y-71342920D01*
X89579453Y-71338482D01*
X89478417Y-71089037D01*
X89342431Y-70856790D01*
X89174342Y-70646605D01*
X88977673Y-70462887D01*
X88756543Y-70309484D01*
X88515584Y-70189609D01*
X88511250Y-70188188D01*
X88511247Y-70188187D01*
X88264177Y-70107193D01*
X88264171Y-70107192D01*
X88259844Y-70105773D01*
X88255352Y-70104993D01*
X87998462Y-70060389D01*
X87998454Y-70060388D01*
X87994681Y-70059733D01*
X87984718Y-70059237D01*
X87911223Y-70055578D01*
X87911215Y-70055578D01*
X87909652Y-70055500D01*
X87741626Y-70055500D01*
X87739358Y-70055665D01*
X87739346Y-70055665D01*
X87608543Y-70065156D01*
X87541575Y-70070015D01*
X87537120Y-70070999D01*
X87537117Y-70070999D01*
X87283230Y-70127053D01*
X87283228Y-70127054D01*
X87278774Y-70128037D01*
X87027100Y-70223387D01*
X87023114Y-70225601D01*
X87023112Y-70225602D01*
X86891714Y-70298587D01*
X86791828Y-70354069D01*
X86788196Y-70356841D01*
X86581509Y-70514579D01*
X86581505Y-70514583D01*
X86577884Y-70517346D01*
X86389751Y-70709797D01*
X86385423Y-70715743D01*
X86234058Y-70923696D01*
X86234053Y-70923703D01*
X86231370Y-70927390D01*
X86106059Y-71165567D01*
X86016443Y-71419338D01*
X85995881Y-71523662D01*
X85967869Y-71665786D01*
X85964399Y-71683389D01*
X85964172Y-71687942D01*
X85964172Y-71687945D01*
X85951872Y-71935035D01*
X85951018Y-71952186D01*
X85564000Y-71952186D01*
X85564000Y-70947425D01*
X85566421Y-70922844D01*
X85566424Y-70922829D01*
X85568976Y-70910000D01*
X85566556Y-70897830D01*
X85566556Y-70885419D01*
X85567411Y-70885419D01*
X85566778Y-70874702D01*
X85568469Y-70853223D01*
X85578562Y-70724970D01*
X85581655Y-70705441D01*
X85622670Y-70534604D01*
X85628780Y-70515802D01*
X85696010Y-70353492D01*
X85704987Y-70335874D01*
X85796787Y-70186071D01*
X85808402Y-70170083D01*
X85922507Y-70036483D01*
X85936485Y-70022505D01*
X86009723Y-69959954D01*
X86070083Y-69908402D01*
X86086071Y-69896787D01*
X86235874Y-69804987D01*
X86253492Y-69796010D01*
X86415802Y-69728780D01*
X86434604Y-69722670D01*
X86605441Y-69681655D01*
X86624970Y-69678562D01*
X86667875Y-69675185D01*
X86774704Y-69666778D01*
X86785422Y-69667411D01*
X86785422Y-69666556D01*
X86797832Y-69666556D01*
X86810000Y-69668976D01*
X86822168Y-69666556D01*
X86822172Y-69666556D01*
X86822846Y-69666422D01*
X86847425Y-69664001D01*
X116173485Y-69664330D01*
G37*
%TD.AperFunction*%
%TA.AperFunction,Conductor*%
G36*
X121086250Y-71254502D02*
G01*
X121107224Y-71271405D01*
X121953595Y-72117776D01*
X121987621Y-72180088D01*
X121990500Y-72206871D01*
X121990500Y-72557961D01*
X121970498Y-72626082D01*
X121928923Y-72666246D01*
X121897978Y-72684656D01*
X121897977Y-72684657D01*
X121893010Y-72687612D01*
X121888670Y-72691418D01*
X121888666Y-72691421D01*
X121744733Y-72817648D01*
X121740392Y-72821455D01*
X121614720Y-72980869D01*
X121612031Y-72985980D01*
X121612029Y-72985983D01*
X121599073Y-73010609D01*
X121520203Y-73160515D01*
X121460007Y-73354378D01*
X121436148Y-73555964D01*
X121438791Y-73596291D01*
X121449038Y-73752625D01*
X121449424Y-73758522D01*
X121450845Y-73764118D01*
X121450846Y-73764123D01*
X121476936Y-73866850D01*
X121499392Y-73955269D01*
X121501809Y-73960512D01*
X121539010Y-74041208D01*
X121584377Y-74139616D01*
X121701533Y-74305389D01*
X121846938Y-74447035D01*
X122015720Y-74559812D01*
X122021023Y-74562090D01*
X122021026Y-74562092D01*
X122196921Y-74637662D01*
X122202228Y-74639942D01*
X122275244Y-74656464D01*
X122394579Y-74683467D01*
X122394584Y-74683468D01*
X122400216Y-74684742D01*
X122405987Y-74684969D01*
X122405989Y-74684969D01*
X122465756Y-74687317D01*
X122603053Y-74692712D01*
X122608762Y-74691884D01*
X122608767Y-74691884D01*
X122687951Y-74680402D01*
X122772404Y-74668157D01*
X122842687Y-74678177D01*
X122879577Y-74703758D01*
X124448595Y-76272776D01*
X124482621Y-76335088D01*
X124485500Y-76361871D01*
X124485500Y-77164501D01*
X124465498Y-77232622D01*
X124411842Y-77279115D01*
X124359500Y-77290501D01*
X124114934Y-77290501D01*
X124079182Y-77297612D01*
X124052874Y-77302844D01*
X124052872Y-77302845D01*
X124040699Y-77305266D01*
X124030379Y-77312161D01*
X124030378Y-77312162D01*
X123969985Y-77352516D01*
X123956516Y-77361516D01*
X123900266Y-77445699D01*
X123885500Y-77519933D01*
X123885501Y-79370066D01*
X123889346Y-79389396D01*
X123894446Y-79415037D01*
X123900266Y-79444301D01*
X123956516Y-79528484D01*
X124040699Y-79584734D01*
X124114933Y-79599500D01*
X124808089Y-79599500D01*
X124876210Y-79619502D01*
X124922703Y-79673158D01*
X124932807Y-79743432D01*
X124903313Y-79808012D01*
X124843587Y-79846396D01*
X124829432Y-79849679D01*
X124762858Y-79861118D01*
X124747537Y-79863751D01*
X124739913Y-79865061D01*
X124540846Y-79938501D01*
X124535885Y-79941453D01*
X124535884Y-79941453D01*
X124363463Y-80044032D01*
X124363460Y-80044034D01*
X124358495Y-80046988D01*
X124354155Y-80050794D01*
X124354151Y-80050797D01*
X124288060Y-80108758D01*
X124198968Y-80186890D01*
X124195393Y-80191425D01*
X124195392Y-80191426D01*
X124073639Y-80345869D01*
X124067607Y-80353520D01*
X123968812Y-80541299D01*
X123967100Y-80546813D01*
X123913153Y-80720552D01*
X123905891Y-80743938D01*
X123880951Y-80954649D01*
X123894829Y-81166377D01*
X123947058Y-81372031D01*
X123949477Y-81377278D01*
X123952533Y-81383908D01*
X123962885Y-81454146D01*
X123933620Y-81518830D01*
X123927201Y-81525750D01*
X123495156Y-81957794D01*
X123084354Y-82368596D01*
X123022042Y-82402621D01*
X122995259Y-82405500D01*
X119844739Y-82405500D01*
X119776618Y-82385498D01*
X119755644Y-82368595D01*
X119715723Y-82328674D01*
X119634458Y-82287267D01*
X119582843Y-82238518D01*
X119565777Y-82169603D01*
X119588678Y-82102402D01*
X119634458Y-82062733D01*
X119667172Y-82046064D01*
X119715723Y-82021326D01*
X119806326Y-81930723D01*
X119864498Y-81816555D01*
X119879500Y-81721834D01*
X119879500Y-81358166D01*
X119864498Y-81263445D01*
X119806326Y-81149277D01*
X119715723Y-81058674D01*
X119634458Y-81017267D01*
X119582843Y-80968518D01*
X119565777Y-80899603D01*
X119588678Y-80832402D01*
X119634458Y-80792733D01*
X119648337Y-80785661D01*
X119715723Y-80751326D01*
X119806326Y-80660723D01*
X119864498Y-80546555D01*
X119879500Y-80451834D01*
X119879500Y-80088166D01*
X119864498Y-79993445D01*
X119806326Y-79879277D01*
X119715723Y-79788674D01*
X119601555Y-79730502D01*
X119506834Y-79715500D01*
X119180500Y-79715500D01*
X119112379Y-79695498D01*
X119065886Y-79641842D01*
X119054500Y-79589500D01*
X119054500Y-76695934D01*
X119047605Y-76674713D01*
X119042989Y-76655487D01*
X119041049Y-76643238D01*
X119039498Y-76633445D01*
X119029366Y-76613561D01*
X119021801Y-76595295D01*
X119017970Y-76583504D01*
X119014905Y-76574071D01*
X119001784Y-76556011D01*
X118991454Y-76539154D01*
X118989089Y-76534513D01*
X118981326Y-76519277D01*
X118958538Y-76496489D01*
X118958535Y-76496485D01*
X117906405Y-75444355D01*
X117872379Y-75382043D01*
X117869500Y-75355260D01*
X117869500Y-74698317D01*
X117889502Y-74630196D01*
X117933934Y-74588383D01*
X117990683Y-74556602D01*
X118093276Y-74499147D01*
X118132969Y-74466135D01*
X118244913Y-74373031D01*
X118249345Y-74369345D01*
X118379147Y-74213276D01*
X118478334Y-74036165D01*
X118480190Y-74030698D01*
X118480192Y-74030693D01*
X118541728Y-73849414D01*
X118541729Y-73849409D01*
X118543584Y-73843945D01*
X118544412Y-73838236D01*
X118544413Y-73838231D01*
X118564051Y-73702789D01*
X118572712Y-73643053D01*
X118574232Y-73585000D01*
X118555658Y-73382859D01*
X118554090Y-73377299D01*
X118502125Y-73193046D01*
X118502124Y-73193044D01*
X118500557Y-73187487D01*
X118491850Y-73169829D01*
X118413331Y-73010609D01*
X118410776Y-73005428D01*
X118289320Y-72842779D01*
X118140258Y-72704987D01*
X118135375Y-72701906D01*
X118135371Y-72701903D01*
X117973464Y-72599748D01*
X117968581Y-72596667D01*
X117780039Y-72521446D01*
X117774379Y-72520320D01*
X117774375Y-72520319D01*
X117586613Y-72482971D01*
X117586610Y-72482971D01*
X117580946Y-72481844D01*
X117575171Y-72481768D01*
X117575167Y-72481768D01*
X117473793Y-72480441D01*
X117377971Y-72479187D01*
X117372274Y-72480166D01*
X117372273Y-72480166D01*
X117284397Y-72495266D01*
X117177910Y-72513564D01*
X116987463Y-72583824D01*
X116982502Y-72586776D01*
X116982501Y-72586776D01*
X116976305Y-72590462D01*
X116813010Y-72687612D01*
X116808670Y-72691418D01*
X116808666Y-72691421D01*
X116664733Y-72817648D01*
X116660392Y-72821455D01*
X116534720Y-72980869D01*
X116532031Y-72985980D01*
X116532029Y-72985983D01*
X116519073Y-73010609D01*
X116440203Y-73160515D01*
X116380007Y-73354378D01*
X116356148Y-73555964D01*
X116358791Y-73596291D01*
X116369038Y-73752625D01*
X116369424Y-73758522D01*
X116370845Y-73764118D01*
X116370846Y-73764123D01*
X116396936Y-73866850D01*
X116419392Y-73955269D01*
X116421809Y-73960512D01*
X116459010Y-74041208D01*
X116504377Y-74139616D01*
X116621533Y-74305389D01*
X116766938Y-74447035D01*
X116935720Y-74559812D01*
X116941023Y-74562090D01*
X116941026Y-74562092D01*
X116984238Y-74580657D01*
X117038931Y-74625925D01*
X117060500Y-74696425D01*
X117060500Y-75639066D01*
X117063565Y-75648498D01*
X117063565Y-75648500D01*
X117067395Y-75660287D01*
X117072011Y-75679513D01*
X117075502Y-75701555D01*
X117080003Y-75710388D01*
X117085633Y-75721438D01*
X117093199Y-75739704D01*
X117100095Y-75760929D01*
X117105925Y-75768953D01*
X117113216Y-75778989D01*
X117123545Y-75795844D01*
X117133674Y-75815723D01*
X117156462Y-75838511D01*
X117156465Y-75838515D01*
X118208595Y-76890645D01*
X118242621Y-76952957D01*
X118245500Y-76979740D01*
X118245500Y-79589500D01*
X118225498Y-79657621D01*
X118171842Y-79704114D01*
X118119500Y-79715500D01*
X117793166Y-79715500D01*
X117698445Y-79730502D01*
X117689612Y-79735003D01*
X117689611Y-79735003D01*
X117597214Y-79782082D01*
X117527437Y-79795186D01*
X117461653Y-79768486D01*
X117420746Y-79710459D01*
X117414011Y-79669815D01*
X117414011Y-78401262D01*
X117414010Y-78401256D01*
X117414010Y-78369030D01*
X117407117Y-78347814D01*
X117402501Y-78328589D01*
X117400560Y-78316337D01*
X117399009Y-78306541D01*
X117388877Y-78286656D01*
X117381312Y-78268392D01*
X117377481Y-78256603D01*
X117377480Y-78256602D01*
X117374415Y-78247167D01*
X117361302Y-78229118D01*
X117350968Y-78212257D01*
X117345337Y-78201205D01*
X117340837Y-78192373D01*
X117250234Y-78101770D01*
X115844399Y-76695934D01*
X115366405Y-76217939D01*
X115332379Y-76155627D01*
X115329500Y-76128844D01*
X115329500Y-74698317D01*
X115349502Y-74630196D01*
X115393934Y-74588383D01*
X115450683Y-74556602D01*
X115553276Y-74499147D01*
X115592969Y-74466135D01*
X115704913Y-74373031D01*
X115709345Y-74369345D01*
X115839147Y-74213276D01*
X115938334Y-74036165D01*
X115940190Y-74030698D01*
X115940192Y-74030693D01*
X116001728Y-73849414D01*
X116001729Y-73849409D01*
X116003584Y-73843945D01*
X116004412Y-73838236D01*
X116004413Y-73838231D01*
X116024051Y-73702789D01*
X116032712Y-73643053D01*
X116034232Y-73585000D01*
X116015658Y-73382859D01*
X116014090Y-73377299D01*
X115962125Y-73193046D01*
X115962124Y-73193044D01*
X115960557Y-73187487D01*
X115951850Y-73169829D01*
X115873331Y-73010609D01*
X115870776Y-73005428D01*
X115749320Y-72842779D01*
X115600258Y-72704987D01*
X115595375Y-72701906D01*
X115595371Y-72701903D01*
X115433464Y-72599748D01*
X115428581Y-72596667D01*
X115240039Y-72521446D01*
X115234379Y-72520320D01*
X115234375Y-72520319D01*
X115046613Y-72482971D01*
X115046610Y-72482971D01*
X115040946Y-72481844D01*
X115035171Y-72481768D01*
X115035167Y-72481768D01*
X114933793Y-72480441D01*
X114837971Y-72479187D01*
X114832274Y-72480166D01*
X114832273Y-72480166D01*
X114744397Y-72495266D01*
X114637910Y-72513564D01*
X114447463Y-72583824D01*
X114442502Y-72586776D01*
X114442501Y-72586776D01*
X114436305Y-72590462D01*
X114273010Y-72687612D01*
X114268670Y-72691418D01*
X114268666Y-72691421D01*
X114124733Y-72817648D01*
X114120392Y-72821455D01*
X113994720Y-72980869D01*
X113992031Y-72985980D01*
X113992029Y-72985983D01*
X113979073Y-73010609D01*
X113900203Y-73160515D01*
X113840007Y-73354378D01*
X113816148Y-73555964D01*
X113818791Y-73596291D01*
X113829038Y-73752625D01*
X113829424Y-73758522D01*
X113830845Y-73764118D01*
X113830846Y-73764123D01*
X113856936Y-73866850D01*
X113879392Y-73955269D01*
X113881809Y-73960512D01*
X113919010Y-74041208D01*
X113964377Y-74139616D01*
X114081533Y-74305389D01*
X114226938Y-74447035D01*
X114395720Y-74559812D01*
X114401023Y-74562090D01*
X114401026Y-74562092D01*
X114444238Y-74580657D01*
X114498931Y-74625925D01*
X114520500Y-74696425D01*
X114520500Y-76254260D01*
X114500498Y-76322381D01*
X114446842Y-76368874D01*
X114376568Y-76378978D01*
X114311988Y-76349484D01*
X114305405Y-76343355D01*
X112826405Y-74864355D01*
X112792379Y-74802043D01*
X112789500Y-74775260D01*
X112789500Y-74698317D01*
X112809502Y-74630196D01*
X112853934Y-74588383D01*
X112910683Y-74556602D01*
X113013276Y-74499147D01*
X113052969Y-74466135D01*
X113164913Y-74373031D01*
X113169345Y-74369345D01*
X113299147Y-74213276D01*
X113398334Y-74036165D01*
X113400190Y-74030698D01*
X113400192Y-74030693D01*
X113461728Y-73849414D01*
X113461729Y-73849409D01*
X113463584Y-73843945D01*
X113464412Y-73838236D01*
X113464413Y-73838231D01*
X113484051Y-73702789D01*
X113492712Y-73643053D01*
X113494232Y-73585000D01*
X113475658Y-73382859D01*
X113474090Y-73377299D01*
X113422125Y-73193046D01*
X113422124Y-73193044D01*
X113420557Y-73187487D01*
X113411850Y-73169829D01*
X113333331Y-73010609D01*
X113330776Y-73005428D01*
X113209320Y-72842779D01*
X113060258Y-72704987D01*
X113055375Y-72701906D01*
X113055371Y-72701903D01*
X112893464Y-72599748D01*
X112888581Y-72596667D01*
X112700039Y-72521446D01*
X112694379Y-72520320D01*
X112694375Y-72520319D01*
X112506613Y-72482971D01*
X112506610Y-72482971D01*
X112500946Y-72481844D01*
X112495171Y-72481768D01*
X112495167Y-72481768D01*
X112393793Y-72480441D01*
X112297971Y-72479187D01*
X112292274Y-72480166D01*
X112292273Y-72480166D01*
X112204397Y-72495266D01*
X112097910Y-72513564D01*
X111907463Y-72583824D01*
X111902502Y-72586776D01*
X111902501Y-72586776D01*
X111896305Y-72590462D01*
X111733010Y-72687612D01*
X111728670Y-72691418D01*
X111728666Y-72691421D01*
X111584733Y-72817648D01*
X111580392Y-72821455D01*
X111454720Y-72980869D01*
X111452031Y-72985980D01*
X111452029Y-72985983D01*
X111439073Y-73010609D01*
X111360203Y-73160515D01*
X111300007Y-73354378D01*
X111276148Y-73555964D01*
X111278791Y-73596291D01*
X111289038Y-73752625D01*
X111289424Y-73758522D01*
X111290845Y-73764118D01*
X111290846Y-73764123D01*
X111316936Y-73866850D01*
X111339392Y-73955269D01*
X111341809Y-73960512D01*
X111379010Y-74041208D01*
X111424377Y-74139616D01*
X111541533Y-74305389D01*
X111686938Y-74447035D01*
X111855720Y-74559812D01*
X111861023Y-74562090D01*
X111861026Y-74562092D01*
X111904238Y-74580657D01*
X111958931Y-74625925D01*
X111980500Y-74696425D01*
X111980500Y-75059066D01*
X111983565Y-75068498D01*
X111983565Y-75068500D01*
X111987395Y-75080287D01*
X111992011Y-75099513D01*
X111995502Y-75121555D01*
X112005633Y-75141438D01*
X112013199Y-75159704D01*
X112020095Y-75180929D01*
X112025925Y-75188953D01*
X112033216Y-75198989D01*
X112043545Y-75215844D01*
X112053674Y-75235723D01*
X112076462Y-75258511D01*
X112076465Y-75258515D01*
X116068595Y-79250645D01*
X116102621Y-79312957D01*
X116105500Y-79339740D01*
X116105500Y-84720260D01*
X116085498Y-84788381D01*
X116068595Y-84809355D01*
X115121040Y-85756910D01*
X115058728Y-85790936D01*
X114987913Y-85785871D01*
X114931077Y-85743324D01*
X114906266Y-85676804D01*
X114911734Y-85631980D01*
X114914498Y-85626555D01*
X114929500Y-85531834D01*
X114929500Y-85168166D01*
X114914498Y-85073445D01*
X114856326Y-84959277D01*
X114765723Y-84868674D01*
X114651555Y-84810502D01*
X114556834Y-84795500D01*
X112843166Y-84795500D01*
X112748445Y-84810502D01*
X112634277Y-84868674D01*
X112594356Y-84908595D01*
X112532044Y-84942621D01*
X112505261Y-84945500D01*
X112379740Y-84945500D01*
X112311619Y-84925498D01*
X112290645Y-84908595D01*
X111683515Y-84301465D01*
X111683511Y-84301462D01*
X111660723Y-84278674D01*
X111640844Y-84268545D01*
X111623989Y-84258216D01*
X111613953Y-84250925D01*
X111605929Y-84245095D01*
X111584704Y-84238199D01*
X111566438Y-84230633D01*
X111546555Y-84220502D01*
X111524513Y-84217011D01*
X111505287Y-84212395D01*
X111493500Y-84208565D01*
X111493498Y-84208565D01*
X111484066Y-84205500D01*
X97199740Y-84205500D01*
X97131619Y-84185498D01*
X97110645Y-84168595D01*
X94976517Y-82034467D01*
X94942491Y-81972155D01*
X94947556Y-81901340D01*
X94955090Y-81884867D01*
X94956691Y-81881943D01*
X94962071Y-81874764D01*
X95005270Y-81759529D01*
X95010026Y-81746843D01*
X95010026Y-81746841D01*
X95012798Y-81739448D01*
X95013678Y-81731353D01*
X95019131Y-81681153D01*
X95019131Y-81681152D01*
X95019500Y-81677756D01*
X95019500Y-80782244D01*
X95014739Y-80738421D01*
X95013651Y-80728403D01*
X95013651Y-80728402D01*
X95012798Y-80720552D01*
X94962071Y-80585236D01*
X94956691Y-80578057D01*
X94956689Y-80578054D01*
X94880785Y-80476776D01*
X94875404Y-80469596D01*
X94845094Y-80446880D01*
X94766946Y-80388311D01*
X94766943Y-80388309D01*
X94759764Y-80382929D01*
X94659921Y-80345500D01*
X94631843Y-80334974D01*
X94631841Y-80334974D01*
X94624448Y-80332202D01*
X94616598Y-80331349D01*
X94616597Y-80331349D01*
X94566153Y-80325869D01*
X94566152Y-80325869D01*
X94562756Y-80325500D01*
X93217244Y-80325500D01*
X93213848Y-80325869D01*
X93213847Y-80325869D01*
X93163403Y-80331349D01*
X93163402Y-80331349D01*
X93155552Y-80332202D01*
X93148159Y-80334974D01*
X93148157Y-80334974D01*
X93120079Y-80345500D01*
X93020236Y-80382929D01*
X93013057Y-80388309D01*
X93013054Y-80388311D01*
X92934906Y-80446880D01*
X92904596Y-80469596D01*
X92899215Y-80476776D01*
X92823311Y-80578054D01*
X92823309Y-80578057D01*
X92817929Y-80585236D01*
X92767202Y-80720552D01*
X92766349Y-80728402D01*
X92766291Y-80728647D01*
X92731073Y-80790293D01*
X92668118Y-80823113D01*
X92643709Y-80825500D01*
X90790017Y-80825500D01*
X90721896Y-80805498D01*
X90675403Y-80751842D01*
X90668748Y-80733701D01*
X90624005Y-80575053D01*
X90624003Y-80575047D01*
X90622436Y-80569492D01*
X90606296Y-80536762D01*
X90531145Y-80384372D01*
X90528590Y-80379191D01*
X90507800Y-80351349D01*
X90405089Y-80213803D01*
X90405088Y-80213802D01*
X90401636Y-80209179D01*
X90397400Y-80205263D01*
X90250066Y-80069069D01*
X90250063Y-80069067D01*
X90245826Y-80065150D01*
X90066377Y-79951926D01*
X89869300Y-79873300D01*
X89863640Y-79872174D01*
X89863636Y-79872173D01*
X89747528Y-79849078D01*
X89684618Y-79816170D01*
X89649486Y-79754475D01*
X89653286Y-79683581D01*
X89694812Y-79625995D01*
X89760878Y-79600000D01*
X89772101Y-79599499D01*
X90465066Y-79599499D01*
X90500818Y-79592388D01*
X90527126Y-79587156D01*
X90527128Y-79587155D01*
X90539301Y-79584734D01*
X90549621Y-79577839D01*
X90549622Y-79577838D01*
X90613168Y-79535377D01*
X90623484Y-79528484D01*
X90679734Y-79444301D01*
X90694500Y-79370067D01*
X90694499Y-77519934D01*
X90679734Y-77445699D01*
X90623484Y-77361516D01*
X90539301Y-77305266D01*
X90465067Y-77290500D01*
X90220500Y-77290500D01*
X90152379Y-77270498D01*
X90105886Y-77216842D01*
X90094500Y-77164500D01*
X90094500Y-75681871D01*
X90114502Y-75613750D01*
X90131405Y-75592776D01*
X90982776Y-74741405D01*
X91045088Y-74707379D01*
X91071871Y-74704500D01*
X105248129Y-74704500D01*
X105316250Y-74724502D01*
X105337224Y-74741405D01*
X106698595Y-76102776D01*
X106732621Y-76165088D01*
X106735500Y-76191871D01*
X106735500Y-77164501D01*
X106715498Y-77232622D01*
X106661842Y-77279115D01*
X106609500Y-77290501D01*
X106364934Y-77290501D01*
X106329182Y-77297612D01*
X106302874Y-77302844D01*
X106302872Y-77302845D01*
X106290699Y-77305266D01*
X106280379Y-77312161D01*
X106280378Y-77312162D01*
X106219985Y-77352516D01*
X106206516Y-77361516D01*
X106150266Y-77445699D01*
X106135500Y-77519933D01*
X106135501Y-79370066D01*
X106139346Y-79389396D01*
X106144446Y-79415037D01*
X106150266Y-79444301D01*
X106206516Y-79528484D01*
X106290699Y-79584734D01*
X106364933Y-79599500D01*
X107058089Y-79599500D01*
X107126210Y-79619502D01*
X107172703Y-79673158D01*
X107182807Y-79743432D01*
X107153313Y-79808012D01*
X107093587Y-79846396D01*
X107079432Y-79849679D01*
X107012858Y-79861118D01*
X106997537Y-79863751D01*
X106989913Y-79865061D01*
X106790846Y-79938501D01*
X106785885Y-79941453D01*
X106785884Y-79941453D01*
X106613463Y-80044032D01*
X106613460Y-80044034D01*
X106608495Y-80046988D01*
X106604155Y-80050794D01*
X106604151Y-80050797D01*
X106538060Y-80108758D01*
X106448968Y-80186890D01*
X106445393Y-80191425D01*
X106445392Y-80191426D01*
X106323639Y-80345869D01*
X106317607Y-80353520D01*
X106218812Y-80541299D01*
X106217100Y-80546813D01*
X106159070Y-80733701D01*
X106155891Y-80743938D01*
X106155213Y-80749664D01*
X106154010Y-80755325D01*
X106151374Y-80754765D01*
X106128008Y-80809569D01*
X106069275Y-80849456D01*
X106030720Y-80855500D01*
X104166224Y-80855500D01*
X104098103Y-80835498D01*
X104051610Y-80781842D01*
X104040961Y-80743106D01*
X104039364Y-80728403D01*
X104039364Y-80728402D01*
X104038511Y-80720552D01*
X103987784Y-80585236D01*
X103982404Y-80578057D01*
X103982402Y-80578054D01*
X103906498Y-80476776D01*
X103901117Y-80469596D01*
X103870807Y-80446880D01*
X103792659Y-80388311D01*
X103792656Y-80388309D01*
X103785477Y-80382929D01*
X103685634Y-80345500D01*
X103657556Y-80334974D01*
X103657554Y-80334974D01*
X103650161Y-80332202D01*
X103642311Y-80331349D01*
X103642310Y-80331349D01*
X103591866Y-80325869D01*
X103591865Y-80325869D01*
X103588469Y-80325500D01*
X102242957Y-80325500D01*
X102239561Y-80325869D01*
X102239560Y-80325869D01*
X102189116Y-80331349D01*
X102189115Y-80331349D01*
X102181265Y-80332202D01*
X102173872Y-80334974D01*
X102173870Y-80334974D01*
X102145792Y-80345500D01*
X102045949Y-80382929D01*
X102038770Y-80388309D01*
X102038767Y-80388311D01*
X101960619Y-80446880D01*
X101930309Y-80469596D01*
X101924928Y-80476776D01*
X101849024Y-80578054D01*
X101849022Y-80578057D01*
X101843642Y-80585236D01*
X101792915Y-80720552D01*
X101792062Y-80728402D01*
X101792062Y-80728403D01*
X101790974Y-80738421D01*
X101786213Y-80782244D01*
X101786213Y-81677756D01*
X101786582Y-81681152D01*
X101786582Y-81681153D01*
X101792036Y-81731353D01*
X101792915Y-81739448D01*
X101795687Y-81746841D01*
X101795687Y-81746843D01*
X101800443Y-81759529D01*
X101843642Y-81874764D01*
X101849022Y-81881943D01*
X101849024Y-81881946D01*
X101895049Y-81943357D01*
X101930309Y-81990404D01*
X101937489Y-81995785D01*
X102038767Y-82071689D01*
X102038770Y-82071691D01*
X102045949Y-82077071D01*
X102135266Y-82110554D01*
X102173870Y-82125026D01*
X102173872Y-82125026D01*
X102181265Y-82127798D01*
X102189115Y-82128651D01*
X102189116Y-82128651D01*
X102231469Y-82133252D01*
X102242957Y-82134500D01*
X103588469Y-82134500D01*
X103599957Y-82133252D01*
X103642310Y-82128651D01*
X103642311Y-82128651D01*
X103650161Y-82127798D01*
X103657554Y-82125026D01*
X103657556Y-82125026D01*
X103696160Y-82110554D01*
X103785477Y-82077071D01*
X103792656Y-82071691D01*
X103792659Y-82071689D01*
X103893937Y-81995785D01*
X103901117Y-81990404D01*
X103936377Y-81943357D01*
X103982402Y-81881946D01*
X103982404Y-81881943D01*
X103987784Y-81874764D01*
X104035953Y-81746270D01*
X104078594Y-81689506D01*
X104145155Y-81664806D01*
X104153935Y-81664500D01*
X106291162Y-81664500D01*
X106359283Y-81684502D01*
X106394058Y-81717779D01*
X106405012Y-81733279D01*
X106405021Y-81733289D01*
X106408350Y-81738000D01*
X106422057Y-81751353D01*
X106480765Y-81808543D01*
X106560337Y-81886059D01*
X106565133Y-81889264D01*
X106565136Y-81889266D01*
X106667696Y-81957794D01*
X106736760Y-82003941D01*
X106742063Y-82006219D01*
X106742066Y-82006221D01*
X106926404Y-82085419D01*
X106931711Y-82087699D01*
X106987051Y-82100221D01*
X107133025Y-82133252D01*
X107133030Y-82133253D01*
X107138662Y-82134527D01*
X107144433Y-82134754D01*
X107144435Y-82134754D01*
X107209911Y-82137326D01*
X107350681Y-82142857D01*
X107455674Y-82127634D01*
X107554953Y-82113239D01*
X107554958Y-82113238D01*
X107560667Y-82112410D01*
X107566131Y-82110555D01*
X107566136Y-82110554D01*
X107655494Y-82080221D01*
X107699020Y-82065446D01*
X107769954Y-82062490D01*
X107828615Y-82095664D01*
X108874277Y-83141326D01*
X108894160Y-83151457D01*
X108911013Y-83161784D01*
X108929071Y-83174905D01*
X108950295Y-83181801D01*
X108968561Y-83189366D01*
X108988445Y-83199498D01*
X108998238Y-83201049D01*
X109010487Y-83202989D01*
X109029713Y-83207605D01*
X109041500Y-83211435D01*
X109041502Y-83211435D01*
X109050934Y-83214500D01*
X112505261Y-83214500D01*
X112573382Y-83234502D01*
X112594356Y-83251405D01*
X112634277Y-83291326D01*
X112748445Y-83349498D01*
X112843166Y-83364500D01*
X114556834Y-83364500D01*
X114651555Y-83349498D01*
X114765723Y-83291326D01*
X114856326Y-83200723D01*
X114914498Y-83086555D01*
X114929500Y-82991834D01*
X114929500Y-82628166D01*
X114914498Y-82533445D01*
X114856326Y-82419277D01*
X114765723Y-82328674D01*
X114684458Y-82287267D01*
X114632843Y-82238518D01*
X114615777Y-82169603D01*
X114638678Y-82102402D01*
X114684458Y-82062733D01*
X114717172Y-82046064D01*
X114765723Y-82021326D01*
X114856326Y-81930723D01*
X114914498Y-81816555D01*
X114929500Y-81721834D01*
X114929500Y-81358166D01*
X114914498Y-81263445D01*
X114856326Y-81149277D01*
X114765723Y-81058674D01*
X114684458Y-81017267D01*
X114632843Y-80968518D01*
X114615777Y-80899603D01*
X114638678Y-80832402D01*
X114684458Y-80792733D01*
X114698337Y-80785661D01*
X114765723Y-80751326D01*
X114856326Y-80660723D01*
X114914498Y-80546555D01*
X114929500Y-80451834D01*
X114929500Y-80088166D01*
X114914498Y-79993445D01*
X114856326Y-79879277D01*
X114765723Y-79788674D01*
X114651555Y-79730502D01*
X114556834Y-79715500D01*
X113769740Y-79715500D01*
X113701619Y-79695498D01*
X113680645Y-79678595D01*
X110286405Y-76284355D01*
X110252379Y-76222043D01*
X110249500Y-76195260D01*
X110249500Y-74815499D01*
X110269502Y-74747378D01*
X110323158Y-74700885D01*
X110375500Y-74689499D01*
X110720066Y-74689499D01*
X110755818Y-74682388D01*
X110782126Y-74677156D01*
X110782128Y-74677155D01*
X110794301Y-74674734D01*
X110804621Y-74667839D01*
X110804622Y-74667838D01*
X110868168Y-74625377D01*
X110878484Y-74618484D01*
X110934734Y-74534301D01*
X110949500Y-74460067D01*
X110949499Y-72709934D01*
X110940735Y-72665872D01*
X110937156Y-72647874D01*
X110937155Y-72647872D01*
X110934734Y-72635699D01*
X110913851Y-72604445D01*
X110885377Y-72561832D01*
X110878484Y-72551516D01*
X110794301Y-72495266D01*
X110720067Y-72480500D01*
X109845142Y-72480500D01*
X108969934Y-72480501D01*
X108934182Y-72487612D01*
X108907874Y-72492844D01*
X108907872Y-72492845D01*
X108895699Y-72495266D01*
X108885379Y-72502161D01*
X108885378Y-72502162D01*
X108852509Y-72524125D01*
X108811516Y-72551516D01*
X108755266Y-72635699D01*
X108740500Y-72709933D01*
X108740501Y-74460066D01*
X108755266Y-74534301D01*
X108762161Y-74544620D01*
X108762162Y-74544622D01*
X108780001Y-74571319D01*
X108811516Y-74618484D01*
X108895699Y-74674734D01*
X108969933Y-74689500D01*
X109314500Y-74689500D01*
X109382621Y-74709502D01*
X109429114Y-74763158D01*
X109440500Y-74815499D01*
X109440500Y-76479066D01*
X109443565Y-76488498D01*
X109443565Y-76488500D01*
X109447395Y-76500287D01*
X109452011Y-76519513D01*
X109455502Y-76541555D01*
X109460003Y-76550388D01*
X109465633Y-76561438D01*
X109473199Y-76579704D01*
X109480095Y-76600929D01*
X109489273Y-76613562D01*
X109493216Y-76618989D01*
X109503545Y-76635844D01*
X109513674Y-76655723D01*
X109536462Y-76678511D01*
X109536465Y-76678515D01*
X112551356Y-79693406D01*
X112585382Y-79755718D01*
X112580317Y-79826533D01*
X112556217Y-79864030D01*
X112556513Y-79864245D01*
X112552757Y-79869415D01*
X112551355Y-79871596D01*
X112543674Y-79879277D01*
X112485502Y-79993445D01*
X112470500Y-80088166D01*
X112470500Y-80451834D01*
X112485502Y-80546555D01*
X112543674Y-80660723D01*
X112634277Y-80751326D01*
X112701663Y-80785661D01*
X112715542Y-80792733D01*
X112767157Y-80841482D01*
X112784223Y-80910397D01*
X112761322Y-80977598D01*
X112715542Y-81017267D01*
X112634277Y-81058674D01*
X112543674Y-81149277D01*
X112485502Y-81263445D01*
X112470500Y-81358166D01*
X112470500Y-81721834D01*
X112485502Y-81816555D01*
X112543674Y-81930723D01*
X112634277Y-82021326D01*
X112682828Y-82046064D01*
X112715542Y-82062733D01*
X112767157Y-82111482D01*
X112784223Y-82180397D01*
X112761322Y-82247598D01*
X112715542Y-82287267D01*
X112634277Y-82328674D01*
X112594356Y-82368595D01*
X112532044Y-82402621D01*
X112505261Y-82405500D01*
X109334739Y-82405500D01*
X109266618Y-82385498D01*
X109245644Y-82368595D01*
X108400664Y-81523615D01*
X108366638Y-81461303D01*
X108370446Y-81394019D01*
X108373879Y-81383908D01*
X108417410Y-81255667D01*
X108429545Y-81171979D01*
X108436669Y-81122840D01*
X108447857Y-81045681D01*
X108449446Y-80985000D01*
X108436259Y-80841482D01*
X108430560Y-80779462D01*
X108430559Y-80779459D01*
X108430031Y-80773708D01*
X108424847Y-80755325D01*
X108374004Y-80575051D01*
X108374003Y-80575049D01*
X108372436Y-80569492D01*
X108356296Y-80536762D01*
X108281145Y-80384372D01*
X108278590Y-80379191D01*
X108257800Y-80351349D01*
X108155089Y-80213803D01*
X108155088Y-80213802D01*
X108151636Y-80209179D01*
X108147400Y-80205263D01*
X108000066Y-80069069D01*
X108000063Y-80069067D01*
X107995826Y-80065150D01*
X107816377Y-79951926D01*
X107619300Y-79873300D01*
X107613640Y-79872174D01*
X107613636Y-79872173D01*
X107497528Y-79849078D01*
X107434618Y-79816170D01*
X107399486Y-79754475D01*
X107403286Y-79683581D01*
X107444812Y-79625995D01*
X107510878Y-79600000D01*
X107522101Y-79599499D01*
X108215066Y-79599499D01*
X108250818Y-79592388D01*
X108277126Y-79587156D01*
X108277128Y-79587155D01*
X108289301Y-79584734D01*
X108299621Y-79577839D01*
X108299622Y-79577838D01*
X108363168Y-79535377D01*
X108373484Y-79528484D01*
X108429734Y-79444301D01*
X108444500Y-79370067D01*
X108444499Y-77519934D01*
X108429734Y-77445699D01*
X108373484Y-77361516D01*
X108289301Y-77305266D01*
X108215067Y-77290500D01*
X107970500Y-77290500D01*
X107902379Y-77270498D01*
X107855886Y-77216842D01*
X107844500Y-77164500D01*
X107844500Y-75925065D01*
X107844611Y-75919789D01*
X107846869Y-75865910D01*
X107847229Y-75857326D01*
X107845268Y-75848964D01*
X107845059Y-75846756D01*
X107844500Y-75834901D01*
X107844500Y-72341871D01*
X107864502Y-72273750D01*
X107881405Y-72252776D01*
X108862776Y-71271405D01*
X108925088Y-71237379D01*
X108951871Y-71234500D01*
X121018129Y-71234500D01*
X121086250Y-71254502D01*
G37*
%TD.AperFunction*%
%TA.AperFunction,Conductor*%
G36*
X140856250Y-74824502D02*
G01*
X140877224Y-74841405D01*
X142198595Y-76162777D01*
X142232621Y-76225089D01*
X142235500Y-76251872D01*
X142235500Y-77164501D01*
X142215498Y-77232622D01*
X142161842Y-77279115D01*
X142109500Y-77290501D01*
X141864934Y-77290501D01*
X141829182Y-77297612D01*
X141802874Y-77302844D01*
X141802872Y-77302845D01*
X141790699Y-77305266D01*
X141780379Y-77312161D01*
X141780378Y-77312162D01*
X141719985Y-77352516D01*
X141706516Y-77361516D01*
X141650266Y-77445699D01*
X141635500Y-77519933D01*
X141635500Y-77526120D01*
X141635501Y-78763128D01*
X141615499Y-78831249D01*
X141598596Y-78852223D01*
X141412224Y-79038595D01*
X141349912Y-79072621D01*
X141323129Y-79075500D01*
X136595074Y-79075500D01*
X136589798Y-79075390D01*
X136527326Y-79072772D01*
X136518961Y-79074734D01*
X136484622Y-79082788D01*
X136472948Y-79084951D01*
X136429482Y-79090905D01*
X136416767Y-79096407D01*
X136415506Y-79096953D01*
X136394237Y-79103987D01*
X136379417Y-79107463D01*
X136340963Y-79128603D01*
X136330317Y-79133818D01*
X136297937Y-79147830D01*
X136297933Y-79147832D01*
X136290054Y-79151242D01*
X136283381Y-79156646D01*
X136283379Y-79156647D01*
X136278225Y-79160821D01*
X136259637Y-79173312D01*
X136246285Y-79180652D01*
X136241281Y-79184972D01*
X136239860Y-79186198D01*
X136239853Y-79186204D01*
X136238109Y-79187710D01*
X136213366Y-79212453D01*
X136203565Y-79221279D01*
X136178662Y-79241444D01*
X136178659Y-79241447D01*
X136171987Y-79246850D01*
X136160962Y-79262364D01*
X136147355Y-79278464D01*
X131937224Y-83488595D01*
X131874912Y-83522621D01*
X131848129Y-83525500D01*
X119778559Y-83525500D01*
X119710438Y-83505498D01*
X119663945Y-83451842D01*
X119653841Y-83381568D01*
X119683335Y-83316988D01*
X119704496Y-83297565D01*
X119706885Y-83295829D01*
X119715723Y-83291326D01*
X119755644Y-83251405D01*
X119817956Y-83217379D01*
X119844739Y-83214500D01*
X123279066Y-83214500D01*
X123288498Y-83211435D01*
X123288500Y-83211435D01*
X123300287Y-83207605D01*
X123319513Y-83202989D01*
X123331762Y-83201049D01*
X123341555Y-83199498D01*
X123361439Y-83189366D01*
X123379705Y-83181801D01*
X123391496Y-83177970D01*
X123400929Y-83174905D01*
X123418989Y-83161784D01*
X123435846Y-83151454D01*
X123455723Y-83141326D01*
X123478511Y-83118538D01*
X123478515Y-83118535D01*
X124500769Y-82096280D01*
X124563081Y-82062255D01*
X124639603Y-82069608D01*
X124676399Y-82085417D01*
X124676401Y-82085418D01*
X124681711Y-82087699D01*
X124737051Y-82100221D01*
X124883025Y-82133252D01*
X124883030Y-82133253D01*
X124888662Y-82134527D01*
X124894433Y-82134754D01*
X124894435Y-82134754D01*
X124959911Y-82137326D01*
X125100681Y-82142857D01*
X125205674Y-82127634D01*
X125304953Y-82113239D01*
X125304958Y-82113238D01*
X125310667Y-82112410D01*
X125316131Y-82110555D01*
X125316136Y-82110554D01*
X125429524Y-82072064D01*
X125511589Y-82044207D01*
X125521569Y-82038618D01*
X125691670Y-81943357D01*
X125691674Y-81943354D01*
X125696717Y-81940530D01*
X125859852Y-81804852D01*
X125930481Y-81719931D01*
X125989417Y-81680347D01*
X126027354Y-81674500D01*
X128158465Y-81674500D01*
X128226586Y-81694502D01*
X128273079Y-81748158D01*
X128276985Y-81759529D01*
X128277202Y-81759448D01*
X128327929Y-81894764D01*
X128333309Y-81901943D01*
X128333311Y-81901946D01*
X128364347Y-81943357D01*
X128414596Y-82010404D01*
X128421776Y-82015785D01*
X128523054Y-82091689D01*
X128523057Y-82091691D01*
X128530236Y-82097071D01*
X128573365Y-82113239D01*
X128658157Y-82145026D01*
X128658159Y-82145026D01*
X128665552Y-82147798D01*
X128673402Y-82148651D01*
X128673403Y-82148651D01*
X128723847Y-82154131D01*
X128727244Y-82154500D01*
X130072756Y-82154500D01*
X130076153Y-82154131D01*
X130126597Y-82148651D01*
X130126598Y-82148651D01*
X130134448Y-82147798D01*
X130141841Y-82145026D01*
X130141843Y-82145026D01*
X130226635Y-82113239D01*
X130269764Y-82097071D01*
X130276943Y-82091691D01*
X130276946Y-82091689D01*
X130378224Y-82015785D01*
X130385404Y-82010404D01*
X130435653Y-81943357D01*
X130466689Y-81901946D01*
X130466691Y-81901943D01*
X130472071Y-81894764D01*
X130522798Y-81759448D01*
X130523678Y-81751353D01*
X130529131Y-81701153D01*
X130529131Y-81701152D01*
X130529500Y-81697756D01*
X130529500Y-80802244D01*
X130528202Y-80790293D01*
X130523651Y-80748403D01*
X130523651Y-80748402D01*
X130522798Y-80740552D01*
X130515301Y-80720552D01*
X130492872Y-80660723D01*
X130472071Y-80605236D01*
X130466691Y-80598057D01*
X130466689Y-80598054D01*
X130390785Y-80496776D01*
X130385404Y-80489596D01*
X130351538Y-80464215D01*
X130276946Y-80408311D01*
X130276943Y-80408309D01*
X130269764Y-80402929D01*
X130180046Y-80369296D01*
X130141843Y-80354974D01*
X130141841Y-80354974D01*
X130134448Y-80352202D01*
X130126598Y-80351349D01*
X130126597Y-80351349D01*
X130076153Y-80345869D01*
X130076152Y-80345869D01*
X130072756Y-80345500D01*
X128727244Y-80345500D01*
X128723848Y-80345869D01*
X128723847Y-80345869D01*
X128673403Y-80351349D01*
X128673402Y-80351349D01*
X128665552Y-80352202D01*
X128658159Y-80354974D01*
X128658157Y-80354974D01*
X128619954Y-80369296D01*
X128530236Y-80402929D01*
X128523057Y-80408309D01*
X128523054Y-80408311D01*
X128448462Y-80464215D01*
X128414596Y-80489596D01*
X128409215Y-80496776D01*
X128333311Y-80598054D01*
X128333309Y-80598057D01*
X128327929Y-80605236D01*
X128307128Y-80660723D01*
X128284700Y-80720552D01*
X128277202Y-80740552D01*
X128276349Y-80748400D01*
X128276349Y-80748402D01*
X128275838Y-80753108D01*
X128248596Y-80818670D01*
X128190233Y-80859096D01*
X128150575Y-80865500D01*
X126301298Y-80865500D01*
X126233177Y-80845498D01*
X126186684Y-80791842D01*
X126180029Y-80773701D01*
X126124005Y-80575053D01*
X126124003Y-80575047D01*
X126122436Y-80569492D01*
X126106296Y-80536762D01*
X126031145Y-80384372D01*
X126028590Y-80379191D01*
X126007800Y-80351349D01*
X125905089Y-80213803D01*
X125905088Y-80213802D01*
X125901636Y-80209179D01*
X125897400Y-80205263D01*
X125750066Y-80069069D01*
X125750063Y-80069067D01*
X125745826Y-80065150D01*
X125566377Y-79951926D01*
X125369300Y-79873300D01*
X125363640Y-79872174D01*
X125363636Y-79872173D01*
X125247528Y-79849078D01*
X125184618Y-79816170D01*
X125149486Y-79754475D01*
X125153286Y-79683581D01*
X125194812Y-79625995D01*
X125260878Y-79600000D01*
X125272101Y-79599499D01*
X125965066Y-79599499D01*
X126000818Y-79592388D01*
X126027126Y-79587156D01*
X126027128Y-79587155D01*
X126039301Y-79584734D01*
X126049621Y-79577839D01*
X126049622Y-79577838D01*
X126113168Y-79535377D01*
X126123484Y-79528484D01*
X126179734Y-79444301D01*
X126194500Y-79370067D01*
X126194499Y-77519934D01*
X126179734Y-77445699D01*
X126123484Y-77361516D01*
X126039301Y-77305266D01*
X125965067Y-77290500D01*
X125720500Y-77290500D01*
X125652379Y-77270498D01*
X125605886Y-77216842D01*
X125594500Y-77164500D01*
X125594500Y-76361871D01*
X125614502Y-76293750D01*
X125631405Y-76272776D01*
X127062776Y-74841405D01*
X127125088Y-74807379D01*
X127151871Y-74804500D01*
X140788129Y-74804500D01*
X140856250Y-74824502D01*
G37*
%TD.AperFunction*%
%TD*%
M02*
