%TF.GenerationSoftware,KiCad,Pcbnew,6.0.1-79c1e3a40b~116~ubuntu20.04.1*%
%TF.CreationDate,2022-02-17T01:53:58+05:30*%
%TF.ProjectId,lsa,6c73612e-6b69-4636-9164-5f7063625858,rev?*%
%TF.SameCoordinates,Original*%
%TF.FileFunction,Legend,Bot*%
%TF.FilePolarity,Positive*%
%FSLAX46Y46*%
G04 Gerber Fmt 4.6, Leading zero omitted, Abs format (unit mm)*
G04 Created by KiCad (PCBNEW 6.0.1-79c1e3a40b~116~ubuntu20.04.1) date 2022-02-17 01:53:58*
%MOMM*%
%LPD*%
G01*
G04 APERTURE LIST*
%ADD10C,0.200000*%
%ADD11C,0.150000*%
%ADD12C,0.120000*%
G04 APERTURE END LIST*
D10*
X124337789Y-75481411D02*
X123718741Y-75481411D01*
X124052074Y-75862364D01*
X123909217Y-75862364D01*
X123813979Y-75909983D01*
X123766360Y-75957602D01*
X123718741Y-76052840D01*
X123718741Y-76290935D01*
X123766360Y-76386173D01*
X123813979Y-76433792D01*
X123909217Y-76481411D01*
X124194932Y-76481411D01*
X124290170Y-76433792D01*
X124337789Y-76386173D01*
X123433027Y-75481411D02*
X123099694Y-76481411D01*
X122766360Y-75481411D01*
X122528265Y-75481411D02*
X121909217Y-75481411D01*
X122242551Y-75862364D01*
X122099694Y-75862364D01*
X122004455Y-75909983D01*
X121956836Y-75957602D01*
X121909217Y-76052840D01*
X121909217Y-76290935D01*
X121956836Y-76386173D01*
X122004455Y-76433792D01*
X122099694Y-76481411D01*
X122385408Y-76481411D01*
X122480646Y-76433792D01*
X122528265Y-76386173D01*
X120770052Y-75506629D02*
X120865290Y-75459009D01*
X121008148Y-75459009D01*
X121151005Y-75506629D01*
X121246243Y-75601867D01*
X121293862Y-75697105D01*
X121341481Y-75887581D01*
X121341481Y-76030438D01*
X121293862Y-76220914D01*
X121246243Y-76316152D01*
X121151005Y-76411390D01*
X121008148Y-76459009D01*
X120912909Y-76459009D01*
X120770052Y-76411390D01*
X120722433Y-76363771D01*
X120722433Y-76030438D01*
X120912909Y-76030438D01*
X120293862Y-76459009D02*
X120293862Y-75459009D01*
X119722433Y-76459009D01*
X119722433Y-75459009D01*
X119246243Y-76459009D02*
X119246243Y-75459009D01*
X119008148Y-75459009D01*
X118865290Y-75506629D01*
X118770052Y-75601867D01*
X118722433Y-75697105D01*
X118674814Y-75887581D01*
X118674814Y-76030438D01*
X118722433Y-76220914D01*
X118770052Y-76316152D01*
X118865290Y-76411390D01*
X119008148Y-76459009D01*
X119246243Y-76459009D01*
X118059523Y-75482380D02*
X117440476Y-75482380D01*
X117773809Y-75863333D01*
X117630952Y-75863333D01*
X117535714Y-75910952D01*
X117488095Y-75958571D01*
X117440476Y-76053809D01*
X117440476Y-76291904D01*
X117488095Y-76387142D01*
X117535714Y-76434761D01*
X117630952Y-76482380D01*
X117916666Y-76482380D01*
X118011904Y-76434761D01*
X118059523Y-76387142D01*
X116583333Y-75482380D02*
X116773809Y-75482380D01*
X116869047Y-75530000D01*
X116916666Y-75577619D01*
X117011904Y-75720476D01*
X117059523Y-75910952D01*
X117059523Y-76291904D01*
X117011904Y-76387142D01*
X116964285Y-76434761D01*
X116869047Y-76482380D01*
X116678571Y-76482380D01*
X116583333Y-76434761D01*
X116535714Y-76387142D01*
X116488095Y-76291904D01*
X116488095Y-76053809D01*
X116535714Y-75958571D01*
X116583333Y-75910952D01*
X116678571Y-75863333D01*
X116869047Y-75863333D01*
X116964285Y-75910952D01*
X117011904Y-75958571D01*
X117059523Y-76053809D01*
X115732301Y-75414204D02*
X115113254Y-75414204D01*
X115446587Y-75795157D01*
X115303730Y-75795157D01*
X115208492Y-75842776D01*
X115160873Y-75890395D01*
X115113254Y-75985633D01*
X115113254Y-76223728D01*
X115160873Y-76318966D01*
X115208492Y-76366585D01*
X115303730Y-76414204D01*
X115589444Y-76414204D01*
X115684682Y-76366585D01*
X115732301Y-76318966D01*
X114637063Y-76414204D02*
X114446587Y-76414204D01*
X114351349Y-76366585D01*
X114303730Y-76318966D01*
X114208492Y-76176109D01*
X114160873Y-75985633D01*
X114160873Y-75604681D01*
X114208492Y-75509443D01*
X114256111Y-75461824D01*
X114351349Y-75414204D01*
X114541825Y-75414204D01*
X114637063Y-75461824D01*
X114684682Y-75509443D01*
X114732301Y-75604681D01*
X114732301Y-75842776D01*
X114684682Y-75938014D01*
X114637063Y-75985633D01*
X114541825Y-76033252D01*
X114351349Y-76033252D01*
X114256111Y-75985633D01*
X114208492Y-75938014D01*
X114160873Y-75842776D01*
X113179523Y-75462380D02*
X112560476Y-75462380D01*
X112893809Y-75843333D01*
X112750952Y-75843333D01*
X112655714Y-75890952D01*
X112608095Y-75938571D01*
X112560476Y-76033809D01*
X112560476Y-76271904D01*
X112608095Y-76367142D01*
X112655714Y-76414761D01*
X112750952Y-76462380D01*
X113036666Y-76462380D01*
X113131904Y-76414761D01*
X113179523Y-76367142D01*
X111703333Y-75795714D02*
X111703333Y-76462380D01*
X111941428Y-75414761D02*
X112179523Y-76129047D01*
X111560476Y-76129047D01*
X110559523Y-75442380D02*
X109940476Y-75442380D01*
X110273809Y-75823333D01*
X110130952Y-75823333D01*
X110035714Y-75870952D01*
X109988095Y-75918571D01*
X109940476Y-76013809D01*
X109940476Y-76251904D01*
X109988095Y-76347142D01*
X110035714Y-76394761D01*
X110130952Y-76442380D01*
X110416666Y-76442380D01*
X110511904Y-76394761D01*
X110559523Y-76347142D01*
X109035714Y-75442380D02*
X109511904Y-75442380D01*
X109559523Y-75918571D01*
X109511904Y-75870952D01*
X109416666Y-75823333D01*
X109178571Y-75823333D01*
X109083333Y-75870952D01*
X109035714Y-75918571D01*
X108988095Y-76013809D01*
X108988095Y-76251904D01*
X109035714Y-76347142D01*
X109083333Y-76394761D01*
X109178571Y-76442380D01*
X109416666Y-76442380D01*
X109511904Y-76394761D01*
X109559523Y-76347142D01*
%TO.C,R4*%
X138493333Y-91661904D02*
X138760000Y-91280952D01*
X138950476Y-91661904D02*
X138950476Y-90861904D01*
X138645714Y-90861904D01*
X138569523Y-90900000D01*
X138531428Y-90938095D01*
X138493333Y-91014285D01*
X138493333Y-91128571D01*
X138531428Y-91204761D01*
X138569523Y-91242857D01*
X138645714Y-91280952D01*
X138950476Y-91280952D01*
X137807619Y-91128571D02*
X137807619Y-91661904D01*
X137998095Y-90823809D02*
X138188571Y-91395238D01*
X137693333Y-91395238D01*
X139079523Y-84502380D02*
X138412857Y-84502380D01*
X138841428Y-85502380D01*
X137555714Y-84502380D02*
X138031904Y-84502380D01*
X138079523Y-84978571D01*
X138031904Y-84930952D01*
X137936666Y-84883333D01*
X137698571Y-84883333D01*
X137603333Y-84930952D01*
X137555714Y-84978571D01*
X137508095Y-85073809D01*
X137508095Y-85311904D01*
X137555714Y-85407142D01*
X137603333Y-85454761D01*
X137698571Y-85502380D01*
X137936666Y-85502380D01*
X138031904Y-85454761D01*
X138079523Y-85407142D01*
%TO.C,R3*%
X129573333Y-91631904D02*
X129840000Y-91250952D01*
X130030476Y-91631904D02*
X130030476Y-90831904D01*
X129725714Y-90831904D01*
X129649523Y-90870000D01*
X129611428Y-90908095D01*
X129573333Y-90984285D01*
X129573333Y-91098571D01*
X129611428Y-91174761D01*
X129649523Y-91212857D01*
X129725714Y-91250952D01*
X130030476Y-91250952D01*
X129306666Y-90831904D02*
X128811428Y-90831904D01*
X129078095Y-91136666D01*
X128963809Y-91136666D01*
X128887619Y-91174761D01*
X128849523Y-91212857D01*
X128811428Y-91289047D01*
X128811428Y-91479523D01*
X128849523Y-91555714D01*
X128887619Y-91593809D01*
X128963809Y-91631904D01*
X129192380Y-91631904D01*
X129268571Y-91593809D01*
X129306666Y-91555714D01*
X130179523Y-84412380D02*
X129512857Y-84412380D01*
X129941428Y-85412380D01*
X128655714Y-84412380D02*
X129131904Y-84412380D01*
X129179523Y-84888571D01*
X129131904Y-84840952D01*
X129036666Y-84793333D01*
X128798571Y-84793333D01*
X128703333Y-84840952D01*
X128655714Y-84888571D01*
X128608095Y-84983809D01*
X128608095Y-85221904D01*
X128655714Y-85317142D01*
X128703333Y-85364761D01*
X128798571Y-85412380D01*
X129036666Y-85412380D01*
X129131904Y-85364761D01*
X129179523Y-85317142D01*
%TO.C,R5*%
X94023333Y-83141904D02*
X94290000Y-82760952D01*
X94480476Y-83141904D02*
X94480476Y-82341904D01*
X94175714Y-82341904D01*
X94099523Y-82380000D01*
X94061428Y-82418095D01*
X94023333Y-82494285D01*
X94023333Y-82608571D01*
X94061428Y-82684761D01*
X94099523Y-82722857D01*
X94175714Y-82760952D01*
X94480476Y-82760952D01*
X93299523Y-82341904D02*
X93680476Y-82341904D01*
X93718571Y-82722857D01*
X93680476Y-82684761D01*
X93604285Y-82646666D01*
X93413809Y-82646666D01*
X93337619Y-82684761D01*
X93299523Y-82722857D01*
X93261428Y-82799047D01*
X93261428Y-82989523D01*
X93299523Y-83065714D01*
X93337619Y-83103809D01*
X93413809Y-83141904D01*
X93604285Y-83141904D01*
X93680476Y-83103809D01*
X93718571Y-83065714D01*
X94385238Y-77012380D02*
X94956666Y-77012380D01*
X94670952Y-77012380D02*
X94670952Y-76012380D01*
X94766190Y-76155238D01*
X94861428Y-76250476D01*
X94956666Y-76298095D01*
X93766190Y-76012380D02*
X93670952Y-76012380D01*
X93575714Y-76060000D01*
X93528095Y-76107619D01*
X93480476Y-76202857D01*
X93432857Y-76393333D01*
X93432857Y-76631428D01*
X93480476Y-76821904D01*
X93528095Y-76917142D01*
X93575714Y-76964761D01*
X93670952Y-77012380D01*
X93766190Y-77012380D01*
X93861428Y-76964761D01*
X93909047Y-76917142D01*
X93956666Y-76821904D01*
X94004285Y-76631428D01*
X94004285Y-76393333D01*
X93956666Y-76202857D01*
X93909047Y-76107619D01*
X93861428Y-76060000D01*
X93766190Y-76012380D01*
X93004285Y-77012380D02*
X93004285Y-76012380D01*
X92909047Y-76631428D02*
X92623333Y-77012380D01*
X92623333Y-76345714D02*
X93004285Y-76726666D01*
D11*
%TO.C,U1*%
X116936904Y-78252380D02*
X116936904Y-79061904D01*
X116889285Y-79157142D01*
X116841666Y-79204761D01*
X116746428Y-79252380D01*
X116555952Y-79252380D01*
X116460714Y-79204761D01*
X116413095Y-79157142D01*
X116365476Y-79061904D01*
X116365476Y-78252380D01*
X115365476Y-79252380D02*
X115936904Y-79252380D01*
X115651190Y-79252380D02*
X115651190Y-78252380D01*
X115746428Y-78395238D01*
X115841666Y-78490476D01*
X115936904Y-78538095D01*
D10*
X117542380Y-89871904D02*
X117923333Y-89871904D01*
X117923333Y-89071904D01*
X117275714Y-89871904D02*
X117275714Y-89071904D01*
X117009047Y-89643333D01*
X116742380Y-89071904D01*
X116742380Y-89871904D01*
X116437619Y-89071904D02*
X115942380Y-89071904D01*
X116209047Y-89376666D01*
X116094761Y-89376666D01*
X116018571Y-89414761D01*
X115980476Y-89452857D01*
X115942380Y-89529047D01*
X115942380Y-89719523D01*
X115980476Y-89795714D01*
X116018571Y-89833809D01*
X116094761Y-89871904D01*
X116323333Y-89871904D01*
X116399523Y-89833809D01*
X116437619Y-89795714D01*
X115637619Y-89148095D02*
X115599523Y-89110000D01*
X115523333Y-89071904D01*
X115332857Y-89071904D01*
X115256666Y-89110000D01*
X115218571Y-89148095D01*
X115180476Y-89224285D01*
X115180476Y-89300476D01*
X115218571Y-89414761D01*
X115675714Y-89871904D01*
X115180476Y-89871904D01*
X114494761Y-89338571D02*
X114494761Y-89871904D01*
X114685238Y-89033809D02*
X114875714Y-89605238D01*
X114380476Y-89605238D01*
%TO.C,R6*%
X103069046Y-83121904D02*
X103335713Y-82740952D01*
X103526189Y-83121904D02*
X103526189Y-82321904D01*
X103221427Y-82321904D01*
X103145236Y-82360000D01*
X103107141Y-82398095D01*
X103069046Y-82474285D01*
X103069046Y-82588571D01*
X103107141Y-82664761D01*
X103145236Y-82702857D01*
X103221427Y-82740952D01*
X103526189Y-82740952D01*
X102383332Y-82321904D02*
X102535713Y-82321904D01*
X102611903Y-82360000D01*
X102649998Y-82398095D01*
X102726189Y-82512380D01*
X102764284Y-82664761D01*
X102764284Y-82969523D01*
X102726189Y-83045714D01*
X102688093Y-83083809D01*
X102611903Y-83121904D01*
X102459522Y-83121904D01*
X102383332Y-83083809D01*
X102345236Y-83045714D01*
X102307141Y-82969523D01*
X102307141Y-82779047D01*
X102345236Y-82702857D01*
X102383332Y-82664761D01*
X102459522Y-82626666D01*
X102611903Y-82626666D01*
X102688093Y-82664761D01*
X102726189Y-82702857D01*
X102764284Y-82779047D01*
X103510951Y-76982380D02*
X104082379Y-76982380D01*
X103796665Y-76982380D02*
X103796665Y-75982380D01*
X103891903Y-76125238D01*
X103987141Y-76220476D01*
X104082379Y-76268095D01*
X102891903Y-75982380D02*
X102796665Y-75982380D01*
X102701427Y-76030000D01*
X102653808Y-76077619D01*
X102606189Y-76172857D01*
X102558570Y-76363333D01*
X102558570Y-76601428D01*
X102606189Y-76791904D01*
X102653808Y-76887142D01*
X102701427Y-76934761D01*
X102796665Y-76982380D01*
X102891903Y-76982380D01*
X102987141Y-76934761D01*
X103034760Y-76887142D01*
X103082379Y-76791904D01*
X103129998Y-76601428D01*
X103129998Y-76363333D01*
X103082379Y-76172857D01*
X103034760Y-76077619D01*
X102987141Y-76030000D01*
X102891903Y-75982380D01*
X102129998Y-76982380D02*
X102129998Y-75982380D01*
X102034760Y-76601428D02*
X101749046Y-76982380D01*
X101749046Y-76315714D02*
X102129998Y-76696666D01*
%TO.C,R8*%
X138523333Y-83141904D02*
X138790000Y-82760952D01*
X138980476Y-83141904D02*
X138980476Y-82341904D01*
X138675714Y-82341904D01*
X138599523Y-82380000D01*
X138561428Y-82418095D01*
X138523333Y-82494285D01*
X138523333Y-82608571D01*
X138561428Y-82684761D01*
X138599523Y-82722857D01*
X138675714Y-82760952D01*
X138980476Y-82760952D01*
X138066190Y-82684761D02*
X138142380Y-82646666D01*
X138180476Y-82608571D01*
X138218571Y-82532380D01*
X138218571Y-82494285D01*
X138180476Y-82418095D01*
X138142380Y-82380000D01*
X138066190Y-82341904D01*
X137913809Y-82341904D01*
X137837619Y-82380000D01*
X137799523Y-82418095D01*
X137761428Y-82494285D01*
X137761428Y-82532380D01*
X137799523Y-82608571D01*
X137837619Y-82646666D01*
X137913809Y-82684761D01*
X138066190Y-82684761D01*
X138142380Y-82722857D01*
X138180476Y-82760952D01*
X138218571Y-82837142D01*
X138218571Y-82989523D01*
X138180476Y-83065714D01*
X138142380Y-83103809D01*
X138066190Y-83141904D01*
X137913809Y-83141904D01*
X137837619Y-83103809D01*
X137799523Y-83065714D01*
X137761428Y-82989523D01*
X137761428Y-82837142D01*
X137799523Y-82760952D01*
X137837619Y-82722857D01*
X137913809Y-82684761D01*
X138915238Y-76972380D02*
X139486666Y-76972380D01*
X139200952Y-76972380D02*
X139200952Y-75972380D01*
X139296190Y-76115238D01*
X139391428Y-76210476D01*
X139486666Y-76258095D01*
X138296190Y-75972380D02*
X138200952Y-75972380D01*
X138105714Y-76020000D01*
X138058095Y-76067619D01*
X138010476Y-76162857D01*
X137962857Y-76353333D01*
X137962857Y-76591428D01*
X138010476Y-76781904D01*
X138058095Y-76877142D01*
X138105714Y-76924761D01*
X138200952Y-76972380D01*
X138296190Y-76972380D01*
X138391428Y-76924761D01*
X138439047Y-76877142D01*
X138486666Y-76781904D01*
X138534285Y-76591428D01*
X138534285Y-76353333D01*
X138486666Y-76162857D01*
X138439047Y-76067619D01*
X138391428Y-76020000D01*
X138296190Y-75972380D01*
X137534285Y-76972380D02*
X137534285Y-75972380D01*
X137439047Y-76591428D02*
X137153333Y-76972380D01*
X137153333Y-76305714D02*
X137534285Y-76686666D01*
%TO.C,R7*%
X129563333Y-83161904D02*
X129830000Y-82780952D01*
X130020476Y-83161904D02*
X130020476Y-82361904D01*
X129715714Y-82361904D01*
X129639523Y-82400000D01*
X129601428Y-82438095D01*
X129563333Y-82514285D01*
X129563333Y-82628571D01*
X129601428Y-82704761D01*
X129639523Y-82742857D01*
X129715714Y-82780952D01*
X130020476Y-82780952D01*
X129296666Y-82361904D02*
X128763333Y-82361904D01*
X129106190Y-83161904D01*
X130005238Y-76982380D02*
X130576666Y-76982380D01*
X130290952Y-76982380D02*
X130290952Y-75982380D01*
X130386190Y-76125238D01*
X130481428Y-76220476D01*
X130576666Y-76268095D01*
X129386190Y-75982380D02*
X129290952Y-75982380D01*
X129195714Y-76030000D01*
X129148095Y-76077619D01*
X129100476Y-76172857D01*
X129052857Y-76363333D01*
X129052857Y-76601428D01*
X129100476Y-76791904D01*
X129148095Y-76887142D01*
X129195714Y-76934761D01*
X129290952Y-76982380D01*
X129386190Y-76982380D01*
X129481428Y-76934761D01*
X129529047Y-76887142D01*
X129576666Y-76791904D01*
X129624285Y-76601428D01*
X129624285Y-76363333D01*
X129576666Y-76172857D01*
X129529047Y-76077619D01*
X129481428Y-76030000D01*
X129386190Y-75982380D01*
X128624285Y-76982380D02*
X128624285Y-75982380D01*
X128529047Y-76601428D02*
X128243333Y-76982380D01*
X128243333Y-76315714D02*
X128624285Y-76696666D01*
%TO.C,R1*%
X94033333Y-91621904D02*
X94300000Y-91240952D01*
X94490476Y-91621904D02*
X94490476Y-90821904D01*
X94185714Y-90821904D01*
X94109523Y-90860000D01*
X94071428Y-90898095D01*
X94033333Y-90974285D01*
X94033333Y-91088571D01*
X94071428Y-91164761D01*
X94109523Y-91202857D01*
X94185714Y-91240952D01*
X94490476Y-91240952D01*
X93271428Y-91621904D02*
X93728571Y-91621904D01*
X93500000Y-91621904D02*
X93500000Y-90821904D01*
X93576190Y-90936190D01*
X93652380Y-91012380D01*
X93728571Y-91050476D01*
X94709523Y-84452380D02*
X94042857Y-84452380D01*
X94471428Y-85452380D01*
X93185714Y-84452380D02*
X93661904Y-84452380D01*
X93709523Y-84928571D01*
X93661904Y-84880952D01*
X93566666Y-84833333D01*
X93328571Y-84833333D01*
X93233333Y-84880952D01*
X93185714Y-84928571D01*
X93138095Y-85023809D01*
X93138095Y-85261904D01*
X93185714Y-85357142D01*
X93233333Y-85404761D01*
X93328571Y-85452380D01*
X93566666Y-85452380D01*
X93661904Y-85404761D01*
X93709523Y-85357142D01*
%TO.C,R2*%
X103053333Y-91671904D02*
X103320000Y-91290952D01*
X103510476Y-91671904D02*
X103510476Y-90871904D01*
X103205714Y-90871904D01*
X103129523Y-90910000D01*
X103091428Y-90948095D01*
X103053333Y-91024285D01*
X103053333Y-91138571D01*
X103091428Y-91214761D01*
X103129523Y-91252857D01*
X103205714Y-91290952D01*
X103510476Y-91290952D01*
X102748571Y-90948095D02*
X102710476Y-90910000D01*
X102634285Y-90871904D01*
X102443809Y-90871904D01*
X102367619Y-90910000D01*
X102329523Y-90948095D01*
X102291428Y-91024285D01*
X102291428Y-91100476D01*
X102329523Y-91214761D01*
X102786666Y-91671904D01*
X102291428Y-91671904D01*
X103689523Y-84502380D02*
X103022857Y-84502380D01*
X103451428Y-85502380D01*
X102165714Y-84502380D02*
X102641904Y-84502380D01*
X102689523Y-84978571D01*
X102641904Y-84930952D01*
X102546666Y-84883333D01*
X102308571Y-84883333D01*
X102213333Y-84930952D01*
X102165714Y-84978571D01*
X102118095Y-85073809D01*
X102118095Y-85311904D01*
X102165714Y-85407142D01*
X102213333Y-85454761D01*
X102308571Y-85502380D01*
X102546666Y-85502380D01*
X102641904Y-85454761D01*
X102689523Y-85407142D01*
D12*
%TO.C,R4*%
X139290000Y-88937064D02*
X139290000Y-87482936D01*
X137470000Y-88937064D02*
X137470000Y-87482936D01*
%TO.C,R3*%
X128540000Y-88937064D02*
X128540000Y-87482936D01*
X130360000Y-88937064D02*
X130360000Y-87482936D01*
%TO.C,R5*%
X92980000Y-80407064D02*
X92980000Y-78952936D01*
X94800000Y-80407064D02*
X94800000Y-78952936D01*
%TO.C,U1*%
X116175000Y-79645000D02*
X114225000Y-79645000D01*
X116175000Y-88515000D02*
X114225000Y-88515000D01*
X116175000Y-79645000D02*
X119625000Y-79645000D01*
X116175000Y-88515000D02*
X118125000Y-88515000D01*
%TO.C,R6*%
X102005713Y-80407064D02*
X102005713Y-78952936D01*
X103825713Y-80407064D02*
X103825713Y-78952936D01*
%TO.C,R8*%
X137450000Y-80427064D02*
X137450000Y-78972936D01*
X139270000Y-80427064D02*
X139270000Y-78972936D01*
%TO.C,R7*%
X128490000Y-80427064D02*
X128490000Y-78972936D01*
X130310000Y-80427064D02*
X130310000Y-78972936D01*
%TO.C,R1*%
X93030000Y-88917064D02*
X93030000Y-87462936D01*
X94850000Y-88917064D02*
X94850000Y-87462936D01*
%TO.C,R2*%
X103830000Y-88927064D02*
X103830000Y-87472936D01*
X102010000Y-88927064D02*
X102010000Y-87472936D01*
%TD*%
M02*
