%TF.GenerationSoftware,KiCad,Pcbnew,6.0.1-79c1e3a40b~116~ubuntu20.04.1*%
%TF.CreationDate,2022-02-17T01:53:58+05:30*%
%TF.ProjectId,lsa,6c73612e-6b69-4636-9164-5f7063625858,rev?*%
%TF.SameCoordinates,Original*%
%TF.FileFunction,Legend,Top*%
%TF.FilePolarity,Positive*%
%FSLAX46Y46*%
G04 Gerber Fmt 4.6, Leading zero omitted, Abs format (unit mm)*
G04 Created by KiCad (PCBNEW 6.0.1-79c1e3a40b~116~ubuntu20.04.1) date 2022-02-17 01:53:58*
%MOMM*%
%LPD*%
G01*
G04 APERTURE LIST*
%ADD10C,0.200000*%
%ADD11C,0.150000*%
%ADD12C,0.120000*%
G04 APERTURE END LIST*
D10*
X108990476Y-75452380D02*
X109609523Y-75452380D01*
X109276190Y-75833333D01*
X109419047Y-75833333D01*
X109514285Y-75880952D01*
X109561904Y-75928571D01*
X109609523Y-76023809D01*
X109609523Y-76261904D01*
X109561904Y-76357142D01*
X109514285Y-76404761D01*
X109419047Y-76452380D01*
X109133333Y-76452380D01*
X109038095Y-76404761D01*
X108990476Y-76357142D01*
X110514285Y-75452380D02*
X110038095Y-75452380D01*
X109990476Y-75928571D01*
X110038095Y-75880952D01*
X110133333Y-75833333D01*
X110371428Y-75833333D01*
X110466666Y-75880952D01*
X110514285Y-75928571D01*
X110561904Y-76023809D01*
X110561904Y-76261904D01*
X110514285Y-76357142D01*
X110466666Y-76404761D01*
X110371428Y-76452380D01*
X110133333Y-76452380D01*
X110038095Y-76404761D01*
X109990476Y-76357142D01*
X121861904Y-75482380D02*
X122480952Y-75482380D01*
X122147619Y-75863333D01*
X122290476Y-75863333D01*
X122385714Y-75910952D01*
X122433333Y-75958571D01*
X122480952Y-76053809D01*
X122480952Y-76291904D01*
X122433333Y-76387142D01*
X122385714Y-76434761D01*
X122290476Y-76482380D01*
X122004761Y-76482380D01*
X121909523Y-76434761D01*
X121861904Y-76387142D01*
X122766666Y-75482380D02*
X123100000Y-76482380D01*
X123433333Y-75482380D01*
X123671428Y-75482380D02*
X124290476Y-75482380D01*
X123957142Y-75863333D01*
X124100000Y-75863333D01*
X124195238Y-75910952D01*
X124242857Y-75958571D01*
X124290476Y-76053809D01*
X124290476Y-76291904D01*
X124242857Y-76387142D01*
X124195238Y-76434761D01*
X124100000Y-76482380D01*
X123814285Y-76482380D01*
X123719047Y-76434761D01*
X123671428Y-76387142D01*
X116460476Y-75452380D02*
X117079523Y-75452380D01*
X116746190Y-75833333D01*
X116889047Y-75833333D01*
X116984285Y-75880952D01*
X117031904Y-75928571D01*
X117079523Y-76023809D01*
X117079523Y-76261904D01*
X117031904Y-76357142D01*
X116984285Y-76404761D01*
X116889047Y-76452380D01*
X116603333Y-76452380D01*
X116508095Y-76404761D01*
X116460476Y-76357142D01*
X117936666Y-75452380D02*
X117746190Y-75452380D01*
X117650952Y-75500000D01*
X117603333Y-75547619D01*
X117508095Y-75690476D01*
X117460476Y-75880952D01*
X117460476Y-76261904D01*
X117508095Y-76357142D01*
X117555714Y-76404761D01*
X117650952Y-76452380D01*
X117841428Y-76452380D01*
X117936666Y-76404761D01*
X117984285Y-76357142D01*
X118031904Y-76261904D01*
X118031904Y-76023809D01*
X117984285Y-75928571D01*
X117936666Y-75880952D01*
X117841428Y-75833333D01*
X117650952Y-75833333D01*
X117555714Y-75880952D01*
X117508095Y-75928571D01*
X117460476Y-76023809D01*
X119268095Y-75510000D02*
X119172857Y-75462380D01*
X119030000Y-75462380D01*
X118887142Y-75510000D01*
X118791904Y-75605238D01*
X118744285Y-75700476D01*
X118696666Y-75890952D01*
X118696666Y-76033809D01*
X118744285Y-76224285D01*
X118791904Y-76319523D01*
X118887142Y-76414761D01*
X119030000Y-76462380D01*
X119125238Y-76462380D01*
X119268095Y-76414761D01*
X119315714Y-76367142D01*
X119315714Y-76033809D01*
X119125238Y-76033809D01*
X119744285Y-76462380D02*
X119744285Y-75462380D01*
X120315714Y-76462380D01*
X120315714Y-75462380D01*
X120791904Y-76462380D02*
X120791904Y-75462380D01*
X121030000Y-75462380D01*
X121172857Y-75510000D01*
X121268095Y-75605238D01*
X121315714Y-75700476D01*
X121363333Y-75890952D01*
X121363333Y-76033809D01*
X121315714Y-76224285D01*
X121268095Y-76319523D01*
X121172857Y-76414761D01*
X121030000Y-76462380D01*
X120791904Y-76462380D01*
X111600476Y-75452380D02*
X112219523Y-75452380D01*
X111886190Y-75833333D01*
X112029047Y-75833333D01*
X112124285Y-75880952D01*
X112171904Y-75928571D01*
X112219523Y-76023809D01*
X112219523Y-76261904D01*
X112171904Y-76357142D01*
X112124285Y-76404761D01*
X112029047Y-76452380D01*
X111743333Y-76452380D01*
X111648095Y-76404761D01*
X111600476Y-76357142D01*
X113076666Y-75785714D02*
X113076666Y-76452380D01*
X112838571Y-75404761D02*
X112600476Y-76119047D01*
X113219523Y-76119047D01*
X114130476Y-75432380D02*
X114749523Y-75432380D01*
X114416190Y-75813333D01*
X114559047Y-75813333D01*
X114654285Y-75860952D01*
X114701904Y-75908571D01*
X114749523Y-76003809D01*
X114749523Y-76241904D01*
X114701904Y-76337142D01*
X114654285Y-76384761D01*
X114559047Y-76432380D01*
X114273333Y-76432380D01*
X114178095Y-76384761D01*
X114130476Y-76337142D01*
X115225714Y-76432380D02*
X115416190Y-76432380D01*
X115511428Y-76384761D01*
X115559047Y-76337142D01*
X115654285Y-76194285D01*
X115701904Y-76003809D01*
X115701904Y-75622857D01*
X115654285Y-75527619D01*
X115606666Y-75480000D01*
X115511428Y-75432380D01*
X115320952Y-75432380D01*
X115225714Y-75480000D01*
X115178095Y-75527619D01*
X115130476Y-75622857D01*
X115130476Y-75860952D01*
X115178095Y-75956190D01*
X115225714Y-76003809D01*
X115320952Y-76051428D01*
X115511428Y-76051428D01*
X115606666Y-76003809D01*
X115654285Y-75956190D01*
X115701904Y-75860952D01*
D11*
%TO.C,J1*%
X115876666Y-77142380D02*
X115876666Y-77856666D01*
X115829047Y-77999523D01*
X115733809Y-78094761D01*
X115590952Y-78142380D01*
X115495714Y-78142380D01*
X116876666Y-78142380D02*
X116305238Y-78142380D01*
X116590952Y-78142380D02*
X116590952Y-77142380D01*
X116495714Y-77285238D01*
X116400476Y-77380476D01*
X116305238Y-77428095D01*
D10*
%TO.C,D3*%
X124459523Y-91531904D02*
X124459523Y-90731904D01*
X124650000Y-90731904D01*
X124764285Y-90770000D01*
X124840476Y-90846190D01*
X124878571Y-90922380D01*
X124916666Y-91074761D01*
X124916666Y-91189047D01*
X124878571Y-91341428D01*
X124840476Y-91417619D01*
X124764285Y-91493809D01*
X124650000Y-91531904D01*
X124459523Y-91531904D01*
X125183333Y-90731904D02*
X125678571Y-90731904D01*
X125411904Y-91036666D01*
X125526190Y-91036666D01*
X125602380Y-91074761D01*
X125640476Y-91112857D01*
X125678571Y-91189047D01*
X125678571Y-91379523D01*
X125640476Y-91455714D01*
X125602380Y-91493809D01*
X125526190Y-91531904D01*
X125297619Y-91531904D01*
X125221428Y-91493809D01*
X125183333Y-91455714D01*
%TO.C,D1*%
X88959523Y-91491904D02*
X88959523Y-90691904D01*
X89150000Y-90691904D01*
X89264285Y-90730000D01*
X89340476Y-90806190D01*
X89378571Y-90882380D01*
X89416666Y-91034761D01*
X89416666Y-91149047D01*
X89378571Y-91301428D01*
X89340476Y-91377619D01*
X89264285Y-91453809D01*
X89150000Y-91491904D01*
X88959523Y-91491904D01*
X90178571Y-91491904D02*
X89721428Y-91491904D01*
X89950000Y-91491904D02*
X89950000Y-90691904D01*
X89873809Y-90806190D01*
X89797619Y-90882380D01*
X89721428Y-90920476D01*
%TO.C,D5*%
X86241904Y-80170476D02*
X85441904Y-80170476D01*
X85441904Y-79980000D01*
X85480000Y-79865714D01*
X85556190Y-79789523D01*
X85632380Y-79751428D01*
X85784761Y-79713333D01*
X85899047Y-79713333D01*
X86051428Y-79751428D01*
X86127619Y-79789523D01*
X86203809Y-79865714D01*
X86241904Y-79980000D01*
X86241904Y-80170476D01*
X85441904Y-78989523D02*
X85441904Y-79370476D01*
X85822857Y-79408571D01*
X85784761Y-79370476D01*
X85746666Y-79294285D01*
X85746666Y-79103809D01*
X85784761Y-79027619D01*
X85822857Y-78989523D01*
X85899047Y-78951428D01*
X86089523Y-78951428D01*
X86165714Y-78989523D01*
X86203809Y-79027619D01*
X86241904Y-79103809D01*
X86241904Y-79294285D01*
X86203809Y-79370476D01*
X86165714Y-79408571D01*
%TO.C,D7*%
X121651904Y-80340476D02*
X120851904Y-80340476D01*
X120851904Y-80150000D01*
X120890000Y-80035714D01*
X120966190Y-79959523D01*
X121042380Y-79921428D01*
X121194761Y-79883333D01*
X121309047Y-79883333D01*
X121461428Y-79921428D01*
X121537619Y-79959523D01*
X121613809Y-80035714D01*
X121651904Y-80150000D01*
X121651904Y-80340476D01*
X120851904Y-79616666D02*
X120851904Y-79083333D01*
X121651904Y-79426190D01*
%TO.C,D2*%
X106679523Y-91521904D02*
X106679523Y-90721904D01*
X106870000Y-90721904D01*
X106984285Y-90760000D01*
X107060476Y-90836190D01*
X107098571Y-90912380D01*
X107136666Y-91064761D01*
X107136666Y-91179047D01*
X107098571Y-91331428D01*
X107060476Y-91407619D01*
X106984285Y-91483809D01*
X106870000Y-91521904D01*
X106679523Y-91521904D01*
X107441428Y-90798095D02*
X107479523Y-90760000D01*
X107555714Y-90721904D01*
X107746190Y-90721904D01*
X107822380Y-90760000D01*
X107860476Y-90798095D01*
X107898571Y-90874285D01*
X107898571Y-90950476D01*
X107860476Y-91064761D01*
X107403333Y-91521904D01*
X107898571Y-91521904D01*
%TO.C,D4*%
X142189523Y-91531904D02*
X142189523Y-90731904D01*
X142380000Y-90731904D01*
X142494285Y-90770000D01*
X142570476Y-90846190D01*
X142608571Y-90922380D01*
X142646666Y-91074761D01*
X142646666Y-91189047D01*
X142608571Y-91341428D01*
X142570476Y-91417619D01*
X142494285Y-91493809D01*
X142380000Y-91531904D01*
X142189523Y-91531904D01*
X143332380Y-90998571D02*
X143332380Y-91531904D01*
X143141904Y-90693809D02*
X142951428Y-91265238D01*
X143446666Y-91265238D01*
%TO.C,D6*%
X103871904Y-80390476D02*
X103071904Y-80390476D01*
X103071904Y-80200000D01*
X103110000Y-80085714D01*
X103186190Y-80009523D01*
X103262380Y-79971428D01*
X103414761Y-79933333D01*
X103529047Y-79933333D01*
X103681428Y-79971428D01*
X103757619Y-80009523D01*
X103833809Y-80085714D01*
X103871904Y-80200000D01*
X103871904Y-80390476D01*
X103071904Y-79247619D02*
X103071904Y-79400000D01*
X103110000Y-79476190D01*
X103148095Y-79514285D01*
X103262380Y-79590476D01*
X103414761Y-79628571D01*
X103719523Y-79628571D01*
X103795714Y-79590476D01*
X103833809Y-79552380D01*
X103871904Y-79476190D01*
X103871904Y-79323809D01*
X103833809Y-79247619D01*
X103795714Y-79209523D01*
X103719523Y-79171428D01*
X103529047Y-79171428D01*
X103452857Y-79209523D01*
X103414761Y-79247619D01*
X103376666Y-79323809D01*
X103376666Y-79476190D01*
X103414761Y-79552380D01*
X103452857Y-79590476D01*
X103529047Y-79628571D01*
%TO.C,D8*%
X139371904Y-80390476D02*
X138571904Y-80390476D01*
X138571904Y-80200000D01*
X138610000Y-80085714D01*
X138686190Y-80009523D01*
X138762380Y-79971428D01*
X138914761Y-79933333D01*
X139029047Y-79933333D01*
X139181428Y-79971428D01*
X139257619Y-80009523D01*
X139333809Y-80085714D01*
X139371904Y-80200000D01*
X139371904Y-80390476D01*
X138914761Y-79476190D02*
X138876666Y-79552380D01*
X138838571Y-79590476D01*
X138762380Y-79628571D01*
X138724285Y-79628571D01*
X138648095Y-79590476D01*
X138610000Y-79552380D01*
X138571904Y-79476190D01*
X138571904Y-79323809D01*
X138610000Y-79247619D01*
X138648095Y-79209523D01*
X138724285Y-79171428D01*
X138762380Y-79171428D01*
X138838571Y-79209523D01*
X138876666Y-79247619D01*
X138914761Y-79323809D01*
X138914761Y-79476190D01*
X138952857Y-79552380D01*
X138990952Y-79590476D01*
X139067142Y-79628571D01*
X139219523Y-79628571D01*
X139295714Y-79590476D01*
X139333809Y-79552380D01*
X139371904Y-79476190D01*
X139371904Y-79323809D01*
X139333809Y-79247619D01*
X139295714Y-79209523D01*
X139219523Y-79171428D01*
X139067142Y-79171428D01*
X138990952Y-79209523D01*
X138952857Y-79247619D01*
X138914761Y-79323809D01*
%TO.C,kibuzzard-61F951FA*%
G36*
X108387832Y-82959580D02*
G01*
X108459079Y-82970149D01*
X108528947Y-82987650D01*
X108596764Y-83011915D01*
X108661875Y-83042710D01*
X108723655Y-83079739D01*
X108781507Y-83122646D01*
X108834876Y-83171016D01*
X108883246Y-83224384D01*
X108926152Y-83282237D01*
X108963181Y-83344016D01*
X108993977Y-83409128D01*
X109018242Y-83476944D01*
X109035743Y-83546813D01*
X109046312Y-83618060D01*
X109049846Y-83690000D01*
X109046312Y-83761940D01*
X109035743Y-83833187D01*
X109018242Y-83903056D01*
X108993977Y-83970872D01*
X108963181Y-84035984D01*
X108926152Y-84097763D01*
X108883246Y-84155616D01*
X108834876Y-84208984D01*
X108781507Y-84257354D01*
X108723655Y-84300261D01*
X108661875Y-84337290D01*
X108596764Y-84368085D01*
X108528947Y-84392350D01*
X108459079Y-84409851D01*
X108387832Y-84420420D01*
X108315892Y-84423954D01*
X106324108Y-84423954D01*
X106252168Y-84420420D01*
X106180921Y-84409851D01*
X106111053Y-84392350D01*
X106043236Y-84368085D01*
X105978125Y-84337290D01*
X105916345Y-84300261D01*
X105858493Y-84257354D01*
X105805124Y-84208984D01*
X105756754Y-84155616D01*
X105713848Y-84097763D01*
X105676819Y-84035984D01*
X105646023Y-83970872D01*
X105629024Y-83923363D01*
X106456400Y-83923363D01*
X106473863Y-84009088D01*
X106477038Y-84024963D01*
X106494500Y-84066238D01*
X106533791Y-84129341D01*
X106578638Y-84178950D01*
X106670360Y-84240686D01*
X106776193Y-84277728D01*
X106896138Y-84290075D01*
X107016964Y-84277816D01*
X107123326Y-84241039D01*
X107215225Y-84179744D01*
X107285781Y-84099575D01*
X107294415Y-84080525D01*
X107405725Y-84080525D01*
X107466050Y-84175775D01*
X107478750Y-84186888D01*
X107518438Y-84217050D01*
X107600988Y-84258501D01*
X107689888Y-84283372D01*
X107785138Y-84291663D01*
X107892206Y-84278522D01*
X107986926Y-84239099D01*
X108069300Y-84173394D01*
X108132800Y-84089433D01*
X108170900Y-83995241D01*
X108183600Y-83890819D01*
X108170194Y-83786926D01*
X108129978Y-83694322D01*
X108062950Y-83613006D01*
X107979165Y-83549947D01*
X107888678Y-83512112D01*
X107791488Y-83499500D01*
X107735925Y-83502675D01*
X107751800Y-83382025D01*
X108029613Y-83382025D01*
X108081206Y-83379644D01*
X108120100Y-83364562D01*
X108149866Y-83325272D01*
X108159788Y-83248675D01*
X108149072Y-83164537D01*
X108116925Y-83121675D01*
X108075650Y-83106594D01*
X108020088Y-83104212D01*
X107870863Y-83104212D01*
X107629563Y-83102625D01*
X107565269Y-83117706D01*
X107523994Y-83151837D01*
X107500975Y-83194700D01*
X107489863Y-83228037D01*
X107480734Y-83293919D01*
X107456525Y-83472512D01*
X107432713Y-83653884D01*
X107424775Y-83728100D01*
X107442238Y-83766994D01*
X107516056Y-83815413D01*
X107616069Y-83845575D01*
X107702588Y-83809063D01*
X107778788Y-83780488D01*
X107863719Y-83811444D01*
X107901025Y-83895581D01*
X107866894Y-83978925D01*
X107762119Y-84009088D01*
X107662900Y-83975750D01*
X107556538Y-83924950D01*
X107464463Y-83977338D01*
X107405725Y-84080525D01*
X107294415Y-84080525D01*
X107328114Y-84006177D01*
X107342225Y-83899550D01*
X107329128Y-83818588D01*
X107289838Y-83747150D01*
X107239831Y-83695556D01*
X107193000Y-83661425D01*
X107193000Y-83650312D01*
X107261792Y-83600483D01*
X107303067Y-83533543D01*
X107316825Y-83449494D01*
X107304301Y-83359976D01*
X107266731Y-83276633D01*
X107204113Y-83199462D01*
X107119799Y-83137726D01*
X107017140Y-83100685D01*
X106896138Y-83088337D01*
X106817358Y-83093894D01*
X106746119Y-83110562D01*
X106641344Y-83159775D01*
X106575463Y-83222481D01*
X106540538Y-83272487D01*
X106504025Y-83380437D01*
X106523869Y-83437191D01*
X106583400Y-83486800D01*
X106670713Y-83515375D01*
X106731038Y-83495531D01*
X106775488Y-83436000D01*
X106785013Y-83416950D01*
X106826288Y-83378850D01*
X106915981Y-83359800D01*
X107004088Y-83389962D01*
X107035838Y-83453462D01*
X107005675Y-83499897D01*
X106915188Y-83515375D01*
X106832638Y-83523312D01*
X106788584Y-83566572D01*
X106773900Y-83655075D01*
X106784616Y-83736434D01*
X106816763Y-83777313D01*
X106858038Y-83793188D01*
X106930269Y-83796363D01*
X107022344Y-83828906D01*
X107061238Y-83904313D01*
X107021550Y-83981306D01*
X106970750Y-84006905D01*
X106897725Y-84015438D01*
X106831050Y-84005913D01*
X106743738Y-83929713D01*
X106696113Y-83847163D01*
X106611975Y-83831288D01*
X106495294Y-83854306D01*
X106456400Y-83923363D01*
X105629024Y-83923363D01*
X105621758Y-83903056D01*
X105604257Y-83833187D01*
X105593688Y-83761940D01*
X105590154Y-83690000D01*
X105593688Y-83618060D01*
X105604257Y-83546813D01*
X105621758Y-83476944D01*
X105646023Y-83409128D01*
X105676819Y-83344016D01*
X105713848Y-83282237D01*
X105756754Y-83224384D01*
X105805124Y-83171016D01*
X105858493Y-83122646D01*
X105916345Y-83079739D01*
X105978125Y-83042710D01*
X106043236Y-83011915D01*
X106111053Y-82987650D01*
X106180921Y-82970149D01*
X106252168Y-82959580D01*
X106324108Y-82956046D01*
X108315892Y-82956046D01*
X108387832Y-82959580D01*
G37*
%TO.C,kibuzzard-61F951E2*%
G36*
X90735060Y-82980370D02*
G01*
X90806230Y-82990927D01*
X90876023Y-83008409D01*
X90943766Y-83032648D01*
X91008807Y-83063410D01*
X91070520Y-83100399D01*
X91128310Y-83143259D01*
X91181621Y-83191577D01*
X91229939Y-83244888D01*
X91272799Y-83302678D01*
X91309788Y-83364391D01*
X91340550Y-83429432D01*
X91364789Y-83497175D01*
X91382271Y-83566967D01*
X91392828Y-83638138D01*
X91396358Y-83710000D01*
X91392828Y-83781862D01*
X91382271Y-83853033D01*
X91364789Y-83922825D01*
X91340550Y-83990568D01*
X91309788Y-84055609D01*
X91272799Y-84117322D01*
X91229939Y-84175112D01*
X91181621Y-84228423D01*
X91128310Y-84276741D01*
X91070520Y-84319601D01*
X91008807Y-84356590D01*
X90943766Y-84387352D01*
X90876023Y-84411591D01*
X90806230Y-84429073D01*
X90735060Y-84439630D01*
X90663198Y-84443160D01*
X88596802Y-84443160D01*
X88524940Y-84439630D01*
X88453770Y-84429073D01*
X88383977Y-84411591D01*
X88316234Y-84387352D01*
X88251193Y-84356590D01*
X88189480Y-84319601D01*
X88131690Y-84276741D01*
X88078379Y-84228423D01*
X88030061Y-84175112D01*
X87987201Y-84117322D01*
X87950212Y-84055609D01*
X87919450Y-83990568D01*
X87902843Y-83944156D01*
X88729094Y-83944156D01*
X88746556Y-84029881D01*
X88749731Y-84045756D01*
X88767194Y-84087031D01*
X88806484Y-84150134D01*
X88851331Y-84199744D01*
X88943053Y-84261480D01*
X89048887Y-84298522D01*
X89168831Y-84310869D01*
X89289658Y-84298610D01*
X89396020Y-84261833D01*
X89487919Y-84200538D01*
X89558474Y-84120369D01*
X89600808Y-84026971D01*
X89614919Y-83920344D01*
X89601822Y-83839381D01*
X89593964Y-83825094D01*
X89678419Y-83825094D01*
X89686356Y-83893356D01*
X89729616Y-83938600D01*
X89818119Y-83953681D01*
X90248331Y-83953681D01*
X90248331Y-84147356D01*
X90257856Y-84229906D01*
X90278494Y-84261656D01*
X90319769Y-84280706D01*
X90392794Y-84288644D01*
X90469788Y-84279119D01*
X90515825Y-84240225D01*
X90530906Y-84148944D01*
X90530906Y-83266294D01*
X90528525Y-83210731D01*
X90513444Y-83168662D01*
X90470581Y-83135325D01*
X90390413Y-83125006D01*
X90309450Y-83133737D01*
X90265794Y-83164694D01*
X90250713Y-83204381D01*
X90248331Y-83258356D01*
X90248331Y-83691744D01*
X89989569Y-83691744D01*
X90086406Y-83304394D01*
X90087994Y-83299631D01*
X90099106Y-83232956D01*
X90071325Y-83171837D01*
X89987981Y-83131356D01*
X89914956Y-83120244D01*
X89860188Y-83137706D01*
X89831613Y-83174219D01*
X89814944Y-83229781D01*
X89683181Y-83761594D01*
X89678419Y-83825094D01*
X89593964Y-83825094D01*
X89562531Y-83767944D01*
X89512525Y-83716350D01*
X89465694Y-83682219D01*
X89465694Y-83671106D01*
X89534485Y-83621276D01*
X89575760Y-83554337D01*
X89589519Y-83470287D01*
X89576995Y-83380770D01*
X89539424Y-83297426D01*
X89476806Y-83220256D01*
X89392492Y-83158520D01*
X89289834Y-83121478D01*
X89168831Y-83109131D01*
X89090052Y-83114687D01*
X89018812Y-83131356D01*
X88914037Y-83180569D01*
X88848156Y-83243275D01*
X88813231Y-83293281D01*
X88776719Y-83401231D01*
X88796562Y-83457984D01*
X88856094Y-83507594D01*
X88943406Y-83536169D01*
X89003731Y-83516325D01*
X89048181Y-83456794D01*
X89057706Y-83437744D01*
X89098981Y-83399644D01*
X89188675Y-83380594D01*
X89276781Y-83410756D01*
X89308531Y-83474256D01*
X89278369Y-83520691D01*
X89187881Y-83536169D01*
X89105331Y-83544106D01*
X89061278Y-83587366D01*
X89046594Y-83675869D01*
X89057309Y-83757228D01*
X89089456Y-83798106D01*
X89130731Y-83813981D01*
X89202962Y-83817156D01*
X89295037Y-83849700D01*
X89333931Y-83925106D01*
X89294244Y-84002100D01*
X89243444Y-84027698D01*
X89170419Y-84036231D01*
X89103744Y-84026706D01*
X89016431Y-83950506D01*
X88968806Y-83867956D01*
X88884669Y-83852081D01*
X88767987Y-83875100D01*
X88729094Y-83944156D01*
X87902843Y-83944156D01*
X87895211Y-83922825D01*
X87877729Y-83853033D01*
X87867172Y-83781862D01*
X87863642Y-83710000D01*
X87867172Y-83638138D01*
X87877729Y-83566967D01*
X87895211Y-83497175D01*
X87919450Y-83429432D01*
X87950212Y-83364391D01*
X87987201Y-83302678D01*
X88030061Y-83244888D01*
X88078379Y-83191577D01*
X88131690Y-83143259D01*
X88189480Y-83100399D01*
X88251193Y-83063410D01*
X88316234Y-83032648D01*
X88383977Y-83008409D01*
X88453770Y-82990927D01*
X88524940Y-82980370D01*
X88596802Y-82976840D01*
X90663198Y-82976840D01*
X90735060Y-82980370D01*
G37*
%TO.C,G\u002A\u002A\u002A*%
G36*
X101536849Y-72153194D02*
G01*
X101578182Y-72153262D01*
X101616084Y-72153367D01*
X101649679Y-72153510D01*
X101678088Y-72153693D01*
X101700436Y-72153915D01*
X101715844Y-72154180D01*
X101721265Y-72154353D01*
X101777496Y-72156864D01*
X101778792Y-72186176D01*
X101780087Y-72215488D01*
X101808850Y-72217701D01*
X101837614Y-72219913D01*
X101845352Y-72341603D01*
X101900710Y-72341603D01*
X101907088Y-72460681D01*
X101961516Y-72463293D01*
X101963728Y-72496481D01*
X101965941Y-72529669D01*
X101993015Y-72530972D01*
X102020089Y-72532274D01*
X102023990Y-72595135D01*
X102027892Y-72657997D01*
X102056655Y-72660209D01*
X102085418Y-72662422D01*
X102089373Y-72723267D01*
X102093327Y-72784112D01*
X102148515Y-72784112D01*
X102151704Y-72843666D01*
X102154894Y-72903219D01*
X102186533Y-72904511D01*
X102218171Y-72905802D01*
X102219318Y-72930140D01*
X102220450Y-72950213D01*
X102222331Y-72963058D01*
X102226115Y-72970289D01*
X102232954Y-72973519D01*
X102244001Y-72974361D01*
X102250944Y-72974391D01*
X102276912Y-72974391D01*
X102280729Y-73033023D01*
X102284547Y-73091655D01*
X102312426Y-73092979D01*
X102328688Y-73094555D01*
X102339114Y-73097254D01*
X102342002Y-73099616D01*
X102342828Y-73105794D01*
X102343912Y-73119027D01*
X102345126Y-73137528D01*
X102346346Y-73159512D01*
X102346658Y-73165776D01*
X102349618Y-73226621D01*
X102405170Y-73226621D01*
X102411548Y-73345699D01*
X102465976Y-73348311D01*
X102469845Y-73409155D01*
X102473715Y-73470000D01*
X102529767Y-73470000D01*
X102531060Y-73504295D01*
X102532352Y-73538589D01*
X102586928Y-73541205D01*
X102589578Y-73570873D01*
X102591485Y-73592526D01*
X102593549Y-73616426D01*
X102594735Y-73630410D01*
X102597242Y-73660279D01*
X102652909Y-73660279D01*
X102656110Y-73726655D01*
X102659310Y-73793032D01*
X102714926Y-73793032D01*
X102718116Y-73852586D01*
X102721305Y-73912139D01*
X102752944Y-73913430D01*
X102784582Y-73914722D01*
X102786795Y-73947910D01*
X102789007Y-73981098D01*
X102816295Y-73982406D01*
X102843584Y-73983714D01*
X102846233Y-74013381D01*
X102848140Y-74035035D01*
X102850204Y-74058935D01*
X102851390Y-74072919D01*
X102853897Y-74102788D01*
X102909702Y-74102788D01*
X102912910Y-74164739D01*
X102916117Y-74226690D01*
X102972648Y-74226690D01*
X102972671Y-74247709D01*
X102972985Y-74261699D01*
X102973802Y-74281161D01*
X102974974Y-74302745D01*
X102975538Y-74311679D01*
X102978383Y-74354630D01*
X103032387Y-74357230D01*
X103035617Y-74397056D01*
X103036739Y-74418884D01*
X103037152Y-74445515D01*
X103036831Y-74472931D01*
X103036234Y-74488877D01*
X103033622Y-74540871D01*
X102719929Y-74541839D01*
X102667158Y-74542003D01*
X102616332Y-74542162D01*
X102568244Y-74542313D01*
X102523693Y-74542455D01*
X102483473Y-74542584D01*
X102448380Y-74542697D01*
X102419209Y-74542794D01*
X102396758Y-74542870D01*
X102381820Y-74542924D01*
X102376368Y-74542946D01*
X102346499Y-74543084D01*
X102342073Y-74485558D01*
X102312728Y-74484261D01*
X102283382Y-74482965D01*
X102280192Y-74423416D01*
X102277003Y-74363868D01*
X102251167Y-74363868D01*
X102236933Y-74363328D01*
X102226690Y-74361929D01*
X102223220Y-74360452D01*
X102222249Y-74355018D01*
X102221025Y-74342427D01*
X102219683Y-74324361D01*
X102218357Y-74302505D01*
X102217912Y-74294075D01*
X102214716Y-74231115D01*
X102149970Y-74231115D01*
X102148670Y-74199034D01*
X102147370Y-74166952D01*
X102118607Y-74164739D01*
X102089843Y-74162527D01*
X102082105Y-74040837D01*
X102026747Y-74040837D01*
X102020369Y-73921759D01*
X101965941Y-73919147D01*
X101963728Y-73885959D01*
X101961516Y-73852770D01*
X101934346Y-73851466D01*
X101907176Y-73850161D01*
X101903371Y-73791727D01*
X101899565Y-73733293D01*
X101871686Y-73731970D01*
X101855424Y-73730394D01*
X101844998Y-73727695D01*
X101842110Y-73725332D01*
X101841284Y-73719155D01*
X101840200Y-73705922D01*
X101838986Y-73687420D01*
X101837766Y-73665436D01*
X101837454Y-73659173D01*
X101834494Y-73598328D01*
X101778942Y-73598328D01*
X101772564Y-73479250D01*
X101718136Y-73476638D01*
X101710398Y-73354948D01*
X101654360Y-73354948D01*
X101651760Y-73290784D01*
X101588308Y-73288198D01*
X101585696Y-73256303D01*
X101583889Y-73234403D01*
X101581903Y-73210581D01*
X101580552Y-73194539D01*
X101578020Y-73164669D01*
X101522353Y-73164669D01*
X101515951Y-73031917D01*
X101460336Y-73031917D01*
X101457136Y-72972178D01*
X101453937Y-72912439D01*
X101401742Y-72912439D01*
X101401742Y-72940941D01*
X101401103Y-72956047D01*
X101399435Y-72967371D01*
X101397317Y-72972178D01*
X101394941Y-72977753D01*
X101393335Y-72989381D01*
X101392892Y-73000991D01*
X101392892Y-73027069D01*
X101365235Y-73028387D01*
X101337579Y-73029704D01*
X101336286Y-73063999D01*
X101334994Y-73098293D01*
X101278910Y-73098293D01*
X101275702Y-73162457D01*
X101272495Y-73226621D01*
X101216884Y-73226621D01*
X101213676Y-73288572D01*
X101210469Y-73350523D01*
X101155039Y-73350523D01*
X101151169Y-73411368D01*
X101147300Y-73472213D01*
X101118537Y-73474425D01*
X101089774Y-73476638D01*
X101087174Y-73540802D01*
X101022286Y-73540802D01*
X101018417Y-73601647D01*
X101014547Y-73662492D01*
X100987416Y-73663795D01*
X100960284Y-73665099D01*
X100957086Y-73729066D01*
X100953889Y-73793032D01*
X100898554Y-73793032D01*
X100894599Y-73853877D01*
X100890645Y-73914722D01*
X100861882Y-73916934D01*
X100833119Y-73919147D01*
X100825507Y-74036015D01*
X100798337Y-74037319D01*
X100771168Y-74038624D01*
X100766742Y-74105000D01*
X100712314Y-74107612D01*
X100705936Y-74226690D01*
X100650739Y-74226690D01*
X100646790Y-74291960D01*
X100642840Y-74357230D01*
X100614077Y-74359443D01*
X100585314Y-74361655D01*
X100581496Y-74420288D01*
X100577678Y-74478920D01*
X100552512Y-74478920D01*
X100537761Y-74479805D01*
X100526341Y-74482084D01*
X100522035Y-74484230D01*
X100519135Y-74491324D01*
X100517206Y-74504077D01*
X100516725Y-74515206D01*
X100516725Y-74540871D01*
X100281089Y-74540894D01*
X100234667Y-74540927D01*
X100189666Y-74541011D01*
X100147101Y-74541141D01*
X100107990Y-74541312D01*
X100073349Y-74541518D01*
X100044194Y-74541754D01*
X100021543Y-74542015D01*
X100006411Y-74542295D01*
X100003415Y-74542384D01*
X99985989Y-74542755D01*
X99961809Y-74542938D01*
X99932969Y-74542934D01*
X99901563Y-74542745D01*
X99869684Y-74542373D01*
X99863575Y-74542278D01*
X99765774Y-74540706D01*
X99762904Y-74500283D01*
X99761586Y-74479547D01*
X99760587Y-74459714D01*
X99760071Y-74444188D01*
X99760035Y-74440627D01*
X99760035Y-74421394D01*
X99816566Y-74421394D01*
X99819774Y-74359443D01*
X99822981Y-74297492D01*
X99878839Y-74297492D01*
X99881285Y-74263197D01*
X99882940Y-74241145D01*
X99884841Y-74217510D01*
X99886416Y-74199220D01*
X99889101Y-74169537D01*
X99920814Y-74168244D01*
X99952526Y-74166952D01*
X99954739Y-74133763D01*
X99956951Y-74100575D01*
X99984166Y-74099269D01*
X100011380Y-74097963D01*
X100017758Y-73978885D01*
X100073221Y-73978885D01*
X100076429Y-73916934D01*
X100079636Y-73854983D01*
X100135441Y-73854983D01*
X100138060Y-73822901D01*
X100139861Y-73801041D01*
X100141838Y-73777331D01*
X100143204Y-73761152D01*
X100145728Y-73731484D01*
X100173030Y-73730176D01*
X100200331Y-73728868D01*
X100201617Y-73692361D01*
X100202902Y-73655854D01*
X100258969Y-73655854D01*
X100262838Y-73595009D01*
X100266708Y-73534164D01*
X100321136Y-73531552D01*
X100327514Y-73412474D01*
X100382871Y-73412474D01*
X100386741Y-73351629D01*
X100390610Y-73290784D01*
X100419373Y-73288572D01*
X100448136Y-73286359D01*
X100449436Y-73254277D01*
X100450736Y-73222196D01*
X100515818Y-73222196D01*
X100518778Y-73161351D01*
X100519984Y-73138712D01*
X100521229Y-73119053D01*
X100522384Y-73104169D01*
X100523321Y-73095853D01*
X100523517Y-73094974D01*
X100529199Y-73091404D01*
X100543036Y-73089628D01*
X100551533Y-73089443D01*
X100577770Y-73089443D01*
X100580969Y-73029704D01*
X100584169Y-72969966D01*
X100639526Y-72969966D01*
X100643396Y-72909121D01*
X100647265Y-72848276D01*
X100676028Y-72846063D01*
X100704791Y-72843851D01*
X100707391Y-72779687D01*
X100763429Y-72779687D01*
X100767298Y-72718842D01*
X100771168Y-72657997D01*
X100798170Y-72656696D01*
X100825172Y-72655396D01*
X100828016Y-72612446D01*
X100829292Y-72590972D01*
X100830278Y-72570205D01*
X100830822Y-72553497D01*
X100830883Y-72548476D01*
X100830906Y-72527457D01*
X100887437Y-72527457D01*
X100893833Y-72403937D01*
X100923214Y-72402639D01*
X100952596Y-72401342D01*
X100960208Y-72284474D01*
X100987378Y-72283169D01*
X101014547Y-72281865D01*
X101016760Y-72248676D01*
X101018972Y-72215488D01*
X101083136Y-72212888D01*
X101083136Y-72184319D01*
X101083607Y-72169614D01*
X101084838Y-72159096D01*
X101086455Y-72155165D01*
X101092561Y-72154854D01*
X101106641Y-72154566D01*
X101127816Y-72154301D01*
X101155209Y-72154061D01*
X101187944Y-72153846D01*
X101225143Y-72153659D01*
X101265929Y-72153499D01*
X101309425Y-72153369D01*
X101354754Y-72153269D01*
X101401037Y-72153200D01*
X101447399Y-72153164D01*
X101492962Y-72153161D01*
X101536849Y-72153194D01*
G37*
G36*
X103769164Y-69969757D02*
G01*
X103769164Y-76970244D01*
X92210837Y-76970244D01*
X92210837Y-76301668D01*
X96295192Y-76301668D01*
X96327274Y-76303196D01*
X96334556Y-76303332D01*
X96350409Y-76303464D01*
X96374549Y-76303593D01*
X96406698Y-76303718D01*
X96446574Y-76303838D01*
X96493897Y-76303955D01*
X96548386Y-76304068D01*
X96609759Y-76304177D01*
X96677737Y-76304282D01*
X96752039Y-76304383D01*
X96832383Y-76304479D01*
X96918490Y-76304572D01*
X97010078Y-76304661D01*
X97106867Y-76304746D01*
X97208576Y-76304826D01*
X97314924Y-76304903D01*
X97425631Y-76304975D01*
X97540416Y-76305043D01*
X97658998Y-76305107D01*
X97781096Y-76305167D01*
X97906430Y-76305223D01*
X98034719Y-76305274D01*
X98165682Y-76305321D01*
X98299038Y-76305364D01*
X98434508Y-76305403D01*
X98571809Y-76305437D01*
X98710662Y-76305467D01*
X98850785Y-76305493D01*
X98991898Y-76305515D01*
X99133721Y-76305532D01*
X99275972Y-76305545D01*
X99418370Y-76305553D01*
X99560635Y-76305557D01*
X99702487Y-76305557D01*
X99843644Y-76305552D01*
X99983826Y-76305542D01*
X100122752Y-76305529D01*
X100260142Y-76305510D01*
X100395714Y-76305488D01*
X100529188Y-76305460D01*
X100660283Y-76305428D01*
X100788719Y-76305392D01*
X100914214Y-76305351D01*
X101036488Y-76305306D01*
X101155261Y-76305255D01*
X101270251Y-76305201D01*
X101381178Y-76305141D01*
X101487761Y-76305077D01*
X101589719Y-76305009D01*
X101686772Y-76304935D01*
X101778639Y-76304857D01*
X101865040Y-76304774D01*
X101945692Y-76304687D01*
X102020317Y-76304595D01*
X102088632Y-76304497D01*
X102150358Y-76304396D01*
X102205213Y-76304289D01*
X102252917Y-76304177D01*
X102293190Y-76304061D01*
X102325749Y-76303940D01*
X102350316Y-76303814D01*
X102366608Y-76303683D01*
X102373962Y-76303561D01*
X102463377Y-76300664D01*
X102464677Y-76273703D01*
X102465976Y-76246743D01*
X102530140Y-76244530D01*
X102594303Y-76242317D01*
X102595608Y-76215138D01*
X102596913Y-76187958D01*
X102650922Y-76184953D01*
X102677093Y-76183497D01*
X102695718Y-76182098D01*
X102708077Y-76180136D01*
X102715448Y-76176992D01*
X102719111Y-76172046D01*
X102720345Y-76164679D01*
X102720428Y-76154273D01*
X102720418Y-76151305D01*
X102720418Y-76125053D01*
X102751133Y-76125053D01*
X102766829Y-76124458D01*
X102778802Y-76122897D01*
X102784531Y-76120703D01*
X102784582Y-76120628D01*
X102790115Y-76118336D01*
X102801840Y-76116737D01*
X102815608Y-76116202D01*
X102843899Y-76116202D01*
X102845216Y-76088546D01*
X102846533Y-76060889D01*
X102877509Y-76058676D01*
X102908485Y-76056464D01*
X102910697Y-76025488D01*
X102912910Y-75994513D01*
X102940566Y-75993195D01*
X102968223Y-75991878D01*
X102968223Y-75961998D01*
X102969003Y-75944921D01*
X102971098Y-75932227D01*
X102973533Y-75926809D01*
X102980627Y-75923909D01*
X102993380Y-75921980D01*
X103004509Y-75921499D01*
X103030174Y-75921499D01*
X103030174Y-75892997D01*
X103030814Y-75877891D01*
X103032482Y-75866567D01*
X103034600Y-75861760D01*
X103036891Y-75856227D01*
X103038490Y-75844502D01*
X103039025Y-75830734D01*
X103039025Y-75802444D01*
X103066681Y-75801126D01*
X103094338Y-75799809D01*
X103095638Y-75767727D01*
X103096939Y-75735645D01*
X103154077Y-75735645D01*
X103154097Y-75694713D01*
X103154394Y-75671876D01*
X103155175Y-75644551D01*
X103156300Y-75617077D01*
X103156986Y-75603999D01*
X103159854Y-75554216D01*
X103214621Y-75554216D01*
X103217537Y-75460576D01*
X103217760Y-75448958D01*
X103217974Y-75428965D01*
X103218179Y-75400948D01*
X103218375Y-75365260D01*
X103218562Y-75322252D01*
X103218740Y-75272276D01*
X103218909Y-75215683D01*
X103219069Y-75152826D01*
X103219220Y-75084056D01*
X103219361Y-75009725D01*
X103219494Y-74930185D01*
X103219617Y-74845787D01*
X103219731Y-74756883D01*
X103219837Y-74663825D01*
X103219933Y-74566966D01*
X103220020Y-74466655D01*
X103220098Y-74363246D01*
X103220166Y-74257090D01*
X103220226Y-74148539D01*
X103220277Y-74037944D01*
X103220318Y-73925658D01*
X103220351Y-73812032D01*
X103220374Y-73697418D01*
X103220388Y-73582167D01*
X103220394Y-73466632D01*
X103220390Y-73351164D01*
X103220376Y-73236115D01*
X103220354Y-73121837D01*
X103220323Y-73008681D01*
X103220282Y-72897000D01*
X103220233Y-72787144D01*
X103220174Y-72679466D01*
X103220106Y-72574318D01*
X103220029Y-72472051D01*
X103219943Y-72373017D01*
X103219848Y-72277568D01*
X103219743Y-72186056D01*
X103219630Y-72098832D01*
X103219507Y-72016248D01*
X103219375Y-71938655D01*
X103219234Y-71866407D01*
X103219084Y-71799854D01*
X103218925Y-71739348D01*
X103218756Y-71685241D01*
X103218579Y-71637885D01*
X103218392Y-71597632D01*
X103218196Y-71564832D01*
X103217991Y-71539839D01*
X103217777Y-71523003D01*
X103217561Y-71514807D01*
X103214668Y-71461011D01*
X103164247Y-71461011D01*
X103158502Y-71365871D01*
X103152757Y-71270732D01*
X103097546Y-71270732D01*
X103094338Y-71208781D01*
X103091131Y-71146830D01*
X103034600Y-71146830D01*
X103034600Y-71085283D01*
X103004730Y-71083974D01*
X102974861Y-71082666D01*
X102972648Y-71051690D01*
X102970436Y-71020715D01*
X102942779Y-71019397D01*
X102915122Y-71018080D01*
X102915122Y-70992625D01*
X102914247Y-70977797D01*
X102911991Y-70966296D01*
X102909812Y-70961861D01*
X102902618Y-70958966D01*
X102889381Y-70957061D01*
X102876624Y-70956551D01*
X102848746Y-70956551D01*
X102848746Y-70899025D01*
X102787167Y-70899025D01*
X102785875Y-70864730D01*
X102784582Y-70830436D01*
X102748075Y-70829151D01*
X102711568Y-70827865D01*
X102711568Y-70772157D01*
X102633023Y-70766976D01*
X102606906Y-70765291D01*
X102583305Y-70763838D01*
X102563867Y-70762713D01*
X102550241Y-70762012D01*
X102544521Y-70761821D01*
X102538950Y-70761093D01*
X102535963Y-70757488D01*
X102534767Y-70748926D01*
X102534565Y-70735794D01*
X102534565Y-70709741D01*
X102473720Y-70707106D01*
X102444745Y-70705858D01*
X102411145Y-70704420D01*
X102377135Y-70702972D01*
X102347605Y-70701723D01*
X102282335Y-70698976D01*
X102282335Y-70646795D01*
X96423519Y-70646795D01*
X96423519Y-70699665D01*
X96491002Y-70700887D01*
X96558485Y-70702108D01*
X96559778Y-70731317D01*
X96561071Y-70760525D01*
X96608036Y-70763399D01*
X96634076Y-70764701D01*
X96663023Y-70765695D01*
X96689942Y-70766225D01*
X96698563Y-70766272D01*
X96742126Y-70766272D01*
X96742126Y-70822610D01*
X96805183Y-70826523D01*
X96868241Y-70830436D01*
X96869532Y-70862074D01*
X96870823Y-70893713D01*
X96930377Y-70896903D01*
X96989931Y-70900092D01*
X96989931Y-70955708D01*
X97056117Y-70958899D01*
X97122304Y-70962091D01*
X97124896Y-71020715D01*
X97156978Y-71022015D01*
X97189059Y-71023315D01*
X97189059Y-71079261D01*
X97247692Y-71083176D01*
X97306324Y-71087091D01*
X97308537Y-71115854D01*
X97310749Y-71144617D01*
X97340619Y-71145926D01*
X97370488Y-71147234D01*
X97370488Y-71204356D01*
X97398366Y-71204356D01*
X97414385Y-71205175D01*
X97426542Y-71207333D01*
X97431554Y-71209666D01*
X97434454Y-71216760D01*
X97436383Y-71229513D01*
X97436864Y-71240642D01*
X97436864Y-71266307D01*
X97462530Y-71266307D01*
X97477414Y-71267175D01*
X97488976Y-71269414D01*
X97493505Y-71271617D01*
X97496416Y-71278721D01*
X97498345Y-71291465D01*
X97498816Y-71302391D01*
X97498816Y-71327854D01*
X97528685Y-71329162D01*
X97558554Y-71330471D01*
X97559858Y-71360142D01*
X97561162Y-71389814D01*
X97590834Y-71391118D01*
X97620505Y-71392422D01*
X97621795Y-71426534D01*
X97623084Y-71460645D01*
X97657195Y-71461934D01*
X97691307Y-71463223D01*
X97693915Y-71522567D01*
X97723586Y-71523871D01*
X97753258Y-71525175D01*
X97754567Y-71555044D01*
X97755875Y-71584913D01*
X97783962Y-71584913D01*
X97800111Y-71585364D01*
X97809999Y-71587876D01*
X97815157Y-71594189D01*
X97817121Y-71606043D01*
X97817422Y-71622888D01*
X97817422Y-71646865D01*
X97843087Y-71646865D01*
X97857972Y-71647732D01*
X97869533Y-71649972D01*
X97874063Y-71652175D01*
X97876958Y-71659368D01*
X97878863Y-71672606D01*
X97879373Y-71685363D01*
X97879373Y-71713241D01*
X97936899Y-71713241D01*
X97936899Y-71774788D01*
X97966769Y-71776096D01*
X97996638Y-71777405D01*
X98004444Y-71894277D01*
X98031516Y-71895580D01*
X98058589Y-71896882D01*
X98060802Y-71927858D01*
X98063014Y-71958833D01*
X98090671Y-71960151D01*
X98118328Y-71961468D01*
X98118328Y-71994184D01*
X98118887Y-72010398D01*
X98120362Y-72022936D01*
X98122451Y-72029372D01*
X98122753Y-72029635D01*
X98124961Y-72035126D01*
X98126547Y-72046941D01*
X98127177Y-72062558D01*
X98127178Y-72063084D01*
X98127178Y-72093798D01*
X98184704Y-72093798D01*
X98184704Y-72150077D01*
X98242843Y-72153237D01*
X98257881Y-72153794D01*
X98280783Y-72154289D01*
X98310566Y-72154715D01*
X98346245Y-72155066D01*
X98386834Y-72155334D01*
X98431349Y-72155514D01*
X98478805Y-72155599D01*
X98528216Y-72155582D01*
X98573618Y-72155473D01*
X98623551Y-72155362D01*
X98672104Y-72155366D01*
X98718337Y-72155478D01*
X98761308Y-72155691D01*
X98800077Y-72155996D01*
X98833703Y-72156387D01*
X98861247Y-72156857D01*
X98881766Y-72157398D01*
X98893824Y-72157965D01*
X98941394Y-72161382D01*
X98941394Y-72187245D01*
X98941461Y-72198344D01*
X98942498Y-72206334D01*
X98945759Y-72211760D01*
X98952501Y-72215162D01*
X98963977Y-72217085D01*
X98981443Y-72218070D01*
X99006153Y-72218662D01*
X99014408Y-72218828D01*
X99067509Y-72219913D01*
X99069722Y-72248676D01*
X99071934Y-72277439D01*
X99101606Y-72278743D01*
X99131277Y-72280047D01*
X99133885Y-72339391D01*
X99163231Y-72340687D01*
X99192577Y-72341984D01*
X99195766Y-72401532D01*
X99198956Y-72461081D01*
X99226792Y-72461081D01*
X99243272Y-72461661D01*
X99252767Y-72463677D01*
X99257086Y-72467544D01*
X99257314Y-72468080D01*
X99258313Y-72474945D01*
X99259143Y-72488775D01*
X99259729Y-72507683D01*
X99259993Y-72529784D01*
X99260000Y-72534245D01*
X99260000Y-72593411D01*
X99287657Y-72594728D01*
X99315314Y-72596046D01*
X99315648Y-72823938D01*
X99315673Y-72870164D01*
X99315616Y-72915427D01*
X99315484Y-72958619D01*
X99315284Y-72998632D01*
X99315023Y-73034356D01*
X99314708Y-73064684D01*
X99314346Y-73088506D01*
X99313944Y-73104713D01*
X99313895Y-73106037D01*
X99311808Y-73160244D01*
X99261337Y-73160244D01*
X99257350Y-73223302D01*
X99253363Y-73286359D01*
X99225706Y-73287677D01*
X99198049Y-73288994D01*
X99198049Y-73314972D01*
X99197707Y-73333873D01*
X99195733Y-73345624D01*
X99190708Y-73351922D01*
X99181209Y-73354464D01*
X99165818Y-73354948D01*
X99136502Y-73354948D01*
X99135194Y-73384817D01*
X99133885Y-73414687D01*
X99104016Y-73415995D01*
X99074147Y-73417304D01*
X99074147Y-73531952D01*
X99099812Y-73531952D01*
X99114696Y-73532819D01*
X99126258Y-73535059D01*
X99130788Y-73537262D01*
X99133699Y-73544366D01*
X99135627Y-73557110D01*
X99136098Y-73568026D01*
X99136098Y-73593481D01*
X99163755Y-73594798D01*
X99191411Y-73596115D01*
X99195837Y-73658067D01*
X99223163Y-73659375D01*
X99250489Y-73660684D01*
X99252977Y-73694776D01*
X99254677Y-73717837D01*
X99256600Y-73743579D01*
X99258082Y-73763162D01*
X99260699Y-73797457D01*
X99312037Y-73797457D01*
X99314333Y-73851664D01*
X99314727Y-73865689D01*
X99315079Y-73887632D01*
X99315384Y-73916563D01*
X99315639Y-73951550D01*
X99315838Y-73991663D01*
X99315977Y-74035971D01*
X99316052Y-74083541D01*
X99316058Y-74133443D01*
X99315991Y-74184745D01*
X99315972Y-74193502D01*
X99315314Y-74481133D01*
X99287657Y-74482450D01*
X99260000Y-74483768D01*
X99260000Y-74545297D01*
X98628558Y-74545297D01*
X98625673Y-74498145D01*
X98625174Y-74485526D01*
X98624702Y-74464944D01*
X98624265Y-74437286D01*
X98623870Y-74403440D01*
X98623525Y-74364292D01*
X98623237Y-74320731D01*
X98623014Y-74273643D01*
X98622864Y-74223916D01*
X98622792Y-74172436D01*
X98622788Y-74155403D01*
X98622788Y-73859812D01*
X98592918Y-73858504D01*
X98563049Y-73857196D01*
X98561741Y-73827326D01*
X98560432Y-73797457D01*
X98543614Y-73797457D01*
X98531403Y-73797138D01*
X98513602Y-73796290D01*
X98493443Y-73795074D01*
X98486858Y-73794622D01*
X98446921Y-73791787D01*
X98439147Y-74162527D01*
X98412150Y-74163827D01*
X98385154Y-74165127D01*
X98382281Y-74212085D01*
X98380996Y-74237164D01*
X98380008Y-74264229D01*
X98379466Y-74288827D01*
X98379408Y-74297500D01*
X98379044Y-74321286D01*
X98378085Y-74348473D01*
X98376727Y-74373646D01*
X98376533Y-74376463D01*
X98373658Y-74416969D01*
X98323144Y-74416969D01*
X98315244Y-74547509D01*
X98287587Y-74548827D01*
X98259931Y-74550144D01*
X98259359Y-74573165D01*
X98258967Y-74585981D01*
X98258282Y-74605319D01*
X98257391Y-74628859D01*
X98256380Y-74654280D01*
X98256040Y-74662561D01*
X98253293Y-74728938D01*
X98220105Y-74731150D01*
X98186917Y-74733363D01*
X98182978Y-74798438D01*
X98179038Y-74863513D01*
X98152002Y-74864814D01*
X98124965Y-74866115D01*
X98122365Y-74930279D01*
X98066133Y-74930279D01*
X98062944Y-74989828D01*
X98059755Y-75049376D01*
X98030409Y-75050673D01*
X98001063Y-75051969D01*
X97998463Y-75116133D01*
X97942516Y-75116133D01*
X97938602Y-75174765D01*
X97934687Y-75233398D01*
X97904817Y-75234706D01*
X97874948Y-75236015D01*
X97874948Y-75297157D01*
X97845079Y-75298465D01*
X97815209Y-75299774D01*
X97813905Y-75329446D01*
X97812601Y-75359117D01*
X97782930Y-75360421D01*
X97753258Y-75361725D01*
X97751969Y-75395822D01*
X97750680Y-75429918D01*
X97720994Y-75431222D01*
X97691307Y-75432527D01*
X97690003Y-75462213D01*
X97688698Y-75491900D01*
X97654602Y-75493189D01*
X97620505Y-75494478D01*
X97619202Y-75524149D01*
X97617898Y-75553821D01*
X97558554Y-75556429D01*
X97557250Y-75586101D01*
X97555946Y-75615772D01*
X97526275Y-75617076D01*
X97496603Y-75618380D01*
X97493995Y-75677724D01*
X97464323Y-75679027D01*
X97434652Y-75680331D01*
X97433343Y-75710201D01*
X97432035Y-75740070D01*
X97370488Y-75740070D01*
X97370488Y-75797596D01*
X97341986Y-75797596D01*
X97326881Y-75798235D01*
X97315556Y-75799904D01*
X97310749Y-75802021D01*
X97305221Y-75804305D01*
X97293487Y-75805903D01*
X97279513Y-75806446D01*
X97251011Y-75806446D01*
X97251011Y-75834736D01*
X97250610Y-75850618D01*
X97248280Y-75860507D01*
X97242328Y-75865821D01*
X97231059Y-75867978D01*
X97212782Y-75868397D01*
X97210823Y-75868398D01*
X97184634Y-75868398D01*
X97184634Y-75925004D01*
X97120654Y-75928202D01*
X97056673Y-75931400D01*
X97055384Y-75962957D01*
X97054094Y-75994513D01*
X97029756Y-75995660D01*
X97009683Y-75996792D01*
X96996838Y-75998673D01*
X96989607Y-76002457D01*
X96986377Y-76009297D01*
X96985535Y-76020346D01*
X96985505Y-76027296D01*
X96985505Y-76053273D01*
X96931298Y-76056291D01*
X96905086Y-76057752D01*
X96886422Y-76059153D01*
X96874027Y-76061097D01*
X96866625Y-76064190D01*
X96862937Y-76069034D01*
X96861686Y-76076234D01*
X96861595Y-76086393D01*
X96861603Y-76089239D01*
X96861603Y-76114781D01*
X96787483Y-76119977D01*
X96761663Y-76121724D01*
X96737943Y-76123213D01*
X96718160Y-76124338D01*
X96704155Y-76124991D01*
X96698981Y-76125113D01*
X96684600Y-76125053D01*
X96684600Y-76151342D01*
X96683973Y-76165783D01*
X96682349Y-76176326D01*
X96680582Y-76180115D01*
X96675136Y-76180987D01*
X96662209Y-76182009D01*
X96643167Y-76183104D01*
X96619375Y-76184198D01*
X96592200Y-76185215D01*
X96583423Y-76185499D01*
X96490282Y-76188399D01*
X96488983Y-76215358D01*
X96487683Y-76242317D01*
X96416882Y-76245037D01*
X96390408Y-76246030D01*
X96364895Y-76246943D01*
X96342621Y-76247699D01*
X96325864Y-76248218D01*
X96320636Y-76248356D01*
X96295192Y-76248955D01*
X96295192Y-76301668D01*
X92210837Y-76301668D01*
X92210837Y-72331743D01*
X92777628Y-72331743D01*
X92777639Y-72411904D01*
X92777672Y-72492455D01*
X92777728Y-72572832D01*
X92777805Y-72652471D01*
X92777905Y-72730808D01*
X92778027Y-72807280D01*
X92778171Y-72881322D01*
X92778336Y-72952370D01*
X92778522Y-73019860D01*
X92778729Y-73083229D01*
X92778957Y-73141912D01*
X92779206Y-73195345D01*
X92779475Y-73242964D01*
X92779765Y-73284205D01*
X92780075Y-73318505D01*
X92780404Y-73345299D01*
X92780583Y-73356054D01*
X92782892Y-73478851D01*
X92833439Y-73478851D01*
X92836296Y-73521995D01*
X92837368Y-73542991D01*
X92838264Y-73569648D01*
X92838899Y-73598776D01*
X92839188Y-73627186D01*
X92839196Y-73631516D01*
X92839427Y-73660392D01*
X92840028Y-73691355D01*
X92840909Y-73720884D01*
X92841984Y-73745463D01*
X92842108Y-73747675D01*
X92844976Y-73797457D01*
X92895400Y-73797457D01*
X92898275Y-73837962D01*
X92899652Y-73861540D01*
X92900669Y-73886932D01*
X92901138Y-73909253D01*
X92901150Y-73912501D01*
X92901448Y-73932376D01*
X92902245Y-73957033D01*
X92903398Y-73982425D01*
X92904035Y-73993685D01*
X92906920Y-74040837D01*
X92963101Y-74040837D01*
X92963101Y-74098001D01*
X92963302Y-74120125D01*
X92963849Y-74139413D01*
X92964662Y-74153937D01*
X92965660Y-74161769D01*
X92965787Y-74162165D01*
X92969983Y-74166443D01*
X92979566Y-74168624D01*
X92993918Y-74169164D01*
X93019362Y-74169164D01*
X93022117Y-74212309D01*
X93023622Y-74236283D01*
X93025361Y-74264560D01*
X93027054Y-74292606D01*
X93027804Y-74305236D01*
X93030737Y-74355018D01*
X93086631Y-74355018D01*
X93087924Y-74389312D01*
X93089216Y-74423607D01*
X93120929Y-74424899D01*
X93152641Y-74426192D01*
X93155292Y-74455875D01*
X93157199Y-74477538D01*
X93159263Y-74501445D01*
X93160450Y-74515427D01*
X93162956Y-74545297D01*
X93218689Y-74545297D01*
X93221889Y-74605035D01*
X93225088Y-74664774D01*
X93250300Y-74664774D01*
X93265064Y-74665657D01*
X93276496Y-74667933D01*
X93280823Y-74670084D01*
X93283718Y-74677278D01*
X93285622Y-74690515D01*
X93286133Y-74703272D01*
X93286133Y-74731150D01*
X93343254Y-74731150D01*
X93344563Y-74761020D01*
X93345871Y-74790889D01*
X93374634Y-74793101D01*
X93403397Y-74795314D01*
X93407210Y-74858181D01*
X93411023Y-74921047D01*
X93440398Y-74922344D01*
X93469774Y-74923642D01*
X93471078Y-74953313D01*
X93472382Y-74982985D01*
X93502053Y-74984289D01*
X93531725Y-74985593D01*
X93533029Y-75015264D01*
X93534333Y-75044936D01*
X93564005Y-75046240D01*
X93593676Y-75047544D01*
X93594985Y-75077413D01*
X93596293Y-75107283D01*
X93624593Y-75107283D01*
X93639643Y-75107926D01*
X93650907Y-75109605D01*
X93655627Y-75111708D01*
X93661122Y-75113923D01*
X93672930Y-75115510D01*
X93688519Y-75116133D01*
X93719369Y-75116133D01*
X93720686Y-75143790D01*
X93722004Y-75171446D01*
X93753888Y-75172743D01*
X93785772Y-75174039D01*
X93787076Y-75203718D01*
X93788380Y-75233398D01*
X93818249Y-75234706D01*
X93848119Y-75236015D01*
X93848119Y-75293136D01*
X93878833Y-75293136D01*
X93894530Y-75293731D01*
X93906503Y-75295292D01*
X93912231Y-75297486D01*
X93912282Y-75297561D01*
X93917857Y-75299938D01*
X93929486Y-75301544D01*
X93941096Y-75301986D01*
X93967174Y-75301986D01*
X93968491Y-75329643D01*
X93969809Y-75357300D01*
X94002997Y-75359513D01*
X94036185Y-75361725D01*
X94037476Y-75393364D01*
X94038767Y-75425002D01*
X94098321Y-75428192D01*
X94157875Y-75431381D01*
X94157875Y-75486933D01*
X94218720Y-75489893D01*
X94241358Y-75491099D01*
X94261017Y-75492344D01*
X94275901Y-75493499D01*
X94284217Y-75494436D01*
X94285096Y-75494632D01*
X94288667Y-75500313D01*
X94290443Y-75514140D01*
X94290627Y-75522604D01*
X94290627Y-75548796D01*
X94352579Y-75552004D01*
X94414530Y-75555212D01*
X94414530Y-75610184D01*
X94497500Y-75615455D01*
X94524131Y-75617118D01*
X94548060Y-75618558D01*
X94567750Y-75619687D01*
X94581661Y-75620417D01*
X94588215Y-75620659D01*
X94592634Y-75621990D01*
X94594996Y-75627376D01*
X94595884Y-75638760D01*
X94595958Y-75646467D01*
X94595958Y-75672342D01*
X94645741Y-75675210D01*
X94672337Y-75676476D01*
X94701837Y-75677461D01*
X94729520Y-75678022D01*
X94740880Y-75678099D01*
X94786237Y-75678119D01*
X94786237Y-75734236D01*
X94882483Y-75737142D01*
X94915512Y-75738051D01*
X94949927Y-75738845D01*
X94983197Y-75739477D01*
X95012791Y-75739897D01*
X95036179Y-75740059D01*
X95036999Y-75740059D01*
X95059331Y-75740260D01*
X95078830Y-75740800D01*
X95093593Y-75741602D01*
X95101714Y-75742587D01*
X95102269Y-75742756D01*
X95106499Y-75746869D01*
X95108685Y-75756266D01*
X95109269Y-75771449D01*
X95109269Y-75797456D01*
X95232065Y-75798705D01*
X95268605Y-75799091D01*
X95306249Y-75799513D01*
X95342896Y-75799945D01*
X95376447Y-75800363D01*
X95404804Y-75800742D01*
X95421237Y-75800982D01*
X95440730Y-75801138D01*
X95467645Y-75801138D01*
X95500554Y-75800993D01*
X95538032Y-75800715D01*
X95578650Y-75800314D01*
X95620982Y-75799801D01*
X95663601Y-75799187D01*
X95670148Y-75799083D01*
X95852683Y-75796156D01*
X95852683Y-75770799D01*
X95853391Y-75755002D01*
X95855813Y-75746172D01*
X95859683Y-75742756D01*
X95866438Y-75741800D01*
X95880267Y-75740992D01*
X95899391Y-75740400D01*
X95922034Y-75740089D01*
X95931590Y-75740058D01*
X95957874Y-75739893D01*
X95990051Y-75739442D01*
X96025171Y-75738762D01*
X96060282Y-75737907D01*
X96086107Y-75737144D01*
X96175715Y-75734240D01*
X96175715Y-75678119D01*
X96221072Y-75678099D01*
X96246174Y-75677795D01*
X96275383Y-75676997D01*
X96303977Y-75675850D01*
X96316211Y-75675210D01*
X96365993Y-75672342D01*
X96365993Y-75621918D01*
X96404713Y-75619171D01*
X96425252Y-75617799D01*
X96451052Y-75616199D01*
X96478532Y-75614588D01*
X96499852Y-75613409D01*
X96556272Y-75610394D01*
X96556272Y-75555212D01*
X96618025Y-75552014D01*
X96679777Y-75548817D01*
X96681082Y-75521647D01*
X96682387Y-75494478D01*
X96743232Y-75490608D01*
X96804077Y-75486739D01*
X96804077Y-75431381D01*
X96863631Y-75428192D01*
X96923184Y-75425002D01*
X96924476Y-75393364D01*
X96925767Y-75361725D01*
X96958955Y-75359513D01*
X96992143Y-75357300D01*
X96993461Y-75329643D01*
X96994778Y-75301986D01*
X97020856Y-75301986D01*
X97035290Y-75301290D01*
X97045871Y-75299485D01*
X97049669Y-75297561D01*
X97055095Y-75295484D01*
X97067043Y-75293929D01*
X97083188Y-75293170D01*
X97087544Y-75293136D01*
X97122683Y-75293136D01*
X97122683Y-75236015D01*
X97152553Y-75234706D01*
X97182422Y-75233398D01*
X97183726Y-75203718D01*
X97185030Y-75174039D01*
X97216914Y-75172743D01*
X97248798Y-75171446D01*
X97250116Y-75143790D01*
X97251433Y-75116133D01*
X97277511Y-75116133D01*
X97291945Y-75115436D01*
X97302526Y-75113631D01*
X97306324Y-75111708D01*
X97311857Y-75109417D01*
X97323582Y-75107818D01*
X97337359Y-75107283D01*
X97365659Y-75107283D01*
X97366967Y-75077413D01*
X97368276Y-75047544D01*
X97397947Y-75046240D01*
X97427619Y-75044936D01*
X97428923Y-75015264D01*
X97430227Y-74985593D01*
X97459898Y-74984289D01*
X97489570Y-74982985D01*
X97490874Y-74953313D01*
X97492178Y-74923642D01*
X97521553Y-74922344D01*
X97550929Y-74921047D01*
X97554742Y-74858181D01*
X97558554Y-74795314D01*
X97587317Y-74793101D01*
X97616080Y-74790889D01*
X97617389Y-74761020D01*
X97618697Y-74731150D01*
X97684669Y-74731150D01*
X97684669Y-74704962D01*
X97685008Y-74686000D01*
X97686957Y-74674193D01*
X97691915Y-74667848D01*
X97701281Y-74665273D01*
X97716454Y-74664775D01*
X97717878Y-74664774D01*
X97745714Y-74664774D01*
X97748903Y-74605225D01*
X97752093Y-74545677D01*
X97781438Y-74544381D01*
X97810784Y-74543084D01*
X97818396Y-74426216D01*
X97845566Y-74424911D01*
X97872735Y-74423607D01*
X97874948Y-74390419D01*
X97877161Y-74357230D01*
X97904405Y-74355924D01*
X97931650Y-74354617D01*
X97938032Y-74222265D01*
X97994425Y-74222265D01*
X97994445Y-74181333D01*
X97994743Y-74158496D01*
X97995523Y-74131171D01*
X97996648Y-74103698D01*
X97997334Y-74090619D01*
X98000203Y-74040837D01*
X98055445Y-74040837D01*
X98058337Y-73971142D01*
X98059474Y-73941500D01*
X98060541Y-73909583D01*
X98061433Y-73878859D01*
X98062042Y-73852797D01*
X98062122Y-73848345D01*
X98063014Y-73795244D01*
X97626532Y-73794117D01*
X97190049Y-73792989D01*
X97187554Y-73849430D01*
X97187115Y-73863864D01*
X97186700Y-73886209D01*
X97186316Y-73915524D01*
X97185970Y-73950870D01*
X97185670Y-73991306D01*
X97185421Y-74035894D01*
X97185231Y-74083693D01*
X97185106Y-74133764D01*
X97185054Y-74185166D01*
X97185053Y-74193502D01*
X97185048Y-74244163D01*
X97185038Y-74292972D01*
X97185023Y-74339080D01*
X97185002Y-74381641D01*
X97184978Y-74419805D01*
X97184950Y-74452724D01*
X97184919Y-74479550D01*
X97184885Y-74499435D01*
X97184849Y-74511531D01*
X97184840Y-74513241D01*
X97184634Y-74545350D01*
X96836159Y-74544217D01*
X96487683Y-74543084D01*
X96487683Y-73224408D01*
X96519559Y-73223112D01*
X96551434Y-73221816D01*
X96552747Y-73194349D01*
X96554059Y-73166882D01*
X97366642Y-73165764D01*
X98179224Y-73164646D01*
X98181159Y-73121513D01*
X98181622Y-73104772D01*
X98181879Y-73081022D01*
X98181932Y-73052101D01*
X98181780Y-73019847D01*
X98181425Y-72986098D01*
X98181093Y-72964630D01*
X98179092Y-72850880D01*
X98152029Y-72849578D01*
X98124965Y-72848276D01*
X98123577Y-72779687D01*
X98383833Y-72779687D01*
X98410522Y-72779687D01*
X98427982Y-72780630D01*
X98437553Y-72783389D01*
X98439147Y-72785218D01*
X98439629Y-72790740D01*
X98440175Y-72804123D01*
X98440763Y-72824376D01*
X98441371Y-72850510D01*
X98441976Y-72881536D01*
X98442556Y-72916464D01*
X98443088Y-72954304D01*
X98443201Y-72963328D01*
X98443679Y-73002136D01*
X98444131Y-73038636D01*
X98444544Y-73071769D01*
X98444905Y-73100480D01*
X98445200Y-73123712D01*
X98445416Y-73140406D01*
X98445540Y-73149508D01*
X98445552Y-73150288D01*
X98445767Y-73156303D01*
X98447033Y-73160537D01*
X98450617Y-73163191D01*
X98457788Y-73164467D01*
X98469813Y-73164567D01*
X98487959Y-73163692D01*
X98513496Y-73162045D01*
X98517692Y-73161767D01*
X98560837Y-73158909D01*
X98560837Y-73129486D01*
X98561625Y-73112648D01*
X98563734Y-73100077D01*
X98566147Y-73094753D01*
X98573240Y-73091853D01*
X98585993Y-73089924D01*
X98597122Y-73089443D01*
X98622788Y-73089443D01*
X98622788Y-72846063D01*
X98565262Y-72846063D01*
X98565262Y-72784112D01*
X98503310Y-72784112D01*
X98503310Y-72726586D01*
X98383833Y-72726586D01*
X98383833Y-72779687D01*
X98123577Y-72779687D01*
X98122503Y-72726586D01*
X97357783Y-72726586D01*
X97275285Y-72726569D01*
X97194647Y-72726520D01*
X97116362Y-72726441D01*
X97040924Y-72726332D01*
X96968827Y-72726197D01*
X96900565Y-72726036D01*
X96836632Y-72725852D01*
X96777522Y-72725646D01*
X96723728Y-72725421D01*
X96675745Y-72725176D01*
X96634067Y-72724915D01*
X96599187Y-72724640D01*
X96571599Y-72724351D01*
X96551797Y-72724051D01*
X96540275Y-72723742D01*
X96539266Y-72723693D01*
X96485471Y-72720801D01*
X96485471Y-72155750D01*
X96521978Y-72155519D01*
X96530504Y-72155488D01*
X96547372Y-72155446D01*
X96572069Y-72155395D01*
X96604087Y-72155336D01*
X96642916Y-72155269D01*
X96688045Y-72155196D01*
X96738965Y-72155116D01*
X96795166Y-72155031D01*
X96856138Y-72154941D01*
X96921371Y-72154848D01*
X96990355Y-72154751D01*
X97062580Y-72154653D01*
X97137537Y-72154553D01*
X97214716Y-72154452D01*
X97245111Y-72154413D01*
X97322381Y-72154296D01*
X97397242Y-72154146D01*
X97469215Y-72153966D01*
X97537824Y-72153758D01*
X97602588Y-72153526D01*
X97663030Y-72153271D01*
X97718672Y-72152997D01*
X97769034Y-72152705D01*
X97813640Y-72152400D01*
X97852010Y-72152083D01*
X97883666Y-72151757D01*
X97908130Y-72151425D01*
X97924923Y-72151089D01*
X97933568Y-72150752D01*
X97934679Y-72150595D01*
X97935558Y-72145293D01*
X97935830Y-72132949D01*
X97935501Y-72115349D01*
X97934578Y-72094281D01*
X97934459Y-72092158D01*
X97931298Y-72036664D01*
X97904229Y-72035362D01*
X97877161Y-72034060D01*
X97876029Y-72005297D01*
X97875049Y-71984052D01*
X97873442Y-71970112D01*
X97870202Y-71961936D01*
X97864326Y-71957987D01*
X97854810Y-71956727D01*
X97844266Y-71956621D01*
X97818177Y-71956621D01*
X97815518Y-71926751D01*
X97813605Y-71904971D01*
X97811537Y-71880984D01*
X97810352Y-71867013D01*
X97807845Y-71837143D01*
X97752113Y-71837143D01*
X97748913Y-71777405D01*
X97745714Y-71717666D01*
X97717878Y-71717666D01*
X97702209Y-71717256D01*
X97692452Y-71714897D01*
X97687210Y-71708897D01*
X97685082Y-71697562D01*
X97684670Y-71679201D01*
X97684669Y-71677478D01*
X97684669Y-71651290D01*
X97618697Y-71651290D01*
X97617389Y-71621420D01*
X97616080Y-71591551D01*
X97586401Y-71590247D01*
X97556721Y-71588943D01*
X97554129Y-71525175D01*
X97526472Y-71523857D01*
X97498816Y-71522540D01*
X97498816Y-71496462D01*
X97498119Y-71482028D01*
X97496314Y-71471446D01*
X97494391Y-71467648D01*
X97492244Y-71462189D01*
X97490672Y-71450309D01*
X97489976Y-71434435D01*
X97489965Y-71432189D01*
X97489965Y-71399464D01*
X97460096Y-71398156D01*
X97430227Y-71396847D01*
X97428918Y-71366978D01*
X97427610Y-71337108D01*
X97399310Y-71337108D01*
X97384260Y-71336465D01*
X97372996Y-71334786D01*
X97368276Y-71332683D01*
X97362701Y-71330307D01*
X97351072Y-71328701D01*
X97339462Y-71328258D01*
X97313384Y-71328258D01*
X97312067Y-71300601D01*
X97310749Y-71272945D01*
X97279774Y-71270732D01*
X97248798Y-71268520D01*
X97247490Y-71238650D01*
X97246181Y-71208781D01*
X97185039Y-71208781D01*
X97183730Y-71178912D01*
X97182422Y-71149042D01*
X97151446Y-71146830D01*
X97120471Y-71144617D01*
X97119153Y-71116960D01*
X97117836Y-71089304D01*
X97085120Y-71089304D01*
X97068906Y-71088744D01*
X97056367Y-71087269D01*
X97049932Y-71085180D01*
X97049669Y-71084878D01*
X97044099Y-71082511D01*
X97032460Y-71080905D01*
X97020645Y-71080453D01*
X96994356Y-71080453D01*
X96994356Y-71054376D01*
X96993905Y-71039534D01*
X96991424Y-71030291D01*
X96985223Y-71025324D01*
X96973612Y-71023311D01*
X96954899Y-71022927D01*
X96927979Y-71022927D01*
X96927979Y-70966396D01*
X96866028Y-70963189D01*
X96804077Y-70959981D01*
X96804077Y-70904274D01*
X96742126Y-70901082D01*
X96680174Y-70897890D01*
X96680174Y-70833473D01*
X96618413Y-70830291D01*
X96556651Y-70827108D01*
X96555355Y-70797797D01*
X96554059Y-70768485D01*
X96458920Y-70766272D01*
X96363781Y-70764060D01*
X96362472Y-70734190D01*
X96361164Y-70704321D01*
X96273226Y-70704321D01*
X96245850Y-70704190D01*
X96221233Y-70703826D01*
X96200847Y-70703270D01*
X96186168Y-70702564D01*
X96178668Y-70701750D01*
X96178289Y-70701635D01*
X96174065Y-70697532D01*
X96171878Y-70688157D01*
X96171289Y-70672872D01*
X96171289Y-70646795D01*
X93724216Y-70646795D01*
X93724216Y-70698826D01*
X93661159Y-70701498D01*
X93631680Y-70702742D01*
X93597514Y-70704175D01*
X93562817Y-70705623D01*
X93531743Y-70706913D01*
X93530619Y-70706960D01*
X93463136Y-70709748D01*
X93463136Y-70760956D01*
X93406716Y-70763909D01*
X93384916Y-70765162D01*
X93366118Y-70766451D01*
X93352202Y-70767633D01*
X93345049Y-70768563D01*
X93344765Y-70768641D01*
X93341196Y-70774324D01*
X93339420Y-70788177D01*
X93339234Y-70796731D01*
X93339234Y-70823043D01*
X93309364Y-70825702D01*
X93287584Y-70827615D01*
X93263597Y-70829683D01*
X93249626Y-70830868D01*
X93219756Y-70833375D01*
X93219756Y-70899025D01*
X93158210Y-70899025D01*
X93156901Y-70928894D01*
X93155593Y-70958763D01*
X93084791Y-70963189D01*
X93083487Y-70992852D01*
X93082184Y-71022515D01*
X93054724Y-71023827D01*
X93027265Y-71025140D01*
X93025961Y-71054811D01*
X93024657Y-71084483D01*
X92994986Y-71085787D01*
X92965314Y-71087091D01*
X92963101Y-71118067D01*
X92960889Y-71149042D01*
X92933675Y-71150348D01*
X92906460Y-71151654D01*
X92903272Y-71211193D01*
X92900083Y-71270732D01*
X92843624Y-71270732D01*
X92843012Y-71293964D01*
X92842635Y-71306451D01*
X92841996Y-71325637D01*
X92841171Y-71349381D01*
X92840232Y-71375536D01*
X92839693Y-71390209D01*
X92836986Y-71463223D01*
X92810005Y-71464523D01*
X92783023Y-71465823D01*
X92779964Y-71566300D01*
X92779638Y-71581779D01*
X92779336Y-71605543D01*
X92779060Y-71637030D01*
X92778809Y-71675675D01*
X92778583Y-71720914D01*
X92778381Y-71772183D01*
X92778203Y-71828919D01*
X92778050Y-71890556D01*
X92777921Y-71956532D01*
X92777816Y-72026282D01*
X92777734Y-72099242D01*
X92777675Y-72174848D01*
X92777640Y-72252536D01*
X92777628Y-72331743D01*
X92210837Y-72331743D01*
X92210837Y-69969757D01*
X103769164Y-69969757D01*
G37*
G36*
X94127820Y-72154667D02*
G01*
X94169772Y-72154712D01*
X94206959Y-72154799D01*
X94238579Y-72154929D01*
X94263832Y-72155105D01*
X94281916Y-72155329D01*
X94291770Y-72155590D01*
X94292366Y-72159914D01*
X94292888Y-72172305D01*
X94293332Y-72191978D01*
X94293688Y-72218151D01*
X94293952Y-72250039D01*
X94294115Y-72286858D01*
X94294171Y-72327827D01*
X94294113Y-72372159D01*
X94293982Y-72409086D01*
X94292840Y-72662422D01*
X93910490Y-72664728D01*
X93909174Y-72692338D01*
X93907857Y-72719948D01*
X93791839Y-72727702D01*
X93789003Y-72767649D01*
X93787554Y-72795894D01*
X93786654Y-72830275D01*
X93786301Y-72868096D01*
X93786496Y-72906661D01*
X93787237Y-72943274D01*
X93788524Y-72975238D01*
X93789058Y-72984160D01*
X93791903Y-73027117D01*
X93821117Y-73028411D01*
X93850331Y-73029704D01*
X93851639Y-73059532D01*
X93852946Y-73089361D01*
X94292840Y-73091655D01*
X94293982Y-73344992D01*
X94294135Y-73391428D01*
X94294168Y-73435119D01*
X94294089Y-73475279D01*
X94293905Y-73511126D01*
X94293621Y-73541876D01*
X94293246Y-73566746D01*
X94292785Y-73584953D01*
X94292247Y-73595712D01*
X94291770Y-73598432D01*
X94278940Y-73598683D01*
X94258228Y-73598900D01*
X94230499Y-73599086D01*
X94196618Y-73599239D01*
X94157451Y-73599361D01*
X94113861Y-73599454D01*
X94066716Y-73599516D01*
X94016878Y-73599549D01*
X93965214Y-73599554D01*
X93912589Y-73599531D01*
X93859867Y-73599482D01*
X93807913Y-73599405D01*
X93757594Y-73599304D01*
X93709773Y-73599177D01*
X93665315Y-73599026D01*
X93625087Y-73598851D01*
X93589952Y-73598653D01*
X93560776Y-73598433D01*
X93538424Y-73598191D01*
X93523761Y-73597928D01*
X93520662Y-73597834D01*
X93494550Y-73596871D01*
X93470107Y-73595979D01*
X93449336Y-73595231D01*
X93434239Y-73594698D01*
X93428842Y-73594515D01*
X93410035Y-73593903D01*
X93410035Y-73541722D01*
X93345871Y-73538514D01*
X93281708Y-73535307D01*
X93281708Y-73478851D01*
X93255519Y-73478851D01*
X93236558Y-73478515D01*
X93224752Y-73476564D01*
X93218408Y-73471578D01*
X93215832Y-73462139D01*
X93215332Y-73446830D01*
X93215331Y-73445189D01*
X93215331Y-73416899D01*
X93158193Y-73416899D01*
X93156893Y-73384817D01*
X93155593Y-73352736D01*
X93121298Y-73351443D01*
X93087004Y-73350151D01*
X93087004Y-72403554D01*
X93153380Y-72403554D01*
X93153380Y-72375676D01*
X93154199Y-72359657D01*
X93156357Y-72347500D01*
X93158690Y-72342488D01*
X93165794Y-72339577D01*
X93178538Y-72337649D01*
X93189455Y-72337178D01*
X93214909Y-72337178D01*
X93216226Y-72309521D01*
X93217544Y-72281865D01*
X93248519Y-72279652D01*
X93279495Y-72277439D01*
X93280792Y-72248096D01*
X93282088Y-72218752D01*
X93346062Y-72215554D01*
X93410035Y-72212356D01*
X93410035Y-72161236D01*
X93462030Y-72157819D01*
X93471305Y-72157494D01*
X93488629Y-72157176D01*
X93513201Y-72156868D01*
X93544221Y-72156570D01*
X93580887Y-72156287D01*
X93622399Y-72156018D01*
X93667956Y-72155768D01*
X93716756Y-72155537D01*
X93767999Y-72155329D01*
X93820884Y-72155144D01*
X93874609Y-72154986D01*
X93928375Y-72154857D01*
X93981380Y-72154758D01*
X94032823Y-72154692D01*
X94081903Y-72154661D01*
X94127820Y-72154667D01*
G37*
G36*
X95181394Y-72152059D02*
G01*
X95232329Y-72152176D01*
X95281696Y-72152351D01*
X95328587Y-72152582D01*
X95372097Y-72152868D01*
X95411321Y-72153208D01*
X95445351Y-72153602D01*
X95473281Y-72154047D01*
X95494206Y-72154543D01*
X95507219Y-72155090D01*
X95507526Y-72155110D01*
X95549565Y-72157962D01*
X95552165Y-72211954D01*
X95599123Y-72214828D01*
X95625124Y-72216129D01*
X95653994Y-72217123D01*
X95680820Y-72217653D01*
X95689441Y-72217701D01*
X95732801Y-72217701D01*
X95734110Y-72247570D01*
X95735418Y-72277439D01*
X95797370Y-72281865D01*
X95798682Y-72309315D01*
X95799994Y-72336766D01*
X95827445Y-72338079D01*
X95854896Y-72339391D01*
X95857108Y-72370366D01*
X95859321Y-72401342D01*
X95888084Y-72403554D01*
X95916847Y-72405767D01*
X95919587Y-72438955D01*
X95920446Y-72453576D01*
X95921252Y-72475122D01*
X95921957Y-72501667D01*
X95922510Y-72531286D01*
X95922863Y-72562054D01*
X95922906Y-72568389D01*
X95923485Y-72664635D01*
X95985436Y-72664635D01*
X95985436Y-72717736D01*
X95923485Y-72717736D01*
X95923485Y-72784112D01*
X95985436Y-72784112D01*
X95985436Y-72841638D01*
X95954721Y-72841638D01*
X95939025Y-72842232D01*
X95927052Y-72843793D01*
X95921323Y-72845987D01*
X95921272Y-72846063D01*
X95916602Y-72846661D01*
X95903918Y-72847210D01*
X95884054Y-72847709D01*
X95857846Y-72848157D01*
X95826131Y-72848552D01*
X95789742Y-72848892D01*
X95749516Y-72849176D01*
X95706288Y-72849403D01*
X95660893Y-72849572D01*
X95614167Y-72849680D01*
X95566945Y-72849726D01*
X95520064Y-72849709D01*
X95474357Y-72849628D01*
X95430661Y-72849481D01*
X95389811Y-72849266D01*
X95352642Y-72848982D01*
X95319990Y-72848627D01*
X95292691Y-72848201D01*
X95271579Y-72847701D01*
X95259139Y-72847219D01*
X95229793Y-72845683D01*
X95226627Y-72786564D01*
X95223460Y-72727446D01*
X95164152Y-72724270D01*
X95104843Y-72721093D01*
X95104843Y-72664730D01*
X94726499Y-72662422D01*
X94725356Y-72409655D01*
X94724214Y-72156888D01*
X94785095Y-72154269D01*
X94801883Y-72153755D01*
X94826164Y-72153310D01*
X94857031Y-72152931D01*
X94893577Y-72152617D01*
X94934898Y-72152369D01*
X94980086Y-72152184D01*
X95028236Y-72152061D01*
X95078441Y-72152000D01*
X95129796Y-72152000D01*
X95181394Y-72152059D01*
G37*
G36*
X93719791Y-73823534D02*
G01*
X93720254Y-73838457D01*
X93722775Y-73847713D01*
X93729057Y-73852654D01*
X93740801Y-73854627D01*
X93759445Y-73854983D01*
X93785100Y-73854983D01*
X93791430Y-73973163D01*
X93878407Y-73978791D01*
X93914634Y-73980625D01*
X93958344Y-73981967D01*
X94008182Y-73982794D01*
X94062791Y-73983085D01*
X94120818Y-73982819D01*
X94126899Y-73982759D01*
X94288415Y-73981098D01*
X94290627Y-74012074D01*
X94292840Y-74043049D01*
X94320497Y-74044367D01*
X94348154Y-74045684D01*
X94348154Y-74098363D01*
X94295134Y-74098363D01*
X94293987Y-74320723D01*
X94292840Y-74543084D01*
X93880201Y-74544213D01*
X93467561Y-74545342D01*
X93467561Y-74489115D01*
X93420409Y-74486230D01*
X93394394Y-74484927D01*
X93365532Y-74483930D01*
X93338709Y-74483395D01*
X93329897Y-74483345D01*
X93286537Y-74483345D01*
X93285229Y-74453476D01*
X93283920Y-74423607D01*
X93251838Y-74422307D01*
X93219756Y-74421006D01*
X93219756Y-74364272D01*
X93189887Y-74362964D01*
X93160018Y-74361655D01*
X93157805Y-74330680D01*
X93155593Y-74299704D01*
X93122404Y-74297492D01*
X93089216Y-74295279D01*
X93088069Y-74072919D01*
X93086922Y-73850558D01*
X93157805Y-73850558D01*
X93157805Y-73797457D01*
X93719791Y-73797457D01*
X93719791Y-73823534D01*
G37*
G36*
X95152053Y-73089564D02*
G01*
X95205070Y-73089634D01*
X95257189Y-73089767D01*
X95307524Y-73089963D01*
X95355188Y-73090222D01*
X95399294Y-73090544D01*
X95438958Y-73090929D01*
X95473291Y-73091377D01*
X95501410Y-73091888D01*
X95519695Y-73092369D01*
X95609303Y-73095273D01*
X95609303Y-73159249D01*
X95671255Y-73162457D01*
X95733206Y-73165664D01*
X95733206Y-73222196D01*
X95759394Y-73222196D01*
X95778355Y-73222531D01*
X95790161Y-73224482D01*
X95796505Y-73229468D01*
X95799081Y-73238907D01*
X95799581Y-73254216D01*
X95799582Y-73255857D01*
X95799582Y-73284147D01*
X95827872Y-73284147D01*
X95843754Y-73284547D01*
X95853642Y-73286877D01*
X95858956Y-73292830D01*
X95861114Y-73304098D01*
X95861532Y-73322375D01*
X95861533Y-73324334D01*
X95861533Y-73350523D01*
X95917715Y-73350523D01*
X95920600Y-73397675D01*
X95921604Y-73418925D01*
X95922457Y-73446163D01*
X95923090Y-73476527D01*
X95923438Y-73507155D01*
X95923485Y-73521577D01*
X95923485Y-73598328D01*
X95985436Y-73598328D01*
X95985436Y-73655854D01*
X95923485Y-73655854D01*
X95923485Y-73735506D01*
X95985436Y-73735506D01*
X95985436Y-73788607D01*
X95923485Y-73788607D01*
X95923485Y-74040837D01*
X95985436Y-74040837D01*
X95985436Y-74098363D01*
X95923485Y-74098363D01*
X95923485Y-74162265D01*
X95923186Y-74187468D01*
X95922345Y-74207750D01*
X95921045Y-74221871D01*
X95919366Y-74228592D01*
X95919059Y-74228903D01*
X95916844Y-74234397D01*
X95915257Y-74246205D01*
X95914635Y-74261794D01*
X95914634Y-74262141D01*
X95914634Y-74292644D01*
X95886978Y-74293962D01*
X95859321Y-74295279D01*
X95856729Y-74359047D01*
X95827049Y-74360351D01*
X95797370Y-74361655D01*
X95796061Y-74391525D01*
X95794753Y-74421394D01*
X95768766Y-74421394D01*
X95749856Y-74421752D01*
X95738098Y-74423715D01*
X95731796Y-74428616D01*
X95729255Y-74437788D01*
X95728781Y-74452563D01*
X95728781Y-74452843D01*
X95728377Y-74467675D01*
X95726781Y-74475617D01*
X95723415Y-74478607D01*
X95721037Y-74478854D01*
X95714314Y-74479104D01*
X95700298Y-74479841D01*
X95680528Y-74480976D01*
X95656543Y-74482420D01*
X95630323Y-74484058D01*
X95547352Y-74489329D01*
X95547352Y-74545297D01*
X94724286Y-74545297D01*
X94724286Y-74304809D01*
X94724339Y-74258004D01*
X94724492Y-74212688D01*
X94724735Y-74169855D01*
X94725057Y-74130500D01*
X94725448Y-74095616D01*
X94725898Y-74066198D01*
X94726397Y-74043240D01*
X94726935Y-74027737D01*
X94727161Y-74023816D01*
X94730036Y-73983311D01*
X94898633Y-73983336D01*
X94940489Y-73983198D01*
X94983061Y-73982793D01*
X95024697Y-73982155D01*
X95063747Y-73981319D01*
X95098559Y-73980319D01*
X95127483Y-73979189D01*
X95145153Y-73978222D01*
X95223076Y-73973083D01*
X95225888Y-73930627D01*
X95227453Y-73898095D01*
X95228360Y-73859648D01*
X95228608Y-73818197D01*
X95228198Y-73776650D01*
X95227130Y-73737919D01*
X95225861Y-73711856D01*
X95222976Y-73664704D01*
X95199672Y-73664704D01*
X95181541Y-73664288D01*
X95170499Y-73661983D01*
X95164794Y-73656207D01*
X95162670Y-73645376D01*
X95162370Y-73631043D01*
X95162370Y-73602753D01*
X95130288Y-73601984D01*
X95117330Y-73601828D01*
X95097043Y-73601777D01*
X95070943Y-73601826D01*
X95040550Y-73601969D01*
X95007383Y-73602203D01*
X94972961Y-73602520D01*
X94972091Y-73602529D01*
X94935624Y-73602761D01*
X94898528Y-73602733D01*
X94862752Y-73602464D01*
X94830246Y-73601976D01*
X94802960Y-73601288D01*
X94785131Y-73600552D01*
X94724286Y-73597261D01*
X94724286Y-73095203D01*
X94767431Y-73092346D01*
X94780691Y-73091783D01*
X94801914Y-73091283D01*
X94830216Y-73090847D01*
X94864708Y-73090474D01*
X94904506Y-73090164D01*
X94948722Y-73089918D01*
X94996471Y-73089734D01*
X95046867Y-73089615D01*
X95099023Y-73089558D01*
X95152053Y-73089564D01*
G37*
D12*
%TO.C,J1*%
X111115000Y-72255000D02*
X123875000Y-72255000D01*
X123875000Y-74915000D02*
X123875000Y-72255000D01*
X111115000Y-74915000D02*
X111115000Y-72255000D01*
X108515000Y-73585000D02*
X108515000Y-72255000D01*
X111115000Y-74915000D02*
X123875000Y-74915000D01*
X108515000Y-72255000D02*
X109845000Y-72255000D01*
%TO.C,D3*%
X126615000Y-87140000D02*
X126615000Y-86984000D01*
X126615000Y-89456000D02*
X126615000Y-89300000D01*
X126095961Y-87140000D02*
G75*
G03*
X124013870Y-87140163I-1040961J-1080000D01*
G01*
X123382665Y-89298608D02*
G75*
G03*
X126615000Y-89455516I1672335J1078609D01*
G01*
X126615000Y-86984484D02*
G75*
G03*
X123382665Y-87141392I-1560000J-1235517D01*
G01*
X124013870Y-89299837D02*
G75*
G03*
X126095961Y-89300000I1041130J1079837D01*
G01*
%TO.C,D1*%
X90595961Y-87140000D02*
G75*
G03*
X88513870Y-87140163I-1040961J-1080000D01*
G01*
X87882665Y-89298608D02*
G75*
G03*
X91115000Y-89455516I1672335J1078609D01*
G01*
X88513870Y-89299837D02*
G75*
G03*
X90595961Y-89300000I1041130J1079837D01*
G01*
X91115000Y-86984484D02*
G75*
G03*
X87882665Y-87141392I-1560000J-1235517D01*
G01*
X91115000Y-89456000D02*
X91115000Y-89300000D01*
X91115000Y-87140000D02*
X91115000Y-86984000D01*
%TO.C,D5*%
X91085000Y-77155000D02*
X87995000Y-77155000D01*
X89539538Y-82705000D02*
G75*
G03*
X91084830Y-77155000I462J2990000D01*
G01*
X87995170Y-77155000D02*
G75*
G03*
X89540462Y-82705000I1544830J-2560000D01*
G01*
X92040000Y-79715000D02*
G75*
G03*
X92040000Y-79715000I-2500000J0D01*
G01*
%TO.C,D7*%
X126585000Y-77155000D02*
X123495000Y-77155000D01*
X125039538Y-82705000D02*
G75*
G03*
X126584830Y-77155000I462J2990000D01*
G01*
X123495170Y-77155000D02*
G75*
G03*
X125040462Y-82705000I1544830J-2560000D01*
G01*
X127540000Y-79715000D02*
G75*
G03*
X127540000Y-79715000I-2500000J0D01*
G01*
%TO.C,kibuzzard-61F95227*%
G36*
X143407850Y-83415200D02*
G01*
X143424519Y-83450919D01*
X143428488Y-83496956D01*
X143395944Y-83555694D01*
X143301488Y-83585062D01*
X143211794Y-83553312D01*
X143184013Y-83485050D01*
X143214572Y-83405278D01*
X143306250Y-83378687D01*
X143407850Y-83415200D01*
G37*
G36*
X143921644Y-82989580D02*
G01*
X143992892Y-83000149D01*
X144062760Y-83017650D01*
X144130576Y-83041915D01*
X144195688Y-83072710D01*
X144257467Y-83109739D01*
X144315320Y-83152646D01*
X144368688Y-83201016D01*
X144417058Y-83254384D01*
X144459965Y-83312237D01*
X144496994Y-83374016D01*
X144527789Y-83439128D01*
X144552055Y-83506944D01*
X144569556Y-83576813D01*
X144580124Y-83648060D01*
X144583658Y-83720000D01*
X144580124Y-83791940D01*
X144569556Y-83863187D01*
X144552055Y-83933056D01*
X144527789Y-84000872D01*
X144496994Y-84065984D01*
X144459965Y-84127763D01*
X144417058Y-84185616D01*
X144368688Y-84238984D01*
X144315320Y-84287354D01*
X144257467Y-84330261D01*
X144195688Y-84367290D01*
X144130576Y-84398085D01*
X144062760Y-84422350D01*
X143992892Y-84439851D01*
X143921644Y-84450420D01*
X143849704Y-84453954D01*
X141810296Y-84453954D01*
X141738356Y-84450420D01*
X141667108Y-84439851D01*
X141597240Y-84422350D01*
X141529424Y-84398085D01*
X141464312Y-84367290D01*
X141402533Y-84330261D01*
X141344680Y-84287354D01*
X141291312Y-84238984D01*
X141242942Y-84185616D01*
X141200035Y-84127763D01*
X141163006Y-84065984D01*
X141132211Y-84000872D01*
X141115779Y-83954950D01*
X141942587Y-83954950D01*
X141960050Y-84040675D01*
X141963225Y-84056550D01*
X141980687Y-84097825D01*
X142019978Y-84160928D01*
X142064825Y-84210538D01*
X142156547Y-84272274D01*
X142262381Y-84309315D01*
X142382325Y-84321663D01*
X142503151Y-84309403D01*
X142609514Y-84272626D01*
X142701412Y-84211331D01*
X142771968Y-84131163D01*
X142814301Y-84037765D01*
X142828412Y-83931138D01*
X142815316Y-83850175D01*
X142776025Y-83778738D01*
X142726019Y-83727144D01*
X142679187Y-83693012D01*
X142679187Y-83681900D01*
X142747979Y-83632070D01*
X142789254Y-83565131D01*
X142800803Y-83494575D01*
X142907788Y-83494575D01*
X142920223Y-83578448D01*
X142957529Y-83656500D01*
X143019706Y-83728731D01*
X143099169Y-83786499D01*
X143188334Y-83821159D01*
X143287200Y-83832713D01*
X143406263Y-83805725D01*
X143398325Y-83827950D01*
X143366972Y-83883513D01*
X143311013Y-83945425D01*
X143216556Y-83999400D01*
X143090350Y-84021625D01*
X142998275Y-84031150D01*
X142953031Y-84073219D01*
X142937950Y-84161325D01*
X142949063Y-84241891D01*
X142982400Y-84286738D01*
X143068125Y-84302613D01*
X143077650Y-84302613D01*
X143191379Y-84294485D01*
X143295074Y-84270101D01*
X143388737Y-84229461D01*
X143472366Y-84172565D01*
X143545963Y-84099413D01*
X143607685Y-84014132D01*
X143655691Y-83920851D01*
X143689981Y-83819568D01*
X143710555Y-83710284D01*
X143717413Y-83593000D01*
X143705771Y-83461855D01*
X143670846Y-83347819D01*
X143612638Y-83250894D01*
X143531322Y-83177251D01*
X143427076Y-83133066D01*
X143299900Y-83118337D01*
X143196360Y-83130332D01*
X143103756Y-83166315D01*
X143022088Y-83226287D01*
X142958588Y-83304075D01*
X142920488Y-83393504D01*
X142907788Y-83494575D01*
X142800803Y-83494575D01*
X142803012Y-83481081D01*
X142790489Y-83391564D01*
X142752918Y-83308220D01*
X142690300Y-83231050D01*
X142605986Y-83169314D01*
X142503328Y-83132272D01*
X142382325Y-83119925D01*
X142303545Y-83125481D01*
X142232306Y-83142150D01*
X142127531Y-83191362D01*
X142061650Y-83254069D01*
X142026725Y-83304075D01*
X141990212Y-83412025D01*
X142010056Y-83468778D01*
X142069587Y-83518387D01*
X142156900Y-83546962D01*
X142217225Y-83527119D01*
X142261675Y-83467588D01*
X142271200Y-83448537D01*
X142312475Y-83410437D01*
X142402169Y-83391387D01*
X142490275Y-83421550D01*
X142522025Y-83485050D01*
X142491862Y-83531484D01*
X142401375Y-83546962D01*
X142318825Y-83554900D01*
X142274772Y-83598159D01*
X142260087Y-83686662D01*
X142270803Y-83768022D01*
X142302950Y-83808900D01*
X142344225Y-83824775D01*
X142416456Y-83827950D01*
X142508531Y-83860494D01*
X142547425Y-83935900D01*
X142507737Y-84012894D01*
X142456937Y-84038492D01*
X142383912Y-84047025D01*
X142317237Y-84037500D01*
X142229925Y-83961300D01*
X142182300Y-83878750D01*
X142098162Y-83862875D01*
X141981481Y-83885894D01*
X141942587Y-83954950D01*
X141115779Y-83954950D01*
X141107945Y-83933056D01*
X141090444Y-83863187D01*
X141079876Y-83791940D01*
X141076342Y-83720000D01*
X141079876Y-83648060D01*
X141090444Y-83576813D01*
X141107945Y-83506944D01*
X141132211Y-83439128D01*
X141163006Y-83374016D01*
X141200035Y-83312237D01*
X141242942Y-83254384D01*
X141291312Y-83201016D01*
X141344680Y-83152646D01*
X141402533Y-83109739D01*
X141464312Y-83072710D01*
X141529424Y-83041915D01*
X141597240Y-83017650D01*
X141667108Y-83000149D01*
X141738356Y-82989580D01*
X141810296Y-82986046D01*
X143849704Y-82986046D01*
X143921644Y-82989580D01*
G37*
%TO.C,kibuzzard-61F9742D*%
G36*
X137309269Y-72180481D02*
G01*
X137098131Y-72180481D01*
X137202906Y-71962993D01*
X137309269Y-72180481D01*
G37*
G36*
X135099469Y-72124918D02*
G01*
X135136378Y-72172940D01*
X135148681Y-72240806D01*
X135135584Y-72309068D01*
X135096294Y-72358281D01*
X134991519Y-72397968D01*
X134888331Y-72359075D01*
X134850231Y-72310656D01*
X134837531Y-72243187D01*
X134849834Y-72175520D01*
X134886744Y-72126506D01*
X134993106Y-72086818D01*
X135099469Y-72124918D01*
G37*
G36*
X130199650Y-72082056D02*
G01*
X130227431Y-72140793D01*
X130167106Y-72191593D01*
X129967081Y-72191593D01*
X130017881Y-72101900D01*
X130120275Y-72059831D01*
X130199650Y-72082056D01*
G37*
G36*
X134818911Y-74171988D02*
G01*
X134610894Y-74171988D01*
X134714121Y-73957714D01*
X134818911Y-74171988D01*
G37*
G36*
X132436437Y-72082056D02*
G01*
X132464219Y-72140793D01*
X132403894Y-72191593D01*
X132203869Y-72191593D01*
X132254669Y-72101900D01*
X132357062Y-72059831D01*
X132436437Y-72082056D01*
G37*
G36*
X127330773Y-75136348D02*
G01*
X126721232Y-74222037D01*
X131733062Y-74222037D01*
X131737128Y-74330769D01*
X131749328Y-74436748D01*
X131769660Y-74539975D01*
X131798126Y-74640449D01*
X131834724Y-74738170D01*
X131893571Y-74844720D01*
X131970014Y-74929765D01*
X132060532Y-74985484D01*
X132161608Y-75004057D01*
X132231990Y-74991544D01*
X132256233Y-74961046D01*
X132263271Y-74903958D01*
X132256233Y-74846089D01*
X132232772Y-74814808D01*
X132203055Y-74803860D01*
X132160044Y-74802296D01*
X132096701Y-74767105D01*
X132034139Y-74663878D01*
X132007746Y-74583917D01*
X131992215Y-74508256D01*
X132349293Y-74508256D01*
X132358677Y-74588022D01*
X132400124Y-74632597D01*
X132486929Y-74647456D01*
X133049983Y-74647456D01*
X133131313Y-74631815D01*
X133157902Y-74597406D01*
X133165722Y-74530935D01*
X133157902Y-74464463D01*
X133126621Y-74427708D01*
X133051547Y-74415978D01*
X132626128Y-74415978D01*
X132626128Y-74396427D01*
X133243924Y-74396427D01*
X133284589Y-74486360D01*
X133298665Y-74503564D01*
X133344022Y-74551267D01*
X133414404Y-74600535D01*
X133520759Y-74645110D01*
X133588403Y-74658600D01*
X133659958Y-74663096D01*
X133753974Y-74653886D01*
X133844167Y-74626254D01*
X133930537Y-74580202D01*
X133983366Y-74534845D01*
X134140118Y-74534845D01*
X134162797Y-74588022D01*
X134230833Y-74634943D01*
X134314509Y-74661532D01*
X134364558Y-74646674D01*
X134392711Y-74617739D01*
X134416953Y-74572382D01*
X134498283Y-74403466D01*
X134931522Y-74403466D01*
X135012852Y-74572382D01*
X135037095Y-74619303D01*
X135065248Y-74649020D01*
X135115297Y-74663096D01*
X135198973Y-74636507D01*
X135267009Y-74588413D01*
X135289687Y-74534845D01*
X135263099Y-74455079D01*
X134840808Y-73582345D01*
X134805738Y-73540898D01*
X135336608Y-73540898D01*
X135367889Y-73627702D01*
X135428887Y-73637086D01*
X135438271Y-73637086D01*
X135500051Y-73671886D01*
X135563394Y-73776286D01*
X135590569Y-73855856D01*
X135612661Y-73960060D01*
X135627324Y-74083033D01*
X135632212Y-74218909D01*
X135628106Y-74355176D01*
X135615789Y-74474629D01*
X135595261Y-74577269D01*
X135566522Y-74663096D01*
X135503179Y-74767105D01*
X135439835Y-74802296D01*
X135396824Y-74803860D01*
X135367107Y-74814808D01*
X135343647Y-74846089D01*
X135336608Y-74903958D01*
X135344429Y-74960264D01*
X135438271Y-75004057D01*
X135539347Y-74985484D01*
X135629866Y-74929765D01*
X135706308Y-74844720D01*
X135765155Y-74738170D01*
X135801754Y-74640449D01*
X135830219Y-74539975D01*
X135850552Y-74436748D01*
X135862751Y-74330769D01*
X135866818Y-74222037D01*
X135862939Y-74113931D01*
X135851302Y-74008577D01*
X135831908Y-73905976D01*
X135804757Y-73806128D01*
X135769847Y-73709032D01*
X135710805Y-73598572D01*
X135633776Y-73511181D01*
X135541498Y-73454289D01*
X135436707Y-73435325D01*
X135361633Y-73453312D01*
X135336608Y-73540898D01*
X134805738Y-73540898D01*
X134789195Y-73521347D01*
X134715685Y-73501015D01*
X134641393Y-73522911D01*
X134588998Y-73580781D01*
X134166707Y-74455079D01*
X134140118Y-74534845D01*
X133983366Y-74534845D01*
X133989970Y-74529175D01*
X134036892Y-74460553D01*
X134067390Y-74377072D01*
X134077557Y-74281471D01*
X134067586Y-74187824D01*
X134037674Y-74110208D01*
X133992903Y-74050970D01*
X133938357Y-74012456D01*
X133876187Y-73986454D01*
X133808542Y-73964753D01*
X133740897Y-73947744D01*
X133678727Y-73935818D01*
X133579410Y-73899845D01*
X133539527Y-73830245D01*
X133573154Y-73762991D01*
X133657612Y-73738749D01*
X133741288Y-73759081D01*
X133765531Y-73779414D01*
X133783517Y-73795054D01*
X133864847Y-73826335D01*
X133920371Y-73806785D01*
X133974330Y-73748133D01*
X134011867Y-73662111D01*
X133963382Y-73585473D01*
X133924281Y-73555756D01*
X133817144Y-73506489D01*
X133735619Y-73488307D01*
X133645882Y-73482246D01*
X133536312Y-73493629D01*
X133443252Y-73527777D01*
X133366701Y-73584691D01*
X133309787Y-73656897D01*
X133275639Y-73736924D01*
X133264256Y-73824771D01*
X133274227Y-73917636D01*
X133304139Y-73996033D01*
X133348910Y-74057617D01*
X133403456Y-74100042D01*
X133465235Y-74130736D01*
X133531707Y-74157129D01*
X133598179Y-74178048D01*
X133659958Y-74192320D01*
X133759275Y-74227511D01*
X133799158Y-74287727D01*
X133762794Y-74376877D01*
X133653702Y-74406594D01*
X133578628Y-74382351D01*
X133516067Y-74331520D01*
X133446467Y-74272868D01*
X133394071Y-74253318D01*
X133311177Y-74290855D01*
X133260737Y-74350093D01*
X133243924Y-74396427D01*
X132626128Y-74396427D01*
X132626128Y-73640214D01*
X132618308Y-73558884D01*
X132575688Y-73515482D01*
X132488493Y-73501015D01*
X132407945Y-73511572D01*
X132366498Y-73543244D01*
X132351639Y-73584691D01*
X132349293Y-73638650D01*
X132349293Y-74508256D01*
X131992215Y-74508256D01*
X131986436Y-74480104D01*
X131972360Y-74357326D01*
X131967668Y-74220473D01*
X131972555Y-74083424D01*
X131987218Y-73960060D01*
X132009310Y-73855856D01*
X132036485Y-73776286D01*
X132099829Y-73671886D01*
X132161608Y-73637086D01*
X132170993Y-73637086D01*
X132235118Y-73624574D01*
X132263271Y-73536988D01*
X132230426Y-73446273D01*
X132163172Y-73435325D01*
X132058382Y-73454289D01*
X131966103Y-73511181D01*
X131889075Y-73598572D01*
X131830032Y-73709032D01*
X131795123Y-73806128D01*
X131767971Y-73905976D01*
X131748577Y-74008577D01*
X131736940Y-74113931D01*
X131733062Y-74222037D01*
X126721232Y-74222037D01*
X126053207Y-73220000D01*
X126518679Y-72521793D01*
X127396919Y-72521793D01*
X127406444Y-72602756D01*
X127448512Y-72648000D01*
X127536619Y-72663081D01*
X128108119Y-72663081D01*
X128190669Y-72647206D01*
X128217656Y-72612281D01*
X128225594Y-72544812D01*
X128223073Y-72523381D01*
X128328781Y-72523381D01*
X128331162Y-72578943D01*
X128344656Y-72620218D01*
X128386328Y-72652365D01*
X128466894Y-72663081D01*
X128548253Y-72652762D01*
X128589131Y-72621806D01*
X128604212Y-72579737D01*
X128606594Y-72524968D01*
X128606594Y-72521793D01*
X128733594Y-72521793D01*
X128735975Y-72576562D01*
X128749469Y-72618631D01*
X128791141Y-72650778D01*
X128871706Y-72661493D01*
X128953066Y-72650778D01*
X128993944Y-72618631D01*
X129009025Y-72578150D01*
X129011406Y-72523381D01*
X129011406Y-72242393D01*
X129050300Y-72142381D01*
X129151900Y-72104281D01*
X129251912Y-72140793D01*
X129289219Y-72242393D01*
X129289219Y-72521793D01*
X129298744Y-72602756D01*
X129340019Y-72646809D01*
X129428919Y-72661493D01*
X129510675Y-72650778D01*
X129552744Y-72618631D01*
X129566237Y-72578150D01*
X129568619Y-72523381D01*
X129568619Y-72248743D01*
X129671806Y-72248743D01*
X129682919Y-72351225D01*
X129716256Y-72447004D01*
X129771819Y-72536081D01*
X129832739Y-72596207D01*
X129913900Y-72643237D01*
X130011730Y-72673598D01*
X130122656Y-72683718D01*
X130270591Y-72674888D01*
X130376259Y-72648396D01*
X130439660Y-72604244D01*
X130460794Y-72542431D01*
X130440156Y-72469406D01*
X130365456Y-72408287D01*
X130983081Y-72408287D01*
X131024356Y-72499568D01*
X131038644Y-72517031D01*
X131084681Y-72565450D01*
X131156119Y-72615456D01*
X131264069Y-72660700D01*
X131332728Y-72674392D01*
X131405356Y-72678956D01*
X131500783Y-72669607D01*
X131592328Y-72641561D01*
X131679994Y-72594818D01*
X131740319Y-72543026D01*
X131787944Y-72473375D01*
X131818900Y-72388642D01*
X131829219Y-72291606D01*
X131824655Y-72248743D01*
X131908594Y-72248743D01*
X131919706Y-72351225D01*
X131953044Y-72447004D01*
X132008606Y-72536081D01*
X132069527Y-72596207D01*
X132150687Y-72643237D01*
X132248517Y-72673598D01*
X132359444Y-72683718D01*
X132507379Y-72674888D01*
X132613047Y-72648396D01*
X132676448Y-72604244D01*
X132697581Y-72542431D01*
X132691749Y-72521793D01*
X132842044Y-72521793D01*
X132844425Y-72576562D01*
X132857919Y-72618631D01*
X132899591Y-72650778D01*
X132980156Y-72661493D01*
X133061516Y-72650778D01*
X133102394Y-72618631D01*
X133117475Y-72578150D01*
X133119856Y-72523381D01*
X133119856Y-72242393D01*
X133158750Y-72142381D01*
X133260350Y-72104281D01*
X133360362Y-72140793D01*
X133397669Y-72242393D01*
X133397669Y-72521793D01*
X133407194Y-72602756D01*
X133448469Y-72646809D01*
X133537369Y-72661493D01*
X133619125Y-72650778D01*
X133661194Y-72618631D01*
X133674687Y-72578150D01*
X133676862Y-72528143D01*
X133780256Y-72528143D01*
X133810419Y-72588468D01*
X133905933Y-72637857D01*
X134004094Y-72667490D01*
X134104900Y-72677368D01*
X134201297Y-72671900D01*
X134286228Y-72655496D01*
X134359694Y-72628156D01*
X134446213Y-72541637D01*
X134469430Y-72477542D01*
X134477169Y-72401143D01*
X134469430Y-72325539D01*
X134446213Y-72263825D01*
X134427956Y-72245568D01*
X134556544Y-72245568D01*
X134573411Y-72366020D01*
X134624013Y-72473375D01*
X134699220Y-72561878D01*
X134789906Y-72625775D01*
X134889919Y-72664470D01*
X134993106Y-72677368D01*
X135096095Y-72665264D01*
X135195513Y-72628950D01*
X135284644Y-72567831D01*
X135532856Y-72567831D01*
X135561431Y-72636093D01*
X135670969Y-72663081D01*
X135751931Y-72652762D01*
X135794794Y-72621806D01*
X135809875Y-72579737D01*
X135811221Y-72548781D01*
X136620294Y-72548781D01*
X136643313Y-72602756D01*
X136712369Y-72650381D01*
X136797300Y-72677368D01*
X136848100Y-72662287D01*
X136876675Y-72632918D01*
X136901281Y-72586881D01*
X136983831Y-72415431D01*
X137423569Y-72415431D01*
X137506119Y-72586881D01*
X137530725Y-72634506D01*
X137559300Y-72664668D01*
X137610100Y-72678956D01*
X137695031Y-72651968D01*
X137764088Y-72603153D01*
X137779041Y-72567831D01*
X137874419Y-72567831D01*
X137902994Y-72636093D01*
X138012531Y-72663081D01*
X138093494Y-72652762D01*
X138136356Y-72621806D01*
X138151438Y-72579737D01*
X138151956Y-72567831D01*
X138599906Y-72567831D01*
X138628481Y-72636093D01*
X138738019Y-72663081D01*
X138818981Y-72652762D01*
X138861844Y-72621806D01*
X138876925Y-72579737D01*
X138879306Y-72524968D01*
X138879306Y-72243187D01*
X139301581Y-72243187D01*
X139314634Y-72349285D01*
X139353792Y-72446387D01*
X139419056Y-72534493D01*
X139499578Y-72604167D01*
X139584509Y-72645971D01*
X139673850Y-72659906D01*
X139791523Y-72638871D01*
X139869906Y-72575768D01*
X139904038Y-72638475D01*
X140019925Y-72659906D01*
X140090370Y-72649587D01*
X140128669Y-72618631D01*
X140142163Y-72576562D01*
X140144544Y-72521793D01*
X140144544Y-71966168D01*
X140143509Y-71942356D01*
X140231856Y-71942356D01*
X140263606Y-72020143D01*
X140579519Y-72551956D01*
X140512844Y-72696716D01*
X140465219Y-72805559D01*
X140436644Y-72878485D01*
X140427119Y-72915493D01*
X140450534Y-72968675D01*
X140520781Y-73013918D01*
X140604919Y-73037731D01*
X140652544Y-73023443D01*
X140680325Y-72993281D01*
X140701756Y-72947243D01*
X141117681Y-72016968D01*
X141130381Y-71989981D01*
X141143081Y-71936006D01*
X141119666Y-71881634D01*
X141049419Y-71835993D01*
X140961313Y-71813768D01*
X140903369Y-71840756D01*
X140885113Y-71867743D01*
X140861498Y-71918742D01*
X140801769Y-72049512D01*
X140741444Y-72183854D01*
X140716044Y-72245568D01*
X140667625Y-72166281D01*
X140617619Y-72082938D01*
X140566025Y-71995537D01*
X140504906Y-71891556D01*
X140478713Y-71847900D01*
X140450931Y-71821706D01*
X140401719Y-71809006D01*
X140317581Y-71840756D01*
X140253288Y-71891556D01*
X140231856Y-71942356D01*
X140143509Y-71942356D01*
X140142163Y-71911400D01*
X140127875Y-71869331D01*
X140085806Y-71835993D01*
X139993731Y-71826468D01*
X139904434Y-71848693D01*
X139868319Y-71915368D01*
X139839744Y-71882825D01*
X139777831Y-71847106D01*
X139679406Y-71828056D01*
X139587772Y-71841902D01*
X139501253Y-71883442D01*
X139419850Y-71952675D01*
X139354145Y-72040340D01*
X139314722Y-72137177D01*
X139301581Y-72243187D01*
X138879306Y-72243187D01*
X138879306Y-72191593D01*
X138916613Y-72118568D01*
X138996781Y-72088406D01*
X139065838Y-72101106D01*
X139120606Y-72113806D01*
X139207919Y-72053481D01*
X139238081Y-71942356D01*
X139218238Y-71868537D01*
X139168231Y-71835993D01*
X139112669Y-71822500D01*
X139049963Y-71818531D01*
X138963444Y-71845518D01*
X138899150Y-71888381D01*
X138876131Y-71915368D01*
X138858669Y-71862981D01*
X138816997Y-71835596D01*
X138739606Y-71826468D01*
X138657850Y-71837184D01*
X138615781Y-71869331D01*
X138602288Y-71909812D01*
X138599906Y-71964581D01*
X138599906Y-72567831D01*
X138151956Y-72567831D01*
X138153819Y-72524968D01*
X138153819Y-72191593D01*
X138191125Y-72118568D01*
X138271294Y-72088406D01*
X138340350Y-72101106D01*
X138395119Y-72113806D01*
X138482431Y-72053481D01*
X138512594Y-71942356D01*
X138492750Y-71868537D01*
X138442744Y-71835993D01*
X138387181Y-71822500D01*
X138324475Y-71818531D01*
X138237956Y-71845518D01*
X138173663Y-71888381D01*
X138150644Y-71915368D01*
X138133181Y-71862981D01*
X138091509Y-71835596D01*
X138014119Y-71826468D01*
X137932363Y-71837184D01*
X137890294Y-71869331D01*
X137876800Y-71909812D01*
X137874419Y-71964581D01*
X137874419Y-72567831D01*
X137779041Y-72567831D01*
X137787106Y-72548781D01*
X137760119Y-72467818D01*
X137331494Y-71581993D01*
X137279106Y-71520081D01*
X137204494Y-71499443D01*
X137129088Y-71521668D01*
X137075906Y-71580406D01*
X136647281Y-72467818D01*
X136620294Y-72548781D01*
X135811221Y-72548781D01*
X135812256Y-72524968D01*
X135812256Y-72191593D01*
X135849563Y-72118568D01*
X135929731Y-72088406D01*
X135998788Y-72101106D01*
X136053556Y-72113806D01*
X136140869Y-72053481D01*
X136171031Y-71942356D01*
X136151188Y-71868537D01*
X136101181Y-71835993D01*
X136045619Y-71822500D01*
X135982913Y-71818531D01*
X135896394Y-71845518D01*
X135832100Y-71888381D01*
X135809081Y-71915368D01*
X135791619Y-71862981D01*
X135749947Y-71835596D01*
X135672556Y-71826468D01*
X135590800Y-71837184D01*
X135548731Y-71869331D01*
X135535238Y-71909812D01*
X135532856Y-71964581D01*
X135532856Y-72567831D01*
X135284644Y-72567831D01*
X135285802Y-72567037D01*
X135361406Y-72478137D01*
X135412603Y-72368401D01*
X135429669Y-72243981D01*
X135415028Y-72124477D01*
X135371108Y-72019967D01*
X135297906Y-71930450D01*
X135205655Y-71862099D01*
X135104584Y-71821088D01*
X134994694Y-71807418D01*
X134884627Y-71821177D01*
X134783027Y-71862452D01*
X134689894Y-71931243D01*
X134615810Y-72021202D01*
X134571360Y-72125977D01*
X134556544Y-72245568D01*
X134427956Y-72245568D01*
X134369219Y-72186831D01*
X134269206Y-72147143D01*
X134166019Y-72126506D01*
X134085056Y-72103884D01*
X134058069Y-72064593D01*
X134151731Y-72029668D01*
X134263650Y-72053481D01*
X134334294Y-72077293D01*
X134405731Y-72021731D01*
X134440656Y-71928068D01*
X134385094Y-71864568D01*
X134267619Y-71824087D01*
X134153319Y-71810593D01*
X134029303Y-71820626D01*
X133932847Y-71850725D01*
X133863949Y-71900890D01*
X133822611Y-71971121D01*
X133808831Y-72061418D01*
X133816372Y-72139801D01*
X133838994Y-72206675D01*
X133915194Y-72296368D01*
X134014016Y-72345184D01*
X134113631Y-72370981D01*
X134193403Y-72389237D01*
X134219994Y-72415431D01*
X134195784Y-72444006D01*
X134123156Y-72453531D01*
X134002506Y-72414637D01*
X133896937Y-72375743D01*
X133840581Y-72402731D01*
X133795337Y-72476153D01*
X133780256Y-72528143D01*
X133676862Y-72528143D01*
X133677069Y-72523381D01*
X133677069Y-72243981D01*
X133665339Y-72133473D01*
X133630149Y-72034784D01*
X133571500Y-71947912D01*
X133495212Y-71880443D01*
X133407106Y-71839962D01*
X133307181Y-71826468D01*
X133188119Y-71862981D01*
X133145256Y-71896318D01*
X133116681Y-71928068D01*
X133100806Y-71862981D01*
X133059928Y-71835596D01*
X132981744Y-71826468D01*
X132901178Y-71836390D01*
X132859506Y-71866156D01*
X132844425Y-71906637D01*
X132842044Y-71959818D01*
X132842044Y-72521793D01*
X132691749Y-72521793D01*
X132676944Y-72469406D01*
X132589631Y-72397968D01*
X132526131Y-72415431D01*
X132508669Y-72421781D01*
X132446359Y-72436068D01*
X132364206Y-72440831D01*
X132259431Y-72410668D01*
X132207044Y-72336056D01*
X132583281Y-72336056D01*
X132690437Y-72289225D01*
X132726752Y-72229693D01*
X132738856Y-72144762D01*
X132725362Y-72050901D01*
X132684881Y-71964581D01*
X132625945Y-71896517D01*
X132552325Y-71847900D01*
X132464020Y-71818729D01*
X132361031Y-71809006D01*
X132239058Y-71822323D01*
X132131373Y-71862275D01*
X132037975Y-71928862D01*
X131966097Y-72017674D01*
X131922969Y-72124301D01*
X131908594Y-72248743D01*
X131824655Y-72248743D01*
X131819098Y-72196554D01*
X131788737Y-72117775D01*
X131743295Y-72057648D01*
X131687931Y-72018556D01*
X131624828Y-71992164D01*
X131556169Y-71970137D01*
X131487509Y-71952873D01*
X131424406Y-71940768D01*
X131323600Y-71904256D01*
X131283119Y-71833612D01*
X131317250Y-71765350D01*
X131402975Y-71740743D01*
X131487906Y-71761381D01*
X131512512Y-71782018D01*
X131530769Y-71797893D01*
X131613319Y-71829643D01*
X131669675Y-71809800D01*
X131724444Y-71750268D01*
X131762544Y-71662956D01*
X131713331Y-71585168D01*
X131673644Y-71555006D01*
X131564900Y-71505000D01*
X131482152Y-71486545D01*
X131391069Y-71480393D01*
X131279856Y-71491947D01*
X131185399Y-71526607D01*
X131107700Y-71584375D01*
X131049933Y-71657664D01*
X131015272Y-71738891D01*
X131003719Y-71828056D01*
X131013839Y-71922314D01*
X131044200Y-72001887D01*
X131089642Y-72064395D01*
X131145006Y-72107456D01*
X131207712Y-72138610D01*
X131275181Y-72165400D01*
X131342650Y-72186632D01*
X131405356Y-72201118D01*
X131506162Y-72236837D01*
X131546644Y-72297956D01*
X131530240Y-72364984D01*
X131481027Y-72405200D01*
X131399006Y-72418606D01*
X131322806Y-72394000D01*
X131259306Y-72342406D01*
X131188662Y-72282875D01*
X131135481Y-72263031D01*
X131051344Y-72301131D01*
X131000147Y-72361257D01*
X130983081Y-72408287D01*
X130365456Y-72408287D01*
X130352844Y-72397968D01*
X130289344Y-72415431D01*
X130271881Y-72421781D01*
X130209572Y-72436068D01*
X130127419Y-72440831D01*
X130022644Y-72410668D01*
X129970256Y-72336056D01*
X130346494Y-72336056D01*
X130453650Y-72289225D01*
X130489964Y-72229693D01*
X130502069Y-72144762D01*
X130488575Y-72050901D01*
X130448094Y-71964581D01*
X130389158Y-71896517D01*
X130315537Y-71847900D01*
X130227233Y-71818729D01*
X130124244Y-71809006D01*
X130002271Y-71822323D01*
X129894585Y-71862275D01*
X129801187Y-71928862D01*
X129729309Y-72017674D01*
X129686182Y-72124301D01*
X129671806Y-72248743D01*
X129568619Y-72248743D01*
X129568619Y-72243981D01*
X129556889Y-72133473D01*
X129521699Y-72034784D01*
X129463050Y-71947912D01*
X129386762Y-71880443D01*
X129298656Y-71839962D01*
X129198731Y-71826468D01*
X129079669Y-71862981D01*
X129036806Y-71896318D01*
X129008231Y-71928068D01*
X128992356Y-71862981D01*
X128951478Y-71835596D01*
X128873294Y-71826468D01*
X128792728Y-71836390D01*
X128751056Y-71866156D01*
X128735975Y-71906637D01*
X128733594Y-71959818D01*
X128733594Y-72521793D01*
X128606594Y-72521793D01*
X128606594Y-71969343D01*
X128605006Y-71923306D01*
X128576431Y-71855043D01*
X128468481Y-71828056D01*
X128386725Y-71838375D01*
X128344656Y-71869331D01*
X128331162Y-71911400D01*
X128328781Y-71966168D01*
X128328781Y-72523381D01*
X128223073Y-72523381D01*
X128217656Y-72477343D01*
X128185906Y-72440037D01*
X128109706Y-72428131D01*
X127677906Y-72428131D01*
X127677906Y-71640731D01*
X127671495Y-71574056D01*
X128328781Y-71574056D01*
X128331162Y-71628825D01*
X128345450Y-71670893D01*
X128387519Y-71704231D01*
X128467687Y-71713756D01*
X128547856Y-71704231D01*
X128589925Y-71671687D01*
X128604212Y-71630412D01*
X128606594Y-71575643D01*
X128604212Y-71520875D01*
X128589131Y-71478806D01*
X128548650Y-71446659D01*
X128468481Y-71435943D01*
X128386725Y-71446659D01*
X128344656Y-71478806D01*
X128331162Y-71519287D01*
X128328781Y-71574056D01*
X127671495Y-71574056D01*
X127669969Y-71558181D01*
X127626709Y-71514128D01*
X127538206Y-71499443D01*
X127456450Y-71510159D01*
X127414381Y-71542306D01*
X127399300Y-71584375D01*
X127396919Y-71639143D01*
X127396919Y-72521793D01*
X126518679Y-72521793D01*
X127330773Y-71303652D01*
X141209227Y-71303652D01*
X142486793Y-73220000D01*
X141209227Y-75136348D01*
X127330773Y-75136348D01*
G37*
G36*
X139819900Y-72148731D02*
G01*
X139857206Y-72244775D01*
X139818313Y-72339231D01*
X139720681Y-72382093D01*
X139620669Y-72340025D01*
X139579394Y-72245568D01*
X139618288Y-72148731D01*
X139719888Y-72104281D01*
X139819900Y-72148731D01*
G37*
%TO.C,D2*%
X106263870Y-89299837D02*
G75*
G03*
X108345961Y-89300000I1041130J1079837D01*
G01*
X108345961Y-87140000D02*
G75*
G03*
X106263870Y-87140163I-1040961J-1080000D01*
G01*
X108865000Y-86984484D02*
G75*
G03*
X105632665Y-87141392I-1560000J-1235517D01*
G01*
X105632665Y-89298608D02*
G75*
G03*
X108865000Y-89455516I1672335J1078609D01*
G01*
X108865000Y-87140000D02*
X108865000Y-86984000D01*
X108865000Y-89456000D02*
X108865000Y-89300000D01*
%TO.C,D4*%
X141763870Y-89299837D02*
G75*
G03*
X143845961Y-89300000I1041130J1079837D01*
G01*
X144365000Y-86984484D02*
G75*
G03*
X141132665Y-87141392I-1560000J-1235517D01*
G01*
X143845961Y-87140000D02*
G75*
G03*
X141763870Y-87140163I-1040961J-1080000D01*
G01*
X141132665Y-89298608D02*
G75*
G03*
X144365000Y-89455516I1672335J1078609D01*
G01*
X144365000Y-87140000D02*
X144365000Y-86984000D01*
X144365000Y-89456000D02*
X144365000Y-89300000D01*
%TO.C,D6*%
X108835000Y-77155000D02*
X105745000Y-77155000D01*
X107289538Y-82705000D02*
G75*
G03*
X108834830Y-77155000I462J2990000D01*
G01*
X105745170Y-77155000D02*
G75*
G03*
X107290462Y-82705000I1544830J-2560000D01*
G01*
X109790000Y-79715000D02*
G75*
G03*
X109790000Y-79715000I-2500000J0D01*
G01*
%TO.C,G\u002A\u002A\u002A*%
G36*
X115533206Y-85980199D02*
G01*
X115517806Y-85964436D01*
X115483924Y-85934547D01*
X115456454Y-85912659D01*
X115431559Y-85897552D01*
X115405403Y-85888005D01*
X115374150Y-85882798D01*
X115333965Y-85880709D01*
X115281010Y-85880519D01*
X115254662Y-85880706D01*
X115184199Y-85882317D01*
X115121158Y-85886475D01*
X115060787Y-85893934D01*
X114998333Y-85905449D01*
X114929041Y-85921773D01*
X114848158Y-85943663D01*
X114835658Y-85947209D01*
X114755583Y-85969401D01*
X114676574Y-85990140D01*
X114602155Y-86008571D01*
X114535847Y-86023839D01*
X114481173Y-86035089D01*
X114454463Y-86039703D01*
X114411768Y-86045232D01*
X114379723Y-86046374D01*
X114351325Y-86043086D01*
X114333029Y-86038943D01*
X114267594Y-86013714D01*
X114207968Y-85972537D01*
X114152894Y-85914507D01*
X114143464Y-85902331D01*
X114121450Y-85874381D01*
X114098438Y-85846986D01*
X114095125Y-85843240D01*
X114077269Y-85821472D01*
X114054504Y-85791313D01*
X114033245Y-85761422D01*
X114013142Y-85732838D01*
X113995793Y-85709336D01*
X113984805Y-85695793D01*
X113984481Y-85695459D01*
X113972174Y-85677152D01*
X113967459Y-85665914D01*
X113959766Y-85651264D01*
X113954330Y-85647785D01*
X113946158Y-85640288D01*
X113936320Y-85622082D01*
X113935658Y-85620513D01*
X113925999Y-85601787D01*
X113917858Y-85593286D01*
X113917434Y-85593240D01*
X113909114Y-85585870D01*
X113905149Y-85577331D01*
X113896785Y-85558647D01*
X113883887Y-85535239D01*
X113883228Y-85534149D01*
X113869929Y-85511830D01*
X113851824Y-85480920D01*
X113835268Y-85452331D01*
X113816507Y-85419828D01*
X113798960Y-85389581D01*
X113787820Y-85370513D01*
X113777797Y-85352050D01*
X113761784Y-85320947D01*
X113741638Y-85280966D01*
X113719216Y-85235868D01*
X113696376Y-85189415D01*
X113674976Y-85145368D01*
X113656871Y-85107489D01*
X113643921Y-85079539D01*
X113641931Y-85075058D01*
X113617483Y-85015395D01*
X113591077Y-84944445D01*
X113564905Y-84868624D01*
X113541160Y-84794347D01*
X113522031Y-84728030D01*
X113517716Y-84711422D01*
X113503649Y-84641419D01*
X113494918Y-84567353D01*
X113493503Y-84534149D01*
X114090530Y-84534149D01*
X114095236Y-84592805D01*
X114109530Y-84662047D01*
X114132340Y-84737731D01*
X114162592Y-84815714D01*
X114164680Y-84820513D01*
X114178353Y-84848828D01*
X114197092Y-84883924D01*
X114218235Y-84921223D01*
X114239116Y-84956148D01*
X114257071Y-84984121D01*
X114269435Y-85000565D01*
X114269571Y-85000708D01*
X114279471Y-85014810D01*
X114281113Y-85020513D01*
X114286768Y-85033010D01*
X114292775Y-85040318D01*
X114305288Y-85055239D01*
X114322007Y-85077518D01*
X114326716Y-85084149D01*
X114348673Y-85112744D01*
X114373245Y-85141063D01*
X114376417Y-85144405D01*
X114400515Y-85171006D01*
X114425010Y-85200384D01*
X114429244Y-85205789D01*
X114450580Y-85229736D01*
X114482744Y-85261316D01*
X114522014Y-85297260D01*
X114564668Y-85334298D01*
X114606984Y-85369160D01*
X114645240Y-85398577D01*
X114662931Y-85411068D01*
X114734414Y-85455480D01*
X114805955Y-85492790D01*
X114873666Y-85521221D01*
X114933657Y-85538995D01*
X114949294Y-85541941D01*
X114973403Y-85543696D01*
X115009986Y-85543969D01*
X115054149Y-85542982D01*
X115101002Y-85540961D01*
X115145651Y-85538129D01*
X115183205Y-85534708D01*
X115208771Y-85530924D01*
X115212931Y-85529885D01*
X115289918Y-85506321D01*
X115353023Y-85484732D01*
X115406137Y-85463271D01*
X115453154Y-85440088D01*
X115497965Y-85413334D01*
X115544463Y-85381162D01*
X115576362Y-85357290D01*
X115595416Y-85340794D01*
X115623603Y-85313982D01*
X115657842Y-85280006D01*
X115695053Y-85242021D01*
X115732155Y-85203179D01*
X115766070Y-85166634D01*
X115793717Y-85135540D01*
X115798894Y-85129457D01*
X115833997Y-85089370D01*
X115872933Y-85047546D01*
X115911758Y-85008012D01*
X115946529Y-84974793D01*
X115971353Y-84953421D01*
X116010626Y-84929012D01*
X116060605Y-84907000D01*
X116113821Y-84890346D01*
X116147098Y-84883726D01*
X116203828Y-84879693D01*
X116265253Y-84882104D01*
X116325754Y-84890201D01*
X116379715Y-84903231D01*
X116421518Y-84920436D01*
X116422022Y-84920720D01*
X116461077Y-84943353D01*
X116494531Y-84964141D01*
X116524723Y-84985132D01*
X116553993Y-85008373D01*
X116584680Y-85035910D01*
X116619125Y-85069791D01*
X116659666Y-85112063D01*
X116708645Y-85164772D01*
X116739925Y-85198841D01*
X116797180Y-85260631D01*
X116844927Y-85310397D01*
X116885256Y-85350111D01*
X116920261Y-85381747D01*
X116952034Y-85407280D01*
X116982668Y-85428683D01*
X116985658Y-85430613D01*
X117014410Y-85449355D01*
X117037856Y-85465184D01*
X117051027Y-85474742D01*
X117051183Y-85474873D01*
X117066649Y-85483268D01*
X117071761Y-85484149D01*
X117087460Y-85487979D01*
X117097145Y-85492179D01*
X117145734Y-85513673D01*
X117195998Y-85528609D01*
X117252412Y-85537826D01*
X117319455Y-85542163D01*
X117367476Y-85542769D01*
X117420204Y-85542200D01*
X117459620Y-85540299D01*
X117490579Y-85536481D01*
X117517933Y-85530160D01*
X117544749Y-85521396D01*
X117575752Y-85509603D01*
X117600103Y-85499095D01*
X117612476Y-85492181D01*
X117628438Y-85485166D01*
X117637476Y-85484149D01*
X117651231Y-85479967D01*
X117653840Y-85475058D01*
X117660813Y-85466296D01*
X117663341Y-85465967D01*
X117680296Y-85460040D01*
X117707708Y-85443651D01*
X117742877Y-85418887D01*
X117783105Y-85387836D01*
X117825692Y-85352585D01*
X117867938Y-85315223D01*
X117907145Y-85277836D01*
X117909016Y-85275964D01*
X117945705Y-85238187D01*
X117983151Y-85197920D01*
X118019239Y-85157631D01*
X118051857Y-85119788D01*
X118078891Y-85086861D01*
X118098228Y-85061317D01*
X118107754Y-85045625D01*
X118108385Y-85043091D01*
X118113128Y-85032955D01*
X118125246Y-85013292D01*
X118134562Y-84999378D01*
X118155557Y-84966863D01*
X118179047Y-84927273D01*
X118203224Y-84884062D01*
X118226277Y-84840684D01*
X118246399Y-84800594D01*
X118261780Y-84767246D01*
X118270611Y-84744095D01*
X118272022Y-84736883D01*
X118275995Y-84720625D01*
X118278523Y-84717042D01*
X118286309Y-84701642D01*
X118294812Y-84672609D01*
X118303031Y-84634409D01*
X118309964Y-84591508D01*
X118313544Y-84560790D01*
X118313087Y-84479401D01*
X118296472Y-84403262D01*
X118264738Y-84334341D01*
X118218923Y-84274607D01*
X118160066Y-84226030D01*
X118127033Y-84207024D01*
X118064869Y-84180916D01*
X117989805Y-84157813D01*
X117906327Y-84138413D01*
X117818924Y-84123415D01*
X117732082Y-84113516D01*
X117650290Y-84109416D01*
X117578034Y-84111813D01*
X117543564Y-84116225D01*
X117457613Y-84136650D01*
X117362220Y-84169197D01*
X117260295Y-84212644D01*
X117154747Y-84265770D01*
X117065358Y-84317016D01*
X117034233Y-84335259D01*
X117008631Y-84349113D01*
X116992779Y-84356332D01*
X116990358Y-84356876D01*
X116981395Y-84362638D01*
X116981113Y-84364508D01*
X116973770Y-84373424D01*
X116958044Y-84382651D01*
X116936695Y-84393880D01*
X116923953Y-84402477D01*
X116907423Y-84414680D01*
X116882495Y-84431168D01*
X116853757Y-84449146D01*
X116825799Y-84465818D01*
X116803208Y-84478390D01*
X116790573Y-84484064D01*
X116789897Y-84484149D01*
X116781316Y-84490431D01*
X116781113Y-84492137D01*
X116773604Y-84500738D01*
X116755376Y-84510773D01*
X116753840Y-84511422D01*
X116735106Y-84521209D01*
X116726612Y-84529651D01*
X116726567Y-84530094D01*
X116719085Y-84538429D01*
X116708439Y-84543223D01*
X116687415Y-84553244D01*
X116678542Y-84559745D01*
X116667546Y-84568583D01*
X116651358Y-84579008D01*
X116626764Y-84592883D01*
X116590547Y-84612074D01*
X116569224Y-84623135D01*
X116512824Y-84646109D01*
X116463088Y-84653640D01*
X116421010Y-84645705D01*
X116391894Y-84626677D01*
X116362730Y-84589609D01*
X116334782Y-84536149D01*
X116308819Y-84468080D01*
X116285609Y-84387189D01*
X116281572Y-84370513D01*
X116273472Y-84336413D01*
X116265599Y-84303755D01*
X116263025Y-84293240D01*
X116257977Y-84266775D01*
X116252008Y-84225798D01*
X116245553Y-84173927D01*
X116239052Y-84114783D01*
X116232942Y-84051983D01*
X116230509Y-84024357D01*
X116225682Y-83981451D01*
X116219409Y-83954582D01*
X116210825Y-83941618D01*
X116199068Y-83940423D01*
X116196854Y-83941174D01*
X116187107Y-83953863D01*
X116179940Y-83981807D01*
X116178213Y-83994772D01*
X116165404Y-84094922D01*
X116149233Y-84193263D01*
X116130599Y-84285141D01*
X116110401Y-84365901D01*
X116099639Y-84401768D01*
X116068348Y-84484340D01*
X116033209Y-84549479D01*
X115993936Y-84597580D01*
X115950242Y-84629039D01*
X115928765Y-84637969D01*
X115898425Y-84644436D01*
X115866279Y-84642979D01*
X115828129Y-84632843D01*
X115779773Y-84613272D01*
X115772022Y-84609768D01*
X115748948Y-84597719D01*
X115718434Y-84579812D01*
X115685222Y-84559078D01*
X115654056Y-84538551D01*
X115629681Y-84521262D01*
X115617476Y-84510984D01*
X115607724Y-84503130D01*
X115588786Y-84489472D01*
X115581113Y-84484149D01*
X115560351Y-84469434D01*
X115546730Y-84458936D01*
X115544749Y-84457080D01*
X115535533Y-84449067D01*
X115516532Y-84433876D01*
X115499294Y-84420513D01*
X115476130Y-84402402D01*
X115459341Y-84388609D01*
X115453840Y-84383496D01*
X115445081Y-84376785D01*
X115423796Y-84361881D01*
X115392639Y-84340603D01*
X115354262Y-84314768D01*
X115326567Y-84296303D01*
X115261114Y-84254749D01*
X115193113Y-84215004D01*
X115126142Y-84178930D01*
X115063782Y-84148388D01*
X115009612Y-84125237D01*
X114974294Y-84113208D01*
X114938728Y-84103091D01*
X114902002Y-84092496D01*
X114897268Y-84091116D01*
X114869428Y-84086141D01*
X114827672Y-84082588D01*
X114776208Y-84080448D01*
X114719245Y-84079708D01*
X114660991Y-84080359D01*
X114605656Y-84082389D01*
X114557447Y-84085788D01*
X114520574Y-84090545D01*
X114512931Y-84092101D01*
X114448838Y-84108867D01*
X114388356Y-84128562D01*
X114335087Y-84149755D01*
X114292632Y-84171016D01*
X114264873Y-84190649D01*
X114248813Y-84203092D01*
X114227708Y-84216739D01*
X114206726Y-84234184D01*
X114185647Y-84259228D01*
X114180439Y-84267058D01*
X114166011Y-84288155D01*
X114154711Y-84300759D01*
X114151694Y-84302331D01*
X114145345Y-84309623D01*
X114144749Y-84314571D01*
X114140904Y-84330417D01*
X114131467Y-84353346D01*
X114129654Y-84357069D01*
X114116434Y-84391431D01*
X114104406Y-84436261D01*
X114095273Y-84483852D01*
X114090739Y-84526498D01*
X114090530Y-84534149D01*
X113493503Y-84534149D01*
X113491830Y-84494909D01*
X113494693Y-84429773D01*
X113500434Y-84391415D01*
X113510738Y-84350111D01*
X113524201Y-84311348D01*
X113542167Y-84273257D01*
X113565982Y-84233967D01*
X113596993Y-84191611D01*
X113636544Y-84144317D01*
X113685981Y-84090216D01*
X113746650Y-84027439D01*
X113803373Y-83970513D01*
X113863865Y-83910056D01*
X113912032Y-83861200D01*
X113948731Y-83823024D01*
X113974821Y-83794608D01*
X113991162Y-83775033D01*
X113998611Y-83763379D01*
X113999294Y-83760631D01*
X114003932Y-83750033D01*
X114015156Y-83731928D01*
X114015782Y-83731007D01*
X114037867Y-83686739D01*
X114054826Y-83627156D01*
X114066225Y-83554511D01*
X114071628Y-83471057D01*
X114072022Y-83439958D01*
X114071409Y-83380260D01*
X114069218Y-83338067D01*
X114064918Y-83312733D01*
X114057980Y-83303612D01*
X114047873Y-83310056D01*
X114034067Y-83331420D01*
X114016033Y-83367057D01*
X114014643Y-83369977D01*
X113981499Y-83432704D01*
X113943100Y-83493679D01*
X113901586Y-83550368D01*
X113859095Y-83600234D01*
X113817767Y-83640740D01*
X113779742Y-83669353D01*
X113750889Y-83682629D01*
X113721528Y-83688589D01*
X113703160Y-83684648D01*
X113691149Y-83667979D01*
X113682210Y-83640729D01*
X113672742Y-83607049D01*
X113661230Y-83567063D01*
X113654246Y-83543240D01*
X113643206Y-83504409D01*
X113632440Y-83464117D01*
X113627216Y-83443240D01*
X113618958Y-83409155D01*
X113610900Y-83376505D01*
X113608251Y-83365967D01*
X113590270Y-83287528D01*
X113573846Y-83199380D01*
X113558558Y-83098945D01*
X113543984Y-82983642D01*
X113539912Y-82947785D01*
X113533161Y-82865741D01*
X113529605Y-82773605D01*
X113529104Y-82675670D01*
X113531521Y-82576228D01*
X113536717Y-82479574D01*
X113544553Y-82390000D01*
X113554891Y-82311800D01*
X113561621Y-82275058D01*
X113568387Y-82242136D01*
X113576415Y-82202616D01*
X113580944Y-82180124D01*
X113588683Y-82148085D01*
X113601106Y-82103900D01*
X113616647Y-82052498D01*
X113633742Y-81998807D01*
X113650826Y-81947756D01*
X113666332Y-81904271D01*
X113677586Y-81875818D01*
X113689098Y-81850246D01*
X113705186Y-81815930D01*
X113724201Y-81776226D01*
X113744496Y-81734488D01*
X113764423Y-81694069D01*
X113782333Y-81658325D01*
X113796579Y-81630610D01*
X113805513Y-81614278D01*
X113807481Y-81611422D01*
X113815184Y-81600790D01*
X113825845Y-81581876D01*
X113837071Y-81564335D01*
X113846179Y-81556879D01*
X113846285Y-81556876D01*
X113853321Y-81549667D01*
X113853851Y-81545513D01*
X113859389Y-81531671D01*
X113873048Y-81511977D01*
X113876578Y-81507735D01*
X113891222Y-81489404D01*
X113898941Y-81477201D01*
X113899294Y-81475824D01*
X113904811Y-81466008D01*
X113918253Y-81449459D01*
X113919842Y-81447693D01*
X113937445Y-81427271D01*
X113959674Y-81400152D01*
X113972115Y-81384467D01*
X114021581Y-81324875D01*
X114080273Y-81260079D01*
X114142838Y-81195731D01*
X114203921Y-81137489D01*
X114217753Y-81125058D01*
X114239352Y-81106909D01*
X114271479Y-81081129D01*
X114310363Y-81050619D01*
X114352231Y-81018281D01*
X114393311Y-80987017D01*
X114429832Y-80959729D01*
X114458020Y-80939320D01*
X114468617Y-80932070D01*
X114537256Y-80887675D01*
X114595597Y-80851371D01*
X114648021Y-80820515D01*
X114698907Y-80792465D01*
X114708385Y-80787435D01*
X114747895Y-80766456D01*
X114784849Y-80746623D01*
X114814129Y-80730691D01*
X114826567Y-80723765D01*
X114855797Y-80708772D01*
X114889759Y-80693502D01*
X114899294Y-80689627D01*
X114930546Y-80677173D01*
X114959691Y-80665270D01*
X114967476Y-80662009D01*
X114991357Y-80651948D01*
X115023388Y-80638525D01*
X115044749Y-80629604D01*
X115077433Y-80615928D01*
X115107653Y-80603206D01*
X115122022Y-80597110D01*
X115167859Y-80579494D01*
X115228040Y-80559331D01*
X115299077Y-80537616D01*
X115377480Y-80515341D01*
X115459759Y-80493500D01*
X115542425Y-80473086D01*
X115617476Y-80456062D01*
X115672512Y-80444479D01*
X115719930Y-80435321D01*
X115764655Y-80427853D01*
X115811615Y-80421338D01*
X115865737Y-80415040D01*
X115931948Y-80408224D01*
X115949046Y-80406541D01*
X116026178Y-80400083D01*
X116086124Y-80397539D01*
X116129457Y-80398924D01*
X116156750Y-80404251D01*
X116167738Y-80411845D01*
X116164478Y-80423553D01*
X116147641Y-80446866D01*
X116117435Y-80481536D01*
X116074069Y-80527314D01*
X116053840Y-80547916D01*
X116021204Y-80581525D01*
X115985909Y-80618850D01*
X115958972Y-80648106D01*
X115938805Y-80670155D01*
X115908890Y-80702495D01*
X115871958Y-80742193D01*
X115830739Y-80786316D01*
X115787961Y-80831929D01*
X115781699Y-80838591D01*
X115738089Y-80885009D01*
X115694828Y-80931130D01*
X115654867Y-80973802D01*
X115621159Y-81009870D01*
X115596656Y-81036184D01*
X115594749Y-81038241D01*
X115565211Y-81069876D01*
X115535962Y-81100818D01*
X115512396Y-81125371D01*
X115508385Y-81129475D01*
X115491374Y-81147209D01*
X115464960Y-81175247D01*
X115432034Y-81210499D01*
X115395488Y-81249874D01*
X115372022Y-81275280D01*
X115335582Y-81314702D01*
X115301822Y-81351022D01*
X115273360Y-81381440D01*
X115252814Y-81403154D01*
X115244749Y-81411470D01*
X115231282Y-81425414D01*
X115207934Y-81450057D01*
X115177183Y-81482762D01*
X115141508Y-81520896D01*
X115108385Y-81556446D01*
X115067496Y-81600260D01*
X115026536Y-81643874D01*
X114988843Y-81683751D01*
X114957759Y-81716355D01*
X114941379Y-81733305D01*
X114914804Y-81762756D01*
X114901463Y-81782730D01*
X114901455Y-81792540D01*
X114914877Y-81791500D01*
X114934282Y-81782947D01*
X114953002Y-81772541D01*
X114962931Y-81765683D01*
X114971977Y-81759538D01*
X114993781Y-81745926D01*
X115025442Y-81726622D01*
X115064061Y-81703406D01*
X115081113Y-81693240D01*
X115121734Y-81668940D01*
X115156578Y-81647832D01*
X115182745Y-81631692D01*
X115197336Y-81622296D01*
X115199294Y-81620811D01*
X115212582Y-81610887D01*
X115234711Y-81597510D01*
X115258097Y-81585012D01*
X115274294Y-81577983D01*
X115287732Y-81569976D01*
X115290203Y-81564907D01*
X115297259Y-81557227D01*
X115300164Y-81556876D01*
X115313996Y-81551996D01*
X115333627Y-81540211D01*
X115334255Y-81539769D01*
X115357617Y-81524270D01*
X115386608Y-81506373D01*
X115395509Y-81501132D01*
X115430738Y-81480497D01*
X115470044Y-81457146D01*
X115510254Y-81433002D01*
X115548197Y-81409993D01*
X115580701Y-81390043D01*
X115604596Y-81375079D01*
X115616709Y-81367025D01*
X115617476Y-81366374D01*
X115627505Y-81359535D01*
X115648118Y-81347520D01*
X115662931Y-81339373D01*
X115687195Y-81325791D01*
X115704104Y-81315390D01*
X115708385Y-81312100D01*
X115719269Y-81303963D01*
X115731113Y-81296932D01*
X115767131Y-81276937D01*
X115789075Y-81263985D01*
X115799049Y-81256830D01*
X115799294Y-81256578D01*
X115808341Y-81250438D01*
X115830144Y-81236830D01*
X115861805Y-81217530D01*
X115900423Y-81194315D01*
X115917476Y-81184149D01*
X115958098Y-81159850D01*
X115992942Y-81138741D01*
X116019109Y-81122601D01*
X116033700Y-81113205D01*
X116035658Y-81111720D01*
X116045685Y-81104945D01*
X116066294Y-81092971D01*
X116081113Y-81084827D01*
X116105376Y-81071246D01*
X116122286Y-81060845D01*
X116126567Y-81057554D01*
X116137284Y-81049544D01*
X116151567Y-81040967D01*
X116176821Y-81026937D01*
X116192476Y-81018240D01*
X116209688Y-81007637D01*
X116217476Y-81001419D01*
X116228300Y-80993373D01*
X116242476Y-80985190D01*
X116258768Y-80979069D01*
X116261687Y-80984730D01*
X116251399Y-81001819D01*
X116228071Y-81029983D01*
X116214280Y-81045186D01*
X116185651Y-81076541D01*
X116157159Y-81108400D01*
X116134924Y-81133920D01*
X116134734Y-81134144D01*
X116108838Y-81163403D01*
X116080830Y-81193310D01*
X116071975Y-81202326D01*
X116046078Y-81229500D01*
X116020457Y-81258355D01*
X116014096Y-81265967D01*
X115997774Y-81285078D01*
X115972511Y-81313657D01*
X115941744Y-81347852D01*
X115908910Y-81383813D01*
X115908600Y-81384149D01*
X115875740Y-81420104D01*
X115844878Y-81454312D01*
X115819464Y-81482928D01*
X115802942Y-81502102D01*
X115802843Y-81502221D01*
X115780530Y-81527843D01*
X115753460Y-81557200D01*
X115740203Y-81570974D01*
X115712722Y-81599953D01*
X115684679Y-81631011D01*
X115673625Y-81643812D01*
X115649541Y-81671614D01*
X115621119Y-81703420D01*
X115605444Y-81720535D01*
X115584083Y-81743814D01*
X115554646Y-81776231D01*
X115521152Y-81813345D01*
X115490223Y-81847808D01*
X115459650Y-81881839D01*
X115432459Y-81911852D01*
X115411487Y-81934732D01*
X115399570Y-81947365D01*
X115399148Y-81947786D01*
X115387705Y-81959937D01*
X115367350Y-81982357D01*
X115341152Y-82011639D01*
X115317310Y-82038557D01*
X115287394Y-82072214D01*
X115259571Y-82103037D01*
X115237404Y-82127104D01*
X115226440Y-82138557D01*
X115210423Y-82155482D01*
X115186553Y-82181776D01*
X115158821Y-82213015D01*
X115144622Y-82229258D01*
X115116803Y-82261029D01*
X115091211Y-82289843D01*
X115071677Y-82311406D01*
X115065203Y-82318308D01*
X115050244Y-82337098D01*
X115044350Y-82351402D01*
X115049018Y-82356876D01*
X115058936Y-82352840D01*
X115078241Y-82342817D01*
X115084136Y-82339549D01*
X115110864Y-82324529D01*
X115134808Y-82311061D01*
X115136685Y-82310004D01*
X115154349Y-82299169D01*
X115162931Y-82292562D01*
X115172965Y-82285565D01*
X115193588Y-82273446D01*
X115208385Y-82265289D01*
X115232632Y-82251841D01*
X115249541Y-82241756D01*
X115253840Y-82238695D01*
X115264532Y-82231216D01*
X115278840Y-82222786D01*
X115304094Y-82208756D01*
X115319749Y-82200058D01*
X115336930Y-82189799D01*
X115344749Y-82184149D01*
X115355441Y-82176671D01*
X115369749Y-82168240D01*
X115395003Y-82154210D01*
X115410658Y-82145513D01*
X115427839Y-82135253D01*
X115435658Y-82129604D01*
X115446514Y-82122025D01*
X115458385Y-82115114D01*
X115493540Y-82095602D01*
X115515067Y-82082889D01*
X115525505Y-82075458D01*
X115526567Y-82074380D01*
X115536601Y-82067383D01*
X115557224Y-82055264D01*
X115572022Y-82047108D01*
X115595979Y-82033256D01*
X115612185Y-82022122D01*
X115615961Y-82018240D01*
X115626375Y-82011523D01*
X115627959Y-82011422D01*
X115640149Y-82006667D01*
X115661275Y-81994543D01*
X115674929Y-81985663D01*
X115707859Y-81964624D01*
X115743808Y-81943456D01*
X115753840Y-81937936D01*
X115778096Y-81924528D01*
X115795005Y-81914472D01*
X115799294Y-81911422D01*
X115809881Y-81904012D01*
X115833820Y-81890019D01*
X115867476Y-81871366D01*
X115883776Y-81861632D01*
X115890203Y-81856876D01*
X115904060Y-81846788D01*
X115926572Y-81833335D01*
X115949961Y-81820930D01*
X115965203Y-81814347D01*
X115978641Y-81806340D01*
X115981113Y-81801271D01*
X115988168Y-81793590D01*
X115991073Y-81793240D01*
X116004903Y-81788358D01*
X116024532Y-81776568D01*
X116025164Y-81776123D01*
X116049351Y-81760179D01*
X116078083Y-81742791D01*
X116083385Y-81739759D01*
X116115273Y-81721757D01*
X116148102Y-81703223D01*
X116151567Y-81701267D01*
X116179829Y-81684452D01*
X116205849Y-81667644D01*
X116209789Y-81664903D01*
X116229463Y-81652962D01*
X116243612Y-81647791D01*
X116243880Y-81647786D01*
X116253413Y-81642926D01*
X116253840Y-81640952D01*
X116261223Y-81633296D01*
X116280198Y-81620934D01*
X116297022Y-81611629D01*
X116322037Y-81598185D01*
X116339727Y-81587903D01*
X116344749Y-81584372D01*
X116354388Y-81577389D01*
X116376212Y-81564486D01*
X116412204Y-81544491D01*
X116412931Y-81544093D01*
X116429254Y-81534073D01*
X116435658Y-81528926D01*
X116445692Y-81521928D01*
X116466315Y-81509809D01*
X116481113Y-81501653D01*
X116505360Y-81488204D01*
X116522268Y-81478120D01*
X116526567Y-81475058D01*
X116536589Y-81468457D01*
X116557187Y-81456597D01*
X116572022Y-81448463D01*
X116596285Y-81434882D01*
X116613195Y-81424481D01*
X116617476Y-81421191D01*
X116628194Y-81413180D01*
X116642476Y-81404604D01*
X116667730Y-81390574D01*
X116683385Y-81381876D01*
X116700589Y-81371362D01*
X116708385Y-81365289D01*
X116718420Y-81358292D01*
X116739043Y-81346173D01*
X116753840Y-81338017D01*
X116778087Y-81324568D01*
X116794996Y-81314483D01*
X116799294Y-81311422D01*
X116813151Y-81301333D01*
X116835663Y-81287881D01*
X116859052Y-81275476D01*
X116874294Y-81268892D01*
X116887732Y-81260886D01*
X116890204Y-81255816D01*
X116897259Y-81248136D01*
X116900164Y-81247785D01*
X116913994Y-81242904D01*
X116933623Y-81231114D01*
X116934255Y-81230668D01*
X116955538Y-81216618D01*
X116981260Y-81201030D01*
X117006108Y-81186944D01*
X117024768Y-81177404D01*
X117031389Y-81175058D01*
X117036647Y-81180987D01*
X117030609Y-81196730D01*
X117014816Y-81219224D01*
X117001567Y-81234400D01*
X116977044Y-81261562D01*
X116948222Y-81294757D01*
X116926567Y-81320510D01*
X116900371Y-81351535D01*
X116873570Y-81382123D01*
X116855258Y-81402127D01*
X116830487Y-81429683D01*
X116806306Y-81458797D01*
X116800742Y-81465967D01*
X116779437Y-81492294D01*
X116757638Y-81516658D01*
X116753869Y-81520513D01*
X116735281Y-81540528D01*
X116711854Y-81567653D01*
X116696598Y-81586196D01*
X116676170Y-81611271D01*
X116659062Y-81631659D01*
X116651014Y-81640742D01*
X116640241Y-81652801D01*
X116621311Y-81674695D01*
X116597754Y-81702330D01*
X116590075Y-81711410D01*
X116565394Y-81740362D01*
X116543810Y-81765170D01*
X116529058Y-81781559D01*
X116526567Y-81784149D01*
X116514528Y-81797256D01*
X116494561Y-81820037D01*
X116470402Y-81848217D01*
X116463060Y-81856889D01*
X116438786Y-81885470D01*
X116418047Y-81909579D01*
X116404371Y-81925121D01*
X116402120Y-81927556D01*
X116390620Y-81940686D01*
X116372335Y-81962650D01*
X116356536Y-81982102D01*
X116333409Y-82009935D01*
X116310894Y-82035514D01*
X116299294Y-82047786D01*
X116280923Y-82067592D01*
X116257489Y-82094728D01*
X116240981Y-82114777D01*
X116218546Y-82142005D01*
X116197684Y-82166204D01*
X116186435Y-82178444D01*
X116170946Y-82195439D01*
X116148966Y-82220922D01*
X116126567Y-82247786D01*
X116102653Y-82276397D01*
X116080269Y-82302204D01*
X116065203Y-82318623D01*
X116048025Y-82340487D01*
X116045902Y-82353583D01*
X116057626Y-82356131D01*
X116081985Y-82346355D01*
X116083509Y-82345513D01*
X116100638Y-82335149D01*
X116108385Y-82329387D01*
X116118145Y-82323128D01*
X116139656Y-82311050D01*
X116168488Y-82295630D01*
X116172022Y-82293781D01*
X116201416Y-82278064D01*
X116223982Y-82265298D01*
X116235287Y-82258001D01*
X116235658Y-82257634D01*
X116245814Y-82250450D01*
X116266134Y-82238509D01*
X116276567Y-82232785D01*
X116341440Y-82197218D01*
X116404250Y-82161121D01*
X116424694Y-82149055D01*
X116450745Y-82134053D01*
X116470137Y-82123715D01*
X116477837Y-82120513D01*
X116488031Y-82115830D01*
X116505880Y-82104482D01*
X116506982Y-82103718D01*
X116527692Y-82090500D01*
X116557510Y-82072861D01*
X116585658Y-82057016D01*
X116623959Y-82036016D01*
X116665159Y-82013427D01*
X116690204Y-81999696D01*
X116721046Y-81982311D01*
X116748695Y-81965921D01*
X116762931Y-81956876D01*
X116783372Y-81944082D01*
X116812520Y-81927070D01*
X116835658Y-81914148D01*
X116869862Y-81895362D01*
X116904072Y-81876422D01*
X116922022Y-81866398D01*
X116954823Y-81848187D01*
X116989049Y-81829496D01*
X116994749Y-81826422D01*
X117017595Y-81813714D01*
X117032879Y-81804420D01*
X117035658Y-81802331D01*
X117041267Y-81798302D01*
X117054483Y-81790522D01*
X117077677Y-81777666D01*
X117113217Y-81758410D01*
X117140204Y-81743905D01*
X117156533Y-81734302D01*
X117162931Y-81729604D01*
X117173117Y-81722959D01*
X117193493Y-81711512D01*
X117203840Y-81706003D01*
X117239355Y-81687001D01*
X117273688Y-81667966D01*
X117302169Y-81651545D01*
X117320129Y-81640384D01*
X117322022Y-81639035D01*
X117334409Y-81631304D01*
X117357422Y-81618091D01*
X117381113Y-81604979D01*
X117414736Y-81586525D01*
X117447809Y-81568158D01*
X117465203Y-81558371D01*
X117487904Y-81547854D01*
X117498732Y-81547832D01*
X117496135Y-81557676D01*
X117487931Y-81567591D01*
X117477009Y-81579858D01*
X117457952Y-81601924D01*
X117434315Y-81629662D01*
X117426675Y-81638695D01*
X117401973Y-81667649D01*
X117380350Y-81692457D01*
X117365547Y-81708843D01*
X117363038Y-81711434D01*
X117350953Y-81724548D01*
X117330970Y-81747347D01*
X117306830Y-81775549D01*
X117299556Y-81784161D01*
X117274886Y-81813135D01*
X117253258Y-81837952D01*
X117238421Y-81854326D01*
X117235919Y-81856889D01*
X117223760Y-81870005D01*
X117203719Y-81892810D01*
X117179547Y-81921017D01*
X117172283Y-81929616D01*
X117147591Y-81958592D01*
X117125911Y-81983407D01*
X117111003Y-81999775D01*
X117108482Y-82002331D01*
X117095763Y-82016136D01*
X117076015Y-82039141D01*
X117053840Y-82065967D01*
X117031377Y-82093135D01*
X117011694Y-82116051D01*
X116999198Y-82129604D01*
X116986960Y-82142717D01*
X116966857Y-82165523D01*
X116942652Y-82193733D01*
X116935397Y-82202319D01*
X116910749Y-82231288D01*
X116889169Y-82256103D01*
X116874399Y-82272479D01*
X116871914Y-82275046D01*
X116859826Y-82288152D01*
X116839828Y-82310939D01*
X116815659Y-82339128D01*
X116808334Y-82347785D01*
X116785093Y-82375219D01*
X116766396Y-82397060D01*
X116755277Y-82409770D01*
X116753722Y-82411422D01*
X116746084Y-82419844D01*
X116729381Y-82438845D01*
X116706412Y-82465228D01*
X116690029Y-82484149D01*
X116664556Y-82513535D01*
X116643586Y-82537548D01*
X116629922Y-82552990D01*
X116626329Y-82556876D01*
X116618633Y-82565483D01*
X116602278Y-82584471D01*
X116580305Y-82610300D01*
X116571784Y-82620379D01*
X116545561Y-82650962D01*
X116520849Y-82678953D01*
X116502188Y-82699229D01*
X116499294Y-82702197D01*
X116480918Y-82722083D01*
X116457478Y-82749275D01*
X116440981Y-82769322D01*
X116418546Y-82796550D01*
X116397684Y-82820750D01*
X116386435Y-82832989D01*
X116370954Y-82849994D01*
X116348999Y-82875498D01*
X116326656Y-82902362D01*
X116302306Y-82931418D01*
X116278972Y-82958022D01*
X116263019Y-82975058D01*
X116244597Y-82994868D01*
X116221127Y-83022008D01*
X116204617Y-83042049D01*
X116182170Y-83069343D01*
X116161301Y-83093683D01*
X116150072Y-83106032D01*
X116135298Y-83122224D01*
X116113074Y-83147534D01*
X116087620Y-83177138D01*
X116081374Y-83184495D01*
X116056640Y-83213365D01*
X116034935Y-83238090D01*
X116020039Y-83254380D01*
X116017573Y-83256876D01*
X116004850Y-83270674D01*
X115985085Y-83293666D01*
X115962854Y-83320513D01*
X115938557Y-83349608D01*
X115915236Y-83376237D01*
X115899294Y-83393240D01*
X115881571Y-83412179D01*
X115857901Y-83439194D01*
X115835570Y-83465826D01*
X115806294Y-83500439D01*
X115773351Y-83537719D01*
X115751661Y-83561281D01*
X115724027Y-83593251D01*
X115709890Y-83615633D01*
X115708970Y-83627582D01*
X115720986Y-83628249D01*
X115745658Y-83616787D01*
X115765838Y-83604127D01*
X115792169Y-83587148D01*
X115827444Y-83565282D01*
X115864861Y-83542732D01*
X115872022Y-83538499D01*
X115903256Y-83519828D01*
X115928109Y-83504455D01*
X115942681Y-83494812D01*
X115944749Y-83493114D01*
X115953864Y-83486727D01*
X115975519Y-83472986D01*
X116006604Y-83453784D01*
X116044003Y-83431016D01*
X116084605Y-83406576D01*
X116125296Y-83382357D01*
X116162964Y-83360254D01*
X116166716Y-83358075D01*
X116194864Y-83341156D01*
X116220322Y-83324902D01*
X116226567Y-83320655D01*
X116242761Y-83310038D01*
X116270797Y-83292363D01*
X116306946Y-83269958D01*
X116347476Y-83245149D01*
X116353840Y-83241281D01*
X116405965Y-83209538D01*
X116465343Y-83173233D01*
X116523775Y-83137388D01*
X116562931Y-83113279D01*
X116614122Y-83081791D01*
X116673074Y-83045690D01*
X116731977Y-83009753D01*
X116776567Y-82982662D01*
X116816248Y-82958476D01*
X116850146Y-82937543D01*
X116875316Y-82921703D01*
X116888815Y-82912794D01*
X116890204Y-82911692D01*
X116900287Y-82904267D01*
X116920265Y-82891399D01*
X116944983Y-82876205D01*
X116969288Y-82861804D01*
X116988028Y-82851311D01*
X116995852Y-82847785D01*
X117005012Y-82843049D01*
X117024960Y-82830579D01*
X117051530Y-82812987D01*
X117053840Y-82811422D01*
X117081626Y-82793413D01*
X117104108Y-82780408D01*
X117116652Y-82775076D01*
X117116977Y-82775058D01*
X117126205Y-82768438D01*
X117126567Y-82765967D01*
X117133504Y-82757162D01*
X117135798Y-82756876D01*
X117147751Y-82752287D01*
X117169858Y-82740307D01*
X117194889Y-82725058D01*
X117231810Y-82701494D01*
X117272577Y-82675470D01*
X117295359Y-82660924D01*
X117327235Y-82640932D01*
X117357813Y-82622346D01*
X117375932Y-82611779D01*
X117402527Y-82596833D01*
X117426361Y-82583426D01*
X117427594Y-82582731D01*
X117445245Y-82572038D01*
X117453840Y-82565687D01*
X117463246Y-82559158D01*
X117484460Y-82545867D01*
X117513592Y-82528230D01*
X117526567Y-82520513D01*
X117557775Y-82501814D01*
X117582617Y-82486498D01*
X117597204Y-82476980D01*
X117599294Y-82475339D01*
X117609997Y-82467640D01*
X117624294Y-82459149D01*
X117649548Y-82445119D01*
X117665203Y-82436422D01*
X117682394Y-82426057D01*
X117690203Y-82420232D01*
X117699610Y-82413703D01*
X117720823Y-82400413D01*
X117749956Y-82382775D01*
X117762931Y-82375058D01*
X117794139Y-82356360D01*
X117818981Y-82341044D01*
X117833567Y-82331525D01*
X117835658Y-82329884D01*
X117848974Y-82319954D01*
X117871124Y-82306573D01*
X117894509Y-82294080D01*
X117910658Y-82287074D01*
X117924096Y-82279067D01*
X117926567Y-82273998D01*
X117933579Y-82266264D01*
X117936157Y-82265967D01*
X117947981Y-82261163D01*
X117970013Y-82248530D01*
X117997617Y-82230740D01*
X117999294Y-82229604D01*
X118026401Y-82211688D01*
X118047430Y-82198702D01*
X118058117Y-82193270D01*
X118058385Y-82193240D01*
X118068192Y-82188551D01*
X118088618Y-82176250D01*
X118115273Y-82158981D01*
X118115702Y-82158695D01*
X118143142Y-82140991D01*
X118181560Y-82117013D01*
X118226238Y-82089668D01*
X118272463Y-82061864D01*
X118281113Y-82056721D01*
X118321746Y-82032469D01*
X118356597Y-82011403D01*
X118382764Y-81995296D01*
X118397346Y-81985924D01*
X118399294Y-81984447D01*
X118409818Y-81976787D01*
X118426567Y-81966589D01*
X118444706Y-81955851D01*
X118473080Y-81938670D01*
X118506485Y-81918204D01*
X118517476Y-81911422D01*
X118551394Y-81890570D01*
X118581960Y-81871984D01*
X118603969Y-81858822D01*
X118608385Y-81856255D01*
X118626420Y-81844976D01*
X118635658Y-81837647D01*
X118647050Y-81830853D01*
X118661431Y-81825425D01*
X118680697Y-81825158D01*
X118701845Y-81837097D01*
X118726540Y-81862669D01*
X118756449Y-81903299D01*
X118761916Y-81911422D01*
X118786843Y-81950441D01*
X118804465Y-81982966D01*
X118818732Y-82016776D01*
X118826567Y-82038695D01*
X118835983Y-82065381D01*
X118844156Y-82087395D01*
X118844665Y-82088695D01*
X118858828Y-82134181D01*
X118872058Y-82195917D01*
X118881198Y-82252331D01*
X118887340Y-82291762D01*
X118893851Y-82328569D01*
X118899441Y-82355521D01*
X118900035Y-82357931D01*
X118902651Y-82377796D01*
X118904760Y-82412720D01*
X118906364Y-82459586D01*
X118907463Y-82515279D01*
X118908059Y-82576682D01*
X118908153Y-82640679D01*
X118907745Y-82704155D01*
X118906839Y-82763993D01*
X118905433Y-82817077D01*
X118903531Y-82860290D01*
X118901132Y-82890518D01*
X118899831Y-82899365D01*
X118894871Y-82928631D01*
X118889007Y-82968910D01*
X118883245Y-83013134D01*
X118881281Y-83029604D01*
X118875763Y-83073745D01*
X118869677Y-83116910D01*
X118864061Y-83151894D01*
X118862290Y-83161422D01*
X118854966Y-83198625D01*
X118846845Y-83240158D01*
X118843593Y-83256876D01*
X118837153Y-83288589D01*
X118829333Y-83323929D01*
X118819255Y-83366647D01*
X118806042Y-83420493D01*
X118794098Y-83468240D01*
X118782486Y-83506009D01*
X118765656Y-83550278D01*
X118745750Y-83596371D01*
X118724912Y-83639609D01*
X118705284Y-83675315D01*
X118689011Y-83698811D01*
X118687886Y-83700058D01*
X118670956Y-83714550D01*
X118654382Y-83719742D01*
X118637097Y-83714506D01*
X118618039Y-83697712D01*
X118596143Y-83668232D01*
X118570345Y-83624937D01*
X118539579Y-83566699D01*
X118514287Y-83515967D01*
X118487291Y-83460272D01*
X118465017Y-83412969D01*
X118448392Y-83376103D01*
X118438343Y-83351716D01*
X118435658Y-83342470D01*
X118430872Y-83332082D01*
X118419124Y-83313776D01*
X118416857Y-83310553D01*
X118397091Y-83290915D01*
X118377676Y-83284756D01*
X118362621Y-83292828D01*
X118358909Y-83299700D01*
X118357413Y-83313149D01*
X118356650Y-83341820D01*
X118356614Y-83382768D01*
X118357302Y-83433047D01*
X118358708Y-83489713D01*
X118359237Y-83506518D01*
X118365532Y-83697785D01*
X118402743Y-83743240D01*
X118422668Y-83767370D01*
X118437961Y-83785503D01*
X118444862Y-83793240D01*
X118452622Y-83801845D01*
X118469035Y-83820825D01*
X118491049Y-83846639D01*
X118499532Y-83856657D01*
X118523779Y-83885214D01*
X118544463Y-83909340D01*
X118558049Y-83924921D01*
X118560234Y-83927337D01*
X118571667Y-83940589D01*
X118589910Y-83962638D01*
X118605689Y-83982102D01*
X118624763Y-84005626D01*
X118639190Y-84023019D01*
X118644984Y-84029604D01*
X118652749Y-84038810D01*
X118667768Y-84057794D01*
X118681113Y-84075058D01*
X118699101Y-84098205D01*
X118712614Y-84114991D01*
X118717476Y-84120513D01*
X118725383Y-84129715D01*
X118740524Y-84148690D01*
X118753944Y-84165967D01*
X118773412Y-84190797D01*
X118789793Y-84210838D01*
X118796689Y-84218688D01*
X118810173Y-84238313D01*
X118826757Y-84270370D01*
X118844331Y-84309873D01*
X118860788Y-84351834D01*
X118874016Y-84391266D01*
X118880878Y-84417739D01*
X118888542Y-84464994D01*
X118891256Y-84511660D01*
X118888581Y-84560663D01*
X118880078Y-84614930D01*
X118865307Y-84677388D01*
X118843829Y-84750965D01*
X118819762Y-84825058D01*
X118800115Y-84883156D01*
X118781411Y-84937560D01*
X118764749Y-84985151D01*
X118751223Y-85022807D01*
X118741931Y-85047408D01*
X118739894Y-85052331D01*
X118727629Y-85081021D01*
X118717043Y-85106668D01*
X118715155Y-85111422D01*
X118705175Y-85135142D01*
X118698234Y-85149935D01*
X118691405Y-85167787D01*
X118690203Y-85175034D01*
X118686379Y-85187104D01*
X118675813Y-85212583D01*
X118659869Y-85248603D01*
X118639910Y-85292297D01*
X118617300Y-85340799D01*
X118593400Y-85391240D01*
X118569575Y-85440754D01*
X118547187Y-85486473D01*
X118527600Y-85525531D01*
X118512176Y-85555060D01*
X118502278Y-85572193D01*
X118500033Y-85575058D01*
X118492700Y-85585665D01*
X118482090Y-85605265D01*
X118481291Y-85606876D01*
X118471309Y-85624555D01*
X118454040Y-85652654D01*
X118431887Y-85687510D01*
X118407253Y-85725454D01*
X118382542Y-85762821D01*
X118360157Y-85795944D01*
X118342500Y-85821157D01*
X118331976Y-85834795D01*
X118331701Y-85835085D01*
X118321103Y-85847199D01*
X118303384Y-85868501D01*
X118286217Y-85889630D01*
X118246263Y-85934064D01*
X118198788Y-85978812D01*
X118149797Y-86018583D01*
X118108385Y-86046322D01*
X118086940Y-86057621D01*
X118066602Y-86064617D01*
X118042033Y-86068278D01*
X118007894Y-86069575D01*
X117980101Y-86069619D01*
X117938855Y-86068445D01*
X117901746Y-86065639D01*
X117874434Y-86061701D01*
X117866465Y-86059556D01*
X117840894Y-86050943D01*
X117809026Y-86041203D01*
X117799294Y-86038416D01*
X117774077Y-86030936D01*
X117736892Y-86019407D01*
X117693034Y-86005488D01*
X117653840Y-85992815D01*
X117604534Y-85976923D01*
X117553485Y-85960806D01*
X117507627Y-85946635D01*
X117481113Y-85938681D01*
X117445926Y-85928078D01*
X117415730Y-85918489D01*
X117396342Y-85911769D01*
X117394749Y-85911133D01*
X117375245Y-85904862D01*
X117346409Y-85897510D01*
X117331113Y-85894132D01*
X117293358Y-85886168D01*
X117254013Y-85877719D01*
X117242996Y-85875317D01*
X117162745Y-85865499D01*
X117082525Y-85870121D01*
X117005843Y-85888293D01*
X116936208Y-85919127D01*
X116877128Y-85961732D01*
X116868070Y-85970397D01*
X116836126Y-86009822D01*
X116805109Y-86061346D01*
X116778070Y-86119009D01*
X116758062Y-86176854D01*
X116753913Y-86193240D01*
X116745933Y-86226618D01*
X116738116Y-86256905D01*
X116734525Y-86269597D01*
X116729867Y-86294288D01*
X116727002Y-86327325D01*
X116726567Y-86344597D01*
X116728905Y-86376870D01*
X116736360Y-86391957D01*
X116749593Y-86390299D01*
X116768864Y-86372785D01*
X116793755Y-86347703D01*
X116826416Y-86318637D01*
X116863696Y-86287962D01*
X116902442Y-86258053D01*
X116939503Y-86231284D01*
X116971727Y-86210029D01*
X116995961Y-86196662D01*
X117007213Y-86193240D01*
X117016963Y-86186983D01*
X117017476Y-86184149D01*
X117024706Y-86175798D01*
X117029405Y-86175058D01*
X117044299Y-86171314D01*
X117068143Y-86161853D01*
X117079963Y-86156394D01*
X117122257Y-86141881D01*
X117172936Y-86133471D01*
X117226893Y-86131100D01*
X117279024Y-86134702D01*
X117324224Y-86144214D01*
X117357386Y-86159570D01*
X117357863Y-86159916D01*
X117367401Y-86168325D01*
X117368465Y-86177328D01*
X117360053Y-86192074D01*
X117348543Y-86207829D01*
X117332100Y-86229448D01*
X117320150Y-86244398D01*
X117317090Y-86247785D01*
X117309203Y-86257539D01*
X117295526Y-86276479D01*
X117290204Y-86284149D01*
X117275440Y-86304917D01*
X117264830Y-86318537D01*
X117262931Y-86320513D01*
X117254797Y-86330276D01*
X117240972Y-86349234D01*
X117235658Y-86356876D01*
X117220856Y-86377649D01*
X117210157Y-86391269D01*
X117208223Y-86393240D01*
X117198246Y-86404862D01*
X117183507Y-86425639D01*
X117167495Y-86450152D01*
X117153699Y-86472980D01*
X117145608Y-86488706D01*
X117144749Y-86491848D01*
X117138595Y-86503183D01*
X117137300Y-86503846D01*
X117128266Y-86512985D01*
X117112531Y-86533905D01*
X117092676Y-86562753D01*
X117071277Y-86595673D01*
X117050914Y-86628811D01*
X117034934Y-86656876D01*
X117021342Y-86681150D01*
X117010876Y-86698060D01*
X117007533Y-86702331D01*
X116999644Y-86714040D01*
X116986547Y-86738688D01*
X116970010Y-86772419D01*
X116951798Y-86811382D01*
X116933678Y-86851723D01*
X116917416Y-86889588D01*
X116904778Y-86921124D01*
X116897629Y-86942109D01*
X116888922Y-86968319D01*
X116879957Y-86986129D01*
X116875752Y-86990250D01*
X116862763Y-86991989D01*
X116836051Y-86993570D01*
X116800075Y-86994903D01*
X116759293Y-86995900D01*
X116718165Y-86996470D01*
X116681148Y-86996525D01*
X116652702Y-86995974D01*
X116638857Y-86995002D01*
X116620868Y-86986327D01*
X116614166Y-86976820D01*
X116589073Y-86902641D01*
X116568773Y-86844249D01*
X116552642Y-86800074D01*
X116540057Y-86768548D01*
X116530394Y-86748100D01*
X116523029Y-86737162D01*
X116517695Y-86734149D01*
X116505975Y-86741936D01*
X116496238Y-86760737D01*
X116496026Y-86761422D01*
X116487606Y-86787397D01*
X116480545Y-86806876D01*
X116473138Y-86826498D01*
X116462124Y-86856780D01*
X116449428Y-86892302D01*
X116436971Y-86927644D01*
X116426676Y-86957385D01*
X116420465Y-86976105D01*
X116420093Y-86977331D01*
X116417260Y-86982465D01*
X116410738Y-86986366D01*
X116398303Y-86989200D01*
X116377730Y-86991136D01*
X116346796Y-86992339D01*
X116303275Y-86992977D01*
X116244945Y-86993217D01*
X116208326Y-86993240D01*
X116001297Y-86993240D01*
X115982114Y-86952430D01*
X115970971Y-86927333D01*
X115964051Y-86909067D01*
X115962931Y-86904185D01*
X115959600Y-86890491D01*
X115950892Y-86866335D01*
X115938736Y-86836169D01*
X115925062Y-86804444D01*
X115911797Y-86775614D01*
X115900870Y-86754130D01*
X115894210Y-86744444D01*
X115893661Y-86744287D01*
X115887035Y-86747909D01*
X115879791Y-86758946D01*
X115870328Y-86780586D01*
X115857047Y-86816019D01*
X115855422Y-86820513D01*
X115844279Y-86851243D01*
X115834741Y-86877274D01*
X115830485Y-86888695D01*
X115823195Y-86908189D01*
X115812933Y-86935944D01*
X115808581Y-86947785D01*
X115793576Y-86988695D01*
X115662035Y-86991199D01*
X115530494Y-86993704D01*
X115492167Y-86929716D01*
X115474383Y-86898995D01*
X115460985Y-86873887D01*
X115454232Y-86858694D01*
X115453840Y-86856757D01*
X115446918Y-86848045D01*
X115444749Y-86847785D01*
X115435921Y-86841025D01*
X115435658Y-86838909D01*
X115431225Y-86828045D01*
X115419160Y-86805051D01*
X115401310Y-86773311D01*
X115379781Y-86736637D01*
X115347679Y-86682840D01*
X115323106Y-86641262D01*
X115304148Y-86608583D01*
X115288892Y-86581484D01*
X115275426Y-86556645D01*
X115268349Y-86543240D01*
X115255905Y-86520337D01*
X115246782Y-86505056D01*
X115244749Y-86502331D01*
X115237305Y-86491732D01*
X115227985Y-86476085D01*
X115203435Y-86432683D01*
X115183183Y-86397432D01*
X115162748Y-86362561D01*
X115155110Y-86349658D01*
X115140023Y-86322898D01*
X115129678Y-86302019D01*
X115126567Y-86292840D01*
X115119637Y-86284399D01*
X115117476Y-86284149D01*
X115108647Y-86277524D01*
X115108385Y-86275458D01*
X115104066Y-86263444D01*
X115092889Y-86241333D01*
X115081228Y-86220709D01*
X115054071Y-86174650D01*
X115082087Y-86157613D01*
X115124545Y-86140583D01*
X115177327Y-86132776D01*
X115234973Y-86134395D01*
X115292019Y-86145641D01*
X115303840Y-86149391D01*
X115353641Y-86170753D01*
X115411201Y-86202542D01*
X115471941Y-86241833D01*
X115531282Y-86285697D01*
X115576251Y-86323533D01*
X115606939Y-86349530D01*
X115638832Y-86373863D01*
X115668505Y-86394239D01*
X115692534Y-86408364D01*
X115707496Y-86413944D01*
X115710181Y-86413263D01*
X115713174Y-86399701D01*
X115710361Y-86374935D01*
X115708157Y-86365142D01*
X115699968Y-86331839D01*
X115692291Y-86299577D01*
X115690829Y-86293240D01*
X115675763Y-86242381D01*
X115653228Y-86185319D01*
X115625464Y-86126313D01*
X115594712Y-86069619D01*
X115582556Y-86050275D01*
X115802341Y-86050275D01*
X115803082Y-86053634D01*
X115811973Y-86064347D01*
X115826739Y-86062424D01*
X115848845Y-86047139D01*
X115879756Y-86017766D01*
X115883707Y-86013695D01*
X115911807Y-85984431D01*
X115938595Y-85956304D01*
X115958637Y-85935020D01*
X115959899Y-85933662D01*
X115992912Y-85903732D01*
X116035755Y-85872660D01*
X116081169Y-85845499D01*
X116099870Y-85836194D01*
X116162423Y-85816931D01*
X116226732Y-85815674D01*
X116254520Y-85820676D01*
X116296356Y-85832890D01*
X116333749Y-85849428D01*
X116370729Y-85872808D01*
X116411331Y-85905548D01*
X116455330Y-85946084D01*
X116484838Y-85973703D01*
X116511814Y-85997856D01*
X116531918Y-86014696D01*
X116537148Y-86018582D01*
X116554763Y-86032072D01*
X116564020Y-86041335D01*
X116576500Y-86046630D01*
X116586747Y-86046051D01*
X116598465Y-86038740D01*
X116601717Y-86022329D01*
X116596176Y-85995308D01*
X116581511Y-85956164D01*
X116557394Y-85903388D01*
X116554272Y-85896937D01*
X116536091Y-85858762D01*
X116521316Y-85826279D01*
X116511555Y-85803125D01*
X116508385Y-85793212D01*
X116504567Y-85777790D01*
X116500355Y-85768117D01*
X116479909Y-85722229D01*
X116459165Y-85663931D01*
X116437570Y-85591476D01*
X116414571Y-85503120D01*
X116408841Y-85479604D01*
X116397405Y-85432299D01*
X116386713Y-85388350D01*
X116377889Y-85352361D01*
X116372058Y-85328941D01*
X116371648Y-85327331D01*
X116363146Y-85293551D01*
X116354797Y-85259624D01*
X116354682Y-85259149D01*
X116336459Y-85188387D01*
X116319367Y-85132715D01*
X116302221Y-85089190D01*
X116283835Y-85054869D01*
X116263023Y-85026809D01*
X116259463Y-85022785D01*
X116231875Y-85000205D01*
X116205847Y-84995469D01*
X116181076Y-85008676D01*
X116157259Y-85039919D01*
X116147494Y-85058390D01*
X116121450Y-85113740D01*
X116102945Y-85156535D01*
X116092480Y-85185564D01*
X116090203Y-85197259D01*
X116086977Y-85215957D01*
X116081949Y-85231449D01*
X116072213Y-85259950D01*
X116059770Y-85302197D01*
X116045713Y-85354154D01*
X116031133Y-85411786D01*
X116017247Y-85470513D01*
X115992382Y-85569803D01*
X115964383Y-85660365D01*
X115930680Y-85749606D01*
X115888700Y-85844931D01*
X115883104Y-85856876D01*
X115854430Y-85918131D01*
X115832938Y-85965082D01*
X115817805Y-85999751D01*
X115808209Y-86024158D01*
X115803329Y-86040326D01*
X115802341Y-86050275D01*
X115582556Y-86050275D01*
X115563213Y-86019496D01*
X115533206Y-85980199D01*
G37*
G36*
X116532549Y-79749129D02*
G01*
X116618978Y-79750321D01*
X116696661Y-79752173D01*
X116763166Y-79754702D01*
X116816063Y-79757927D01*
X116849283Y-79761335D01*
X116936935Y-79773943D01*
X117013791Y-79786102D01*
X117087150Y-79799094D01*
X117164314Y-79814204D01*
X117240204Y-79830066D01*
X117267341Y-79836441D01*
X117304197Y-79845841D01*
X117343009Y-79856283D01*
X117344749Y-79856766D01*
X117386434Y-79868281D01*
X117429305Y-79880021D01*
X117462931Y-79889134D01*
X117494107Y-79898105D01*
X117520326Y-79906683D01*
X117531113Y-79910904D01*
X117551644Y-79918803D01*
X117579399Y-79927777D01*
X117585658Y-79929604D01*
X117613594Y-79938145D01*
X117636678Y-79946165D01*
X117640203Y-79947573D01*
X117660359Y-79955611D01*
X117687677Y-79966054D01*
X117694749Y-79968696D01*
X117734583Y-79984795D01*
X117786377Y-80007628D01*
X117846118Y-80035247D01*
X117909792Y-80065701D01*
X117973385Y-80097042D01*
X118032883Y-80127321D01*
X118084274Y-80154587D01*
X118123543Y-80176891D01*
X118124130Y-80177245D01*
X118153105Y-80194002D01*
X118176459Y-80206189D01*
X118189515Y-80211381D01*
X118190039Y-80211422D01*
X118199004Y-80217796D01*
X118199294Y-80219900D01*
X118206796Y-80229139D01*
X118217422Y-80234132D01*
X118238247Y-80244369D01*
X118246968Y-80251154D01*
X118259729Y-80261455D01*
X118283032Y-80278394D01*
X118312234Y-80298610D01*
X118317476Y-80302148D01*
X118346000Y-80321638D01*
X118368267Y-80337438D01*
X118380260Y-80346682D01*
X118381113Y-80347541D01*
X118390882Y-80355832D01*
X118409852Y-80369750D01*
X118417476Y-80375058D01*
X118438246Y-80389843D01*
X118451867Y-80400501D01*
X118453840Y-80402420D01*
X118463988Y-80411080D01*
X118481113Y-80423477D01*
X118515389Y-80449808D01*
X118558920Y-80487703D01*
X118609337Y-80534743D01*
X118664274Y-80588506D01*
X118721365Y-80646572D01*
X118778244Y-80706523D01*
X118832543Y-80765937D01*
X118881896Y-80822394D01*
X118923936Y-80873475D01*
X118934769Y-80887391D01*
X118958344Y-80917796D01*
X118978744Y-80943455D01*
X118992734Y-80960320D01*
X118995860Y-80963748D01*
X119008224Y-80982057D01*
X119012948Y-80993294D01*
X119020641Y-81007943D01*
X119026077Y-81011422D01*
X119034249Y-81018919D01*
X119044087Y-81037125D01*
X119044749Y-81038695D01*
X119054536Y-81057428D01*
X119062978Y-81065922D01*
X119063421Y-81065967D01*
X119071756Y-81073449D01*
X119076550Y-81084095D01*
X119086655Y-81104912D01*
X119093303Y-81113641D01*
X119108973Y-81134149D01*
X119130700Y-81168591D01*
X119157128Y-81214298D01*
X119186899Y-81268602D01*
X119218655Y-81328835D01*
X119251039Y-81392330D01*
X119282694Y-81456419D01*
X119312263Y-81518432D01*
X119338387Y-81575704D01*
X119359711Y-81625564D01*
X119374876Y-81665347D01*
X119376612Y-81670513D01*
X119387802Y-81702915D01*
X119399035Y-81732816D01*
X119403320Y-81743240D01*
X119413344Y-81769580D01*
X119423919Y-81801937D01*
X119426700Y-81811422D01*
X119437414Y-81847656D01*
X119449314Y-81885699D01*
X119451774Y-81893240D01*
X119461860Y-81926172D01*
X119470490Y-81958202D01*
X119472312Y-81965967D01*
X119478789Y-81993487D01*
X119487506Y-82028433D01*
X119492515Y-82047786D01*
X119502171Y-82086744D01*
X119512168Y-82130514D01*
X119516799Y-82152331D01*
X119524317Y-82188036D01*
X119531797Y-82221726D01*
X119535807Y-82238695D01*
X119540988Y-82263817D01*
X119547063Y-82299391D01*
X119552736Y-82337819D01*
X119552854Y-82338695D01*
X119558625Y-82381637D01*
X119565476Y-82432621D01*
X119572067Y-82481670D01*
X119573011Y-82488695D01*
X119576704Y-82527560D01*
X119579627Y-82581195D01*
X119581779Y-82646201D01*
X119583161Y-82719181D01*
X119583774Y-82796739D01*
X119583617Y-82875477D01*
X119582691Y-82951999D01*
X119580996Y-83022907D01*
X119578532Y-83084805D01*
X119575300Y-83134295D01*
X119572960Y-83156876D01*
X119557546Y-83269692D01*
X119541336Y-83374003D01*
X119524792Y-83467154D01*
X119508371Y-83546492D01*
X119498164Y-83588695D01*
X119489616Y-83621618D01*
X119481293Y-83653776D01*
X119480492Y-83656876D01*
X119473328Y-83682701D01*
X119463058Y-83717462D01*
X119453966Y-83747025D01*
X119445351Y-83777047D01*
X119440390Y-83799627D01*
X119440153Y-83809857D01*
X119448258Y-83807028D01*
X119461722Y-83794176D01*
X119476110Y-83776599D01*
X119486991Y-83759593D01*
X119490192Y-83750058D01*
X119495568Y-83739492D01*
X119498682Y-83738695D01*
X119507921Y-83731193D01*
X119512914Y-83720567D01*
X119522905Y-83699756D01*
X119529435Y-83691021D01*
X119541727Y-83675784D01*
X119559398Y-83651245D01*
X119579797Y-83621426D01*
X119600273Y-83590350D01*
X119618176Y-83562040D01*
X119630855Y-83540519D01*
X119635658Y-83529816D01*
X119640818Y-83520608D01*
X119642476Y-83520268D01*
X119650875Y-83513056D01*
X119664369Y-83495058D01*
X119671576Y-83483905D01*
X119685860Y-83462545D01*
X119696662Y-83449584D01*
X119699537Y-83447785D01*
X119713163Y-83455535D01*
X119731826Y-83476414D01*
X119753334Y-83506872D01*
X119775494Y-83543357D01*
X119796115Y-83582316D01*
X119813002Y-83620198D01*
X119822028Y-83646210D01*
X119832339Y-83681850D01*
X119842397Y-83716516D01*
X119847085Y-83732628D01*
X119851274Y-83756202D01*
X119854588Y-83792443D01*
X119856623Y-83835845D01*
X119857069Y-83868992D01*
X119856870Y-83903475D01*
X119855909Y-83931620D01*
X119853438Y-83956887D01*
X119848710Y-83982737D01*
X119840977Y-84012627D01*
X119829490Y-84050018D01*
X119813502Y-84098369D01*
X119796792Y-84147786D01*
X119761414Y-84252052D01*
X119731460Y-84340130D01*
X119706568Y-84413070D01*
X119686379Y-84471919D01*
X119670529Y-84517727D01*
X119658658Y-84551543D01*
X119650404Y-84574415D01*
X119645406Y-84587393D01*
X119644852Y-84588695D01*
X119637225Y-84609217D01*
X119628393Y-84636962D01*
X119626567Y-84643240D01*
X119617902Y-84671187D01*
X119609585Y-84694274D01*
X119608099Y-84697786D01*
X119601989Y-84713626D01*
X119591771Y-84742326D01*
X119578997Y-84779465D01*
X119568263Y-84811422D01*
X119551246Y-84861922D01*
X119531077Y-84920721D01*
X119510787Y-84979022D01*
X119499348Y-85011422D01*
X119482282Y-85059907D01*
X119461811Y-85118852D01*
X119440278Y-85181468D01*
X119420027Y-85240967D01*
X119416190Y-85252331D01*
X119395283Y-85314445D01*
X119379015Y-85361569D01*
X119365950Y-85395847D01*
X119354646Y-85419424D01*
X119343667Y-85434445D01*
X119331574Y-85443056D01*
X119316928Y-85447400D01*
X119298290Y-85449624D01*
X119282958Y-85450986D01*
X119239457Y-85455630D01*
X119190653Y-85461613D01*
X119158385Y-85466029D01*
X119085784Y-85476136D01*
X119009583Y-85485920D01*
X118937672Y-85494397D01*
X118892476Y-85499190D01*
X118858688Y-85501591D01*
X118840942Y-85498706D01*
X118837312Y-85488025D01*
X118845870Y-85467035D01*
X118854993Y-85450335D01*
X118882009Y-85400154D01*
X118912652Y-85339682D01*
X118945052Y-85272950D01*
X118977338Y-85203992D01*
X119007639Y-85136840D01*
X119034084Y-85075528D01*
X119054805Y-85024088D01*
X119062782Y-85002331D01*
X119077335Y-84961696D01*
X119090006Y-84929437D01*
X119097679Y-84911422D01*
X119107934Y-84885146D01*
X119122088Y-84845067D01*
X119138975Y-84794842D01*
X119157426Y-84738131D01*
X119176273Y-84678591D01*
X119194348Y-84619880D01*
X119210484Y-84565657D01*
X119223511Y-84519579D01*
X119227181Y-84505824D01*
X119244508Y-84432167D01*
X119254034Y-84372467D01*
X119255846Y-84324298D01*
X119250033Y-84285236D01*
X119236683Y-84252856D01*
X119236381Y-84252331D01*
X119217835Y-84221663D01*
X119198732Y-84192291D01*
X119182332Y-84169049D01*
X119172022Y-84156876D01*
X119163887Y-84147113D01*
X119150063Y-84128155D01*
X119144749Y-84120513D01*
X119129985Y-84099745D01*
X119119376Y-84086124D01*
X119117476Y-84084149D01*
X119109342Y-84074386D01*
X119095517Y-84055428D01*
X119090203Y-84047786D01*
X119075489Y-84027024D01*
X119064990Y-84013403D01*
X119063134Y-84011422D01*
X119044959Y-83991369D01*
X119024894Y-83963216D01*
X119007284Y-83933735D01*
X118996476Y-83909697D01*
X118995487Y-83906020D01*
X118995552Y-83881933D01*
X119002100Y-83845707D01*
X119013867Y-83801649D01*
X119029586Y-83754067D01*
X119047990Y-83707269D01*
X119063991Y-83672909D01*
X119071015Y-83650427D01*
X119072022Y-83640333D01*
X119075115Y-83622835D01*
X119078362Y-83617203D01*
X119084287Y-83604585D01*
X119093676Y-83575920D01*
X119106034Y-83532903D01*
X119120864Y-83477233D01*
X119131825Y-83434149D01*
X119140890Y-83398065D01*
X119149655Y-83363388D01*
X119154205Y-83345513D01*
X119162845Y-83311718D01*
X119171507Y-83277783D01*
X119171623Y-83277331D01*
X119181279Y-83236010D01*
X119190863Y-83187497D01*
X119200805Y-83129225D01*
X119211537Y-83058627D01*
X119223489Y-82973133D01*
X119226679Y-82949424D01*
X119230843Y-82905407D01*
X119233836Y-82847095D01*
X119235685Y-82778333D01*
X119236417Y-82702967D01*
X119236059Y-82624843D01*
X119234638Y-82547808D01*
X119232179Y-82475708D01*
X119228711Y-82412388D01*
X119224260Y-82361696D01*
X119222494Y-82347785D01*
X119211220Y-82270298D01*
X119201589Y-82208869D01*
X119193256Y-82161484D01*
X119185877Y-82126128D01*
X119182195Y-82111422D01*
X119175008Y-82084738D01*
X119165599Y-82049689D01*
X119159001Y-82025058D01*
X119149815Y-81991805D01*
X119141241Y-81962536D01*
X119136540Y-81947786D01*
X119129106Y-81924794D01*
X119119952Y-81894570D01*
X119116919Y-81884149D01*
X119096119Y-81822372D01*
X119066678Y-81749800D01*
X119030563Y-81670406D01*
X118989744Y-81588160D01*
X118946187Y-81507034D01*
X118901861Y-81431000D01*
X118860220Y-81366199D01*
X118843378Y-81342813D01*
X118829984Y-81326552D01*
X118824824Y-81322028D01*
X118817781Y-81311578D01*
X118817465Y-81308392D01*
X118811907Y-81295215D01*
X118798126Y-81275759D01*
X118793721Y-81270513D01*
X118771994Y-81244459D01*
X118749354Y-81215770D01*
X118746056Y-81211422D01*
X118730423Y-81190967D01*
X118719533Y-81177318D01*
X118717528Y-81175058D01*
X118709908Y-81166467D01*
X118693586Y-81147510D01*
X118671592Y-81121715D01*
X118662931Y-81111506D01*
X118568474Y-81008586D01*
X118458664Y-80904358D01*
X118435738Y-80884149D01*
X118405358Y-80857609D01*
X118379225Y-80834650D01*
X118361015Y-80818509D01*
X118355546Y-80813557D01*
X118340792Y-80801146D01*
X118318557Y-80783749D01*
X118309871Y-80777193D01*
X118286890Y-80759544D01*
X118268901Y-80744877D01*
X118264873Y-80741286D01*
X118249034Y-80729044D01*
X118226948Y-80714747D01*
X118226236Y-80714326D01*
X118208115Y-80701756D01*
X118199425Y-80692061D01*
X118199294Y-80691280D01*
X118192356Y-80684316D01*
X118190459Y-80684149D01*
X118180537Y-80679561D01*
X118159082Y-80667321D01*
X118129785Y-80649718D01*
X118096337Y-80629042D01*
X118062428Y-80607579D01*
X118031751Y-80587620D01*
X118007994Y-80571452D01*
X118003567Y-80568270D01*
X117987725Y-80558475D01*
X117959534Y-80542801D01*
X117921848Y-80522689D01*
X117877521Y-80499582D01*
X117829406Y-80474921D01*
X117780358Y-80450148D01*
X117733231Y-80426704D01*
X117690879Y-80406033D01*
X117656155Y-80389575D01*
X117631913Y-80378773D01*
X117621146Y-80375062D01*
X117606480Y-80371389D01*
X117585064Y-80362548D01*
X117584782Y-80362413D01*
X117527443Y-80336437D01*
X117472043Y-80315024D01*
X117435658Y-80302651D01*
X117403124Y-80291495D01*
X117375942Y-80281291D01*
X117360781Y-80274629D01*
X117338771Y-80267544D01*
X117323660Y-80265967D01*
X117304389Y-80263516D01*
X117295984Y-80259627D01*
X117283366Y-80253567D01*
X117255996Y-80244406D01*
X117216881Y-80232945D01*
X117169026Y-80219988D01*
X117115438Y-80206338D01*
X117059122Y-80192798D01*
X117003085Y-80180173D01*
X116981113Y-80175494D01*
X116945908Y-80167950D01*
X116906886Y-80159325D01*
X116894749Y-80156579D01*
X116830938Y-80144012D01*
X116751486Y-80131687D01*
X116658936Y-80119935D01*
X116555827Y-80109086D01*
X116473189Y-80101748D01*
X116412945Y-80098515D01*
X116338537Y-80097261D01*
X116253865Y-80097867D01*
X116162824Y-80100217D01*
X116069314Y-80104193D01*
X115977231Y-80109676D01*
X115890473Y-80116549D01*
X115849294Y-80120578D01*
X115805316Y-80125198D01*
X115759702Y-80129974D01*
X115722271Y-80133876D01*
X115722022Y-80133902D01*
X115681355Y-80139169D01*
X115627179Y-80147685D01*
X115563710Y-80158657D01*
X115495163Y-80171288D01*
X115425756Y-80184783D01*
X115359705Y-80198348D01*
X115301226Y-80211186D01*
X115260658Y-80220924D01*
X115196702Y-80237457D01*
X115150342Y-80250012D01*
X115126567Y-80256986D01*
X115106871Y-80262943D01*
X115075969Y-80272086D01*
X115040125Y-80282564D01*
X115035658Y-80283861D01*
X114996900Y-80295561D01*
X114959746Y-80307533D01*
X114931985Y-80317265D01*
X114931113Y-80317598D01*
X114901083Y-80328548D01*
X114864218Y-80341231D01*
X114843287Y-80348122D01*
X114804154Y-80361999D01*
X114761515Y-80378986D01*
X114740745Y-80388057D01*
X114713382Y-80400302D01*
X114693346Y-80408762D01*
X114685696Y-80411422D01*
X114674813Y-80415413D01*
X114651066Y-80426303D01*
X114617651Y-80442461D01*
X114577763Y-80462260D01*
X114534597Y-80484071D01*
X114491349Y-80506266D01*
X114451214Y-80527217D01*
X114417387Y-80545295D01*
X114393063Y-80558871D01*
X114381438Y-80566318D01*
X114381113Y-80566645D01*
X114371078Y-80573643D01*
X114350455Y-80585762D01*
X114335658Y-80593918D01*
X114309621Y-80608825D01*
X114289386Y-80621952D01*
X114283332Y-80626735D01*
X114265041Y-80638610D01*
X114253786Y-80643257D01*
X114239130Y-80651159D01*
X114235658Y-80656876D01*
X114228167Y-80665613D01*
X114217530Y-80670496D01*
X114196711Y-80680634D01*
X114187985Y-80687317D01*
X114173496Y-80699414D01*
X114151497Y-80715888D01*
X114144749Y-80720682D01*
X114128279Y-80732284D01*
X114114254Y-80742473D01*
X114099700Y-80753605D01*
X114081641Y-80768038D01*
X114057102Y-80788130D01*
X114023109Y-80816236D01*
X114000466Y-80835004D01*
X113951592Y-80876915D01*
X113900636Y-80923043D01*
X113850650Y-80970412D01*
X113804686Y-81016041D01*
X113765795Y-81056955D01*
X113737030Y-81090173D01*
X113731050Y-81097899D01*
X113712155Y-81122236D01*
X113695456Y-81142060D01*
X113690046Y-81147785D01*
X113674621Y-81165234D01*
X113652798Y-81193107D01*
X113626610Y-81228462D01*
X113598087Y-81268356D01*
X113569258Y-81309847D01*
X113542156Y-81349991D01*
X113518809Y-81385847D01*
X113501250Y-81414471D01*
X113491508Y-81432920D01*
X113490203Y-81437399D01*
X113484030Y-81448676D01*
X113482804Y-81449301D01*
X113475882Y-81458487D01*
X113462890Y-81481282D01*
X113445257Y-81514727D01*
X113424409Y-81555865D01*
X113401776Y-81601740D01*
X113378783Y-81649396D01*
X113356859Y-81695874D01*
X113337431Y-81738219D01*
X113321927Y-81773473D01*
X113311774Y-81798680D01*
X113308385Y-81810569D01*
X113305034Y-81823161D01*
X113296454Y-81846202D01*
X113289523Y-81862941D01*
X113267926Y-81921332D01*
X113247012Y-81993411D01*
X113233906Y-82047786D01*
X113225931Y-82082951D01*
X113217718Y-82118317D01*
X113216121Y-82125058D01*
X113205661Y-82172251D01*
X113195562Y-82225166D01*
X113185042Y-82288149D01*
X113175262Y-82352331D01*
X113168680Y-82411451D01*
X113163934Y-82484339D01*
X113161015Y-82566702D01*
X113159915Y-82654246D01*
X113160623Y-82742677D01*
X113163132Y-82827701D01*
X113167432Y-82905026D01*
X113173514Y-82970356D01*
X113176606Y-82993240D01*
X113186691Y-83059046D01*
X113194689Y-83110061D01*
X113201139Y-83149484D01*
X113206584Y-83180515D01*
X113211565Y-83206354D01*
X113216623Y-83230199D01*
X113216994Y-83231876D01*
X113224968Y-83268010D01*
X113233036Y-83304812D01*
X113234972Y-83313695D01*
X113243977Y-83351480D01*
X113255716Y-83395760D01*
X113268717Y-83441490D01*
X113281510Y-83483626D01*
X113292625Y-83517124D01*
X113299246Y-83534149D01*
X113306809Y-83553285D01*
X113316837Y-83581604D01*
X113322222Y-83597785D01*
X113333329Y-83630207D01*
X113344519Y-83660117D01*
X113348790Y-83670513D01*
X113358549Y-83693002D01*
X113372435Y-83724956D01*
X113386318Y-83756876D01*
X113405736Y-83814102D01*
X113409811Y-83863981D01*
X113398105Y-83909576D01*
X113370180Y-83953951D01*
X113355799Y-83970513D01*
X113333052Y-83997176D01*
X113310831Y-84026324D01*
X113308532Y-84029604D01*
X113293633Y-84050358D01*
X113282840Y-84063981D01*
X113280868Y-84065967D01*
X113270358Y-84078343D01*
X113253450Y-84102394D01*
X113232760Y-84134006D01*
X113210907Y-84169067D01*
X113190506Y-84203461D01*
X113174175Y-84233075D01*
X113172480Y-84236373D01*
X113153942Y-84283032D01*
X113144874Y-84328897D01*
X113145905Y-84368963D01*
X113153081Y-84391091D01*
X113159091Y-84405973D01*
X113168853Y-84433929D01*
X113180895Y-84470620D01*
X113190866Y-84502331D01*
X113204251Y-84545660D01*
X113216885Y-84586468D01*
X113227055Y-84619223D01*
X113231711Y-84634149D01*
X113244123Y-84670471D01*
X113261090Y-84715869D01*
X113279730Y-84762827D01*
X113294484Y-84797786D01*
X113302356Y-84816650D01*
X113315083Y-84848157D01*
X113330940Y-84888000D01*
X113348204Y-84931871D01*
X113349095Y-84934149D01*
X113366497Y-84978393D01*
X113382691Y-85019102D01*
X113395912Y-85051866D01*
X113404392Y-85072273D01*
X113404615Y-85072785D01*
X113431475Y-85135024D01*
X113454760Y-85190019D01*
X113457052Y-85195513D01*
X113470601Y-85228034D01*
X113488131Y-85270086D01*
X113506619Y-85314420D01*
X113523043Y-85353786D01*
X113524333Y-85356876D01*
X113536061Y-85383722D01*
X113551408Y-85417288D01*
X113560377Y-85436314D01*
X113574436Y-85468445D01*
X113578837Y-85489836D01*
X113571684Y-85502551D01*
X113551083Y-85508654D01*
X113515137Y-85510212D01*
X113492762Y-85509967D01*
X113452032Y-85508945D01*
X113414385Y-85507515D01*
X113386423Y-85505941D01*
X113381113Y-85505500D01*
X113349339Y-85501303D01*
X113312561Y-85494732D01*
X113276942Y-85487078D01*
X113248647Y-85479637D01*
X113236112Y-85475060D01*
X113217955Y-85466396D01*
X113194749Y-85455664D01*
X113157059Y-85431391D01*
X113117442Y-85393584D01*
X113079266Y-85346103D01*
X113045899Y-85292808D01*
X113036210Y-85273969D01*
X113019996Y-85239377D01*
X113007409Y-85210302D01*
X113000261Y-85191044D01*
X112999294Y-85186461D01*
X112993569Y-85175873D01*
X112990203Y-85175058D01*
X112981778Y-85167867D01*
X112981113Y-85163559D01*
X112977347Y-85149915D01*
X112967508Y-85125519D01*
X112954673Y-85097650D01*
X112935532Y-85057730D01*
X112916416Y-85016960D01*
X112898918Y-84978844D01*
X112884629Y-84946888D01*
X112875142Y-84924598D01*
X112872022Y-84915641D01*
X112871073Y-84911572D01*
X112867511Y-84902238D01*
X112860260Y-84885135D01*
X112848245Y-84857757D01*
X112830391Y-84817599D01*
X112818545Y-84791066D01*
X112807544Y-84764769D01*
X112800576Y-84744888D01*
X112799294Y-84738695D01*
X112795830Y-84725350D01*
X112787078Y-84702413D01*
X112782108Y-84690868D01*
X112764336Y-84648993D01*
X112744104Y-84598224D01*
X112724285Y-84546027D01*
X112707754Y-84499868D01*
X112702506Y-84484149D01*
X112692739Y-84455322D01*
X112683823Y-84431255D01*
X112681256Y-84425058D01*
X112673082Y-84403790D01*
X112664151Y-84376857D01*
X112663603Y-84375058D01*
X112654859Y-84346833D01*
X112643911Y-84312377D01*
X112639196Y-84297786D01*
X112603687Y-84177530D01*
X112579446Y-84069139D01*
X112566073Y-83970529D01*
X112562931Y-83898844D01*
X112563702Y-83844621D01*
X112566844Y-83800799D01*
X112573596Y-83761991D01*
X112585200Y-83722813D01*
X112602897Y-83677879D01*
X112625580Y-83626923D01*
X112639273Y-83595883D01*
X112649312Y-83571009D01*
X112653771Y-83557114D01*
X112653840Y-83556345D01*
X112657780Y-83541520D01*
X112662267Y-83531753D01*
X112672246Y-83509562D01*
X112675618Y-83500058D01*
X112687049Y-83486271D01*
X112706433Y-83486377D01*
X112730874Y-83499679D01*
X112751102Y-83518240D01*
X112771763Y-83543236D01*
X112799088Y-83580077D01*
X112830498Y-83624950D01*
X112863412Y-83674044D01*
X112895248Y-83723548D01*
X112923427Y-83769650D01*
X112935658Y-83790802D01*
X112954451Y-83822460D01*
X112967975Y-83840951D01*
X112976264Y-83845646D01*
X112979354Y-83835918D01*
X112977280Y-83811138D01*
X112970075Y-83770678D01*
X112957775Y-83713908D01*
X112943333Y-83652331D01*
X112934687Y-83612555D01*
X112924500Y-83559815D01*
X112913662Y-83499167D01*
X112903060Y-83435664D01*
X112893585Y-83374362D01*
X112889778Y-83347785D01*
X112870291Y-83191256D01*
X112857134Y-83045897D01*
X112849959Y-82905969D01*
X112848419Y-82765729D01*
X112849785Y-82688695D01*
X112851733Y-82628834D01*
X112854222Y-82571382D01*
X112857033Y-82520260D01*
X112859953Y-82479392D01*
X112862763Y-82452700D01*
X112862817Y-82452331D01*
X112867679Y-82417607D01*
X112873504Y-82372821D01*
X112879262Y-82325984D01*
X112880974Y-82311422D01*
X112886405Y-82267287D01*
X112892247Y-82224127D01*
X112897508Y-82189144D01*
X112899129Y-82179604D01*
X112907553Y-82134227D01*
X112917211Y-82084810D01*
X112927265Y-82035368D01*
X112936874Y-81989917D01*
X112945199Y-81952469D01*
X112951400Y-81927042D01*
X112953300Y-81920513D01*
X112960412Y-81897471D01*
X112969147Y-81867190D01*
X112972004Y-81856876D01*
X112980319Y-81827872D01*
X112987887Y-81803746D01*
X112989980Y-81797785D01*
X112996987Y-81777351D01*
X113005760Y-81749707D01*
X113007727Y-81743240D01*
X113016701Y-81715362D01*
X113025079Y-81692293D01*
X113026571Y-81688695D01*
X113033427Y-81670882D01*
X113043582Y-81642212D01*
X113053993Y-81611422D01*
X113064894Y-81579230D01*
X113075288Y-81550931D01*
X113087238Y-81521434D01*
X113102804Y-81485647D01*
X113123952Y-81438695D01*
X113138133Y-81407374D01*
X113150704Y-81379467D01*
X113156738Y-81365967D01*
X113169592Y-81341122D01*
X113183058Y-81319109D01*
X113194580Y-81297901D01*
X113199294Y-81281231D01*
X113203130Y-81267171D01*
X113206113Y-81264452D01*
X113213983Y-81255170D01*
X113227211Y-81234245D01*
X113243098Y-81206331D01*
X113258946Y-81176085D01*
X113267098Y-81159220D01*
X113276754Y-81143633D01*
X113283385Y-81138766D01*
X113289924Y-81131614D01*
X113290204Y-81128817D01*
X113295058Y-81117846D01*
X113307846Y-81096124D01*
X113325901Y-81067674D01*
X113346561Y-81036519D01*
X113367159Y-81006682D01*
X113385031Y-80982186D01*
X113396995Y-80967591D01*
X113406742Y-80954279D01*
X113408385Y-80949316D01*
X113413872Y-80938907D01*
X113427241Y-80921929D01*
X113428840Y-80920117D01*
X113446385Y-80899466D01*
X113468508Y-80872165D01*
X113480758Y-80856573D01*
X113533667Y-80792771D01*
X113598104Y-80722324D01*
X113670513Y-80648734D01*
X113747333Y-80575502D01*
X113825008Y-80506131D01*
X113899294Y-80444662D01*
X113915322Y-80432687D01*
X113938255Y-80416278D01*
X113944749Y-80411730D01*
X113965466Y-80396874D01*
X113979092Y-80386310D01*
X113981113Y-80384429D01*
X113991561Y-80376230D01*
X114014070Y-80360556D01*
X114045298Y-80339587D01*
X114081900Y-80315504D01*
X114120530Y-80290488D01*
X114157846Y-80266719D01*
X114190502Y-80246377D01*
X114215156Y-80231642D01*
X114217476Y-80230321D01*
X114245410Y-80215068D01*
X114282387Y-80195616D01*
X114325426Y-80173452D01*
X114371548Y-80150063D01*
X114417770Y-80126936D01*
X114461112Y-80105559D01*
X114498594Y-80087417D01*
X114527233Y-80073998D01*
X114544049Y-80066789D01*
X114546962Y-80065967D01*
X114559220Y-80062296D01*
X114581176Y-80053025D01*
X114592350Y-80047785D01*
X114616454Y-80036869D01*
X114633691Y-80030382D01*
X114637465Y-80029604D01*
X114649597Y-80026089D01*
X114671667Y-80017198D01*
X114683484Y-80011938D01*
X114710874Y-80000643D01*
X114750519Y-79985860D01*
X114797404Y-79969293D01*
X114846513Y-79952648D01*
X114892832Y-79937631D01*
X114931344Y-79925947D01*
X114953840Y-79919991D01*
X114975344Y-79914734D01*
X115009461Y-79905976D01*
X115051266Y-79894995D01*
X115090203Y-79884589D01*
X115163072Y-79865752D01*
X115233334Y-79849460D01*
X115308106Y-79834151D01*
X115385658Y-79819832D01*
X115418141Y-79813906D01*
X115445502Y-79808647D01*
X115458385Y-79805952D01*
X115475815Y-79802910D01*
X115505506Y-79798646D01*
X115541654Y-79793983D01*
X115549294Y-79793057D01*
X115590741Y-79787818D01*
X115642046Y-79780932D01*
X115695093Y-79773503D01*
X115722022Y-79769591D01*
X115762210Y-79765163D01*
X115817963Y-79761216D01*
X115886847Y-79757769D01*
X115966434Y-79754840D01*
X116054291Y-79752446D01*
X116147987Y-79750605D01*
X116245092Y-79749335D01*
X116343175Y-79748654D01*
X116439804Y-79748579D01*
X116532549Y-79749129D01*
G37*
G36*
X119040564Y-85730188D02*
G01*
X119038186Y-85740691D01*
X119028178Y-85762193D01*
X119012924Y-85790519D01*
X118994812Y-85821494D01*
X118976228Y-85850943D01*
X118959556Y-85874690D01*
X118954098Y-85881493D01*
X118945763Y-85894175D01*
X118944749Y-85897751D01*
X118939976Y-85907002D01*
X118927058Y-85927943D01*
X118908098Y-85957243D01*
X118890203Y-85984149D01*
X118867953Y-86017703D01*
X118850081Y-86045531D01*
X118838691Y-86064303D01*
X118835658Y-86070544D01*
X118830106Y-86080289D01*
X118817476Y-86095334D01*
X118804225Y-86113338D01*
X118799294Y-86126772D01*
X118794145Y-86137731D01*
X118790816Y-86138695D01*
X118781577Y-86146196D01*
X118776584Y-86156823D01*
X118766347Y-86177647D01*
X118759563Y-86186368D01*
X118749261Y-86199129D01*
X118732322Y-86222433D01*
X118712106Y-86251634D01*
X118708568Y-86256876D01*
X118689138Y-86285390D01*
X118673480Y-86307653D01*
X118664430Y-86319654D01*
X118663613Y-86320513D01*
X118656324Y-86329705D01*
X118641705Y-86349982D01*
X118622611Y-86377365D01*
X118617956Y-86384149D01*
X118598212Y-86412595D01*
X118582253Y-86434833D01*
X118572949Y-86446883D01*
X118572063Y-86447785D01*
X118563884Y-86457534D01*
X118549987Y-86476465D01*
X118544610Y-86484149D01*
X118527932Y-86507162D01*
X118513696Y-86524978D01*
X118510957Y-86527980D01*
X118501016Y-86541217D01*
X118499294Y-86546255D01*
X118493732Y-86556593D01*
X118480179Y-86573387D01*
X118478582Y-86575151D01*
X118459383Y-86598071D01*
X118438951Y-86625171D01*
X118435838Y-86629604D01*
X118421030Y-86650340D01*
X118410469Y-86663965D01*
X118408588Y-86665967D01*
X118400578Y-86675185D01*
X118385394Y-86694190D01*
X118372044Y-86711422D01*
X118351962Y-86736767D01*
X118334209Y-86757689D01*
X118326393Y-86765967D01*
X118312075Y-86782177D01*
X118294466Y-86805342D01*
X118290203Y-86811422D01*
X118272815Y-86835034D01*
X118257016Y-86853828D01*
X118254010Y-86856876D01*
X118241633Y-86869993D01*
X118221411Y-86892791D01*
X118197132Y-86920981D01*
X118189942Y-86929470D01*
X118163715Y-86960058D01*
X118138980Y-86988054D01*
X118120283Y-87008329D01*
X118117388Y-87011288D01*
X118099657Y-87030305D01*
X118075951Y-87057321D01*
X118053751Y-87083665D01*
X118030005Y-87110764D01*
X117995722Y-87147611D01*
X117953611Y-87191498D01*
X117906376Y-87239713D01*
X117856725Y-87289546D01*
X117807363Y-87338287D01*
X117760998Y-87383226D01*
X117720334Y-87421652D01*
X117688080Y-87450856D01*
X117681083Y-87456876D01*
X117653660Y-87480270D01*
X117631829Y-87499226D01*
X117619125Y-87510662D01*
X117617476Y-87512334D01*
X117607678Y-87520939D01*
X117592938Y-87527507D01*
X117570976Y-87532292D01*
X117539514Y-87535548D01*
X117496272Y-87537530D01*
X117438971Y-87538490D01*
X117381061Y-87538695D01*
X117316201Y-87538754D01*
X117266952Y-87539245D01*
X117230746Y-87540639D01*
X117205012Y-87543409D01*
X117187181Y-87548026D01*
X117174683Y-87554960D01*
X117164947Y-87564684D01*
X117155404Y-87577668D01*
X117153468Y-87580447D01*
X117139249Y-87599285D01*
X117117765Y-87626116D01*
X117093607Y-87655378D01*
X117071367Y-87681510D01*
X117055638Y-87698952D01*
X117055463Y-87699131D01*
X117050155Y-87701706D01*
X117038824Y-87703912D01*
X117020243Y-87705774D01*
X116993186Y-87707319D01*
X116956425Y-87708572D01*
X116908733Y-87709559D01*
X116848884Y-87710307D01*
X116775650Y-87710841D01*
X116687805Y-87711187D01*
X116584121Y-87711372D01*
X116475020Y-87711422D01*
X115906589Y-87711422D01*
X115880214Y-87683188D01*
X115863737Y-87662753D01*
X115854536Y-87645913D01*
X115853840Y-87642279D01*
X115849209Y-87630803D01*
X115845809Y-87629604D01*
X115836636Y-87622192D01*
X115832642Y-87613695D01*
X115825821Y-87599884D01*
X115811283Y-87574678D01*
X115791283Y-87541882D01*
X115772022Y-87511422D01*
X115749189Y-87475204D01*
X115729933Y-87443396D01*
X115716509Y-87419803D01*
X115711402Y-87409149D01*
X115703323Y-87395716D01*
X115698234Y-87393240D01*
X115690389Y-87386333D01*
X115690203Y-87384456D01*
X115685641Y-87373471D01*
X115673817Y-87351928D01*
X115657528Y-87324416D01*
X115639568Y-87295525D01*
X115622734Y-87269843D01*
X115609821Y-87251961D01*
X115608570Y-87250442D01*
X115600060Y-87231909D01*
X115599294Y-87225442D01*
X115600754Y-87222733D01*
X115605940Y-87220391D01*
X115616065Y-87218392D01*
X115632342Y-87216709D01*
X115655984Y-87215315D01*
X115688202Y-87214184D01*
X115730209Y-87213290D01*
X115783217Y-87212606D01*
X115848440Y-87212106D01*
X115927088Y-87211764D01*
X116020376Y-87211554D01*
X116129515Y-87211449D01*
X116245248Y-87211422D01*
X116891201Y-87211422D01*
X116942975Y-87245758D01*
X116975675Y-87267008D01*
X117004260Y-87283799D01*
X117031461Y-87296654D01*
X117060011Y-87306098D01*
X117092642Y-87312656D01*
X117132086Y-87316852D01*
X117181076Y-87319210D01*
X117242343Y-87320255D01*
X117318619Y-87320510D01*
X117332469Y-87320513D01*
X117403626Y-87320422D01*
X117458821Y-87320051D01*
X117500276Y-87319250D01*
X117530212Y-87317868D01*
X117550849Y-87315755D01*
X117564407Y-87312763D01*
X117573108Y-87308741D01*
X117578840Y-87303889D01*
X117608968Y-87270110D01*
X117637664Y-87234206D01*
X117644947Y-87224215D01*
X117663260Y-87200054D01*
X117690138Y-87166728D01*
X117721935Y-87128540D01*
X117755005Y-87089794D01*
X117785701Y-87054795D01*
X117810377Y-87027847D01*
X117817517Y-87020513D01*
X117828894Y-87008368D01*
X117849199Y-86985954D01*
X117875370Y-86956668D01*
X117899335Y-86929604D01*
X117929276Y-86895937D01*
X117957130Y-86865127D01*
X117979338Y-86841081D01*
X117990384Y-86829604D01*
X118007159Y-86811832D01*
X118030997Y-86785192D01*
X118057338Y-86754799D01*
X118063111Y-86748005D01*
X118087471Y-86719358D01*
X118108356Y-86695048D01*
X118122188Y-86679234D01*
X118124432Y-86676763D01*
X118136834Y-86661995D01*
X118154192Y-86639739D01*
X118160695Y-86631090D01*
X118179147Y-86607450D01*
X118195538Y-86588356D01*
X118199625Y-86584149D01*
X118213856Y-86567976D01*
X118231489Y-86544857D01*
X118235842Y-86538695D01*
X118254016Y-86513836D01*
X118271061Y-86492618D01*
X118274047Y-86489253D01*
X118286349Y-86471619D01*
X118290203Y-86459708D01*
X118294548Y-86448739D01*
X118297334Y-86447785D01*
X118306294Y-86440737D01*
X118318776Y-86423501D01*
X118320380Y-86420844D01*
X118334699Y-86398708D01*
X118347267Y-86382515D01*
X118347560Y-86382207D01*
X118358455Y-86368407D01*
X118374799Y-86345012D01*
X118387911Y-86325058D01*
X118405250Y-86298546D01*
X118419720Y-86277440D01*
X118426328Y-86268624D01*
X118434630Y-86256335D01*
X118435658Y-86253021D01*
X118440165Y-86243832D01*
X118451796Y-86223968D01*
X118467718Y-86197965D01*
X118485098Y-86170362D01*
X118501104Y-86145696D01*
X118512901Y-86128504D01*
X118515630Y-86124948D01*
X118521537Y-86116376D01*
X118531762Y-86099354D01*
X118547297Y-86072136D01*
X118569132Y-86032978D01*
X118598257Y-85980135D01*
X118609773Y-85959149D01*
X118627320Y-85927858D01*
X118643712Y-85899813D01*
X118653434Y-85884149D01*
X118666545Y-85862461D01*
X118682744Y-85833293D01*
X118690420Y-85818707D01*
X118702492Y-85796431D01*
X118713634Y-85782958D01*
X118729076Y-85775076D01*
X118754050Y-85769578D01*
X118776304Y-85766006D01*
X118816582Y-85759440D01*
X118856953Y-85752422D01*
X118884079Y-85747358D01*
X118917543Y-85742032D01*
X118949312Y-85738978D01*
X118958487Y-85738695D01*
X118987615Y-85735992D01*
X119012017Y-85729951D01*
X119033090Y-85725926D01*
X119040564Y-85730188D01*
G37*
%TO.C,D8*%
X144335000Y-77155000D02*
X141245000Y-77155000D01*
X142789538Y-82705000D02*
G75*
G03*
X144334830Y-77155000I462J2990000D01*
G01*
X141245170Y-77155000D02*
G75*
G03*
X142790462Y-82705000I1544830J-2560000D01*
G01*
X145290000Y-79715000D02*
G75*
G03*
X145290000Y-79715000I-2500000J0D01*
G01*
%TO.C,kibuzzard-61F95211*%
G36*
X125651819Y-83845894D02*
G01*
X125679600Y-83914156D01*
X125649041Y-83993928D01*
X125557363Y-84020519D01*
X125455763Y-83984006D01*
X125440681Y-83949081D01*
X125436713Y-83903044D01*
X125469256Y-83843513D01*
X125562919Y-83814144D01*
X125651819Y-83845894D01*
G37*
G36*
X126161566Y-82950370D02*
G01*
X126232737Y-82960927D01*
X126302529Y-82978409D01*
X126370273Y-83002648D01*
X126435314Y-83033410D01*
X126497026Y-83070399D01*
X126554816Y-83113259D01*
X126608127Y-83161577D01*
X126656445Y-83214888D01*
X126699305Y-83272678D01*
X126736294Y-83334391D01*
X126767056Y-83399432D01*
X126791295Y-83467175D01*
X126808777Y-83536967D01*
X126819334Y-83608138D01*
X126822865Y-83680000D01*
X126819334Y-83751862D01*
X126808777Y-83823033D01*
X126791295Y-83892825D01*
X126767056Y-83960568D01*
X126736294Y-84025609D01*
X126699305Y-84087322D01*
X126656445Y-84145112D01*
X126608127Y-84198423D01*
X126554816Y-84246741D01*
X126497026Y-84289601D01*
X126435314Y-84326590D01*
X126370273Y-84357352D01*
X126302529Y-84381591D01*
X126232737Y-84399073D01*
X126161566Y-84409630D01*
X126089704Y-84413160D01*
X124050296Y-84413160D01*
X123978434Y-84409630D01*
X123907263Y-84399073D01*
X123837471Y-84381591D01*
X123769727Y-84357352D01*
X123704686Y-84326590D01*
X123642974Y-84289601D01*
X123585184Y-84246741D01*
X123531873Y-84198423D01*
X123483555Y-84145112D01*
X123440695Y-84087322D01*
X123403706Y-84025609D01*
X123372944Y-83960568D01*
X123356337Y-83914156D01*
X124182587Y-83914156D01*
X124200050Y-83999881D01*
X124203225Y-84015756D01*
X124220687Y-84057031D01*
X124259978Y-84120134D01*
X124304825Y-84169744D01*
X124396547Y-84231480D01*
X124502381Y-84268522D01*
X124622325Y-84280869D01*
X124743151Y-84268610D01*
X124849514Y-84231833D01*
X124941412Y-84170538D01*
X125011968Y-84090369D01*
X125054301Y-83996971D01*
X125068412Y-83890344D01*
X125055316Y-83809381D01*
X125053570Y-83806206D01*
X125147788Y-83806206D01*
X125159429Y-83937351D01*
X125194354Y-84051387D01*
X125252563Y-84148313D01*
X125333701Y-84221955D01*
X125437418Y-84266140D01*
X125563713Y-84280869D01*
X125667341Y-84268874D01*
X125760210Y-84232891D01*
X125842319Y-84172919D01*
X125906260Y-84095131D01*
X125944624Y-84005702D01*
X125957413Y-83904631D01*
X125944977Y-83820758D01*
X125907671Y-83742706D01*
X125845494Y-83670475D01*
X125765854Y-83612708D01*
X125676160Y-83578047D01*
X125576413Y-83566494D01*
X125458938Y-83593481D01*
X125466875Y-83571256D01*
X125496244Y-83515694D01*
X125552600Y-83453781D01*
X125648644Y-83399806D01*
X125774850Y-83377581D01*
X125866925Y-83368056D01*
X125898675Y-83347419D01*
X125917725Y-83306144D01*
X125925663Y-83233119D01*
X125916138Y-83156919D01*
X125878831Y-83111675D01*
X125790725Y-83096594D01*
X125676393Y-83104722D01*
X125572158Y-83129106D01*
X125478019Y-83169746D01*
X125393977Y-83226642D01*
X125320031Y-83299794D01*
X125258024Y-83385074D01*
X125209795Y-83478356D01*
X125175347Y-83579638D01*
X125154677Y-83688922D01*
X125147788Y-83806206D01*
X125053570Y-83806206D01*
X125016025Y-83737944D01*
X124966019Y-83686350D01*
X124919187Y-83652219D01*
X124919187Y-83641106D01*
X124987979Y-83591276D01*
X125029254Y-83524337D01*
X125043012Y-83440287D01*
X125030489Y-83350770D01*
X124992918Y-83267426D01*
X124930300Y-83190256D01*
X124845986Y-83128520D01*
X124743328Y-83091478D01*
X124622325Y-83079131D01*
X124543545Y-83084687D01*
X124472306Y-83101356D01*
X124367531Y-83150569D01*
X124301650Y-83213275D01*
X124266725Y-83263281D01*
X124230212Y-83371231D01*
X124250056Y-83427984D01*
X124309587Y-83477594D01*
X124396900Y-83506169D01*
X124457225Y-83486325D01*
X124501675Y-83426794D01*
X124511200Y-83407744D01*
X124552475Y-83369644D01*
X124642169Y-83350594D01*
X124730275Y-83380756D01*
X124762025Y-83444256D01*
X124731862Y-83490691D01*
X124641375Y-83506169D01*
X124558825Y-83514106D01*
X124514772Y-83557366D01*
X124500087Y-83645869D01*
X124510803Y-83727228D01*
X124542950Y-83768106D01*
X124584225Y-83783981D01*
X124656456Y-83787156D01*
X124748531Y-83819700D01*
X124787425Y-83895106D01*
X124747737Y-83972100D01*
X124696937Y-83997698D01*
X124623912Y-84006231D01*
X124557237Y-83996706D01*
X124469925Y-83920506D01*
X124422300Y-83837956D01*
X124338162Y-83822081D01*
X124221481Y-83845100D01*
X124182587Y-83914156D01*
X123356337Y-83914156D01*
X123348705Y-83892825D01*
X123331223Y-83823033D01*
X123320666Y-83751862D01*
X123317135Y-83680000D01*
X123320666Y-83608138D01*
X123331223Y-83536967D01*
X123348705Y-83467175D01*
X123372944Y-83399432D01*
X123403706Y-83334391D01*
X123440695Y-83272678D01*
X123483555Y-83214888D01*
X123531873Y-83161577D01*
X123585184Y-83113259D01*
X123642974Y-83070399D01*
X123704686Y-83033410D01*
X123769727Y-83002648D01*
X123837471Y-82978409D01*
X123907263Y-82960927D01*
X123978434Y-82950370D01*
X124050296Y-82946840D01*
X126089704Y-82946840D01*
X126161566Y-82950370D01*
G37*
%TD*%
M02*
