%TF.GenerationSoftware,KiCad,Pcbnew,6.0.1-79c1e3a40b~116~ubuntu20.04.1*%
%TF.CreationDate,2022-02-17T01:53:58+05:30*%
%TF.ProjectId,lsa,6c73612e-6b69-4636-9164-5f7063625858,rev?*%
%TF.SameCoordinates,Original*%
%TF.FileFunction,Soldermask,Bot*%
%TF.FilePolarity,Negative*%
%FSLAX46Y46*%
G04 Gerber Fmt 4.6, Leading zero omitted, Abs format (unit mm)*
G04 Created by KiCad (PCBNEW 6.0.1-79c1e3a40b~116~ubuntu20.04.1) date 2022-02-17 01:53:58*
%MOMM*%
%LPD*%
G01*
G04 APERTURE LIST*
G04 Aperture macros list*
%AMRoundRect*
0 Rectangle with rounded corners*
0 $1 Rounding radius*
0 $2 $3 $4 $5 $6 $7 $8 $9 X,Y pos of 4 corners*
0 Add a 4 corners polygon primitive as box body*
4,1,4,$2,$3,$4,$5,$6,$7,$8,$9,$2,$3,0*
0 Add four circle primitives for the rounded corners*
1,1,$1+$1,$2,$3*
1,1,$1+$1,$4,$5*
1,1,$1+$1,$6,$7*
1,1,$1+$1,$8,$9*
0 Add four rect primitives between the rounded corners*
20,1,$1+$1,$2,$3,$4,$5,0*
20,1,$1+$1,$4,$5,$6,$7,0*
20,1,$1+$1,$6,$7,$8,$9,0*
20,1,$1+$1,$8,$9,$2,$3,0*%
G04 Aperture macros list end*
%ADD10C,3.200000*%
%ADD11R,1.700000X1.700000*%
%ADD12O,1.700000X1.700000*%
%ADD13R,1.800000X1.800000*%
%ADD14C,1.800000*%
%ADD15RoundRect,0.250000X0.625000X-0.400000X0.625000X0.400000X-0.625000X0.400000X-0.625000X-0.400000X0*%
%ADD16RoundRect,0.150000X0.825000X0.150000X-0.825000X0.150000X-0.825000X-0.150000X0.825000X-0.150000X0*%
%ADD17C,1.500000*%
G04 APERTURE END LIST*
D10*
%TO.C,REF\u002A\u002A*%
X133900000Y-88220000D03*
%TD*%
%TO.C,REF\u002A\u002A*%
X98460000Y-88220000D03*
%TD*%
D11*
%TO.C,J1*%
X109845000Y-73585000D03*
D12*
X112385000Y-73585000D03*
X114925000Y-73585000D03*
X117465000Y-73585000D03*
X120005000Y-73585000D03*
X122545000Y-73585000D03*
%TD*%
D13*
%TO.C,D3*%
X126325000Y-88220000D03*
D14*
X123785000Y-88220000D03*
%TD*%
D10*
%TO.C,REF\u002A\u002A*%
X144540000Y-71910000D03*
%TD*%
D14*
%TO.C,D1*%
X88285000Y-88220000D03*
D13*
X90825000Y-88220000D03*
%TD*%
%TO.C,D5*%
X89540000Y-78445000D03*
D14*
X89540000Y-80985000D03*
%TD*%
D13*
%TO.C,D7*%
X125040000Y-78445000D03*
D14*
X125040000Y-80985000D03*
%TD*%
%TO.C,D2*%
X106035000Y-88220000D03*
D13*
X108575000Y-88220000D03*
%TD*%
D10*
%TO.C,REF\u002A\u002A*%
X87810000Y-71910000D03*
%TD*%
D14*
%TO.C,D4*%
X141535000Y-88220000D03*
D13*
X144075000Y-88220000D03*
%TD*%
%TO.C,D6*%
X107290000Y-78445000D03*
D14*
X107290000Y-80985000D03*
%TD*%
D13*
%TO.C,D8*%
X142790000Y-78445000D03*
D14*
X142790000Y-80985000D03*
%TD*%
D15*
%TO.C,R4*%
X138380000Y-89760000D03*
X138380000Y-86660000D03*
%TD*%
%TO.C,R3*%
X129450000Y-89760000D03*
X129450000Y-86660000D03*
%TD*%
%TO.C,R5*%
X93890000Y-81230000D03*
X93890000Y-78130000D03*
%TD*%
D16*
%TO.C,U1*%
X113700000Y-80270000D03*
X113700000Y-81540000D03*
X113700000Y-82810000D03*
X113700000Y-84080000D03*
X113700000Y-85350000D03*
X113700000Y-86620000D03*
X113700000Y-87890000D03*
X118650000Y-87890000D03*
X118650000Y-86620000D03*
X118650000Y-85350000D03*
X118650000Y-84080000D03*
X118650000Y-82810000D03*
X118650000Y-81540000D03*
X118650000Y-80270000D03*
%TD*%
D17*
%TO.C,REF\u002A\u002A*%
X145440000Y-90610000D03*
%TD*%
D15*
%TO.C,R6*%
X102915713Y-78130000D03*
X102915713Y-81230000D03*
%TD*%
%TO.C,R8*%
X138360000Y-81250000D03*
X138360000Y-78150000D03*
%TD*%
%TO.C,R7*%
X129400000Y-78150000D03*
X129400000Y-81250000D03*
%TD*%
D17*
%TO.C,REF\u002A\u002A*%
X92550000Y-71850000D03*
%TD*%
D15*
%TO.C,R1*%
X93940000Y-86640000D03*
X93940000Y-89740000D03*
%TD*%
%TO.C,R2*%
X102920000Y-89750000D03*
X102920000Y-86650000D03*
%TD*%
M02*
