M48
; DRILL file {KiCad 6.0.1-79c1e3a40b~116~ubuntu20.04.1} date Tue Feb  1 23:37:16 2022
; FORMAT={-:-/ absolute / metric / decimal}
; #@! TF.CreationDate,2022-02-01T23:37:16+05:30
; #@! TF.GenerationSoftware,Kicad,Pcbnew,6.0.1-79c1e3a40b~116~ubuntu20.04.1
; #@! TF.FileFunction,MixedPlating,1,2
FMAT,2
METRIC
; #@! TA.AperFunction,Plated,PTH,ComponentDrill
T1C0.900
; #@! TA.AperFunction,Plated,PTH,ComponentDrill
T2C1.000
; #@! TA.AperFunction,NonPlated,NPTH,ComponentDrill
T3C3.200
%
G90
G05
T1
X88.285Y-88.22
X89.54Y-78.445
X89.54Y-80.985
X90.825Y-88.22
X106.035Y-88.22
X107.29Y-78.445
X107.29Y-80.985
X108.575Y-88.22
X123.785Y-88.22
X125.04Y-78.445
X125.04Y-80.985
X126.325Y-88.22
X141.525Y-88.22
X142.79Y-78.445
X142.79Y-80.985
X144.065Y-88.22
T2
X109.845Y-73.585
X112.385Y-73.585
X114.925Y-73.585
X117.465Y-73.585
X120.005Y-73.585
X122.545Y-73.585
T3
X87.81Y-71.91
X144.54Y-71.91
T0
M30
