%TF.GenerationSoftware,KiCad,Pcbnew,6.0.1-79c1e3a40b~116~ubuntu20.04.1*%
%TF.CreationDate,2022-02-02T00:48:05+05:30*%
%TF.ProjectId,mpu,6d70752e-6b69-4636-9164-5f7063625858,rev?*%
%TF.SameCoordinates,Original*%
%TF.FileFunction,Copper,L2,Bot*%
%TF.FilePolarity,Positive*%
%FSLAX46Y46*%
G04 Gerber Fmt 4.6, Leading zero omitted, Abs format (unit mm)*
G04 Created by KiCad (PCBNEW 6.0.1-79c1e3a40b~116~ubuntu20.04.1) date 2022-02-02 00:48:05*
%MOMM*%
%LPD*%
G01*
G04 APERTURE LIST*
%TA.AperFunction,ComponentPad*%
%ADD10O,1.524000X3.048000*%
%TD*%
%TA.AperFunction,ComponentPad*%
%ADD11R,1.700000X1.700000*%
%TD*%
%TA.AperFunction,ComponentPad*%
%ADD12O,1.700000X1.700000*%
%TD*%
%TA.AperFunction,Conductor*%
%ADD13C,0.300000*%
%TD*%
%TA.AperFunction,Conductor*%
%ADD14C,0.600000*%
%TD*%
G04 APERTURE END LIST*
D10*
%TO.P,J2,1,Pin_1*%
%TO.N,Board_0-/3V3*%
X50220000Y-54251968D03*
%TO.P,J2,2,Pin_2*%
%TO.N,Board_0-/GND*%
X52760000Y-54251968D03*
%TO.P,J2,3,Pin_3*%
%TO.N,Board_0-/SCL*%
X55300000Y-54251968D03*
%TO.P,J2,4,Pin_4*%
%TO.N,Board_0-/SDA*%
X57840000Y-54251968D03*
%TO.P,J2,5,Pin_5*%
%TO.N,Board_0-unconnected-(J2-Pad5)*%
X60380000Y-54251968D03*
%TO.P,J2,6,Pin_6*%
%TO.N,Board_0-unconnected-(J2-Pad6)*%
X62920000Y-54251968D03*
%TO.P,J2,7,Pin_7*%
%TO.N,Board_0-unconnected-(J2-Pad7)*%
X65460000Y-54251968D03*
%TO.P,J2,8,Pin_8*%
%TO.N,Board_0-/INT*%
X68000000Y-54251968D03*
%TD*%
D11*
%TO.P,J1,1,Pin_1*%
%TO.N,Board_0-unconnected-(J1-Pad1)*%
X65460000Y-59660000D03*
D12*
%TO.P,J1,2,Pin_2*%
%TO.N,Board_0-/3V3*%
X62920000Y-59660000D03*
%TO.P,J1,3,Pin_3*%
%TO.N,Board_0-/INT*%
X60380000Y-59660000D03*
%TO.P,J1,4,Pin_4*%
%TO.N,Board_0-/GND*%
X57840000Y-59660000D03*
%TO.P,J1,5,Pin_5*%
%TO.N,Board_0-/SDA*%
X55300000Y-59660000D03*
%TO.P,J1,6,Pin_6*%
%TO.N,Board_0-/SCL*%
X52760000Y-59660000D03*
%TD*%
D13*
%TO.N,Board_0-/SDA*%
X57840000Y-57120000D02*
X55300000Y-59660000D01*
X57840000Y-54251968D02*
X57840000Y-57120000D01*
%TO.N,Board_0-/SCL*%
X55300000Y-54251968D02*
X55300000Y-57120000D01*
X55300000Y-57120000D02*
X52760000Y-59660000D01*
%TO.N,Board_0-/INT*%
X65160000Y-57091968D02*
X62948032Y-57091968D01*
X68000000Y-54251968D02*
X65160000Y-57091968D01*
X62948032Y-57091968D02*
X60380000Y-59660000D01*
D14*
%TO.N,Board_0-/GND*%
X50760000Y-57731968D02*
X50760000Y-60491968D01*
X57840000Y-61231968D02*
X57840000Y-59660000D01*
X50760000Y-60491968D02*
X52030000Y-61761968D01*
X52760000Y-55731968D02*
X50760000Y-57731968D01*
X57310000Y-61761968D02*
X57840000Y-61231968D01*
X52030000Y-61761968D02*
X57310000Y-61761968D01*
X52760000Y-54251968D02*
X52760000Y-55731968D01*
%TO.N,Board_0-/3V3*%
X49380000Y-61011968D02*
X51130000Y-62761968D01*
X61140000Y-62761968D02*
X62920000Y-60981968D01*
X50220000Y-54251968D02*
X49380000Y-55091968D01*
X51130000Y-62761968D02*
X61140000Y-62761968D01*
X62920000Y-60981968D02*
X62920000Y-59660000D01*
X49380000Y-55091968D02*
X49380000Y-61011968D01*
%TD*%
%TA.AperFunction,Conductor*%
%TO.N,Board_0-/GND*%
G36*
X59128948Y-51778983D02*
G01*
X69488139Y-51778995D01*
X69556260Y-51798997D01*
X69602753Y-51852653D01*
X69614139Y-51904915D01*
X69621525Y-63532774D01*
X69621597Y-63646889D01*
X69601638Y-63715022D01*
X69548012Y-63761549D01*
X69495597Y-63772969D01*
X61453430Y-63772969D01*
X61385309Y-63752967D01*
X61338816Y-63699311D01*
X61328712Y-63629037D01*
X61358206Y-63564457D01*
X61400178Y-63532776D01*
X61438813Y-63514760D01*
X61450589Y-63509978D01*
X61491552Y-63495713D01*
X61497527Y-63491979D01*
X61497530Y-63491978D01*
X61519995Y-63477941D01*
X61533512Y-63470602D01*
X61557514Y-63459409D01*
X61557515Y-63459408D01*
X61563902Y-63456430D01*
X61598153Y-63429862D01*
X61608612Y-63422566D01*
X61639404Y-63403326D01*
X61639407Y-63403324D01*
X61645376Y-63399594D01*
X61674179Y-63370992D01*
X61674804Y-63370407D01*
X61675470Y-63369890D01*
X61701460Y-63343900D01*
X61774082Y-63271783D01*
X61774740Y-63270746D01*
X61775843Y-63269517D01*
X63485158Y-61560202D01*
X63486095Y-61559274D01*
X63545475Y-61501125D01*
X63545476Y-61501124D01*
X63550507Y-61496197D01*
X63573998Y-61459747D01*
X63581417Y-61449422D01*
X63608476Y-61415525D01*
X63623073Y-61385330D01*
X63630602Y-61371913D01*
X63644948Y-61349652D01*
X63648765Y-61343730D01*
X63651173Y-61337113D01*
X63651176Y-61337108D01*
X63663592Y-61302995D01*
X63668553Y-61291252D01*
X63684354Y-61258565D01*
X63684356Y-61258560D01*
X63687421Y-61252219D01*
X63694965Y-61219540D01*
X63699332Y-61204799D01*
X63710803Y-61173283D01*
X63711686Y-61166293D01*
X63711688Y-61166285D01*
X63716238Y-61130267D01*
X63718474Y-61117715D01*
X63726638Y-61082354D01*
X63726638Y-61082351D01*
X63728224Y-61075483D01*
X63728366Y-61034912D01*
X63728395Y-61034030D01*
X63728500Y-61033199D01*
X63728500Y-60996396D01*
X63728644Y-60955229D01*
X63728845Y-60897625D01*
X63728845Y-60897620D01*
X63728857Y-60894098D01*
X63728589Y-60892898D01*
X63728500Y-60891261D01*
X63728500Y-60816968D01*
X63748502Y-60748847D01*
X63781331Y-60714390D01*
X63795654Y-60704174D01*
X63795661Y-60704168D01*
X63799860Y-60701173D01*
X63908091Y-60593319D01*
X63970462Y-60559404D01*
X64041268Y-60564592D01*
X64098030Y-60607238D01*
X64115012Y-60638341D01*
X64129533Y-60677076D01*
X64159385Y-60756705D01*
X64246739Y-60873261D01*
X64363295Y-60960615D01*
X64499684Y-61011745D01*
X64561866Y-61018500D01*
X66358134Y-61018500D01*
X66420316Y-61011745D01*
X66556705Y-60960615D01*
X66673261Y-60873261D01*
X66760615Y-60756705D01*
X66811745Y-60620316D01*
X66818500Y-60558134D01*
X66818500Y-58761866D01*
X66811745Y-58699684D01*
X66760615Y-58563295D01*
X66673261Y-58446739D01*
X66556705Y-58359385D01*
X66420316Y-58308255D01*
X66358134Y-58301500D01*
X64561866Y-58301500D01*
X64499684Y-58308255D01*
X64363295Y-58359385D01*
X64246739Y-58446739D01*
X64159385Y-58563295D01*
X64156233Y-58571703D01*
X64114919Y-58681907D01*
X64072277Y-58738671D01*
X64005716Y-58763371D01*
X63936367Y-58748163D01*
X63903743Y-58722476D01*
X63853151Y-58666875D01*
X63853142Y-58666866D01*
X63849670Y-58663051D01*
X63845619Y-58659852D01*
X63845615Y-58659848D01*
X63678414Y-58527800D01*
X63678410Y-58527798D01*
X63674359Y-58524598D01*
X63478789Y-58416638D01*
X63473920Y-58414914D01*
X63473916Y-58414912D01*
X63273087Y-58343795D01*
X63273083Y-58343794D01*
X63268212Y-58342069D01*
X63263119Y-58341162D01*
X63263116Y-58341161D01*
X63053373Y-58303800D01*
X63053367Y-58303799D01*
X63048284Y-58302894D01*
X63026183Y-58302624D01*
X62971940Y-58301961D01*
X62904069Y-58281128D01*
X62858235Y-58226908D01*
X62848991Y-58156516D01*
X62879271Y-58092300D01*
X62884385Y-58086875D01*
X63183887Y-57787373D01*
X63246199Y-57753347D01*
X63272982Y-57750468D01*
X65077944Y-57750468D01*
X65089800Y-57751027D01*
X65089803Y-57751027D01*
X65097537Y-57752756D01*
X65168369Y-57750530D01*
X65172327Y-57750468D01*
X65201432Y-57750468D01*
X65205832Y-57749912D01*
X65217664Y-57748980D01*
X65263831Y-57747530D01*
X65284421Y-57741548D01*
X65303782Y-57737538D01*
X65310770Y-57736656D01*
X65317204Y-57735843D01*
X65317205Y-57735843D01*
X65325064Y-57734850D01*
X65332429Y-57731934D01*
X65332433Y-57731933D01*
X65368021Y-57717842D01*
X65379231Y-57714003D01*
X65423600Y-57701113D01*
X65442065Y-57690193D01*
X65459805Y-57681502D01*
X65479756Y-57673603D01*
X65517129Y-57646450D01*
X65527048Y-57639935D01*
X65559977Y-57620461D01*
X65559981Y-57620458D01*
X65566807Y-57616421D01*
X65581971Y-57601257D01*
X65597005Y-57588416D01*
X65607943Y-57580469D01*
X65614357Y-57575809D01*
X65643803Y-57540215D01*
X65651792Y-57531436D01*
X67112352Y-56070876D01*
X67174664Y-56036850D01*
X67245479Y-56041915D01*
X67271722Y-56055389D01*
X67367024Y-56119428D01*
X67385458Y-56131815D01*
X67390590Y-56134068D01*
X67390594Y-56134070D01*
X67471110Y-56169414D01*
X67593124Y-56222975D01*
X67598582Y-56224285D01*
X67598581Y-56224285D01*
X67808192Y-56274608D01*
X67808198Y-56274609D01*
X67813651Y-56275918D01*
X67926860Y-56282446D01*
X68034463Y-56288651D01*
X68034466Y-56288651D01*
X68040069Y-56288974D01*
X68265219Y-56261727D01*
X68270581Y-56260077D01*
X68270583Y-56260077D01*
X68398522Y-56220718D01*
X68481987Y-56195041D01*
X68582753Y-56143032D01*
X68678536Y-56093594D01*
X68678537Y-56093594D01*
X68683519Y-56091022D01*
X68863447Y-55952959D01*
X69016081Y-55785216D01*
X69092547Y-55663319D01*
X69133616Y-55597850D01*
X69133618Y-55597846D01*
X69136599Y-55593094D01*
X69221190Y-55382667D01*
X69267181Y-55160586D01*
X69270500Y-55103024D01*
X69270500Y-53432433D01*
X69255474Y-53264073D01*
X69195630Y-53045317D01*
X69181602Y-53015905D01*
X69100410Y-52845684D01*
X69100409Y-52845683D01*
X69097993Y-52840617D01*
X68965649Y-52656442D01*
X68890290Y-52583414D01*
X68806811Y-52502516D01*
X68806808Y-52502514D01*
X68802783Y-52498613D01*
X68675249Y-52412914D01*
X68619195Y-52375247D01*
X68619190Y-52375244D01*
X68614542Y-52372121D01*
X68609410Y-52369868D01*
X68609406Y-52369866D01*
X68466754Y-52307246D01*
X68406876Y-52280961D01*
X68373122Y-52272858D01*
X68191808Y-52229328D01*
X68191802Y-52229327D01*
X68186349Y-52228018D01*
X68073140Y-52221490D01*
X67965537Y-52215285D01*
X67965534Y-52215285D01*
X67959931Y-52214962D01*
X67734781Y-52242209D01*
X67729419Y-52243859D01*
X67729417Y-52243859D01*
X67645583Y-52269650D01*
X67518013Y-52308895D01*
X67513029Y-52311467D01*
X67513030Y-52311467D01*
X67399885Y-52369866D01*
X67316481Y-52412914D01*
X67136553Y-52550977D01*
X66983919Y-52718720D01*
X66980938Y-52723471D01*
X66980938Y-52723472D01*
X66904275Y-52845684D01*
X66863401Y-52910842D01*
X66861307Y-52916052D01*
X66846103Y-52953873D01*
X66802136Y-53009617D01*
X66735011Y-53032742D01*
X66666040Y-53015905D01*
X66615470Y-52961120D01*
X66560410Y-52845684D01*
X66560409Y-52845683D01*
X66557993Y-52840617D01*
X66425649Y-52656442D01*
X66350290Y-52583414D01*
X66266811Y-52502516D01*
X66266808Y-52502514D01*
X66262783Y-52498613D01*
X66135249Y-52412914D01*
X66079195Y-52375247D01*
X66079190Y-52375244D01*
X66074542Y-52372121D01*
X66069410Y-52369868D01*
X66069406Y-52369866D01*
X65926754Y-52307246D01*
X65866876Y-52280961D01*
X65833122Y-52272858D01*
X65651808Y-52229328D01*
X65651802Y-52229327D01*
X65646349Y-52228018D01*
X65533140Y-52221490D01*
X65425537Y-52215285D01*
X65425534Y-52215285D01*
X65419931Y-52214962D01*
X65194781Y-52242209D01*
X65189419Y-52243859D01*
X65189417Y-52243859D01*
X65105583Y-52269650D01*
X64978013Y-52308895D01*
X64973029Y-52311467D01*
X64973030Y-52311467D01*
X64859885Y-52369866D01*
X64776481Y-52412914D01*
X64596553Y-52550977D01*
X64443919Y-52718720D01*
X64440938Y-52723471D01*
X64440938Y-52723472D01*
X64364275Y-52845684D01*
X64323401Y-52910842D01*
X64321307Y-52916052D01*
X64306103Y-52953873D01*
X64262136Y-53009617D01*
X64195011Y-53032742D01*
X64126040Y-53015905D01*
X64075470Y-52961120D01*
X64020410Y-52845684D01*
X64020409Y-52845683D01*
X64017993Y-52840617D01*
X63885649Y-52656442D01*
X63810290Y-52583414D01*
X63726811Y-52502516D01*
X63726808Y-52502514D01*
X63722783Y-52498613D01*
X63595249Y-52412914D01*
X63539195Y-52375247D01*
X63539190Y-52375244D01*
X63534542Y-52372121D01*
X63529410Y-52369868D01*
X63529406Y-52369866D01*
X63386754Y-52307246D01*
X63326876Y-52280961D01*
X63293122Y-52272858D01*
X63111808Y-52229328D01*
X63111802Y-52229327D01*
X63106349Y-52228018D01*
X62993140Y-52221490D01*
X62885537Y-52215285D01*
X62885534Y-52215285D01*
X62879931Y-52214962D01*
X62654781Y-52242209D01*
X62649419Y-52243859D01*
X62649417Y-52243859D01*
X62565583Y-52269650D01*
X62438013Y-52308895D01*
X62433029Y-52311467D01*
X62433030Y-52311467D01*
X62319885Y-52369866D01*
X62236481Y-52412914D01*
X62056553Y-52550977D01*
X61903919Y-52718720D01*
X61900938Y-52723471D01*
X61900938Y-52723472D01*
X61824275Y-52845684D01*
X61783401Y-52910842D01*
X61781307Y-52916052D01*
X61766103Y-52953873D01*
X61722136Y-53009617D01*
X61655011Y-53032742D01*
X61586040Y-53015905D01*
X61535470Y-52961120D01*
X61480410Y-52845684D01*
X61480409Y-52845683D01*
X61477993Y-52840617D01*
X61345649Y-52656442D01*
X61270290Y-52583414D01*
X61186811Y-52502516D01*
X61186808Y-52502514D01*
X61182783Y-52498613D01*
X61055249Y-52412914D01*
X60999195Y-52375247D01*
X60999190Y-52375244D01*
X60994542Y-52372121D01*
X60989410Y-52369868D01*
X60989406Y-52369866D01*
X60846754Y-52307246D01*
X60786876Y-52280961D01*
X60753122Y-52272858D01*
X60571808Y-52229328D01*
X60571802Y-52229327D01*
X60566349Y-52228018D01*
X60453140Y-52221490D01*
X60345537Y-52215285D01*
X60345534Y-52215285D01*
X60339931Y-52214962D01*
X60114781Y-52242209D01*
X60109419Y-52243859D01*
X60109417Y-52243859D01*
X60025583Y-52269650D01*
X59898013Y-52308895D01*
X59893029Y-52311467D01*
X59893030Y-52311467D01*
X59779885Y-52369866D01*
X59696481Y-52412914D01*
X59516553Y-52550977D01*
X59363919Y-52718720D01*
X59360938Y-52723471D01*
X59360938Y-52723472D01*
X59284275Y-52845684D01*
X59243401Y-52910842D01*
X59241307Y-52916052D01*
X59226103Y-52953873D01*
X59182136Y-53009617D01*
X59115011Y-53032742D01*
X59046040Y-53015905D01*
X58995470Y-52961120D01*
X58940410Y-52845684D01*
X58940409Y-52845683D01*
X58937993Y-52840617D01*
X58805649Y-52656442D01*
X58730290Y-52583414D01*
X58646811Y-52502516D01*
X58646808Y-52502514D01*
X58642783Y-52498613D01*
X58515249Y-52412914D01*
X58459195Y-52375247D01*
X58459190Y-52375244D01*
X58454542Y-52372121D01*
X58449410Y-52369868D01*
X58449406Y-52369866D01*
X58306754Y-52307246D01*
X58246876Y-52280961D01*
X58213122Y-52272858D01*
X58031808Y-52229328D01*
X58031802Y-52229327D01*
X58026349Y-52228018D01*
X57913140Y-52221490D01*
X57805537Y-52215285D01*
X57805534Y-52215285D01*
X57799931Y-52214962D01*
X57574781Y-52242209D01*
X57569419Y-52243859D01*
X57569417Y-52243859D01*
X57485583Y-52269650D01*
X57358013Y-52308895D01*
X57353029Y-52311467D01*
X57353030Y-52311467D01*
X57239885Y-52369866D01*
X57156481Y-52412914D01*
X56976553Y-52550977D01*
X56823919Y-52718720D01*
X56820938Y-52723471D01*
X56820938Y-52723472D01*
X56744275Y-52845684D01*
X56703401Y-52910842D01*
X56701307Y-52916052D01*
X56686103Y-52953873D01*
X56642136Y-53009617D01*
X56575011Y-53032742D01*
X56506040Y-53015905D01*
X56455470Y-52961120D01*
X56400410Y-52845684D01*
X56400409Y-52845683D01*
X56397993Y-52840617D01*
X56265649Y-52656442D01*
X56190290Y-52583414D01*
X56106811Y-52502516D01*
X56106808Y-52502514D01*
X56102783Y-52498613D01*
X55975249Y-52412914D01*
X55919195Y-52375247D01*
X55919190Y-52375244D01*
X55914542Y-52372121D01*
X55909410Y-52369868D01*
X55909406Y-52369866D01*
X55766754Y-52307246D01*
X55706876Y-52280961D01*
X55673122Y-52272858D01*
X55491808Y-52229328D01*
X55491802Y-52229327D01*
X55486349Y-52228018D01*
X55373140Y-52221490D01*
X55265537Y-52215285D01*
X55265534Y-52215285D01*
X55259931Y-52214962D01*
X55034781Y-52242209D01*
X55029419Y-52243859D01*
X55029417Y-52243859D01*
X54945583Y-52269650D01*
X54818013Y-52308895D01*
X54813029Y-52311467D01*
X54813030Y-52311467D01*
X54699885Y-52369866D01*
X54616481Y-52412914D01*
X54436553Y-52550977D01*
X54283919Y-52718720D01*
X54280938Y-52723471D01*
X54280938Y-52723472D01*
X54204275Y-52845684D01*
X54163401Y-52910842D01*
X54078810Y-53121269D01*
X54032819Y-53343350D01*
X54029500Y-53400912D01*
X54029500Y-55071503D01*
X54044526Y-55239863D01*
X54104370Y-55458619D01*
X54106782Y-55463677D01*
X54106784Y-55463681D01*
X54166026Y-55587884D01*
X54202007Y-55663319D01*
X54334351Y-55847494D01*
X54338381Y-55851399D01*
X54487410Y-55995819D01*
X54497217Y-56005323D01*
X54551672Y-56041915D01*
X54585776Y-56064832D01*
X54631161Y-56119428D01*
X54641500Y-56169414D01*
X54641500Y-56795051D01*
X54621498Y-56863172D01*
X54604595Y-56884146D01*
X53187336Y-58301405D01*
X53125024Y-58335431D01*
X53076145Y-58336357D01*
X52893373Y-58303800D01*
X52893367Y-58303799D01*
X52888284Y-58302894D01*
X52814452Y-58301992D01*
X52670081Y-58300228D01*
X52670079Y-58300228D01*
X52664911Y-58300165D01*
X52444091Y-58333955D01*
X52231756Y-58403357D01*
X52033607Y-58506507D01*
X52029474Y-58509610D01*
X52029471Y-58509612D01*
X51859100Y-58637530D01*
X51854965Y-58640635D01*
X51815525Y-58681907D01*
X51761280Y-58738671D01*
X51700629Y-58802138D01*
X51574743Y-58986680D01*
X51480688Y-59189305D01*
X51420989Y-59404570D01*
X51397251Y-59626695D01*
X51397548Y-59631848D01*
X51397548Y-59631851D01*
X51403011Y-59726590D01*
X51410110Y-59849715D01*
X51411247Y-59854761D01*
X51411248Y-59854767D01*
X51431119Y-59942939D01*
X51459222Y-60067639D01*
X51543266Y-60274616D01*
X51580685Y-60335678D01*
X51657291Y-60460688D01*
X51659987Y-60465088D01*
X51806250Y-60633938D01*
X51978126Y-60776632D01*
X52171000Y-60889338D01*
X52175825Y-60891180D01*
X52175826Y-60891181D01*
X52179283Y-60892501D01*
X52379692Y-60969030D01*
X52384760Y-60970061D01*
X52384763Y-60970062D01*
X52492017Y-60991883D01*
X52598597Y-61013567D01*
X52603772Y-61013757D01*
X52603774Y-61013757D01*
X52816673Y-61021564D01*
X52816677Y-61021564D01*
X52821837Y-61021753D01*
X52826957Y-61021097D01*
X52826959Y-61021097D01*
X53038288Y-60994025D01*
X53038289Y-60994025D01*
X53043416Y-60993368D01*
X53048366Y-60991883D01*
X53252429Y-60930661D01*
X53252434Y-60930659D01*
X53257384Y-60929174D01*
X53457994Y-60830896D01*
X53639860Y-60701173D01*
X53664042Y-60677076D01*
X53734124Y-60607238D01*
X53798096Y-60543489D01*
X53857594Y-60460689D01*
X53928453Y-60362077D01*
X53929776Y-60363028D01*
X53976645Y-60319857D01*
X54046580Y-60307625D01*
X54112026Y-60335144D01*
X54139875Y-60366994D01*
X54199987Y-60465088D01*
X54346250Y-60633938D01*
X54518126Y-60776632D01*
X54711000Y-60889338D01*
X54715825Y-60891180D01*
X54715826Y-60891181D01*
X54719283Y-60892501D01*
X54919692Y-60969030D01*
X54924760Y-60970061D01*
X54924763Y-60970062D01*
X55032017Y-60991883D01*
X55138597Y-61013567D01*
X55143772Y-61013757D01*
X55143774Y-61013757D01*
X55356673Y-61021564D01*
X55356677Y-61021564D01*
X55361837Y-61021753D01*
X55366957Y-61021097D01*
X55366959Y-61021097D01*
X55578288Y-60994025D01*
X55578289Y-60994025D01*
X55583416Y-60993368D01*
X55588366Y-60991883D01*
X55792429Y-60930661D01*
X55792434Y-60930659D01*
X55797384Y-60929174D01*
X55997994Y-60830896D01*
X56179860Y-60701173D01*
X56204042Y-60677076D01*
X56274124Y-60607238D01*
X56338096Y-60543489D01*
X56397594Y-60460689D01*
X56465435Y-60366277D01*
X56468453Y-60362077D01*
X56489320Y-60319857D01*
X56565136Y-60166453D01*
X56565137Y-60166451D01*
X56567430Y-60161811D01*
X56632370Y-59948069D01*
X56661529Y-59726590D01*
X56663156Y-59660000D01*
X56644852Y-59437361D01*
X56623919Y-59354022D01*
X56626723Y-59283081D01*
X56657028Y-59234232D01*
X58247600Y-57643659D01*
X58256381Y-57635669D01*
X58256390Y-57635661D01*
X58263080Y-57631416D01*
X58311621Y-57579725D01*
X58314375Y-57576884D01*
X58334926Y-57556333D01*
X58337638Y-57552837D01*
X58345349Y-57543808D01*
X58371544Y-57515913D01*
X58376972Y-57510133D01*
X58387301Y-57491345D01*
X58398158Y-57474816D01*
X58406447Y-57464131D01*
X58406448Y-57464129D01*
X58411304Y-57457869D01*
X58429657Y-57415456D01*
X58434868Y-57404819D01*
X58457124Y-57364337D01*
X58462457Y-57343566D01*
X58468859Y-57324864D01*
X58477379Y-57305177D01*
X58484605Y-57259552D01*
X58487013Y-57247926D01*
X58496529Y-57210865D01*
X58496529Y-57210864D01*
X58498500Y-57203188D01*
X58498500Y-57181742D01*
X58500051Y-57162031D01*
X58502166Y-57148678D01*
X58503406Y-57140849D01*
X58499059Y-57094864D01*
X58498500Y-57083006D01*
X58498500Y-56172357D01*
X58518502Y-56104236D01*
X58547796Y-56072394D01*
X58631129Y-56008450D01*
X58703447Y-55952959D01*
X58856081Y-55785216D01*
X58932547Y-55663319D01*
X58973616Y-55597850D01*
X58973618Y-55597846D01*
X58976599Y-55593094D01*
X58993898Y-55550062D01*
X59037864Y-55494319D01*
X59104989Y-55471194D01*
X59173960Y-55488031D01*
X59224530Y-55542816D01*
X59282007Y-55663319D01*
X59414351Y-55847494D01*
X59418381Y-55851399D01*
X59567410Y-55995819D01*
X59577217Y-56005323D01*
X59631672Y-56041915D01*
X59760805Y-56128689D01*
X59760810Y-56128692D01*
X59765458Y-56131815D01*
X59770590Y-56134068D01*
X59770594Y-56134070D01*
X59851110Y-56169414D01*
X59973124Y-56222975D01*
X59978582Y-56224285D01*
X59978581Y-56224285D01*
X60188192Y-56274608D01*
X60188198Y-56274609D01*
X60193651Y-56275918D01*
X60306860Y-56282446D01*
X60414463Y-56288651D01*
X60414466Y-56288651D01*
X60420069Y-56288974D01*
X60645219Y-56261727D01*
X60650581Y-56260077D01*
X60650583Y-56260077D01*
X60778522Y-56220718D01*
X60861987Y-56195041D01*
X60962753Y-56143032D01*
X61058536Y-56093594D01*
X61058537Y-56093594D01*
X61063519Y-56091022D01*
X61243447Y-55952959D01*
X61396081Y-55785216D01*
X61472547Y-55663319D01*
X61513616Y-55597850D01*
X61513618Y-55597846D01*
X61516599Y-55593094D01*
X61533898Y-55550062D01*
X61577864Y-55494319D01*
X61644989Y-55471194D01*
X61713960Y-55488031D01*
X61764530Y-55542816D01*
X61822007Y-55663319D01*
X61954351Y-55847494D01*
X61958381Y-55851399D01*
X62107410Y-55995819D01*
X62117217Y-56005323D01*
X62171672Y-56041915D01*
X62300805Y-56128689D01*
X62300810Y-56128692D01*
X62305458Y-56131815D01*
X62310590Y-56134068D01*
X62310594Y-56134070D01*
X62391110Y-56169414D01*
X62513124Y-56222975D01*
X62518582Y-56224285D01*
X62518581Y-56224285D01*
X62644999Y-56254635D01*
X62706568Y-56289987D01*
X62739251Y-56353014D01*
X62732671Y-56423705D01*
X62688917Y-56479616D01*
X62679725Y-56485607D01*
X62665973Y-56493740D01*
X62648227Y-56502434D01*
X62628276Y-56510333D01*
X62590906Y-56537484D01*
X62580984Y-56544001D01*
X62548055Y-56563475D01*
X62548051Y-56563478D01*
X62541225Y-56567515D01*
X62526061Y-56582679D01*
X62511028Y-56595519D01*
X62493675Y-56608127D01*
X62464230Y-56643720D01*
X62456240Y-56652500D01*
X60807335Y-58301405D01*
X60745023Y-58335431D01*
X60696145Y-58336357D01*
X60648971Y-58327954D01*
X60513373Y-58303800D01*
X60513367Y-58303799D01*
X60508284Y-58302894D01*
X60434452Y-58301992D01*
X60290081Y-58300228D01*
X60290079Y-58300228D01*
X60284911Y-58300165D01*
X60064091Y-58333955D01*
X59851756Y-58403357D01*
X59653607Y-58506507D01*
X59649474Y-58509610D01*
X59649471Y-58509612D01*
X59479100Y-58637530D01*
X59474965Y-58640635D01*
X59435525Y-58681907D01*
X59381280Y-58738671D01*
X59320629Y-58802138D01*
X59194743Y-58986680D01*
X59100688Y-59189305D01*
X59040989Y-59404570D01*
X59017251Y-59626695D01*
X59017548Y-59631848D01*
X59017548Y-59631851D01*
X59023011Y-59726590D01*
X59030110Y-59849715D01*
X59031247Y-59854761D01*
X59031248Y-59854767D01*
X59051119Y-59942939D01*
X59079222Y-60067639D01*
X59163266Y-60274616D01*
X59200685Y-60335678D01*
X59277291Y-60460688D01*
X59279987Y-60465088D01*
X59426250Y-60633938D01*
X59598126Y-60776632D01*
X59791000Y-60889338D01*
X59795825Y-60891180D01*
X59795826Y-60891181D01*
X59799283Y-60892501D01*
X59999692Y-60969030D01*
X60004760Y-60970061D01*
X60004763Y-60970062D01*
X60112017Y-60991883D01*
X60218597Y-61013567D01*
X60223772Y-61013757D01*
X60223774Y-61013757D01*
X60436673Y-61021564D01*
X60436677Y-61021564D01*
X60441837Y-61021753D01*
X60446957Y-61021097D01*
X60446959Y-61021097D01*
X60658288Y-60994025D01*
X60658289Y-60994025D01*
X60663416Y-60993368D01*
X60668366Y-60991883D01*
X60872429Y-60930661D01*
X60872434Y-60930659D01*
X60877384Y-60929174D01*
X61077994Y-60830896D01*
X61259860Y-60701173D01*
X61284042Y-60677076D01*
X61354124Y-60607238D01*
X61418096Y-60543489D01*
X61477594Y-60460689D01*
X61548453Y-60362077D01*
X61549776Y-60363028D01*
X61596645Y-60319857D01*
X61666580Y-60307625D01*
X61732026Y-60335144D01*
X61759875Y-60366994D01*
X61819987Y-60465088D01*
X61962973Y-60630155D01*
X61992455Y-60694739D01*
X61982341Y-60765011D01*
X61956830Y-60801746D01*
X60842013Y-61916563D01*
X60779701Y-61950589D01*
X60752918Y-61953468D01*
X51517082Y-61953468D01*
X51448961Y-61933466D01*
X51427987Y-61916563D01*
X50225405Y-60713981D01*
X50191379Y-60651669D01*
X50188500Y-60624886D01*
X50188500Y-56409306D01*
X50208502Y-56341185D01*
X50262158Y-56294692D01*
X50299362Y-56284219D01*
X50340066Y-56279293D01*
X50485219Y-56261727D01*
X50490581Y-56260077D01*
X50490583Y-56260077D01*
X50618522Y-56220718D01*
X50701987Y-56195041D01*
X50802753Y-56143032D01*
X50898536Y-56093594D01*
X50898537Y-56093594D01*
X50903519Y-56091022D01*
X51083447Y-55952959D01*
X51236081Y-55785216D01*
X51312547Y-55663319D01*
X51353616Y-55597850D01*
X51353618Y-55597846D01*
X51356599Y-55593094D01*
X51441190Y-55382667D01*
X51487181Y-55160586D01*
X51490500Y-55103024D01*
X51490500Y-53432433D01*
X51475474Y-53264073D01*
X51415630Y-53045317D01*
X51401602Y-53015905D01*
X51320410Y-52845684D01*
X51320409Y-52845683D01*
X51317993Y-52840617D01*
X51185649Y-52656442D01*
X51110290Y-52583414D01*
X51026811Y-52502516D01*
X51026808Y-52502514D01*
X51022783Y-52498613D01*
X50895249Y-52412914D01*
X50839195Y-52375247D01*
X50839190Y-52375244D01*
X50834542Y-52372121D01*
X50829410Y-52369868D01*
X50829406Y-52369866D01*
X50686754Y-52307246D01*
X50626876Y-52280961D01*
X50593122Y-52272858D01*
X50411808Y-52229328D01*
X50411802Y-52229327D01*
X50406349Y-52228018D01*
X50293140Y-52221490D01*
X50185537Y-52215285D01*
X50185534Y-52215285D01*
X50179931Y-52214962D01*
X49954781Y-52242209D01*
X49949419Y-52243859D01*
X49949417Y-52243859D01*
X49865583Y-52269650D01*
X49738013Y-52308895D01*
X49733029Y-52311467D01*
X49733030Y-52311467D01*
X49619885Y-52369866D01*
X49536481Y-52412914D01*
X49356553Y-52550977D01*
X49203919Y-52718720D01*
X49200938Y-52723471D01*
X49200938Y-52723472D01*
X49124275Y-52845684D01*
X49083401Y-52910842D01*
X48998810Y-53121269D01*
X48952819Y-53343350D01*
X48949500Y-53400912D01*
X48949500Y-54326886D01*
X48929498Y-54395007D01*
X48912595Y-54415981D01*
X48852141Y-54476435D01*
X48789829Y-54510461D01*
X48719014Y-54505396D01*
X48662178Y-54462849D01*
X48637367Y-54396329D01*
X48637046Y-54387342D01*
X48637027Y-53040255D01*
X48637015Y-52227695D01*
X48637010Y-51904972D01*
X48657011Y-51836851D01*
X48710666Y-51790357D01*
X48763009Y-51778970D01*
X59128948Y-51778983D01*
G37*
%TD.AperFunction*%
%TD*%
M02*
