%FSLAX45Y45*%
G04 Gerber Fmt 4.5, Leading zero omitted, Abs format (unit mm)*
G04 Created by KiCad (PCBNEW 6.0.1-79c1e3a40b~116~ubuntu20.04.1) date 2022-02-02 00:48:09*
%MOMM*%
%LPD*%
G01*
G04 APERTURE LIST*
%TA.AperFunction,Profile*%
%ADD10C,0.100000*%
%TD*%
%ADD11C,0.200000*%
%ADD12C,0.100000*%
%ADD13C,0.101600*%
G04 APERTURE END LIST*
D10*
X4813000Y-6428097D02*
X7013000Y-6428097D01*
X4812919Y-6426492D02*
X4813000Y-6428097D01*
X7012174Y-5127100D02*
X7013000Y-6428097D01*
X4813193Y-5127390D02*
X4812900Y-5128097D01*
X7012174Y-5127100D02*
X4813900Y-5127097D01*
X4812900Y-5128097D02*
X4812919Y-6426492D01*
X4813900Y-5127097D02*
X4813193Y-5127390D01*
D11*
D12*
X5226000Y-5916000D02*
X5326000Y-6016000D01*
X5326000Y-5916000D02*
X5226000Y-6016000D01*
X5480000Y-5916000D02*
X5580000Y-6016000D01*
X5580000Y-5916000D02*
X5480000Y-6016000D01*
X5734000Y-5916000D02*
X5834000Y-6016000D01*
X5834000Y-5916000D02*
X5734000Y-6016000D01*
X5988000Y-5916000D02*
X6088000Y-6016000D01*
X6088000Y-5916000D02*
X5988000Y-6016000D01*
X6242000Y-5916000D02*
X6342000Y-6016000D01*
X6342000Y-5916000D02*
X6242000Y-6016000D01*
X6496000Y-5916000D02*
X6596000Y-6016000D01*
X6596000Y-5916000D02*
X6496000Y-6016000D01*
D13*
X5072800Y-5425197D02*
G75*
G03*
X5072800Y-5425197I-50800J0D01*
G01*
X5326800Y-5425197D02*
G75*
G03*
X5326800Y-5425197I-50800J0D01*
G01*
X5580800Y-5425197D02*
G75*
G03*
X5580800Y-5425197I-50800J0D01*
G01*
X5834800Y-5425197D02*
G75*
G03*
X5834800Y-5425197I-50800J0D01*
G01*
X6088800Y-5425197D02*
G75*
G03*
X6088800Y-5425197I-50800J0D01*
G01*
X6342800Y-5425197D02*
G75*
G03*
X6342800Y-5425197I-50800J0D01*
G01*
X6596800Y-5425197D02*
G75*
G03*
X6596800Y-5425197I-50800J0D01*
G01*
X6850800Y-5425197D02*
G75*
G03*
X6850800Y-5425197I-50800J0D01*
G01*
D11*
X5065519Y-6743573D02*
X5065519Y-6543573D01*
X5113138Y-6543573D01*
X5141710Y-6553097D01*
X5160757Y-6572144D01*
X5170281Y-6591192D01*
X5179805Y-6629287D01*
X5179805Y-6657859D01*
X5170281Y-6695954D01*
X5160757Y-6715002D01*
X5141710Y-6734049D01*
X5113138Y-6743573D01*
X5065519Y-6743573D01*
X5265519Y-6743573D02*
X5265519Y-6610240D01*
X5265519Y-6648335D02*
X5275043Y-6629287D01*
X5284567Y-6619763D01*
X5303614Y-6610240D01*
X5322662Y-6610240D01*
X5389329Y-6743573D02*
X5389329Y-6610240D01*
X5389329Y-6543573D02*
X5379805Y-6553097D01*
X5389329Y-6562621D01*
X5398852Y-6553097D01*
X5389329Y-6543573D01*
X5389329Y-6562621D01*
X5513138Y-6743573D02*
X5494091Y-6734049D01*
X5484567Y-6715002D01*
X5484567Y-6543573D01*
X5617900Y-6743573D02*
X5598852Y-6734049D01*
X5589329Y-6715002D01*
X5589329Y-6543573D01*
X5846471Y-6743573D02*
X5846471Y-6543573D01*
X5913138Y-6686430D01*
X5979805Y-6543573D01*
X5979805Y-6743573D01*
X6160757Y-6743573D02*
X6160757Y-6638811D01*
X6151233Y-6619763D01*
X6132186Y-6610240D01*
X6094090Y-6610240D01*
X6075043Y-6619763D01*
X6160757Y-6734049D02*
X6141710Y-6743573D01*
X6094090Y-6743573D01*
X6075043Y-6734049D01*
X6065519Y-6715002D01*
X6065519Y-6695954D01*
X6075043Y-6676906D01*
X6094090Y-6667383D01*
X6141710Y-6667383D01*
X6160757Y-6657859D01*
X6255995Y-6610240D02*
X6255995Y-6810240D01*
X6255995Y-6619763D02*
X6275043Y-6610240D01*
X6313138Y-6610240D01*
X6332186Y-6619763D01*
X6341710Y-6629287D01*
X6351233Y-6648335D01*
X6351233Y-6705478D01*
X6341710Y-6724525D01*
X6332186Y-6734049D01*
X6313138Y-6743573D01*
X6275043Y-6743573D01*
X6255995Y-6734049D01*
X6436948Y-6724525D02*
X6446471Y-6734049D01*
X6436948Y-6743573D01*
X6427424Y-6734049D01*
X6436948Y-6724525D01*
X6436948Y-6743573D01*
X6436948Y-6619763D02*
X6446471Y-6629287D01*
X6436948Y-6638811D01*
X6427424Y-6629287D01*
X6436948Y-6619763D01*
X6436948Y-6638811D01*
D12*
X4707900Y-7023097D02*
X4807900Y-7123097D01*
X4807900Y-7023097D02*
X4707900Y-7123097D01*
D11*
X5170281Y-7163573D02*
X5055995Y-7163573D01*
X5113138Y-7163573D02*
X5113138Y-6963573D01*
X5094091Y-6992144D01*
X5075043Y-7011192D01*
X5055995Y-7020716D01*
X5255995Y-7144525D02*
X5265519Y-7154049D01*
X5255995Y-7163573D01*
X5246472Y-7154049D01*
X5255995Y-7144525D01*
X5255995Y-7163573D01*
X5389329Y-6963573D02*
X5408376Y-6963573D01*
X5427424Y-6973097D01*
X5436948Y-6982621D01*
X5446472Y-7001668D01*
X5455995Y-7039763D01*
X5455995Y-7087383D01*
X5446472Y-7125478D01*
X5436948Y-7144525D01*
X5427424Y-7154049D01*
X5408376Y-7163573D01*
X5389329Y-7163573D01*
X5370281Y-7154049D01*
X5360757Y-7144525D01*
X5351233Y-7125478D01*
X5341710Y-7087383D01*
X5341710Y-7039763D01*
X5351233Y-7001668D01*
X5360757Y-6982621D01*
X5370281Y-6973097D01*
X5389329Y-6963573D01*
X5579805Y-6963573D02*
X5598852Y-6963573D01*
X5617900Y-6973097D01*
X5627424Y-6982621D01*
X5636948Y-7001668D01*
X5646471Y-7039763D01*
X5646471Y-7087383D01*
X5636948Y-7125478D01*
X5627424Y-7144525D01*
X5617900Y-7154049D01*
X5598852Y-7163573D01*
X5579805Y-7163573D01*
X5560757Y-7154049D01*
X5551233Y-7144525D01*
X5541710Y-7125478D01*
X5532186Y-7087383D01*
X5532186Y-7039763D01*
X5541710Y-7001668D01*
X5551233Y-6982621D01*
X5560757Y-6973097D01*
X5579805Y-6963573D01*
X5770281Y-6963573D02*
X5789329Y-6963573D01*
X5808376Y-6973097D01*
X5817900Y-6982621D01*
X5827424Y-7001668D01*
X5836948Y-7039763D01*
X5836948Y-7087383D01*
X5827424Y-7125478D01*
X5817900Y-7144525D01*
X5808376Y-7154049D01*
X5789329Y-7163573D01*
X5770281Y-7163573D01*
X5751233Y-7154049D01*
X5741710Y-7144525D01*
X5732186Y-7125478D01*
X5722662Y-7087383D01*
X5722662Y-7039763D01*
X5732186Y-7001668D01*
X5741710Y-6982621D01*
X5751233Y-6973097D01*
X5770281Y-6963573D01*
X5922662Y-7163573D02*
X5922662Y-7030240D01*
X5922662Y-7049287D02*
X5932186Y-7039763D01*
X5951233Y-7030240D01*
X5979805Y-7030240D01*
X5998852Y-7039763D01*
X6008376Y-7058811D01*
X6008376Y-7163573D01*
X6008376Y-7058811D02*
X6017900Y-7039763D01*
X6036948Y-7030240D01*
X6065519Y-7030240D01*
X6084567Y-7039763D01*
X6094090Y-7058811D01*
X6094090Y-7163573D01*
X6189329Y-7163573D02*
X6189329Y-7030240D01*
X6189329Y-7049287D02*
X6198852Y-7039763D01*
X6217900Y-7030240D01*
X6246471Y-7030240D01*
X6265519Y-7039763D01*
X6275043Y-7058811D01*
X6275043Y-7163573D01*
X6275043Y-7058811D02*
X6284567Y-7039763D01*
X6303614Y-7030240D01*
X6332186Y-7030240D01*
X6351233Y-7039763D01*
X6360757Y-7058811D01*
X6360757Y-7163573D01*
X6751233Y-6954049D02*
X6579805Y-7211192D01*
X7008376Y-6963573D02*
X7027424Y-6963573D01*
X7046471Y-6973097D01*
X7055995Y-6982621D01*
X7065519Y-7001668D01*
X7075043Y-7039763D01*
X7075043Y-7087383D01*
X7065519Y-7125478D01*
X7055995Y-7144525D01*
X7046471Y-7154049D01*
X7027424Y-7163573D01*
X7008376Y-7163573D01*
X6989329Y-7154049D01*
X6979805Y-7144525D01*
X6970281Y-7125478D01*
X6960757Y-7087383D01*
X6960757Y-7039763D01*
X6970281Y-7001668D01*
X6979805Y-6982621D01*
X6989329Y-6973097D01*
X7008376Y-6963573D01*
X7160757Y-7144525D02*
X7170281Y-7154049D01*
X7160757Y-7163573D01*
X7151233Y-7154049D01*
X7160757Y-7144525D01*
X7160757Y-7163573D01*
X7294090Y-6963573D02*
X7313138Y-6963573D01*
X7332186Y-6973097D01*
X7341710Y-6982621D01*
X7351233Y-7001668D01*
X7360757Y-7039763D01*
X7360757Y-7087383D01*
X7351233Y-7125478D01*
X7341710Y-7144525D01*
X7332186Y-7154049D01*
X7313138Y-7163573D01*
X7294090Y-7163573D01*
X7275043Y-7154049D01*
X7265519Y-7144525D01*
X7255995Y-7125478D01*
X7246471Y-7087383D01*
X7246471Y-7039763D01*
X7255995Y-7001668D01*
X7265519Y-6982621D01*
X7275043Y-6973097D01*
X7294090Y-6963573D01*
X7427424Y-6963573D02*
X7551233Y-6963573D01*
X7484567Y-7039763D01*
X7513138Y-7039763D01*
X7532186Y-7049287D01*
X7541710Y-7058811D01*
X7551233Y-7077859D01*
X7551233Y-7125478D01*
X7541710Y-7144525D01*
X7532186Y-7154049D01*
X7513138Y-7163573D01*
X7455995Y-7163573D01*
X7436948Y-7154049D01*
X7427424Y-7144525D01*
X7646471Y-7163573D02*
X7684567Y-7163573D01*
X7703614Y-7154049D01*
X7713138Y-7144525D01*
X7732186Y-7115954D01*
X7741710Y-7077859D01*
X7741710Y-7001668D01*
X7732186Y-6982621D01*
X7722662Y-6973097D01*
X7703614Y-6963573D01*
X7665519Y-6963573D01*
X7646471Y-6973097D01*
X7636948Y-6982621D01*
X7627424Y-7001668D01*
X7627424Y-7049287D01*
X7636948Y-7068335D01*
X7646471Y-7077859D01*
X7665519Y-7087383D01*
X7703614Y-7087383D01*
X7722662Y-7077859D01*
X7732186Y-7068335D01*
X7741710Y-7049287D01*
X7913138Y-7030240D02*
X7913138Y-7163573D01*
X7865519Y-6954049D02*
X7817900Y-7096906D01*
X7941710Y-7096906D01*
X8008376Y-6963573D02*
X8008376Y-7001668D01*
X8084567Y-6963573D02*
X8084567Y-7001668D01*
X8379805Y-7239763D02*
X8370281Y-7230240D01*
X8351233Y-7201668D01*
X8341710Y-7182621D01*
X8332186Y-7154049D01*
X8322662Y-7106430D01*
X8322662Y-7068335D01*
X8332186Y-7020716D01*
X8341710Y-6992144D01*
X8351233Y-6973097D01*
X8370281Y-6944525D01*
X8379805Y-6935002D01*
X8541710Y-6963573D02*
X8503614Y-6963573D01*
X8484567Y-6973097D01*
X8475043Y-6982621D01*
X8455995Y-7011192D01*
X8446472Y-7049287D01*
X8446472Y-7125478D01*
X8455995Y-7144525D01*
X8465519Y-7154049D01*
X8484567Y-7163573D01*
X8522662Y-7163573D01*
X8541710Y-7154049D01*
X8551233Y-7144525D01*
X8560757Y-7125478D01*
X8560757Y-7077859D01*
X8551233Y-7058811D01*
X8541710Y-7049287D01*
X8522662Y-7039763D01*
X8484567Y-7039763D01*
X8465519Y-7049287D01*
X8455995Y-7058811D01*
X8446472Y-7077859D01*
X8798852Y-7163573D02*
X8798852Y-6963573D01*
X8884567Y-7163573D02*
X8884567Y-7058811D01*
X8875043Y-7039763D01*
X8855995Y-7030240D01*
X8827424Y-7030240D01*
X8808376Y-7039763D01*
X8798852Y-7049287D01*
X9008376Y-7163573D02*
X8989329Y-7154049D01*
X8979805Y-7144525D01*
X8970281Y-7125478D01*
X8970281Y-7068335D01*
X8979805Y-7049287D01*
X8989329Y-7039763D01*
X9008376Y-7030240D01*
X9036948Y-7030240D01*
X9055995Y-7039763D01*
X9065519Y-7049287D01*
X9075043Y-7068335D01*
X9075043Y-7125478D01*
X9065519Y-7144525D01*
X9055995Y-7154049D01*
X9036948Y-7163573D01*
X9008376Y-7163573D01*
X9189329Y-7163573D02*
X9170281Y-7154049D01*
X9160757Y-7135002D01*
X9160757Y-6963573D01*
X9341710Y-7154049D02*
X9322662Y-7163573D01*
X9284567Y-7163573D01*
X9265519Y-7154049D01*
X9255995Y-7135002D01*
X9255995Y-7058811D01*
X9265519Y-7039763D01*
X9284567Y-7030240D01*
X9322662Y-7030240D01*
X9341710Y-7039763D01*
X9351233Y-7058811D01*
X9351233Y-7077859D01*
X9255995Y-7096906D01*
X9427424Y-7154049D02*
X9446472Y-7163573D01*
X9484567Y-7163573D01*
X9503614Y-7154049D01*
X9513138Y-7135002D01*
X9513138Y-7125478D01*
X9503614Y-7106430D01*
X9484567Y-7096906D01*
X9455995Y-7096906D01*
X9436948Y-7087383D01*
X9427424Y-7068335D01*
X9427424Y-7058811D01*
X9436948Y-7039763D01*
X9455995Y-7030240D01*
X9484567Y-7030240D01*
X9503614Y-7039763D01*
X9579805Y-7239763D02*
X9589329Y-7230240D01*
X9608376Y-7201668D01*
X9617900Y-7182621D01*
X9627424Y-7154049D01*
X9636948Y-7106430D01*
X9636948Y-7068335D01*
X9627424Y-7020716D01*
X9617900Y-6992144D01*
X9608376Y-6973097D01*
X9589329Y-6944525D01*
X9579805Y-6935002D01*
D13*
X4807900Y-7337097D02*
G75*
G03*
X4807900Y-7337097I-50800J0D01*
G01*
D11*
X5170281Y-7427573D02*
X5055995Y-7427573D01*
X5113138Y-7427573D02*
X5113138Y-7227573D01*
X5094091Y-7256144D01*
X5075043Y-7275192D01*
X5055995Y-7284716D01*
X5255995Y-7408525D02*
X5265519Y-7418049D01*
X5255995Y-7427573D01*
X5246472Y-7418049D01*
X5255995Y-7408525D01*
X5255995Y-7427573D01*
X5389329Y-7227573D02*
X5408376Y-7227573D01*
X5427424Y-7237097D01*
X5436948Y-7246621D01*
X5446472Y-7265668D01*
X5455995Y-7303763D01*
X5455995Y-7351383D01*
X5446472Y-7389478D01*
X5436948Y-7408525D01*
X5427424Y-7418049D01*
X5408376Y-7427573D01*
X5389329Y-7427573D01*
X5370281Y-7418049D01*
X5360757Y-7408525D01*
X5351233Y-7389478D01*
X5341710Y-7351383D01*
X5341710Y-7303763D01*
X5351233Y-7265668D01*
X5360757Y-7246621D01*
X5370281Y-7237097D01*
X5389329Y-7227573D01*
X5646471Y-7427573D02*
X5532186Y-7427573D01*
X5589329Y-7427573D02*
X5589329Y-7227573D01*
X5570281Y-7256144D01*
X5551233Y-7275192D01*
X5532186Y-7284716D01*
X5817900Y-7227573D02*
X5779805Y-7227573D01*
X5760757Y-7237097D01*
X5751233Y-7246621D01*
X5732186Y-7275192D01*
X5722662Y-7313287D01*
X5722662Y-7389478D01*
X5732186Y-7408525D01*
X5741710Y-7418049D01*
X5760757Y-7427573D01*
X5798852Y-7427573D01*
X5817900Y-7418049D01*
X5827424Y-7408525D01*
X5836948Y-7389478D01*
X5836948Y-7341859D01*
X5827424Y-7322811D01*
X5817900Y-7313287D01*
X5798852Y-7303763D01*
X5760757Y-7303763D01*
X5741710Y-7313287D01*
X5732186Y-7322811D01*
X5722662Y-7341859D01*
X5922662Y-7427573D02*
X5922662Y-7294240D01*
X5922662Y-7313287D02*
X5932186Y-7303763D01*
X5951233Y-7294240D01*
X5979805Y-7294240D01*
X5998852Y-7303763D01*
X6008376Y-7322811D01*
X6008376Y-7427573D01*
X6008376Y-7322811D02*
X6017900Y-7303763D01*
X6036948Y-7294240D01*
X6065519Y-7294240D01*
X6084567Y-7303763D01*
X6094090Y-7322811D01*
X6094090Y-7427573D01*
X6189329Y-7427573D02*
X6189329Y-7294240D01*
X6189329Y-7313287D02*
X6198852Y-7303763D01*
X6217900Y-7294240D01*
X6246471Y-7294240D01*
X6265519Y-7303763D01*
X6275043Y-7322811D01*
X6275043Y-7427573D01*
X6275043Y-7322811D02*
X6284567Y-7303763D01*
X6303614Y-7294240D01*
X6332186Y-7294240D01*
X6351233Y-7303763D01*
X6360757Y-7322811D01*
X6360757Y-7427573D01*
X6751233Y-7218049D02*
X6579805Y-7475192D01*
X7008376Y-7227573D02*
X7027424Y-7227573D01*
X7046471Y-7237097D01*
X7055995Y-7246621D01*
X7065519Y-7265668D01*
X7075043Y-7303763D01*
X7075043Y-7351383D01*
X7065519Y-7389478D01*
X7055995Y-7408525D01*
X7046471Y-7418049D01*
X7027424Y-7427573D01*
X7008376Y-7427573D01*
X6989329Y-7418049D01*
X6979805Y-7408525D01*
X6970281Y-7389478D01*
X6960757Y-7351383D01*
X6960757Y-7303763D01*
X6970281Y-7265668D01*
X6979805Y-7246621D01*
X6989329Y-7237097D01*
X7008376Y-7227573D01*
X7160757Y-7408525D02*
X7170281Y-7418049D01*
X7160757Y-7427573D01*
X7151233Y-7418049D01*
X7160757Y-7408525D01*
X7160757Y-7427573D01*
X7294090Y-7227573D02*
X7313138Y-7227573D01*
X7332186Y-7237097D01*
X7341710Y-7246621D01*
X7351233Y-7265668D01*
X7360757Y-7303763D01*
X7360757Y-7351383D01*
X7351233Y-7389478D01*
X7341710Y-7408525D01*
X7332186Y-7418049D01*
X7313138Y-7427573D01*
X7294090Y-7427573D01*
X7275043Y-7418049D01*
X7265519Y-7408525D01*
X7255995Y-7389478D01*
X7246471Y-7351383D01*
X7246471Y-7303763D01*
X7255995Y-7265668D01*
X7265519Y-7246621D01*
X7275043Y-7237097D01*
X7294090Y-7227573D01*
X7532186Y-7294240D02*
X7532186Y-7427573D01*
X7484567Y-7218049D02*
X7436948Y-7360906D01*
X7560757Y-7360906D01*
X7675043Y-7227573D02*
X7694090Y-7227573D01*
X7713138Y-7237097D01*
X7722662Y-7246621D01*
X7732186Y-7265668D01*
X7741710Y-7303763D01*
X7741710Y-7351383D01*
X7732186Y-7389478D01*
X7722662Y-7408525D01*
X7713138Y-7418049D01*
X7694090Y-7427573D01*
X7675043Y-7427573D01*
X7655995Y-7418049D01*
X7646471Y-7408525D01*
X7636948Y-7389478D01*
X7627424Y-7351383D01*
X7627424Y-7303763D01*
X7636948Y-7265668D01*
X7646471Y-7246621D01*
X7655995Y-7237097D01*
X7675043Y-7227573D01*
X7865519Y-7227573D02*
X7884567Y-7227573D01*
X7903614Y-7237097D01*
X7913138Y-7246621D01*
X7922662Y-7265668D01*
X7932186Y-7303763D01*
X7932186Y-7351383D01*
X7922662Y-7389478D01*
X7913138Y-7408525D01*
X7903614Y-7418049D01*
X7884567Y-7427573D01*
X7865519Y-7427573D01*
X7846471Y-7418049D01*
X7836948Y-7408525D01*
X7827424Y-7389478D01*
X7817900Y-7351383D01*
X7817900Y-7303763D01*
X7827424Y-7265668D01*
X7836948Y-7246621D01*
X7846471Y-7237097D01*
X7865519Y-7227573D01*
X8008376Y-7227573D02*
X8008376Y-7265668D01*
X8084567Y-7227573D02*
X8084567Y-7265668D01*
X8379805Y-7503763D02*
X8370281Y-7494240D01*
X8351233Y-7465668D01*
X8341710Y-7446621D01*
X8332186Y-7418049D01*
X8322662Y-7370430D01*
X8322662Y-7332335D01*
X8332186Y-7284716D01*
X8341710Y-7256144D01*
X8351233Y-7237097D01*
X8370281Y-7208525D01*
X8379805Y-7199002D01*
X8484567Y-7313287D02*
X8465519Y-7303763D01*
X8455995Y-7294240D01*
X8446472Y-7275192D01*
X8446472Y-7265668D01*
X8455995Y-7246621D01*
X8465519Y-7237097D01*
X8484567Y-7227573D01*
X8522662Y-7227573D01*
X8541710Y-7237097D01*
X8551233Y-7246621D01*
X8560757Y-7265668D01*
X8560757Y-7275192D01*
X8551233Y-7294240D01*
X8541710Y-7303763D01*
X8522662Y-7313287D01*
X8484567Y-7313287D01*
X8465519Y-7322811D01*
X8455995Y-7332335D01*
X8446472Y-7351383D01*
X8446472Y-7389478D01*
X8455995Y-7408525D01*
X8465519Y-7418049D01*
X8484567Y-7427573D01*
X8522662Y-7427573D01*
X8541710Y-7418049D01*
X8551233Y-7408525D01*
X8560757Y-7389478D01*
X8560757Y-7351383D01*
X8551233Y-7332335D01*
X8541710Y-7322811D01*
X8522662Y-7313287D01*
X8798852Y-7427573D02*
X8798852Y-7227573D01*
X8884567Y-7427573D02*
X8884567Y-7322811D01*
X8875043Y-7303763D01*
X8855995Y-7294240D01*
X8827424Y-7294240D01*
X8808376Y-7303763D01*
X8798852Y-7313287D01*
X9008376Y-7427573D02*
X8989329Y-7418049D01*
X8979805Y-7408525D01*
X8970281Y-7389478D01*
X8970281Y-7332335D01*
X8979805Y-7313287D01*
X8989329Y-7303763D01*
X9008376Y-7294240D01*
X9036948Y-7294240D01*
X9055995Y-7303763D01*
X9065519Y-7313287D01*
X9075043Y-7332335D01*
X9075043Y-7389478D01*
X9065519Y-7408525D01*
X9055995Y-7418049D01*
X9036948Y-7427573D01*
X9008376Y-7427573D01*
X9189329Y-7427573D02*
X9170281Y-7418049D01*
X9160757Y-7399002D01*
X9160757Y-7227573D01*
X9341710Y-7418049D02*
X9322662Y-7427573D01*
X9284567Y-7427573D01*
X9265519Y-7418049D01*
X9255995Y-7399002D01*
X9255995Y-7322811D01*
X9265519Y-7303763D01*
X9284567Y-7294240D01*
X9322662Y-7294240D01*
X9341710Y-7303763D01*
X9351233Y-7322811D01*
X9351233Y-7341859D01*
X9255995Y-7360906D01*
X9427424Y-7418049D02*
X9446472Y-7427573D01*
X9484567Y-7427573D01*
X9503614Y-7418049D01*
X9513138Y-7399002D01*
X9513138Y-7389478D01*
X9503614Y-7370430D01*
X9484567Y-7360906D01*
X9455995Y-7360906D01*
X9436948Y-7351383D01*
X9427424Y-7332335D01*
X9427424Y-7322811D01*
X9436948Y-7303763D01*
X9455995Y-7294240D01*
X9484567Y-7294240D01*
X9503614Y-7303763D01*
X9579805Y-7503763D02*
X9589329Y-7494240D01*
X9608376Y-7465668D01*
X9617900Y-7446621D01*
X9627424Y-7418049D01*
X9636948Y-7370430D01*
X9636948Y-7332335D01*
X9627424Y-7284716D01*
X9617900Y-7256144D01*
X9608376Y-7237097D01*
X9589329Y-7208525D01*
X9579805Y-7199002D01*
M02*
